<?xml version='1.0' encoding='UTF-8' standalone='no'?>
<svg height="300" version="1.2" width="800" xmlns="http://www.w3.org/2000/svg" xmlns:atv="http://webmi.atvise.com/2007/svgext" xmlns:xlink="http://www.w3.org/1999/xlink">
 <defs>
  <linearGradient gradientUnits="objectBoundingBox" id="linear_2" x1="0" x2="0" y1="0" y2="1.07843">
   <stop offset="0" stop-color="#818181"/>
   <stop offset="0.8475336322869955" stop-color="#464646"/>
   <stop offset="0.9372197309417041" stop-color="#000000"/>
  </linearGradient>
 </defs>
 <desc>Used by highcharts configuration dialog.</desc>
 <title>Configuration - X-Axis (Small)</title>
 <metadata>
  <atv:parameter behavior="optional" defaultvalue="SYSTEM.GLOBALS.atvFontColor" desc="font color" name="fontColor" substitute="$FONTCOLOR$" valuetype="global"/>
  <atv:parameter behavior="optional" defaultvalue="SYSTEM.GLOBALS.atvFillColor" desc="fill color" name="fillColor" substitute="$FILLCOLOR$" valuetype="global"/>
  <atv:parameter behavior="hidden" defaultvalue="4" desc="number of series" group="Appearance" name="num_series" substitute="" valuetype="number"/>
  <atv:gridconfig enabled="true" gridstyle="lines" height="20" width="20"/>
  <atv:snapconfig enabled="true" height="5" width="5"/>
 </metadata>
 <rect atv:refpx="90" atv:refpy="0" fill="$FILLCOLOR$" height="300" id="filters_bg" rx="0" ry="0" stroke="#000000" stroke-width="0" width="180" x="0" y="0"/>
 <line atv:refpx="510" atv:refpy="155" id="id_0" stroke="#d7d7d7" stroke-width="0.5" x1="530" x2="530" y1="15" y2="295"/>
 <text atv:refpx="83.548" atv:refpy="31.5" fill="$FONTCOLOR$" font-family="Arial" font-size="12" font-weight="bold" id="id_2" x="24.5" y="36">T{X-Axis to configure}:</text>
 <text atv:refpx="257.212" atv:refpy="31.5" fill="$FONTCOLOR$" font-family="Arial" font-size="12" font-weight="bold" id="id_1" x="200.5" y="36">T{Axis configuration}:</text>
 <text atv:refpx="570.84" atv:refpy="31.5" fill="$FONTCOLOR$" font-family="Arial" font-size="12" font-weight="bold" id="id_3" x="544.5" y="36">T{Styling}:</text>
 <text atv:refpx="289" atv:refpy="71.5" fill="$FONTCOLOR$" font-family="Arial" font-size="12" id="id_7" text-anchor="end" x="301.5" y="76">T{Title}:</text>
 <text atv:refpx="230.281" atv:refpy="120.5" fill="$FONTCOLOR$" font-family="Arial" font-size="12" id="id_8" text-anchor="end" x="300.281" y="125">T{Time span}:</text>
 <text atv:refpx="245.281" atv:refpy="154.5" fill="$FONTCOLOR$" font-family="Arial" font-size="12" id="id_9" text-anchor="end" x="301.281" y="159">T{Date/Time format}:</text>
 <text atv:refpx="245.39" atv:refpy="203.5" fill="$FONTCOLOR$" font-family="Arial" font-size="12" id="id_10" text-anchor="end" x="300.39" y="208">T{Major tick interval}:</text>
 <text atv:refpx="245.39" atv:refpy="237.5" fill="$FONTCOLOR$" font-family="Arial" font-size="12" id="id_11" text-anchor="end" x="300.39" y="242">T{Minor tick interval}:</text>
 <svg atv:refpx="414.516" atv:refpy="70" height="30" id="xAxis_title_text" transform="matrix(1.1187,0,0,1,0,0)" width="160" x="292.304" xlink:href="SYSTEM.LIBRARY.ATVISE.OBJECTDISPLAYS.Advanced.in_out_value" y="55">
  <atv:argument name="validation" value="String"/>
  <atv:argument name="tabIndex" value="21"/>
  <atv:overwrite id="input_label" transform="matrix(0.8939,0,0,1,0,0)" x="171.047"/>
  <atv:overwrite id="blinking_frame" transform="matrix(0.8939,0,0,1,0,0)" width="170.992"/>
  <atv:overwrite id="focus_frame" transform="matrix(0.8939,0,0,1,0,0)" width="174.992"/>
  <atv:overwrite id="input_bg" transform="matrix(0.8939,0,0,1,0,0)" width="170.992"/>
  <atv:overwrite id="id_1" transform="matrix(0.8939,0,0,1,0,0)" width="176.992"/>
  <atv:overwrite id="id_0" transform="matrix(0.8939,0,0,1,0,0)" width="178.992"/>
 </svg>
 <svg atv:refpx="450.445" atv:refpy="210" height="30" id="xAxis_labels_format" transform="matrix(1.1194,0,0,1,0,0)" width="160" x="291.118" xlink:href="SYSTEM.LIBRARY.ATVISE.OBJECTDISPLAYS.Advanced.in_out_value" y="140">
  <atv:argument name="validation" value="String"/>
  <atv:argument name="tabIndex" value="24"/>
  <atv:overwrite id="input_label" transform="matrix(0.8933,0,0,1,0,0)" x="171.159"/>
  <atv:overwrite id="blinking_frame" transform="matrix(0.8933,0,0,1,0,0)" width="171.104"/>
  <atv:overwrite id="focus_frame" transform="matrix(0.8933,0,0,1,0,0)" width="175.104"/>
  <atv:overwrite id="input_bg" transform="matrix(0.8933,0,0,1,0,0)" width="171.104"/>
  <atv:overwrite id="id_1" transform="matrix(0.8933,0,0,1,0,0)" width="177.104"/>
  <atv:overwrite id="id_0" transform="matrix(0.8933,0,0,1,0,0)" width="179.104"/>
 </svg>
 <svg atv:refpx="390.131" atv:refpy="175" height="30" id="xAxis_timeSpan" transform="matrix(0.3688,0,0,1,0,0)" width="160" x="884.081" xlink:href="SYSTEM.LIBRARY.ATVISE.OBJECTDISPLAYS.Advanced.picker_value" y="105">
  <atv:argument name="tabIndex" value="22"/>
  <atv:argument name="min" value="1"/>
  <atv:overwrite id="id_2" transform="matrix(2.7115,0,0,1,0,0)" width="59.008"/>
  <atv:overwrite id="focus_frame" transform="matrix(2.7115,0,0,1,0,0)" width="55.008"/>
  <atv:overwrite id="clickarea_dec" transform="matrix(2.7115,0,0,1,-273.8395,0)"/>
  <atv:overwrite id="clickarea_inc" transform="matrix(2.7115,0,0,1,-273.8395,0)"/>
  <atv:overwrite id="input_label" transform="matrix(2.7115,0,0,1,0,0)" x="24.508"/>
  <atv:overwrite id="blinking_frame" transform="matrix(2.7115,0,0,1,0,0)" width="27.008"/>
  <atv:overwrite id="input_bg" transform="matrix(2.7115,0,0,1,0,0)" width="27.008"/>
  <atv:overwrite id="id_0" transform="matrix(2.7115,0,0,1,0,0)" width="57.008"/>
 </svg>
 <text atv:refpx="607" atv:refpy="69.5" fill="$FONTCOLOR$" font-family="Arial" font-size="12" id="id_23" text-anchor="end" x="661.5" y="74">T{Position of x-axis}:</text>
 <svg atv:refpx="730" atv:refpy="70" height="30" id="xAxis_opposite-false" width="160" x="680" xlink:href="SYSTEM.LIBRARY.ATVISE.OBJECTDISPLAYS.Advanced.radiobutton" y="55">
  <atv:argument name="radiogroupId" value="xAxis_opposite"/>
  <atv:argument name="label" value="T{bottom}"/>
  <atv:argument name="value" value="bottom"/>
  <atv:argument name="tabIndex" value="51"/>
  <atv:overwrite id="radiobutton_bg2" transform="matrix(1.6,0,0,1,0,0)"/>
  <atv:overwrite id="id_2" transform="matrix(1.6,0,0,1,0,0)" width="68"/>
  <atv:overwrite id="id_0" transform="matrix(1.6,0,0,1,0,0)" width="99.5"/>
  <atv:overwrite id="radiobutton_bg" width="66"/>
 </svg>
 <svg atv:refpx="730" atv:refpy="105" height="30" id="xAxis_opposite-true" width="160" x="680" xlink:href="SYSTEM.LIBRARY.ATVISE.OBJECTDISPLAYS.Advanced.radiobutton" y="90">
  <atv:argument name="radiogroupId" value="xAxis_opposite"/>
  <atv:argument name="label" value="T{top}"/>
  <atv:argument name="value" value="top"/>
  <atv:argument name="tabIndex" value="52"/>
  <atv:overwrite id="radiobutton_bg2" transform="matrix(1.6,0,0,1,0,0)"/>
  <atv:overwrite id="id_2" transform="matrix(1.6,0,0,1,0,0)" width="68"/>
  <atv:overwrite id="id_0" transform="matrix(1.6,0,0,1,0,0)" width="99.5"/>
  <atv:overwrite id="radiobutton_bg" width="66"/>
 </svg>
 <svg atv:refpx="729" atv:refpy="150" height="30" id="xAxis_labels_align-left" width="160" x="679" xlink:href="SYSTEM.LIBRARY.ATVISE.OBJECTDISPLAYS.Advanced.radiobutton" y="135">
  <atv:argument name="radiogroupId" value="xAxis_labels_align"/>
  <atv:argument name="label" value="T{left}"/>
  <atv:argument name="value" value="left"/>
  <atv:argument name="tabIndex" value="53"/>
  <atv:overwrite id="radiobutton_bg2" transform="matrix(1.6,0,0,1,0,0)"/>
  <atv:overwrite id="id_2" transform="matrix(1.6,0,0,1,0,0)" width="68"/>
  <atv:overwrite id="id_0" transform="matrix(1.6,0,0,1,0,0)" width="99.5"/>
  <atv:overwrite id="radiobutton_bg" width="66"/>
 </svg>
 <svg atv:refpx="729" atv:refpy="185" height="30" id="xAxis_labels_align-center" width="160" x="679" xlink:href="SYSTEM.LIBRARY.ATVISE.OBJECTDISPLAYS.Advanced.radiobutton" y="170">
  <atv:argument name="radiogroupId" value="xAxis_labels_align"/>
  <atv:argument name="label" value="T{center}"/>
  <atv:argument name="value" value="center"/>
  <atv:argument name="tabIndex" value="54"/>
  <atv:overwrite id="radiobutton_bg2" transform="matrix(1.6,0,0,1,0,0)"/>
  <atv:overwrite id="id_2" transform="matrix(1.6,0,0,1,0,0)" width="68"/>
  <atv:overwrite id="id_0" transform="matrix(1.6,0,0,1,0,0)" width="99.5"/>
  <atv:overwrite id="radiobutton_bg" width="66"/>
 </svg>
 <svg atv:refpx="729" atv:refpy="220" height="30" id="xAxis_labels_align-right" width="160" x="679" xlink:href="SYSTEM.LIBRARY.ATVISE.OBJECTDISPLAYS.Advanced.radiobutton" y="205">
  <atv:argument name="radiogroupId" value="xAxis_labels_align"/>
  <atv:argument name="label" value="T{right}"/>
  <atv:argument name="value" value="right"/>
  <atv:argument name="tabIndex" value="55"/>
  <atv:overwrite id="radiobutton_bg2" transform="matrix(1.6,0,0,1,0,0)"/>
  <atv:overwrite id="id_2" transform="matrix(1.6,0,0,1,0,0)" width="68"/>
  <atv:overwrite id="id_0" transform="matrix(1.6,0,0,1,0,0)" width="99.5"/>
  <atv:overwrite id="radiobutton_bg" width="66"/>
 </svg>
 <svg atv:refpx="90.5" atv:refpy="105" height="30" id="axisSelector0" transform="" width="160" x="20" xlink:href="SYSTEM.LIBRARY.ATVISE.OBJECTDISPLAYS.Advanced.radiobutton" y="90">
  <atv:argument name="label" value="T{X-Axis}"/>
  <atv:argument name="value" value="0"/>
  <atv:argument name="tabIndex" value="10"/>
  <atv:argument name="radiogroupId" value="g0"/>
  <atv:argument name="preselected" value="true"/>
  <atv:overwrite id="radiobutton_bg2" transform="matrix(1.151,0,0,1,0,0)"/>
  <atv:overwrite id="id_2" transform="matrix(1.151,0,0,1,0,0)" width="107.008"/>
  <atv:overwrite id="id_0" transform="matrix(1.151,0,0,1,0,0)" width="138.508"/>
  <atv:overwrite id="radiobutton_bg" width="105.008"/>
 </svg>
 <svg atv:refpx="90" atv:refpy="175" height="30" id="axisSelector2" transform="" visibility="hidden" width="160" x="20" xlink:href="SYSTEM.LIBRARY.ATVISE.OBJECTDISPLAYS.Advanced.radiobutton" y="160">
  <atv:argument name="label" value="T{X-Axis}"/>
  <atv:argument name="radiogroupId" value="g0"/>
  <atv:argument name="value" value="2"/>
  <atv:argument name="tabIndex" value="12"/>
  <atv:overwrite id="radiobutton_bg2" transform="matrix(1.1429,0,0,1,0,0)"/>
  <atv:overwrite id="id_2" transform="matrix(1.1429,0,0,1,0,0)" width="108"/>
  <atv:overwrite id="id_0" transform="matrix(1.1429,0,0,1,0,0)" width="139.5"/>
  <atv:overwrite id="radiobutton_bg" width="106"/>
 </svg>
 <svg atv:refpx="90" atv:refpy="210" height="30" id="axisSelector3" transform="" visibility="hidden" width="160" x="20" xlink:href="SYSTEM.LIBRARY.ATVISE.OBJECTDISPLAYS.Advanced.radiobutton" y="195">
  <atv:argument name="label" value="T{X-Axis}"/>
  <atv:argument name="radiogroupId" value="g0"/>
  <atv:argument name="value" value="3"/>
  <atv:argument name="tabIndex" value="13"/>
  <atv:overwrite id="radiobutton_bg2" transform="matrix(1.1429,0,0,1,0,0)"/>
  <atv:overwrite id="id_2" transform="matrix(1.1429,0,0,1,0,0)" width="108"/>
  <atv:overwrite id="id_0" transform="matrix(1.1429,0,0,1,0,0)" width="139.5"/>
  <atv:overwrite id="radiobutton_bg" width="106"/>
 </svg>
 <svg atv:refpx="90" atv:refpy="140" height="30" id="axisSelector1" transform="" visibility="hidden" width="160" x="20" xlink:href="SYSTEM.LIBRARY.ATVISE.OBJECTDISPLAYS.Advanced.radiobutton" y="125">
  <atv:argument name="label" value="T{X-Axis}"/>
  <atv:argument name="radiogroupId" value="g0"/>
  <atv:argument name="value" value="1"/>
  <atv:argument name="tabIndex" value="11"/>
  <atv:overwrite id="radiobutton_bg2" transform="matrix(1.1429,0,0,1,0,0)"/>
  <atv:overwrite id="id_2" transform="matrix(1.1429,0,0,1,0,0)" width="108"/>
  <atv:overwrite id="id_0" transform="matrix(1.1429,0,0,1,0,0)" width="139.5"/>
  <atv:overwrite id="radiobutton_bg" width="106"/>
 </svg>
 <svg atv:refpx="90.001" atv:refpy="70" height="30" id="btn_add" transform="matrix(1.75,0,0,1,0,0)" width="80" x="11.429" xlink:href="SYSTEM.LIBRARY.ATVISE.OBJECTDISPLAYS.Advanced.button" y="55">
  <atv:argument name="symbol" value="SYSTEM.LIBRARY.ATVISE.OBJECTDISPLAYS.Symbols.20x20.plus"/>
  <atv:argument name="label" value="T{Add}"/>
  <atv:argument name="tabIndex" value="1"/>
  <atv:overwrite id="id_2" transform="matrix(0.5714,0,0,1,0,0)" width="134.5"/>
  <atv:overwrite id="id_0" transform="matrix(0.5714,0,0,1,0,0)" width="139.5"/>
  <atv:argument name="extraBorderColor" value="#ffffff"/>
  <atv:overwrite id="id_6" transform="matrix(0.5714,0,0,1,0,0)" width="138"/>
  <atv:overwrite id="button_label" transform="matrix(0.5714,0,0,1,0,0)" x="70"/>
  <atv:overwrite id="button_symbol" transform="matrix(0.5714,0,0,1,0,0)" x="60"/>
  <atv:overwrite id="button_stroke" transform="matrix(0.5714,0,0,1,0,0)" width="136"/>
  <atv:overwrite id="button_bg" transform="matrix(0.5714,0,0,1,0,0)" width="138"/>
  <atv:overwrite id="outer_frame" transform="matrix(0.5714,0,0,1,0,0)" width="140"/>
 </svg>
 <svg atv:refpx="90" atv:refpy="275" height="30" id="btn_delete" transform="matrix(1.75,0,0,1,0,0)" width="80" x="11.429" xlink:href="SYSTEM.LIBRARY.ATVISE.OBJECTDISPLAYS.Advanced.button" y="258">
  <atv:argument name="symbol" value="SYSTEM.LIBRARY.ATVISE.OBJECTDISPLAYS.Symbols.20x20.plus"/>
  <atv:argument name="label" value="T{Delete selected}"/>
  <atv:argument name="tabIndex" value="20"/>
  <atv:overwrite id="id_2" transform="matrix(0.5714,0,0,1,0,0)" width="134.5"/>
  <atv:overwrite id="id_0" transform="matrix(0.5714,0,0,1,0,0)" width="139.5"/>
  <atv:argument name="extraBorderColor" value="#ffffff"/>
  <atv:overwrite id="id_6" transform="matrix(0.5714,0,0,1,0,0)" width="138"/>
  <atv:overwrite id="button_label" transform="matrix(0.5714,0,0,1,0,0)" x="70"/>
  <atv:overwrite id="button_symbol" transform="matrix(0.5714,0,0,1,0,0)" x="60"/>
  <atv:overwrite id="button_stroke" transform="matrix(0.5714,0,0,1,0,0)" width="136"/>
  <atv:overwrite id="button_bg" transform="matrix(0.5714,0,0,1,0,0)" width="138"/>
  <atv:overwrite id="outer_frame" transform="matrix(0.5714,0,0,1,0,0)" width="140"/>
 </svg>
 <!--
 <svg id="xAxis_max" width="160" transform="matrix(1.1187,0,0,1,0,0)" atv:refpy="140" height="30" atv:refpx="449.381" x="322.682" y="139" xlink:href="SYSTEM.LIBRARY.ATVISE.OBJECTDISPLAYS.Advanced.picker_date">
  <atv:argument value="xAxis_max" name="name"/>
  <atv:overwrite id="button_stroke" transform="matrix(0.8939,0,0,1,0,0)" x="154.5"/>
  <atv:overwrite id="id_1" transform="matrix(0.8045,0,0,0.9,0,0)" x="172.778"/>
  <atv:overwrite id="button_bg" transform="matrix(0.8939,0,0,1,0,0)" x="154.5"/>
  <atv:overwrite id="datepicker_label" transform="matrix(0.8939,0,0,1,0,0)" x="144.5"/>
  <atv:overwrite id="focus_frame" width="175" transform="matrix(0.8939,0,0,1,0,0)"/>
  <atv:overwrite id="blinking_frame" width="147" transform="matrix(0.8939,0,0,1,0,0)"/>
  <atv:overwrite id="input_bg" width="147" transform="matrix(0.8939,0,0,1,0,0)"/>
  <atv:overwrite id="id_2" width="179" transform="matrix(0.8939,0,0,1,0,0)"/>
 </svg>
 <svg id="xAxis_min" width="160" transform="matrix(1.1187,0,0,1,0,0)" atv:refpy="105" height="30" atv:refpx="449.381" x="322.682" y="104" xlink:href="SYSTEM.LIBRARY.ATVISE.OBJECTDISPLAYS.Advanced.picker_date">
  <atv:argument value="xAxis_min" name="name"/>
  <atv:overwrite id="button_stroke" transform="matrix(0.8939,0,0,1,0,0)" x="154.5"/>
  <atv:overwrite id="id_1" transform="matrix(0.8045,0,0,0.9,0,0)" x="172.778"/>
  <atv:overwrite id="button_bg" transform="matrix(0.8939,0,0,1,0,0)" x="154.5"/>
  <atv:overwrite id="datepicker_label" transform="matrix(0.8939,0,0,1,0,0)" x="144.5"/>
  <atv:overwrite id="focus_frame" width="175" transform="matrix(0.8939,0,0,1,0,0)"/>
  <atv:overwrite id="blinking_frame" width="147" transform="matrix(0.8939,0,0,1,0,0)"/>
  <atv:overwrite id="input_bg" width="147" transform="matrix(0.8939,0,0,1,0,0)"/>
  <atv:overwrite id="id_2" width="179" transform="matrix(0.8939,0,0,1,0,0)"/>
 </svg>
 <text id="id_14" font-size="12" fill="$FONTCOLOR$" atv:refpy="153.5" atv:refpx="302.172" font-family="Arial" x="335.172" y="158" text-anchor="end">T{End time}:</text>
 <text id="id_15" font-size="12" fill="$FONTCOLOR$" atv:refpy="119.5" atv:refpx="300.672" font-family="Arial" x="335.172" y="124" text-anchor="end">T{Start time}:</text>
 -->
 <svg atv:refpx="498.723" atv:refpy="198.973" height="30" id="xAxis_timeSpanUnit" transform="matrix(0.6873,0,0,1,0,0)" width="160" x="574.791" xlink:href="SYSTEM.LIBRARY.ATVISE.OBJECTDISPLAYS.Advanced.combobox" y="105">
  <atv:argument name="fontFamily" value="MS Trebuchet,ITC Avant Garde Gothic,MS Arial,MS Verdana,Univers,Futura,ITC Stone Sans,Gill Sans,Akzidenz Grotesk,Helvetica,sans-serif"/>
  <atv:argument name="tabIndex" value="23"/>
  <atv:overwrite id="id_3" transform="matrix(1.4954,0,0,1,0,0)" x="81.742"/>
  <atv:overwrite id="id_5" x="79.492"/>
  <atv:overwrite id="id_2"/>
  <atv:overwrite id="combobox_stroke" transform="matrix(1.4954,0,0,1,0,0)" width="106.492"/>
  <atv:overwrite id="focus_frame" transform="matrix(1.455,0,0,1,0,0)" width="105.968"/>
  <atv:overwrite id="button_stroke" transform="matrix(1.455,0,0,1,0,0)" x="84.968"/>
  <atv:overwrite id="id_7" transform="matrix(1.455,0,0,1,0,0)" x="84.968"/>
  <atv:overwrite id="button_bg" transform="matrix(1.455,0,0,1,0,0)" x="84.968"/>
  <atv:overwrite id="combobox_label" transform="matrix(1.455,0,0,1,0,0)" x="75.468"/>
  <atv:overwrite id="blinking_frame" transform="matrix(1.455,0,0,1,0,0)" width="77.968"/>
  <atv:overwrite id="combobox_bg" transform="matrix(1.455,0,0,1,0,0)" width="77.968"/>
  <atv:overwrite id="id_1" transform="matrix(1.455,0,0,1,0,0)" width="107.968"/>
  <atv:overwrite id="id_0" transform="matrix(1.455,0,0,1,0,0)" width="109.968"/>
 </svg>
 <text atv:refpx="635" atv:refpy="140.5" fill="$FONTCOLOR$" font-family="Arial" font-size="12" id="id_26" text-anchor="end" x="658" y="145">T{Label}</text>
 <text atv:refpx="625.5" atv:refpy="158.5" fill="$FONTCOLOR$" font-family="Arial" font-size="12" id="id_4" text-anchor="end" x="661.5" y="163">T{alignment}:</text>
 <svg atv:refpx="415" atv:refpy="203" height="30" id="xAxis_tickInterval" width="180" x="325" xlink:href="SYSTEM.LIBRARY.ATVISE.OBJECTDISPLAYS.Advanced.picker_interval" y="188"/>
 <svg atv:refpx="415" atv:refpy="238" height="30" id="xAxis_minorTickInterval" width="180" x="325" xlink:href="SYSTEM.LIBRARY.ATVISE.OBJECTDISPLAYS.Advanced.picker_interval" y="223"/>
 <script atv:desc="" atv:href="SYSTEM.LIBRARY.ATVISE.DISPLAYSCRIPTS.highcharts.opt_xaxis" atv:name="opt_xaxis" atv:type="text/ecmascript"/>
 <script atv:desc="" atv:name="" type="text/ecmascript"/>
</svg>
