<?xml version='1.0' encoding='UTF-8'?>
<svg atv:contentheight="680" atv:contentwidth="1280" atv:defaultdisplayboolean="SYSTEM.LIBRARY.ATVISE.OBJECTDISPLAYS.Advanced.button_switch" atv:defaultdisplaynumber="SYSTEM.LIBRARY.ATVISE.OBJECTDISPLAYS.Advanced.in_out_value" atv:defaultdisplaystring="SYSTEM.LIBRARY.ATVISE.OBJECTDISPLAYS.Advanced.in_out_value" height="800" version="1.2" width="1280" xmlns="http://www.w3.org/2000/svg" xmlns:atv="http://webmi.atvise.com/2007/svgext" xmlns:xlink="http://www.w3.org/1999/xlink">
 <defs/>
 <desc>1280 x 800 (16:10) - Overlay navigation</desc>
 <title>Advanced</title>
 <metadata>
  <atv:parameter behavior="optional" defaultvalue="content" desc="target frame" name="targetFrame" valuetype="string"/>
  <atv:gridconfig enabled="true" gridstyle="lines" height="20" width="20"/>
  <atv:snapconfig enabled="true" height="5" width="5"/>
 </metadata>
 <svg atv:refpx="640.001" atv:refpy="403" height="600" id="content_iframe" transform="matrix(1.6,0,0,1.1333,0,0)" width="800" x="0" xlink:href="SYSTEM.LIBRARY.ATVISE.OBJECTDISPLAYS.Advanced.hmi.iframe" y="52.943">
  <atv:argument name="display" value="%CONTENT%"/>
  <atv:argument name="frameName" value="content"/>
  <atv:argument name="isNavigationFrame" value="true"/>
 </svg>
 <g atv:refpx="71.48" atv:refpy="21.964" id="logo_clickarea" transform="matrix(0.6667,0,0,0.6667,0,0)">
  <svg atv:refpx="50" atv:refpy="50" height="80" id="layout_logo" transform="matrix(0.75,0,0,0.75,0,0)" width="80" x="30.666" xlink:href="SYSTEM.LIBRARY.ATVISE.OBJECTDISPLAYS.Symbols.atvise_logo" y="18"/>
  <svg atv:refpx="76.201" atv:refpy="29.009" height="12.99" id="layout_logo_r" transform="matrix(2.5688,0,0,2.5688,0,0)" width="48.94" x="27.715" xlink:href="SYSTEM.LIBRARY.ATVISE.OBJECTDISPLAYS.Symbols.atvise_R" y="9.377"/>
  <rect atv:refpx="212.5" atv:refpy="75" fill="#000000" fill-opacity="0.0001" height="60" id="logo_click_1" stroke="none" stroke-width="0" width="60" x="24.5" y="12"/>
  <rect atv:refpx="144.38" atv:refpy="65.815" fill="#000000" fill-opacity="0.0001" height="53.502" id="logo_click_2" stroke="none" stroke-width="0" width="136.503" x="67.497" y="13.995"/>
 </g>
 <svg atv:refpx="83.006" atv:refpy="763.135" height="43" id="button0" width="154" x="6" xlink:href="SYSTEM.LIBRARY.ATVISE.OBJECTDISPLAYS.Advanced.layoutelements.button_favorites_small" y="750">
  <atv:argument name="symbolScaling" value="100"/>
 </svg>
 <svg atv:refpx="244.383" atv:refpy="761.137" height="43" id="button1" width="154" x="165" xlink:href="SYSTEM.LIBRARY.ATVISE.OBJECTDISPLAYS.Advanced.layoutelements.button_custom_small" y="750">
  <atv:argument name="target1" value="SYSTEM.LIBRARY.ATVISE.OBJECTDISPLAYS.Advanced.hmi.alarmlist"/>
  <atv:argument name="symbol1" value="SYSTEM.LIBRARY.ATVISE.OBJECTDISPLAYS.Symbols.20x20.alarm"/>
  <atv:argument name="contextmenu1" value="SYSTEM.GLOBALS.atvObjectDisplays.CustomButtonsMenu.LayoutButtonAlarms"/>
  <atv:argument name="symbolScaling1" value="200"/>
 </svg>
 <svg atv:refpx="396.302" atv:refpy="766.137" height="43" id="button2" width="154" x="324" xlink:href="SYSTEM.LIBRARY.ATVISE.OBJECTDISPLAYS.Advanced.layoutelements.button_custom_small" y="750">
  <atv:overwrite id="custom_button" transform="matrix(2.9503,0,0,2.8477,0,0)" x="-0.682" y="-1.48"/>
  <atv:argument name="target1" value="SYSTEM.LIBRARY.ATVISE.OBJECTDISPLAYS.Advanced.hmi.historylist"/>
  <atv:argument name="symbol1" value="SYSTEM.LIBRARY.ATVISE.OBJECTDISPLAYS.Symbols.20x20.history"/>
 </svg>
 <svg atv:refpx="555.269" atv:refpy="766.137" height="43" id="button3" width="154" x="483" xlink:href="SYSTEM.LIBRARY.ATVISE.OBJECTDISPLAYS.Advanced.layoutelements.button_custom_small" y="750">
  <atv:argument name="target1" value="SYSTEM.LIBRARY.ATVISE.OBJECTDISPLAYS.Advanced.highcharts.main_display"/>
  <atv:argument name="symbol1" value="SYSTEM.LIBRARY.ATVISE.OBJECTDISPLAYS.Symbols.20x20.chart"/>
  <atv:argument name="target1_configName" value="Overview"/>
  <atv:argument name="symbolScaling1" value="120"/>
 </svg>
 <svg atv:refpx="718.243" atv:refpy="761.137" height="43" id="button4" width="154" x="642" xlink:href="SYSTEM.LIBRARY.ATVISE.OBJECTDISPLAYS.Advanced.layoutelements.button_custom_small" y="750"/>
 <svg atv:refpx="872.22" atv:refpy="764.224" height="43" id="button5" width="154" x="801" xlink:href="SYSTEM.LIBRARY.ATVISE.OBJECTDISPLAYS.Advanced.layoutelements.button_custom_small" y="750"/>
 <svg atv:refpx="1027.16" atv:refpy="764.257" height="43" id="button6" width="154" x="960" xlink:href="SYSTEM.LIBRARY.ATVISE.OBJECTDISPLAYS.Advanced.layoutelements.button_custom_small" y="750"/>
 <svg atv:refpx="819.67" atv:refpy="28.6675" height="45" id="zoom_group" transform="matrix(0.963,0,0,0.963,0,0)" width="180" x="761.163" xlink:href="SYSTEM.LIBRARY.ATVISE.OBJECTDISPLAYS.Advanced.layoutelements.button_group_zoom" y="6.231"/>
 <svg atv:refpx="366.006" atv:refpy="28.6674" height="65" id="box_language" transform="matrix(0.6667,0,0,0.6667,0,0)" width="357" x="370.481" xlink:href="SYSTEM.LIBRARY.ATVISE.OBJECTDISPLAYS.Advanced.layoutelements.box_language" y="8.999">
  <atv:argument name="font_size" value="22"/>
  <atv:argument name="contextMenuStyle" value="{&quot;itemHeight&quot;:30,&quot;itemFill&quot;: &quot;#eeeeee&quot;,&quot;itemPadding&quot;:7,&quot;itemMargin&quot;:3,&quot;itemBorderRadius&quot;:3,&quot;itemBorder&quot;:&quot;1px #d7d7d7 solid&quot;, &quot;fill&quot;:0, &quot;strokeWidth&quot;:0,&quot;width&quot;:232,&quot;x&quot;:-1,&quot;y&quot;:77,&quot;textAlign&quot;: &quot;center&quot;}"/>
  <atv:argument name="context_menu_font_size" value="21"/>
 </svg>
 <svg atv:refpx="609.339" atv:refpy="28.6674" height="65" id="box_user" transform="matrix(0.6667,0,0,0.6667,0,0)" width="358" x="734.963" xlink:href="SYSTEM.LIBRARY.ATVISE.OBJECTDISPLAYS.Advanced.layoutelements.box_user" y="8.999">
  <atv:argument name="font_size" value="22"/>
 </svg>
 <svg atv:refpx="972.67" atv:refpy="28.6674" height="65" id="redu_info" transform="matrix(0.6667,0,0,0.6667,0,0)" width="185" x="1366.432" xlink:href="SYSTEM.LIBRARY.ATVISE.OBJECTDISPLAYS.Advanced.layoutelements.redu_info" y="8.999"/>
 <rect atv:refpx="640" atv:refpy="59.666" fill="$FONTCOLOR$" height="3.333" id="line_top" stroke="none" stroke-width="0" width="1280.001" x="0" y="55.667"/>
 <rect atv:refpx="640" atv:refpy="738.667" fill="$FONTCOLOR$" height="3.333" id="line_bottom" stroke="none" stroke-width="0" width="1280.001" x="0" y="741"/>
 <svg atv:refpx="1171.5" atv:refpy="45" height="30" id="layout_date" width="203" x="1070" xlink:href="SYSTEM.LIBRARY.ATVISE.OBJECTDISPLAYS.Advanced.layoutelements.date" y="26">
  <atv:argument name="font_size" value="12"/>
 </svg>
 <svg atv:refpx="1171.5" atv:refpy="11" height="52" id="layout_time" width="203" x="1071" xlink:href="SYSTEM.LIBRARY.ATVISE.OBJECTDISPLAYS.Advanced.layoutelements.time" y="-9">
  <atv:argument name="font_size" value="25"/>
 </svg>
 <svg atv:refpx="1205.085" atv:refpy="767.271" height="43" id="button_alarmlog" width="154" x="1119" xlink:href="SYSTEM.LIBRARY.ATVISE.OBJECTDISPLAYS.Advanced.layoutelements.button_alarmlog_small" y="750">
  <atv:overwrite id="context_menu_sign" transform="matrix(1,0,0,1,0,0)" x="2" y="0"/>
 </svg>
 <svg atv:refpx="1236.829" atv:refpy="771.531" height="30" id="button_navigation" transform="matrix(0.925,0,0,1.4333,0,0)" width="80" x="1296.216" xlink:href="SYSTEM.LIBRARY.ATVISE.OBJECTDISPLAYS.Advanced.button" y="523.268">
  <atv:argument name="symbol" value="SYSTEM.LIBRARY.ATVISE.OBJECTDISPLAYS.Symbols.table.burger"/>
  <atv:argument name="visibilitySymbol" value="inherit"/>
  <atv:argument name="visibilityLabel" value="hidden"/>
  <atv:argument name="borderColor" value="SYSTEM.GLOBALS.atvBorderColor2"/>
  <atv:overwrite height="40.999" id="id_6" transform="matrix(1.0811,0,0,0.6977,0,0)" width="72"/>
  <atv:overwrite id="button_label_2" transform="matrix(1.0811,0,0,0.6977,0,0)" x="37" y="32.999"/>
  <atv:overwrite id="button_label_1" transform="matrix(1.0811,0,0,0.6977,0,0)" x="37" y="18"/>
  <atv:overwrite id="button_label" transform="matrix(1.0811,0,0,0.6977,0,0)" x="37" y="26"/>
  <atv:overwrite id="button_symbol" transform="matrix(1.0811,0,0,0.6977,0,0)" x="27" y="11.5"/>
  <atv:overwrite height="38.999" id="button_stroke" transform="matrix(1.0811,0,0,0.6977,0,0)" width="70"/>
  <atv:overwrite height="40.999" id="button_bg" transform="matrix(1.0811,0,0,0.6977,0,0)" width="72"/>
  <atv:overwrite height="42.999" id="outer_frame" transform="matrix(1.0811,0,0,0.6977,0,0)" width="74"/>
 </svg>
 <svg atv:refpx="1200" atv:refpy="402.5" height="300" id="layout_navi" transform="matrix(0.8,0,0,2.25,0,0)" width="200" x="1400" xlink:href="SYSTEM.LIBRARY.ATVISE.OBJECTDISPLAYS.Advanced.navigation" y="28.889">
  <atv:argument name="navContainerID" value="menu_container"/>
  <atv:argument name="navVisible" value="false"/>
  <atv:argument name="navAnimateType" value="none"/>
  <atv:argument name="navItemBorderWidth" value="0"/>
  <atv:argument name="navHomeDisplay" value="%CONTENT%"/>
  <atv:argument name="navFontSize" value="15"/>
 </svg>
 <script atv:desc="" atv:href="SYSTEM.LIBRARY.ATVISE.DISPLAYSCRIPTS.layouts.Advanced" atv:name="Advanced" atv:type="text/ecmascript"/>
 <script atv:desc="" atv:name="" type="text/ecmascript"/>
</svg>
