<?xml version='1.0' encoding='UTF-8' standalone='no'?>
<svg height="20" version="1.2" width="20" xmlns="http://www.w3.org/2000/svg" xmlns:atv="http://webmi.atvise.com/2007/svgext" xmlns:xlink="http://www.w3.org/1999/xlink">
 <defs/>
 <metadata>
  <atv:parameter behavior="optional" defaultvalue="#000000" desc="symbol color" name="symbolColor" substitute="$SYMBOLCOLOR$" valuetype="color"/>
  <atv:gridconfig enabled="true" gridstyle="lines" height="2" width="2"/>
  <atv:snapconfig enabled="false" height="1" width="1"/>
 </metadata>
 <circle atv:refpx="10" atv:refpy="11" cx="10" cy="11" fill="none" id="id_0" r="8" stroke="$SYMBOLCOLOR$" stroke-width="2"/>
 <circle atv:refpx="10" atv:refpy="11" cx="10" cy="11" fill="$SYMBOLCOLOR$" id="id_1" r="2" stroke="none" stroke-width="2"/>
 <path atv:refpx="10" atv:refpy="1.5" d="M9,3L9,2C9,2 9,1 8,1C7,0.999 7,1 7,1C7,1 7,0 7,0C7,0 13,0 13,0C13,0 13,1 13,1C13,1 12,1 12,1C12,1 11,1 11,2C11,3 11,3 11,3C11,3 9,3 9,3" fill="$SYMBOLCOLOR$" id="id_2" stroke="none" stroke-width="2"/>
 <ellipse atv:refpx="15.5" atv:refpy="3.866" cx="15.356" cy="-4.402" fill="$SYMBOLCOLOR$" id="id_4" rx="2" ry="1" stroke="none" stroke-width="2" transform="matrix(0.866,0.5,-0.5,0.866,0,0)"/>
 <ellipse atv:refpx="4.5" atv:refpy="3.866" cx="1.964" cy="-5.598" fill="$SYMBOLCOLOR$" id="id_6" rx="2" ry="1" stroke="none" stroke-width="2" transform="matrix(0.866,-0.5,-0.5,-0.866,0,0)"/>
 <rect atv:refpx="10" atv:refpy="7.69" fill="$SYMBOLCOLOR$" height="6" id="id_10" stroke="none" stroke-width="1" width="0.635" x="9.683" y="4.69"/>
 <script atv:desc="" atv:name="" type="text/ecmascript"/>
</svg>
