<?xml version='1.0' encoding='UTF-8' standalone='no'?>
<svg height="400" version="1.2" width="800.00000000000011" xmlns="http://www.w3.org/2000/svg" xmlns:atv="http://webmi.atvise.com/2007/svgext" xmlns:xlink="http://www.w3.org/1999/xlink">
 <defs/>
 <metadata>
  <atv:gridconfig enabled="false" gridstyle="lines" height="20" width="20"/>
  <atv:snapconfig enabled="false" height="10" width="10"/>
 </metadata>
 <script atv:desc="" atv:name="" type="text/ecmascript"/>
 <svg atv:refpx="400" atv:refpy="200" height="160" id="id_0" transform="matrix(5,0,0,2.5,0,0)" width="160" x="0" xlink:href="SYSTEM.LIBRARY.ATVISE.OBJECTDISPLAYS.Advanced.dashboard.chart_line_tile" y="0">
  <atv:overwrite height="375" id="clickarea_display" transform="matrix(0.2,0,0,0.4,0,0)" width="800"/>
  <atv:overwrite height="265" id="clickarea_title" transform="matrix(0.2,0,0,0.4,0,0)" width="800"/>
  <atv:overwrite id="sub_label" transform="matrix(0.2,0,0,0.4,0,0)" x="400" y="229.246"/>
  <atv:overwrite id="main_label" transform="matrix(0.2,0,0,0.4,0,0)" x="400" y="210.5"/>
  <atv:overwrite id="chart" transform="matrix(0.3945,0,0,0.369,0,0)" x="2.788" y="27.642"/>
  <atv:overwrite height="396" id="blinking_frame" transform="matrix(0.2,0,0,0.4,0,0)" width="796"/>
  <atv:overwrite height="370" id="content_frame" transform="matrix(0.2,0,0,0.4,0,0)" width="790"/>
  <atv:overwrite id="title" transform="matrix(0.2,0,0,0.4,0,0)" x="400"/>
  <atv:overwrite height="398" id="background" transform="matrix(0.2,0,0,0.4,0,0)" width="798"/>
 </svg>
</svg>
