<?xml version='1.0' encoding='UTF-8' standalone='no'?>
<svg enable-background="new 0 0 50 50" height="40" id="Ebene_1" version="1.1" width="40" x="0px" xml:space="preserve" y="0px" xmlns="http://www.w3.org/2000/svg" xmlns:atv="http://webmi.atvise.com/2007/svgext" xmlns:xlink="http://www.w3.org/1999/xlink">
 <defs/>
 <metadata>
  <atv:parameter behavior="optional" defaultvalue="#000000" desc="symbol color" name="symbolColor" substitute="$SYMBOLCOLOR$" valuetype="color"/>
  <atv:gridconfig enabled="false" gridstyle="lines" height="20" width="20"/>
  <atv:snapconfig enabled="false" height="10" width="10"/>
 </metadata>
 <polygon atv:refpx="50.013" atv:refpy="21.438" fill="none" id="id_2" points="8.656,2.535 8.656,36.553 31.336,36.553 31.336,10.094 23.776,2.535" stroke="$SYMBOLCOLOR$" stroke-width="1.512"/>
 <polyline atv:refpx="77.282" atv:refpy="6.986" fill="$SYMBOLCOLOR$" id="id_3" points="23.398,3.202 23.398,10.762 30.958,10.762" stroke="none" stroke-width="1.512"/>
 <rect atv:refpx="42.278" atv:refpy="9.856" fill="$SYMBOLCOLOR$" height="1.099" id="id_4" stroke="none" stroke-width="1.516" width="10.282" x="11.278" y="9.306"/>
 <rect atv:refpx="42.28" atv:refpy="6.378" fill="$SYMBOLCOLOR$" height="1.099" id="id_6" stroke="none" stroke-width="1.516" width="10.282" x="11.278" y="5.828"/>
 <rect atv:refpx="19.998" atv:refpy="43.84" fill="$SYMBOLCOLOR$" height="1.099" id="id_7" stroke="none" stroke-width="1.516" width="17.442" x="11.278" y="12.782"/>
 <rect atv:refpx="20" atv:refpy="103.489" fill="$SYMBOLCOLOR$" height="1.099" id="id_8" stroke="none" stroke-width="1.516" width="17.442" x="11.278" y="32.658"/>
 <rect atv:refpx="20" atv:refpy="94.188" fill="$SYMBOLCOLOR$" height="1.099" id="id_9" stroke="none" stroke-width="1.516" width="17.442" x="11.278" y="29.56"/>
 <path atv:refpx="20.001" atv:refpy="21.492" d="M15.234,15.506L17.628,15.506L17.628,20.295L22.371,20.295L22.371,15.506L24.765,15.506L24.765,27.475L22.371,27.475L22.371,22.689L17.628,22.689L17.628,27.475L15.234,27.475Z" fill="$SYMBOLCOLOR$" fill-rule="evenodd" id="id_0" stroke="none" stroke-width="2"/>
 <script atv:desc="" atv:name="" type="text/ecmascript"/>
</svg>
