<?xml version='1.0' encoding='UTF-8' standalone='no'?>
<svg height="330" version="1.2" width="560" xmlns="http://www.w3.org/2000/svg" xmlns:atv="http://webmi.atvise.com/2007/svgext" xmlns:xlink="http://www.w3.org/1999/xlink">
 <defs/>
 <desc>Used by highcharts configuration dialog.</desc>
 <title>Configuration - Pie</title>
 <metadata>
  <atv:parameter behavior="optional" defaultvalue="SYSTEM.GLOBALS.atvFontColor" desc="font color" name="fontColor" substitute="$FONTCOLOR$" valuetype="global"/>
  <atv:gridconfig enabled="true" gridstyle="lines" height="20" width="20"/>
  <atv:snapconfig enabled="true" height="5" width="5"/>
 </metadata>
 <text atv:refpx="124.5" atv:refpy="145.5" fill="$FONTCOLOR$" font-family="Arial" font-size="12" id="id_18" text-anchor="end" x="157.5" y="150">T{Line type}:</text>
 <text atv:refpx="121" atv:refpy="75.5" fill="$FONTCOLOR$" font-family="Arial" font-size="12" id="id_40" text-anchor="end" x="156.5" y="80">T{Line color}:</text>
 <text atv:refpx="121" atv:refpy="110.5" fill="$FONTCOLOR$" font-family="Arial" font-size="12" id="id_41" text-anchor="end" x="157.5" y="115">T{Line width}:</text>
 <svg atv:refpx="230.002" atv:refpy="72" height="30" id="TODO1" transform="matrix(0.625,0,0,1,0,0)" width="160" x="288" xlink:href="SYSTEM.LIBRARY.ATVISE.OBJECTDISPLAYS.Advanced.picker_color" y="60">
  <atv:argument name="name" value="lineColor"/>
  <atv:argument name="tabIndex" value="81"/>
  <atv:overwrite id="button_stroke" transform="matrix(1.6,0,0,1,0,0)" x="75.5"/>
  <atv:overwrite id="id_1" transform="matrix(1.6,0,0,1,0,0)" x="75.75"/>
  <atv:overwrite id="button_bg" transform="matrix(1.6,0,0,1,0,0)" x="75.5"/>
  <atv:overwrite id="input_label" transform="matrix(1.6,0,0,1,0,0)" x="63.5"/>
  <atv:overwrite id="blinking_frame" transform="matrix(1.6,0,0,1,0,0)" width="68"/>
  <atv:overwrite id="focus_frame" transform="matrix(1.6,0,0,1,0,0)" width="96"/>
  <atv:overwrite id="input_bg" transform="matrix(1.6,0,0,1,0,0)" width="68"/>
  <atv:overwrite id="id_2" transform="matrix(1.6,0,0,1,0,0)" width="100"/>
 </svg>
 <svg atv:refpx="230" atv:refpy="144" height="30" id="TODO3" transform="matrix(0.625,0,0,1,0,0)" width="160" x="288" xlink:href="SYSTEM.LIBRARY.ATVISE.OBJECTDISPLAYS.Advanced.picker_value" y="95">
  <atv:argument name="tabIndex" value="83"/>
  <atv:overwrite id="id_2" transform="matrix(1.6,0,0,1,0,0)" width="100"/>
  <atv:overwrite id="focus_frame" transform="matrix(1.6,0,0,1,0,0)" width="96"/>
  <atv:overwrite id="clickarea_dec" transform="matrix(1.6,0,0,1,-96,0)"/>
  <atv:overwrite id="clickarea_inc" transform="matrix(1.6,0,0,1,-96,0)"/>
  <atv:overwrite id="input_label" transform="matrix(1.6,0,0,1,0,0)" x="65.5"/>
  <atv:overwrite id="blinking_frame" transform="matrix(1.6,0,0,1,0,0)" width="68"/>
  <atv:overwrite id="input_bg" transform="matrix(1.6,0,0,1,0,0)" width="68"/>
 </svg>
 <text atv:refpx="314.5" atv:refpy="109.5" fill="$FONTCOLOR$" font-family="Arial" font-size="12" id="id_48" text-anchor="start" x="298.5" y="114">[T{px}]</text>
 <svg atv:refpx="231" atv:refpy="179" height="30" id="TODO4" transform="" width="160" x="180" xlink:href="SYSTEM.LIBRARY.ATVISE.OBJECTDISPLAYS.Advanced.radiobutton" y="130">
  <atv:argument name="radiogroupId" value="g13"/>
  <atv:argument name="label" value="T{solid}"/>
  <atv:argument name="value" value="solid"/>
  <atv:argument name="tabIndex" value="84"/>
  <atv:overwrite id="radiobutton_bg2" transform="matrix(1.6,0,0,1,0,0)"/>
  <atv:overwrite id="id_2" transform="matrix(1.6,0,0,1,0,0)" width="68"/>
  <atv:overwrite id="id_0" transform="matrix(1.6,0,0,1,0,0)" width="99.5"/>
  <atv:overwrite id="radiobutton_bg" width="66"/>
 </svg>
 <svg atv:refpx="336" atv:refpy="182" height="30" id="TODO5" transform="" width="160" x="285" xlink:href="SYSTEM.LIBRARY.ATVISE.OBJECTDISPLAYS.Advanced.radiobutton" y="130">
  <atv:argument name="radiogroupId" value="g13"/>
  <atv:argument name="label" value="T{dotted}"/>
  <atv:argument name="value" value="dotted"/>
  <atv:argument name="tabIndex" value="85"/>
  <atv:overwrite id="radiobutton_bg2" transform="matrix(1.6,0,0,1,0,0)"/>
  <atv:overwrite id="id_2" transform="matrix(1.6,0,0,1,0,0)" width="68"/>
  <atv:overwrite id="id_0" transform="matrix(1.6,0,0,1,0,0)" width="99.5"/>
  <atv:overwrite id="radiobutton_bg" width="66"/>
 </svg>
 <svg atv:refpx="441" atv:refpy="179" height="30" id="TODO6" transform="" width="160" x="390" xlink:href="SYSTEM.LIBRARY.ATVISE.OBJECTDISPLAYS.Advanced.radiobutton" y="130">
  <atv:argument name="radiogroupId" value="g13"/>
  <atv:argument name="label" value="T{dashed}"/>
  <atv:argument name="value" value="dashed"/>
  <atv:argument name="tabIndex" value="86"/>
  <atv:overwrite id="radiobutton_bg2" transform="matrix(1.6,0,0,1,0,0)"/>
  <atv:overwrite id="id_2" transform="matrix(1.6,0,0,1,0,0)" width="68"/>
  <atv:overwrite id="id_0" transform="matrix(1.6,0,0,1,0,0)" width="99.5"/>
  <atv:overwrite id="radiobutton_bg" width="66"/>
 </svg>
 <text atv:refpx="50.84" atv:refpy="31.5" fill="$FONTCOLOR$" font-family="Arial" font-size="12" font-weight="bold" id="id_30" text-anchor="start" x="24.5" y="36">T{Styling}:</text>
 <text atv:refpx="336" atv:refpy="75.5" fill="$FONTCOLOR$" font-family="Arial" font-size="12" id="id_0" text-anchor="end" x="367.5" y="80">T{Fill color}:</text>
 <svg atv:refpx="440.002" atv:refpy="72" height="30" id="TODO2" transform="matrix(0.625,0,0,1,0,0)" width="160" x="625.6" xlink:href="SYSTEM.LIBRARY.ATVISE.OBJECTDISPLAYS.Advanced.picker_color" y="60">
  <atv:argument name="name" value="fillColor"/>
  <atv:argument name="tabIndex" value="82"/>
  <atv:overwrite id="button_stroke" transform="matrix(1.6,0,0,1,0,0)" x="75.5"/>
  <atv:overwrite id="id_1" transform="matrix(1.6,0,0,1,0,0)" x="75.75"/>
  <atv:overwrite id="button_bg" transform="matrix(1.6,0,0,1,0,0)" x="75.5"/>
  <atv:overwrite id="input_label" transform="matrix(1.6,0,0,1,0,0)" x="63.5"/>
  <atv:overwrite id="blinking_frame" transform="matrix(1.6,0,0,1,0,0)" width="68"/>
  <atv:overwrite id="focus_frame" transform="matrix(1.6,0,0,1,0,0)" width="96"/>
  <atv:overwrite id="input_bg" transform="matrix(1.6,0,0,1,0,0)" width="68"/>
  <atv:overwrite id="id_2" transform="matrix(1.6,0,0,1,0,0)" width="100"/>
 </svg>
 <text atv:refpx="129" atv:refpy="180.5" fill="$FONTCOLOR$" font-family="Arial" font-size="12" id="id_4" text-anchor="end" x="156.5" y="185">T{Labels}:</text>
 <svg atv:refpx="281.998" atv:refpy="215" height="30" id="series_dataLabels_format" transform="matrix(1.275,0,0,1,0,0)" width="160" x="141.176" xlink:href="SYSTEM.LIBRARY.ATVISE.OBJECTDISPLAYS.Advanced.in_out_value" y="200">
  <atv:argument name="tabIndex" value="88"/>
  <atv:overwrite id="id_2" transform="matrix(0.7843,0,0,1,0,0)" width="198.5"/>
  <atv:overwrite id="input_label" transform="matrix(0.7843,0,0,1,0,0)" x="196.055"/>
  <atv:overwrite id="blinking_frame" transform="matrix(0.7843,0,0,1,0,0)" width="196"/>
  <atv:overwrite id="focus_frame" transform="matrix(0.7843,0,0,1,0,0)" width="200"/>
  <atv:overwrite id="input_bg" transform="matrix(0.7843,0,0,1,0,0)" width="196"/>
  <atv:overwrite id="id_0" transform="matrix(0.7843,0,0,1,0,0)" width="203.5"/>
 </svg>
 <text atv:refpx="112.5" atv:refpy="215.5" fill="$FONTCOLOR$" font-family="Arial" font-size="12" id="id_9" text-anchor="end" x="155.5" y="220">T{Axis label format}:</text>
 <text atv:refpx="108.5" atv:refpy="250.5" fill="$FONTCOLOR$" font-family="Arial" font-size="12" id="id_10" text-anchor="end" x="157.5" y="255">T{Label distance}:</text>
 <svg atv:refpx="230" atv:refpy="284" height="30" id="series_dataLabels_distance" transform="matrix(0.625,0,0,1,0,0)" width="160" x="288" xlink:href="SYSTEM.LIBRARY.ATVISE.OBJECTDISPLAYS.Advanced.picker_value" y="235">
  <atv:argument name="tabIndex" value="89"/>
  <atv:overwrite id="id_2" transform="matrix(1.6,0,0,1,0,0)" width="100"/>
  <atv:overwrite id="focus_frame" transform="matrix(1.6,0,0,1,0,0)" width="96"/>
  <atv:overwrite id="clickarea_dec" transform="matrix(1.6,0,0,1,-96,0)"/>
  <atv:overwrite id="clickarea_inc" transform="matrix(1.6,0,0,1,-96,0)"/>
  <atv:overwrite id="input_label" transform="matrix(1.6,0,0,1,0,0)" x="65.5"/>
  <atv:overwrite id="blinking_frame" transform="matrix(1.6,0,0,1,0,0)" width="68"/>
  <atv:overwrite id="input_bg" transform="matrix(1.6,0,0,1,0,0)" width="68"/>
 </svg>
 <text atv:refpx="314.5" atv:refpy="249.5" fill="$FONTCOLOR$" font-family="Arial" font-size="12" id="id_12" text-anchor="start" x="298.5" y="254">[T{px}]</text>
 <svg atv:refpx="229" atv:refpy="180" height="30" id="series_dataLabels_enabled" transform="" width="160" x="180" xlink:href="SYSTEM.LIBRARY.ATVISE.OBJECTDISPLAYS.Advanced.checkbox" y="165">
  <atv:argument name="valueOn" value="true"/>
  <atv:argument name="outputValueOn" value="true"/>
  <atv:argument name="outputValueOff" value="false"/>
  <atv:argument name="label" value="T{visible}"/>
  <atv:argument name="tabIndex" value="87"/>
  <atv:overwrite id="checkbox_bg2" transform="matrix(1.6,0,0,1,0,0)"/>
  <atv:overwrite id="id_5" transform="matrix(1.6,0,0,1,0,0)"/>
  <atv:overwrite id="id_2" transform="matrix(1.6,0,0,1,0,0)" width="68"/>
  <atv:overwrite id="id_0" transform="matrix(1.6,0,0,1,0,0)" width="99.5"/>
 </svg>
 <script atv:desc="" atv:href="SYSTEM.LIBRARY.ATVISE.DISPLAYSCRIPTS.highcharts.opt_series_pie" atv:name="opt_series_pie" atv:type="text/ecmascript"/>
 <script atv:desc="" atv:name="" type="text/ecmascript"/>
</svg>
