<?xml version='1.0' encoding='UTF-8' standalone='no'?>
<svg enable-background="new 0 0 72 72" height="20" id="Ebene_1" version="1.1" width="20" x="0px" xml:space="preserve" y="0px" xmlns="http://www.w3.org/2000/svg" xmlns:atv="http://webmi.atvise.com/2007/svgext" xmlns:xlink="http://www.w3.org/1999/xlink">
 <defs/>
 <metadata>
  <atv:parameter behavior="optional" defaultvalue="#000000" desc="symbol color" name="symbolColor" substitute="$SYMBOLCOLOR$" valuetype="color"/>
  <atv:gridconfig enabled="false" gridstyle="lines" height="20" width="20"/>
  <atv:snapconfig enabled="false" height="10" width="10"/>
 </metadata>
 <g atv:refpx="9.998" atv:refpy="9.998" id="id_2">
  <path atv:refpx="10.001" atv:refpy="36.118" d="M14.172,3.144L14.172,5.738C15.545,6.916 16.421,8.662 16.421,10.61C16.421,14.153 13.54,17.034 9.997,17.034C6.455,17.034 3.574,14.151 3.574,10.61C3.574,8.86 4.279,7.273 5.418,6.114L5.418,3.388C3.031,4.906 1.441,7.576 1.441,10.61C1.441,15.328 5.28,19.168 9.999,19.168C14.716,19.168 18.555,15.328 18.555,10.61C18.555,7.406 16.784,4.611 14.172,3.144" fill="$SYMBOLCOLOR$" id="id_0" stroke-width="1.433"/>
  <polygon atv:refpx="45.819" atv:refpy="4.695" fill="$SYMBOLCOLOR$" id="id_1" points="11.163,8.558 8.833,8.558 8.833,0.828 11.163,0.828 11.163,8.558" stroke-width="1.433"/>
 </g>
 <script atv:desc="" atv:name="" type="text/ecmascript"/>
</svg>
