<?xml version='1.0' encoding='UTF-8' standalone='no'?>
<!-- Created with Inkscape (http://www.inkscape.org/) -->
<svg height="160.78657080904108" id="svg59" inkscape:version="1.2.2 (732a01da63, 2022-12-09)" sodipodi:docname="agk.svg" version="1.1" width="153.45062268705027" xmlns="http://www.w3.org/2000/svg" xmlns:atv="http://webmi.atvise.com/2007/svgext" xmlns:inkscape="http://www.inkscape.org/namespaces/inkscape" xmlns:sodipodi="http://sodipodi.sourceforge.net/DTD/sodipodi-0.dtd" xmlns:svg="http://www.w3.org/2000/svg" xmlns:xlink="http://www.w3.org/1999/xlink">
 <defs id="defs63"/>
 <metadata>
  <atv:gridconfig enabled="false" gridstyle="lines" height="20" width="20"/>
  <atv:snapconfig enabled="false" height="10" width="10"/>
 </metadata>
 <sodipodi:namedview bordercolor="#000000" borderopacity="0.25" id="namedview61" inkscape:current-layer="g65" inkscape:cx="88.771712" inkscape:cy="112.5" inkscape:deskcolor="#d1d1d1" inkscape:pagecheckerboard="0" inkscape:pageopacity="0.0" inkscape:showpageshadow="2" inkscape:window-height="1009" inkscape:window-maximized="1" inkscape:window-width="1920" inkscape:window-x="-8" inkscape:window-y="-8" inkscape:zoom="3.5822222" pagecolor="#ffffff" showgrid="false"/>
 <path atv:refpx="76.726" atv:refpy="80.394" d="M36.499,10.359C43.489,11.457 50.464,9.181 57.5,9.682C75.547,10.966 91.294,19.848 100.888,35.359C106.72,44.789 110.273,55.431 111.966,66.359C113.092,73.618 112.829,81.397 115.371,88.357C118.186,96.058 124.869,103.293 133.499,103.891C142.92,104.543 148.96,96.581 151.197,88.355C155.24,73.475 151.908,54.92 145.113,41.359C132.703,16.593 104.113,0.192 76.5,0.504C62.378,0.664 49.351,4.934 36.499,10.359M6.499,45.359C12.723,42.08 18.565,37.996 25.499,36.313C40.548,32.659 56.151,40.629 65.282,52.451C71.908,61.029 71.053,71.43 76.27,80.279C80.372,87.235 88.858,90.655 96.453,87.474C103.296,84.607 105.322,78.245 105.452,71.359C105.679,59.384 101.452,48.2 93.297,39.394C89.259,35.036 84.665,31.218 79.499,28.272C53.477,13.433 24.667,22.759 6.499,45.359M0.5,74.359C10.469,69.747 23.014,66.116 31.988,74.958C39.51,82.37 40.325,97.032 54.49,94.778C68.151,92.604 70.32,75.13 63.483,65.397C46.367,41.027 11.714,49.826 0.5,74.359M81.5,69.359L87.5,81.359C81.672,78.999 79.39,75.509 78.5,69.359ZM119.499,75.359L120.5,75.359C121.886,77.728 123.28,80.089 124.751,82.407C125.493,83.577 131.437,91.728 127.661,92.366C125.763,92.686 124.048,90.434 123.132,89.112C120.353,85.107 118.916,80.168 119.499,75.359M151.499,105.359L150.5,105.359C135.994,123.105 112.043,122.909 94.637,109.112C85.327,101.735 79.519,90.846 69.5,84.359C62.217,95.232 49.811,102.363 39.011,91.037C36.598,88.506 35.053,85.449 33.5,82.359C6.101,92.883 8.907,126.765 27.564,144.095C37.735,153.54 50.943,158.008 64.5,159.657C102.367,164.264 140.733,143.311 151.499,105.359M49.499,91.359L41.499,83.359C46.808,83.622 48.414,86.424 49.499,91.359M51.499,148.359C42.913,148.467 33.556,141.124 28.017,135.051C26.49,133.376 21.069,126.61 25.328,124.883C28.276,123.687 30.96,127.547 32.375,129.485C37.983,137.169 43.474,143.136 51.499,148.359" fill="#0896c3" id="path1681" stroke="#24d9fd" stroke-width="1" style="image-rendering:optimizeQuality"/>
 <script atv:desc="" atv:name="" type="text/ecmascript"/>
</svg>
