<?xml version='1.0' encoding='UTF-8' standalone='no'?>
<svg enable-background="new 0 0 40 40" height="20" id="Ebene_1" version="1.1" width="20" x="0px" xml:space="preserve" y="0px" xmlns="http://www.w3.org/2000/svg" xmlns:atv="http://webmi.atvise.com/2007/svgext" xmlns:xlink="http://www.w3.org/1999/xlink">
 <defs/>
 <metadata>
  <atv:parameter behavior="optional" defaultvalue="#000000" desc="symbol color" name="symbolColor" substitute="$SYMBOLCOLOR$" valuetype="color"/>
  <atv:gridconfig enabled="false" gridstyle="lines" height="20" width="20"/>
  <atv:snapconfig enabled="false" height="10" width="10"/>
 </metadata>
 <g atv:refpx="10" atv:refpy="10" id="id_8" transform="matrix(0.7123,0,0,0.7123,2.8775,2.8775)">
  <path atv:refpx="10" atv:refpy="19.252" d="M14.119,15.28L14.119,11.15C14.119,8.677 12.275,6.673 10,6.673C7.725,6.673 5.881,8.677 5.881,11.15L5.881,15.28L4.531,15.28L4.531,18.482L15.468,18.482L15.468,15.28ZM7.652,12.653C7.652,14.616 6.425,15.648 6.425,15.648C6.425,15.648 6.425,13.922 6.425,11.959C6.425,9.996 7.325,8.404 7.822,8.404C8.32,8.405 7.652,10.69 7.652,12.653" fill="$SYMBOLCOLOR$" id="id_0" stroke-width="0.424"/>
  <rect atv:refpx="19.662" atv:refpy="3.156" fill="$SYMBOLCOLOR$" height="3.275" id="id_1" stroke-width="0.424" width="0.679" x="9.661" y="1.518"/>
  <rect atv:refpx="32.445" atv:refpy="11.293" fill="$SYMBOLCOLOR$" height="0.738" id="id_2" stroke-width="0.424" width="3.013" x="15.469" y="10.925"/>
  <rect atv:refpx="3.025" atv:refpy="21.48" fill="$SYMBOLCOLOR$" height="0.738" id="id_3" stroke-width="0.424" width="3.013" x="1.518" y="10.556"/>
  <polygon atv:refpx="11.455" atv:refpy="4.038" fill="$SYMBOLCOLOR$" id="id_4" points="5.203,2.804 5.792,2.435 7.298,5.271 6.71,5.64" stroke-width="0.424"/>
  <polygon atv:refpx="26.285" atv:refpy="4.038" fill="$SYMBOLCOLOR$" id="id_5" points="14.712,2.804 14.125,2.435 12.619,5.271 13.206,5.64" stroke-width="0.424"/>
  <polygon atv:refpx="4" atv:refpy="13.103" fill="$SYMBOLCOLOR$" id="id_6" points="5.474,7.62 5.135,8.259 2.525,6.621 2.865,5.982" stroke-width="0.424"/>
  <polygon atv:refpx="30.727" atv:refpy="7.121" fill="$SYMBOLCOLOR$" id="id_7" points="14.626,7.62 14.965,8.259 17.574,6.621 17.235,5.982" stroke-width="0.424"/>
 </g>
 <script atv:desc="" atv:name="" type="text/ecmascript"/>
</svg>
