<?xml version='1.0' encoding='UTF-8' standalone='no'?>
<svg height="50" version="1.2" width="800" xmlns="http://www.w3.org/2000/svg" xmlns:atv="http://webmi.atvise.com/2007/svgext" xmlns:xlink="http://www.w3.org/1999/xlink">
 <defs/>
 <rect atv:refpx="400" atv:refpy="25" fill="$FILLCOLOR$" height="50" id="id_1" stroke="#d7d7d7" stroke-width="1" width="800" x="0" y="0"/>
 <desc>A minimal version of the default "top" display (e.g. for panel screens).</desc>
 <title>Topframe One Row</title>
 <metadata>
  <atv:parameter behavior="optional" defaultvalue="SYSTEM.LIBRARY.ATVISE.OBJECTDISPLAYS.Advanced.dialogs.message_dialog" desc="message dialog" name="message_dialog" valuetype="display"/>
  <atv:parameter behavior="optional" defaultvalue="SYSTEM.LIBRARY.ATVISE.OBJECTDISPLAYS.Advanced.dialogs.message_dialog_small" desc="small message dialog" name="message_dialog_small" valuetype="display"/>
  <atv:parameter behavior="optional" defaultvalue="SYSTEM.LIBRARY.ATVISE.OBJECTDISPLAYS.Advanced.dialogs.user_editor" desc="user editor dialog" name="user_dialog" valuetype="display"/>
  <atv:parameter behavior="optional" defaultvalue="SYSTEM.LIBRARY.ATVISE.OBJECTDISPLAYS.Advanced.dialogs.pw_editor" desc="password editor dialog" name="password_dialog" valuetype="display"/>
  <atv:parameter behavior="optional" defaultvalue="SYSTEM.GLOBALS.atvFontColor" desc="font color" name="fontColor" substitute="$FONTCOLOR$" valuetype="global"/>
  <atv:parameter behavior="optional" defaultvalue="SYSTEM.GLOBALS.atvFillColor" desc="background color" name="fillColor" substitute="$FILLCOLOR$" valuetype="global"/>
  <atv:parameter behavior="optional" defaultvalue="SYSTEM.LIBRARY.ATVISE.OBJECTDISPLAYS.Advanced.redundancy.warning_dialog" group="Notifications" desc="redundancy warning dialog" name="redundancy_warning_dialog" valuetype="display"/>
  <atv:parameter behavior="optional" defaultvalue="SYSTEM.LIBRARY.ATVISE.OBJECTDISPLAYS.Advanced.dialogs.message_dialog" group="Notifications" desc="redundancy connection dialog" name="redundancy_connection_dialog" valuetype="display"/>
  <atv:parameter behavior="optional" defaultvalue="true" group="Notifications" desc="show SOP notification" name="show_sop_change" valuetype="bool"/>
  <atv:parameter behavior="optional" defaultvalue="true" group="Notifications" desc="show connection notification" name="show_con_change" valuetype="bool"/>
  <atv:gridconfig enabled="true" gridstyle="lines" height="10" width="10"/>
  <atv:snapconfig enabled="true" height="5" width="5"/>
 </metadata>
 <path atv:refpx="355.987" atv:refpy="59.436" d="M0,0" fill="#000088" id="id_33" stroke="#0000ff" stroke-width="2"/>
 <svg atv:refpx="115" atv:refpy="25" height="45" id="id_22" width="168" x="35" xlink:href="SYSTEM.LIBRARY.ATVISE.OBJECTDISPLAYS.Advanced.hmi.button_group_display" y="2.5">
  <atv:argument name="symbolColor2" value="#ffffff"/>
 </svg>
 <svg atv:refpx="502.498" atv:refpy="24.999" height="30" id="id_11" transform="matrix(1.5,0,0,1.5,0,0)" width="30" x="320" xlink:href="SYSTEM.LIBRARY.ATVISE.OBJECTDISPLAYS.Advanced.hmi.button_login" y="1.667">
  <atv:overwrite id="button_symbol" transform="matrix(0.6667,0,0,0.6667,0,0)" x="12.5" y="12.5"/>
  <atv:overwrite height="37.5" id="button_stroke" transform="matrix(0.6667,0,0,0.6667,0,0)" width="37.5"/>
  <atv:overwrite id="button_symbol_pressed" transform="matrix(0.6667,0,0,0.6667,0,0)" x="12.5" y="12.5"/>
  <atv:overwrite height="37.5" id="button_bg" transform="matrix(0.6667,0,0,0.6667,0,0)" width="37.5"/>
  <atv:overwrite height="39.5" id="id_3" transform="matrix(0.6667,0,0,0.6667,0,0)" width="39.5"/>
  <atv:overwrite height="44.5" id="id_0" transform="matrix(0.6667,0,0,0.6667,0,0)" width="44.5"/>
 </svg>
 <svg atv:refpx="442.5" atv:refpy="25" height="45" id="id_12" width="45" x="420" xlink:href="SYSTEM.LIBRARY.ATVISE.OBJECTDISPLAYS.Advanced.hmi.button_switch_language" y="2.5"/>
 <rect atv:refpx="865.301" atv:refpy="33.34" fill="#ffffff" height="45" id="id_5" rx="5" ry="5.625" stroke="#d7d7d7" stroke-width="1" width="194.5" x="210.5" y="2.5"/>
 <text atv:refpx="75.207" atv:refpy="-62.261" fill="$FONTCOLOR$" font-family="Arial" font-size="14" font-weight="bold" id="username_label" text-anchor="end" x="396" y="20"/>
 <text atv:refpx="-1499.827" atv:refpy="-269.5" fill="$FONTCOLOR$" font-family="Arial" font-size="14" font-weight="bold" id="id_20" x="262" y="20">T{User}:</text>
 <text atv:refpx="-777.066" atv:refpy="-43.261" fill="$FONTCOLOR$" font-family="Arial" font-size="14" font-weight="bold" id="language_label" text-anchor="end" x="396" y="39">T{}</text>
 <text atv:refpx="-1708.444" atv:refpy="-70.5" fill="$FONTCOLOR$" font-family="Arial" font-size="14" font-weight="bold" id="id_25" x="262" y="39">T{Language}:</text>
 <g atv:refpx="233.02" atv:refpy="25.039" id="logo_clickarea">
  <svg atv:refpx="232.976" atv:refpy="24.997" height="80" id="atvise_logo" transform="matrix(0.313,0,0,0.313,0,0)" width="80" x="704.473" xlink:href="SYSTEM.LIBRARY.ATVISE.OBJECTDISPLAYS.Symbols.atvise_logo" y="40.06"/>
  <rect atv:refpx="247.6" atv:refpy="39.6" fill="#000000" fill-opacity="0.0001" height="25" id="logo_click" stroke="none" stroke-width="0" width="25" x="220.5" y="12.5"/>
 </g>
 <g atv:refpx="690.562" atv:refpy="25.336" id="redu_info" visibility="hidden">
  <g atv:refpx="1141.471" atv:refpy="97.989" id="id_36" transform="matrix(1,0,0,1,-480.0722,-69.2345)">
   <text atv:refpx="1154.387" atv:refpy="85.735" fill="$FONTCOLOR$" font-family="Arial" font-size="8" id="id_31" text-anchor="start" x="1133.387" y="89.235">T{STATUS}:</text>
   <text atv:refpx="1151.887" atv:refpy="101.735" fill="$FONTCOLOR$" font-family="Arial" font-size="14" font-weight="bold" id="redu_status" text-anchor="start" x="1133.387" y="105.235"/>
  </g>
  <text atv:refpx="932.136" atv:refpy="235.68" fill="$FONTCOLOR$" font-family="Arial" font-size="30" font-weight="bold" id="redu_role" x="624" y="35"/>
  <svg atv:refpx="1217.783" atv:refpy="95.501" height="30" id="id_43" transform="matrix(0.5625,0,0,1.5,0,0)" width="80" x="1273.11" xlink:href="SYSTEM.LIBRARY.ATVISE.OBJECTDISPLAYS.Advanced.button_open_display" y="2.115">
   <atv:argument name="display" value="SYSTEM.LIBRARY.ATVISE.OBJECTDISPLAYS.Advanced.redundancy.status"/>
   <atv:argument name="symbol" value="SYSTEM.LIBRARY.ATVISE.OBJECTDISPLAYS.Symbols.20x20.info"/>
   <atv:argument name="symbolPressed" value="SYSTEM.LIBRARY.ATVISE.OBJECTDISPLAYS.Symbols.20x20.info"/>
   <atv:argument name="visibilityLabel" value="hidden"/>
   <atv:argument name="visibilitySymbol" value="inherit"/>
   <atv:argument name="tabIndex" value="-999999"/>
   <atv:overwrite id="button_symbol_pressed" transform="matrix(1.7778,0,0,0.6667,0,0)" x="12.5" y="12.5"/>
   <atv:overwrite height="39.5" id="id_2" transform="matrix(1.7778,0,0,0.6667,0,0)" width="39.5"/>
   <atv:overwrite height="44.5" id="id_0" transform="matrix(1.7778,0,0,0.6667,0,0)" width="44.5"/>
   <atv:argument name="borderVisible" value="true"/>
   <atv:overwrite height="43" id="id_6" transform="matrix(1.7778,0,0,0.6667,0,0)" width="43"/>
   <atv:overwrite id="button_label" transform="matrix(1.7778,0,0,0.6667,0,0)" x="22.5" y="27"/>
   <atv:overwrite id="button_symbol" transform="matrix(1.7778,0,0,0.6667,0,0)" x="12.5" y="12.5"/>
   <atv:overwrite height="41" id="button_stroke" transform="matrix(1.7778,0,0,0.6667,0,0)" width="41"/>
   <atv:overwrite height="43" id="button_bg" transform="matrix(1.7778,0,0,0.6667,0,0)" width="43"/>
   <atv:overwrite height="45" id="outer_frame" transform="matrix(1.7778,0,0,0.6667,0,0)" width="45"/>
  </svg>
 </g>
 <script atv:desc="" atv:href="SYSTEM.LIBRARY.ATVISE.DISPLAYSCRIPTS.hmi.top" atv:name="top" atv:type="text/ecmascript"/>
 <script atv:desc="" atv:name="" type="text/ecmascript"/>
</svg>
