<?xml version='1.0' encoding='UTF-8' standalone='no'?>
<svg enable-background="new 0 0 16 16" height="40" id="Ebene_1" version="1.1" width="40" x="0px" xml:space="preserve" y="0px" xmlns="http://www.w3.org/2000/svg" xmlns:atv="http://webmi.atvise.com/2007/svgext" xmlns:xlink="http://www.w3.org/1999/xlink">
 <defs>
  <linearGradient gradientUnits="objectBoundingBox" id="SVGID_1_" x1="-0.290145" x2="0.792871" y1="0.136603" y2="0.639639">
   <stop offset="0" stop-color="#9d9d9c"/>
   <stop offset="1" stop-color="#c3c3b"/>
  </linearGradient>
  <linearGradient gradientUnits="objectBoundingBox" id="SVGID_2_" x1="0.0373956" x2="0.933879" y1="0.0373166" y2="1.06773">
   <stop offset="0" stop-color="#9d9d9c"/>
   <stop offset="1" stop-color="#c3c3b"/>
  </linearGradient>
 </defs>
 <metadata>
  <atv:parameter behavior="optional" defaultvalue="#000000" desc="symbol color" name="symbolColor" substitute="$SYMBOLCOLOR$" valuetype="color"/>
  <atv:parameter behavior="optional" defaultvalue="#ffffff" desc="symbol color 2" name="symbolColor2" substitute="$SYMBOLCOLOR2$" valuetype="color"/>
  <atv:gridconfig enabled="false" gridstyle="lines" height="20" width="20"/>
  <atv:snapconfig enabled="false" height="10" width="10"/>
 </metadata>
 <path atv:refpx="35.589" atv:refpy="25.101" d="M32.04,17.411L32.016,32.787L32.134,32.787L39.138,17.674C39.204,17.529 39.097,17.415 38.902,17.415" fill="$SYMBOLCOLOR$" id="id_0" stroke-width="1.117"/>
 <path atv:refpx="15.77" atv:refpy="20.003" d="M30.302,10.61L14.373,10.61L14.373,7.401C14.373,7.195 14.206,7.03 13.998,7.03L3.095,7.03C2.89,7.03 2.723,7.195 2.723,7.401L2.723,10.61L1.232,10.61C1.026,10.61 0.861,10.777 0.861,10.982L0.861,32.595C0.861,32.804 1.026,32.969 1.232,32.969L30.302,32.969C30.512,32.969 30.677,32.804 30.677,32.595L30.677,10.982C30.677,10.777 30.512,10.61 30.302,10.61" fill="$SYMBOLCOLOR$" id="id_1" stroke-width="1.117"/>
 <rect atv:refpx="16.242" atv:refpy="18.336" fill="none" height="9.549" id="id_2" stroke="$SYMBOLCOLOR2$" stroke-width="1" width="12.261" x="10.111" y="13.564"/>
 <rect atv:refpx="16.242" atv:refpy="28.107" fill="$SYMBOLCOLOR2$" height="5.366" id="id_3" stroke="none" stroke-width="1" width="19.885" x="6.298" y="25.423"/>
 <rect atv:refpx="21.252" atv:refpy="27.154" fill="$SYMBOLCOLOR$" height="0.536" id="id_4" stroke="none" stroke-width="1" width="7.876" x="17.313" y="26.886"/>
 <circle atv:refpx="23.238" atv:refpy="28.698" cx="23.238" cy="28.698" fill="$SYMBOLCOLOR$" id="id_5" r="0.632" stroke="none" stroke-width="1"/>
 <script atv:desc="" atv:name="" type="text/ecmascript"/>
</svg>
