<?xml version='1.0' encoding='UTF-8' standalone='no'?>
<svg height="330" version="1.2" width="560" xmlns="http://www.w3.org/2000/svg" xmlns:atv="http://webmi.atvise.com/2007/svgext" xmlns:xlink="http://www.w3.org/1999/xlink">
 <defs/>
 <desc>Used by highcharts configuration dialog.</desc>
 <title>Configuration - Line/Area</title>
 <metadata>
  <atv:parameter behavior="optional" defaultvalue="SYSTEM.GLOBALS.atvFontColor" desc="font color" name="fontColor" substitute="$FONTCOLOR$" valuetype="global"/>
  <atv:gridconfig enabled="true" gridstyle="lines" height="20" width="20"/>
  <atv:snapconfig enabled="true" height="5" width="5"/>
 </metadata>
 <text atv:refpx="112" atv:refpy="73.5" fill="$FONTCOLOR$" font-family="Arial" font-size="12" id="id_17" text-anchor="end" x="154.5" y="78">T{Interpolation}:</text>
 <text atv:refpx="123.5" atv:refpy="293.5" fill="$FONTCOLOR$" font-family="Arial" font-size="12" id="id_18" text-anchor="end" x="156.5" y="298">T{Line type}:</text>
 <text atv:refpx="102.5" atv:refpy="36.5" fill="$FONTCOLOR$" font-family="Arial" font-size="12" id="id_39" text-anchor="end" x="153.5" y="41">T{Related x/y-axis}:</text>
 <text atv:refpx="120" atv:refpy="223.5" fill="$FONTCOLOR$" font-family="Arial" font-size="12" id="id_40" text-anchor="end" x="155.5" y="228">T{Line color}:</text>
 <text atv:refpx="120" atv:refpy="258.5" fill="$FONTCOLOR$" font-family="Arial" font-size="12" id="id_41" text-anchor="end" x="156.5" y="263">T{Line width}:</text>
 <svg atv:refpx="230.002" atv:refpy="220" height="30" id="series_color" transform="matrix(0.625,0,0,1,0,0)" width="160" x="288" xlink:href="SYSTEM.LIBRARY.ATVISE.OBJECTDISPLAYS.Advanced.picker_color" y="208">
  <atv:argument name="name" value="series_color"/>
  <atv:argument name="tabIndex" value="89"/>
  <atv:overwrite id="button_stroke" transform="matrix(1.6,0,0,1,0,0)" x="75.5"/>
  <atv:overwrite id="id_1" transform="matrix(1.6,0,0,1,0,0)" x="75.75"/>
  <atv:overwrite id="button_bg" transform="matrix(1.6,0,0,1,0,0)" x="75.5"/>
  <atv:overwrite id="input_label" transform="matrix(1.6,0,0,1,0,0)" x="63.5"/>
  <atv:overwrite id="blinking_frame" transform="matrix(1.6,0,0,1,0,0)" width="68"/>
  <atv:overwrite id="focus_frame" transform="matrix(1.6,0,0,1,0,0)" width="96"/>
  <atv:overwrite id="input_bg" transform="matrix(1.6,0,0,1,0,0)" width="68"/>
  <atv:overwrite id="id_2" transform="matrix(1.6,0,0,1,0,0)" width="100"/>
 </svg>
 <svg atv:refpx="230" atv:refpy="292" height="30" id="series_lineWidth" transform="matrix(0.625,0,0,1,0,0)" width="160" x="288" xlink:href="SYSTEM.LIBRARY.ATVISE.OBJECTDISPLAYS.Advanced.picker_value" y="243">
  <atv:argument name="tabIndex" value="91"/>
  <atv:argument name="min" value="0"/>
  <atv:overwrite id="id_2" transform="matrix(1.6,0,0,1,0,0)" width="100"/>
  <atv:overwrite id="focus_frame" transform="matrix(1.6,0,0,1,0,0)" width="96"/>
  <atv:overwrite id="clickarea_dec" transform="matrix(1.6,0,0,1,-96,0)"/>
  <atv:overwrite id="clickarea_inc" transform="matrix(1.6,0,0,1,-96,0)"/>
  <atv:overwrite id="input_label" transform="matrix(1.6,0,0,1,0,0)" x="65.5"/>
  <atv:overwrite id="blinking_frame" transform="matrix(1.6,0,0,1,0,0)" width="68"/>
  <atv:overwrite id="input_bg" transform="matrix(1.6,0,0,1,0,0)" width="68"/>
 </svg>
 <text atv:refpx="313.5" atv:refpy="257.5" fill="$FONTCOLOR$" font-family="Arial" font-size="12" id="id_48" text-anchor="start" x="297.5" y="262">[T{px}]</text>
 <svg atv:refpx="230" atv:refpy="327" height="30" id="series_dashStyle-Solid" width="160" x="180" xlink:href="SYSTEM.LIBRARY.ATVISE.OBJECTDISPLAYS.Advanced.radiobutton" y="278">
  <atv:argument name="radiogroupId" value="series_dashStyle"/>
  <atv:argument name="label" value="T{solid}"/>
  <atv:argument name="value" value="solid"/>
  <atv:argument name="tabIndex" value="92"/>
  <atv:overwrite id="radiobutton_bg2" transform="matrix(1.6,0,0,1,0,0)"/>
  <atv:overwrite id="id_2" transform="matrix(1.6,0,0,1,0,0)" width="68"/>
  <atv:overwrite id="id_0" transform="matrix(1.6,0,0,1,0,0)" width="99.5"/>
  <atv:overwrite id="radiobutton_bg" width="66"/>
 </svg>
 <svg atv:refpx="335" atv:refpy="330" height="30" id="series_dashStyle-Dot" transform="" width="160" x="285" xlink:href="SYSTEM.LIBRARY.ATVISE.OBJECTDISPLAYS.Advanced.radiobutton" y="278">
  <atv:argument name="radiogroupId" value="series_dashStyle"/>
  <atv:argument name="label" value="T{dotted}"/>
  <atv:argument name="value" value="dotted"/>
  <atv:argument name="tabIndex" value="93"/>
  <atv:overwrite id="radiobutton_bg2" transform="matrix(1.6,0,0,1,0,0)"/>
  <atv:overwrite id="id_2" transform="matrix(1.6,0,0,1,0,0)" width="68"/>
  <atv:overwrite id="id_0" transform="matrix(1.6,0,0,1,0,0)" width="99.5"/>
  <atv:overwrite id="radiobutton_bg" width="66"/>
 </svg>
 <svg atv:refpx="440" atv:refpy="327" height="30" id="series_dashStyle-Dash" width="160" x="390" xlink:href="SYSTEM.LIBRARY.ATVISE.OBJECTDISPLAYS.Advanced.radiobutton" y="278">
  <atv:argument name="radiogroupId" value="series_dashStyle"/>
  <atv:argument name="label" value="T{dashed}"/>
  <atv:argument name="value" value="dashed"/>
  <atv:argument name="tabIndex" value="94"/>
  <atv:overwrite id="radiobutton_bg2" transform="matrix(1.6,0,0,1,0,0)"/>
  <atv:overwrite id="id_2" transform="matrix(1.6,0,0,1,0,0)" width="68"/>
  <atv:overwrite id="id_0" transform="matrix(1.6,0,0,1,0,0)" width="99.5"/>
  <atv:overwrite id="radiobutton_bg" width="66"/>
 </svg>
 <svg atv:refpx="230" atv:refpy="67" height="30" id="series_interpolation-linear" transform="" width="160" x="180" xlink:href="SYSTEM.LIBRARY.ATVISE.OBJECTDISPLAYS.Advanced.radiobutton" y="57">
  <atv:argument name="radiogroupId" value="series_interpolation"/>
  <atv:argument name="label" value="T{linear}"/>
  <atv:argument name="value" value="linear"/>
  <atv:argument name="tabIndex" value="83"/>
  <atv:overwrite id="radiobutton_bg2" transform="matrix(1.6,0,0,1,0,0)"/>
  <atv:overwrite id="id_2" transform="matrix(1.6,0,0,1,0,0)" width="68"/>
  <atv:overwrite id="id_0" transform="matrix(1.6,0,0,1,0,0)" width="99.5"/>
  <atv:overwrite id="radiobutton_bg" width="66"/>
 </svg>
 <svg atv:refpx="335" atv:refpy="67" height="30" id="series_interpolation-spline" transform="" width="160" x="285" xlink:href="SYSTEM.LIBRARY.ATVISE.OBJECTDISPLAYS.Advanced.radiobutton" y="57">
  <atv:argument name="radiogroupId" value="series_interpolation"/>
  <atv:argument name="label" value="T{spline}"/>
  <atv:argument name="value" value="spline"/>
  <atv:argument name="tabIndex" value="84"/>
  <atv:overwrite id="radiobutton_bg2" transform="matrix(1.6,0,0,1,0,0)"/>
  <atv:overwrite id="id_2" transform="matrix(1.6,0,0,1,0,0)" width="68"/>
  <atv:overwrite id="id_0" transform="matrix(1.6,0,0,1,0,0)" width="99.5"/>
  <atv:overwrite id="radiobutton_bg" width="66"/>
 </svg>
 <svg atv:refpx="436" atv:refpy="63" height="30" id="series_interpolation-step" transform="" width="160" x="390" xlink:href="SYSTEM.LIBRARY.ATVISE.OBJECTDISPLAYS.Advanced.radiobutton" y="57">
  <atv:argument name="radiogroupId" value="series_interpolation"/>
  <atv:argument name="label" value="T{step}"/>
  <atv:argument name="value" value="step"/>
  <atv:argument name="tabIndex" value="85"/>
  <atv:overwrite id="radiobutton_bg2" transform="matrix(1.6,0,0,1,0,0)"/>
  <atv:overwrite id="id_2" transform="matrix(1.6,0,0,1,0,0)" width="68"/>
  <atv:overwrite id="id_0" transform="matrix(1.6,0,0,1,0,0)" width="99.5"/>
  <atv:overwrite id="radiobutton_bg" width="66"/>
 </svg>
 <text atv:refpx="50.84" atv:refpy="181.5" fill="$FONTCOLOR$" font-family="Arial" font-size="12" font-weight="bold" id="id_30" text-anchor="start" x="24.5" y="186">T{Styling}:</text>
 <text atv:refpx="341" atv:refpy="223.5" fill="$FONTCOLOR$" font-family="Arial" font-size="12" id="series_fillColor_label" text-anchor="end" visibility="hidden" x="372.5" y="228">T{Fill color}:</text>
 <svg atv:refpx="440.002" atv:refpy="220" height="30" id="series_fillColor" transform="matrix(0.625,0,0,1,0,0)" visibility="hidden" width="160" x="624" xlink:href="SYSTEM.LIBRARY.ATVISE.OBJECTDISPLAYS.Advanced.picker_color" y="208">
  <atv:argument name="name" value="series_fillColor"/>
  <atv:argument name="tabIndex" value="90"/>
  <atv:overwrite id="button_stroke" transform="matrix(1.6,0,0,1,0,0)" x="75.5"/>
  <atv:overwrite id="id_1" transform="matrix(1.6,0,0,1,0,0)" x="75.75"/>
  <atv:overwrite id="button_bg" transform="matrix(1.6,0,0,1,0,0)" x="75.5"/>
  <atv:overwrite id="input_label" transform="matrix(1.6,0,0,1,0,0)" x="63.5"/>
  <atv:overwrite id="blinking_frame" transform="matrix(1.6,0,0,1,0,0)" width="68"/>
  <atv:overwrite id="focus_frame" transform="matrix(1.6,0,0,1,0,0)" width="96"/>
  <atv:overwrite id="input_bg" transform="matrix(1.6,0,0,1,0,0)" width="68"/>
  <atv:overwrite id="id_2" transform="matrix(1.6,0,0,1,0,0)" width="100"/>
 </svg>
 <text atv:refpx="111" atv:refpy="108.5" fill="$FONTCOLOR$" font-family="Arial" font-size="12" id="id_4" text-anchor="end" x="154.5" y="113">T{Missing data}:</text>
 <svg atv:refpx="230" atv:refpy="105" height="30" id="series_connectNulls" transform="" width="160" x="180" xlink:href="SYSTEM.LIBRARY.ATVISE.OBJECTDISPLAYS.Advanced.checkbox" y="94">
  <atv:argument name="label" value="T{Ignore}"/>
  <atv:argument name="valueOn" value="true"/>
  <atv:argument name="outputValueOn" value="true"/>
  <atv:argument name="outputValueOff" value="false"/>
  <atv:overwrite id="checkbox_bg2" transform="matrix(1.6,0,0,1,0,0)"/>
  <atv:overwrite id="id_5" transform="matrix(1.6,0,0,1,0,0)"/>
  <atv:overwrite id="id_2" transform="matrix(1.6,0,0,1,0,0)" width="68"/>
  <atv:overwrite id="id_0" transform="matrix(1.6,0,0,1,0,0)" width="99.5"/>
  <atv:argument name="tabIndex" value="86"/>
 </svg>
 <svg atv:refpx="438" atv:refpy="110" height="30" id="series_nonStop" transform="" width="160" x="390" xlink:href="SYSTEM.LIBRARY.ATVISE.OBJECTDISPLAYS.Advanced.checkbox" y="95">
  <atv:argument name="label" value="T{enabled}"/>
  <atv:argument name="valueOn" value="true"/>
  <atv:argument name="outputValueOn" value="true"/>
  <atv:argument name="outputValueOff" value="false"/>
  <atv:overwrite id="checkbox_bg2" transform="matrix(1.6,0,0,1,0,0)"/>
  <atv:overwrite id="id_5" transform="matrix(1.6,0,0,1,0,0)"/>
  <atv:overwrite id="id_2" transform="matrix(1.6,0,0,1,0,0)" width="68"/>
  <atv:overwrite id="id_0" transform="matrix(1.6,0,0,1,0,0)" width="99.5"/>
  <atv:argument name="tabIndex" value="87"/>
 </svg>
 <text atv:refpx="338.5" atv:refpy="109.5" fill="$FONTCOLOR$" font-family="Arial" font-size="12" id="id_6" text-anchor="end" x="372.5" y="114">T{Non-stop}:</text>
 <svg atv:refpx="256" atv:refpy="35" height="30" id="series_xAxis" transform="matrix(0.95,0,0,1,0,0)" width="160" x="189.474" xlink:href="SYSTEM.LIBRARY.ATVISE.OBJECTDISPLAYS.Advanced.combobox" y="20">
  <atv:overwrite id="id_3" transform="matrix(1.0526,0,0,1,0,0)" x="126.75"/>
  <atv:overwrite id="id_5" transform="matrix(1.0526,0,0,1,0,0)" x="124.5"/>
  <atv:overwrite id="id_2" transform="matrix(1.0526,0,0,1,0,0)" width="120"/>
  <atv:overwrite id="combobox_stroke" transform="matrix(1.0526,0,0,1,0,0)" width="151.5"/>
  <atv:argument name="tabIndex" value="81"/>
  <atv:overwrite id="focus_frame" transform="matrix(1.0526,0,0,1,0,0)" width="148"/>
  <atv:overwrite id="button_stroke" transform="matrix(1.0526,0,0,1,0,0)" x="127"/>
  <atv:overwrite id="id_7" transform="matrix(1.0526,0,0,1,0,0)" x="127"/>
  <atv:overwrite id="button_bg" transform="matrix(1.0526,0,0,1,0,0)" x="127"/>
  <atv:overwrite id="combobox_label" transform="matrix(1.0526,0,0,1,0,0)" x="117.5"/>
  <atv:overwrite id="blinking_frame" transform="matrix(1.0526,0,0,1,0,0)" width="120"/>
  <atv:overwrite id="combobox_bg" transform="matrix(1.0526,0,0,1,0,0)" width="120"/>
  <atv:overwrite id="id_0" transform="matrix(1.0526,0,0,1,0,0)" width="152"/>
 </svg>
 <svg atv:refpx="411" atv:refpy="35" height="30" id="series_yAxis" transform="matrix(0.95,0,0,1,0,0)" width="160" x="354.737" xlink:href="SYSTEM.LIBRARY.ATVISE.OBJECTDISPLAYS.Advanced.combobox" y="20">
  <atv:overwrite id="id_3" transform="matrix(1.0526,0,0,1,0,0)" x="126.75"/>
  <atv:overwrite id="id_5" transform="matrix(1.0526,0,0,1,0,0)" x="124.5"/>
  <atv:overwrite id="id_2" transform="matrix(1.0526,0,0,1,0,0)" width="120"/>
  <atv:overwrite id="combobox_stroke" transform="matrix(1.0526,0,0,1,0,0)" width="151.5"/>
  <atv:argument name="tabIndex" value="82"/>
  <atv:overwrite id="focus_frame" transform="matrix(1.0526,0,0,1,0,0)" width="148"/>
  <atv:overwrite id="button_stroke" transform="matrix(1.0526,0,0,1,0,0)" x="127"/>
  <atv:overwrite id="id_7" transform="matrix(1.0526,0,0,1,0,0)" x="127"/>
  <atv:overwrite id="button_bg" transform="matrix(1.0526,0,0,1,0,0)" x="127"/>
  <atv:overwrite id="combobox_label" transform="matrix(1.0526,0,0,1,0,0)" x="117.5"/>
  <atv:overwrite id="blinking_frame" transform="matrix(1.0526,0,0,1,0,0)" width="120"/>
  <atv:overwrite id="combobox_bg" transform="matrix(1.0526,0,0,1,0,0)" width="120"/>
  <atv:overwrite id="id_0" transform="matrix(1.0526,0,0,1,0,0)" width="152"/>
 </svg>
 <text atv:refpx="126.5" atv:refpy="144.5" fill="$FONTCOLOR$" font-family="Arial" font-size="12" id="id_7" text-anchor="end" x="153.5" y="149">T{Marker}:</text>
 <svg atv:refpx="230" atv:refpy="141" height="30" id="series_marker_enabled" transform="" width="160" x="180" xlink:href="SYSTEM.LIBRARY.ATVISE.OBJECTDISPLAYS.Advanced.checkbox" y="130">
  <atv:argument name="label" value="T{enabled}"/>
  <atv:argument name="valueOn" value="true"/>
  <atv:argument name="outputValueOn" value="true"/>
  <atv:argument name="outputValueOff" value="false"/>
  <atv:overwrite id="checkbox_bg2" transform="matrix(1.6,0,0,1,0,0)"/>
  <atv:overwrite id="id_5" transform="matrix(1.6,0,0,1,0,0)"/>
  <atv:overwrite id="id_2" transform="matrix(1.6,0,0,1,0,0)" width="68"/>
  <atv:overwrite id="id_0" transform="matrix(1.6,0,0,1,0,0)" width="99.5"/>
  <atv:argument name="tabIndex" value="88"/>
 </svg>
 <script atv:desc="" atv:href="SYSTEM.LIBRARY.ATVISE.DISPLAYSCRIPTS.highcharts.opt_series_line_area" atv:name="opt_series_line_area" atv:type="text/ecmascript"/>
 <script atv:desc="" atv:name="" type="text/ecmascript"/>
</svg>
