<?xml version='1.0' encoding='UTF-8' standalone='no'?>
<svg height="60" version="1.2" width="60" xmlns="http://www.w3.org/2000/svg" xmlns:atv="http://webmi.atvise.com/2007/svgext" xmlns:xlink="http://www.w3.org/1999/xlink">
 <defs/>
 <metadata>
  <atv:parameter behavior="optional" defaultvalue="#000000" desc="symbol color" name="symbolColor" substitute="$SYMBOLCOLOR$" valuetype="color"/>
  <atv:gridconfig enabled="true" gridstyle="lines" height="1" width="1"/>
  <atv:snapconfig enabled="true" height="1" width="1"/>
 </metadata>
 <g atv:refpx="29.956" atv:refpy="30" id="id_2" transform="matrix(1,0,0,1,0,5.0859)">
  <path atv:refpx="145.779" atv:refpy="24.916" d="M46.471,14.889L46.471,37.445C46.471,37.445 57.462,36.191 57.462,24.914C57.462,13.636 46.471,12.382 46.471,12.382C46.471,12.382 46.471,14.889 46.471,14.889" fill="$SYMBOLCOLOR$" id="id_0" stroke="none" stroke-width="2"/>
  <path atv:refpx="-9.858" atv:refpy="16.938" d="M13.497,14.889L13.497,37.445C13.497,37.445 2.507,36.191 2.507,24.914C2.507,13.636 13.497,12.382 13.497,12.382C13.497,12.382 13.497,14.889 13.497,14.889" fill="$SYMBOLCOLOR$" id="id_1" stroke="none" stroke-width="2"/>
  <polygon atv:refpx="28.37" atv:refpy="41.84" fill="none" id="id_4" points="16.246,10.824 13.497,10.824 13.497,39.003 16.246,39.003" stroke="$SYMBOLCOLOR$" stroke-width="0.5"/>
  <polygon atv:refpx="133.416" atv:refpy="24.916" fill="none" id="id_5" points="46.471,10.824 43.724,10.824 43.724,39.003 46.471,39.003" stroke="$SYMBOLCOLOR$" stroke-width="0.5"/>
  <rect atv:refpx="2.065" atv:refpy="70.913" fill="$SYMBOLCOLOR$" height="9.933" id="id_6" rx="0" ry="0" stroke="none" stroke-width="0.5" width="2.838" x="0.646" y="19.949"/>
  <rect atv:refpx="143.192" atv:refpy="-11.979" fill="$SYMBOLCOLOR$" height="9.933" id="id_7" rx="0" ry="0" stroke="none" stroke-width="0.5" width="2.838" x="56.429" y="19.949"/>
  <path atv:refpx="39.406" atv:refpy="25.122" d="M29.954,37.654L16.285,37.654L16.285,12.591L29.954,12.591L29.954,17.942L25.184,17.942L25.184,20.78L29.954,20.78Z" fill="#000000" fill-rule="evenodd" id="id_17" stroke="none" stroke-width="2"/>
  <path atv:refpx="59.673" atv:refpy="25.122" d="M43.763,12.591L43.763,37.654L25.194,37.654L25.194,20.782L35.117,20.782L35.117,17.943L25.194,17.943L25.194,12.591Z" fill="#000000" fill-rule="evenodd" id="id_18" stroke="none" stroke-width="2"/>
 </g>
 <script atv:desc="" atv:name="" type="text/ecmascript"/>
</svg>
