<?xml version='1.0' encoding='UTF-8' standalone='no'?>
<svg height="30" version="1.2" width="169.99000000000001" xmlns="http://www.w3.org/2000/svg" xmlns:atv="http://webmi.atvise.com/2007/svgext" xmlns:xlink="http://www.w3.org/1999/xlink">
 <desc>Loads a configuration into a chart instance.</desc>
 <title>Configuration Selector</title>
 <defs/>
 <metadata>
  <atv:parameter behavior="mandatory" defaultvalue="trend1" desc="chart name" name="chartname" valuetype="string"/>
  <atv:parameter behavior="optional" defaultvalue="SYSTEM.GLOBALS.atvFontColor" desc="font color" name="fontColor" substitute="$FONTCOLOR$" valuetype="global"/>
  <atv:parameter behavior="optional" config="SYSTEM.SECURITY.RIGHTS" defaultvalue="" desc="necessary right for export" name="export_right" valuetype="address"/>
  <atv:parameter behavior="optional" defaultvalue="SYSTEM.GLOBALS.atvBorderColor" desc="border color" group="Appearance" name="borderColor" substitute="$BORDERCOLOR$" valuetype="global"/>
  <atv:parameter behavior="optional" defaultvalue="true" desc="sort configurations by name" group="Appearance" name="sortConfigurations" valuetype="bool"/>
  <atv:parameter behavior="optional" defaultvalue="false" desc="load configurations by selection" group="Appearance" name="autoloadConfigurations" valuetype="bool"/>
  <atv:parameter behavior="optional" config="x axis;y axis;xy axis" defaultvalue="x axis" desc="zoom type" group="Options" name="zoomType" valuetype="enum"/>
  <atv:gridconfig enabled="false" gridstyle="lines" height="20" width="20"/>
  <atv:snapconfig enabled="false" height="10" width="10"/>
 </metadata>
 <svg atv:refpx="74.782" atv:refpy="15" height="30" id="cbb_configs" transform="matrix(0.8438,0,0,1,0,0)" width="160" x="0" xlink:href="SYSTEM.LIBRARY.ATVISE.OBJECTDISPLAYS.Advanced.combobox" y="0">
  <atv:argument name="itemsCount" value="12"/>
  <atv:argument name="tooltip" value="T{Configuration}"/>
  <atv:argument name="tabIndex" value="11"/>
  <atv:argument name="mode" value="Enum List"/>
  <atv:argument name="fadeInAtHover" value="Yes"/>
  <atv:overwrite id="focus_frame" transform="matrix(1.1851,0,0,1,0,0)" width="131.008"/>
  <atv:overwrite id="button_stroke" transform="matrix(1.1851,0,0,1,0,0)" x="110.008"/>
  <atv:overwrite id="id_7" transform="matrix(1.1851,0,0,1,0,0)" x="110.008"/>
  <atv:overwrite id="button_bg" transform="matrix(1.1851,0,0,1,0,0)" x="110.008"/>
  <atv:overwrite id="combobox_label" transform="matrix(1.1851,0,0,1,0,0)" x="100.508"/>
  <atv:overwrite id="blinking_frame" transform="matrix(1.1851,0,0,1,0,0)" width="103.008"/>
  <atv:overwrite id="combobox_bg" transform="matrix(1.1851,0,0,1,0,0)" width="103.008"/>
  <atv:overwrite id="id_1" transform="matrix(1.1851,0,0,1,0,0)" width="133.008"/>
  <atv:overwrite id="id_0" transform="matrix(1.1851,0,0,1,0,0)" width="135.008"/>
 </svg>
 <svg atv:refpx="154.994" atv:refpy="15" height="30" id="cmd_load" transform="matrix(0.375,0,0,1,0,0)" width="80" x="373.318" xlink:href="SYSTEM.LIBRARY.ATVISE.OBJECTDISPLAYS.Advanced.button" y="0">
  <atv:argument name="visibilityLabel" value="hidden"/>
  <atv:argument name="visibilitySymbol" value="inherit"/>
  <atv:argument name="symbol" value="SYSTEM.LIBRARY.ATVISE.OBJECTDISPLAYS.Symbols.20x20.file_load"/>
  <atv:argument name="fillColor" value="SYSTEM.GLOBALS.atvFillColor2"/>
  <atv:argument name="symbolColor" value="SYSTEM.GLOBALS.atvAccent1"/>
  <atv:argument name="tooltip" value="T{Load}"/>
  <atv:overwrite id="id_6" transform="matrix(2.6667,0,0,1,0,0)" width="28"/>
  <atv:overwrite id="button_label_2" transform="matrix(2.6667,0,0,1,0,0)" x="15"/>
  <atv:overwrite id="button_label_1" transform="matrix(2.6667,0,0,1,0,0)" x="15"/>
  <atv:overwrite id="button_label" transform="matrix(2.6667,0,0,1,0,0)" x="15"/>
  <atv:overwrite id="button_symbol_bottom" transform="matrix(1.6,0,0,0.6,0,0)" x="14.833"/>
  <atv:overwrite id="button_symbol_top" transform="matrix(1.6,0,0,0.6,0,0)" x="14.833"/>
  <atv:overwrite id="button_symbol" transform="matrix(2.6667,0,0,1,0,0)" x="5"/>
  <atv:overwrite id="button_stroke" transform="matrix(2.6667,0,0,1,0,0)" width="26"/>
  <atv:overwrite id="button_bg" transform="matrix(2.6667,0,0,1,0,0)" width="28"/>
  <atv:overwrite id="outer_frame" transform="matrix(2.6667,0,0,1,0,0)" width="30"/>
 </svg>
 <svg atv:refpx="154.994" atv:refpy="15" height="30" id="cmd_reload" transform="matrix(0.375,0,0,1,0,0)" width="80" x="373.318" xlink:href="SYSTEM.LIBRARY.ATVISE.OBJECTDISPLAYS.Advanced.button" y="0">
  <atv:argument name="visibilityLabel" value="hidden"/>
  <atv:argument name="visibilitySymbol" value="inherit"/>
  <atv:argument name="symbol" value="SYSTEM.LIBRARY.ATVISE.OBJECTDISPLAYS.Symbols.20x20.file_reload"/>
  <atv:argument name="tooltip" value="T{Reload}"/>
  <atv:argument name="tabIndex" value="12"/>
  <atv:overwrite id="id_6" transform="matrix(2.6667,0,0,1,0,0)" width="28"/>
  <atv:overwrite id="button_label_2" transform="matrix(2.6667,0,0,1,0,0)" x="15"/>
  <atv:overwrite id="button_label_1" transform="matrix(2.6667,0,0,1,0,0)" x="15"/>
  <atv:overwrite id="button_label" transform="matrix(2.6667,0,0,1,0,0)" x="15"/>
  <atv:overwrite id="button_symbol_bottom" transform="matrix(1.6,0,0,0.6,0,0)" x="14.833"/>
  <atv:overwrite id="button_symbol_top" transform="matrix(1.6,0,0,0.6,0,0)" x="14.833"/>
  <atv:overwrite id="button_symbol" transform="matrix(2.6667,0,0,1,0,0)" x="5"/>
  <atv:overwrite id="button_stroke" transform="matrix(2.6667,0,0,1,0,0)" width="26"/>
  <atv:overwrite id="button_bg" transform="matrix(2.6667,0,0,1,0,0)" width="28"/>
  <atv:overwrite id="outer_frame" transform="matrix(2.6667,0,0,1,0,0)" width="30"/>
 </svg>
 <script atv:desc="" atv:href="SYSTEM.LIBRARY.ATVISE.DISPLAYSCRIPTS.highcharts.button_config" atv:name="button_config" atv:type="text/ecmascript"/>
 <script atv:desc="" atv:name="" type="text/ecmascript"/>
</svg>
