<?xml version='1.0' encoding='UTF-8' standalone='no'?>
<svg height="600" version="1.2" width="1200" xmlns="http://www.w3.org/2000/svg" xmlns:atv="http://webmi.atvise.com/2007/svgext" xmlns:xlink="http://www.w3.org/1999/xlink">
 <defs/>
 <desc>Generic e-mail configuration dialog.</desc>
 <title>E-mail configurator</title>
 <metadata>
  <atv:parameter behavior="mandatory" defaultvalue="" desc="name" name="name" valuetype="string"/>
  <atv:parameter behavior="optional" defaultvalue="T{E-mail settings}" desc="headline" group="Appearance" name="headline" substitute="$HEADLINE$" valuetype="trstring"/>
  <atv:parameter behavior="optional" defaultvalue="T{Confirm}" desc="confirm text" group="Appearance" name="confirm" valuetype="trstring"/>
  <atv:parameter behavior="optional" defaultvalue="T{Cancel}" desc="cancel text" group="Appearance" name="cancel" valuetype="trstring"/>
  <atv:parameter behavior="optional" defaultvalue="SYSTEM.GLOBALS.atvFontColor" desc="font color" group="Appearance" name="fontColor" substitute="$FONTCOLOR$" valuetype="global"/>
  <atv:parameter behavior="optional" defaultvalue="SYSTEM.GLOBALS.atvFillColor" desc="fill color" group="Appearance" name="fillColor" substitute="$FILLCOLOR$" valuetype="global"/>
  <atv:parameter behavior="optional" defaultvalue="T{Info}" desc="info text" group="Options" name="info" valuetype="trstring"/>
  <atv:parameter behavior="optional" defaultvalue="true" desc="active" group="Options" name="active" valuetype="bool"/>
  <atv:parameter behavior="optional" defaultvalue="" desc="SMTP server" group="Options" name="smtp" valuetype="string"/>
  <atv:parameter behavior="optional" defaultvalue="" desc="from" group="Options" name="from" valuetype="string"/>
  <atv:parameter behavior="optional" defaultvalue="" desc="to" group="Options" name="to" valuetype="string"/>
  <atv:parameter behavior="optional" defaultvalue="" desc="cc" group="Options" name="cc" valuetype="string"/>
  <atv:parameter behavior="optional" defaultvalue="" desc="bcc" group="Options" name="bcc" valuetype="string"/>
  <atv:parameter behavior="optional" defaultvalue="" desc="subject" group="Options" name="subject" valuetype="string"/>
  <atv:parameter behavior="optional" defaultvalue="" desc="message" group="Options" name="body" valuetype="string"/>
  <atv:parameter behavior="optional" defaultvalue="" desc="attachment" group="Options" name="attachment" valuetype="string"/>
  <atv:parameter behavior="optional" defaultvalue="" desc="reply address" group="Options" name="reply" valuetype="string"/>
  <atv:parameter behavior="optional" defaultvalue="" desc="content type" group="Options" name="contenttype" valuetype="string"/>
  <atv:parameter behavior="optional" config="BASE64;QUOTED-PRINTABLE;8BIT;7BIT;BINARY;x-token" defaultvalue="" desc="encoding" group="Options" name="encoding" valuetype="enum"/>
  <atv:parameter behavior="optional" defaultvalue="" desc="custom" group="Options" name="custom" valuetype="string"/>
  <atv:parameter behavior="optional" config="Yes;No" defaultvalue="Yes" desc="active" group="Editable" name="editable_active" valuetype="enum"/>
  <atv:parameter behavior="optional" config="Yes;No" defaultvalue="Yes" desc="SMTP server" group="Editable" name="editable_smtp" valuetype="enum"/>
  <atv:parameter behavior="optional" config="Yes;No" defaultvalue="Yes" desc="from" group="Editable" name="editable_from" valuetype="enum"/>
  <atv:parameter behavior="optional" config="Yes;No" defaultvalue="Yes" desc="to" group="Editable" name="editable_to" valuetype="enum"/>
  <atv:parameter behavior="optional" config="Yes;No" defaultvalue="Yes" desc="cc" group="Editable" name="editable_cc" valuetype="enum"/>
  <atv:parameter behavior="optional" config="Yes;No" defaultvalue="Yes" desc="bcc" group="Editable" name="editable_bcc" valuetype="enum"/>
  <atv:parameter behavior="optional" config="Yes;No" defaultvalue="Yes" desc="subject" group="Editable" name="editable_subject" valuetype="enum"/>
  <atv:parameter behavior="optional" config="Yes;No" defaultvalue="Yes" desc="message" group="Editable" name="editable_body" valuetype="enum"/>
  <atv:parameter behavior="optional" config="Yes;No" defaultvalue="Yes" desc="attachment" group="Editable" name="editable_attachment" valuetype="enum"/>
  <atv:parameter behavior="optional" config="Yes;No" defaultvalue="Yes" desc="reply address" group="Editable" name="editable_reply" valuetype="enum"/>
  <atv:parameter behavior="optional" config="Yes;No" defaultvalue="Yes" desc="content type" group="Editable" name="editable_contenttype" valuetype="enum"/>
  <atv:parameter behavior="optional" config="Yes;No" defaultvalue="Yes" desc="encoding" group="Editable" name="editable_encoding" valuetype="enum"/>
  <atv:parameter behavior="optional" config="Yes;No" defaultvalue="Yes" desc="custom" group="Editable" name="editable_custom" valuetype="enum"/>
  <atv:gridconfig enabled="true" gridstyle="lines" height="5" width="5"/>
  <atv:snapconfig enabled="true" height="5" width="5"/>
 </metadata>
 <rect atv:refpx="600" atv:refpy="300" fill="$FILLCOLOR$" height="600" id="background" stroke="none" stroke-width="0" width="1200" x="0" y="0"/>
 <rect atv:refpx="892.5" atv:refpy="280" fill="#ffffff" height="300" id="attachment_background" rx="10" ry="10" stroke="none" stroke-width="0" width="575" x="605" y="130"/>
 <rect atv:refpx="892.5" atv:refpy="70" fill="#ffffff" height="100" id="info_background" rx="10" ry="10" stroke="none" stroke-width="0" width="575" x="605" y="20"/>
 <rect atv:refpx="892.5" atv:refpy="470" fill="#ffffff" height="60" id="custom_background" rx="10" ry="10" stroke="none" stroke-width="0" width="575" x="605" y="440"/>
 <rect atv:refpx="307.5" atv:refpy="260" fill="#ffffff" height="480" id="box_background" rx="10" ry="10" stroke="none" stroke-width="0" width="575" x="20" y="20"/>
 <svg atv:dynamic="true" atv:refpx="496.368" atv:refpy="515" height="30" id="confirm_button" transform="matrix(1.5,0,0,1,0,0)" width="80" x="313.333" xlink:href="SYSTEM.LIBRARY.ATVISE.OBJECTDISPLAYS.Advanced.button" y="553">
  <atv:argument name="label" value="T{Confirm}"/>
  <atv:argument name="tabIndex" value="70"/>
  <atv:argument name="borderVisible" value="true"/>
  <atv:argument name="extraBorderColor" value="#ffffff"/>
  <atv:argument name="fontSize" value="14"/>
  <atv:overwrite id="id_6" transform="matrix(0.6667,0,0,1,0,0)" width="118"/>
  <atv:overwrite id="button_label_2" transform="matrix(0.6667,0,0,1,0,0)" x="60"/>
  <atv:overwrite id="button_label_1" transform="matrix(0.6667,0,0,1,0,0)" x="60"/>
  <atv:overwrite id="button_label" transform="matrix(0.6667,0,0,1,0,0)" x="60"/>
  <atv:overwrite id="button_symbol_bottom" transform="matrix(0.4,0,0,0.6,0,0)" x="89.833"/>
  <atv:overwrite id="button_symbol_top" transform="matrix(0.4,0,0,0.6,0,0)" x="89.833"/>
  <atv:overwrite id="button_symbol" transform="matrix(0.6667,0,0,1,0,0)" x="50"/>
  <atv:overwrite id="button_stroke" transform="matrix(0.6667,0,0,1,0,0)" width="116"/>
  <atv:overwrite id="button_bg" transform="matrix(0.6667,0,0,1,0,0)" width="118"/>
  <atv:overwrite id="outer_frame" transform="matrix(0.6667,0,0,1,0,0)" width="120"/>
 </svg>
 <svg atv:dynamic="true" atv:refpx="636.368" atv:refpy="562" height="30" id="cancel_button" transform="matrix(1.5,0,0,1,0,0)" width="80" x="406.666" xlink:href="SYSTEM.LIBRARY.ATVISE.OBJECTDISPLAYS.Advanced.button" y="553">
  <atv:argument name="label" value="T{Cancel}"/>
  <atv:argument name="tabIndex" value="71"/>
  <atv:argument name="borderVisible" value="true"/>
  <atv:argument name="extraBorderColor" value="#ffffff"/>
  <atv:argument name="fontSize" value="14"/>
  <atv:overwrite id="id_6" transform="matrix(0.6667,0,0,1,0,0)" width="118"/>
  <atv:overwrite id="button_label_2" transform="matrix(0.6667,0,0,1,0,0)" x="60"/>
  <atv:overwrite id="button_label_1" transform="matrix(0.6667,0,0,1,0,0)" x="60"/>
  <atv:overwrite id="button_label" transform="matrix(0.6667,0,0,1,0,0)" x="60"/>
  <atv:overwrite id="button_symbol_bottom" transform="matrix(0.4,0,0,0.6,0,0)" x="89.833"/>
  <atv:overwrite id="button_symbol_top" transform="matrix(0.4,0,0,0.6,0,0)" x="89.833"/>
  <atv:overwrite id="button_symbol" transform="matrix(0.6667,0,0,1,0,0)" x="50"/>
  <atv:overwrite id="button_stroke" transform="matrix(0.6667,0,0,1,0,0)" width="116"/>
  <atv:overwrite id="button_bg" transform="matrix(0.6667,0,0,1,0,0)" width="118"/>
  <atv:overwrite id="outer_frame" transform="matrix(0.6667,0,0,1,0,0)" width="120"/>
 </svg>
 <text atv:refpx="621.999" atv:refpy="527.5" fill="#ff0004" font-family="Arial" font-size="14" id="message" text-anchor="middle" x="599.999" y="532">&lt;errormessage></text>
 <svg atv:refpx="387.465" atv:refpy="139" height="30" id="from_input" transform="matrix(2.3438,0,0,1,0,0)" width="160" x="85.333" xlink:href="SYSTEM.LIBRARY.ATVISE.OBJECTDISPLAYS.Advanced.in_out_value" y="145">
  <atv:argument name="validation" value="String"/>
  <atv:argument name="allowDirectInput" value="Yes"/>
  <atv:argument name="tabIndex" value="3"/>
  <atv:overwrite id="id_2" transform="matrix(0.8889,0,0,1,0,0)" width="174.5"/>
  <atv:overwrite id="id_0" transform="matrix(0.5517,0,0,1,0,0)" width="290"/>
  <atv:overwrite id="input_label" transform="matrix(0.4267,0,0,1,0,0)" x="367.055"/>
  <atv:overwrite id="blinking_frame" transform="matrix(0.4267,0,0,1,0,0)" width="367"/>
  <atv:overwrite id="focus_frame" transform="matrix(0.4267,0,0,1,0,0)" width="371"/>
  <atv:overwrite id="input_bg" transform="matrix(0.4267,0,0,1,0,0)" width="367"/>
  <atv:overwrite id="id_1" transform="matrix(0.4267,0,0,1,0,0)" width="373"/>
  <atv:overwrite id="input_border" transform="matrix(0.4267,0,0,1,0,0)" width="375"/>
 </svg>
 <svg atv:refpx="319.912" atv:refpy="85" height="30" id="active_toggle" transform="matrix(1.5,0,0,1,0,0)" width="160" x="133.333" xlink:href="SYSTEM.LIBRARY.ATVISE.OBJECTDISPLAYS.Advanced.checkbox" y="70">
  <atv:argument name="label" value=""/>
  <atv:argument name="tabIndex" value="1"/>
  <atv:argument name="valueOn" value="true"/>
  <atv:argument name="outputValueOn" value="true"/>
  <atv:argument name="outputValueOff" value="false"/>
  <atv:argument name="fontSize" value="16"/>
  <atv:overwrite id="checkbox_item" transform="matrix(0.6667,0,0,1,0,0)"/>
  <atv:overwrite id="checkbox_symbol" transform="matrix(0.6667,0,0,1,0,0)"/>
  <atv:overwrite id="blinking_frame" transform="matrix(0.6667,0,0,1,0,0)"/>
  <atv:overwrite id="focus_frame" transform="matrix(0.6667,0,0,1,0,0)"/>
  <atv:overwrite id="checkbox_bg" transform="matrix(0.6667,0,0,1,0,0)"/>
  <atv:overwrite id="checkbox_frame" transform="matrix(0.6667,0,0,1,0,0)"/>
  <atv:overwrite id="checkbox_stroke" transform="matrix(0.6667,0,0,1,0,0)"/>
 </svg>
 <svg atv:refpx="387.47" atv:refpy="104" height="30" id="smtp_input" transform="matrix(2.3438,0,0,1,0,0)" width="160" x="85.333" xlink:href="SYSTEM.LIBRARY.ATVISE.OBJECTDISPLAYS.Advanced.combobox" y="110">
  <atv:argument name="tabIndex" value="2"/>
  <atv:overwrite id="focus_frame" transform="matrix(0.4267,0,0,1,0,0)" width="371"/>
  <atv:overwrite id="button_stroke" transform="matrix(0.4267,0,0,1,0,0)" x="350"/>
  <atv:overwrite id="id_7" transform="matrix(0.4267,0,0,1,0,0)" x="350"/>
  <atv:overwrite id="button_bg" transform="matrix(0.4267,0,0,1,0,0)" x="350"/>
  <atv:overwrite id="combobox_label" transform="matrix(0.4267,0,0,1,0,0)" x="340.5"/>
  <atv:overwrite id="blinking_frame" transform="matrix(0.4267,0,0,1,0,0)" width="343"/>
  <atv:overwrite id="combobox_bg" transform="matrix(0.4267,0,0,1,0,0)" width="343"/>
  <atv:overwrite id="id_1" transform="matrix(0.4267,0,0,1,0,0)" width="373"/>
  <atv:overwrite id="id_0" transform="matrix(0.4267,0,0,1,0,0)" width="375"/>
 </svg>
 <text atv:refpx="60.606" atv:refpy="45.5" fill="$FONTCOLOR$" font-family="Arial" font-size="16" font-weight="bold" id="header_label" x="38.5" y="51.5">$HEADLINE$</text>
 <text atv:refpx="64.179" atv:refpy="86.5" fill="$FONTCOLOR$" font-family="Arial" font-size="16" id="active_label" text-anchor="start" x="42" y="92.5">T{Active}:</text>
 <text atv:refpx="66.873" atv:refpy="125.5" fill="$FONTCOLOR$" font-family="Arial" font-size="16" id="smtp_label" text-anchor="start" x="41" y="131.5">T{SMTP server}:</text>
 <text atv:refpx="67.269" atv:refpy="160.5" fill="$FONTCOLOR$" font-family="Arial" font-size="16" id="from_label" text-anchor="start" x="41" y="166.5">T{Sender address}:</text>
 <svg atv:refpx="387.5" atv:refpy="205" height="30" id="to_input" transform="matrix(2.3438,0,0,1,0,0)" width="160" x="85.333" xlink:href="SYSTEM.LIBRARY.ATVISE.OBJECTDISPLAYS.Advanced.in_out_value" y="190">
  <atv:argument name="validation" value="String"/>
  <atv:argument name="allowDirectInput" value="Yes"/>
  <atv:argument name="tabIndex" value="4"/>
  <atv:overwrite id="id_2" transform="matrix(0.8889,0,0,1,0,0)" width="174.5"/>
  <atv:overwrite id="id_0" transform="matrix(0.5517,0,0,1,0,0)" width="290"/>
  <atv:overwrite id="input_label" transform="matrix(0.4267,0,0,1,0,0)" x="367.055"/>
  <atv:overwrite id="blinking_frame" transform="matrix(0.4267,0,0,1,0,0)" width="367"/>
  <atv:overwrite id="focus_frame" transform="matrix(0.4267,0,0,1,0,0)" width="371"/>
  <atv:overwrite id="input_bg" transform="matrix(0.4267,0,0,1,0,0)" width="367"/>
  <atv:overwrite id="id_1" transform="matrix(0.4267,0,0,1,0,0)" width="373"/>
  <atv:overwrite id="input_border" transform="matrix(0.4267,0,0,1,0,0)" width="375"/>
 </svg>
 <svg atv:refpx="387.455" atv:refpy="219" height="30" id="cc_input" transform="matrix(2.3438,0,0,1,0,0)" width="160" x="85.333" xlink:href="SYSTEM.LIBRARY.ATVISE.OBJECTDISPLAYS.Advanced.in_out_value" y="225">
  <atv:argument name="validation" value="String"/>
  <atv:argument name="allowDirectInput" value="Yes"/>
  <atv:argument name="tabIndex" value="5"/>
  <atv:overwrite id="id_2" transform="matrix(0.8889,0,0,1,0,0)" width="174.5"/>
  <atv:overwrite id="id_0" transform="matrix(0.5517,0,0,1,0,0)" width="290"/>
  <atv:overwrite id="input_label" transform="matrix(0.4267,0,0,1,0,0)" x="367.055"/>
  <atv:overwrite id="blinking_frame" transform="matrix(0.4267,0,0,1,0,0)" width="367"/>
  <atv:overwrite id="focus_frame" transform="matrix(0.4267,0,0,1,0,0)" width="371"/>
  <atv:overwrite id="input_bg" transform="matrix(0.4267,0,0,1,0,0)" width="367"/>
  <atv:overwrite id="id_1" transform="matrix(0.4267,0,0,1,0,0)" width="373"/>
  <atv:overwrite id="input_border" transform="matrix(0.4267,0,0,1,0,0)" width="375"/>
 </svg>
 <svg atv:refpx="387.455" atv:refpy="254" height="30" id="bcc_input" transform="matrix(2.3438,0,0,1,0,0)" width="160" x="85.333" xlink:href="SYSTEM.LIBRARY.ATVISE.OBJECTDISPLAYS.Advanced.in_out_value" y="260">
  <atv:argument name="validation" value="String"/>
  <atv:argument name="allowDirectInput" value="Yes"/>
  <atv:argument name="tabIndex" value="6"/>
  <atv:overwrite id="id_2" transform="matrix(0.8889,0,0,1,0,0)" width="174.5"/>
  <atv:overwrite id="id_0" transform="matrix(0.5517,0,0,1,0,0)" width="290"/>
  <atv:overwrite id="input_label" transform="matrix(0.4267,0,0,1,0,0)" x="367.055"/>
  <atv:overwrite id="blinking_frame" transform="matrix(0.4267,0,0,1,0,0)" width="367"/>
  <atv:overwrite id="focus_frame" transform="matrix(0.4267,0,0,1,0,0)" width="371"/>
  <atv:overwrite id="input_bg" transform="matrix(0.4267,0,0,1,0,0)" width="367"/>
  <atv:overwrite id="id_1" transform="matrix(0.4267,0,0,1,0,0)" width="373"/>
  <atv:overwrite id="input_border" transform="matrix(0.4267,0,0,1,0,0)" width="375"/>
 </svg>
 <text atv:refpx="71.896" atv:refpy="212" fill="$FONTCOLOR$" font-family="Arial" font-size="16" id="to_label" text-anchor="start" x="40" y="211.5">T{Receiver(s)}:</text>
 <text atv:refpx="46.93" atv:refpy="248" fill="$FONTCOLOR$" font-family="Arial" font-size="16" id="cc_label" text-anchor="start" x="41" y="247.5">T{Cc}:</text>
 <text atv:refpx="57.741" atv:refpy="283" fill="$FONTCOLOR$" font-family="Arial" font-size="16" id="bcc_label" text-anchor="start" x="40" y="282.5">T{Bcc}:</text>
 <text atv:refpx="66.966" atv:refpy="327" fill="$FONTCOLOR$" font-family="Arial" font-size="16" id="subject_label" text-anchor="start" x="41" y="326.5">T{Subject}:</text>
 <text atv:refpx="73.256" atv:refpy="362" fill="$FONTCOLOR$" font-family="Arial" font-size="16" id="body_label" text-anchor="start" x="41" y="361.5">T{Message}:</text>
 <text atv:refpx="667.437" atv:refpy="167" fill="$FONTCOLOR$" font-family="Arial" font-size="16" id="attachment_label" text-anchor="start" x="628" y="166.5">T{Attachment(s)}:</text>
 <svg atv:refpx="387.455" atv:refpy="299" height="30" id="subject_input" transform="matrix(2.3438,0,0,1,0,0)" width="160" x="85.333" xlink:href="SYSTEM.LIBRARY.ATVISE.OBJECTDISPLAYS.Advanced.in_out_value" y="305">
  <atv:argument name="validation" value="String"/>
  <atv:argument name="allowDirectInput" value="Yes"/>
  <atv:argument name="tabIndex" value="7"/>
  <atv:overwrite id="id_2" transform="matrix(0.8889,0,0,1,0,0)" width="174.5"/>
  <atv:overwrite id="id_0" transform="matrix(0.5517,0,0,1,0,0)" width="290"/>
  <atv:overwrite id="input_label" transform="matrix(0.4267,0,0,1,0,0)" x="367.055"/>
  <atv:overwrite id="blinking_frame" transform="matrix(0.4267,0,0,1,0,0)" width="367"/>
  <atv:overwrite id="focus_frame" transform="matrix(0.4267,0,0,1,0,0)" width="371"/>
  <atv:overwrite id="input_bg" transform="matrix(0.4267,0,0,1,0,0)" width="367"/>
  <atv:overwrite id="id_1" transform="matrix(0.4267,0,0,1,0,0)" width="373"/>
  <atv:overwrite id="input_border" transform="matrix(0.4267,0,0,1,0,0)" width="375"/>
 </svg>
 <svg atv:refpx="387.455" atv:refpy="334" height="30" id="body_input" transform="matrix(2.3438,0,0,1,0,0)" width="160" x="85.333" xlink:href="SYSTEM.LIBRARY.ATVISE.OBJECTDISPLAYS.Advanced.in_out_value" y="340">
  <atv:argument name="validation" value="String"/>
  <atv:argument name="allowDirectInput" value="Yes"/>
  <atv:argument name="tabIndex" value="8"/>
  <atv:overwrite id="id_2" transform="matrix(0.8889,0,0,1,0,0)" width="174.5"/>
  <atv:overwrite id="id_0" transform="matrix(0.5517,0,0,1,0,0)" width="290"/>
  <atv:overwrite id="input_label" transform="matrix(0.4267,0,0,1,0,0)" x="367.055"/>
  <atv:overwrite id="blinking_frame" transform="matrix(0.4267,0,0,1,0,0)" width="367"/>
  <atv:overwrite id="focus_frame" transform="matrix(0.4267,0,0,1,0,0)" width="371"/>
  <atv:overwrite id="input_bg" transform="matrix(0.4267,0,0,1,0,0)" width="367"/>
  <atv:overwrite id="id_1" transform="matrix(0.4267,0,0,1,0,0)" width="373"/>
  <atv:overwrite id="input_border" transform="matrix(0.4267,0,0,1,0,0)" width="375"/>
 </svg>
 <text atv:refpx="83.319" atv:refpy="399.5" fill="$FONTCOLOR$" font-family="Arial" font-size="16" id="reply_label" text-anchor="start" x="41" y="405.5">T{Reply address}:</text>
 <text atv:refpx="76.045" atv:refpy="435.5" fill="$FONTCOLOR$" font-family="Arial" font-size="16" id="contenttype_label" text-anchor="start" x="40" y="441.5">T{Content type}:</text>
 <text atv:refpx="65.995" atv:refpy="469.5" fill="$FONTCOLOR$" font-family="Arial" font-size="16" id="encoding_label" text-anchor="start" x="40" y="475.5">T{Encoding}:</text>
 <svg atv:refpx="319.976" atv:refpy="414" height="30" id="contenttype_input" transform="matrix(1.5,0,0,1,0,0)" width="160" x="133.333" xlink:href="SYSTEM.LIBRARY.ATVISE.OBJECTDISPLAYS.Advanced.in_out_value" y="420">
  <atv:argument name="validation" value="String"/>
  <atv:argument name="allowDirectInput" value="Yes"/>
  <atv:argument name="tabIndex" value="31"/>
  <atv:overwrite id="id_2" transform="matrix(0.8889,0,0,1,0,0)" width="174.5"/>
  <atv:overwrite id="id_0" transform="matrix(0.5517,0,0,1,0,0)" width="290"/>
  <atv:overwrite id="input_label" transform="matrix(0.6667,0,0,1,0,0)" x="232.055"/>
  <atv:overwrite id="blinking_frame" transform="matrix(0.6667,0,0,1,0,0)" width="232"/>
  <atv:overwrite id="focus_frame" transform="matrix(0.6667,0,0,1,0,0)" width="236"/>
  <atv:overwrite id="input_bg" transform="matrix(0.6667,0,0,1,0,0)" width="232"/>
  <atv:overwrite id="id_1" transform="matrix(0.6667,0,0,1,0,0)" width="238"/>
  <atv:overwrite id="input_border" transform="matrix(0.6667,0,0,1,0,0)" width="240"/>
 </svg>
 <svg atv:refpx="319.979" atv:refpy="449" height="30" id="encoding_input" transform="matrix(1.5,0,0,1,0,0)" width="160" x="133.333" xlink:href="SYSTEM.LIBRARY.ATVISE.OBJECTDISPLAYS.Advanced.combobox" y="455">
  <atv:argument name="tabIndex" value="32"/>
  <atv:overwrite id="focus_frame" transform="matrix(0.6667,0,0,1,0,0)" width="236"/>
  <atv:overwrite id="button_stroke" transform="matrix(0.6667,0,0,1,0,0)" x="215"/>
  <atv:overwrite id="id_7" transform="matrix(0.6667,0,0,1,0,0)" x="215"/>
  <atv:overwrite id="button_bg" transform="matrix(0.6667,0,0,1,0,0)" x="215"/>
  <atv:overwrite id="combobox_label" transform="matrix(0.6667,0,0,1,0,0)" x="205.5"/>
  <atv:overwrite id="blinking_frame" transform="matrix(0.6667,0,0,1,0,0)" width="208"/>
  <atv:overwrite id="combobox_bg" transform="matrix(0.6667,0,0,1,0,0)" width="208"/>
  <atv:overwrite id="id_1" transform="matrix(0.6667,0,0,1,0,0)" width="238"/>
  <atv:overwrite id="id_0" transform="matrix(0.6667,0,0,1,0,0)" width="240"/>
 </svg>
 <svg atv:refpx="319.976" atv:refpy="379" height="30" id="reply_input" transform="matrix(1.5,0,0,1,0,0)" width="160" x="133.333" xlink:href="SYSTEM.LIBRARY.ATVISE.OBJECTDISPLAYS.Advanced.in_out_value" y="385">
  <atv:argument name="validation" value="String"/>
  <atv:argument name="allowDirectInput" value="Yes"/>
  <atv:argument name="tabIndex" value="30"/>
  <atv:overwrite id="id_2" transform="matrix(0.8889,0,0,1,0,0)" width="174.5"/>
  <atv:overwrite id="id_0" transform="matrix(0.5517,0,0,1,0,0)" width="290"/>
  <atv:overwrite id="input_label" transform="matrix(0.6667,0,0,1,0,0)" x="232.055"/>
  <atv:overwrite id="blinking_frame" transform="matrix(0.6667,0,0,1,0,0)" width="232"/>
  <atv:overwrite id="focus_frame" transform="matrix(0.6667,0,0,1,0,0)" width="236"/>
  <atv:overwrite id="input_bg" transform="matrix(0.6667,0,0,1,0,0)" width="232"/>
  <atv:overwrite id="id_1" transform="matrix(0.6667,0,0,1,0,0)" width="238"/>
  <atv:overwrite id="input_border" transform="matrix(0.6667,0,0,1,0,0)" width="240"/>
 </svg>
 <svg atv:refpx="894.997" atv:refpy="82.501" height="30" id="info" transform="matrix(6.625,0,0,1.5,0,0)" width="80" x="95.094" xlink:href="SYSTEM.LIBRARY.ATVISE.OBJECTDISPLAYS.Advanced.label" y="40">
  <atv:argument name="text" value="Info"/>
 </svg>
 <svg atv:refpx="942.49" atv:refpy="139" height="30" id="attachment_input" transform="matrix(1.9688,0,0,1,0,0)" width="160" x="398.73" xlink:href="SYSTEM.LIBRARY.ATVISE.OBJECTDISPLAYS.Advanced.combobox" y="145">
  <atv:argument name="tabIndex" value="40"/>
  <atv:overwrite id="focus_frame" transform="matrix(0.5079,0,0,1,0,0)" width="311"/>
  <atv:overwrite id="button_stroke" transform="matrix(0.5079,0,0,1,0,0)" x="290"/>
  <atv:overwrite id="id_7" transform="matrix(0.5079,0,0,1,0,0)" x="290"/>
  <atv:overwrite id="button_bg" transform="matrix(0.5079,0,0,1,0,0)" x="290"/>
  <atv:overwrite id="combobox_label" transform="matrix(0.5079,0,0,1,0,0)" x="280.5"/>
  <atv:overwrite id="blinking_frame" transform="matrix(0.5079,0,0,1,0,0)" width="283"/>
  <atv:overwrite id="combobox_bg" transform="matrix(0.5079,0,0,1,0,0)" width="283"/>
  <atv:overwrite id="id_1" transform="matrix(0.5079,0,0,1,0,0)" width="313"/>
  <atv:overwrite id="id_0" transform="matrix(0.5079,0,0,1,0,0)" width="315"/>
 </svg>
 <svg atv:dynamic="true" atv:refpx="1066.369" atv:refpy="347" height="30" id="attachment_apply" transform="matrix(1.5,0,0,1,0,0)" width="80" x="693.333" xlink:href="SYSTEM.LIBRARY.ATVISE.OBJECTDISPLAYS.Advanced.button" y="385">
  <atv:argument name="label" value="T{Apply}"/>
  <atv:argument name="tabIndex" value="56"/>
  <atv:argument name="borderVisible" value="true"/>
  <atv:argument name="extraBorderColor" value="#ffffff"/>
  <atv:argument name="fontSize" value="14"/>
  <atv:argument name="symbol" value="SYSTEM.LIBRARY.ATVISE.OBJECTDISPLAYS.Symbols.20x20.plus2"/>
  <atv:overwrite id="id_6" transform="matrix(0.6667,0,0,1,0,0)" width="118"/>
  <atv:overwrite id="button_label_2" transform="matrix(0.6667,0,0,1,0,0)" x="60"/>
  <atv:overwrite id="button_label_1" transform="matrix(0.6667,0,0,1,0,0)" x="60"/>
  <atv:overwrite id="button_label" transform="matrix(0.6667,0,0,1,0,0)" x="60"/>
  <atv:overwrite id="button_symbol_bottom" transform="matrix(0.4,0,0,0.6,0,0)" x="89.833"/>
  <atv:overwrite id="button_symbol_top" transform="matrix(0.4,0,0,0.6,0,0)" x="89.833"/>
  <atv:overwrite id="button_symbol" transform="matrix(0.6667,0,0,1,0,0)" x="50"/>
  <atv:overwrite id="button_stroke" transform="matrix(0.6667,0,0,1,0,0)" width="116"/>
  <atv:overwrite id="button_bg" transform="matrix(0.6667,0,0,1,0,0)" width="118"/>
  <atv:overwrite id="outer_frame" transform="matrix(0.6667,0,0,1,0,0)" width="120"/>
 </svg>
 <svg atv:dynamic="true" atv:refpx="1120.987" atv:refpy="107" height="30" id="attachment_remove" transform="matrix(0.625,0,0,1,0,0)" width="80" x="1776" xlink:href="SYSTEM.LIBRARY.ATVISE.OBJECTDISPLAYS.Advanced.button" y="145">
  <atv:argument name="label" value="T{Remove}"/>
  <atv:argument name="tabIndex" value="41"/>
  <atv:argument name="borderVisible" value="true"/>
  <atv:argument name="extraBorderColor" value="#ffffff"/>
  <atv:argument name="fontSize" value="14"/>
  <atv:argument name="visibilityLabel" value="hidden"/>
  <atv:argument name="visibilitySymbol" value="inherit"/>
  <atv:argument name="symbol" value="SYSTEM.LIBRARY.ATVISE.OBJECTDISPLAYS.Symbols.20x20.minus2"/>
  <atv:argument name="tooltip" value="T{Remove}"/>
  <atv:overwrite id="id_6" transform="matrix(1.6,0,0,1,0,0)" width="48"/>
  <atv:overwrite id="button_label_2" transform="matrix(1.6,0,0,1,0,0)" x="25"/>
  <atv:overwrite id="button_label_1" transform="matrix(1.6,0,0,1,0,0)" x="25"/>
  <atv:overwrite id="button_label" transform="matrix(1.6,0,0,1,0,0)" x="25"/>
  <atv:overwrite id="button_symbol_bottom" transform="matrix(0.96,0,0,0.6,0,0)" x="31.5"/>
  <atv:overwrite id="button_symbol_top" transform="matrix(0.96,0,0,0.6,0,0)" x="31.5"/>
  <atv:overwrite id="button_symbol" transform="matrix(1.6,0,0,1,0,0)" x="15"/>
  <atv:overwrite id="button_stroke" transform="matrix(1.6,0,0,1,0,0)" width="46"/>
  <atv:overwrite id="button_bg" transform="matrix(1.6,0,0,1,0,0)" width="48"/>
  <atv:overwrite id="outer_frame" transform="matrix(1.6,0,0,1,0,0)" width="50"/>
 </svg>
 <text atv:refpx="656.208" atv:refpy="50" fill="$FONTCOLOR$" font-family="Arial" font-size="16" id="info_label" text-anchor="start" x="625" y="49.5">T{Information}:</text>
 <svg atv:refpx="972.462" atv:refpy="449" height="30" id="custom_input" transform="matrix(2.3438,0,0,1,0,0)" width="160" x="334.933" xlink:href="SYSTEM.LIBRARY.ATVISE.OBJECTDISPLAYS.Advanced.in_out_value" y="455">
  <atv:argument name="validation" value="String"/>
  <atv:argument name="allowDirectInput" value="Yes"/>
  <atv:argument name="tabIndex" value="60"/>
  <atv:overwrite id="id_2" transform="matrix(0.8889,0,0,1,0,0)" width="174.5"/>
  <atv:overwrite id="id_0" transform="matrix(0.5517,0,0,1,0,0)" width="290"/>
  <atv:overwrite id="input_label" transform="matrix(0.4267,0,0,1,0,0)" x="367.055"/>
  <atv:overwrite id="blinking_frame" transform="matrix(0.4267,0,0,1,0,0)" width="367"/>
  <atv:overwrite id="focus_frame" transform="matrix(0.4267,0,0,1,0,0)" width="371"/>
  <atv:overwrite id="input_bg" transform="matrix(0.4267,0,0,1,0,0)" width="367"/>
  <atv:overwrite id="id_1" transform="matrix(0.4267,0,0,1,0,0)" width="373"/>
  <atv:overwrite id="input_border" transform="matrix(0.4267,0,0,1,0,0)" width="375"/>
 </svg>
 <text atv:refpx="680.606" atv:refpy="471.5" fill="$FONTCOLOR$" font-family="Arial" font-size="16" id="custom_label" text-anchor="start" x="626" y="477.5">T{Custom parameters}:</text>
 <svg atv:refpx="1002.431" atv:refpy="234" height="30" id="att_type_input" transform="matrix(1.9688,0,0,1,0,0)" width="160" x="429.206" xlink:href="SYSTEM.LIBRARY.ATVISE.OBJECTDISPLAYS.Advanced.combobox" y="240">
  <atv:argument name="tabIndex" value="51"/>
  <atv:argument name="text1" value="T{File}"/>
  <atv:argument name="text1value" value="SMTPClient.A_FILE"/>
  <atv:argument name="text2" value="T{Data}"/>
  <atv:argument name="text2value" value="SMTPClient.A_DATA"/>
  <atv:overwrite id="focus_frame" transform="matrix(0.5079,0,0,1,0,0)" width="311"/>
  <atv:overwrite id="button_stroke" transform="matrix(0.5079,0,0,1,0,0)" x="290"/>
  <atv:overwrite id="id_7" transform="matrix(0.5079,0,0,1,0,0)" x="290"/>
  <atv:overwrite id="button_bg" transform="matrix(0.5079,0,0,1,0,0)" x="290"/>
  <atv:overwrite id="combobox_label" transform="matrix(0.5079,0,0,1,0,0)" x="280.5"/>
  <atv:overwrite id="blinking_frame" transform="matrix(0.5079,0,0,1,0,0)" width="283"/>
  <atv:overwrite id="combobox_bg" transform="matrix(0.5079,0,0,1,0,0)" width="283"/>
  <atv:overwrite id="id_1" transform="matrix(0.5079,0,0,1,0,0)" width="313"/>
  <atv:overwrite id="id_0" transform="matrix(0.5079,0,0,1,0,0)" width="315"/>
 </svg>
 <svg atv:refpx="1002.435" atv:refpy="199" height="30" id="att_name_input" transform="matrix(1.9688,0,0,1,0,0)" width="160" x="429.206" xlink:href="SYSTEM.LIBRARY.ATVISE.OBJECTDISPLAYS.Advanced.in_out_value" y="205">
  <atv:argument name="validation" value="String"/>
  <atv:argument name="allowDirectInput" value="Yes"/>
  <atv:argument name="tabIndex" value="50"/>
  <atv:overwrite id="id_2" transform="matrix(0.8889,0,0,1,0,0)" width="174.5"/>
  <atv:overwrite id="id_0" transform="matrix(0.5517,0,0,1,0,0)" width="290"/>
  <atv:overwrite id="input_label" transform="matrix(0.5079,0,0,1,0,0)" x="307.055"/>
  <atv:overwrite id="blinking_frame" transform="matrix(0.5079,0,0,1,0,0)" width="307"/>
  <atv:overwrite id="focus_frame" transform="matrix(0.5079,0,0,1,0,0)" width="311"/>
  <atv:overwrite id="input_bg" transform="matrix(0.5079,0,0,1,0,0)" width="307"/>
  <atv:overwrite id="id_1" transform="matrix(0.5079,0,0,1,0,0)" width="313"/>
  <atv:overwrite id="input_border" transform="matrix(0.5079,0,0,1,0,0)" width="315"/>
 </svg>
 <svg atv:refpx="1002.433" atv:refpy="269" height="30" id="att_contenttype_input" transform="matrix(1.9688,0,0,1,0,0)" width="160" x="429.206" xlink:href="SYSTEM.LIBRARY.ATVISE.OBJECTDISPLAYS.Advanced.in_out_value" y="275">
  <atv:argument name="validation" value="String"/>
  <atv:argument name="allowDirectInput" value="Yes"/>
  <atv:argument name="tabIndex" value="52"/>
  <atv:overwrite id="id_2" transform="matrix(0.8889,0,0,1,0,0)" width="174.5"/>
  <atv:overwrite id="id_0" transform="matrix(0.5517,0,0,1,0,0)" width="290"/>
  <atv:overwrite id="input_label" transform="matrix(0.5079,0,0,1,0,0)" x="307.055"/>
  <atv:overwrite id="blinking_frame" transform="matrix(0.5079,0,0,1,0,0)" width="307"/>
  <atv:overwrite id="focus_frame" transform="matrix(0.5079,0,0,1,0,0)" width="311"/>
  <atv:overwrite id="input_bg" transform="matrix(0.5079,0,0,1,0,0)" width="307"/>
  <atv:overwrite id="id_1" transform="matrix(0.5079,0,0,1,0,0)" width="313"/>
  <atv:overwrite id="input_border" transform="matrix(0.5079,0,0,1,0,0)" width="315"/>
 </svg>
 <svg atv:refpx="1002.431" atv:refpy="304" height="30" id="att_path_input" transform="matrix(1.9688,0,0,1,0,0)" width="160" x="429.206" xlink:href="SYSTEM.LIBRARY.ATVISE.OBJECTDISPLAYS.Advanced.in_out_value" y="310">
  <atv:argument name="validation" value="String"/>
  <atv:argument name="allowDirectInput" value="Yes"/>
  <atv:argument name="tabIndex" value="53"/>
  <atv:overwrite id="id_2" transform="matrix(0.8889,0,0,1,0,0)" width="174.5"/>
  <atv:overwrite id="id_0" transform="matrix(0.5517,0,0,1,0,0)" width="290"/>
  <atv:overwrite id="input_label" transform="matrix(0.5079,0,0,1,0,0)" x="307.055"/>
  <atv:overwrite id="blinking_frame" transform="matrix(0.5079,0,0,1,0,0)" width="307"/>
  <atv:overwrite id="focus_frame" transform="matrix(0.5079,0,0,1,0,0)" width="311"/>
  <atv:overwrite id="input_bg" transform="matrix(0.5079,0,0,1,0,0)" width="307"/>
  <atv:overwrite id="id_1" transform="matrix(0.5079,0,0,1,0,0)" width="313"/>
  <atv:overwrite id="input_border" transform="matrix(0.5079,0,0,1,0,0)" width="315"/>
 </svg>
 <svg atv:refpx="904.956" atv:refpy="360" height="30" id="att_inline_input" transform="matrix(0.75,0,0,1,0,0)" width="160" x="1126.661" xlink:href="SYSTEM.LIBRARY.ATVISE.OBJECTDISPLAYS.Advanced.checkbox" y="345">
  <atv:argument name="label" value="T{Inline}"/>
  <atv:argument name="tabIndex" value="54"/>
  <atv:argument name="valueOn" value="true"/>
  <atv:argument name="outputValueOn" value="true"/>
  <atv:argument name="outputValueOff" value="false"/>
  <atv:argument name="fontSize" value="16"/>
  <atv:overwrite id="checkbox_item" transform="matrix(1.3333,0,0,1,0,0)"/>
  <atv:overwrite id="checkbox_symbol" transform="matrix(1.3333,0,0,1,0,0)"/>
  <atv:overwrite id="blinking_frame" transform="matrix(1.3333,0,0,1,0,0)"/>
  <atv:overwrite id="focus_frame" transform="matrix(1.3333,0,0,1,0,0)"/>
  <atv:overwrite id="checkbox_bg" transform="matrix(1.3333,0,0,1,0,0)"/>
  <atv:overwrite id="checkbox_frame" transform="matrix(1.3333,0,0,1,0,0)"/>
  <atv:overwrite id="checkbox_stroke" transform="matrix(1.3333,0,0,1,0,0)"/>
 </svg>
 <svg atv:refpx="1069.924" atv:refpy="360" height="30" id="att_encoded_input" transform="matrix(1.3125,0,0,1,0,0)" width="160" x="735.236" xlink:href="SYSTEM.LIBRARY.ATVISE.OBJECTDISPLAYS.Advanced.checkbox" y="345">
  <atv:argument name="label" value="T{Base64 encoded}"/>
  <atv:argument name="tabIndex" value="55"/>
  <atv:argument name="valueOn" value="true"/>
  <atv:argument name="outputValueOn" value="true"/>
  <atv:argument name="outputValueOff" value="false"/>
  <atv:argument name="fontSize" value="16"/>
  <atv:overwrite id="checkbox_item" transform="matrix(0.7619,0,0,1,0,0)"/>
  <atv:overwrite id="checkbox_symbol" transform="matrix(0.7619,0,0,1,0,0)"/>
  <atv:overwrite id="blinking_frame" transform="matrix(0.7619,0,0,1,0,0)"/>
  <atv:overwrite id="focus_frame" transform="matrix(0.7619,0,0,1,0,0)"/>
  <atv:overwrite id="checkbox_bg" transform="matrix(0.7619,0,0,1,0,0)"/>
  <atv:overwrite id="checkbox_frame" transform="matrix(0.7619,0,0,1,0,0)"/>
  <atv:overwrite id="checkbox_stroke" transform="matrix(0.7619,0,0,1,0,0)"/>
 </svg>
 <text atv:refpx="703.515" atv:refpy="262" fill="$FONTCOLOR$" font-family="Arial" font-size="16" id="id_11" text-anchor="start" x="690" y="261.5">T{Type}:</text>
 <text atv:refpx="706.614" atv:refpy="226" fill="$FONTCOLOR$" font-family="Arial" font-size="16" id="id_11" text-anchor="start" x="690" y="225.5">T{ID} / T{Name}:</text>
 <text atv:refpx="711.333" atv:refpy="297" fill="$FONTCOLOR$" font-family="Arial" font-size="16" id="id_11" text-anchor="start" x="690" y="296.5">T{Content type}:</text>
 <text atv:refpx="711.333" atv:refpy="331" fill="$FONTCOLOR$" font-family="Arial" font-size="16" id="id_11" text-anchor="start" x="690" y="330.5">T{Path}:</text>
 <line atv:refpx="892.5" atv:refpy="195" id="id_12" stroke="$FILLCOLOR$" stroke-linecap="round" stroke-width="2" x1="625" x2="1160" y1="190" y2="190"/>
 <script atv:desc="" atv:href="SYSTEM.LIBRARY.ATVISE.DISPLAYSCRIPTS.dialogs.email_dialog" atv:name="email dialog" atv:type="text/ecmascript"/>
 <script atv:desc="" atv:name="" type="text/ecmascript"/>
</svg>
