<?xml version='1.0' encoding='utf-8'?>
<!-- Uploaded to: SVG Repo, www.svgrepo.com, Generator: SVG Repo Mixer Tools -->
<svg fill="#000000" height="50.100000000000001" width="50.009999999999998" xmlns="http://www.w3.org/2000/svg" xmlns:atv="http://webmi.atvise.com/2007/svgext" xmlns:xlink="http://www.w3.org/1999/xlink">
 <defs/>
 <metadata>
  <atv:gridconfig enabled="false" gridstyle="lines" height="20" width="20"/>
  <atv:snapconfig enabled="false" height="10" width="10"/>
 </metadata>
 <path atv:refpx="25.003" atv:refpy="25.05" d="M36.787,0C36.236,0.07 35.841,0.574 35.912,1.125C35.982,1.676 36.486,2.07 37.037,2C37.037,2 37.826,1.961 39.193,2.406C40.56,2.851 42.408,3.758 44.287,5.687C46.177,7.625 47.111,9.48 47.568,10.844C48.025,12.207 48.005,13 48.005,13C48.001,13.359 48.189,13.695 48.501,13.879C48.814,14.058 49.197,14.058 49.509,13.879C49.822,13.695 50.009,13.359 50.005,13C50.005,13 49.986,11.832 49.443,10.219C48.9,8.605 47.833,6.476 45.724,4.312C43.603,2.14 41.451,1.031 39.818,0.5C38.185,-0.03 36.974,0 36.974,0C36.943,0 36.912,0 36.88,0C36.849,0 36.818,0 36.787,0M28.693,6C27.63,6 26.56,6.383 25.724,7.156C25.712,7.168 25.705,7.176 25.693,7.187L1.193,31.781C-0.4,33.375 -0.384,36.012 1.162,37.687C1.173,37.699 1.181,37.707 1.193,37.719L12.412,48.906C14.005,50.5 16.611,50.484 18.287,48.937C18.298,48.926 18.306,48.918 18.318,48.906L42.818,24.406C42.83,24.387 42.841,24.363 42.849,24.344C44.357,22.586 44.412,20 42.818,18.406L31.599,7.187C30.802,6.39 29.755,6 28.693,6M36.818,6C36.267,6.051 35.861,6.543 35.912,7.094C35.962,7.644 36.455,8.051 37.005,8C37.005,8 37.318,7.98 37.943,8.187C38.568,8.394 39.404,8.836 40.287,9.719C41.169,10.601 41.611,11.437 41.818,12.062C42.025,12.687 42.005,13 42.005,13C42.001,13.359 42.189,13.695 42.501,13.879C42.814,14.058 43.197,14.058 43.509,13.879C43.822,13.695 44.009,13.359 44.005,13C44.005,13 43.986,12.312 43.693,11.437C43.4,10.562 42.841,9.398 41.724,8.281C40.607,7.164 39.443,6.605 38.568,6.312C37.693,6.019 37.005,6 37.005,6C36.974,6 36.943,6 36.912,6C36.88,6 36.849,6 36.818,6M28.693,8C29.255,8 29.791,8.191 30.193,8.594L41.412,19.812C42.22,20.621 42.244,22.019 41.349,23.062L16.912,47.469C15.986,48.32 14.626,48.308 13.818,47.5L2.63,36.312C2.619,36.301 2.611,36.293 2.599,36.281C1.775,35.355 1.802,34.015 2.599,33.219L27.099,8.625C27.56,8.199 28.13,8 28.693,8M28.005,14C23.599,14 20.005,17.594 20.005,22C20.005,26.406 23.599,30 28.005,30C32.412,30 36.005,26.406 36.005,22C36.005,17.594 32.412,14 28.005,14M28.005,16C31.33,16 34.005,18.676 34.005,22C34.005,25.324 31.33,28 28.005,28C24.681,28 22.005,25.324 22.005,22C22.005,18.676 24.681,16 28.005,16M28.005,20C26.9,20 26.005,20.894 26.005,22C26.005,23.105 26.9,24 28.005,24C29.111,24 30.005,23.105 30.005,22C30.005,20.894 29.111,20 28.005,20M15.005,27C13.9,27 13.005,27.894 13.005,29C13.005,30.105 13.9,31 15.005,31C16.111,31 17.005,30.105 17.005,29C17.005,27.894 16.111,27 15.005,27M10.005,32C8.9,32 8.005,32.894 8.005,34C8.005,35.105 8.9,36 10.005,36C11.111,36 12.005,35.105 12.005,34C12.005,32.894 11.111,32 10.005,32M21.005,33C19.9,33 19.005,33.894 19.005,35C19.005,36.105 19.9,37 21.005,37C22.111,37 23.005,36.105 23.005,35C23.005,33.894 22.111,33 21.005,33M16.005,38C14.9,38 14.005,38.894 14.005,40C14.005,41.105 14.9,42 16.005,42C17.111,42 18.005,41.105 18.005,40C18.005,38.894 17.111,38 16.005,38" id="id_0"/>
</svg>
