<?xml version='1.0' encoding='UTF-8' standalone='no'?>
<svg height="300" version="1.2" width="644" xmlns="http://www.w3.org/2000/svg" xmlns:atv="http://webmi.atvise.com/2007/svgext" xmlns:xlink="http://www.w3.org/1999/xlink">
 <defs/>
 <metadata>
  <atv:parameter behavior="optional" defaultvalue="Nombre del equipo" desc="Nombre de la estaci贸n de rebombeo" name="pumping_station" substitute="$pumping_station$" valuetype="address"/>
  <atv:gridconfig enabled="true" gridstyle="lines" height="20" width="20"/>
  <atv:snapconfig enabled="true" height="1" width="1"/>
 </metadata>
 <text atv:refpx="120.22" atv:refpy="20.5" fill="#000088" font-family="Arial" font-size="22" font-weight="bold" id="id_0" transform="matrix(1.2022,0,0,1.1714,0,0)" x="4.5" y="25.5">$pumping_station$</text>
 <text atv:refpx="44.286" atv:refpy="281.857" fill="#000088" font-family="Arial" font-size="14" font-weight="bold" id="id_5" text-anchor="end" transform="matrix(1.2022,0,0,1.4286,0.368,-113.1504)" x="81.68" y="281">Totalizador:</text>
 <text atv:refpx="219.131" atv:refpy="65.857" fill="#000088" font-family="Arial" font-size="14" font-weight="bold" id="id_9" transform="matrix(1.2022,0,0,1.4286,-37.2048,-20.5728)" x="188.5" y="65">Presi贸n:</text>
 <text atv:refpx="45.572" atv:refpy="66.857" fill="#000088" font-family="Arial" font-size="14" font-weight="bold" id="id_15" transform="matrix(1.2022,0,0,1.4286,-4.2462,-21.0014)" x="25.5" y="66">Flujo:</text>
 <text atv:refpx="439.844" atv:refpy="62.857" fill="#000088" font-family="Arial" font-size="14" font-weight="bold" id="id_17" transform="matrix(1.2022,0,0,1.4286,-72.792,-19.287)" x="364.5" y="62">Horas de operaci贸n:</text>
 <text atv:refpx="307.536" atv:refpy="281.857" fill="#000088" font-family="Arial" font-size="14" font-weight="bold" id="id_18" transform="matrix(1.2022,0,0,1.4286,-48.1236,-113.1504)" x="242.5" y="281">Acumulado diario:</text>
 <svg atv:refpx="321.999" atv:refpy="173" height="400" id="id_20" transform="matrix(1.61,0,0,0.42,0,0)" width="400" x="0" xlink:href="SYSTEM.LIBRARY.ATVISE.OBJECTDISPLAYS.Advanced.highcharts.highcharts" y="211.905">
  <atv:argument name="trendName" prefix="base" value=".hydrologic"/>
  <atv:argument name="series1series_address" prefix="base" value=".pressure"/>
  <atv:argument name="series1series_name" value="T{Presi贸n}"/>
  <atv:argument name="series1series_color" value="#248713"/>
  <atv:argument name="series2series_address" prefix="base" value=".flow"/>
  <atv:argument name="series1series_tooltip_valueSuffix" value="kg/cm2"/>
  <atv:argument name="series2series_tooltip_valueSuffix" value="l/s"/>
  <atv:argument name="series2series_marker_enabled" value="false"/>
  <atv:argument name="series1series_marker_enabled" value="false"/>
  <atv:argument name="series2series_name" value="T{Flujo}"/>
  <atv:argument name="series3series_name" value=""/>
  <atv:argument name="series2series_color" value="#a66437"/>
  <atv:argument name="series3series_color" value="#161f3d"/>
  <atv:argument name="series2series_tooltip_valueDecimals" value="2"/>
  <atv:argument name="series1series_tooltip_valueDecimals" value="2"/>
  <atv:argument name="series4series_name" value=""/>
  <atv:argument name="series4series_color" value="#9224bd"/>
  <atv:argument name="series3series_address" prefix="base" value=".daily_cummulative"/>
  <atv:argument name="series3series_tooltip_valueSuffix" value="M3"/>
  <atv:argument name="series3series_marker_enabled" value="false"/>
  <atv:argument name="trendGroup" value=".group1"/>
  <atv:overwrite id="highchart_label" transform="matrix(0.6211,0,0,2.381,0,0)" x="151.5" y="95"/>
  <atv:overwrite height="166" id="border" transform="matrix(0.6211,0,0,2.381,0,0)" width="642"/>
  <atv:overwrite height="168" id="id_3" transform="matrix(0.6211,0,0,2.381,0,0)" width="644"/>
 </svg>
 <svg atv:refpx="353.5" atv:refpy="66.5" height="31" id="id_24" transform="matrix(0.8875,0,0,1.1935,0,0)" width="80" x="307.605" xlink:href="SYSTEM.LIBRARY.PROJECT.OBJECTDISPLAYS.FlatComponents.EditableLabel" y="40.216">
  <atv:argument name="base" prefix="base" value=".pressure"/>
  <atv:argument name="unit" value="T{kg/cm2}"/>
  <atv:argument name="postDecimal" value="2"/>
  <atv:argument name="fillNotEditable" value="#000000"/>
  <atv:argument name="editable" value="No"/>
  <atv:argument name="fontSize" value="14"/>
  <atv:overwrite id="input_label" transform="matrix(1.1268,0,0,0.8379,0,0)" x="35.5" y="24.499"/>
  <atv:overwrite height="35.998" id="input_bg" transform="matrix(1.1268,0,0,0.8379,0,0)" width="70"/>
  <atv:overwrite height="52.498" id="blinking_frame" transform="matrix(1.1268,0,0,0.8379,0,0)" width="143.326"/>
 </svg>
 <svg atv:refpx="119.5" atv:refpy="66.5" height="31" id="id_25" transform="matrix(0.8875,0,0,1.1935,0,0)" width="80" x="94.648" xlink:href="SYSTEM.LIBRARY.PROJECT.OBJECTDISPLAYS.FlatComponents.EditableLabel" y="40.216">
  <atv:argument name="base" prefix="base" value=".flow"/>
  <atv:argument name="unit" value="T{l/s}"/>
  <atv:argument name="postDecimal" value="2"/>
  <atv:argument name="fillNotEditable" value="#000000"/>
  <atv:argument name="editable" value="No"/>
  <atv:argument name="fontSize" value="14"/>
  <atv:overwrite id="input_label" transform="matrix(1.1268,0,0,0.8378,0,0)" x="35.5" y="24.5"/>
  <atv:overwrite height="36" id="input_bg" transform="matrix(1.1268,0,0,0.8378,0,0)" width="70"/>
  <atv:overwrite height="52.5" id="blinking_frame" transform="matrix(1.1268,0,0,0.8378,0,0)" width="143.326"/>
 </svg>
 <svg atv:refpx="146.5" atv:refpy="263.5" height="31" id="id_26" transform="matrix(0.8875,0,0,1.1935,0,0)" width="80" x="125.071" xlink:href="SYSTEM.LIBRARY.PROJECT.OBJECTDISPLAYS.FlatComponents.EditableLabel" y="221.199">
  <atv:argument name="base" prefix="base" value=".cummulative"/>
  <atv:argument name="unit" value="T{M3}"/>
  <atv:argument name="fillNotEditable" value="#000000"/>
  <atv:argument name="editable" value="No"/>
  <atv:argument name="fontSize" value="14"/>
  <atv:overwrite id="input_label" transform="matrix(1.1268,0,0,0.8379,0,0)" x="35.5" y="24.499"/>
  <atv:overwrite height="35.998" id="input_bg" transform="matrix(1.1268,0,0,0.8379,0,0)" width="70"/>
  <atv:overwrite height="52.498" id="blinking_frame" transform="matrix(1.1268,0,0,0.8379,0,0)" width="143.326"/>
 </svg>
 <svg atv:refpx="277.5" atv:refpy="263.499" height="31" id="id_29" transform="matrix(0.8875,0,0,1.1935,0,0)" width="80" x="465.352" xlink:href="SYSTEM.LIBRARY.PROJECT.OBJECTDISPLAYS.FlatComponents.EditableLabel" y="221.199">
  <atv:argument name="base" prefix="base" value=".daily_cummulative"/>
  <atv:argument name="postDecimal" value="2"/>
  <atv:argument name="fillNotEditable" value="#000000"/>
  <atv:argument name="editable" value="No"/>
  <atv:argument name="fontSize" value="14"/>
  <atv:argument name="unit" value="T{M3}"/>
  <atv:overwrite id="input_label" transform="matrix(1.1268,0,0,0.8379,0,0)" x="35.5" y="24.499"/>
  <atv:overwrite height="35.998" id="input_bg" transform="matrix(1.1268,0,0,0.8379,0,0)" width="70"/>
  <atv:overwrite height="52.498" id="blinking_frame" transform="matrix(1.1268,0,0,0.8379,0,0)" width="143.326"/>
 </svg>
 <svg atv:refpx="569.5" atv:refpy="63.502" height="31" id="id_1" transform="matrix(0.8875,0,0,1.1935,0,0)" width="80" x="618.592" xlink:href="SYSTEM.LIBRARY.PROJECT.OBJECTDISPLAYS.FlatComponents.EditableLabel" y="37.704">
  <atv:argument name="base" prefix="base" value=".hours"/>
  <atv:argument name="unit" value="T{h}"/>
  <atv:argument name="postDecimal" value="2"/>
  <atv:argument name="fillNotEditable" value="#000000"/>
  <atv:argument name="editable" value="No"/>
  <atv:argument name="fontSize" value="14"/>
  <atv:overwrite id="input_label" transform="matrix(1.1268,0,0,0.8379,0,0)" x="35.5" y="24.499"/>
  <atv:overwrite height="35.998" id="input_bg" transform="matrix(1.1268,0,0,0.8379,0,0)" width="70"/>
  <atv:overwrite height="52.498" id="blinking_frame" transform="matrix(1.1268,0,0,0.8379,0,0)" width="143.326"/>
 </svg>
 <g atv:refpx="430.034" atv:refpy="23.073" id="id_2" transform="matrix(1.4407,0,0,1.4157,391.7581,-22.6862)">
  <rect atv:refpx="26.567" atv:refpy="32.323" fill="#b7b7b7" height="18.882" id="id_4" rx="3.524" ry="4.055" stroke="#000000" stroke-linecap="round" stroke-linejoin="round" stroke-width="1" width="51.958" x="0.588" y="22.882"/>
  <text atv:refpx="26.79" atv:refpy="32.426" fill="#ffffff" font-family="Arial" font-size="20" id="id_6" text-anchor="middle" transform="matrix(0.4503,0,0,0.4283,-3.3417,13.8848)" x="66.421" y="47.787">Estatus_bomba</text>
 </g>
 <g atv:refpx="507.259" atv:refpy="23.073" id="id_10" transform="matrix(1.4407,0,0,1.4157,391.7581,-22.6862)">
  <rect atv:refpx="79.245" atv:refpy="32.323" fill="#b7b7b7" height="18.882" id="id_12" rx="3.524" ry="4.055" stroke="#000000" stroke-linecap="round" stroke-linejoin="round" stroke-width="1" width="51.958" x="53.266" y="22.882"/>
  <text atv:refpx="80.375" atv:refpy="32.139" fill="#ffffff" font-family="Arial" font-size="20" id="id_7" text-anchor="middle" transform="matrix(0.4503,0,0,0.4283,27.485,13.7208)" x="117" y="47.5">Estatus_modo</text>
 </g>
 <g atv:refpx="581.298" atv:refpy="23.073" id="id_13" transform="matrix(1.4407,0,0,1.4157,391.7581,-22.6862)">
  <rect atv:refpx="131.559" atv:refpy="32.323" fill="#b7b7b7" height="18.882" id="id_16" rx="3.524" ry="4.055" stroke="#000000" stroke-linecap="round" stroke-linejoin="round" stroke-width="1" width="51.958" x="105.58" y="22.882"/>
  <text atv:refpx="131.777" atv:refpy="32.426" fill="#ffffff" font-family="Arial" font-size="20" id="id_8" text-anchor="middle" transform="matrix(0.4503,0,0,0.4283,54.4971,13.8848)" x="171.14" y="47.787">Estatus_control</text>
 </g>
 <script atv:desc="" atv:name="" type="text/ecmascript"><![CDATA[



webMI.data.subscribe(webMI.query["base"] + ".name", function(e) {
var id = "id_0";
var value = e.value;
webMI.gfx.setText(id, value);

});


webMI.data.subscribe(webMI.query["base"] + ".man_auto", function(e) {
var id = "id_12";
var value = e.value;
if (value == false)
	webMI.gfx.setFill(id, "#2d4758");
if (value == true)
	webMI.gfx.setFill(id, "#333dc5");

});
webMI.data.subscribe(webMI.query["base"] + ".man_auto", function(e) {
var id = "id_7";
var value = e.value;
if (value == false)
	webMI.gfx.setText(id, "T{MANUAL}");
if (value == true)
	webMI.gfx.setText(id, "T{Auto}");

});
webMI.data.subscribe(webMI.query["base"] + ".loc_rem", function(e) {
var id = "id_16";
var value = e.value;
if (value == true)
	webMI.gfx.setFill(id, "#009a0a");
if (value == false)
	webMI.gfx.setFill(id, "#0b3b05");

});
webMI.data.subscribe(webMI.query["base"] + ".status", function(e) {
var id = "id_2";
var value = e.value;
if (value == false)
	webMI.gfx.setFill(id, "#ff0004");
if (value == true)
	webMI.gfx.setFill(id, "#3af800");

});
webMI.data.subscribe(webMI.query["base"] + ".name", function(e) {
var id = "id_2";
var value = e.value;
webMI.gfx.setText(id, value);

});
webMI.data.subscribe(webMI.query["base"] + ".loc_rem", function(e) {
var id = "id_8";
var value = e.value;
if (value == false)
	webMI.gfx.setText(id, "T{LOCAL}");
if (value == true)
	webMI.gfx.setText(id, "T{REMOTO}");

});
webMI.data.subscribe(webMI.query["base"] + ".status", function(e) {
var id = "id_4";
var value = e.value;
if (value == false)
	webMI.gfx.setFill(id, "#a62233");
if (value == true)
	webMI.gfx.setFill(id, "#2d7829");

});
webMI.data.subscribe(webMI.query["base"] + ".status", function(e) {
var id = "id_6";
var value = e.value;
if (value == true)
	webMI.gfx.setText(id, "T{ON}");
if (value == false)
	webMI.gfx.setText(id, "T{OFF}");

});]]></script>
</svg>
