<?xml version='1.0' encoding='UTF-8' standalone='no'?>
<svg height="530" version="1.2" width="1200" xmlns="http://www.w3.org/2000/svg" xmlns:atv="http://webmi.atvise.com/2007/svgext" xmlns:xlink="http://www.w3.org/1999/xlink">
 <defs>
  <linearGradient gradientUnits="objectBoundingBox" id="linear_2" x1="0" x2="0" y1="0" y2="1.07843">
   <stop offset="0" stop-color="#818181"/>
   <stop offset="0.8475336322869955" stop-color="#464646"/>
   <stop offset="0.9372197309417041" stop-color="#000000"/>
  </linearGradient>
 </defs>
 <desc>Used by highcharts configuration dialog.</desc>
 <title>Configuration - General</title>
 <metadata>
  <atv:parameter behavior="optional" defaultvalue="SYSTEM.GLOBALS.atvFontColor" desc="font color" name="fontColor" substitute="$FONTCOLOR$" valuetype="global"/>
  <atv:parameter behavior="optional" defaultvalue="SYSTEM.GLOBALS.atvFillColor" desc="fill color" name="fillColor" substitute="$FILLCOLOR$" valuetype="global"/>
  <atv:gridconfig enabled="true" gridstyle="lines" height="20" width="20"/>
  <atv:snapconfig enabled="true" height="5" width="5"/>
 </metadata>
 <rect atv:refpx="86.25" atv:refpy="35" fill="$FILLCOLOR$" height="530" id="filters_bg" rx="0" ry="0" stroke="#000000" stroke-width="0" width="180" x="0" y="0"/>
 <text atv:refpx="273.039" atv:refpy="31.5" fill="$FONTCOLOR$" font-family="Arial" font-size="12" font-weight="bold" id="id_5" text-anchor="start" x="204.5" y="36">T{General configuration}:</text>
 <text atv:refpx="278" atv:refpy="104.5" fill="$FONTCOLOR$" font-family="Arial" font-size="12" id="id_7" text-anchor="end" x="345.5" y="109">T{Measurement marker}:</text>
 <text atv:refpx="315.336" atv:refpy="139.5" fill="$FONTCOLOR$" font-family="Arial" font-size="12" id="id_9" text-anchor="end" x="345.336" y="144">T{Tooltip}:</text>
 <text atv:refpx="300.5" atv:refpy="174.5" fill="$FONTCOLOR$" font-family="Arial" font-size="12" id="id_10" text-anchor="end" x="343.5" y="179">T{Export menu}:</text>
 <text atv:refpx="247.232" atv:refpy="298.5" fill="$FONTCOLOR$" font-family="Arial" font-size="12" font-weight="bold" id="id_32" text-anchor="start" x="204.5" y="303">T{Data source}:</text>
 <svg atv:refpx="492.504" atv:refpy="415" height="30" id="source" transform="matrix(1.5313,0,0,1,0,0)" width="160" x="241.625" xlink:href="SYSTEM.LIBRARY.ATVISE.OBJECTDISPLAYS.Advanced.combobox" y="400">
  <atv:argument name="tabIndex" value="37"/>
  <atv:overwrite id="id_3" transform="matrix(0.653,0,0,1,0,0)" x="219.758"/>
  <atv:overwrite id="id_5" transform="matrix(0.653,0,0,1,0,0)" x="217.508"/>
  <atv:overwrite id="id_2" transform="matrix(0.653,0,0,1,0,0)" width="213.008"/>
  <atv:overwrite id="combobox_stroke" transform="matrix(0.653,0,0,1,0,0)" width="244.508"/>
  <atv:overwrite id="focus_frame" transform="matrix(0.653,0,0,1,0,0)" width="241.008"/>
  <atv:overwrite id="button_stroke" transform="matrix(0.653,0,0,1,0,0)" x="220.008"/>
  <atv:overwrite id="id_7" transform="matrix(0.653,0,0,1,0,0)" x="220.008"/>
  <atv:overwrite id="button_bg" transform="matrix(0.653,0,0,1,0,0)" x="220.008"/>
  <atv:overwrite id="combobox_label" transform="matrix(0.653,0,0,1,0,0)" x="210.508"/>
  <atv:overwrite id="blinking_frame" transform="matrix(0.653,0,0,1,0,0)" width="213.008"/>
  <atv:overwrite id="combobox_bg" transform="matrix(0.653,0,0,1,0,0)" width="213.008"/>
  <atv:overwrite id="id_1" transform="matrix(0.653,0,0,1,0,0)" width="243.008"/>
  <atv:overwrite id="id_0" transform="matrix(0.653,0,0,1,0,0)" width="245.008"/>
 </svg>
 <text atv:refpx="301.5" atv:refpy="411.5" fill="$FONTCOLOR$" font-family="Arial" font-size="12" id="id_34" text-anchor="end" x="343.5" y="416">T{Data source}:</text>
 <text atv:refpx="304.5" atv:refpy="378.5" fill="$FONTCOLOR$" font-family="Arial" font-size="12" id="id_35" text-anchor="end" x="343.5" y="383">T{Data mode}:</text>
 <text atv:refpx="301" atv:refpy="346.5" fill="$FONTCOLOR$" font-family="Arial" font-size="12" id="id_40" text-anchor="end" x="342.5" y="351">T{Time format}:</text>
 <svg atv:refpx="307" atv:refpy="345" height="30" id="global_useUTC-false" width="160" x="370" xlink:href="SYSTEM.LIBRARY.ATVISE.OBJECTDISPLAYS.Advanced.radiobutton" y="330">
  <atv:argument name="radiogroupId" value="global_useUTC"/>
  <atv:argument name="label" value="T{local}"/>
  <atv:argument name="value" value="local"/>
  <atv:argument name="tabIndex" value="34"/>
  <atv:overwrite id="radiobutton_bg2" transform="matrix(1.3333,0,0,1,0,0)"/>
  <atv:overwrite id="id_2" transform="matrix(1.3333,0,0,1,0,0)" width="88"/>
  <atv:overwrite id="id_0" transform="matrix(1.3333,0,0,1,0,0)" width="119.5"/>
  <atv:overwrite id="radiobutton_bg" width="86"/>
 </svg>
 <svg atv:refpx="575" atv:refpy="345" height="30" id="global_useUTC-true" width="160" x="495" xlink:href="SYSTEM.LIBRARY.ATVISE.OBJECTDISPLAYS.Advanced.radiobutton" y="330">
  <atv:argument name="radiogroupId" value="global_useUTC"/>
  <atv:argument name="label" value="T{UTC}"/>
  <atv:argument name="value" value="utc"/>
  <atv:argument name="tabIndex" value="35"/>
  <atv:overwrite id="radiobutton_bg2" transform="matrix(1.3333,0,0,1,0,0)"/>
  <atv:overwrite id="id_2" transform="matrix(1.3333,0,0,1,0,0)" width="88"/>
  <atv:overwrite id="id_0" transform="matrix(1.3333,0,0,1,0,0)" width="119.5"/>
  <atv:overwrite id="radiobutton_bg" width="86"/>
 </svg>
 <text atv:refpx="926" atv:refpy="216.5" fill="$FONTCOLOR$" font-family="Arial" font-size="12" font-style="italic" id="id_45" text-anchor="start" x="729" y="221">T{Temporary removement of datapoints which are not visible to the user}</text>
 <text atv:refpx="848.492" atv:refpy="236.5" fill="$FONTCOLOR$" font-family="Arial" font-size="12" font-style="italic" id="id_46" text-anchor="start" x="729" y="241">T{at the given resolution of the screen/chart}</text>
 <svg atv:refpx="306.667" atv:refpy="105" height="30" id="marker1" width="160" x="370" xlink:href="SYSTEM.LIBRARY.ATVISE.OBJECTDISPLAYS.Advanced.checkbox" y="90">
  <atv:argument name="valueOn" value="true"/>
  <atv:argument name="outputValueOn" value="true"/>
  <atv:argument name="outputValueOff" value="false"/>
  <atv:argument name="label" value="T{Marker 1}"/>
  <atv:argument name="tabIndex" value="11"/>
  <atv:overwrite id="checkbox_bg2" transform="matrix(1.3333,0,0,1,0,0)"/>
  <atv:overwrite id="id_5" transform="matrix(1.3333,0,0,1,0,0)"/>
  <atv:overwrite id="id_2" transform="matrix(1.3333,0,0,1,0,0)" width="88"/>
  <atv:overwrite id="id_0" transform="matrix(1.3333,0,0,1,0,0)" width="119.5"/>
 </svg>
 <svg atv:refpx="390" atv:refpy="105" height="30" id="marker2" width="160" x="495" xlink:href="SYSTEM.LIBRARY.ATVISE.OBJECTDISPLAYS.Advanced.checkbox" y="90">
  <atv:argument name="valueOn" value="true"/>
  <atv:argument name="outputValueOn" value="true"/>
  <atv:argument name="outputValueOff" value="false"/>
  <atv:argument name="label" value="T{Marker 2}"/>
  <atv:argument name="tabIndex" value="12"/>
  <atv:overwrite id="checkbox_bg2" transform="matrix(1.3333,0,0,1,0,0)"/>
  <atv:overwrite id="id_5" transform="matrix(1.3333,0,0,1,0,0)"/>
  <atv:overwrite id="id_2" transform="matrix(1.3333,0,0,1,0,0)" width="88"/>
  <atv:overwrite id="id_0" transform="matrix(1.3333,0,0,1,0,0)" width="119.5"/>
 </svg>
 <svg atv:refpx="307" atv:refpy="140" height="30" id="tooltip_enabled" width="160" x="370" xlink:href="SYSTEM.LIBRARY.ATVISE.OBJECTDISPLAYS.Advanced.checkbox" y="125">
  <atv:argument name="valueOn" value="true"/>
  <atv:argument name="outputValueOn" value="true"/>
  <atv:argument name="outputValueOff" value="false"/>
  <atv:argument name="label" value="T{visible}"/>
  <atv:argument name="tabIndex" value="13"/>
  <atv:overwrite id="checkbox_bg2" transform="matrix(1.3333,0,0,1,0,0)"/>
  <atv:overwrite id="id_5" transform="matrix(1.3333,0,0,1,0,0)"/>
  <atv:overwrite id="id_2" transform="matrix(1.3333,0,0,1,0,0)" width="88"/>
  <atv:overwrite id="id_0" transform="matrix(1.3333,0,0,1,0,0)" width="119.5"/>
 </svg>
 <svg atv:refpx="307" atv:refpy="175" height="30" id="exporting_enabled" width="160" x="370" xlink:href="SYSTEM.LIBRARY.ATVISE.OBJECTDISPLAYS.Advanced.checkbox" y="160">
  <atv:argument name="valueOn" value="true"/>
  <atv:argument name="outputValueOn" value="true"/>
  <atv:argument name="outputValueOff" value="false"/>
  <atv:argument name="label" value="T{visible}"/>
  <atv:argument name="tabIndex" value="14"/>
  <atv:overwrite id="checkbox_bg2" transform="matrix(1.3333,0,0,1,0,0)"/>
  <atv:overwrite id="id_5" transform="matrix(1.3333,0,0,1,0,0)"/>
  <atv:overwrite id="id_2" transform="matrix(1.3333,0,0,1,0,0)" width="88"/>
  <atv:overwrite id="id_0" transform="matrix(1.3333,0,0,1,0,0)" width="119.5"/>
 </svg>
 <svg atv:refpx="492.512" atv:refpy="70" height="30" id="title_text" transform="matrix(1.5312,0,0,1,0,0)" width="160" x="241.641" xlink:href="SYSTEM.LIBRARY.ATVISE.OBJECTDISPLAYS.Advanced.in_out_value" y="55">
  <atv:argument name="validation" value="String"/>
  <atv:overwrite id="id_2" transform="matrix(0.6531,0,0,1,0,0)" width="239.5"/>
  <atv:argument name="tabIndex" value="10"/>
  <atv:overwrite id="input_label" transform="matrix(0.6531,0,0,1,0,0)" x="237.047"/>
  <atv:overwrite id="blinking_frame" transform="matrix(0.6531,0,0,1,0,0)" width="236.992"/>
  <atv:overwrite id="focus_frame" transform="matrix(0.6531,0,0,1,0,0)" width="240.992"/>
  <atv:overwrite id="input_bg" transform="matrix(0.6531,0,0,1,0,0)" width="236.992"/>
  <atv:overwrite id="id_1" transform="matrix(0.6531,0,0,1,0,0)" width="242.992"/>
  <atv:overwrite id="id_0" transform="matrix(0.6531,0,0,1,0,0)" width="244.992"/>
 </svg>
 <text atv:refpx="310" atv:refpy="69.5" fill="$FONTCOLOR$" font-family="Arial" font-size="12" id="id_6" text-anchor="end" x="344.5" y="74">T{Chart title}:</text>
 <text atv:refpx="814" atv:refpy="69.5" fill="$FONTCOLOR$" font-family="Arial" font-size="12" id="id_1" text-anchor="end" x="863.5" y="74">T{Update interval}:</text>
 <svg atv:refpx="930.061" atv:refpy="70" height="30" id="interval" transform="matrix(0.5,0,0,1,0,0)" width="160" x="1780" xlink:href="SYSTEM.LIBRARY.ATVISE.OBJECTDISPLAYS.Advanced.picker_value" y="55">
  <atv:argument name="min" value="1"/>
  <atv:overwrite id="id_2" transform="matrix(2,0,0,1,0,0)" width="80"/>
  <atv:argument name="tabIndex" value="20"/>
  <atv:overwrite id="focus_frame" transform="matrix(2,0,0,1,0,0)" width="76"/>
  <atv:overwrite id="clickarea_dec" transform="matrix(2,0,0,1,-160,0)"/>
  <atv:overwrite id="clickarea_inc" transform="matrix(2,0,0,1,-160,0)"/>
  <atv:overwrite id="input_label" transform="matrix(2,0,0,1,0,0)" x="45.5"/>
  <atv:overwrite id="blinking_frame" transform="matrix(2,0,0,1,0,0)" width="48"/>
  <atv:overwrite id="input_bg" transform="matrix(2,0,0,1,0,0)" width="48"/>
  <atv:overwrite id="id_0" transform="matrix(2,0,0,1,0,0)" width="78"/>
  <atv:overwrite id="bg" transform="matrix(2,0,0,1,0,0)" width="80"/>
 </svg>
 <text atv:refpx="1024" atv:refpy="69.5" fill="$FONTCOLOR$" font-family="Arial" font-size="12" id="id_4" text-anchor="start" x="977.5" y="74">(T{milliseconds})</text>
 <text atv:refpx="372.183" atv:refpy="491.5" fill="$FONTCOLOR$" font-family="Arial" font-size="12" id="id_8" text-anchor="start" x="204" y="496">T{Note: May require reload of the chart to be applied correctly.}</text>
 <text atv:refpx="293.5" atv:refpy="447.5" fill="$FONTCOLOR$" font-family="Arial" font-size="12" id="id_13" text-anchor="end" x="344.5" y="452">T{Advanced Options}:</text>
 <svg atv:refpx="714.999" atv:refpy="450" height="30" id="sourceOptions" transform="matrix(4.3125,0,0,1,0,0)" width="160" x="85.797" xlink:href="SYSTEM.LIBRARY.ATVISE.OBJECTDISPLAYS.Advanced.in_out_value" y="435">
  <atv:argument name="validation" value="String"/>
  <atv:argument name="tabIndex" value="38"/>
  <atv:overwrite id="input_label" transform="matrix(0.2319,0,0,1,0,0)" x="682.055"/>
  <atv:overwrite id="blinking_frame" transform="matrix(0.2319,0,0,1,0,0)" width="682"/>
  <atv:overwrite id="focus_frame" transform="matrix(0.2319,0,0,1,0,0)" width="686"/>
  <atv:overwrite id="input_bg" transform="matrix(0.2319,0,0,1,0,0)" width="682"/>
  <atv:overwrite id="id_1" transform="matrix(0.2319,0,0,1,0,0)" width="688"/>
  <atv:overwrite id="id_0" transform="matrix(0.2319,0,0,1,0,0)" width="690"/>
 </svg>
 <text atv:refpx="1081" atv:refpy="449.5" fill="#575757" font-family="Arial" font-size="12" id="sourceOptionsValid" text-anchor="start" x="1065" y="454">T{OK}</text>
 <line atv:refpx="695" atv:refpy="140" id="id_12" stroke="#d7d7d7" stroke-width="0.5" x1="699" x2="699" y1="20" y2="260"/>
 <text atv:refpx="308.036" atv:refpy="211.5" fill="$FONTCOLOR$" font-family="Arial" font-size="12" id="label_alignTicks" text-anchor="end" x="358.5" y="216">T{Tick auto alignment}:</text>
 <svg atv:refpx="444.086" atv:refpy="210" height="30" id="chart_alignTicks" transform="matrix(1.2688,0,0,1,0,0)" width="160" x="291.614" xlink:href="SYSTEM.LIBRARY.ATVISE.OBJECTDISPLAYS.Advanced.checkbox" y="195">
  <atv:argument name="valueOn" value="true"/>
  <atv:argument name="outputValueOn" value="true"/>
  <atv:argument name="outputValueOff" value="false"/>
  <atv:argument name="label" value="T{enable for all y-axis}"/>
  <atv:argument name="tabIndex" value="15"/>
  <atv:overwrite id="checkbox_bg2" transform="matrix(1.3333,0,0,1,0,0)"/>
  <atv:overwrite id="id_5" transform="matrix(1.3333,0,0,1,0,0)"/>
  <atv:overwrite id="id_2" transform="matrix(1.3333,0,0,1,0,0)" width="88"/>
  <atv:overwrite id="id_0" transform="matrix(1.3333,0,0,1,0,0)" width="119.5"/>
  <atv:overwrite id="checkbox_item" transform="matrix(0.7881,0,0,1,0,0)"/>
  <atv:overwrite id="checkbox_symbol" transform="matrix(0.7881,0,0,1,0,0)"/>
  <atv:overwrite id="blinking_frame" transform="matrix(0.7881,0,0,1,0,0)"/>
  <atv:overwrite id="focus_frame" transform="matrix(0.7881,0,0,1,0,0)"/>
  <atv:overwrite id="checkbox_bg" transform="matrix(0.7881,0,0,1,0,0)"/>
  <atv:overwrite id="checkbox_frame" transform="matrix(0.7881,0,0,1,0,0)"/>
  <atv:overwrite id="checkbox_stroke" transform="matrix(0.7881,0,0,1,0,0)"/>
 </svg>
 <script atv:desc="" atv:href="SYSTEM.LIBRARY.ATVISE.DISPLAYSCRIPTS.highcharts.opt_general" atv:name="opt_general" atv:type="text/ecmascript"/>
 <script atv:desc="" atv:name="" type="text/ecmascript"/>
 <text atv:refpx="362" atv:refpy="-72" fill="$FONTCOLOR$" font-family="Arial" font-size="12" id="id_14" text-anchor="end" x="863.5" y="109">T{Render mode}:</text>
 <svg atv:refpx="990.039" atv:refpy="123" height="30" id="performance" transform="matrix(1.1563,0,0,1,0,0)" width="160" x="769.696" xlink:href="SYSTEM.LIBRARY.ATVISE.OBJECTDISPLAYS.Advanced.combobox" y="90">
  <atv:argument name="tabIndex" value="21"/>
  <atv:overwrite id="id_3" transform="matrix(0.653,0,0,1,0,0)" x="219.758"/>
  <atv:overwrite id="id_5" transform="matrix(0.653,0,0,1,0,0)" x="217.508"/>
  <atv:overwrite id="id_2" transform="matrix(0.653,0,0,1,0,0)" width="213.008"/>
  <atv:overwrite id="combobox_stroke" transform="matrix(0.653,0,0,1,0,0)" width="244.508"/>
  <atv:overwrite id="focus_frame" transform="matrix(0.8648,0,0,1,0,0)" width="181.008"/>
  <atv:overwrite id="button_stroke" transform="matrix(0.8648,0,0,1,0,0)" x="160.008"/>
  <atv:overwrite id="id_7" transform="matrix(0.8648,0,0,1,0,0)" x="160.008"/>
  <atv:overwrite id="button_bg" transform="matrix(0.8648,0,0,1,0,0)" x="160.008"/>
  <atv:overwrite id="combobox_label" transform="matrix(0.8648,0,0,1,0,0)" x="150.508"/>
  <atv:overwrite id="blinking_frame" transform="matrix(0.8648,0,0,1,0,0)" width="153.008"/>
  <atv:overwrite id="combobox_bg" transform="matrix(0.8648,0,0,1,0,0)" width="153.008"/>
  <atv:overwrite id="id_1" transform="matrix(0.8648,0,0,1,0,0)" width="183.008"/>
  <atv:overwrite id="id_0" transform="matrix(0.8648,0,0,1,0,0)" width="185.008"/>
 </svg>
 <text atv:refpx="773.693" atv:refpy="31.5" fill="$FONTCOLOR$" font-family="Arial" font-size="12" font-weight="bold" id="id_15" text-anchor="start" x="729.5" y="36">T{Performance}</text>
 <svg atv:refpx="502.523" atv:refpy="398" height="30" id="modePicker" transform="matrix(1.5313,0,0,1,0,0)" width="160" x="241.625" xlink:href="SYSTEM.LIBRARY.ATVISE.OBJECTDISPLAYS.Advanced.combobox" y="365">
  <atv:argument name="tabIndex" value="36"/>
  <atv:overwrite id="id_3" transform="matrix(0.653,0,0,1,0,0)" x="219.758"/>
  <atv:overwrite id="id_5" transform="matrix(0.653,0,0,1,0,0)" x="217.508"/>
  <atv:overwrite id="id_2" transform="matrix(0.653,0,0,1,0,0)" width="213.008"/>
  <atv:overwrite id="combobox_stroke" transform="matrix(0.653,0,0,1,0,0)" width="244.508"/>
  <atv:argument name="text1" value="T{mixed}"/>
  <atv:argument name="text1value" value="mixed"/>
  <atv:argument name="text2" value="T{live only}"/>
  <atv:argument name="text2value" value="live"/>
  <atv:argument name="text3" value="T{archive only}"/>
  <atv:argument name="text3value" value="history"/>
  <atv:overwrite id="focus_frame" transform="matrix(0.653,0,0,1,0,0)" width="241.008"/>
  <atv:overwrite id="button_stroke" transform="matrix(0.653,0,0,1,0,0)" x="220.008"/>
  <atv:overwrite id="id_7" transform="matrix(0.653,0,0,1,0,0)" x="220.008"/>
  <atv:overwrite id="button_bg" transform="matrix(0.653,0,0,1,0,0)" x="220.008"/>
  <atv:overwrite id="combobox_label" transform="matrix(0.653,0,0,1,0,0)" x="210.508"/>
  <atv:overwrite id="blinking_frame" transform="matrix(0.653,0,0,1,0,0)" width="213.008"/>
  <atv:overwrite id="combobox_bg" transform="matrix(0.653,0,0,1,0,0)" width="213.008"/>
  <atv:overwrite id="id_1" transform="matrix(0.653,0,0,1,0,0)" width="243.008"/>
  <atv:overwrite id="id_0" transform="matrix(0.653,0,0,1,0,0)" width="245.008"/>
 </svg>
 <g atv:refpx="850.504" atv:refpy="140" id="samplingThresholdGroup">
  <svg atv:refpx="917.421" atv:refpy="140" height="30" id="samplingFactorPicker" transform="matrix(0.3438,0,0,1,0,0)" width="160" x="2588.714" xlink:href="SYSTEM.LIBRARY.ATVISE.OBJECTDISPLAYS.Advanced.picker_value" y="125">
   <atv:argument name="tabIndex" value="22"/>
   <atv:overwrite id="focus_frame" transform="matrix(2.9087,0,0,1,0,0)" width="51.008"/>
   <atv:overwrite id="clickarea_dec" transform="matrix(2.9087,0,0,1,-305.3869,0)"/>
   <atv:overwrite id="clickarea_inc" transform="matrix(2.9087,0,0,1,-305.3869,0)"/>
   <atv:overwrite id="input_label" transform="matrix(2.9087,0,0,1,0,0)" x="20.508"/>
   <atv:overwrite id="blinking_frame" transform="matrix(2.9087,0,0,1,0,0)" width="23.008"/>
   <atv:overwrite id="input_bg" transform="matrix(2.9087,0,0,1,0,0)" width="23.008"/>
   <atv:overwrite id="id_0" transform="matrix(2.9087,0,0,1,0,0)" width="53.008"/>
   <atv:overwrite id="bg" transform="matrix(2.9087,0,0,1,0,0)" width="55.008"/>
  </svg>
  <text atv:refpx="362" atv:refpy="-37" fill="$FONTCOLOR$" font-family="Arial" font-size="12" id="samplingFactorLabel" text-anchor="end" x="863.5" y="144">T{Sampling factor}:</text>
 </g>
 <g atv:refpx="854.5" atv:refpy="157.5" id="boostThresholdGroup">
  <svg atv:refpx="928.552" atv:refpy="100" height="30" id="boostThresholdPoints" transform="matrix(0.5,0,0,1,0,0)" width="160" x="1780" xlink:href="SYSTEM.LIBRARY.ATVISE.OBJECTDISPLAYS.Advanced.picker_value" y="125">
   <atv:argument name="min" value="0"/>
   <atv:argument name="tabIndex" value="23"/>
   <atv:overwrite id="focus_frame" transform="matrix(2,0,0,1,0,0)" width="76"/>
   <atv:overwrite id="clickarea_dec" transform="matrix(2,0,0,1,-160,0)"/>
   <atv:overwrite id="clickarea_inc" transform="matrix(2,0,0,1,-160,0)"/>
   <atv:overwrite id="input_label" transform="matrix(2,0,0,1,0,0)" x="45.5"/>
   <atv:overwrite id="blinking_frame" transform="matrix(2,0,0,1,0,0)" width="48"/>
   <atv:overwrite id="input_bg" transform="matrix(2,0,0,1,0,0)" width="48"/>
   <atv:overwrite id="id_0" transform="matrix(2,0,0,1,0,0)" width="78"/>
   <atv:overwrite id="bg" transform="matrix(2,0,0,1,0,0)" width="80"/>
  </svg>
  <svg atv:refpx="928.551" atv:refpy="175" height="30" id="boostThresholdSeries" transform="matrix(0.5,0,0,1,0,0)" width="160" x="1780" xlink:href="SYSTEM.LIBRARY.ATVISE.OBJECTDISPLAYS.Advanced.picker_value" y="160">
   <atv:argument name="min" value="0"/>
   <atv:argument name="tabIndex" value="24"/>
   <atv:overwrite id="focus_frame" transform="matrix(2,0,0,1,0,0)" width="76"/>
   <atv:overwrite id="clickarea_dec" transform="matrix(2,0,0,1,-160,0)"/>
   <atv:overwrite id="clickarea_inc" transform="matrix(2,0,0,1,-160,0)"/>
   <atv:overwrite id="input_label" transform="matrix(2,0,0,1,0,0)" x="45.5"/>
   <atv:overwrite id="blinking_frame" transform="matrix(2,0,0,1,0,0)" width="48"/>
   <atv:overwrite id="input_bg" transform="matrix(2,0,0,1,0,0)" width="48"/>
   <atv:overwrite id="id_0" transform="matrix(2,0,0,1,0,0)" width="78"/>
   <atv:overwrite id="bg" transform="matrix(2,0,0,1,0,0)" width="80"/>
  </svg>
  <g atv:refpx="807.5" atv:refpy="193" id="boostThresholdLabel" transform="matrix(1,0,0,1,0,-35)">
   <text atv:refpx="362" atv:refpy="-37" fill="$FONTCOLOR$" font-family="Arial" font-size="12" id="boostPointsThresholdLabel" text-anchor="end" x="863.5" y="179">T{Points Threshold}:</text>
   <text atv:refpx="362" atv:refpy="-2" fill="$FONTCOLOR$" font-family="Arial" font-size="12" id="boostSeriesThresholdLabel" text-anchor="end" x="863.5" y="214">T{Series Threshold}:</text>
  </g>
 </g>
 <svg atv:refpx="492.511" atv:refpy="245" height="30" id="exporting_csv_dateFormat" transform="matrix(1.5312,0,0,1,0,0)" width="160" x="241.641" xlink:href="SYSTEM.LIBRARY.ATVISE.OBJECTDISPLAYS.Advanced.in_out_value" y="230">
  <atv:argument name="validation" value="String"/>
  <atv:overwrite id="id_2" transform="matrix(0.6531,0,0,1,0,0)" width="239.5"/>
  <atv:argument name="tabIndex" value="10"/>
  <atv:overwrite id="input_label" transform="matrix(0.6531,0,0,1,0,0)" x="237.047"/>
  <atv:overwrite id="blinking_frame" transform="matrix(0.6531,0,0,1,0,0)" width="236.992"/>
  <atv:overwrite id="focus_frame" transform="matrix(0.6531,0,0,1,0,0)" width="240.992"/>
  <atv:overwrite id="input_bg" transform="matrix(0.6531,0,0,1,0,0)" width="236.992"/>
  <atv:overwrite id="id_1" transform="matrix(0.6531,0,0,1,0,0)" width="242.992"/>
  <atv:overwrite id="id_0" transform="matrix(0.6531,0,0,1,0,0)" width="244.992"/>
 </svg>
 <text atv:refpx="300.5" atv:refpy="244.5" fill="$FONTCOLOR$" font-family="Arial" font-size="12" id="id_16" text-anchor="end" x="358.5" y="249">T{Export date format}:</text>
</svg>
