<?xml version='1.0' encoding='UTF-8' standalone='no'?>
<svg height="330" version="1.2" width="560" xmlns="http://www.w3.org/2000/svg" xmlns:atv="http://webmi.atvise.com/2007/svgext" xmlns:xlink="http://www.w3.org/1999/xlink">
 <defs/>
 <desc>Used by highcharts configuration dialog.</desc>
 <title>Configuration - Bar/Column</title>
 <metadata>
  <atv:gridconfig enabled="true" gridstyle="lines" height="20" width="20"/>
  <atv:snapconfig enabled="true" height="5" width="5"/>
 </metadata>
 <text atv:refpx="130" atv:refpy="233.5" fill="#000000" font-family="Arial" font-size="12" id="id_18" text-anchor="end" x="157.5" y="238">T{Labels}:</text>
 <text atv:refpx="113.5" atv:refpy="127.5" fill="#000000" font-family="Arial" font-size="12" id="id_40" text-anchor="end" x="155.5" y="132">T{Border color}:</text>
 <text atv:refpx="103" atv:refpy="198.5" fill="#000000" font-family="Arial" font-size="12" id="id_41" text-anchor="end" x="157.5" y="203">T{Border line width}:</text>
 <svg atv:refpx="230.002" atv:refpy="132" height="30" id="series_borderColor" transform="matrix(0.625,0,0,1,0,0)" width="160" x="288" xlink:href="SYSTEM.LIBRARY.ATVISE.OBJECTDISPLAYS.Standard.picker_color" y="113">
  <atv:argument name="name" value="series_borderColor"/>
  <atv:argument name="tabIndex" value="83"/>
  <atv:overwrite id="id_1" transform="matrix(1.6,0,0,1,0,0)" x="74.75"/>
  <atv:overwrite id="button_bg" transform="matrix(1.6,0,0,1,0,0)" x="73.5"/>
  <atv:overwrite height="24.5" id="button_stroke" transform="matrix(1.6,0,0,1,0,0)" width="24.5" x="72.5" y="2.75"/>
  <atv:overwrite id="input_label" transform="matrix(1.6,0,0,1,0,0)" x="63.5"/>
  <atv:overwrite id="input_bg" transform="matrix(1.6,0,0,1,0,0)" width="66"/>
  <atv:overwrite id="id_2" transform="matrix(1.6,0,0,1,0,0)" width="68"/>
  <atv:overwrite id="id_0" transform="matrix(1.6,0,0,1,0,0)" width="99.5"/>
 </svg>
 <svg atv:refpx="230" atv:refpy="204" height="30" id="series_borderWidth" transform="matrix(0.625,0,0,1,0,0)" width="160" x="288" xlink:href="SYSTEM.LIBRARY.ATVISE.OBJECTDISPLAYS.Standard.picker_value" y="184">
  <atv:argument name="tabIndex" value="85"/>
  <atv:argument name="min" value="0"/>
  <atv:overwrite id="id_0" transform="matrix(1.6,0,0,1,0,0)" width="99.5"/>
  <atv:overwrite id="clickarea_dec" transform="matrix(1.6,0,0,1,-96,0)"/>
  <atv:overwrite id="clickarea_inc" transform="matrix(1.6,0,0,1,-96,0)"/>
  <atv:overwrite id="input_label" transform="matrix(1.6,0,0,1,0,0)" x="65.5"/>
  <atv:overwrite id="input_bg" transform="matrix(1.6,0,0,1,0,0)" width="66"/>
  <atv:overwrite id="id_2" transform="matrix(1.6,0,0,1,0,0)" width="68"/>
 </svg>
 <text atv:refpx="314.5" atv:refpy="197.5" fill="#000000" font-family="Arial" font-size="12" id="id_48" text-anchor="start" x="298.5" y="202">[T{px}]</text>
 <text atv:refpx="50.84" atv:refpy="86.5" fill="#000000" font-family="Arial" font-size="12" font-weight="bold" id="id_30" text-anchor="start" x="24.5" y="91">T{Styling}:</text>
 <text atv:refpx="124" atv:refpy="163.5" fill="#000000" font-family="Arial" font-size="12" id="id_0" text-anchor="end" x="155.5" y="168">T{Fill color}:</text>
 <svg atv:refpx="230.002" atv:refpy="167" height="30" id="series_color" transform="matrix(0.625,0,0,1,0,0)" width="160" x="288" xlink:href="SYSTEM.LIBRARY.ATVISE.OBJECTDISPLAYS.Standard.picker_color" y="148">
  <atv:argument name="name" value="series_color"/>
  <atv:argument name="tabIndex" value="84"/>
  <atv:overwrite id="id_1" transform="matrix(1.6,0,0,1,0,0)" x="74.75"/>
  <atv:overwrite id="button_bg" transform="matrix(1.6,0,0,1,0,0)" x="73.5"/>
  <atv:overwrite height="24.5" id="button_stroke" transform="matrix(1.6,0,0,1,0,0)" width="24.5" x="72.5" y="2.75"/>
  <atv:overwrite id="blinking_frame" transform="matrix(1.6,0,0,1,0,0)" width="66"/>
  <atv:overwrite id="input_label" transform="matrix(1.6,0,0,1,0,0)" x="63.5"/>
  <atv:overwrite id="input_bg" transform="matrix(1.6,0,0,1,0,0)" width="66"/>
  <atv:overwrite id="id_2" transform="matrix(1.6,0,0,1,0,0)" width="68"/>
  <atv:overwrite id="id_0" transform="matrix(1.6,0,0,1,0,0)" width="99.5"/>
 </svg>
 <svg atv:refpx="332.998" atv:refpy="268" height="30" id="series_dataLabels_format" transform="matrix(1.9,0,0,1,0,0)" width="160" x="95.263" xlink:href="SYSTEM.LIBRARY.ATVISE.OBJECTDISPLAYS.Standard.in_out_value" y="253">
  <atv:argument name="validation" value="String"/>
  <atv:argument name="tabIndex" value="87"/>
  <atv:overwrite id="id_0" transform="matrix(0.5263,0,0,1,0,0)" width="303.5"/>
  <atv:overwrite id="input_label" transform="matrix(0.5263,0,0,1,0,0)" x="295.5"/>
  <atv:overwrite id="blinking_frame" transform="matrix(0.5263,0,0,1,0,0)" width="297"/>
  <atv:overwrite id="focus_frame" transform="matrix(0.5263,0,0,1,0,0)" width="296"/>
  <atv:overwrite id="id_2" transform="matrix(0.5263,0,0,1,0,0)" width="298.5"/>
  <atv:overwrite id="input_bg" transform="matrix(0.5263,0,0,1,0,0)" width="303.5"/>
 </svg>
 <text atv:refpx="113.5" atv:refpy="268.5" fill="#000000" font-family="Arial" font-size="12" id="id_6" text-anchor="end" x="156.5" y="273">T{Axis label format}:</text>
 <svg atv:refpx="230" atv:refpy="235" height="30" id="series_dataLabels_enabled" transform="matrix(0.625,0,0,1,0,0)" width="160" x="289.6" xlink:href="SYSTEM.LIBRARY.ATVISE.OBJECTDISPLAYS.Standard.checkbox" y="219">
  <atv:argument name="valueOn" value="true"/>
  <atv:argument name="outputValueOn" value="true"/>
  <atv:argument name="outputValueOff" value="false"/>
  <atv:argument name="label" value="T{visible}"/>
  <atv:argument name="tabIndex" value="86"/>
  <atv:overwrite id="checkbox_symbol" transform="matrix(1.6,0,0,1,0,0)"/>
  <atv:overwrite id="checkbox_bg2" transform="matrix(1.6,0,0,1,0,0)"/>
  <atv:overwrite id="id_5" transform="matrix(1.6,0,0,1,0,0)"/>
  <atv:overwrite id="checkbox_item" transform="matrix(1.6,0,0,1,0,0)" x="92.5"/>
  <atv:overwrite id="checkbox_bg" transform="matrix(1.6,0,0,1,0,0)" width="66"/>
  <atv:overwrite id="id_2" transform="matrix(1.6,0,0,1,0,0)" width="68"/>
  <atv:overwrite id="id_0" transform="matrix(1.6,0,0,1,0,0)" width="99.5"/>
 </svg>
 <text atv:refpx="102.5" atv:refpy="36.5" fill="#000000" font-family="Arial" font-size="12" id="id_4" text-anchor="end" x="153.5" y="41">T{Related x/y-axis}:</text>
 <svg atv:refpx="259" atv:refpy="35" height="30" id="series_xAxis" transform="matrix(0.95,0,0,1,0,0)" width="160" x="189.474" xlink:href="SYSTEM.LIBRARY.ATVISE.OBJECTDISPLAYS.Standard.combobox" y="20">
  <atv:argument name="tabIndex" value="81"/>
  <atv:overwrite id="id_3" transform="matrix(1.0526,0,0,1,0,0)" x="126.75"/>
  <atv:overwrite id="button_bg" transform="matrix(1.0526,0,0,1,0,0)" x="125.5"/>
  <atv:overwrite id="button_stroke" transform="matrix(1.0526,0,0,1,0,0)" x="125.5"/>
  <atv:overwrite id="id_5" transform="matrix(1.0526,0,0,1,0,0)" x="124.5"/>
  <atv:overwrite id="combobox_label" transform="matrix(1.0526,0,0,1,0,0)" x="117.5"/>
  <atv:overwrite id="combobox_bg" transform="matrix(1.0526,0,0,1,0,0)" width="118"/>
  <atv:overwrite id="id_2" transform="matrix(1.0526,0,0,1,0,0)" width="120"/>
  <atv:overwrite id="combobox_stroke" transform="matrix(1.0526,0,0,1,0,0)" width="151.5"/>
 </svg>
 <svg atv:refpx="414" atv:refpy="35" height="30" id="series_yAxis" transform="matrix(0.95,0,0,1,0,0)" width="160" x="354.737" xlink:href="SYSTEM.LIBRARY.ATVISE.OBJECTDISPLAYS.Standard.combobox" y="20">
  <atv:argument name="tabIndex" value="82"/>
  <atv:overwrite id="id_3" transform="matrix(1.0526,0,0,1,0,0)" x="126.75"/>
  <atv:overwrite id="button_bg" transform="matrix(1.0526,0,0,1,0,0)" x="125.5"/>
  <atv:overwrite id="button_stroke" transform="matrix(1.0526,0,0,1,0,0)" x="125.5"/>
  <atv:overwrite id="id_5" transform="matrix(1.0526,0,0,1,0,0)" x="124.5"/>
  <atv:overwrite id="combobox_label" transform="matrix(1.0526,0,0,1,0,0)" x="117.5"/>
  <atv:overwrite id="combobox_bg" transform="matrix(1.0526,0,0,1,0,0)" width="118"/>
  <atv:overwrite id="id_2" transform="matrix(1.0526,0,0,1,0,0)" width="120"/>
  <atv:overwrite id="combobox_stroke" transform="matrix(1.0526,0,0,1,0,0)" width="151.5"/>
 </svg>
 <script atv:desc="" atv:href="SYSTEM.LIBRARY.ATVISE.DISPLAYSCRIPTS.highcharts.opt_series_bar_column" atv:name="opt_series_bar_column" atv:type="text/ecmascript"/>
 <script atv:desc="" atv:name="" type="text/ecmascript"/>
</svg>
