<?xml version='1.0' encoding='UTF-8' standalone='no'?>
<svg height="102" version="1.2" width="40" xmlns="http://www.w3.org/2000/svg" xmlns:atv="http://webmi.atvise.com/2007/svgext" xmlns:xlink="http://www.w3.org/1999/xlink">
 <defs/>
 <title>Bar scale - 20</title>
 <desc>Bar scale with 20 units.</desc>
 <metadata>
  <atv:parameter behavior="optional" defaultvalue="#ffffff" desc="scale color" name="scaleColor" substitute="$SCALECOLOR$" valuetype="color"/>
  <atv:gridconfig enabled="true" gridstyle="lines" height="2" width="2"/>
  <atv:snapconfig enabled="true" height="1" width="1"/>
 </metadata>
 <rect atv:refpx="6.875" atv:refpy="179.8" fill="$SCALECOLOR$" height="2" id="id_1" stroke="none" stroke-width="1" width="8.25" x="2.75" y="60"/>
 <rect atv:refpx="15.525" atv:refpy="-159" fill="$SCALECOLOR$" height="2" id="id_4" stroke="none" stroke-width="2" width="8.25" x="2.75" y="30"/>
 <rect atv:refpx="-24.887" atv:refpy="-10.6" fill="$SCALECOLOR$" height="2" id="id_5" stroke="none" stroke-width="1" width="8.25" x="2.75" y="80"/>
 <rect atv:refpx="-10.256" atv:refpy="-433" fill="$SCALECOLOR$" height="2" id="id_7" stroke="none" stroke-width="2" width="8.25" x="2.75" y="10"/>
 <rect atv:refpx="-50.462" atv:refpy="-318.4" fill="$SCALECOLOR$" height="2" id="id_8" stroke="none" stroke-width="1" width="8.25" x="2.75" y="70"/>
 <rect atv:refpx="-59.125" atv:refpy="-396.8" fill="$SCALECOLOR$" height="2" id="id_9" stroke="none" stroke-width="1" width="8.25" x="2.75" y="90"/>
 <rect atv:refpx="-16.65" atv:refpy="-453" fill="$SCALECOLOR$" height="2" id="id_10" stroke="none" stroke-width="2" width="8.25" x="2.75" y="20"/>
 <rect atv:refpx="-50.875" atv:refpy="-391.8" fill="$SCALECOLOR$" height="2" id="id_11" stroke="none" stroke-width="2" width="8.25" x="2.75" y="40"/>
 <rect atv:refpx="-5.775" atv:refpy="57" fill="$SCALECOLOR$" height="2" id="id_2" stroke="none" stroke-width="2" width="11" x="0" y="100"/>
 <rect atv:refpx="17.45" atv:refpy="-163" fill="$SCALECOLOR$" height="2" id="id_3" stroke="none" stroke-width="2" width="11" x="0" y="0"/>
 <rect atv:refpx="-47.85" atv:refpy="-266" fill="$SCALECOLOR$" height="2" id="id_6" stroke="none" stroke-width="2" width="11" x="0" y="50"/>
 <rect atv:refpx="8.5" atv:refpy="194.7" fill="$SCALECOLOR$" height="2" id="id_13" stroke="none" stroke-width="1" width="5" x="6" y="65"/>
 <rect atv:refpx="28.5" atv:refpy="-344" fill="$SCALECOLOR$" height="2" id="id_14" stroke="none" stroke-width="2" width="5" x="6" y="5"/>
 <rect atv:refpx="29.5" atv:refpy="-154" fill="$SCALECOLOR$" height="2" id="id_15" stroke="none" stroke-width="2" width="5" x="6" y="35"/>
 <rect atv:refpx="-10.75" atv:refpy="4.3" fill="$SCALECOLOR$" height="2" id="id_16" stroke="none" stroke-width="1" width="5" x="6" y="85"/>
 <rect atv:refpx="-15.75" atv:refpy="-201.1" fill="$SCALECOLOR$" height="2" id="id_28" stroke="none" stroke-width="1" width="5" x="6" y="55"/>
 <rect atv:refpx="13.875" atv:refpy="-428" fill="$SCALECOLOR$" height="2" id="id_29" stroke="none" stroke-width="2" width="5" x="6" y="15"/>
 <rect atv:refpx="-26.25" atv:refpy="-303.5" fill="$SCALECOLOR$" height="2" id="id_30" stroke="none" stroke-width="1" width="5" x="6" y="75"/>
 <rect atv:refpx="-31.5" atv:refpy="-381.9" fill="$SCALECOLOR$" height="2" id="id_31" stroke="none" stroke-width="1" width="5" x="6" y="95"/>
 <rect atv:refpx="10" atv:refpy="-448" fill="$SCALECOLOR$" height="2" id="id_32" stroke="none" stroke-width="2" width="5" x="6" y="25"/>
 <rect atv:refpx="-26.5" atv:refpy="-376.9" fill="$SCALECOLOR$" height="2" id="id_33" stroke="none" stroke-width="2" width="5" x="6" y="45"/>
 <rect atv:refpx="33.125" atv:refpy="179.8" fill="$SCALECOLOR$" height="2" id="id_21" stroke="none" stroke-width="1" width="8.25" x="29" y="60"/>
 <rect atv:refpx="41.775" atv:refpy="-159" fill="$SCALECOLOR$" height="2" id="id_22" stroke="none" stroke-width="2" width="8.25" x="29" y="30"/>
 <rect atv:refpx="1.363" atv:refpy="-10.6" fill="$SCALECOLOR$" height="2" id="id_23" stroke="none" stroke-width="1" width="8.25" x="29" y="80"/>
 <rect atv:refpx="15.994" atv:refpy="-433" fill="$SCALECOLOR$" height="2" id="id_24" stroke="none" stroke-width="2" width="8.25" x="29" y="10"/>
 <rect atv:refpx="-24.212" atv:refpy="-318.4" fill="$SCALECOLOR$" height="2" id="id_25" stroke="none" stroke-width="1" width="8.25" x="29" y="70"/>
 <rect atv:refpx="-32.875" atv:refpy="-396.8" fill="$SCALECOLOR$" height="2" id="id_26" stroke="none" stroke-width="1" width="8.25" x="29" y="90"/>
 <rect atv:refpx="9.6" atv:refpy="-453" fill="$SCALECOLOR$" height="2" id="id_27" stroke="none" stroke-width="2" width="8.25" x="29" y="20"/>
 <rect atv:refpx="-24.625" atv:refpy="-391.8" fill="$SCALECOLOR$" height="2" id="id_34" stroke="none" stroke-width="2" width="8.25" x="29" y="40"/>
 <rect atv:refpx="23.225" atv:refpy="57" fill="$SCALECOLOR$" height="2" id="id_35" stroke="none" stroke-width="2" width="11" x="29" y="100"/>
 <rect atv:refpx="46.45" atv:refpy="-163" fill="$SCALECOLOR$" height="2" id="id_36" stroke="none" stroke-width="2" width="11" x="29" y="0"/>
 <rect atv:refpx="-18.85" atv:refpy="-266" fill="$SCALECOLOR$" height="2" id="id_37" stroke="none" stroke-width="2" width="11" x="29" y="50"/>
 <rect atv:refpx="31.5" atv:refpy="194.7" fill="$SCALECOLOR$" height="2" id="id_38" stroke="none" stroke-width="1" width="5" x="29" y="65"/>
 <rect atv:refpx="51.5" atv:refpy="-344" fill="$SCALECOLOR$" height="2" id="id_39" stroke="none" stroke-width="2" width="5" x="29" y="5"/>
 <rect atv:refpx="52.5" atv:refpy="-154" fill="$SCALECOLOR$" height="2" id="id_40" stroke="none" stroke-width="2" width="5" x="29" y="35"/>
 <rect atv:refpx="12.25" atv:refpy="4.3" fill="$SCALECOLOR$" height="2" id="id_41" stroke="none" stroke-width="1" width="5" x="29" y="85"/>
 <rect atv:refpx="7.25" atv:refpy="-201.1" fill="$SCALECOLOR$" height="2" id="id_42" stroke="none" stroke-width="1" width="5" x="29" y="55"/>
 <rect atv:refpx="36.875" atv:refpy="-428" fill="$SCALECOLOR$" height="2" id="id_43" stroke="none" stroke-width="2" width="5" x="29" y="15"/>
 <rect atv:refpx="-3.25" atv:refpy="-303.5" fill="$SCALECOLOR$" height="2" id="id_44" stroke="none" stroke-width="1" width="5" x="29" y="75"/>
 <rect atv:refpx="-8.5" atv:refpy="-381.9" fill="$SCALECOLOR$" height="2" id="id_45" stroke="none" stroke-width="1" width="5" x="29" y="95"/>
 <rect atv:refpx="33" atv:refpy="-448" fill="$SCALECOLOR$" height="2" id="id_46" stroke="none" stroke-width="2" width="5" x="29" y="25"/>
 <rect atv:refpx="-3.5" atv:refpy="-376.9" fill="$SCALECOLOR$" height="2" id="id_47" stroke="none" stroke-width="2" width="5" x="29" y="45"/>
 <script atv:desc="" atv:name="" type="text/ecmascript"/>
</svg>
