<?xml version='1.0' encoding='UTF-8' standalone='no'?>
<svg height="300" version="1.2" width="400" xmlns="http://www.w3.org/2000/svg" xmlns:atv="http://webmi.atvise.com/2007/svgext" xmlns:xlink="http://www.w3.org/1999/xlink">
 <defs/>
 <rect atv:refpx="200" atv:refpy="150" fill="$FILLCOLOR$" height="300" id="id_0" stroke="none" stroke-width="0" width="400" x="0" y="0"/>
 <rect atv:refpx="-190.856" atv:refpy="-103.5" fill="#ffffff" height="165" id="password_background" rx="10.394" ry="7.796" stroke="none" stroke-width="0" width="380" x="10" y="45"/>
 <desc>Dialog for manual report generation.</desc>
 <title>Generate Report Dialog</title>
 <metadata>
  <atv:parameter behavior="optional" defaultvalue="SYSTEM.GLOBALS.atvFontColor" desc="font color" name="fontColor" substitute="$FONTCOLOR$" valuetype="global"/>
  <atv:parameter behavior="optional" defaultvalue="SYSTEM.GLOBALS.atvFillColor" desc="fill color" name="fillColor" substitute="$FILLCOLOR$" valuetype="global"/>
  <atv:parameter behavior="optional" defaultvalue="SYSTEM.GLOBALS.atvSymbolColor" desc="symbol color" name="symbolColor" substitute="$SYMBOLCOLOR$" valuetype="global"/>
  <atv:gridconfig enabled="true" gridstyle="lines" height="15" width="15"/>
  <atv:snapconfig enabled="true" height="5" width="5"/>
 </metadata>
 <rect atv:refpx="200" atv:refpy="102.5" fill="none" height="205" id="background" stroke="none" stroke-width="0" width="400" x="0" y="0"/>
 <text atv:refpx="202.01" atv:refpy="25.5" fill="$FONTCOLOR$" font-family="Arial" font-size="20" font-weight="bold" id="configuration_label" text-anchor="middle" x="199.5" y="30">Configuration name</text>
 <text atv:refpx="112.189" atv:refpy="66.5" fill="$FONTCOLOR$" font-family="Arial" font-size="16" id="time_label" text-anchor="middle" x="199.5" y="71">T{Generate report immediately based on this time}:</text>
 <svg atv:refpx="123.5" atv:refpy="185" height="30" id="generate_button" transform="matrix(1.3125,0,0,1,0,0)" width="80" x="60.952" xlink:href="SYSTEM.LIBRARY.ATVISE.OBJECTDISPLAYS.Advanced.button" y="263">
  <atv:argument name="label" value="T{Generate}"/>
  <atv:argument name="tabIndex" value="3"/>
  <atv:overwrite id="id_6" transform="matrix(0.7619,0,0,1,0,0)" width="103"/>
  <atv:overwrite id="button_label_2" transform="matrix(0.7619,0,0,1,0,0)" x="52.5"/>
  <atv:overwrite id="button_label_1" transform="matrix(0.7619,0,0,1,0,0)" x="52.5"/>
  <atv:overwrite id="button_label" transform="matrix(0.7619,0,0,1,0,0)" x="52.5"/>
  <atv:overwrite id="button_symbol_bottom" transform="matrix(0.4571,0,0,0.6,0,0)" x="77.333"/>
  <atv:overwrite id="button_symbol_top" transform="matrix(0.4571,0,0,0.6,0,0)" x="77.333"/>
  <atv:overwrite id="button_symbol" transform="matrix(0.7619,0,0,1,0,0)" x="42.5"/>
  <atv:overwrite id="button_stroke" transform="matrix(0.7619,0,0,1,0,0)" width="101"/>
  <atv:overwrite id="button_bg" transform="matrix(0.7619,0,0,1,0,0)" width="103"/>
  <atv:overwrite id="outer_frame" transform="matrix(0.7619,0,0,1,0,0)" width="105"/>
 </svg>
 <svg atv:refpx="203.5" atv:refpy="111" height="102" id="time_picker" width="287" x="56" xlink:href="SYSTEM.LIBRARY.ATVISE.OBJECTDISPLAYS.Advanced.in_out_datetime" y="90">
  <atv:argument name="tabIndex" value="1"/>
 </svg>
 <script atv:desc="" atv:href="SYSTEM.LIBRARY.ATVISE.DISPLAYSCRIPTS.report.run_dialog" atv:name="run_dialog" atv:type="text/ecmascript"/>
 <script atv:desc="" atv:name="" type="text/ecmascript"><![CDATA[
]]></script>
 <svg atv:refpx="248.5" atv:refpy="182" height="30" id="close_button" transform="matrix(1.3125,0,0,1,0,0)" width="80" x="164.571" xlink:href="SYSTEM.LIBRARY.ATVISE.OBJECTDISPLAYS.Advanced.button" y="263">
  <atv:argument name="label" value="T{Close}"/>
  <atv:argument name="tabIndex" value="4"/>
  <atv:overwrite id="id_6" transform="matrix(0.7619,0,0,1,0,0)" width="103"/>
  <atv:overwrite id="button_label_2" transform="matrix(0.7619,0,0,1,0,0)" x="52.5"/>
  <atv:overwrite id="button_label_1" transform="matrix(0.7619,0,0,1,0,0)" x="52.5"/>
  <atv:overwrite id="button_label" transform="matrix(0.7619,0,0,1,0,0)" x="52.5"/>
  <atv:overwrite id="button_symbol_bottom" transform="matrix(0.4571,0,0,0.6,0,0)" x="77.333"/>
  <atv:overwrite id="button_symbol_top" transform="matrix(0.4571,0,0,0.6,0,0)" x="77.333"/>
  <atv:overwrite id="button_symbol" transform="matrix(0.7619,0,0,1,0,0)" x="42.5"/>
  <atv:overwrite id="button_stroke" transform="matrix(0.7619,0,0,1,0,0)" width="101"/>
  <atv:overwrite id="button_bg" transform="matrix(0.7619,0,0,1,0,0)" width="103"/>
  <atv:overwrite id="outer_frame" transform="matrix(0.7619,0,0,1,0,0)" width="105"/>
 </svg>
 <text atv:refpx="198.5" atv:refpy="236" fill="#ff0000" font-family="Arial" font-size="16" id="message" text-anchor="middle" x="201.5" y="240.5">Message</text>
</svg>
