<svg width="24" height="24" stroke-width="1.5" stroke="#000000" class="icon icon-tabler icon-tabler-timeline" xmlns:xlink="http://www.w3.org/1999/xlink" fill="none" stroke-linecap="round" xmlns:atv="http://webmi.atvise.com/2007/svgext" stroke-linejoin="round" xmlns="http://www.w3.org/2000/svg">
 <defs/>
 <metadata>
  <atv:gridconfig enabled="true" gridstyle="lines" height="20" width="20"/>
  <atv:snapconfig enabled="true" height="1" width="1"/>
 </metadata>
 <path atv:refpx="12" atv:refpy="12" d="M0,0L24,0L24,24L0,24Z" fill="none" id="id_0" stroke="none"/>
 <path atv:refpx="0" atv:refpy="0" d="M4,16L10,9L15,14L20,8" fill="#000000" fill-opacity="0" id="id_1" stroke="#000000" stroke-width="1"/>
 <path atv:refpx="15" atv:refpy="14" d="M14,14C14,14.552 14.447,15 15,15C15.552,15 16,14.552 16,14C16,13.447 15.552,13 15,13C14.447,13 14,13.447 14,14" id="id_2"/>
 <path atv:refpx="10" atv:refpy="9" d="M9,9C9,9.552 9.447,10 10,10C10.552,10 11,9.552 11,9C11,8.447 10.552,8 10,8C9.447,8 9,8.447 9,9" id="id_3"/>
 <path atv:refpx="4" atv:refpy="16" d="M3,16C3,16.552 3.447,17 4,17C4.552,17 5,16.552 5,16C5,15.447 4.552,15 4,15C3.447,15 3,15.447 3,16" id="id_4"/>
 <path atv:refpx="0" atv:refpy="0" d="M19,8C19,8.552 19.447,9 20,9C20.552,9 21,8.552 21,8C21,7.447 20.552,7 20,7C19.447,7 19,7.447 19,8" id="id_5"/>
</svg>
