<?xml version='1.0' encoding='UTF-8'?>
<svg atv:contentheight="900" atv:contentwidth="800" height="1020" version="1.2" width="800" xmlns="http://www.w3.org/2000/svg" xmlns:atv="http://webmi.atvise.com/2007/svgext" xmlns:xlink="http://www.w3.org/1999/xlink">
 <defs/>
 <title>Portrait tablet</title>
 <desc>800 x 1020</desc>
 <metadata>
  <atv:parameter behavior="optional" defaultvalue="" name="Parent" valuetype="address"/>
  <atv:gridconfig enabled="false" gridstyle="lines" height="20" width="20"/>
  <atv:snapconfig enabled="true" height="10" width="10"/>
 </metadata>
 <svg atv:refpx="400" atv:refpy="510.008" height="600" id="content_iframe" transform="matrix(1,0,0,1.5,0,0)" width="800" x="0" xlink:href="SYSTEM.LIBRARY.ATVISE.OBJECTDISPLAYS.Standard.hmi.iframe" y="40">
  <atv:argument name="display" value="AGENT.DISPLAYS.TABLET.Portrait.Main"/>
  <atv:argument name="frameName" value="content"/>
  <atv:argument name="isNavigationFrame" value="true"/>
  <atv:overwrite id="label2" transform="matrix(0.625,0,0,0.9231,0,0)" x="415.5" y="414.11"/>
  <atv:overwrite id="label" transform="matrix(0.625,0,0,0.9231,0,0)" x="549" y="344.5"/>
 </svg>
 <svg atv:refpx="680" atv:refpy="510.006" height="300" id="menu_container" transform="matrix(1.2,0,0,2.9667,0,0)" width="200" x="466.667" xlink:href="SYSTEM.LIBRARY.ATVISE.OBJECTDISPLAYS.Advanced.navigation" y="21.91">
  <atv:argument name="navHomeDisplay" value="AGENT.DISPLAYS.TABLET.Portrait.Main"/>
  <atv:argument name="navVisible" value="false"/>
  <atv:argument name="navAnimateType" value="slide-right"/>
  <atv:argument name="navCustomEntry" value="AGENT.DISPLAYS.TABLET.Portrait"/>
  <atv:argument name="navFontSize" value="22"/>
  <atv:overwrite id="navigation_1_description" transform="matrix(0.8333,0,0,0.3371,0,0)"/>
  <atv:argument name="navContainerID" value="menu_container"/>
 </svg>
 <g atv:refpx="400" atv:refpy="27.667" id="id_14" transform="matrix(1,0,0,1,-87.8384,0)">
  <svg atv:refpx="366.006" atv:refpy="28.667" height="65" id="box_language" transform="matrix(0.6667,0,0,0.6667,0,0)" width="357" x="370.48" xlink:href="SYSTEM.LIBRARY.ATVISE.OBJECTDISPLAYS.Advanced.layoutelements.box_language" y="8.999">
   <atv:argument name="font_size" value="22"/>
   <atv:argument name="contextMenuStyle" value="{&quot;itemHeight&quot;:30,&quot;itemFill&quot;: &quot;#eeeeee&quot;,&quot;itemPadding&quot;:7,&quot;itemMargin&quot;:3,&quot;itemBorderRadius&quot;:3,&quot;itemBorder&quot;:&quot;1px #d7d7d7 solid&quot;, &quot;fill&quot;:0, &quot;strokeWidth&quot;:0,&quot;width&quot;:232,&quot;x&quot;:-1,&quot;y&quot;:77,&quot;textAlign&quot;: &quot;center&quot;}"/>
   <atv:argument name="context_menu_font_size" value="21"/>
  </svg>
  <svg atv:refpx="521.501" atv:refpy="28.667" height="65" id="box_user" transform="matrix(0.6667,0,0,0.6667,0,0)" width="358" x="734.962" xlink:href="SYSTEM.LIBRARY.ATVISE.OBJECTDISPLAYS.Advanced.layoutelements.box_user" y="8.999">
   <atv:argument name="font_size" value="22"/>
   <atv:argument name="x" value="25"/>
   <atv:argument name="popup_width" value="750"/>
   <atv:argument name="popup_height" value="850"/>
   <atv:argument name="y" value="85"/>
  </svg>
 </g>
 <g atv:refpx="71.48" atv:refpy="28.671" id="logo_clickarea" transform="matrix(0.6667,0,0,0.6667,0,1)">
  <svg atv:refpx="50" atv:refpy="50" height="80" id="layout_logo" transform="matrix(0.75,0,0,0.75,0,0)" width="80" x="28.666" xlink:href="SYSTEM.LIBRARY.ATVISE.OBJECTDISPLAYS.Symbols.atvise_logo" y="16"/>
  <svg atv:refpx="146.069" atv:refpy="44.728" height="12.99" id="layout_logo_r" transform="matrix(2.3446,0,0,2.3446,0,0)" width="48.94" x="30.366" xlink:href="SYSTEM.LIBRARY.ATVISE.OBJECTDISPLAYS.Symbols.atvise_R" y="10.237"/>
  <rect atv:refpx="212.5" atv:refpy="75" fill="#000000" fill-opacity="0.0001" height="60" id="logo_click_1" stroke="none" stroke-width="0" width="60" x="20" y="10.5"/>
  <rect atv:refpx="212.5" atv:refpy="75" fill="#000000" fill-opacity="0.0001" height="30" id="logo_click_2" stroke="none" stroke-width="0" width="125" x="66.999" y="24.494"/>
 </g>
 <svg atv:refpx="1171.5" atv:refpy="11" height="52" id="layout_time" width="203" x="591" xlink:href="SYSTEM.LIBRARY.ATVISE.OBJECTDISPLAYS.Advanced.layoutelements.time" y="-9">
  <atv:argument name="font_size" value="25"/>
 </svg>
 <svg atv:refpx="1172.5" atv:refpy="45" height="30" id="layout_date" width="203" x="591" xlink:href="SYSTEM.LIBRARY.ATVISE.OBJECTDISPLAYS.Advanced.layoutelements.date" y="26">
  <atv:argument name="font_size" value="12"/>
 </svg>
 <svg atv:refpx="972.67" atv:refpy="28.667" height="65" id="redu_info" transform="matrix(0.6667,0,0,0.6667,0,0)" width="185" x="1366.431" xlink:href="SYSTEM.LIBRARY.ATVISE.OBJECTDISPLAYS.Advanced.layoutelements.redu_info" y="8.999"/>
 <rect atv:refpx="400" atv:refpy="59.666" fill="$FONTCOLOR$" height="3.333" id="line_top" stroke="none" stroke-width="0" width="800" x="0" y="55.667"/>
 <svg atv:refpx="165.383" atv:refpy="975.137" height="43" id="button1" width="154" x="85" xlink:href="SYSTEM.LIBRARY.ATVISE.OBJECTDISPLAYS.Advanced.layoutelements.button_custom_small" y="969">
  <atv:argument name="target1" value="SYSTEM.LIBRARY.ATVISE.OBJECTDISPLAYS.Advanced.hmi.alarmlist_small_portrait"/>
  <atv:argument name="symbol1" value="SYSTEM.LIBRARY.ATVISE.OBJECTDISPLAYS.Symbols.20x20.alarm"/>
  <atv:argument name="contextmenu1" value="SYSTEM.GLOBALS.atvObjectDisplays.CustomButtonsMenu.LayoutButtonAlarmsPortrait"/>
  <atv:argument name="symbolScaling1" value="200"/>
 </svg>
 <svg atv:refpx="317.302" atv:refpy="985.137" height="43" id="button2" width="154" x="244" xlink:href="SYSTEM.LIBRARY.ATVISE.OBJECTDISPLAYS.Advanced.layoutelements.button_custom_small" y="969">
  <atv:overwrite id="custom_button" transform="matrix(2.9503,0,0,2.8477,0,0)" x="-0.682" y="-1.48"/>
  <atv:argument name="target1" value="SYSTEM.LIBRARY.ATVISE.OBJECTDISPLAYS.Advanced.hmi.historylist_small_portrait"/>
  <atv:argument name="symbol1" value="SYSTEM.LIBRARY.ATVISE.OBJECTDISPLAYS.Symbols.20x20.history"/>
 </svg>
 <svg atv:refpx="476.269" atv:refpy="980.137" height="43" id="button3" width="154" x="403" xlink:href="SYSTEM.LIBRARY.ATVISE.OBJECTDISPLAYS.Advanced.layoutelements.button_custom_small" y="969">
  <atv:argument name="target1" value="SYSTEM.LIBRARY.ATVISE.OBJECTDISPLAYS.Advanced.highcharts.main_display_small_portrait"/>
  <atv:argument name="symbol1" value="SYSTEM.LIBRARY.ATVISE.OBJECTDISPLAYS.Symbols.20x20.chart"/>
  <atv:argument name="target1_configName" value="Overview"/>
  <atv:argument name="symbolScaling1" value="120"/>
 </svg>
 <rect atv:refpx="400" atv:refpy="957.667" fill="$FONTCOLOR$" height="3.333" id="line_bottom" stroke="none" stroke-width="0" width="800" x="0" y="960"/>
 <svg atv:refpx="758.829" atv:refpy="990.531" height="30" id="button_navigation" transform="matrix(0.925,0,0,1.4333,0,0)" width="80" x="779.459" xlink:href="SYSTEM.LIBRARY.ATVISE.OBJECTDISPLAYS.Advanced.button" y="676.063">
  <atv:argument name="symbol" value="SYSTEM.LIBRARY.ATVISE.OBJECTDISPLAYS.Symbols.table.burger"/>
  <atv:argument name="visibilitySymbol" value="inherit"/>
  <atv:argument name="visibilityLabel" value="hidden"/>
  <atv:argument name="borderColor" value="SYSTEM.GLOBALS.atvBorderColor2"/>
  <atv:overwrite height="40.999" id="id_6" transform="matrix(1.0811,0,0,0.6977,0,0)" width="72"/>
  <atv:overwrite id="button_label_2" transform="matrix(1.0811,0,0,0.6977,0,0)" x="37" y="32.999"/>
  <atv:overwrite id="button_label_1" transform="matrix(1.0811,0,0,0.6977,0,0)" x="37" y="18"/>
  <atv:overwrite id="button_label" transform="matrix(1.0811,0,0,0.6977,0,0)" x="37" y="26"/>
  <atv:overwrite id="button_symbol" transform="matrix(1.0811,0,0,0.6977,0,0)" x="27" y="11.5"/>
  <atv:overwrite height="38.999" id="button_stroke" transform="matrix(1.0811,0,0,0.6977,0,0)" width="70"/>
  <atv:overwrite height="40.999" id="button_bg" transform="matrix(1.0811,0,0,0.6977,0,0)" width="72"/>
  <atv:overwrite height="42.999" id="outer_frame" transform="matrix(1.0811,0,0,0.6977,0,0)" width="74"/>
 </svg>
 <svg atv:refpx="638.243" atv:refpy="980.137" height="43" id="button4" width="154" x="562" xlink:href="SYSTEM.LIBRARY.ATVISE.OBJECTDISPLAYS.Advanced.layoutelements.button_custom_small" y="969"/>
 <svg atv:refpx="42" atv:refpy="990.5" height="43" id="button_favorites" width="74" x="5" xlink:href="SYSTEM.LIBRARY.ATVISE.OBJECTDISPLAYS.Advanced.layoutelements.button_favorites_small_half" y="969"/>
 <script atv:desc="" atv:href="SYSTEM.LIBRARY.ATVISE.DISPLAYSCRIPTS.layouts.Advanced" atv:name="Advanced" atv:type="text/ecmascript"><![CDATA[]]></script>
 <script atv:desc="" atv:name="" type="text/ecmascript"><![CDATA[]]></script>
</svg>
