<?xml version='1.0' encoding='iso-8859-1'?>
<!DOCTYPE svg PUBLIC '-//W3C//DTD SVG 1.1//EN' 'http://www.w3.org/Graphics/SVG/1.1/DTD/svg11.dtd'>
<!-- Uploaded to: SVG Repo, www.svgrepo.com, Generator: SVG Repo Mixer Tools -->
<svg fill="#000000" height="297" id="Capa_1" version="1.1" width="297" xml:space="preserve" xmlns="http://www.w3.org/2000/svg" xmlns:atv="http://webmi.atvise.com/2007/svgext" xmlns:xlink="http://www.w3.org/1999/xlink">
 <defs/>
 <metadata>
  <atv:gridconfig enabled="false" gridstyle="lines" height="20" width="20"/>
  <atv:snapconfig enabled="false" height="10" width="10"/>
 </metadata>
 <path atv:refpx="148.5" atv:refpy="148.5" d="M293.983,118.572C292.994,113.739 291.77,108.991 290.324,104.341C289.962,103.179 289.587,102.022 289.198,100.872C288.42,98.572 287.586,96.297 286.7,94.049C286.257,92.925 285.8,91.808 285.331,90.697C283.922,87.366 282.395,84.097 280.755,80.895C279.662,78.761 278.518,76.656 277.326,74.583C271.366,64.218 264.191,54.64 255.995,46.044C254.356,44.325 252.676,42.645 250.957,41.006C242.361,32.81 232.783,25.635 222.418,19.675C220.345,18.483 218.24,17.339 216.106,16.246C212.904,14.606 209.635,13.079 206.304,11.67C205.194,11.2 204.076,10.744 202.952,10.301C200.704,9.415 198.429,8.581 196.129,7.803C194.978,7.414 193.822,7.038 192.66,6.677C188.01,5.231 183.262,4.007 178.429,3.018C168.761,1.039 158.752,0 148.5,0C138.248,0 128.239,1.039 118.572,3.017C113.739,4.006 108.991,5.23 104.341,6.676C103.179,7.038 102.022,7.413 100.872,7.802C98.572,8.58 96.297,9.414 94.049,10.3C92.925,10.743 91.808,11.2 90.697,11.669C87.366,13.078 84.097,14.605 80.895,16.245C78.761,17.338 76.656,18.482 74.583,19.674C64.218,25.635 54.64,32.81 46.044,41.005C44.324,42.644 42.644,44.324 41.006,46.043C32.81,54.64 25.635,64.218 19.675,74.583C18.483,76.655 17.339,78.761 16.246,80.895C14.606,84.097 13.079,87.366 11.67,90.697C11.2,91.807 10.744,92.925 10.301,94.049C9.415,96.297 8.581,98.572 7.803,100.872C7.414,102.022 7.038,103.178 6.677,104.341C5.231,108.991 4.007,113.739 3.018,118.572C1.039,128.239 0,138.248 0,148.5C0,170.285 4.691,190.974 13.118,209.613C14.109,211.806 15.153,213.97 16.246,216.105C17.886,219.307 19.639,222.441 21.499,225.503C22.739,227.543 24.027,229.553 25.362,231.528C26.029,232.516 26.708,233.495 27.398,234.465C28.778,236.406 30.204,238.312 31.674,240.182C33.144,242.052 34.657,243.886 36.213,245.682C37.769,247.478 39.367,249.237 41.006,250.956C42.645,252.675 44.325,254.355 46.044,255.994C54.64,264.19 64.217,271.365 74.583,277.325C76.655,278.517 78.761,279.66 80.895,280.754C84.097,282.394 87.366,283.921 90.697,285.33C91.807,285.8 92.925,286.256 94.049,286.699C96.297,287.585 98.572,288.419 100.872,289.197C102.022,289.586 103.178,289.962 104.341,290.323C108.991,291.769 113.739,292.993 118.572,293.982C128.239,295.96 138.248,296.999 148.5,296.999C158.752,296.999 168.761,295.96 178.428,293.982C183.261,292.993 188.009,291.769 192.659,290.323C193.821,289.961 194.977,289.586 196.128,289.197C198.428,288.419 200.702,287.585 202.951,286.699C204.075,286.256 205.192,285.799 206.303,285.33C209.634,283.921 212.903,282.394 216.105,280.754C218.238,279.661 220.344,278.517 222.417,277.325C232.782,271.365 242.36,264.19 250.956,255.994C252.675,254.355 254.355,252.675 255.994,250.956C257.633,249.237 259.231,247.478 260.787,245.682C262.343,243.886 263.857,242.052 265.326,240.182C266.796,238.312 268.221,236.406 269.602,234.465C270.292,233.495 270.971,232.516 271.638,231.528C272.972,229.553 274.26,227.544 275.501,225.503C277.361,222.441 279.114,219.307 280.754,216.105C281.847,213.97 282.89,211.806 283.882,209.613C292.309,190.974 297,170.285 297,148.5C297,138.248 295.961,128.239 293.983,118.572M134.167,49.538C134.167,41.839 140.469,35.599 148.167,35.599C155.865,35.599 162.167,41.839 162.167,49.538L162.167,91.633C162.167,99.33 155.865,105.571 148.167,105.571C140.469,105.571 134.167,99.331 134.167,91.633ZM243.486,152.237C240.876,201.808 200.399,241.595 150.79,243.338C96.13,245.259 50.922,201.346 50.922,147.101C50.922,117.685 64.664,91.311 85.27,73.634C93.418,66.644 106.013,72.406 106.013,83.141C106.013,86.849 104.351,90.342 101.528,92.747C86.247,105.771 76.244,125.296 76.244,147.1C76.244,186.225 108.294,218.056 147.419,218.056C186.544,218.056 218.338,186.225 218.338,147.1C218.338,125.976 209.499,106.982 194.418,93.972C191.616,91.555 189.968,88.069 189.968,84.369C189.968,73.531 202.768,67.721 210.891,74.896C232.068,93.602 245.105,121.468 243.486,152.237" id="id_0"/>
</svg>
