<?xml version='1.0' encoding='UTF-8' standalone='no'?>
<svg enable-background="new 0 0 40 40" height="60" id="Ebene_1" version="1.1" width="60" x="0px" xml:space="preserve" y="0px" xmlns="http://www.w3.org/2000/svg" xmlns:atv="http://webmi.atvise.com/2007/svgext" xmlns:xlink="http://www.w3.org/1999/xlink">
 <defs/>
 <metadata>
  <atv:parameter behavior="optional" defaultvalue="#000000" desc="symbol color" name="symbolColor" substitute="$SYMBOLCOLOR$" valuetype="color"/>
  <atv:parameter behavior="optional" defaultvalue="#ffffff" desc="number color" name="numberColor" substitute="$NUMBERCOLOR$" valuetype="color"/>
  <atv:gridconfig enabled="false" gridstyle="lines" height="20" width="20"/>
  <atv:snapconfig enabled="false" height="10" width="10"/>
 </metadata>
 <g atv:refpx="30" atv:refpy="36" id="id_6" transform="matrix(1,0,0,1,-0.3198,-0.2401)">
  <path atv:refpx="23.582" atv:refpy="8.344" d="M17.221,8.345C17.221,4.679 15.599,1.708 13.602,1.708C11.6,1.708 9.981,4.679 9.981,8.345C9.981,12.01 11.6,14.979 13.602,14.979C14.066,14.979 14.511,14.819 14.917,14.527L14.401,13.376C14.148,13.512 13.877,13.585 13.602,13.585C12.022,13.585 10.741,11.237 10.741,8.343C10.741,5.448 12.02,3.1 13.602,3.1C15.18,3.1 16.46,5.448 16.46,8.343L17.221,8.343Z" fill="$SYMBOLCOLOR$" id="id_0" stroke-width="1"/>
  <path atv:refpx="40.941" atv:refpy="8.344" d="M25.9,8.345C25.9,4.679 24.279,1.708 22.28,1.708C20.281,1.708 18.66,4.679 18.66,8.345C18.66,12.008 20.281,14.98 22.28,14.98C22.746,14.98 23.189,14.819 23.597,14.527L23.081,13.377C22.827,13.512 22.557,13.585 22.28,13.585C20.702,13.585 19.421,11.237 19.421,8.343C19.421,5.448 20.702,3.102 22.28,3.102C23.858,3.102 25.139,5.448 25.139,8.343Z" fill="$SYMBOLCOLOR$" id="id_1" stroke-width="1"/>
  <path atv:refpx="57.962" atv:refpy="8.344" d="M34.409,8.345C34.409,4.679 32.79,1.708 30.791,1.708C28.792,1.708 27.171,4.679 27.171,8.345C27.171,12.008 28.792,14.98 30.791,14.98C31.255,14.98 31.7,14.819 32.107,14.527L31.592,13.377C31.338,13.513 31.068,13.587 30.791,13.587C29.213,13.587 27.932,11.239 27.932,8.347C27.932,5.45 29.213,3.105 30.791,3.105C32.369,3.105 33.65,5.45 33.65,8.347L34.409,8.347Z" fill="$SYMBOLCOLOR$" id="id_2" stroke-width="1"/>
  <path atv:refpx="75.446" atv:refpy="8.344" d="M43.153,8.345C43.153,4.679 41.532,1.708 39.533,1.708C37.534,1.708 35.912,4.679 35.912,8.345C35.912,12.008 37.534,14.98 39.533,14.98C39.998,14.98 40.442,14.819 40.85,14.527L40.334,13.377C40.079,13.512 39.812,13.585 39.533,13.585C37.955,13.585 36.674,11.237 36.674,8.343C36.674,5.448 37.957,3.102 39.533,3.102C41.112,3.102 42.393,5.448 42.393,8.343Z" fill="$SYMBOLCOLOR$" id="id_3" stroke-width="1"/>
  <path atv:refpx="92.847" atv:refpy="8.344" d="M51.853,8.343C51.853,4.679 50.231,1.707 48.233,1.707C46.234,1.707 44.612,4.677 44.612,8.343C44.612,12.007 46.233,14.979 48.233,14.979C48.698,14.979 49.144,14.818 49.549,14.525L49.034,13.377C48.781,13.512 48.51,13.585 48.233,13.585C46.654,13.585 45.374,11.237 45.374,8.345C45.374,5.45 46.654,3.103 48.233,3.103C49.812,3.103 51.09,5.45 51.09,8.345L51.853,8.345Z" fill="$SYMBOLCOLOR$" id="id_4" stroke-width="1"/>
  <path atv:refpx="30.319" atv:refpy="22.823" d="M58.931,19.061L58.931,16.014C58.931,12.065 55.729,8.861 51.778,8.861L46.078,8.861C46.144,10.477 46.433,11.653 47.004,12.293C47.24,12.204 47.49,12.149 47.756,12.149C48.944,12.149 49.904,13.11 49.904,14.295C49.904,15.481 48.944,16.441 47.756,16.441C46.574,16.441 45.612,15.479 45.612,14.295C45.612,14.155 45.627,14.022 45.652,13.889C44.756,12.798 44.141,10.976 44.018,8.861L37.398,8.861C37.467,10.499 37.761,11.68 38.349,12.317C38.604,12.212 38.883,12.151 39.177,12.151C40.361,12.151 41.323,13.111 41.323,14.297C41.323,15.483 40.361,16.443 39.177,16.443C37.991,16.443 37.031,15.481 37.031,14.297C37.031,14.187 37.048,14.083 37.06,13.978C36.12,12.9 35.468,11.04 35.34,8.861L28.7,8.861C28.768,10.533 29.075,11.733 29.688,12.357C29.965,12.229 30.268,12.149 30.594,12.149C31.781,12.149 32.74,13.11 32.74,14.295C32.74,15.481 31.781,16.441 30.594,16.441C29.41,16.441 28.448,15.479 28.448,14.295C28.448,14.223 28.462,14.155 28.47,14.086C27.472,13.03 26.772,11.12 26.639,8.861L20.22,8.861C20.287,10.501 20.583,11.686 21.174,12.32C21.431,12.212 21.712,12.151 22.009,12.151C23.195,12.151 24.156,13.111 24.156,14.297C24.156,15.483 23.195,16.443 22.009,16.443C20.824,16.443 19.863,15.481 19.863,14.297C19.863,14.192 19.879,14.09 19.895,13.989C18.948,12.913 18.291,11.048 18.161,8.861L11.523,8.861C11.589,10.536 11.898,11.736 12.516,12.362C12.793,12.231 13.1,12.151 13.427,12.151C14.612,12.151 15.573,13.111 15.573,14.297C15.573,15.483 14.612,16.443 13.427,16.443C12.242,16.443 11.28,15.483 11.28,14.297C11.28,14.228 11.295,14.162 11.301,14.095C10.298,13.041 9.596,11.126 9.463,8.861L8.861,8.861C4.911,8.861 1.707,12.065 1.707,16.014L1.707,19.06L58.931,19.06Z" fill="$SYMBOLCOLOR$" id="id_5"/>
  <path atv:refpx="30.319" atv:refpy="40.236" d="M1.706,21.54L1.706,51.779L2.267,54.562L3.802,56.835L6.075,58.37L8.86,58.931L51.778,58.931L54.561,58.37L56.835,56.835L58.37,54.562L58.931,51.779L58.931,21.54ZM19.878,24.74C22.618,24.74 24.817,25.613 26.472,27.361C27.835,28.79 28.517,30.404 28.517,32.204C28.517,34.76 27.12,36.799 24.327,38.322C25.995,38.679 27.326,39.48 28.319,40.724C29.325,41.968 29.827,43.471 29.827,45.232C29.827,47.787 28.895,49.965 27.028,51.765C25.162,53.565 22.838,54.466 20.058,54.466C17.423,54.466 15.239,53.712 13.505,52.202C11.771,50.68 10.763,48.695 10.485,46.245L15.888,45.589C16.059,46.966 16.524,48.019 17.278,48.747C18.033,49.476 18.946,49.839 20.019,49.839C21.17,49.839 22.136,49.402 22.917,48.529C23.711,47.655 24.108,46.476 24.108,44.994C24.108,43.59 23.732,42.478 22.978,41.658C22.223,40.837 21.301,40.427 20.216,40.427C19.501,40.427 18.648,40.565 17.655,40.843L18.27,36.296C19.78,36.336 20.931,36.012 21.726,35.324C22.52,34.622 22.917,33.694 22.917,32.542C22.917,31.563 22.626,30.783 22.044,30.201C21.461,29.618 20.686,29.326 19.72,29.326C18.767,29.326 17.953,29.658 17.278,30.32C16.603,30.982 16.19,31.947 16.046,33.218L10.903,32.345C11.261,30.584 11.796,29.18 12.511,28.134C13.239,27.075 14.246,26.247 15.53,25.652C16.828,25.043 18.276,24.74 19.878,24.74M43.054,24.74L47.581,24.74L47.581,53.97L42.001,53.97L42.001,32.941C39.962,34.847 37.559,36.256 34.792,37.169L34.792,32.107C36.248,31.63 37.83,30.729 39.538,29.406C41.246,28.069 42.418,26.514 43.054,24.74" fill="$SYMBOLCOLOR$" id="id_9"/>
 </g>
 <script atv:desc="" atv:name="" type="text/ecmascript"/>
</svg>
