<?xml version='1.0' encoding='UTF-8' standalone='no'?>
<svg height="890" version="1.2" width="960" xmlns="http://www.w3.org/2000/svg" xmlns:atv="http://webmi.atvise.com/2007/svgext" xmlns:xlink="http://www.w3.org/1999/xlink">
 <defs/>
 <metadata>
  <atv:gridconfig enabled="false" gridstyle="lines" height="20" width="20"/>
  <atv:snapconfig enabled="true" height="1" width="1"/>
 </metadata>
 <g atv:insensitive="true" atv:refpx="0" atv:refpy="0" id="id_32" transform="matrix(1.5484,0,0,2.225,0,0)">
  <rect atv:refpx="310" atv:refpy="200" fill="#ffffff" fill-opacity="0" height="400.00" id="id_33" width="620.00" x="0" y="0"/>
 </g>
 <script atv:desc="" atv:name="" type="text/ecmascript"/>
 <line atv:refpx="524.5" atv:refpy="239.492" fill="#000000" id="id_62" stroke="#000000" stroke-linecap="round" stroke-linejoin="round" stroke-width="1.549" x1="653.04" x2="793.938" y1="354.733" y2="354.733"/>
 <line atv:refpx="524.5" atv:refpy="239.492" fill="#000000" id="id_43" stroke="#000000" stroke-linecap="round" stroke-linejoin="round" stroke-width="1.549" x1="358.806" x2="499.704" y1="354.733" y2="354.733"/>
 <polygon atv:refpx="525" atv:refpy="197.596" fill="#000018" id="id_44" points="483.922,339.246 483.922,370.216 504.349,354.731 504.349,354.731" stroke="#000000" stroke-linecap="round" stroke-linejoin="round" stroke-opacity="0" stroke-width="3.12"/>
 <line atv:refpx="125.094" atv:refpy="-95.797" fill="#000000" id="id_54" stroke="#000000" stroke-linecap="round" stroke-linejoin="round" stroke-width="1.549" x1="163.683" x2="222.529" y1="354.733" y2="354.733"/>
 <polygon atv:refpx="132.904" atv:refpy="-3.297" fill="#000018" id="id_55" points="206.747,339.246 206.747,370.216 227.175,354.731 227.175,354.731" stroke="#000000" stroke-linecap="round" stroke-linejoin="round" stroke-opacity="0" stroke-width="3.12"/>
 <svg atv:refpx="45" atv:refpy="149.515" height="63.11" id="id_0" transform="matrix(1.1732,0,0,1.1383,0,0)" width="133" x="5.54" xlink:href="ObjectTypes.PROJECT.ElementoLinea.Principal" y="280.078">
  <atv:argument name="base" value="AGENT.OBJECTS.SCADA.Benito_Juarez.Circuitos.Circuito_CAP_001.Carcamo_001"/>
 </svg>
 <svg atv:refpx="187.623" atv:refpy="252.207" height="63.11" id="id_3" transform="matrix(1.1732,0,0,1.1383,0,0)" width="133" x="193.304" xlink:href="ObjectTypes.PROJECT.ElementoLinea.Principal" y="438.551">
  <atv:argument name="base" value="AGENT.OBJECTS.SCADA.Benito_Juarez.Circuitos.Circuito_CAP_001.Carcamo_Infonavit14"/>
 </svg>
 <svg atv:refpx="369.953" atv:refpy="149.516" height="63.11" id="id_4" transform="matrix(1.1732,0,0,1.1383,0,0)" width="133" x="429.2" xlink:href="ObjectTypes.PROJECT.ElementoLinea.Principal" y="280.078">
  <atv:argument name="base" value="AGENT.OBJECTS.SCADA.Benito_Juarez.Circuitos.Circuito_CAP_001.Carcamo_Uxmal"/>
 </svg>
 <svg atv:refpx="365.469" atv:refpy="302.207" height="63.11" id="id_5" transform="matrix(1.1732,0,0,1.1383,0,0)" width="133" x="429.381" xlink:href="ObjectTypes.PROJECT.ElementoLinea.Principal" y="501.127">
  <atv:argument name="base" value="AGENT.OBJECTS.SCADA.Benito_Juarez.Circuitos.Circuito_CAP_001.Carcamo_H23"/>
 </svg>
 <svg atv:refpx="370.339" atv:refpy="22.994" height="63.11" id="id_15" transform="matrix(1.1644,0,0,1.1287,0,0)" width="133" x="432.958" xlink:href="ObjectTypes.PROJECT.ElementoLinea.Principal" y="125.365">
  <atv:argument name="base" value="AGENT.OBJECTS.SCADA.Benito_Juarez.Circuitos.Circuito_CAP_011.Carcamo_Aeropuerto_ZU"/>
 </svg>
 <svg atv:refpx="561.488" atv:refpy="143.699" height="63.11" id="id_28" transform="matrix(1.1644,0,0,1.1287,0,0)" width="133" x="685.86" xlink:href="ObjectTypes.PROJECT.ElementoLinea.Principal" y="284.1">
  <atv:argument name="base" value="AGENT.OBJECTS.SCADA.Benito_Juarez.Circuitos.Circuito_CAP_008.Carcamo_PJ"/>
 </svg>
 <svg atv:refpx="187.246" atv:refpy="149.516" height="63.11" id="id_1" transform="matrix(1.1732,0,0,1.1383,0,0)" width="133" x="193.304" xlink:href="ObjectTypes.PROJECT.ElementoLinea.Principal" y="280.078">
  <atv:argument name="base" value="AGENT.OBJECTS.SCADA.Benito_Juarez.Circuitos.Circuito_CAP_001.Carcamo_002"/>
 </svg>
 <polygon atv:refpx="525" atv:refpy="197.596" fill="#000018" id="id_63" points="778.156,339.246 778.156,370.216 798.583,354.731 798.583,354.731" stroke="#000000" stroke-linecap="round" stroke-linejoin="round" stroke-opacity="0" stroke-width="3.12"/>
 <line atv:refpx="193.13" atv:refpy="201" id="id_2" stroke="#000000" stroke-width="3.097" x1="304.807" x2="304.807" y1="426.424" y2="479.073"/>
 <polygon atv:refpx="192.63" atv:refpy="224.596" fill="#000018" id="id_6" points="320.292,479.072 289.32,479.072 304.806,499.499 304.806,499.499" stroke="#000000" stroke-linecap="round" stroke-linejoin="round" stroke-opacity="0" stroke-width="3.12"/>
 <line atv:refpx="375.844" atv:refpy="251" id="id_7" stroke="#000000" stroke-width="3.097" x1="581.565" x2="581.565" y1="497.655" y2="550.304"/>
 <polygon atv:refpx="375.344" atv:refpy="274.596" fill="#000018" id="id_8" points="597.05,550.303 566.078,550.303 581.564,570.73 581.564,570.73" stroke="#000000" stroke-linecap="round" stroke-linejoin="round" stroke-opacity="0" stroke-width="3.12"/>
 <line atv:refpx="375.844" atv:refpy="86" id="id_9" stroke="#000000" stroke-width="3.097" x1="581.565" x2="581.565" y1="248.346" y2="300.995"/>
 <polygon atv:refpx="375.344" atv:refpy="109.596" fill="#000018" id="id_10" points="597.05,300.995 566.078,300.995 581.564,321.421 581.564,321.421" stroke="#000000" stroke-linecap="round" stroke-linejoin="round" stroke-opacity="0" stroke-width="3.12"/>
 <svg atv:refpx="50" atv:refpy="174.5" height="23" id="id_29" transform="matrix(1.5486,0,0,1.5485,0,0)" width="100" x="4.197" xlink:href="ObjectTypes.PROJECT.Caudalimetro.line_mini" y="251.379">
  <atv:argument name="base" value="AGENT.OBJECTS.SCADA.Benito_Juarez.Circuitos.Circuito_CAP_001.Carcamo_001.Equipos.Caudalimetro.L1"/>
 </svg>
 <svg atv:refpx="192.63" atv:refpy="173.5" height="23" id="id_13" transform="matrix(1.5486,0,0,1.5485,0,0)" width="100" x="146.827" xlink:href="ObjectTypes.PROJECT.Caudalimetro.line_mini" y="251.379">
  <atv:argument name="base" value="AGENT.OBJECTS.SCADA.Benito_Juarez.Circuitos.Circuito_CAP_001.Carcamo_002.Equipos.Caudalimetro.L1"/>
 </svg>
 <svg atv:refpx="375.345" atv:refpy="175.5" height="23" id="id_14" transform="matrix(1.5486,0,0,1.5485,0,0)" width="100" x="325.542" xlink:href="ObjectTypes.PROJECT.Caudalimetro.line_mini" y="251.379">
  <atv:argument name="base" value="AGENT.OBJECTS.SCADA.Benito_Juarez.Circuitos.Circuito_CAP_001.Carcamo_Uxmal.Equipos.Caudalimetro.L_63"/>
 </svg>
 <svg atv:refpx="375.345" atv:refpy="198.5" height="23" id="id_16" transform="matrix(1.5486,0,0,1.5485,0,0)" width="100" x="325.542" xlink:href="ObjectTypes.PROJECT.Caudalimetro.line_mini" y="274.379">
  <atv:argument name="base" value="AGENT.OBJECTS.SCADA.Benito_Juarez.Circuitos.Circuito_CAP_001.Carcamo_Uxmal.Equipos.Caudalimetro.L_29"/>
 </svg>
 <svg atv:refpx="375.345" atv:refpy="220.5" height="23" id="id_17" transform="matrix(1.5486,0,0,1.5485,0,0)" width="100" x="325.542" xlink:href="ObjectTypes.PROJECT.Caudalimetro.line_mini" y="296.379">
  <atv:argument name="base" value="AGENT.OBJECTS.SCADA.Benito_Juarez.Circuitos.Circuito_CAP_001.Carcamo_Uxmal.Equipos.Caudalimetro.L_08"/>
 </svg>
 <svg atv:refpx="565.503" atv:refpy="204.5" height="23" id="id_18" transform="matrix(1.5486,0,0,1.5485,0,0)" width="100" x="515.7" xlink:href="ObjectTypes.PROJECT.Caudalimetro.line_mini" y="276.379">
  <atv:argument name="base" value="AGENT.OBJECTS.SCADA.Benito_Juarez.Circuitos.Circuito_CAP_008.Carcamo_PJ.Equipos.Caudalimetro.L_2KP"/>
 </svg>
 <svg atv:refpx="565.503" atv:refpy="326.5" height="23" id="id_19" transform="matrix(1.5486,0,0,1.5485,0,0)" width="100" x="515.7" xlink:href="ObjectTypes.PROJECT.Caudalimetro.line_mini" y="391.379">
  <atv:argument name="base" value="AGENT.OBJECTS.SCADA.Benito_Juarez.Circuitos.Circuito_CAP_008.Carcamo_PJ.Equipos.Caudalimetro.L_64"/>
 </svg>
 <svg atv:refpx="565.503" atv:refpy="228.5" height="23" id="id_20" transform="matrix(1.5486,0,0,1.5485,0,0)" width="100" x="515.7" xlink:href="ObjectTypes.PROJECT.Caudalimetro.line_mini" y="299.379">
  <atv:argument name="base" value="AGENT.OBJECTS.SCADA.Benito_Juarez.Circuitos.Circuito_CAP_008.Carcamo_PJ.Equipos.Caudalimetro.L_90"/>
 </svg>
 <svg atv:refpx="565.503" atv:refpy="278.5" height="23" id="id_21" transform="matrix(1.5486,0,0,1.5485,0,0)" width="100" x="515.7" xlink:href="ObjectTypes.PROJECT.Caudalimetro.line_mini" y="345.379">
  <atv:argument name="base" value="AGENT.OBJECTS.SCADA.Benito_Juarez.Circuitos.Circuito_CAP_008.Carcamo_PJ.Equipos.Caudalimetro.L_CROC"/>
 </svg>
 <svg atv:refpx="565.503" atv:refpy="252.5" height="23" id="id_22" transform="matrix(1.5486,0,0,1.5485,0,0)" width="100" x="515.7" xlink:href="ObjectTypes.PROJECT.Caudalimetro.line_mini" y="322.379">
  <atv:argument name="base" value="AGENT.OBJECTS.SCADA.Benito_Juarez.Circuitos.Circuito_CAP_008.Carcamo_PJ.Equipos.Caudalimetro.L_TABACHINES"/>
 </svg>
 <svg atv:refpx="565.503" atv:refpy="180.5" height="23" id="id_23" transform="matrix(1.5486,0,0,1.5485,0,0)" width="100" x="515.7" xlink:href="ObjectTypes.PROJECT.Caudalimetro.line_mini" y="253.379">
  <atv:argument name="base" value="AGENT.OBJECTS.SCADA.Benito_Juarez.Circuitos.Circuito_CAP_008.Carcamo_PJ.Equipos.Caudalimetro.L_TURISTICO"/>
 </svg>
 <svg atv:refpx="565.503" atv:refpy="301.5" height="23" id="id_24" transform="matrix(1.5486,0,0,1.5485,0,0)" width="100" x="515.7" xlink:href="ObjectTypes.PROJECT.Caudalimetro.line_mini" y="368.379">
  <atv:argument name="base" value="AGENT.OBJECTS.SCADA.Benito_Juarez.Circuitos.Circuito_CAP_008.Carcamo_PJ.Equipos.Caudalimetro.L_UXMAL"/>
 </svg>
 <svg atv:refpx="375.345" atv:refpy="59.5" height="23" id="id_25" transform="matrix(1.5486,0,0,1.5485,0,0)" width="100" x="325.542" xlink:href="ObjectTypes.PROJECT.Caudalimetro.line_mini" y="137.379">
  <atv:argument name="base" value="AGENT.OBJECTS.SCADA.Benito_Juarez.Circuitos.Circuito_CAP_011.Carcamo_Aeropuerto_ZU.Equipos.Caudalimetro.L1"/>
 </svg>
 <svg atv:refpx="371.482" atv:refpy="336.5" height="23" id="id_26" transform="matrix(1.5486,0,0,1.5485,0,0)" width="100" x="325.679" xlink:href="ObjectTypes.PROJECT.Caudalimetro.line_mini" y="414.379">
  <atv:argument name="base" value="AGENT.OBJECTS.SCADA.Benito_Juarez.Circuitos.Circuito_CAP_001.Carcamo_H23.Equipos.Caudalimetro.L1"/>
 </svg>
 <svg atv:refpx="192.63" atv:refpy="291.5" height="23" id="id_27" transform="matrix(1.5486,0,0,1.5485,0,0)" width="100" x="146.827" xlink:href="ObjectTypes.PROJECT.Caudalimetro.line_mini" y="369.379">
  <atv:argument name="base" value="AGENT.OBJECTS.SCADA.Benito_Juarez.Circuitos.Circuito_CAP_001.Carcamo_Infonavit14.Equipos.Caudalimetro.L1"/>
 </svg>
 <svg atv:refpx="371.482" atv:refpy="364.5" height="23" id="id_30" transform="matrix(1.5486,0,0,1.5485,0,0)" width="100" x="325.679" xlink:href="ObjectTypes.PROJECT.Caudalimetro.line_mini" y="437.379">
  <atv:argument name="base" value="AGENT.OBJECTS.SCADA.Benito_Juarez.Circuitos.Circuito_CAP_001.Carcamo_H23.Equipos.Caudalimetro.L2"/>
 </svg>
 <svg atv:refpx="371.482" atv:refpy="387.5" height="23" id="id_31" transform="matrix(1.5486,0,0,1.5485,0,0)" width="100" x="325.679" xlink:href="ObjectTypes.PROJECT.Caudalimetro.line_mini" y="460.379">
  <atv:argument name="base" value="AGENT.OBJECTS.SCADA.Benito_Juarez.Circuitos.Circuito_CAP_001.Carcamo_H23.Equipos.Caudalimetro.L3"/>
 </svg>
</svg>
