<?xml version='1.0' encoding='UTF-8' standalone='no'?>
<svg height="600" version="1.2" width="900" xmlns="http://www.w3.org/2000/svg" xmlns:atv="http://webmi.atvise.com/2007/svgext" xmlns:xlink="http://www.w3.org/1999/xlink">
 <desc>Edit configurations for reports.</desc>
 <title>Report Editor</title>
 <defs/>
 <metadata>
  <atv:parameter behavior="optional" defaultvalue="T{Edit report}" desc="headline" name="headline" substitute="$HEADLINE$" valuetype="trstring"/>
  <atv:parameter behavior="optional" defaultvalue="SYSTEM.LIBRARY.ATVISE.OBJECTDISPLAYS.Symbols.20x20.folder_report" desc="symbol" name="symbol" substitute="$SYMBOL$" valuetype="display"/>
  <atv:parameter behavior="optional" defaultvalue="SYSTEM.GLOBALS.atvFontColor" desc="font color" name="fontColor" substitute="$FONTCOLOR$" valuetype="global"/>
  <atv:parameter behavior="optional" defaultvalue="SYSTEM.GLOBALS.atvFillColor" desc="fill color" name="fillColor" substitute="$FILLCOLOR$" valuetype="global"/>
  <atv:parameter behavior="optional" defaultvalue="SYSTEM.GLOBALS.atvSymbolColor" desc="symbol color" name="symbolColor" substitute="$SYMBOLCOLOR$" valuetype="global"/>
  <atv:gridconfig enabled="true" gridstyle="lines" height="5" width="5"/>
  <atv:snapconfig enabled="true" height="5" width="5"/>
 </metadata>
 <script atv:desc="" atv:href="SYSTEM.LIBRARY.ATVISE.DISPLAYSCRIPTS.report.edit_dialog" atv:name="Edit dialog" atv:type="text/ecmascript"/>
 <script atv:desc="" atv:name="" type="text/ecmascript"/>
 <rect atv:refpx="450" atv:refpy="300" fill="$FILLCOLOR$" height="600" id="background" stroke="none" stroke-width="0" width="900" x="0" y="0"/>
 <svg atv:dynamic="true" atv:refpx="395" atv:refpy="570" height="30" id="save_button" transform="matrix(1.25,0,0,1,0,0)" width="80" x="276" xlink:href="SYSTEM.LIBRARY.ATVISE.OBJECTDISPLAYS.Advanced.button" y="555">
  <atv:argument name="label" value="T{Save}"/>
  <atv:argument name="tabIndex" value="70"/>
  <atv:argument name="borderVisible" value="true"/>
  <atv:argument name="extraBorderColor" value="#ffffff"/>
  <atv:argument name="fontSize" value="14"/>
  <atv:overwrite id="id_6" transform="matrix(0.8,0,0,1,0,0)" width="98"/>
  <atv:overwrite id="button_label_2" transform="matrix(0.8,0,0,1,0,0)" x="50"/>
  <atv:overwrite id="button_label_1" transform="matrix(0.8,0,0,1,0,0)" x="50"/>
  <atv:overwrite id="button_label" transform="matrix(0.8,0,0,1,0,0)" x="50"/>
  <atv:overwrite id="button_symbol_bottom" transform="matrix(0.48,0,0,0.6,0,0)" x="73.167"/>
  <atv:overwrite id="button_symbol_top" transform="matrix(0.48,0,0,0.6,0,0)" x="73.167"/>
  <atv:overwrite id="button_symbol" transform="matrix(0.8,0,0,1,0,0)" x="40"/>
  <atv:overwrite id="button_stroke" transform="matrix(0.8,0,0,1,0,0)" width="96"/>
  <atv:overwrite id="button_bg" transform="matrix(0.8,0,0,1,0,0)" width="98"/>
  <atv:overwrite id="outer_frame" transform="matrix(0.8,0,0,1,0,0)" width="100"/>
 </svg>
 <svg atv:dynamic="true" atv:refpx="507.5" atv:refpy="564" height="30" id="cancel_button" transform="matrix(1.25,0,0,1,0,0)" width="80" x="364" xlink:href="SYSTEM.LIBRARY.ATVISE.OBJECTDISPLAYS.Advanced.button" y="555">
  <atv:argument name="label" value="T{Cancel}"/>
  <atv:argument name="tabIndex" value="71"/>
  <atv:argument name="borderVisible" value="true"/>
  <atv:argument name="extraBorderColor" value="#ffffff"/>
  <atv:argument name="fontSize" value="14"/>
  <atv:overwrite id="id_6" transform="matrix(0.8,0,0,1,0,0)" width="98"/>
  <atv:overwrite id="button_label_2" transform="matrix(0.8,0,0,1,0,0)" x="50"/>
  <atv:overwrite id="button_label_1" transform="matrix(0.8,0,0,1,0,0)" x="50"/>
  <atv:overwrite id="button_label" transform="matrix(0.8,0,0,1,0,0)" x="50"/>
  <atv:overwrite id="button_symbol_bottom" transform="matrix(0.48,0,0,0.6,0,0)" x="73.167"/>
  <atv:overwrite id="button_symbol_top" transform="matrix(0.48,0,0,0.6,0,0)" x="73.167"/>
  <atv:overwrite id="button_symbol" transform="matrix(0.8,0,0,1,0,0)" x="40"/>
  <atv:overwrite id="button_stroke" transform="matrix(0.8,0,0,1,0,0)" width="96"/>
  <atv:overwrite id="button_bg" transform="matrix(0.8,0,0,1,0,0)" width="98"/>
  <atv:overwrite id="outer_frame" transform="matrix(0.8,0,0,1,0,0)" width="100"/>
 </svg>
 <rect atv:refpx="232.5" atv:refpy="190" fill="#ffffff" height="220" id="general_background" rx="10" ry="10" stroke="none" stroke-width="0" width="425" x="20" y="80"/>
 <rect atv:refpx="232.5" atv:refpy="365" fill="#ffffff" height="110" id="id_12" rx="10" ry="10" stroke="none" stroke-width="0" width="425" x="20" y="310"/>
 <text atv:refpx="60.247" atv:refpy="360.5" fill="$FONTCOLOR$" font-family="Arial" font-size="16" id="metascript_label" x="34" y="366.5">T{Script}</text>
 <text atv:refpx="472" atv:refpy="537.5" fill="#ff0004" font-family="Arial" font-size="14" id="message" text-anchor="middle" x="450" y="542">&lt;errormessage></text>
 <rect atv:refpx="450" atv:refpy="45" fill="#ffffff" height="50" id="name_background" rx="10" ry="10" stroke="none" stroke-width="0" width="860" x="20" y="20"/>
 <svg atv:refpx="285.473" atv:refpy="135" height="30" id="template_input" transform="matrix(1.8125,0,0,1,0,0)" width="160" x="77.517" xlink:href="SYSTEM.LIBRARY.ATVISE.OBJECTDISPLAYS.Advanced.in_out_value" y="120">
  <atv:argument name="validation" value="String"/>
  <atv:argument name="allowDirectInput" value="Yes"/>
  <atv:argument name="tabIndex" value="31"/>
  <atv:overwrite id="id_2" transform="matrix(0.8889,0,0,1,0,0)" width="174.5"/>
  <atv:argument name="tooltip" value="T{Examples: 'C:/project/template.xlsx', 'C:\project\template.xlsx' or './template.xlsx'}"/>
  <atv:overwrite id="id_0" transform="matrix(0.5517,0,0,1,0,0)" width="290"/>
  <atv:overwrite id="input_label" transform="matrix(0.5517,0,0,1,0,0)" x="282.055"/>
  <atv:overwrite id="blinking_frame" transform="matrix(0.5517,0,0,1,0,0)" width="282"/>
  <atv:overwrite id="focus_frame" transform="matrix(0.5517,0,0,1,0,0)" width="286"/>
  <atv:overwrite id="input_bg" transform="matrix(0.5517,0,0,1,0,0)" width="282"/>
  <atv:overwrite id="id_1" transform="matrix(0.5517,0,0,1,0,0)" width="288"/>
  <atv:overwrite id="input_border" transform="matrix(0.5517,0,0,1,0,0)" width="290"/>
 </svg>
 <svg atv:refpx="285.982" atv:refpy="170" height="30" id="xlsx_input" transform="matrix(1.8124,0,0,1,0,0)" width="160" x="77.809" xlink:href="SYSTEM.LIBRARY.ATVISE.OBJECTDISPLAYS.Advanced.in_out_value" y="155">
  <atv:argument name="validation" value="String"/>
  <atv:argument name="allowDirectInput" value="Yes"/>
  <atv:argument name="tabIndex" value="33"/>
  <atv:overwrite id="id_2" transform="matrix(0.8889,0,0,1,0,0)" width="174.5"/>
  <atv:overwrite id="id_0" transform="matrix(0.5518,0,0,1,0,0)" width="289.984"/>
  <atv:overwrite id="input_label" transform="matrix(0.5518,0,0,1,0,0)" x="282.039"/>
  <atv:overwrite id="blinking_frame" transform="matrix(0.5518,0,0,1,0,0)" width="281.984"/>
  <atv:overwrite id="focus_frame" transform="matrix(0.5518,0,0,1,0,0)" width="285.984"/>
  <atv:overwrite id="input_bg" transform="matrix(0.5518,0,0,1,0,0)" width="281.984"/>
  <atv:overwrite id="id_1" transform="matrix(0.5518,0,0,1,0,0)" width="287.984"/>
  <atv:overwrite id="input_border" transform="matrix(0.5518,0,0,1,0,0)" width="289.984"/>
 </svg>
 <svg atv:refpx="285.981" atv:refpy="205" height="30" id="pdf_input" transform="matrix(1.8124,0,0,1,0,0)" width="160" x="77.809" xlink:href="SYSTEM.LIBRARY.ATVISE.OBJECTDISPLAYS.Advanced.in_out_value" y="190">
  <atv:argument name="validation" value="String"/>
  <atv:argument name="allowDirectInput" value="Yes"/>
  <atv:argument name="tabIndex" value="34"/>
  <atv:overwrite id="id_2" transform="matrix(0.8889,0,0,1,0,0)" width="174.5"/>
  <atv:overwrite id="id_0" transform="matrix(0.5518,0,0,1,0,0)" width="289.984"/>
  <atv:overwrite id="input_label" transform="matrix(0.5518,0,0,1,0,0)" x="282.039"/>
  <atv:overwrite id="blinking_frame" transform="matrix(0.5518,0,0,1,0,0)" width="281.984"/>
  <atv:overwrite id="focus_frame" transform="matrix(0.5518,0,0,1,0,0)" width="285.984"/>
  <atv:overwrite id="input_bg" transform="matrix(0.5518,0,0,1,0,0)" width="281.984"/>
  <atv:overwrite id="id_1" transform="matrix(0.5518,0,0,1,0,0)" width="287.984"/>
  <atv:overwrite id="input_border" transform="matrix(0.5518,0,0,1,0,0)" width="289.984"/>
 </svg>
 <text atv:refpx="285.045" atv:refpy="87" fill="$FONTCOLOR$" font-family="Arial" font-size="16" id="template_label" x="34.5" y="141.5">T{Template}*</text>
 <text atv:refpx="151.446" atv:refpy="227" fill="$FONTCOLOR$" font-family="Arial" font-size="16" id="locale_label" x="34.5" y="281.5">T{Language}</text>
 <text atv:refpx="302.515" atv:refpy="122" fill="$FONTCOLOR$" font-family="Arial" font-size="16" id="xlsx_label" x="35" y="176.5">T{XLSX rep.}*</text>
 <text atv:refpx="288.373" atv:refpy="157" fill="$FONTCOLOR$" font-family="Arial" font-size="16" id="pdf_label" x="35" y="211.5">T{PDF rep.}</text>
 <text atv:refpx="85.5" atv:refpy="239.5" fill="$FONTCOLOR$" font-family="Arial" font-size="16" id="worksheet_label" x="34.5" y="245.5">T{Worksheets}</text>
 <text atv:refpx="425.115" atv:refpy="191" fill="$FONTCOLOR$" font-family="Arial" font-size="16" id="id_39" text-anchor="middle" x="325" y="245.5">T{To}</text>
 <svg atv:refpx="284.993" atv:refpy="360" height="30" id="metascript_input" transform="matrix(1.8125,0,0,1,0,0)" width="160" x="77.241" xlink:href="SYSTEM.LIBRARY.ATVISE.OBJECTDISPLAYS.Advanced.in_out_value" y="345">
  <atv:argument name="validation" value="String"/>
  <atv:argument name="allowDirectInput" value="Yes"/>
  <atv:argument name="tabIndex" value="39"/>
  <atv:overwrite id="id_2" transform="matrix(0.8889,0,0,1,0,0)" width="174.5"/>
  <atv:overwrite id="id_0" transform="matrix(0.5517,0,0,1,0,0)" width="290"/>
  <atv:overwrite id="input_label" transform="matrix(0.5517,0,0,1,0,0)" x="282.055"/>
  <atv:overwrite id="blinking_frame" transform="matrix(0.5517,0,0,1,0,0)" width="282"/>
  <atv:overwrite id="focus_frame" transform="matrix(0.5517,0,0,1,0,0)" width="286"/>
  <atv:overwrite id="input_bg" transform="matrix(0.5517,0,0,1,0,0)" width="282"/>
  <atv:overwrite id="id_1" transform="matrix(0.5517,0,0,1,0,0)" width="288"/>
  <atv:overwrite id="input_border" transform="matrix(0.5517,0,0,1,0,0)" width="290"/>
 </svg>
 <svg atv:refpx="284.974" atv:refpy="45" height="30" id="configuration_input" transform="matrix(1.8125,0,0,1,0,0)" width="160" x="77.241" xlink:href="SYSTEM.LIBRARY.ATVISE.OBJECTDISPLAYS.Advanced.in_out_value" y="30">
  <atv:argument name="validation" value="String"/>
  <atv:argument name="allowDirectInput" value="Yes"/>
  <atv:argument name="tabIndex" value="1"/>
  <atv:overwrite id="id_2" transform="matrix(0.8889,0,0,1,0,0)" width="174.5"/>
  <atv:overwrite id="id_0" transform="matrix(0.5517,0,0,1,0,0)" width="290"/>
  <atv:overwrite id="input_label" transform="matrix(0.5517,0,0,1,0,0)" x="282.055"/>
  <atv:overwrite id="blinking_frame" transform="matrix(0.5517,0,0,1,0,0)" width="282"/>
  <atv:overwrite id="focus_frame" transform="matrix(0.5517,0,0,1,0,0)" width="286"/>
  <atv:overwrite id="input_bg" transform="matrix(0.5517,0,0,1,0,0)" width="282"/>
  <atv:overwrite id="id_1" transform="matrix(0.5517,0,0,1,0,0)" width="288"/>
 </svg>
 <svg atv:refpx="284.975" atv:refpy="275" height="30" id="locale_input" transform="matrix(1.8125,0,0,1,0,0)" width="160" x="77.241" xlink:href="SYSTEM.LIBRARY.ATVISE.OBJECTDISPLAYS.Advanced.in_out_value" y="260">
  <atv:argument name="validation" value="String"/>
  <atv:argument name="allowDirectInput" value="Yes"/>
  <atv:argument name="tabIndex" value="38"/>
  <atv:overwrite id="id_2" transform="matrix(0.8889,0,0,1,0,0)" width="174.5"/>
  <atv:overwrite id="id_0" transform="matrix(0.5517,0,0,1,0,0)" width="290"/>
  <atv:overwrite id="input_label" transform="matrix(0.5517,0,0,1,0,0)" x="282.055"/>
  <atv:overwrite id="blinking_frame" transform="matrix(0.5517,0,0,1,0,0)" width="282"/>
  <atv:overwrite id="focus_frame" transform="matrix(0.5517,0,0,1,0,0)" width="286"/>
  <atv:overwrite id="input_bg" transform="matrix(0.5517,0,0,1,0,0)" width="282"/>
  <atv:overwrite id="id_1" transform="matrix(0.5517,0,0,1,0,0)" width="288"/>
  <atv:overwrite id="input_border" transform="matrix(0.5517,0,0,1,0,0)" width="290"/>
 </svg>
 <rect atv:refpx="667.5" atv:refpy="250" fill="#ffffff" height="340" id="schedule_background" rx="10" ry="10" stroke="none" stroke-width="0" width="425" x="455" y="80"/>
 <text atv:refpx="364" atv:refpy="96.5" fill="$FONTCOLOR$" font-family="Arial" font-size="12" id="id_3" text-anchor="end" x="430.5" y="101">* T{mandatory field}</text>
 <svg atv:refpx="387.927" atv:refpy="240" height="30" id="ws_end_input" transform="matrix(0.5313,0,0,1,0,0)" width="160" x="650.292" xlink:href="SYSTEM.LIBRARY.ATVISE.OBJECTDISPLAYS.Advanced.picker_value" y="225">
  <atv:argument name="tabIndex" value="37"/>
  <atv:argument name="min" value="0"/>
  <atv:argument name="tooltip" value="T{Worksheet selection for PDF reports}"/>
  <atv:overwrite id="focus_frame" transform="matrix(1.8822,0,0,1,0,0)" width="81.008"/>
  <atv:overwrite id="clickarea_dec" transform="matrix(1.8822,0,0,1,-141.1481,0)"/>
  <atv:overwrite id="clickarea_inc" transform="matrix(1.8822,0,0,1,-141.1481,0)"/>
  <atv:overwrite id="input_label" transform="matrix(1.8822,0,0,1,0,0)" x="50.508"/>
  <atv:overwrite id="blinking_frame" transform="matrix(1.8822,0,0,1,0,0)" width="53.008"/>
  <atv:overwrite id="input_bg" transform="matrix(1.8822,0,0,1,0,0)" width="53.008"/>
  <atv:overwrite id="id_0" transform="matrix(1.8822,0,0,1,0,0)" width="83.008"/>
  <atv:overwrite id="bg" transform="matrix(1.8822,0,0,1,0,0)" width="85.008"/>
 </svg>
 <svg atv:refpx="263" atv:refpy="240" height="30" id="ws_start_input" transform="matrix(0.5313,0,0,1,0,0)" width="160" x="415.02" xlink:href="SYSTEM.LIBRARY.ATVISE.OBJECTDISPLAYS.Advanced.picker_value" y="225">
  <atv:argument name="min" value="0"/>
  <atv:argument name="tabIndex" value="36"/>
  <atv:argument name="tooltip" value="T{Worksheet selection for PDF reports}"/>
  <atv:overwrite id="focus_frame" transform="matrix(1.8822,0,0,1,0,0)" width="81.008"/>
  <atv:overwrite id="clickarea_dec" transform="matrix(1.8822,0,0,1,-141.1481,0)"/>
  <atv:overwrite id="clickarea_inc" transform="matrix(1.8822,0,0,1,-141.1481,0)"/>
  <atv:overwrite id="input_label" transform="matrix(1.8822,0,0,1,0,0)" x="50.508"/>
  <atv:overwrite id="blinking_frame" transform="matrix(1.8822,0,0,1,0,0)" width="53.008"/>
  <atv:overwrite id="input_bg" transform="matrix(1.8822,0,0,1,0,0)" width="53.008"/>
  <atv:overwrite id="id_0" transform="matrix(1.8822,0,0,1,0,0)" width="83.008"/>
  <atv:overwrite id="bg" transform="matrix(1.8822,0,0,1,0,0)" width="85.008"/>
 </svg>
 <svg atv:refpx="173" atv:refpy="240" height="30" id="ws_all_input" transform="matrix(0.4063,0,0,1,0,0)" width="160" x="345.846" xlink:href="SYSTEM.LIBRARY.ATVISE.OBJECTDISPLAYS.Advanced.checkbox" y="225">
  <atv:argument name="label" value="T{All}"/>
  <atv:argument name="tabIndex" value="35"/>
  <atv:argument name="valueOn" value="true"/>
  <atv:argument name="outputValueOn" value="true"/>
  <atv:argument name="outputValueOff" value="false"/>
  <atv:argument name="fontSize" value="16"/>
  <atv:argument name="tooltip" value="T{Worksheet selection for PDF reports}"/>
  <atv:overwrite id="checkbox_item" transform="matrix(2.4612,0,0,1,0,0)"/>
  <atv:overwrite id="checkbox_symbol" transform="matrix(2.4612,0,0,1,0,0)"/>
  <atv:overwrite id="blinking_frame" transform="matrix(2.4612,0,0,1,0,0)"/>
  <atv:overwrite id="focus_frame" transform="matrix(2.4612,0,0,1,0,0)"/>
  <atv:overwrite id="checkbox_bg" transform="matrix(2.4612,0,0,1,0,0)"/>
  <atv:overwrite id="checkbox_frame" transform="matrix(2.4612,0,0,1,0,0)"/>
  <atv:overwrite id="checkbox_stroke" transform="matrix(2.4612,0,0,1,0,0)"/>
 </svg>
 <text atv:refpx="65.06" atv:refpy="45.5" fill="$FONTCOLOR$" font-family="Arial" font-size="16" id="id_6" text-anchor="start" x="34" y="51.5">T{Name}</text>
 <svg atv:refpx="694.98" atv:refpy="45" height="30" id="group_input" transform="matrix(1.5,0,0,1,0,0)" width="160" x="383.333" xlink:href="SYSTEM.LIBRARY.ATVISE.OBJECTDISPLAYS.Advanced.picker_address" y="30">
  <atv:argument name="showDisplays" value="No"/>
  <atv:argument name="showVariableTypes" value="No"/>
  <atv:argument name="base" value="AGENT.OBJECTS.ATVISE.Report"/>
  <atv:argument name="showArchives" value="No"/>
  <atv:argument name="showAlarms" value="No"/>
  <atv:argument name="showBaseVariables" value="No"/>
  <atv:argument name="tabIndex" value="2"/>
  <atv:overwrite id="addresspicker_clickarea" transform="matrix(0.6667,0,0,1,0,0)" x="212"/>
  <atv:overwrite id="focus_frame" transform="matrix(0.6667,0,0,1,0,0)" width="236"/>
  <atv:overwrite id="button_stroke" transform="matrix(0.6667,0,0,1,0,0)" x="215"/>
  <atv:overwrite id="button_symbol" transform="matrix(0.6667,0,0,1,0,0)" x="214.75"/>
  <atv:overwrite id="button_bg" transform="matrix(0.6667,0,0,1,0,0)" x="215"/>
  <atv:overwrite id="input_label" transform="matrix(0.6667,0,0,1,0,0)" x="206"/>
  <atv:overwrite id="blinking_frame" transform="matrix(0.6667,0,0,1,0,0)" width="208"/>
  <atv:overwrite id="addresspicker_bg" transform="matrix(0.6667,0,0,1,0,0)" width="208"/>
  <atv:overwrite id="id_0" transform="matrix(0.6667,0,0,1,0,0)" width="238"/>
  <atv:overwrite id="addresspicker_stroke" transform="matrix(0.6667,0,0,1,0,0)" width="240"/>
 </svg>
 <text atv:refpx="61.126" atv:refpy="98.5" fill="$FONTCOLOR$" font-family="Arial" font-size="16" font-weight="bold" id="general_label" x="34.5" y="104.5">T{General}</text>
 <text atv:refpx="500.568" atv:refpy="45.5" fill="$FONTCOLOR$" font-family="Arial" font-size="16" id="id_9" text-anchor="start" x="469" y="51.5">T{Group}</text>
 <svg atv:refpx="695.499" atv:refpy="240" height="30" id="minutes_input" transform="matrix(1.5,0,0,1,0,0)" width="160" x="383.667" xlink:href="SYSTEM.LIBRARY.ATVISE.OBJECTDISPLAYS.Advanced.in_out_value" y="225">
  <atv:argument name="validation" value="String"/>
  <atv:argument name="allowDirectInput" value="Yes"/>
  <atv:argument name="tabIndex" value="44"/>
  <atv:overwrite id="id_2" transform="matrix(0.8889,0,0,1,0,0)" width="174.5"/>
  <atv:argument name="tooltip" value="T{Simplified cron syntax: numbers sperated with ','}"/>
  <atv:overwrite id="id_0" transform="matrix(0.6667,0,0,1,0,0)" width="240"/>
  <atv:overwrite id="input_label" transform="matrix(0.6667,0,0,1,0,0)" x="232.055"/>
  <atv:overwrite id="blinking_frame" transform="matrix(0.6667,0,0,1,0,0)" width="232"/>
  <atv:overwrite id="focus_frame" transform="matrix(0.6667,0,0,1,0,0)" width="236"/>
  <atv:overwrite id="input_bg" transform="matrix(0.6667,0,0,1,0,0)" width="232"/>
  <atv:overwrite id="id_1" transform="matrix(0.6667,0,0,1,0,0)" width="238"/>
  <atv:overwrite id="input_border" transform="matrix(0.6667,0,0,1,0,0)" width="240"/>
 </svg>
 <text atv:refpx="511.739" atv:refpy="239.5" fill="$FONTCOLOR$" font-family="Arial" font-size="16" id="minutes_label" x="469.5" y="245.5">T{Minute(s)}</text>
 <svg atv:refpx="695.498" atv:refpy="205" height="30" id="hours_input" transform="matrix(1.5,0,0,1,0,0)" width="160" x="383.667" xlink:href="SYSTEM.LIBRARY.ATVISE.OBJECTDISPLAYS.Advanced.in_out_value" y="190">
  <atv:argument name="validation" value="String"/>
  <atv:argument name="allowDirectInput" value="Yes"/>
  <atv:argument name="tabIndex" value="43"/>
  <atv:overwrite id="id_2" transform="matrix(0.8889,0,0,1,0,0)" width="174.5"/>
  <atv:argument name="tooltip" value="T{Simplified cron syntax: numbers sperated with ','}"/>
  <atv:overwrite id="id_0" transform="matrix(0.6667,0,0,1,0,0)" width="240"/>
  <atv:overwrite id="input_label" transform="matrix(0.6667,0,0,1,0,0)" x="232.055"/>
  <atv:overwrite id="blinking_frame" transform="matrix(0.6667,0,0,1,0,0)" width="232"/>
  <atv:overwrite id="focus_frame" transform="matrix(0.6667,0,0,1,0,0)" width="236"/>
  <atv:overwrite id="input_bg" transform="matrix(0.6667,0,0,1,0,0)" width="232"/>
  <atv:overwrite id="id_1" transform="matrix(0.6667,0,0,1,0,0)" width="238"/>
  <atv:overwrite id="input_border" transform="matrix(0.6667,0,0,1,0,0)" width="240"/>
 </svg>
 <svg atv:refpx="695.499" atv:refpy="170" height="30" id="days_input" transform="matrix(1.5,0,0,1,0,0)" width="160" x="383.667" xlink:href="SYSTEM.LIBRARY.ATVISE.OBJECTDISPLAYS.Advanced.in_out_value" y="155">
  <atv:argument name="validation" value="String"/>
  <atv:argument name="allowDirectInput" value="Yes"/>
  <atv:argument name="tabIndex" value="42"/>
  <atv:overwrite id="id_2" transform="matrix(0.8889,0,0,1,0,0)" width="174.5"/>
  <atv:argument name="tooltip" value="T{Simplified cron syntax: numbers sperated with ','}"/>
  <atv:overwrite id="id_0" transform="matrix(0.6667,0,0,1,0,0)" width="240"/>
  <atv:overwrite id="input_label" transform="matrix(0.6667,0,0,1,0,0)" x="232.055"/>
  <atv:overwrite id="blinking_frame" transform="matrix(0.6667,0,0,1,0,0)" width="232"/>
  <atv:overwrite id="focus_frame" transform="matrix(0.6667,0,0,1,0,0)" width="236"/>
  <atv:overwrite id="input_bg" transform="matrix(0.6667,0,0,1,0,0)" width="232"/>
  <atv:overwrite id="id_1" transform="matrix(0.6667,0,0,1,0,0)" width="238"/>
  <atv:overwrite id="input_border" transform="matrix(0.6667,0,0,1,0,0)" width="240"/>
 </svg>
 <svg atv:refpx="695.499" atv:refpy="135" height="30" id="months_input" transform="matrix(1.5,0,0,1,0,0)" width="160" x="383.667" xlink:href="SYSTEM.LIBRARY.ATVISE.OBJECTDISPLAYS.Advanced.in_out_value" y="120">
  <atv:argument name="validation" value="String"/>
  <atv:argument name="allowDirectInput" value="Yes"/>
  <atv:argument name="tabIndex" value="41"/>
  <atv:overwrite id="id_2" transform="matrix(0.8889,0,0,1,0,0)" width="174.5"/>
  <atv:argument name="tooltip" value="T{Simplified cron syntax: numbers sperated with ','}"/>
  <atv:overwrite id="id_0" transform="matrix(0.6667,0,0,1,0,0)" width="240"/>
  <atv:overwrite id="input_label" transform="matrix(0.6667,0,0,1,0,0)" x="232.055"/>
  <atv:overwrite id="blinking_frame" transform="matrix(0.6667,0,0,1,0,0)" width="232"/>
  <atv:overwrite id="focus_frame" transform="matrix(0.6667,0,0,1,0,0)" width="236"/>
  <atv:overwrite id="input_bg" transform="matrix(0.6667,0,0,1,0,0)" width="232"/>
  <atv:overwrite id="id_1" transform="matrix(0.6667,0,0,1,0,0)" width="238"/>
  <atv:overwrite id="input_border" transform="matrix(0.6667,0,0,1,0,0)" width="240"/>
 </svg>
 <text atv:refpx="505.133" atv:refpy="205.5" fill="$FONTCOLOR$" font-family="Arial" font-size="16" id="hours_label" x="469.5" y="211.5">T{Hour(s)}</text>
 <text atv:refpx="502.592" atv:refpy="170.5" fill="$FONTCOLOR$" font-family="Arial" font-size="16" id="days_label" x="469.5" y="176.5">T{Day(s)}</text>
 <text atv:refpx="509.706" atv:refpy="135.5" fill="$FONTCOLOR$" font-family="Arial" font-size="16" id="months_label" x="469.5" y="141.5">T{Month(s)}</text>
 <text atv:refpx="512.385" atv:refpy="98.5" fill="$FONTCOLOR$" font-family="Arial" font-size="16" font-weight="bold" id="cycletime_label" x="469" y="104.5">T{Schedule}</text>
 <text atv:refpx="521.9" atv:refpy="275.5" fill="$FONTCOLOR$" font-family="Arial" font-size="16" id="weekdays_label" x="469.5" y="281.5">T{Weekday(s)}</text>
 <text atv:refpx="-559.719" atv:refpy="-19.517" fill="#575757" font-family="Arial" font-size="16" id="minutes_range" x="825" y="246.5">(0-59)</text>
 <text atv:refpx="-559.719" atv:refpy="-54.517" fill="#575757" font-family="Arial" font-size="16" id="hours_range" x="825" y="211.5">(0-23)</text>
 <text atv:refpx="-559.719" atv:refpy="-90.517" fill="#575757" font-family="Arial" font-size="16" id="days_range" x="825" y="175.5">(1-31)</text>
 <text atv:refpx="-559.719" atv:refpy="-125.517" fill="#575757" font-family="Arial" font-size="16" id="months_range" x="825" y="140.5">(1-12)</text>
 <text atv:refpx="517.836" atv:refpy="335.5" fill="$FONTCOLOR$" font-family="Arial" font-size="16" id="offset_label" x="469.5" y="341.5">T{Data offset}</text>
 <svg atv:refpx="695.487" atv:refpy="335" height="30" id="offset_input" transform="matrix(1.5,0,0,1,0,0)" width="160" x="383.667" xlink:href="SYSTEM.LIBRARY.ATVISE.OBJECTDISPLAYS.Advanced.rocker_switch_horizontal" y="320">
  <atv:argument name="tabIndex" value="55"/>
  <atv:argument name="min" value="0"/>
  <atv:overwrite id="icon_plus" transform="matrix(0.6667,0,0,1,53.3333,0)"/>
  <atv:overwrite id="inc_stroke" transform="matrix(0.6667,0,0,1,0,0)" x="201"/>
  <atv:overwrite id="inc_bg" transform="matrix(0.6667,0,0,1,0,0)" x="201"/>
  <atv:overwrite id="id_5" transform="matrix(0.6667,0,0,1,0,0)" x="200"/>
  <atv:overwrite id="icon_minus" transform="matrix(0.6667,0,0,1,0,0)"/>
  <atv:overwrite id="dec_stroke" transform="matrix(0.6667,0,0,1,0,0)"/>
  <atv:overwrite id="dec_bg" transform="matrix(0.6667,0,0,1,0,0)"/>
  <atv:overwrite id="id_20" transform="matrix(0.6667,0,0,1,0,0)"/>
  <atv:overwrite id="input_label" transform="matrix(0.6667,0,0,1,0,0)" x="120"/>
  <atv:overwrite id="blinking_frame" transform="matrix(0.6667,0,0,1,0,0)" x="124"/>
  <atv:overwrite id="input_field_widget" transform="matrix(0.6667,0,0,1,0,0)" width="152"/>
  <atv:overwrite id="focus_frame" transform="matrix(0.6667,0,0,1,0,0)" width="157"/>
  <atv:overwrite id="input_bg" transform="matrix(0.6667,0,0,1,0,0)" width="158"/>
  <atv:overwrite id="border_area" transform="matrix(0.6667,0,0,1,0,0)" width="160"/>
 </svg>
 <text atv:refpx="872.836" atv:refpy="335.5" fill="$FONTCOLOR$" font-family="Arial" font-size="16" id="id_4" x="824.5" y="341.5">T{Min.}</text>
 <svg atv:refpx="800.5" atv:refpy="275" height="30" id="weekdays_0" transform="matrix(0.1875,0,0,1,0,0)" width="160" x="4189.333" xlink:href="SYSTEM.LIBRARY.ATVISE.OBJECTDISPLAYS.Advanced.checkbox" y="260">
  <atv:argument name="label" value=""/>
  <atv:argument name="tabIndex" value="52"/>
  <atv:argument name="valueOn" value="true"/>
  <atv:argument name="outputValueOn" value="true"/>
  <atv:argument name="outputValueOff" value="false"/>
  <atv:overwrite id="checkbox_item" transform="matrix(5.3333,0,0,1,0,0)"/>
  <atv:overwrite id="checkbox_symbol" transform="matrix(5.3333,0,0,1,0,0)"/>
  <atv:overwrite id="blinking_frame" transform="matrix(5.3333,0,0,1,0,0)"/>
  <atv:overwrite id="focus_frame" transform="matrix(5.3333,0,0,1,0,0)"/>
  <atv:overwrite id="checkbox_bg" transform="matrix(5.3333,0,0,1,0,0)"/>
  <atv:overwrite id="checkbox_frame" transform="matrix(5.3333,0,0,1,0,0)"/>
  <atv:overwrite id="checkbox_stroke" transform="matrix(5.3333,0,0,1,0,0)"/>
 </svg>
 <svg atv:refpx="590.5" atv:refpy="275" height="30" id="weekdays_1" transform="matrix(0.1875,0,0,1,0,0)" width="160" x="3069.333" xlink:href="SYSTEM.LIBRARY.ATVISE.OBJECTDISPLAYS.Advanced.checkbox" y="260">
  <atv:argument name="label" value=""/>
  <atv:argument name="tabIndex" value="45"/>
  <atv:argument name="valueOn" value="true"/>
  <atv:argument name="outputValueOn" value="true"/>
  <atv:argument name="outputValueOff" value="false"/>
  <atv:overwrite id="checkbox_item" transform="matrix(5.3333,0,0,1,0,0)"/>
  <atv:overwrite id="checkbox_symbol" transform="matrix(5.3333,0,0,1,0,0)"/>
  <atv:overwrite id="blinking_frame" transform="matrix(5.3333,0,0,1,0,0)"/>
  <atv:overwrite id="focus_frame" transform="matrix(5.3333,0,0,1,0,0)"/>
  <atv:overwrite id="checkbox_bg" transform="matrix(5.3333,0,0,1,0,0)"/>
  <atv:overwrite id="checkbox_frame" transform="matrix(5.3333,0,0,1,0,0)"/>
  <atv:overwrite id="checkbox_stroke" transform="matrix(5.3333,0,0,1,0,0)"/>
 </svg>
 <svg atv:refpx="625.5" atv:refpy="275" height="30" id="weekdays_2" transform="matrix(0.1875,0,0,1,0,0)" width="160" x="3256" xlink:href="SYSTEM.LIBRARY.ATVISE.OBJECTDISPLAYS.Advanced.checkbox" y="260">
  <atv:argument name="label" value=""/>
  <atv:argument name="tabIndex" value="46"/>
  <atv:argument name="valueOn" value="true"/>
  <atv:argument name="outputValueOn" value="true"/>
  <atv:argument name="outputValueOff" value="false"/>
  <atv:overwrite id="checkbox_item" transform="matrix(5.3333,0,0,1,0,0)"/>
  <atv:overwrite id="checkbox_symbol" transform="matrix(5.3333,0,0,1,0,0)"/>
  <atv:overwrite id="blinking_frame" transform="matrix(5.3333,0,0,1,0,0)"/>
  <atv:overwrite id="focus_frame" transform="matrix(5.3333,0,0,1,0,0)"/>
  <atv:overwrite id="checkbox_bg" transform="matrix(5.3333,0,0,1,0,0)"/>
  <atv:overwrite id="checkbox_frame" transform="matrix(5.3333,0,0,1,0,0)"/>
  <atv:overwrite id="checkbox_stroke" transform="matrix(5.3333,0,0,1,0,0)"/>
 </svg>
 <svg atv:refpx="660.5" atv:refpy="275" height="30" id="weekdays_3" transform="matrix(0.1875,0,0,1,0,0)" width="160" x="3442.667" xlink:href="SYSTEM.LIBRARY.ATVISE.OBJECTDISPLAYS.Advanced.checkbox" y="260">
  <atv:argument name="label" value=""/>
  <atv:argument name="tabIndex" value="47"/>
  <atv:argument name="valueOn" value="true"/>
  <atv:argument name="outputValueOn" value="true"/>
  <atv:argument name="outputValueOff" value="false"/>
  <atv:overwrite id="checkbox_item" transform="matrix(5.3333,0,0,1,0,0)"/>
  <atv:overwrite id="checkbox_symbol" transform="matrix(5.3333,0,0,1,0,0)"/>
  <atv:overwrite id="blinking_frame" transform="matrix(5.3333,0,0,1,0,0)"/>
  <atv:overwrite id="focus_frame" transform="matrix(5.3333,0,0,1,0,0)"/>
  <atv:overwrite id="checkbox_bg" transform="matrix(5.3333,0,0,1,0,0)"/>
  <atv:overwrite id="checkbox_frame" transform="matrix(5.3333,0,0,1,0,0)"/>
  <atv:overwrite id="checkbox_stroke" transform="matrix(5.3333,0,0,1,0,0)"/>
 </svg>
 <svg atv:refpx="695.5" atv:refpy="275" height="30" id="weekdays_4" transform="matrix(0.1875,0,0,1,0,0)" width="160" x="3629.333" xlink:href="SYSTEM.LIBRARY.ATVISE.OBJECTDISPLAYS.Advanced.checkbox" y="260">
  <atv:argument name="label" value=""/>
  <atv:argument name="tabIndex" value="48"/>
  <atv:argument name="valueOn" value="true"/>
  <atv:argument name="outputValueOn" value="true"/>
  <atv:argument name="outputValueOff" value="false"/>
  <atv:overwrite id="checkbox_item" transform="matrix(5.3333,0,0,1,0,0)"/>
  <atv:overwrite id="checkbox_symbol" transform="matrix(5.3333,0,0,1,0,0)"/>
  <atv:overwrite id="blinking_frame" transform="matrix(5.3333,0,0,1,0,0)"/>
  <atv:overwrite id="focus_frame" transform="matrix(5.3333,0,0,1,0,0)"/>
  <atv:overwrite id="checkbox_bg" transform="matrix(5.3333,0,0,1,0,0)"/>
  <atv:overwrite id="checkbox_frame" transform="matrix(5.3333,0,0,1,0,0)"/>
  <atv:overwrite id="checkbox_stroke" transform="matrix(5.3333,0,0,1,0,0)"/>
 </svg>
 <svg atv:refpx="730.5" atv:refpy="275" height="30" id="weekdays_5" transform="matrix(0.1875,0,0,1,0,0)" width="160" x="3816" xlink:href="SYSTEM.LIBRARY.ATVISE.OBJECTDISPLAYS.Advanced.checkbox" y="260">
  <atv:argument name="label" value=""/>
  <atv:argument name="tabIndex" value="49"/>
  <atv:argument name="valueOn" value="true"/>
  <atv:argument name="outputValueOn" value="true"/>
  <atv:argument name="outputValueOff" value="false"/>
  <atv:overwrite id="checkbox_item" transform="matrix(5.3333,0,0,1,0,0)"/>
  <atv:overwrite id="checkbox_symbol" transform="matrix(5.3333,0,0,1,0,0)"/>
  <atv:overwrite id="blinking_frame" transform="matrix(5.3333,0,0,1,0,0)"/>
  <atv:overwrite id="focus_frame" transform="matrix(5.3333,0,0,1,0,0)"/>
  <atv:overwrite id="checkbox_bg" transform="matrix(5.3333,0,0,1,0,0)"/>
  <atv:overwrite id="checkbox_frame" transform="matrix(5.3333,0,0,1,0,0)"/>
  <atv:overwrite id="checkbox_stroke" transform="matrix(5.3333,0,0,1,0,0)"/>
 </svg>
 <svg atv:refpx="765.5" atv:refpy="275" height="30" id="weekdays_6" transform="matrix(0.1875,0,0,1,0,0)" width="160" x="4002.667" xlink:href="SYSTEM.LIBRARY.ATVISE.OBJECTDISPLAYS.Advanced.checkbox" y="260">
  <atv:argument name="label" value=""/>
  <atv:argument name="tabIndex" value="50"/>
  <atv:argument name="valueOn" value="true"/>
  <atv:argument name="outputValueOn" value="true"/>
  <atv:argument name="outputValueOff" value="false"/>
  <atv:overwrite id="checkbox_item" transform="matrix(5.3333,0,0,1,0,0)"/>
  <atv:overwrite id="checkbox_symbol" transform="matrix(5.3333,0,0,1,0,0)"/>
  <atv:overwrite id="blinking_frame" transform="matrix(5.3333,0,0,1,0,0)"/>
  <atv:overwrite id="focus_frame" transform="matrix(5.3333,0,0,1,0,0)"/>
  <atv:overwrite id="checkbox_bg" transform="matrix(5.3333,0,0,1,0,0)"/>
  <atv:overwrite id="checkbox_frame" transform="matrix(5.3333,0,0,1,0,0)"/>
  <atv:overwrite id="checkbox_stroke" transform="matrix(5.3333,0,0,1,0,0)"/>
 </svg>
 <text atv:refpx="789.402" atv:refpy="298.5" fill="$FONTCOLOR$" font-family="Arial" font-size="10" id="id_15" text-anchor="middle" x="801" y="303">T{Sun.}</text>
 <text atv:refpx="578.863" atv:refpy="298.5" fill="$FONTCOLOR$" font-family="Arial" font-size="10" id="id_16" text-anchor="middle" x="591" y="303">T{Mon.}</text>
 <text atv:refpx="613.402" atv:refpy="298.5" fill="$FONTCOLOR$" font-family="Arial" font-size="10" id="id_17" text-anchor="middle" x="625" y="303">T{Tue.}</text>
 <text atv:refpx="648.863" atv:refpy="298.5" fill="$FONTCOLOR$" font-family="Arial" font-size="10" id="id_18" text-anchor="middle" x="661" y="303">T{Wed.}</text>
 <text atv:refpx="684.402" atv:refpy="298.5" fill="$FONTCOLOR$" font-family="Arial" font-size="10" id="id_19" text-anchor="middle" x="696" y="303">T{Thu.}</text>
 <text atv:refpx="721.29" atv:refpy="298.5" fill="$FONTCOLOR$" font-family="Arial" font-size="10" id="id_21" text-anchor="middle" x="731" y="303">T{Fri.}</text>
 <text atv:refpx="754.711" atv:refpy="298.5" fill="$FONTCOLOR$" font-family="Arial" font-size="10" id="id_22" text-anchor="middle" x="765.5" y="303">T{Sat.}</text>
 <rect atv:refpx="450" atv:refpy="472.5" fill="#ffffff" height="85" id="mail_background" rx="10" ry="10" stroke="none" stroke-width="0" width="860" x="20" y="430"/>
 <text atv:refpx="92.439" atv:refpy="448.5" fill="$FONTCOLOR$" font-family="Arial" font-size="16" font-weight="bold" id="email_label" x="35" y="454.5">T{E-mail notifications}</text>
 <svg atv:refpx="422.508" atv:refpy="455" height="30" id="email_toggle" transform="matrix(0.2813,0,0,1,0,0)" width="160" x="1422.222" xlink:href="SYSTEM.LIBRARY.ATVISE.OBJECTDISPLAYS.Advanced.checkbox" y="440">
  <atv:argument name="label" value=""/>
  <atv:argument name="tabIndex" value="60"/>
  <atv:argument name="valueOn" value="true"/>
  <atv:argument name="outputValueOn" value="true"/>
  <atv:argument name="outputValueOff" value="false"/>
  <atv:argument name="fontSize" value="16"/>
  <atv:argument name="tooltip" value="T{Toggle e-mail notification}"/>
  <atv:overwrite id="checkbox_item" transform="matrix(3.5549,0,0,1,0,0)"/>
  <atv:overwrite id="checkbox_symbol" transform="matrix(3.5549,0,0,1,0,0)"/>
  <atv:overwrite id="blinking_frame" transform="matrix(3.5549,0,0,1,0,0)"/>
  <atv:overwrite id="focus_frame" transform="matrix(3.5549,0,0,1,0,0)"/>
  <atv:overwrite id="checkbox_bg" transform="matrix(3.5549,0,0,1,0,0)"/>
  <atv:overwrite id="checkbox_frame" transform="matrix(3.5549,0,0,1,0,0)"/>
  <atv:overwrite id="checkbox_stroke" transform="matrix(3.5549,0,0,1,0,0)"/>
 </svg>
 <svg atv:dynamic="true" atv:refpx="365.875" atv:refpy="484" height="30" id="email_settings" transform="matrix(1.6875,0,0,1,0,0)" width="80" x="174.815" xlink:href="SYSTEM.LIBRARY.ATVISE.OBJECTDISPLAYS.Advanced.button" y="475">
  <atv:argument name="label" value="T{Settings}"/>
  <atv:argument name="tabIndex" value="61"/>
  <atv:argument name="borderVisible" value="true"/>
  <atv:argument name="extraBorderColor" value="#ffffff"/>
  <atv:argument name="fontSize" value="14"/>
  <atv:overwrite id="id_6" transform="matrix(0.5926,0,0,1,0,0)" width="133"/>
  <atv:overwrite id="button_label_2" transform="matrix(0.5926,0,0,1,0,0)" x="67.5"/>
  <atv:overwrite id="button_label_1" transform="matrix(0.5926,0,0,1,0,0)" x="67.5"/>
  <atv:overwrite id="button_label" transform="matrix(0.5926,0,0,1,0,0)" x="67.5"/>
  <atv:overwrite id="button_symbol_bottom" transform="matrix(0.3556,0,0,0.6,0,0)" x="102.333"/>
  <atv:overwrite id="button_symbol_top" transform="matrix(0.3556,0,0,0.6,0,0)" x="102.333"/>
  <atv:overwrite id="button_symbol" transform="matrix(0.5926,0,0,1,0,0)" x="57.5"/>
  <atv:overwrite id="button_stroke" transform="matrix(0.5926,0,0,1,0,0)" width="131"/>
  <atv:overwrite id="button_bg" transform="matrix(0.5926,0,0,1,0,0)" width="133"/>
  <atv:overwrite id="outer_frame" transform="matrix(0.5926,0,0,1,0,0)" width="135"/>
 </svg>
 <text atv:refpx="685.741" atv:refpy="406" fill="$FONTCOLOR$" font-family="Arial" font-size="16" id="attachment_label" x="469.5" y="460.5">T{Attachments}</text>
 <svg atv:refpx="654.927" atv:refpy="455" height="30" id="email_xlsx" width="160" x="575" xlink:href="SYSTEM.LIBRARY.ATVISE.OBJECTDISPLAYS.Advanced.checkbox" y="440">
  <atv:argument name="label" value="T{XLSX}"/>
  <atv:argument name="tabIndex" value="62"/>
  <atv:argument name="valueOn" value="true"/>
  <atv:argument name="outputValueOn" value="true"/>
  <atv:argument name="outputValueOff" value="false"/>
  <atv:argument name="fontSize" value="16"/>
  <atv:argument name="tooltip" value="T{XLSX attachment}"/>
 </svg>
 <svg atv:refpx="654.869" atv:refpy="490" height="30" id="email_pdf" width="160" x="575" xlink:href="SYSTEM.LIBRARY.ATVISE.OBJECTDISPLAYS.Advanced.checkbox" y="475">
  <atv:argument name="label" value="T{PDF}"/>
  <atv:argument name="tabIndex" value="63"/>
  <atv:argument name="valueOn" value="true"/>
  <atv:argument name="outputValueOn" value="true"/>
  <atv:argument name="outputValueOff" value="false"/>
  <atv:argument name="fontSize" value="16"/>
  <atv:argument name="tooltip" value="T{PDF attachment}"/>
 </svg>
 <text atv:refpx="370.5" atv:refpy="455.5" fill="$FONTCOLOR$" font-family="Arial" font-size="16" id="id_7" text-anchor="end" x="391.5" y="461.5">T{Active}</text>
 <svg atv:refpx="284.974" atv:refpy="395" height="30" id="metascript_parameters_input" transform="matrix(1.8125,0,0,1,0,0)" width="160" x="77.241" xlink:href="SYSTEM.LIBRARY.ATVISE.OBJECTDISPLAYS.Advanced.in_out_value" y="380">
  <atv:argument name="validation" value="String"/>
  <atv:argument name="allowDirectInput" value="Yes"/>
  <atv:argument name="tabIndex" value="40"/>
  <atv:overwrite id="id_2" transform="matrix(0.8889,0,0,1,0,0)" width="174.5"/>
  <atv:overwrite id="id_0" transform="matrix(0.5517,0,0,1,0,0)" width="290"/>
  <atv:overwrite id="input_label" transform="matrix(0.5517,0,0,1,0,0)" x="282.055"/>
  <atv:overwrite id="blinking_frame" transform="matrix(0.5517,0,0,1,0,0)" width="282"/>
  <atv:overwrite id="focus_frame" transform="matrix(0.5517,0,0,1,0,0)" width="286"/>
  <atv:overwrite id="input_bg" transform="matrix(0.5517,0,0,1,0,0)" width="282"/>
  <atv:overwrite id="id_1" transform="matrix(0.5517,0,0,1,0,0)" width="288"/>
  <atv:overwrite id="input_border" transform="matrix(0.5517,0,0,1,0,0)" width="290"/>
 </svg>
 <text atv:refpx="145.244" atv:refpy="347" fill="$FONTCOLOR$" font-family="Arial" font-size="16" id="id_10" x="34.5" y="401.5">T{Parameters}</text>
 <text atv:refpx="80" atv:refpy="328.5" fill="$FONTCOLOR$" font-family="Arial" font-size="16" font-weight="bold" id="id_11" x="34" y="334.5">T{Metascript}</text>
</svg>
