<?xml version='1.0' encoding='UTF-8' standalone='no'?>
<svg height="290" version="1.2" width="600" xmlns="http://www.w3.org/2000/svg" xmlns:atv="http://webmi.atvise.com/2007/svgext" xmlns:xlink="http://www.w3.org/1999/xlink">
 <defs/>
 <desc>Displays errors to the users.</desc>
 <title>Error Popup</title>
 <metadata>
  <atv:parameter behavior="optional" defaultvalue="" desc="message line 1" name="error0" substitute="$error0$" valuetype="string"/>
  <atv:parameter behavior="optional" defaultvalue="" desc="message line 2" name="error1" substitute="$error1$" valuetype="string"/>
  <atv:parameter behavior="optional" defaultvalue="" desc="message line 3" name="error2" substitute="$error2$" valuetype="string"/>
  <atv:gridconfig enabled="true" gridstyle="lines" height="20" width="20"/>
  <atv:snapconfig enabled="true" height="5" width="5"/>
 </metadata>
 <text atv:refpx="300" atv:refpy="26" fill="#575757" font-family="Arial" font-size="20" id="id_1" text-anchor="middle" x="300" y="33.5">T{Errors}</text>
 <svg atv:refpx="527.501" atv:refpy="266.493" height="30" id="btnOk" transform="matrix(1.5625,0,0,1.1667,0,0)" width="80" x="297.6" xlink:href="SYSTEM.LIBRARY.ATVISE.OBJECTDISPLAYS.Advanced.button" y="209.994">
  <atv:argument name="label" value="T{OK}"/>
  <atv:overwrite height="33.001" id="id_6" transform="matrix(0.64,0,0,0.8571,0,0)" width="123"/>
  <atv:overwrite id="button_label_2" transform="matrix(0.64,0,0,0.8571,0,0)" x="62.5" y="29.001"/>
  <atv:overwrite id="button_label_1" transform="matrix(0.64,0,0,0.8571,0,0)" x="62.5" y="14.001"/>
  <atv:overwrite id="button_label" transform="matrix(0.64,0,0,0.8571,0,0)" x="62.5" y="22.001"/>
  <atv:overwrite id="button_symbol_bottom" transform="matrix(0.384,0,0,0.5143,0,0)" x="94" y="30.46"/>
  <atv:overwrite id="button_symbol_top" transform="matrix(0.384,0,0,0.5143,0,0)" x="94" y="9.127"/>
  <atv:overwrite id="button_symbol" transform="matrix(0.64,0,0,0.8571,0,0)" x="52.5" y="7.501"/>
  <atv:overwrite height="31.001" id="button_stroke" transform="matrix(0.64,0,0,0.8571,0,0)" width="121"/>
  <atv:overwrite height="33.001" id="button_bg" transform="matrix(0.64,0,0,0.8571,0,0)" width="123"/>
  <atv:overwrite height="35.001" id="outer_frame" transform="matrix(0.64,0,0,0.8571,0,0)" width="125"/>
 </svg>
 <text atv:refpx="303.794" atv:refpy="100.146" fill="#575757" font-family="Arial" font-size="20" id="id_3" text-anchor="middle" x="303.794" y="112.646">$error0$</text>
 <script atv:desc="" atv:name="" type="text/ecmascript"><![CDATA[
webMI.trigger.connect("clicked", function(e) {
var id = "btnOk";
var value = e.value;
webMI.display.closeWindow();
}, "btnOk");

]]></script>
 <text atv:refpx="303.794" atv:refpy="138.196" fill="#575757" font-family="Arial" font-size="20" id="id_0" text-anchor="middle" x="303.794" y="150.696">$error1$</text>
 <text atv:refpx="303.147" atv:refpy="176.245" fill="#575757" font-family="Arial" font-size="20" id="id_2" text-anchor="middle" x="303.147" y="188.745">$error2$</text>
</svg>
