<?xml version="1.0" encoding="iso-8859-1"?>
<!-- Uploaded to: SVG Repo, www.svgrepo.com, Generator: SVG Repo Mixer Tools -->
<svg fill="#000000" height="800px" width="800px" version="1.1" id="Layer_1" xmlns="http://www.w3.org/2000/svg" xmlns:xlink="http://www.w3.org/1999/xlink" 
	 viewBox="0 0 512 512" xml:space="preserve">
<g>
	<g>
		<path d="M490.057,149.943H409.6v37.847v187.62v37.847h80.457c12.12,0,21.943-9.825,21.943-21.943V171.886
			C512,159.767,502.177,149.943,490.057,149.943z"/>
	</g>
</g>
<g>
	<g>
		<path d="M21.943,149.943C9.826,149.943,0,159.767,0,171.886v219.429c0,12.118,9.826,21.943,21.943,21.943H102.4V375.41V187.79
			v-37.847H21.943z"/>
	</g>
</g>
<g>
	<g>
		<path d="M277.943,186.514v-43.886h21.943c12.12,0,21.943-9.825,21.943-21.943c0-12.118-9.823-21.943-21.943-21.943H256h-43.886
			c-12.117,0-21.943,9.825-21.943,21.943c0,12.118,9.826,21.943,21.943,21.943h21.943v43.886h-87.771v190.171h219.429V186.514
			H277.943z"/>
	</g>
</g>
</svg>