<?xml version='1.0' encoding='UTF-8' standalone='no'?>
<svg enable-background="new 0 0 32 32" height="20" id="Ebene_1" version="1.1" width="20" x="0px" xml:space="preserve" y="0px" xmlns="http://www.w3.org/2000/svg" xmlns:atv="http://webmi.atvise.com/2007/svgext" xmlns:xlink="http://www.w3.org/1999/xlink">
 <defs/>
 <metadata>
  <atv:parameter behavior="optional" defaultvalue="#000000" desc="symbol color" name="symbolColor" substitute="$SYMBOLCOLOR$" valuetype="color"/>
  <atv:gridconfig enabled="false" gridstyle="lines" height="20" width="20"/>
  <atv:snapconfig enabled="false" height="1" width="1"/>
 </metadata>
 <polygon atv:refpx="24.395" atv:refpy="13.339" fill="$SYMBOLCOLOR$" id="id_4" points="12.091,12.14 16.534,16.175 14.835,9.625" stroke="none" stroke-width="1"/>
 <path atv:refpx="6.074" atv:refpy="9.925" d="M10.348,13.307L10,13.327L8.524,13.245L7.136,13.008L5.858,12.632L4.714,12.13L3.725,11.517L2.916,10.808L2.31,10.016L1.929,9.155L1.797,8.242L1.929,7.327L2.31,6.467L2.916,5.674L3.725,4.965L4.714,4.351L5.858,3.85L7.136,3.474L8.524,3.238L10,3.156L10.348,3.176L10.348,4.003L8.772,4.003L9.179,9.937L10.348,9.937L10.348,10.784L9.179,10.784L9.179,12.479L10.348,12.479Z" fill="$SYMBOLCOLOR$" fill-rule="evenodd" id="id_17" stroke="none" stroke-width="1"/>
 <path atv:refpx="22.324" atv:refpy="8.243" d="M18.202,8.242L18.069,9.155L17.688,10.016L17.081,10.807L16.271,11.517L15.283,12.129L14.139,12.632L12.861,13.007L11.473,13.244L10.013,13.326L10.013,12.479L10.82,12.479L10.82,10.784L10.013,10.784L10.013,9.937L10.82,9.937L11.213,4.003L10.013,4.003L10.013,3.156L11.473,3.238L12.861,3.474L14.139,3.85L15.283,4.352L16.271,4.965L17.081,5.674L17.688,6.467L18.069,7.327Z" fill="$SYMBOLCOLOR$" fill-rule="evenodd" id="id_18" stroke="none" stroke-width="1"/>
 <script atv:desc="" atv:name="" type="text/ecmascript"/>
</svg>
