<?xml version='1.0' encoding='UTF-8' standalone='no'?>
<svg height="30" version="1.2" width="141" xmlns="http://www.w3.org/2000/svg" xmlns:atv="http://webmi.atvise.com/2007/svgext" xmlns:xlink="http://www.w3.org/1999/xlink">
 <defs/>
 <desc>Starts/stops live mode and enables measurement cursors.</desc>
 <title>Toolbar</title>
 <metadata>
  <atv:parameter behavior="mandatory" defaultvalue="trend1" desc="chart name" name="chartname" valuetype="string"/>
  <atv:parameter behavior="optional" defaultvalue="true" desc="enable live button" group="Appearance" name="showLiveBtn" valuetype="bool"/>
  <atv:parameter behavior="optional" defaultvalue="true" desc="enable marker 1" group="Appearance" name="showMarker1" valuetype="bool"/>
  <atv:parameter behavior="optional" defaultvalue="true" desc="enable marker 2" group="Appearance" name="showMarker2" valuetype="bool"/>
  <atv:parameter behavior="optional" defaultvalue="true" desc="enable options button" group="Appearance" name="showOptionsBtn" valuetype="bool"/>
  <atv:parameter behavior="optional" defaultvalue="SYSTEM.GLOBALS.atvBorderColor" desc="line color" group="Appearance" name="lineColor" substitute="$LINECOLOR$" valuetype="global"/>
  <atv:parameter behavior="mandatory" config="pop-up;trigger;frame" defaultvalue="popup" desc="mode for options button" group="Options" name="optionsBtnMode" valuetype="enum"/>
  <atv:parameter behavior="optional" defaultvalue="treeView/datasources/opcua.js" desc="path to data source implementation for tree view" group="Options" name="treeViewDataSourcePath" valuetype="string"/>
  <atv:parameter behavior="optional" defaultvalue="true" desc="set caching behavior for tree view" group="Options" name="treeViewNodeCacheActive" valuetype="bool"/>
  <atv:parameter behavior="optional" defaultvalue="false" desc="change compression" group="Options" name="save_changecompression" valuetype="bool"/>
  <atv:parameter behavior="optional" defaultvalue="com.atvise.highchart_options" desc="trigger name" group="Options" name="triggerName" valuetype="string"/>
  <atv:parameter behavior="optional" defaultvalue="chartframe" desc="target frame" group="Options" name="targetFrame" valuetype="string"/>
  <atv:parameter behavior="optional" defaultvalue="AGENT.OBJECTS" desc="node entry path" group="Options" name="startAddress" valuetype="string"/>
  <atv:parameter behavior="optional" config="SYSTEM.SECURITY.RIGHTS" defaultvalue="" desc="necessary right" group="Security: options menu" name="options_right" valuetype="address"/>
  <atv:parameter behavior="optional" desc="activation address" group="Security: options menu" name="options_activeNode" valuetype="address"/>
  <atv:parameter behavior="optional" desc="activation value" group="Security: options menu" name="options_activeValue" valuetype="string"/>
  <atv:parameter behavior="optional" config="SYSTEM.SECURITY.RIGHTS" defaultvalue="" desc="necessary right" group="Security: load configuration" name="load_right" valuetype="address"/>
  <atv:parameter behavior="optional" desc="activation address" group="Security: load configuration" name="load_activeNode" valuetype="address"/>
  <atv:parameter behavior="optional" desc="activation value" group="Security: load configuration" name="load_activeValue" valuetype="string"/>
  <atv:parameter behavior="optional" config="SYSTEM.SECURITY.RIGHTS" defaultvalue="" desc="necessary right" group="Security: save configuration" name="save_right" valuetype="address"/>
  <atv:parameter behavior="optional" desc="activation address" group="Security: save configuration" name="save_activeNode" valuetype="address"/>
  <atv:parameter behavior="optional" desc="activation value" group="Security: save configuration" name="save_activeValue" valuetype="string"/>
  <atv:parameter behavior="optional" config="SYSTEM.SECURITY.RIGHTS" defaultvalue="" desc="necessary right" group="Security: export menu" name="export_right" valuetype="address"/>
  <atv:parameter behavior="optional" desc="activation address" group="Security: export menu" name="export_activeNode" valuetype="address"/>
  <atv:parameter behavior="optional" desc="activation value" group="Security: export menu" name="export_activeValue" valuetype="string"/>
  <atv:parameter behavior="optional" defaultvalue="SYSTEM.LIBRARY.ATVISE.OBJECTDISPLAYS.Advanced.highcharts.opt_dialog" desc="dialog for options" group="Subdisplay" name="dialog_options" valuetype="display"/>
  <atv:parameter behavior="optional" defaultvalue="SYSTEM.LIBRARY.ATVISE.OBJECTDISPLAYS.Advanced.highcharts.opt_dialog_small" desc="dialog for options small" group="Subdisplay" name="dialog_options_small" valuetype="display"/>
  <atv:gridconfig enabled="true" gridstyle="lines" height="20" width="20"/>
  <atv:snapconfig enabled="true" height="1" width="1"/>
 </metadata>
 <svg atv:refpx="15" atv:refpy="15" height="30" id="btn_live" transform="matrix(0.375,0,0,1,0,0)" width="80" x="0" xlink:href="SYSTEM.LIBRARY.ATVISE.OBJECTDISPLAYS.Advanced.button" y="0">
  <atv:argument name="label" value="T{Start}"/>
  <atv:argument name="visibilityLabel" value="hidden"/>
  <atv:argument name="visibilitySymbol" value="inherit"/>
  <atv:argument name="symbol" value="SYSTEM.LIBRARY.ATVISE.OBJECTDISPLAYS.Symbols.20x20.play"/>
  <atv:argument name="tabIndex" value="1"/>
  <atv:argument name="tooltip" value="T{Start}"/>
  <atv:overwrite id="id_2" transform="matrix(2.6667,0,0,1,0,0)" width="24.5"/>
  <atv:overwrite id="id_0" transform="matrix(2.6667,0,0,1,0,0)" width="29.5"/>
  <atv:overwrite id="id_6" transform="matrix(2.6667,0,0,1,0,0)" width="28"/>
  <atv:overwrite id="button_label" transform="matrix(2.6667,0,0,1,0,0)" x="15"/>
  <atv:overwrite id="button_symbol" transform="matrix(2.6667,0,0,1,0,0)" x="5"/>
  <atv:overwrite id="button_stroke" transform="matrix(2.6667,0,0,1,0,0)" width="26"/>
  <atv:overwrite id="button_bg" transform="matrix(2.6667,0,0,1,0,0)" width="28"/>
  <atv:overwrite id="outer_frame" transform="matrix(2.6667,0,0,1,0,0)" width="30"/>
 </svg>
 <svg atv:refpx="15" atv:refpy="15" height="30" id="btn_stop" transform="matrix(0.375,0,0,1,0,0)" width="80" x="0" xlink:href="SYSTEM.LIBRARY.ATVISE.OBJECTDISPLAYS.Advanced.button" y="0">
  <atv:argument name="label" value="T{Stop}"/>
  <atv:argument name="visibilityLabel" value="hidden"/>
  <atv:argument name="visibilitySymbol" value="inherit"/>
  <atv:argument name="symbol" value="SYSTEM.LIBRARY.ATVISE.OBJECTDISPLAYS.Symbols.20x20.stop"/>
  <atv:argument name="tabIndex" value="1"/>
  <atv:argument name="tooltip" value="T{Stop}"/>
  <atv:overwrite id="id_2" transform="matrix(2.6667,0,0,1,0,0)" width="24.5"/>
  <atv:overwrite id="id_0" transform="matrix(2.6667,0,0,1,0,0)" width="29.5"/>
  <atv:overwrite id="id_6" transform="matrix(2.6667,0,0,1,0,0)" width="28"/>
  <atv:overwrite id="button_label" transform="matrix(2.6667,0,0,1,0,0)" x="15"/>
  <atv:overwrite id="button_symbol" transform="matrix(2.6667,0,0,1,0,0)" x="5"/>
  <atv:overwrite id="button_stroke" transform="matrix(2.6667,0,0,1,0,0)" width="26"/>
  <atv:overwrite id="button_bg" transform="matrix(2.6667,0,0,1,0,0)" width="28"/>
  <atv:overwrite id="outer_frame" transform="matrix(2.6667,0,0,1,0,0)" width="30"/>
 </svg>
 <svg atv:refpx="58.125" atv:refpy="15" height="30" id="btn_marker1" transform="matrix(0.375,0,0,1,0,0)" width="80" x="106.667" xlink:href="SYSTEM.LIBRARY.ATVISE.OBJECTDISPLAYS.Advanced.button" y="0">
  <atv:argument name="label" value="T{Marker 1}"/>
  <atv:argument name="symbol" value="SYSTEM.LIBRARY.ATVISE.OBJECTDISPLAYS.Symbols.20x20.marker1"/>
  <atv:argument name="visibilitySymbol" value="inherit"/>
  <atv:argument name="visibilityLabel" value="hidden"/>
  <atv:argument name="tabIndex" value="2"/>
  <atv:argument name="tooltip" value="T{Marker 1}"/>
  <atv:overwrite id="id_2" transform="matrix(2.6667,0,0,1,0,0)" width="24.5"/>
  <atv:overwrite id="id_0" transform="matrix(2.6667,0,0,1,0,0)" width="29.5"/>
  <atv:overwrite id="id_6" transform="matrix(2.6667,0,0,1,0,0)" width="28"/>
  <atv:overwrite id="button_label" transform="matrix(2.6667,0,0,1,0,0)" x="15"/>
  <atv:overwrite id="button_symbol" transform="matrix(2.6667,0,0,1,0,0)" x="5"/>
  <atv:overwrite id="button_stroke" transform="matrix(2.6667,0,0,1,0,0)" width="26"/>
  <atv:overwrite id="button_bg" transform="matrix(2.6667,0,0,1,0,0)" width="28"/>
  <atv:overwrite id="outer_frame" transform="matrix(2.6667,0,0,1,0,0)" width="30"/>
 </svg>
 <svg atv:refpx="91.75" atv:refpy="15" height="30" id="btn_marker2" transform="matrix(0.375,0,0,1,0,0)" width="80" x="189.334" xlink:href="SYSTEM.LIBRARY.ATVISE.OBJECTDISPLAYS.Advanced.button" y="0">
  <atv:argument name="label" value="T{Marker 2}"/>
  <atv:argument name="symbol" value="SYSTEM.LIBRARY.ATVISE.OBJECTDISPLAYS.Symbols.20x20.marker2"/>
  <atv:argument name="visibilitySymbol" value="inherit"/>
  <atv:argument name="visibilityLabel" value="hidden"/>
  <atv:argument name="tabIndex" value="3"/>
  <atv:argument name="tooltip" value="T{Marker 2}"/>
  <atv:overwrite id="id_2" transform="matrix(2.6667,0,0,1,0,0)" width="24.5"/>
  <atv:overwrite id="id_0" transform="matrix(2.6667,0,0,1,0,0)" width="29.5"/>
  <atv:overwrite id="id_6" transform="matrix(2.6667,0,0,1,0,0)" width="28"/>
  <atv:overwrite id="button_label" transform="matrix(2.6667,0,0,1,0,0)" x="15"/>
  <atv:overwrite id="button_symbol" transform="matrix(2.6667,0,0,1,0,0)" x="5"/>
  <atv:overwrite id="button_stroke" transform="matrix(2.6667,0,0,1,0,0)" width="26"/>
  <atv:overwrite id="button_bg" transform="matrix(2.6667,0,0,1,0,0)" width="28"/>
  <atv:overwrite id="outer_frame" transform="matrix(2.6667,0,0,1,0,0)" width="30"/>
 </svg>
 <line atv:refpx="40.115" atv:refpy="15.129" id="line1" stroke="$LINECOLOR$" stroke-linecap="square" stroke-width="1" x1="35" x2="35" y1="5.513" y2="25.513"/>
 <line atv:refpx="109.115" atv:refpy="14.616" id="line2" stroke="$LINECOLOR$" stroke-linecap="square" stroke-width="1" x1="106" x2="106" y1="5" y2="25"/>
 <svg atv:refpx="123" atv:refpy="15" height="30" id="btn_options" transform="matrix(0.375,0,0,1,0,0)" width="80" x="296" xlink:href="SYSTEM.LIBRARY.ATVISE.OBJECTDISPLAYS.Advanced.button" y="0">
  <atv:argument name="label" value="T{Options}"/>
  <atv:argument name="fontSize" value="8"/>
  <atv:argument name="visibilitySymbol" value="inherit"/>
  <atv:argument name="visibilityLabel" value="hidden"/>
  <atv:argument name="symbol" value="SYSTEM.LIBRARY.ATVISE.OBJECTDISPLAYS.Symbols.20x20.gears"/>
  <atv:argument name="right" prefix="options_right"/>
  <atv:argument name="activeNode" prefix="options_activeNode"/>
  <atv:argument name="activeValue" prefix="options_activeValue"/>
  <atv:argument name="tooltip" value="T{Open options}"/>
  <atv:overwrite id="id_2" transform="matrix(2.6667,0,0,1,0,0)" width="24.5"/>
  <atv:overwrite id="id_0" transform="matrix(2.6667,0,0,1,0,0)" width="29.5"/>
  <atv:argument name="tabIndex" value="4"/>
  <atv:overwrite id="id_6" transform="matrix(2.6667,0,0,1,0,0)" width="28"/>
  <atv:overwrite id="button_label" transform="matrix(2.6667,0,0,1,0,0)" x="15"/>
  <atv:overwrite id="button_symbol" transform="matrix(2.6667,0,0,1,0,0)" x="5"/>
  <atv:overwrite id="button_stroke" transform="matrix(2.6667,0,0,1,0,0)" width="26"/>
  <atv:overwrite id="button_bg" transform="matrix(2.6667,0,0,1,0,0)" width="28"/>
  <atv:overwrite id="outer_frame" transform="matrix(2.6667,0,0,1,0,0)" width="30"/>
 </svg>
 <script atv:desc="" atv:href="SYSTEM.LIBRARY.ATVISE.DISPLAYSCRIPTS.highcharts.toolbar" atv:name="toolbar" atv:type="text/ecmascript"/>
 <script atv:desc="" atv:name="" type="text/ecmascript"/>
</svg>
