<?xml version='1.0' encoding='UTF-8' standalone='no'?>
<svg height="40" version="1.2" width="40" xmlns="http://www.w3.org/2000/svg" xmlns:atv="http://webmi.atvise.com/2007/svgext" xmlns:xlink="http://www.w3.org/1999/xlink">
 <defs/>
 <metadata>
  <atv:parameter behavior="optional" defaultvalue="#000000" desc="symbol color" name="symbolColor" substitute="$SYMBOLCOLOR$" valuetype="color"/>
  <atv:gridconfig enabled="true" gridstyle="lines" height="2" width="2"/>
  <atv:snapconfig enabled="true" height="1" width="1"/>
 </metadata>
 <g atv:refpx="20" atv:refpy="20.02" id="id_3">
  <circle atv:refpx="20" atv:refpy="34.931" cx="20" cy="22.602" fill="#ffffff" id="id_0" r="16.438" stroke="$SYMBOLCOLOR$" stroke-width="2"/>
  <circle atv:refpx="20" atv:refpy="59.588" cx="20" cy="22.602" fill="$SYMBOLCOLOR$" id="id_1" r="4.109" stroke="none" stroke-width="2"/>
  <path atv:refpx="48.214" atv:refpy="3.082" d="M17.944,6.164L17.944,4.109C17.944,4.109 17.944,2.054 15.89,2.054C13.835,2.052 13.835,2.054 13.835,2.054C13.835,2.054 13.835,0 13.835,0C13.835,0 26.164,0 26.164,0C26.164,0 26.164,2.054 26.164,2.054C26.164,2.054 24.109,2.054 24.109,2.054C24.109,2.054 22.054,2.054 22.054,4.109C22.054,6.164 22.054,6.164 22.054,6.164C22.054,6.164 17.944,6.164 17.944,6.164" fill="$SYMBOLCOLOR$" id="id_2" stroke="none" stroke-width="2"/>
  <ellipse atv:refpx="89.381" atv:refpy="7.945" cx="31.078" cy="-8.77" fill="$SYMBOLCOLOR$" id="id_4" rx="4.109" ry="2.056" stroke="none" stroke-width="2" transform="matrix(0.866,0.5,-0.5,0.866,0,0)"/>
  <ellipse atv:refpx="8.698" atv:refpy="31.499" cx="3.561" cy="-11.227" fill="$SYMBOLCOLOR$" id="id_6" rx="4.109" ry="2.056" stroke="none" stroke-width="2" transform="matrix(0.866,-0.5,-0.5,-0.866,0,0)"/>
  <rect atv:refpx="59.24" atv:refpy="15.801" fill="$SYMBOLCOLOR$" height="12.329" id="id_10" stroke="none" stroke-width="1" width="1.304" x="19.349" y="9.637"/>
 </g>
 <script atv:desc="" atv:name="" type="text/ecmascript"/>
</svg>
