<?xml version='1.0' encoding='UTF-8' standalone='no'?>
<svg enable-background="new 0 0 16 16" height="40" id="Ebene_1" version="1.1" width="40" x="0px" xml:space="preserve" y="0px" xmlns="http://www.w3.org/2000/svg" xmlns:atv="http://webmi.atvise.com/2007/svgext" xmlns:xlink="http://www.w3.org/1999/xlink">
 <defs>
  <linearGradient gradientUnits="objectBoundingBox" id="SVGID_1_" x1="-0.290145" x2="0.792871" y1="0.136603" y2="0.639639">
   <stop offset="0" stop-color="#9d9d9c"/>
   <stop offset="1" stop-color="#c3c3b"/>
  </linearGradient>
  <linearGradient gradientUnits="objectBoundingBox" id="SVGID_2_" x1="0.0373956" x2="0.933879" y1="0.0373166" y2="1.06773">
   <stop offset="0" stop-color="#9d9d9c"/>
   <stop offset="1" stop-color="#c3c3b"/>
  </linearGradient>
 </defs>
 <metadata>
  <atv:parameter behavior="optional" defaultvalue="#000000" desc="symbol color" name="symbolColor" substitute="$SYMBOLCOLOR$" valuetype="color"/>
  <atv:parameter behavior="optional" defaultvalue="#ffffff" desc="symbol color 2" name="symbolColor2" substitute="$SYMBOLCOLOR2$" valuetype="color"/>
  <atv:gridconfig enabled="false" gridstyle="lines" height="20" width="20"/>
  <atv:snapconfig enabled="false" height="10" width="10"/>
 </metadata>
 <g atv:refpx="20.01" atv:refpy="19.999" id="id_5" transform="matrix(2.153,0,0,2.153,-1.3378,-1.665)">
  <path atv:refpx="32.708" atv:refpy="12.444" d="M15.532,8.854L15.52,16.032L15.576,16.032L18.845,8.977C18.876,8.909 18.826,8.856 18.735,8.856" fill="$SYMBOLCOLOR$" id="id_0" stroke-width="1.117"/>
  <path atv:refpx="7.936" atv:refpy="13.064" d="M14.719,5.679L7.284,5.679L7.284,4.181C7.284,4.085 7.206,4.008 7.109,4.008L2.019,4.008C1.923,4.008 1.845,4.085 1.845,4.181L1.845,5.679L1.149,5.679C1.053,5.679 0.976,5.757 0.976,5.853L0.976,15.942C0.976,16.04 1.053,16.117 1.149,16.117L14.719,16.117C14.817,16.117 14.895,16.04 14.895,15.942L14.895,5.853C14.895,5.757 14.817,5.679 14.719,5.679" fill="$SYMBOLCOLOR$" id="id_1" stroke-width="1.117"/>
 </g>
 <g atv:refpx="15.996" atv:refpy="22.014" id="id_2" transform="matrix(2.153,0,0,2.153,-1.3378,-1.665)">
  <circle atv:refpx="9.609" atv:refpy="7.583" cx="8.064" cy="8.668" fill="$SYMBOLCOLOR2$" id="id_3" r="1.96" stroke-width="0" transform="matrix(0.9985,0,0,1,0,0)"/>
  <path atv:refpx="9.295" atv:refpy="9.996" d="M11.188,15.288L11.188,11.863C11.188,11.233 10.678,10.721 10.048,10.721L9.458,10.721C9.058,10.997 8.573,11.16 8.051,11.16C7.528,11.16 7.043,10.997 6.644,10.721L6.054,10.721C5.425,10.721 4.914,11.233 4.914,11.863L4.914,15.288Z" fill="$SYMBOLCOLOR2$" id="id_4" stroke-width="0"/>
 </g>
 <script atv:desc="" atv:name="" type="text/ecmascript"/>
</svg>
