<?xml version='1.0' encoding='UTF-8' standalone='no'?>
<!-- Created with Inkscape (http://www.inkscape.org/) -->
<svg height="512" id="svg59" inkscape:version="1.2.2 (732a01da63, 2022-12-09)" sodipodi:docname="water_storage.svg" version="1.1" width="512" xmlns="http://www.w3.org/2000/svg" xmlns:atv="http://webmi.atvise.com/2007/svgext" xmlns:inkscape="http://www.inkscape.org/namespaces/inkscape" xmlns:sodipodi="http://sodipodi.sourceforge.net/DTD/sodipodi-0.dtd" xmlns:svg="http://www.w3.org/2000/svg" xmlns:xlink="http://www.w3.org/1999/xlink">
 <defs id="defs63"/>
 <metadata>
  <atv:gridconfig enabled="false" gridstyle="lines" height="20" width="20"/>
  <atv:snapconfig enabled="false" height="10" width="10"/>
 </metadata>
 <sodipodi:namedview bordercolor="#000000" borderopacity="0.25" id="namedview61" inkscape:current-layer="g65" inkscape:cx="255.36476" inkscape:cy="256" inkscape:deskcolor="#d1d1d1" inkscape:pagecheckerboard="0" inkscape:pageopacity="0.0" inkscape:showpageshadow="2" inkscape:window-height="1009" inkscape:window-maximized="1" inkscape:window-width="1920" inkscape:window-x="-8" inkscape:window-y="-8" inkscape:zoom="1.5742188" pagecolor="#ffffff" showgrid="false"/>
 <path atv:refpx="256" atv:refpy="241.75" d="M16.77,479.334L30.77,478.777L31.27,299.277L31.77,119.777L91.77,119.777L151.77,119.777L152.023,299.027L152.275,478.277L174.273,478.277L196.27,478.277L196.27,269.284L196.27,60.291L128.603,60.034L60.936,59.777L60.441,58.277L59.945,56.777L61.357,57.916L62.77,59.054L197.021,59.787L331.272,60.52L332.753,59.291L334.235,58.061L347.462,58.221L360.69,58.38L361.951,59.427L363.213,60.475L363.492,90.249L363.77,120.022L362.491,121.216L361.212,122.41L361.765,152.093L362.318,181.777L362.801,330.006L363.283,478.235L361.026,478.703L358.77,479.171L255.579,479.583L152.388,479.995L151.329,478.936L150.27,477.877L150.27,299.577L150.27,121.277L91.273,121.277L32.275,121.277L32.023,300.527L31.77,479.777L17.27,479.835L2.77,479.892L16.77,479.335ZM61.47,479.077L60.27,477.877L60.27,464.777L60.27,451.677L61.47,450.477L62.67,449.277L91.27,449.277L119.87,449.277L121.07,450.477L122.27,451.677L122.27,464.777L122.27,477.877L121.07,479.077L119.87,480.277L91.27,480.277L62.67,480.277ZM120.049,465.027L119.77,451.777L91.27,451.777L62.77,451.777L62.491,465.027L62.212,478.277L91.27,478.277L120.328,478.277ZM483.396,478.928L482.277,477.58L482.023,329.678L481.77,181.777L468.02,181.499L454.27,181.22L454.349,179.499L454.428,177.777L454.932,179.027L455.437,180.277L469.35,180.277L483.263,180.277L483.517,329.527L483.77,478.777L497.77,479.32L511.77,479.863L498.142,480.07L484.515,480.277ZM61.47,420.077L60.27,418.877L60.27,405.277L60.27,391.677L61.47,390.477L62.67,389.277L91.27,389.277L119.87,389.277L121.07,390.477L122.27,391.677L122.27,405.277L122.27,418.877L121.07,420.077L119.87,421.277L91.27,421.277L62.67,421.277ZM119.77,405.277L119.77,391.777L91.27,391.777L62.77,391.777L62.488,404.221L62.205,416.666L62.712,417.987L63.219,419.308L91.495,419.042L119.77,418.777ZM61.47,360.077L60.27,358.877L60.27,345.277L60.27,331.677L61.47,330.477L62.67,329.277L91.27,329.277L119.87,329.277L121.07,330.477L122.27,331.677L122.27,345.277L122.27,358.877L121.07,360.077L119.87,361.277L91.27,361.277L62.67,361.277ZM119.77,345.277L119.77,331.777L91.27,331.777L62.77,331.777L62.488,344.221L62.205,356.666L62.712,357.987L63.219,359.308L91.495,359.042L119.77,358.777ZM61.47,300.077L60.27,298.877L60.27,285.277L60.27,271.677L61.47,270.477L62.67,269.277L91.27,269.277L119.87,269.277L121.07,270.477L122.27,271.677L122.27,285.277L122.27,298.877L121.07,300.077L119.87,301.277L91.27,301.277L62.67,301.277ZM119.77,285.277L119.77,271.777L91.27,271.777L62.77,271.777L62.488,284.221L62.205,296.666L62.712,297.987L63.219,299.308L91.495,299.042L119.77,298.777ZM61.47,240.077L60.27,238.877L60.27,225.277L60.27,211.677L61.47,210.477L62.67,209.277L91.27,209.277L119.87,209.277L121.07,210.477L122.27,211.677L122.27,225.277L122.27,238.877L121.07,240.077L119.87,241.277L91.27,241.277L62.67,241.277ZM119.77,225.277L119.77,211.777L91.27,211.777L62.77,211.777L62.488,224.221L62.205,236.666L62.712,237.987L63.219,239.308L91.495,239.042L119.77,238.777ZM61.47,180.077L60.27,178.877L60.27,165.277L60.27,151.677L61.47,150.477L62.67,149.277L91.27,149.277L119.87,149.277L121.07,150.477L122.27,151.677L122.27,165.277L122.27,178.877L121.07,180.077L119.87,181.277L91.27,181.277L62.67,181.277ZM119.77,165.277L119.77,151.777L91.27,151.777L62.77,151.777L62.488,164.221L62.205,176.666L62.712,177.987L63.219,179.308L91.495,179.042L119.77,178.777ZM482.481,149.878L483.77,148.479L484.12,148.811L484.47,149.144L483.811,150.21L483.152,151.277L482.172,151.277L481.191,151.277ZM482.481,120.676L481.191,119.277L482.172,119.277L483.152,119.277L483.811,120.343L484.47,121.41L484.12,121.743L483.77,122.075ZM46.336,29.528L32.902,29.216L31.586,28.124L30.27,27.032L30.477,13.404L30.684,-0.222L31.227,13.777L31.77,27.777L46.02,28.054L60.27,28.332L60.27,29.304L60.27,30.277L60.02,30.058L59.77,29.84ZM335.147,28.997L335.93,28.216L349.35,28.5L362.77,28.784L348.567,29.281L334.363,29.777ZM363.665,13.777L363.668,-0.222L364.014,7.071L364.36,14.364L364.011,21.071L363.662,27.777Z" fill="#cedce1" id="path211" stroke="#000000" stroke-opacity="0" stroke-width="1"/>
 <path atv:refpx="242.372" atv:refpy="255.304" d="M9.476,480.536L16.181,480.187L23.476,480.533L30.77,480.879L16.77,480.882L2.77,480.885L9.476,480.537ZM77.02,480.529L91.27,480.222L105.52,480.529L119.77,480.836L91.27,480.836L62.77,480.836ZM163.52,480.531L174.27,480.21L185.02,480.531L195.77,480.853L174.27,480.853L152.77,480.853ZM32.025,300.777L32.281,121.277L91.275,121.277L150.27,121.277L150.27,299.577L150.27,477.877L151.47,479.077L152.67,480.277L136.27,480.277L119.87,480.277L121.07,479.077L122.27,477.877L122.27,464.777L122.27,451.677L121.07,450.477L119.87,449.277L91.27,449.277L62.67,449.277L61.47,450.477L60.27,451.677L60.27,464.777L60.27,477.877L61.47,479.077L62.67,480.277L47.22,480.277L31.77,480.277ZM121.07,420.077L122.27,418.877L122.27,405.277L122.27,391.677L121.07,390.477L119.87,389.277L91.27,389.277L62.67,389.277L61.47,390.477L60.27,391.677L60.27,405.277L60.27,418.877L61.47,420.077L62.67,421.277L91.27,421.277L119.87,421.277ZM121.07,360.077L122.27,358.877L122.27,345.277L122.27,331.677L121.07,330.477L119.87,329.277L91.27,329.277L62.67,329.277L61.47,330.477L60.27,331.677L60.27,345.277L60.27,358.877L61.47,360.077L62.67,361.277L91.27,361.277L119.87,361.277ZM121.07,300.077L122.27,298.877L122.27,285.277L122.27,271.677L121.07,270.477L119.87,269.277L91.27,269.277L62.67,269.277L61.47,270.477L60.27,271.677L60.27,285.277L60.27,298.877L61.47,300.077L62.67,301.277L91.27,301.277L119.87,301.277ZM121.07,240.077L122.27,238.877L122.27,225.277L122.27,211.677L121.07,210.477L119.87,209.277L91.27,209.277L62.67,209.277L61.47,210.477L60.27,211.677L60.27,225.277L60.27,238.877L61.47,240.077L62.67,241.277L91.27,241.277L119.87,241.277ZM121.07,180.077L122.27,178.877L122.27,165.277L122.27,151.677L121.07,150.477L119.87,149.277L91.27,149.277L62.67,149.277L61.47,150.477L60.27,151.677L60.27,165.277L60.27,178.877L61.47,180.077L62.67,181.277L91.27,181.277L119.87,181.277ZM279.27,479.274L362.77,478.748L363.026,478.512L363.283,478.277L362.801,330.027L362.318,181.777L361.765,152.127L361.212,122.477L362.813,120.877L364.413,119.277L423.091,119.515L481.77,119.753L422.77,120.265L363.77,120.777L363.505,150.537L363.24,180.297L408.005,180.037L452.77,179.777L453.047,165.027L453.323,150.277L467.547,150.496L481.77,150.716L468.02,151.024L454.27,151.333L454.27,166.277L454.27,181.22L468.02,181.499L481.77,181.777L482.023,329.678L482.277,477.58L483.396,478.928L484.515,480.277L340.142,480.038L195.77,479.8ZM483.662,135.277L483.662,121.777L484.012,128.526L484.361,135.277L484.012,142.027L483.662,148.777ZM130.864,59.527L62.958,59.263L61.614,58.147L60.27,57.032L60.27,42.654L60.27,28.277L61.27,28.277L62.27,28.277L62.27,42.612L62.27,56.947L162.02,57.611L261.769,58.276L296.913,58.276L332.056,58.277L332.663,56.695L333.27,55.113L333.27,41.695L333.27,28.277L334.02,28.275L334.77,28.274L334.466,42.987L334.162,57.701L333.094,58.989L332.025,60.277L265.398,60.034L198.77,59.791ZM361.77,27.277L362.388,26.277L362.829,26.277L363.27,26.277L363.27,27.277L363.27,28.277L362.211,28.277L361.152,28.277Z" fill="#b5c3ce" id="path209" stroke="#000000" stroke-opacity="0" stroke-width="1"/>
 <path atv:refpx="254.75" atv:refpy="271.75" d="M1.27,495.527L1.27,480.777L256.019,480.724L510.77,480.671L354.27,481.224L197.77,481.777L197.493,496.027L197.215,510.277L99.243,510.277L1.27,510.277ZM332.662,43.277L332.662,29.777L333.012,36.527L333.361,43.277L333.012,50.027L332.662,56.777Z" fill="#0e8136" id="path207" stroke="#000000" stroke-opacity="0" stroke-width="1"/>
 <path atv:refpx="194.913" atv:refpy="15" d="M30.676,27.438L30.182,26.943L30.182,12.61L30.182,-1.722L113.075,-1.722L195.968,-1.722L196.575,-0.14L197.182,1.44L197.182,13.89L197.182,26.34L195.932,26.74L194.682,27.141L112.926,27.536L31.171,27.932ZM346.682,27.32L360.682,26.777L361.226,13.277L361.771,-0.221L361.976,12.827L362.182,25.877L360.982,27.077L359.782,28.277L346.232,28.07L332.682,27.863Z" fill="#1b7fe3" id="path205" stroke="#000000" stroke-opacity="0" stroke-width="1"/>
 <path atv:refpx="354" atv:refpy="497.25" d="M197.27,496.245L197.27,482.214L198.52,481.745L199.77,481.276L356.52,481.027L513.27,480.777L513.27,495.527L513.27,510.277L355.27,510.277L197.27,510.277Z" fill="#0e8136" id="path203" stroke="#000000" stroke-opacity="0" stroke-width="1"/>
 <path atv:refpx="271.5" atv:refpy="76.006" d="M363.493,135.535L363.77,120.777L423.27,120.777L482.77,120.777L482.77,135.277L482.77,149.777L422.993,150.035L363.216,150.293ZM197.77,28.275L62.77,27.773L130.27,27.275L197.77,26.777L197.77,12.526L197.77,-1.725L280.27,-1.725L362.77,-1.725L362.48,11.525L362.19,24.777L361.761,26.027L361.333,27.277L348.001,27.277L334.67,27.277L333.72,28.027L332.77,28.777Z" fill="#145faa" id="path201" stroke="#000000" stroke-opacity="0" stroke-width="1"/>
 <path atv:refpx="256.527" atv:refpy="106.01" d="M363.947,179.62L363.27,178.944L363.27,164.61L363.27,150.277L408.297,150.277L453.323,150.277L453.047,165.027L452.77,179.777L408.697,180.037L364.624,180.297ZM130.02,57.53L62.27,57.263L62.27,42.77L62.27,28.277L197.103,28.277L331.937,28.277L332.353,28.69L332.77,29.102L332.27,43.44L331.77,57.777L264.77,57.787L197.77,57.798Z" fill="#484f54" id="path199" stroke="#000000" stroke-opacity="0" stroke-width="1"/>
 <rect atv:refpx="94.932" atv:refpy="269.113" fill="#ffffff" height="420.889" id="id_0" stroke="#8b969e" stroke-width="1" width="127.664" x="31.1" y="58.669"/>
 <rect atv:refpx="128.317" atv:refpy="268.815" fill="#ffffff" height="420.402" id="id_1" stroke="#b5c3ce" stroke-width="2" width="132.014" x="62.31" y="58.613"/>
</svg>
