<?xml version='1.0' encoding='UTF-8' standalone='no'?>
<svg height="325" version="1.2" width="490" xmlns="http://www.w3.org/2000/svg" xmlns:atv="http://webmi.atvise.com/2007/svgext" xmlns:xlink="http://www.w3.org/1999/xlink">
 <defs>
  <linearGradient gradientUnits="objectBoundingBox" id="linear_0" x1="0" x2="1" y1="0" y2="1">
   <stop offset="0" stop-color="#000000" stop-opacity="0"/>
   <stop offset="1" stop-color="#000000" stop-opacity="0"/>
  </linearGradient>
 </defs>
 <metadata>
  <atv:gridconfig enabled="false" gridstyle="lines" height="20" width="20"/>
  <atv:snapconfig enabled="true" height="1" width="1"/>
 </metadata>
 <g atv:insensitive="true" atv:refpx="0" atv:refpy="0" id="id_11" transform="matrix(0.3828,0,0,0.4233,0,0)">
  <rect atv:refpx="640" atv:refpy="384" fill="#ffffff" height="768.00" id="id_12" width="1280.00" x="0" y="0"/>
 </g>
 <script atv:desc="" atv:name="" type="text/ecmascript"/>
 <svg atv:refpx="422.77" atv:refpy="236.995" height="63.11" id="id_13" transform="matrix(0.7519,0,0,0.7289,0,0)" width="133" x="495.795" xlink:href="ObjectTypes.PROJECT.ElementoLinea.Principal" y="233.228">
  <atv:argument name="base" value="AGENT.OBJECTS.SCADA.Solidaridad.Circuitos.Circuito_PDC.Carcamo_010"/>
 </svg>
 <svg atv:refpx="76.991" atv:refpy="50.999" height="63.11" id="id_17" transform="matrix(0.7519,0,0,0.7289,0,0)" width="133" x="35.909" xlink:href="ObjectTypes.PROJECT.ElementoLinea.Principal" y="38.414">
  <atv:argument name="base" value="AGENT.OBJECTS.SCADA.Solidaridad.Circuitos.Circuito_PDC.Carcamo_Intermedio"/>
 </svg>
 <svg atv:refpx="234.499" atv:refpy="234.993" height="63.11" id="id_9" transform="matrix(0.7519,0,0,0.7289,0,0)" width="133" x="266.667" xlink:href="ObjectTypes.PROJECT.ElementoLinea.Principal" y="233.228">
  <atv:argument name="base" value="AGENT.OBJECTS.SCADA.Solidaridad.Circuitos.Circuito_PDC.Carcamo_009"/>
 </svg>
 <svg atv:refpx="76.992" atv:refpy="234.989" height="63.11" id="id_10" transform="matrix(0.7519,0,0,0.7289,0,0)" width="133" x="35.909" xlink:href="ObjectTypes.PROJECT.ElementoLinea.Principal" y="233.228">
  <atv:argument name="base" value="AGENT.OBJECTS.SCADA.Solidaridad.Circuitos.Circuito_PDC.Carcamo_011"/>
 </svg>
 <svg atv:refpx="234.508" atv:refpy="270.749" height="23" id="id_22" width="100" x="200.508" xlink:href="ObjectTypes.PROJECT.Caudalimetro.line_mini" y="216.249">
  <atv:argument name="base" value="AGENT.OBJECTS.SCADA.Solidaridad.Circuitos.Circuito_PDC.Carcamo_009.Equipos.Caudalimetro.L1"/>
 </svg>
 <svg atv:refpx="77.001" atv:refpy="85.875" height="23" id="id_37" width="100" x="27.001" xlink:href="ObjectTypes.PROJECT.Caudalimetro.line_mini" y="74.375">
  <atv:argument name="base" value="AGENT.OBJECTS.SCADA.Solidaridad.Circuitos.Circuito_PDC.Carcamo_Intermedio.Equipos.Caudalimetros.L_30"/>
 </svg>
 <svg atv:refpx="422.789" atv:refpy="271.749" height="23" id="id_41" width="100" x="372.789" xlink:href="ObjectTypes.PROJECT.Caudalimetro.line_mini" y="216.249">
  <atv:argument name="base" value="AGENT.OBJECTS.SCADA.Solidaridad.Circuitos.Circuito_PDC.Carcamo_010.Equipos.Caudalimetro.L1"/>
 </svg>
 <g atv:refpx="78.001" atv:refpy="177.099" id="id_31" transform="matrix(0,1,-1,0,157,-32.9925)">
  <line atv:refpx="162" atv:refpy="79.5" id="id_29" stroke="#000000" stroke-linecap="round" stroke-linejoin="round" stroke-width="2.015" x1="192" x2="132" y1="79" y2="79"/>
  <polygon atv:refpx="185.405" atv:refpy="79" fill="#000018" id="id_26" points="192,89 192,69 205.19,79 205.19,79" stroke="#000000" stroke-linecap="round" stroke-linejoin="round" stroke-opacity="0" stroke-width="2.015"/>
 </g>
 <g atv:refpx="164.41" atv:refpy="235" id="id_77" transform="matrix(1,0,0,1,-3.681,114.0003)">
  <line atv:refpx="162" atv:refpy="79.5" id="id_78" stroke="#000000" stroke-linecap="round" stroke-linejoin="round" stroke-width="2.015" x1="192" x2="132" y1="79" y2="79"/>
  <polygon atv:refpx="185.405" atv:refpy="79" fill="#000018" id="id_79" points="192,89 192,69 205.19,79 205.19,79" stroke="#000000" stroke-linecap="round" stroke-linejoin="round" stroke-opacity="0" stroke-width="2.015"/>
 </g>
 <g atv:refpx="337.535" atv:refpy="235" id="id_80" transform="matrix(1,0,0,1,169.444,114.0003)">
  <line atv:refpx="162" atv:refpy="79.5" id="id_81" stroke="#000000" stroke-linecap="round" stroke-linejoin="round" stroke-width="2.015" x1="192" x2="132" y1="79" y2="79"/>
  <polygon atv:refpx="185.405" atv:refpy="79" fill="#000018" id="id_82" points="192,89 192,69 205.19,79 205.19,79" stroke="#000000" stroke-linecap="round" stroke-linejoin="round" stroke-opacity="0" stroke-width="2.015"/>
 </g>
</svg>
