<?xml version='1.0' encoding='UTF-8' standalone='no'?>
<svg height="330" version="1.2" width="580.5" xmlns="http://www.w3.org/2000/svg" xmlns:atv="http://webmi.atvise.com/2007/svgext" xmlns:xlink="http://www.w3.org/1999/xlink">
 <defs>
  <linearGradient gradientUnits="objectBoundingBox" id="linear_0" x1="0" x2="1" y1="0" y2="1">
   <stop offset="0" stop-color="#000000" stop-opacity="0.95686274509803926"/>
   <stop offset="1" stop-color="#000000" stop-opacity="0"/>
  </linearGradient>
 </defs>
 <metadata>
  <atv:gridconfig enabled="true" gridstyle="lines" height="20" width="20"/>
  <atv:snapconfig enabled="true" height="1" width="1"/>
 </metadata>
 <g atv:insensitive="true" atv:refpx="0" atv:refpy="0" id="id_10">
  <rect atv:refpx="290.25" atv:refpy="165" fill="#ffffff" fill-opacity="0" height="330.00" id="id_15" width="580.50" x="0" y="0"/>
 </g>
 <script atv:desc="" atv:name="" type="text/ecmascript"/>
 <svg atv:refpx="318.99" atv:refpy="252.078" height="63.11" id="id_8" transform="matrix(0.7519,0,0,0.7289,0,0)" width="133" x="377.71" xlink:href="ObjectTypes.PROJECT.ElementoLineaAR.Principal" y="290.27">
  <atv:argument name="base" value="AGENT.OBJECTS.SCADA.Isla_Mujeres.Cuencas.Cuenca_PTAR_IM.Carcamo_Coral"/>
 </svg>
 <line atv:refpx="406" atv:refpy="97.5" id="id_76" stroke="#d60000" stroke-linecap="round" stroke-linejoin="round" stroke-width="2" x1="385" x2="427" y1="97" y2="97"/>
 <line atv:refpx="406.501" atv:refpy="197.999" id="id_16" stroke="#0bd900" stroke-linecap="round" stroke-linejoin="round" stroke-opacity="0.956863" stroke-width="2" x1="406.001" x2="406.001" y1="162" y2="234"/>
 <line atv:refpx="247.5" atv:refpy="234.657" id="id_102" stroke="#ffa340" stroke-linecap="round" stroke-linejoin="round" stroke-width="2" x1="226" x2="269" y1="234.157" y2="234.157"/>
 <line atv:refpx="268.5" atv:refpy="146.302" id="id_92" stroke="#ffa340" stroke-linecap="round" stroke-linejoin="round" stroke-width="2" x1="269" x2="269" y1="233" y2="30"/>
 <line atv:refpx="-157.5" atv:refpy="118.501" id="id_84" stroke="#ffa200" stroke-linecap="round" stroke-linejoin="round" stroke-opacity="0.956863" stroke-width="2" x1="50.001" x2="50.001" y1="301.501" y2="271.501"/>
 <polygon atv:refpx="-156.498" atv:refpy="527.501" fill="#ffa318" id="id_85" points="40.001,271.5 60.001,271.5 50.001,258.5 50.001,258.5" stroke="#000000" stroke-linecap="round" stroke-linejoin="round" stroke-opacity="0" stroke-width="2"/>
 <line atv:refpx="455.251" atv:refpy="-24.5" id="id_88" stroke="#ffa340" stroke-linecap="round" stroke-linejoin="round" stroke-width="2" x1="188.251" x2="188.251" y1="169" y2="199"/>
 <polygon atv:refpx="173.252" atv:refpy="223" fill="#ffa318" id="id_89" points="198.251,198.999 178.251,198.999 188.251,211.999 188.251,211.999" stroke="#ffa340" stroke-linecap="round" stroke-linejoin="round" stroke-width="2"/>
 <line atv:refpx="-219.804" atv:refpy="34" id="id_80" stroke="#ffa340" stroke-linecap="round" stroke-linejoin="round" stroke-width="2" x1="99" x2="136.287" y1="11" y2="11"/>
 <polygon atv:refpx="132.786" atv:refpy="11" fill="#ffa318" id="id_81" points="126.286,1 126.286,21 139.286,11 139.286,11" stroke="#ffa340" stroke-linecap="round" stroke-linejoin="round" stroke-width="2"/>
 <line atv:refpx="109" atv:refpy="234.657" id="id_27" stroke="#ffa340" stroke-linecap="round" stroke-linejoin="round" stroke-width="2" x1="94" x2="124" y1="234.157" y2="234.157"/>
 <polygon atv:refpx="130.499" atv:refpy="234.157" fill="#ffa319" id="id_28" points="123.999,224.156 123.999,244.156 136.999,234.156 136.999,234.156" stroke="#ffa340" stroke-linecap="round" stroke-linejoin="round" stroke-width="2"/>
 <rect atv:refpx="504.5" atv:refpy="63.5" fill="#000088" fill-opacity="0" height="121" id="id_58" rx="0" ry="0" stroke="#000072" stroke-width="1" width="151" x="429" y="3"/>
 <svg atv:refpx="50.001" atv:refpy="25" height="63.11" id="id_0" transform="matrix(0.7519,0,0,0.7289,0,0)" width="133" x="0" xlink:href="ObjectTypes.PROJECT.ElementoLineaAR.Principal" y="2.744">
  <atv:argument name="base" value="AGENT.OBJECTS.SCADA.Isla_Mujeres.Cuencas.Cuenca_PTAR_IM.Carcamo_001_IM"/>
 </svg>
 <svg atv:refpx="188.252" atv:refpy="25" height="63.11" id="id_2" transform="matrix(0.7519,0,0,0.7289,0,0)" width="133" x="183.868" xlink:href="ObjectTypes.PROJECT.ElementoLineaAR.Principal" y="2.744">
  <atv:argument name="base" value="AGENT.OBJECTS.SCADA.Isla_Mujeres.Cuencas.Cuenca_PTAR_IM.Carcamo_002_IM"/>
 </svg>
 <svg atv:refpx="318.99" atv:refpy="113.5" height="63.11" id="id_3" transform="matrix(0.7519,0,0,0.7289,0,0)" width="133" x="377.71" xlink:href="ObjectTypes.PROJECT.ElementoLineaAR.Principal" y="100.151">
  <atv:argument name="base" value="AGENT.OBJECTS.SCADA.Isla_Mujeres.Cuencas.Cuenca_PTAR_IM.Carcamo_Ampliacion"/>
 </svg>
 <svg atv:refpx="50.001" atv:refpy="307" height="63.11" id="id_4" transform="matrix(0.7519,0,0,0.7289,0,0)" width="133" x="0" xlink:href="ObjectTypes.PROJECT.ElementoLineaAR.Principal" y="389.628">
  <atv:argument name="base" value="AGENT.OBJECTS.SCADA.Isla_Mujeres.Cuencas.Cuenca_PTAR_IM.Carcamo_Caridad_Cobre"/>
 </svg>
 <svg atv:refpx="34.996" atv:refpy="252.076" height="63.11" id="id_5" transform="matrix(0.7519,0,0,0.7289,0,0)" width="133" x="0" xlink:href="ObjectTypes.PROJECT.ElementoLineaAR.Principal" y="290.27">
  <atv:argument name="base" value="AGENT.OBJECTS.SCADA.Isla_Mujeres.Cuencas.Cuenca_PTAR_IM.Carcamo_Cañotal"/>
 </svg>
 <svg atv:refpx="50.001" atv:refpy="96" height="63.11" id="id_6" transform="matrix(0.7519,0,0,0.7289,0,0)" width="133" x="0" xlink:href="ObjectTypes.PROJECT.ElementoLineaAR.Principal" y="100.151">
  <atv:argument name="base" value="AGENT.OBJECTS.SCADA.Isla_Mujeres.Cuencas.Cuenca_PTAR_IM.Carcamo_Electricistas"/>
 </svg>
 <svg atv:refpx="489.491" atv:refpy="113.494" height="63.11" id="id_7" transform="matrix(0.7519,0,0,0.7289,0,0)" width="133" x="604.467" xlink:href="ObjectTypes.PROJECT.ElementoLineaAR.Principal" y="100.151">
  <atv:argument name="base" value="AGENT.OBJECTS.SCADA.Isla_Mujeres.Cuencas.Cuenca_PTAR_IM.Carcamo_Final_PTAR_IM"/>
 </svg>
 <svg atv:refpx="489.483" atv:refpy="252.077" height="63.11" id="id_14" transform="matrix(0.7519,0,0,0.7289,0,0)" width="133" x="604.467" xlink:href="ObjectTypes.PROJECT.ElementoLineaAR.Principal" y="290.27">
  <atv:argument name="base" value="AGENT.OBJECTS.SCADA.Isla_Mujeres.Cuencas.Cuenca_PTAR_IM.Carcamo_Fovissste_IM"/>
 </svg>
 <svg atv:refpx="173.25" atv:refpy="182.12" height="63.11" id="id_18" transform="matrix(0.7519,0,0,0.7289,0,0)" width="133" x="183.868" xlink:href="ObjectTypes.PROJECT.ElementoLineaAR.Principal" y="194.3">
  <atv:argument name="base" value="AGENT.OBJECTS.SCADA.Isla_Mujeres.Cuencas.Cuenca_PTAR_IM.Carcamo_Miraflores"/>
 </svg>
 <svg atv:refpx="489.486" atv:refpy="182.123" height="63.11" id="id_19" transform="matrix(0.7519,0,0,0.7289,0,0)" width="133" x="604.467" xlink:href="ObjectTypes.PROJECT.ElementoLineaAR.Principal" y="194.3">
  <atv:argument name="base" value="AGENT.OBJECTS.SCADA.Isla_Mujeres.Cuencas.Cuenca_PTAR_IM.Carcamo_Oriente"/>
 </svg>
 <svg atv:refpx="188.251" atv:refpy="234.579" height="63.11" id="id_20" transform="matrix(0.7519,0,0,0.7289,0,0)" width="133" x="183.868" xlink:href="ObjectTypes.PROJECT.ElementoLineaAR.Principal" y="290.27">
  <atv:argument name="base" value="AGENT.OBJECTS.SCADA.Isla_Mujeres.Cuencas.Cuenca_PTAR_IM.Carcamo_Poniente"/>
 </svg>
 <line atv:refpx="425.5" atv:refpy="199.5" id="id_59" stroke="#0bd900" stroke-linecap="round" stroke-linejoin="round" stroke-opacity="0.956863" stroke-width="2" x1="445" x2="406" y1="201" y2="201"/>
 <polygon atv:refpx="269" atv:refpy="31.5" fill="#ffa318" id="id_47" points="259,41 279,41 269,28 269,28" stroke="#ffa340" stroke-linecap="round" stroke-linejoin="round" stroke-width="2"/>
 <polygon atv:refpx="422.5" atv:refpy="25" fill="#ffa318" id="id_103" points="416,15 416,35 429,25 429,25" stroke="#ffa340" stroke-linecap="round" stroke-linejoin="round" stroke-width="2"/>
 <svg atv:refpx="318.989" atv:refpy="182.125" height="63.11" id="id_13" transform="matrix(0.7519,0,0,0.7289,0,0)" width="133" x="377.71" xlink:href="ObjectTypes.PROJECT.ElementoLineaAR.Principal" y="194.3">
  <atv:argument name="base" value="AGENT.OBJECTS.SCADA.Isla_Mujeres.Cuencas.Cuenca_PTAR_IM.Carcamo_Garrafon"/>
 </svg>
 <line atv:refpx="316.865" atv:refpy="24.5" id="id_1" stroke="#ffa340" stroke-linecap="round" stroke-linejoin="round" stroke-width="2" x1="237" x2="424" y1="25" y2="25"/>
 <polygon atv:refpx="-19.248" atv:refpy="536.001" fill="#ffa318" id="id_17" points="178.251,271.5 198.251,271.5 188.251,258.5 188.251,258.5" stroke="#000000" stroke-linecap="round" stroke-linejoin="round" stroke-opacity="0" stroke-width="2"/>
 <line atv:refpx="-19.25" atv:refpy="119.501" fill="#ffa318" id="id_9" stroke="#ffa200" stroke-linecap="round" stroke-linejoin="round" stroke-opacity="0.956863" stroke-width="2" x1="188.251" x2="188.251" y1="301.501" y2="271.501"/>
 <svg atv:refpx="173.25" atv:refpy="324.498" height="63.11" id="id_21" transform="matrix(0.7519,0,0,0.7289,0,0)" width="133" x="183.868" xlink:href="ObjectTypes.PROJECT.ElementoLineaAR.Principal" y="389.628">
  <atv:argument name="base" value="AGENT.OBJECTS.SCADA.Isla_Mujeres.Cuencas.Cuenca_PTAR_IM.Carcamo_Sacbajo"/>
 </svg>
 <line atv:refpx="106.5" atv:refpy="97.5" id="id_25" stroke="#ffa340" stroke-linecap="round" stroke-linejoin="round" stroke-width="2" x1="100" x2="113" y1="97" y2="97"/>
 <line atv:refpx="114" atv:refpy="66" id="id_26" stroke="#ffa340" stroke-linecap="round" stroke-linejoin="round" stroke-width="2" x1="113.5" x2="113.5" y1="35" y2="97"/>
 <circle atv:refpx="113.5" atv:refpy="60.213" cx="113.5" cy="60.213" fill="#ffa318" id="id_29" r="14.213" stroke="#ffa340" stroke-linecap="round" stroke-linejoin="round" stroke-width="2"/>
 <text atv:refpx="122" atv:refpy="57.5" fill="#000000" font-family="Arial" font-size="10" font-weight="bold" id="id_30" x="102.5" y="64">2BIS</text>
 <polygon atv:refpx="132.5" atv:refpy="36" fill="#ffa318" id="id_32" points="126,26 126,46 139,36 139,36" stroke="#ffa340" stroke-linecap="round" stroke-linejoin="round" stroke-width="2"/>
 <line atv:refpx="122.5" atv:refpy="35.5" id="id_33" stroke="#ffa340" stroke-linecap="round" stroke-linejoin="round" stroke-width="2" x1="114" x2="131" y1="35" y2="35"/>
 <line atv:refpx="-157.5" atv:refpy="118.501" fill="#ffa318" id="id_35" stroke="#ffa200" stroke-linecap="round" stroke-linejoin="round" stroke-opacity="0.956863" stroke-width="2" x1="188.251" x2="188.251" y1="90.001" y2="60.001"/>
 <polygon atv:refpx="-157.498" atv:refpy="535.001" fill="#ffa318" id="id_36" points="178.251,60 198.251,60 188.251,47 188.251,47" stroke="#000000" stroke-linecap="round" stroke-linejoin="round" stroke-opacity="0" stroke-width="2"/>
 <svg atv:refpx="188.251" atv:refpy="96" height="63.11" id="id_22" transform="matrix(0.7519,0,0,0.7289,0,0)" width="133" x="183.868" xlink:href="ObjectTypes.PROJECT.ElementoLineaAR.Principal" y="100.151">
  <atv:argument name="base" value="AGENT.OBJECTS.SCADA.Isla_Mujeres.Cuencas.Cuenca_PTAR_IM.Carcamo_Salinas"/>
 </svg>
 <polygon atv:refpx="423.5" atv:refpy="97" fill="#d5001c" id="id_37" points="417,87 417,107 430,97 430,97" stroke="#d60000" stroke-linecap="round" stroke-linejoin="round" stroke-width="2"/>
 <line atv:refpx="395.5" atv:refpy="234.657" id="id_38" stroke="#0bd900" stroke-linecap="round" stroke-linejoin="round" stroke-opacity="0.956863" stroke-width="2" x1="385" x2="406" y1="234.157" y2="234.157"/>
 <line atv:refpx="395.5" atv:refpy="162.5" id="id_39" stroke="#0bd900" stroke-linecap="round" stroke-linejoin="round" stroke-opacity="0.956863" stroke-width="2" x1="385" x2="406" y1="162" y2="162"/>
 <line atv:refpx="445.5" atv:refpy="164.5" id="id_40" stroke="#0bd900" stroke-linecap="round" stroke-linejoin="round" stroke-opacity="0.956863" stroke-width="2" x1="445" x2="445" y1="129" y2="200"/>
 <line atv:refpx="505" atv:refpy="135" fill="#d700de" fill-opacity="0.964706" id="id_41" stroke="#d700de" stroke-linecap="round" stroke-linejoin="round" stroke-width="2" x1="504.5" x2="504.5" y1="142" y2="128"/>
 <line atv:refpx="505" atv:refpy="201.5" fill="#d700de" fill-opacity="0.964706" id="id_42" stroke="#d700de" stroke-linecap="round" stroke-linejoin="round" stroke-width="2" x1="504.5" x2="504.5" y1="212" y2="191"/>
 <polygon atv:refpx="426.5" atv:refpy="199" fill="#0bd915" id="id_43" points="420,191 420,211 433,201 433,201" stroke="#0bd900" stroke-linecap="round" stroke-linejoin="round" stroke-opacity="0.956863" stroke-width="2"/>
 <polygon atv:refpx="504.5" atv:refpy="193.5" fill="#d700de" fill-opacity="0.964706" id="id_46" points="494.5,200 514.5,200 504.5,187 504.5,187" stroke="#000000" stroke-linecap="round" stroke-linejoin="round" stroke-opacity="0" stroke-width="2"/>
 <polygon atv:refpx="504.5" atv:refpy="129.5" fill="#d700de" fill-opacity="0.964706" id="id_48" points="494.5,138 514.5,138 504.5,125 504.5,125" stroke="#000000" stroke-linecap="round" stroke-linejoin="round" stroke-opacity="0" stroke-width="2"/>
 <polygon atv:refpx="444" atv:refpy="131.5" fill="#0bd915" id="id_49" points="434,139 454,139 444,126 444,126" stroke="#0bd900" stroke-linecap="round" stroke-linejoin="round" stroke-opacity="0.956863" stroke-width="2"/>
 <text atv:refpx="504.5" atv:refpy="52.5" fill="#000018" font-family="Arial" font-size="18" font-weight="bold" id="id_50" x="452.5" y="59">Isla Mujeres</text>
 <text atv:refpx="504.5" atv:refpy="23" fill="#000018" font-family="Arial" font-size="18" font-weight="bold" id="id_51" x="480.5" y="29.5">PTAR</text>
 <svg atv:refpx="503" atv:refpy="296" height="63.11" id="id_11" transform="matrix(0.7519,0,0,0.7289,0,0)" width="133" x="602.49" xlink:href="ObjectTypes.PROJECT.ElementoLineaAR.Principal" y="374.544">
  <atv:argument name="base" value="AGENT.OBJECTS.SCADA.Isla_Mujeres.Cuencas.Cuenca_PTAR_IM.Carcamo_Convenciones"/>
 </svg>
</svg>
