<?xml version='1.0' encoding='UTF-8' standalone='no'?>
<svg height="648" version="1.2" width="352" xmlns="http://www.w3.org/2000/svg" xmlns:atv="http://webmi.atvise.com/2007/svgext" xmlns:xlink="http://www.w3.org/1999/xlink">
 <defs/>
 <metadata>
  <atv:parameter behavior="optional" defaultvalue="Inactivo" desc="" name="status" substitute="$status$" valuetype="address"/>
  <atv:parameter behavior="optional" defaultvalue="CFE" name="transfer" substitute="$transfer$" valuetype="address"/>
  <atv:gridconfig enabled="false" gridstyle="lines" height="20" width="20"/>
  <atv:snapconfig enabled="false" height="10" width="10"/>
 </metadata>
 <rect atv:refpx="-1568.004" atv:refpy="-1650.176" fill="none" height="646" id="id_7" stroke="#000090" stroke-width="1" width="349" x="1" y="1"/>
 <text atv:refpx="175.955" atv:refpy="34.044" fill="#030303" font-family="Arial" font-size="12" id="id_22" transform="matrix(1.7737,0,0,1.7065,-47.6571,-5.5388)" x="66.096" y="23.84">Planta de emergencia</text>
 <svg atv:refpx="176.358" atv:refpy="90.87" height="160" id="id_0" transform="matrix(2.0045,0,0,0.4985,0,0)" width="160" x="7.982" xlink:href="SYSTEM.LIBRARY.ATVISE.OBJECTDISPLAYS.Advanced.dashboard.chart_progress_tile" y="102.27">
  <atv:argument name="backgroundColor" value="SYSTEM.GLOBALS.Colors.Blanco"/>
  <atv:argument name="borderColor" value="SYSTEM.GLOBALS.Colors.Blanco"/>
  <atv:argument name="title" value="T{Nivel de diesel}"/>
  <atv:argument name="unit" value="T{%}"/>
  <atv:argument name="postDecimals" value="2"/>
  <atv:argument name="fontSizeTitle" value="20"/>
  <atv:overwrite height="54.765" id="clickarea_display" transform="matrix(0.4989,0,0,2.0059,0,0)" width="320.72"/>
  <atv:overwrite height="55.235" id="clickarea_title" transform="matrix(0.4989,0,0,-2.0059,0,0)" width="320.72"/>
  <atv:overwrite id="sub_label" transform="matrix(0.4989,0,0,2.0059,0,0)" x="160.36" y="69.128"/>
  <atv:overwrite id="main_label" transform="matrix(0.4989,0,0,2.0059,0,0)" x="160.36" y="50.382"/>
  <atv:overwrite height="75.765" id="blinking_frame" transform="matrix(0.4989,0,0,2.0059,0,0)" width="316.72"/>
  <atv:overwrite height="49.765" id="content_frame" transform="matrix(0.4989,0,0,2.0059,0,0)" width="310.72"/>
  <atv:overwrite id="chart" transform="matrix(1.0334,0,0,0.7679,0,0)" x="2.414" y="65.307"/>
  <atv:overwrite id="title" transform="matrix(0.4989,0,0,2.0059,0,0)" x="160.36"/>
  <atv:overwrite height="77.765" id="background" transform="matrix(0.4989,0,0,2.0059,0,0)" width="318.72"/>
 </svg>
 <text atv:refpx="152.574" atv:refpy="168.793" fill="#030303" font-family="Arial" font-size="18" font-weight="bold" id="id_5" transform="matrix(1.7737,0,0,1.7065,-12.3794,-101.167)" x="20.5" y="164.695">Estatus: $status$</text>
 <svg atv:refpx="175.402" atv:refpy="453.833" height="600" id="id_1" transform="matrix(0.4332,0,0,0.6402,0,0)" width="800" x="4.931" xlink:href="SYSTEM.LIBRARY.ATVISE.OBJECTDISPLAYS.Advanced.hmi.iframe" y="408.909">
  <atv:argument name="frameName" value="equipos"/>
  <atv:argument name="base" prefix="base"/>
 </svg>
 <script atv:desc="" atv:name="" type="text/ecmascript"><![CDATA[var name;
name = webMI.query["base"];
webMI.addOnload(function(e) {
var id = "";
var value = true;
webMI.display.openDisplay(name + ".estatus_equipos", {base: name}, "equipos");
});




]]></script>
 <text atv:refpx="119.762" atv:refpy="217.744" fill="#030303" font-family="Arial" font-size="18" font-weight="bold" id="id_2" transform="matrix(1.7737,0,0,1.7065,-12.3794,-135.752)" x="20.5" y="213.647">Fuente: $transfer$</text>
</svg>
