<?xml version='1.0' encoding='utf-8'?>
<!-- Uploaded to: SVG Repo, www.svgrepo.com, Generator: SVG Repo Mixer Tools -->
<svg height="64" version="1.1" width="64" xml:space="preserve" xmlns="http://www.w3.org/2000/svg" xmlns:atv="http://webmi.atvise.com/2007/svgext" xmlns:xlink="http://www.w3.org/1999/xlink">
 <defs/>
 <metadata>
  <atv:gridconfig enabled="false" gridstyle="lines" height="20" width="20"/>
  <atv:snapconfig enabled="false" height="10" width="10"/>
 </metadata>
 <style type="text/css">
	.st0{fill:#C75C5C;}
	.st1{opacity:0.2;}
	.st2{fill:#231F20;}
	.st3{fill:#F5CF87;}
	.st4{fill:#4F5D73;}
</style>
 <circle atv:refpx="32" atv:refpy="32" class="st0" cx="32" cy="32" fill="#c75c5c" id="id_0" r="32" stroke-width="1"/>
 <path atv:refpx="32" atv:refpy="32.075" class="st2" d="M17,50C12.6,50 10.8,46.9 13,43.1L28,17C30.2,13.2 33.8,13.2 36,17L51,43.1C53.2,46.9 51.4,50 47,50Z" fill="#a65050" id="id_1" stroke-width="1"/>
 <path atv:refpx="32" atv:refpy="30.075" class="st3" d="M17,48C12.6,48 10.8,44.9 13,41.1L28,15C30.2,11.2 33.8,11.2 36,15L51,41.1C53.2,44.9 51.4,48 47,48Z" fill="#f5cf87" id="id_2" stroke-width="1"/>
 <path atv:refpx="32" atv:refpy="28" class="st4" d="M34,32C34,33.1 33.1,34 32,34C30.9,34 30,33.1 30,32L30,24C30,22.9 30.9,22 32,22C33.1,22 34,22.9 34,24Z" fill="#4f5d73" id="id_3" stroke-width="1"/>
 <path atv:refpx="32" atv:refpy="40" class="st4" d="M34,40C34,41.1 33.1,42 32,42C30.9,42 30,41.1 30,40C30,38.9 30.9,38 32,38C33.1,38 34,38.9 34,40" fill="#4f5d73" id="id_4" stroke-width="1"/>
 <g atv:refpx="0" atv:refpy="0" id="Layer_2"/>
</svg>
