<?xml version='1.0' encoding='UTF-8' standalone='no'?>
<svg enable-background="new 0 0 16 16" height="60" id="Ebene_1" version="1.1" width="60" x="0px" xml:space="preserve" y="0px" xmlns="http://www.w3.org/2000/svg" xmlns:atv="http://webmi.atvise.com/2007/svgext" xmlns:xlink="http://www.w3.org/1999/xlink">
 <defs>
  <linearGradient gradientUnits="objectBoundingBox" id="SVGID_1_" x1="-0.290145" x2="0.792871" y1="0.136603" y2="0.639639">
   <stop offset="0" stop-color="#9d9d9c"/>
   <stop offset="1" stop-color="#c3c3b"/>
  </linearGradient>
  <linearGradient gradientUnits="objectBoundingBox" id="SVGID_2_" x1="0.0373956" x2="0.933879" y1="0.0373166" y2="1.06773">
   <stop offset="0" stop-color="#9d9d9c"/>
   <stop offset="1" stop-color="#c3c3b"/>
  </linearGradient>
 </defs>
 <metadata>
  <atv:parameter behavior="optional" defaultvalue="#000000" desc="symbol color" name="symbolColor" substitute="$SYMBOLCOLOR$" valuetype="color"/>
  <atv:parameter behavior="optional" defaultvalue="#ffffff" desc="symbol color 2" name="symbolColor2" substitute="$SYMBOLCOLOR2$" valuetype="color"/>
  <atv:gridconfig enabled="false" gridstyle="lines" height="20" width="20"/>
  <atv:snapconfig enabled="false" height="10" width="10"/>
 </metadata>
 <g atv:refpx="30" atv:refpy="30" id="id_5" transform="matrix(1,0,0,1,0.0658,3.2684)">
  <path atv:refpx="101.824" atv:refpy="34.485" d="M48.235,22.797L48.195,46.165L48.379,46.165L59.021,23.198C59.123,22.976 58.959,22.803 58.662,22.803" fill="$SYMBOLCOLOR$" id="id_0" stroke-width="1.117"/>
  <path atv:refpx="23.506" atv:refpy="33.758" d="M45.592,12.461L21.383,12.461L21.383,7.582C21.383,7.271 21.129,7.021 20.813,7.021L4.242,7.021C3.929,7.021 3.676,7.271 3.676,7.582L3.676,12.461L1.41,12.461C1.097,12.461 0.847,12.714 0.847,13.027L0.847,45.875C0.847,46.191 1.097,46.442 1.41,46.442L45.592,46.442C45.911,46.442 46.162,46.191 46.162,45.875L46.162,13.027C46.162,12.714 45.911,12.461 45.592,12.461" fill="$SYMBOLCOLOR$" id="id_1" stroke-width="1.117"/>
  <g atv:refpx="22.126" atv:refpy="23.57" id="id_13" transform="matrix(3.2557,0,0,3.2557,-4.3608,-6.2925)">
   <text atv:refpx="-4.931" atv:refpy="17.093" fill="$SYMBOLCOLOR2$" font-family="Arial" font-size="7" font-weight="bold" id="id_2" transform="matrix(0.5594,0,0,0.5594,2.1057,3.2397)" x="8.779" y="17.353">R</text>
   <polygon atv:refpx="13.936" atv:refpy="15.147" fill="none" id="id_3" points="5.572,6.658 5.572,15.32 11.347,15.32 11.347,8.583 9.422,6.658" stroke="$SYMBOLCOLOR2$" stroke-width="0.385"/>
   <polyline atv:refpx="26.452" atv:refpy="4.809" fill="$SYMBOLCOLOR2$" id="id_4" points="9.326,6.828 9.326,8.753 11.251,8.753" stroke="none" stroke-width="0.385"/>
   <rect atv:refpx="11.298" atv:refpy="13.918" fill="$SYMBOLCOLOR2$" height="0.28" id="id_6" stroke="none" stroke-width="0.386" width="2.618" x="6.24" y="8.382"/>
   <rect atv:refpx="11.299" atv:refpy="12.147" fill="$SYMBOLCOLOR2$" height="0.28" id="id_7" stroke="none" stroke-width="0.386" width="2.618" x="6.24" y="7.496"/>
   <rect atv:refpx="8.999" atv:refpy="19.701" fill="$SYMBOLCOLOR2$" height="0.28" id="id_8" stroke="none" stroke-width="0.386" width="4.441" x="6.24" y="9.267"/>
   <rect atv:refpx="9" atv:refpy="34.89" fill="$SYMBOLCOLOR2$" height="0.28" id="id_9" stroke="none" stroke-width="0.386" width="4.441" x="6.24" y="14.328"/>
   <rect atv:refpx="9" atv:refpy="32.522" fill="$SYMBOLCOLOR2$" height="0.28" id="id_11" stroke="none" stroke-width="0.386" width="4.441" x="6.24" y="13.539"/>
  </g>
 </g>
 <script atv:desc="" atv:name="" type="text/ecmascript"/>
</svg>
