<?xml version='1.0' encoding='UTF-8' standalone='no'?>
<svg height="676" version="1.2" width="691.99000000000001" xmlns="http://www.w3.org/2000/svg" xmlns:atv="http://webmi.atvise.com/2007/svgext" xmlns:xlink="http://www.w3.org/1999/xlink">
 <defs/>
 <metadata>
  <atv:gridconfig enabled="false" gridstyle="lines" height="20" width="20"/>
  <atv:snapconfig enabled="true" height="1" width="1"/>
 </metadata>
 <g atv:insensitive="true" atv:refpx="0" atv:refpy="0" id="id_55">
  <rect atv:refpx="345.995" atv:refpy="338" fill="#ffffff" fill-opacity="0" height="676.00" id="id_61" width="691.99" x="0" y="0"/>
 </g>
 <line atv:refpx="0" atv:refpy="0" id="id_104" stroke="#000000" stroke-linecap="round" stroke-linejoin="round" stroke-width="2.015" x1="167" x2="167" y1="270" y2="239"/>
 <line atv:refpx="169.251" atv:refpy="81.5" id="id_43" stroke="#000000" stroke-linecap="round" stroke-linejoin="round" stroke-width="2.015" x1="168.751" x2="168.751" y1="97" y2="66"/>
 <line atv:refpx="929.934" atv:refpy="261.156" fill="#000000" id="id_72" stroke="#000000" stroke-linecap="round" stroke-linejoin="round" stroke-width="2" x1="220" x2="385" y1="129.75" y2="129.75"/>
 <line atv:refpx="288.503" atv:refpy="181.488" fill="#000000" id="id_11" stroke="#000000" stroke-linecap="round" stroke-linejoin="round" stroke-width="2" x1="297.001" x2="297.001" y1="130" y2="208"/>
 <line atv:refpx="173.251" atv:refpy="417" id="id_44" stroke="#000000" stroke-linecap="round" stroke-linejoin="round" stroke-width="2.015" x1="168.751" x2="168.751" y1="402" y2="432"/>
 <polygon atv:refpx="172.752" atv:refpy="397.094" fill="#000018" id="id_118" points="158.751,403.688 178.751,403.688 168.751,390.499 168.751,390.499" stroke="#000000" stroke-linecap="round" stroke-linejoin="round" stroke-opacity="0" stroke-width="2.015"/>
 <line atv:refpx="561.251" atv:refpy="532.998" id="id_111" stroke="#000000" stroke-linecap="round" stroke-linejoin="round" stroke-width="2" x1="584.251" x2="538.251" y1="532.498" y2="532.498"/>
 <polygon atv:refpx="322.844" atv:refpy="448.999" fill="#000018" id="id_112" points="576.06,522.497 576.06,542.497 589.25,532.497 589.25,532.497" stroke="#000000" stroke-linecap="round" stroke-linejoin="round" stroke-opacity="0" stroke-width="2.015"/>
 <g atv:refpx="564.751" atv:refpy="277" id="id_88" transform="matrix(-1,0,0,-1,928.7507,762.5005)">
  <line atv:refpx="366" atv:refpy="483.001" id="id_89" stroke="#000000" stroke-linecap="round" stroke-linejoin="round" stroke-width="2" x1="344" x2="388" y1="482.501" y2="482.501"/>
  <polygon atv:refpx="346.593" atv:refpy="482.501" fill="#000018" id="id_90" points="352.189,492.5 352.189,472.5 339,482.5 339,482.5" stroke="#000000" stroke-linecap="round" stroke-linejoin="round" stroke-opacity="0" stroke-width="2.015"/>
 </g>
 <g atv:refpx="98.251" atv:refpy="15" id="id_14" transform="matrix(1,0,0,1,-1.2493,-358.0002)">
  <line atv:refpx="432.5" atv:refpy="205.406" fill="#000000" id="id_75" stroke="#000000" stroke-linecap="round" stroke-linejoin="round" stroke-width="2" x1="79.5" x2="117.5" y1="383" y2="383"/>
  <polygon atv:refpx="525" atv:refpy="197.596" fill="#000018" id="id_76" points="107.309,373 107.309,393 120.5,383 120.5,383" stroke="#000000" stroke-linecap="round" stroke-linejoin="round" stroke-opacity="0" stroke-width="2"/>
 </g>
 <g atv:refpx="219.251" atv:refpy="15.938" id="id_1" transform="matrix(1,0,0,1,8.7507,-359.0617)">
  <line atv:refpx="432.5" atv:refpy="205.406" fill="#000000" id="id_120" stroke="#000000" stroke-linecap="round" stroke-linejoin="round" stroke-width="2" x1="199.5" x2="237.5" y1="384" y2="384"/>
  <polygon atv:refpx="525" atv:refpy="197.596" fill="#000018" id="id_121" points="227.309,374 227.309,394 240.5,384 240.5,384" stroke="#000000" stroke-linecap="round" stroke-linejoin="round" stroke-opacity="0" stroke-width="2"/>
 </g>
 <svg atv:refpx="177.739" atv:refpy="449.998" height="63.11" id="id_2" transform="matrix(0.7519,0,0,0.7289,0,0)" width="133" x="157.933" xlink:href="ObjectTypes.PROJECT.ElementoLinea.Principal" y="589.931">
  <atv:argument name="base" value="AGENT.OBJECTS.SCADA.Benito_Juarez.Circuitos.Circuito_CAP_011.Carcamo_0+000"/>
 </svg>
 <svg atv:refpx="172.746" atv:refpy="21.931" height="63.11" id="id_3" transform="matrix(0.7519,0,0,0.7289,0,0)" width="133" x="157.933" xlink:href="ObjectTypes.PROJECT.ElementoLinea.Principal" y="2.659">
  <atv:argument name="base" value="AGENT.OBJECTS.SCADA.Benito_Juarez.Circuitos.Circuito_CAP_011.Carcamo_010"/>
 </svg>
 <svg atv:refpx="50" atv:refpy="19.993" height="63.11" id="id_4" transform="matrix(0.7519,0,0,0.7289,0,0)" width="133" x="0" xlink:href="ObjectTypes.PROJECT.ElementoLinea.Principal" y="0">
  <atv:argument name="base" value="AGENT.OBJECTS.SCADA.Benito_Juarez.Circuitos.Circuito_CAP_011.Carcamo_011"/>
 </svg>
 <svg atv:refpx="488.248" atv:refpy="506.998" height="63.11" id="id_6" transform="matrix(0.7519,0,0,0.7289,0,0)" width="133" x="582.863" xlink:href="ObjectTypes.PROJECT.ElementoLinea.Principal" y="664.014">
  <atv:argument name="base" value="AGENT.OBJECTS.SCADA.Benito_Juarez.Circuitos.Circuito_CAP_011.Carcamo_2000_Oriente"/>
 </svg>
 <svg atv:refpx="172.744" atv:refpy="126.743" height="63.11" id="id_7" transform="matrix(0.7519,0,0,0.7289,0,0)" width="133" x="157.933" xlink:href="ObjectTypes.PROJECT.ElementoLinea.Principal" y="146.453">
  <atv:argument name="base" value="AGENT.OBJECTS.SCADA.Benito_Juarez.Circuitos.Circuito_CAP_011.Carcamo_Aeropuerto_ZU"/>
 </svg>
 <svg atv:refpx="640.418" atv:refpy="501.498" height="63.11" id="id_8" transform="matrix(0.7519,0,0,0.7289,0,0)" width="133" x="785.239" xlink:href="ObjectTypes.PROJECT.ElementoLinea.Principal" y="656.465">
  <atv:argument name="base" value="AGENT.OBJECTS.SCADA.Benito_Juarez.Circuitos.Circuito_CAP_011.Carcamo_Almendros"/>
 </svg>
 <svg atv:refpx="488.261" atv:refpy="277" height="63.11" id="id_10" transform="matrix(0.7519,0,0,0.7289,0,0)" width="133" x="582.87" xlink:href="ObjectTypes.PROJECT.ElementoLinea.Principal" y="352.586">
  <atv:argument name="base" value="AGENT.OBJECTS.SCADA.Benito_Juarez.Circuitos.Circuito_CAP_011.Carcamo_Bonampak"/>
 </svg>
 <svg atv:refpx="488.253" atv:refpy="388.996" height="63.11" id="id_13" transform="matrix(0.7519,0,0,0.7289,0,0)" width="133" x="582.87" xlink:href="ObjectTypes.PROJECT.ElementoLinea.Principal" y="506.243">
  <atv:argument name="base" value="AGENT.OBJECTS.SCADA.Benito_Juarez.Circuitos.Circuito_CAP_011.Carcamo_Cumbres"/>
 </svg>
 <svg atv:refpx="485.249" atv:refpy="608.996" height="63.11" id="id_15" transform="matrix(0.7519,0,0,0.7289,0,0)" width="133" x="582.87" xlink:href="ObjectTypes.PROJECT.ElementoLinea.Principal" y="809.439">
  <atv:argument name="base" value="AGENT.OBJECTS.SCADA.Benito_Juarez.Circuitos.Circuito_CAP_011.Carcamo_El_table"/>
 </svg>
 <svg atv:refpx="640.417" atv:refpy="388.996" height="63.11" id="id_25" transform="matrix(0.7519,0,0,0.7289,0,0)" width="133" x="785.239" xlink:href="ObjectTypes.PROJECT.ElementoLinea.Principal" y="506.243">
  <atv:argument name="base" value="AGENT.OBJECTS.SCADA.Benito_Juarez.Circuitos.Circuito_CAP_011.Carcamo_Fonatur_SM10"/>
 </svg>
 <svg atv:refpx="488.249" atv:refpy="46.993" height="63.11" id="id_27" transform="matrix(0.7519,0,0,0.7289,0,0)" width="133" x="582.87" xlink:href="ObjectTypes.PROJECT.ElementoLinea.Principal" y="37.042">
  <atv:argument name="base" value="AGENT.OBJECTS.SCADA.Benito_Juarez.Circuitos.Circuito_CAP_011.Carcamo_Las_Americas"/>
 </svg>
 <svg atv:refpx="488.249" atv:refpy="160.995" height="63.11" id="id_28" transform="matrix(0.7519,0,0,0.7289,0,0)" width="133" x="582.87" xlink:href="ObjectTypes.PROJECT.ElementoLinea.Principal" y="209.905">
  <atv:argument name="base" value="AGENT.OBJECTS.SCADA.Benito_Juarez.Circuitos.Circuito_CAP_011.Carcamo_Luciernagas_1"/>
 </svg>
 <svg atv:refpx="288.24" atv:refpy="523.996" height="63.11" id="id_29" transform="matrix(0.7519,0,0,0.7289,0,0)" width="133" x="328.835" xlink:href="ObjectTypes.PROJECT.ElementoLinea.Principal" y="691.453">
  <atv:argument name="base" value="AGENT.OBJECTS.SCADA.Benito_Juarez.Circuitos.Circuito_CAP_011.Carcamo_Luciernagas_2"/>
 </svg>
 <svg atv:refpx="288.24" atv:refpy="636" height="63.11" id="id_30" transform="matrix(0.7519,0,0,0.7289,0,0)" width="133" x="328.835" xlink:href="ObjectTypes.PROJECT.ElementoLinea.Principal" y="840.993">
  <atv:argument name="base" value="AGENT.OBJECTS.SCADA.Benito_Juarez.Circuitos.Circuito_CAP_011.Carcamo_Puerto_Cancun"/>
 </svg>
 <svg atv:refpx="659.36" atv:refpy="277" height="63.11" id="id_31" transform="matrix(0.7519,0,0,0.7289,0,0)" width="133" x="785.176" xlink:href="ObjectTypes.PROJECT.ElementoLinea.Principal" y="352.586">
  <atv:argument name="base" value="AGENT.OBJECTS.SCADA.Benito_Juarez.Circuitos.Circuito_CAP_011.Carcamo_Punta_Sam"/>
 </svg>
 <svg atv:refpx="288.244" atv:refpy="569.998" height="63.11" id="id_32" transform="matrix(0.7519,0,0,0.7289,0,0)" width="133" x="328.835" xlink:href="ObjectTypes.PROJECT.ElementoLinea.Principal" y="768.282">
  <atv:argument name="base" value="AGENT.OBJECTS.SCADA.Benito_Juarez.Circuitos.Circuito_CAP_011.Carcamo_Quetzales"/>
 </svg>
 <svg atv:refpx="640.421" atv:refpy="580.993" height="63.11" id="id_9" transform="matrix(0.7754,0,0,0.7289,0,0)" width="133" x="759.445" xlink:href="ObjectTypes.PROJECT.ElementoLinea.Principal" y="769.645">
  <atv:argument name="base" value="AGENT.OBJECTS.SCADA.Benito_Juarez.Circuitos.Circuito_CAP_011.Carcamo_Andalucia"/>
 </svg>
 <svg atv:refpx="191.736" atv:refpy="187.997" height="63.11" id="id_20" transform="matrix(0.7519,0,0,0.7289,0,0)" width="133" x="157.933" xlink:href="ObjectTypes.PROJECT.ElementoLinea.Principal" y="255.179">
  <atv:argument name="base" value="AGENT.OBJECTS.SCADA.Benito_Juarez.Circuitos.Circuito_CAP_004.Carcamo_Aeropuerto_ZT"/>
 </svg>
 <svg atv:refpx="659.36" atv:refpy="173.994" height="63.11" id="id_23" transform="matrix(0.7519,0,0,0.7289,0,0)" width="133" x="785.176" xlink:href="ObjectTypes.PROJECT.ElementoLinea.Principal" y="211.277">
  <atv:argument name="base" value="AGENT.OBJECTS.SCADA.Benito_Juarez.Circuitos.Circuito_CAP_001A.Carcamo_001A"/>
 </svg>
 <svg atv:refpx="287.995" atv:refpy="237.493" height="63.11" id="id_16" transform="matrix(0.7519,0,0,0.7289,0,0)" width="133" x="328.501" xlink:href="ObjectTypes.PROJECT.ElementoLinea.Principal" y="258.608">
  <atv:argument name="base" value="AGENT.OBJECTS.SCADA.Benito_Juarez.Circuitos.Circuito_CAP_001.Carcamo_Uxmal"/>
 </svg>
 <script atv:desc="" atv:name="" type="text/ecmascript"><![CDATA[var google = webMI.rootWindow.google; //Clase Principal
var map; //Variable donde va a vivir el mapa
webMI.addOnload(function(e) {
var position1 = new google.maps.LatLng(21.105658619661092, -86.75755193180046);
//Opciones del mapa
	var myOptions = {
						zoom: 10.7,
						center: position1,
						mapTypeId: google.maps.MapTypeId.roadmap,
						disableDefaultUI: true
					};
	
	map = new google.maps.Map(document.getElementById("mapa"), myOptions);
});]]></script>
 <g atv:refpx="172.727" atv:refpy="328.498" id="id_63" transform="matrix(1.3285,0,0,1.381,-593.8262,247.237)">
  <circle atv:refpx="574.014" atv:refpy="61.014" cx="574.014" cy="61.014" fill="#000088" fill-opacity="0" id="id_0" r="37.014" stroke="#000000" stroke-width="2"/>
  <text atv:refpx="575" atv:refpy="67" fill="#000000" font-family="Arial" font-size="28" id="id_46" text-anchor="middle" x="574.5" y="71.5">ZH</text>
 </g>
 <polygon atv:refpx="288.003" atv:refpy="208.389" fill="#000018" id="id_19" points="307.001,175.793 287.001,175.793 297.001,188.982 297.001,188.982" stroke="#000000" stroke-linecap="round" stroke-linejoin="round" stroke-opacity="0" stroke-width="2.015"/>
 <svg atv:refpx="488.261" atv:refpy="127.75" height="63.11" id="id_48" transform="matrix(0.7519,0,0,0.7289,0,0)" width="133" x="582.87" xlink:href="ObjectTypes.PROJECT.ElementoLinea.Principal" y="146.453">
  <atv:argument name="base" value="AGENT.OBJECTS.SCADA.Benito_Juarez.Circuitos.Circuito_CAP_011.Carcamo_Luciernagas_1_TE"/>
 </svg>
 <line atv:refpx="386.751" atv:refpy="344" id="id_50" stroke="#000000" stroke-linecap="round" stroke-linejoin="round" stroke-width="2" x1="386.251" x2="386.251" y1="51" y2="637"/>
 <line atv:refpx="370.793" atv:refpy="591.001" id="id_59" stroke="#000000" stroke-linecap="round" stroke-linejoin="round" stroke-width="2" x1="354" x2="384.979" y1="210.501" y2="210.501"/>
 <polygon atv:refpx="342.572" atv:refpy="239.501" fill="#000018" id="id_60" points="357.167,220.498 357.167,200.498 343.978,210.498 343.978,210.498" stroke="#000000" stroke-linecap="round" stroke-linejoin="round" stroke-opacity="0" stroke-width="2.015"/>
 <line atv:refpx="364.228" atv:refpy="505.246" id="id_64" stroke="#000000" stroke-linecap="round" stroke-linejoin="round" stroke-width="2" x1="431.728" x2="387.728" y1="129.75" y2="129.75"/>
 <polygon atv:refpx="345.533" atv:refpy="504.496" fill="#000018" id="id_65" points="424.25,121.499 424.25,141.499 437.439,131.499 437.439,131.499" stroke="#000000" stroke-linecap="round" stroke-linejoin="round" stroke-opacity="0" stroke-width="2.015"/>
 <line atv:refpx="344.251" atv:refpy="133.002" id="id_67" stroke="#000000" stroke-linecap="round" stroke-linejoin="round" stroke-width="2" x1="433.251" x2="389.251" y1="279" y2="279"/>
 <polygon atv:refpx="348.344" atv:refpy="442.496" fill="#000018" id="id_68" points="425.061,269.999 425.061,289.999 438.25,279.999 438.25,279.999" stroke="#000000" stroke-linecap="round" stroke-linejoin="round" stroke-opacity="0" stroke-width="2.015"/>
 <line atv:refpx="514.251" atv:refpy="337.5" id="id_78" stroke="#000000" stroke-linecap="round" stroke-linejoin="round" stroke-width="2.015" x1="387.251" x2="641.251" y1="337" y2="337"/>
 <line atv:refpx="488.761" atv:refpy="348.5" id="id_79" stroke="#000000" stroke-linecap="round" stroke-linejoin="round" stroke-width="2.015" x1="488.261" x2="488.261" y1="337" y2="366"/>
 <line atv:refpx="640.875" atv:refpy="346" id="id_81" stroke="#000000" stroke-linecap="round" stroke-linejoin="round" stroke-width="2.015" x1="640.375" x2="640.375" y1="337" y2="361"/>
 <polygon atv:refpx="488.262" atv:refpy="361.594" fill="#000018" id="id_82" points="498.261,357.999 478.261,357.999 488.261,371.187 488.261,371.187" stroke="#000000" stroke-linecap="round" stroke-linejoin="round" stroke-opacity="0" stroke-width="2.015"/>
 <polygon atv:refpx="640.376" atv:refpy="360.594" fill="#000018" id="id_83" points="650.375,356.999 630.375,356.999 640.375,370.187 640.375,370.187" stroke="#000000" stroke-linecap="round" stroke-linejoin="round" stroke-opacity="0" stroke-width="2.015"/>
 <line atv:refpx="337.751" atv:refpy="119.002" id="id_85" stroke="#000000" stroke-linecap="round" stroke-linejoin="round" stroke-width="2" x1="431.751" x2="387.751" y1="50" y2="50"/>
 <polygon atv:refpx="320.055" atv:refpy="118.502" fill="#000018" id="id_87" points="425.273,40 425.273,60 438.462,50 438.462,50" stroke="#000000" stroke-linecap="round" stroke-linejoin="round" stroke-opacity="0" stroke-width="2.015"/>
 <g atv:refpx="640.375" atv:refpy="235.492" id="id_93" transform="matrix(1,0,0,1,3.874,-336)">
  <line atv:refpx="640.003" atv:refpy="575.492" fill="#000000" id="id_91" stroke="#000000" stroke-linecap="round" stroke-linejoin="round" stroke-width="2" x1="636.501" x2="636.501" y1="556" y2="580.984"/>
  <polygon atv:refpx="639.502" atv:refpy="587.389" fill="#000018" id="id_92" points="646.501,580.795 626.501,580.795 636.501,593.983 636.501,593.983" stroke="#000000" stroke-linecap="round" stroke-linejoin="round" stroke-opacity="0" stroke-width="2.015"/>
 </g>
 <g atv:refpx="366.806" atv:refpy="526.001" id="id_94" transform="matrix(0.8003,0,0,1,78.1024,0.9994)">
  <line atv:refpx="366" atv:refpy="483.001" id="id_95" stroke="#000000" stroke-linecap="round" stroke-linejoin="round" stroke-width="2" x1="340.75" x2="384.75" y1="528.001" y2="528.001"/>
  <polygon atv:refpx="343.343" atv:refpy="528.001" fill="#000018" id="id_96" points="348.939,538 348.939,518 335.75,528 335.75,528" stroke="#000000" stroke-linecap="round" stroke-linejoin="round" stroke-opacity="0" stroke-width="2.015"/>
 </g>
 <g atv:refpx="366.806" atv:refpy="580.002" id="id_97" transform="matrix(0.8003,0,0,1,75.5017,100.5009)">
  <line atv:refpx="366" atv:refpy="483.001" id="id_98" stroke="#000000" stroke-linecap="round" stroke-linejoin="round" stroke-width="2" x1="344" x2="388" y1="482.501" y2="482.501"/>
  <polygon atv:refpx="346.593" atv:refpy="482.501" fill="#000018" id="id_99" points="352.189,492.5 352.189,472.5 339,482.5 339,482.5" stroke="#000000" stroke-linecap="round" stroke-linejoin="round" stroke-opacity="0" stroke-width="2.015"/>
 </g>
 <g atv:refpx="366.806" atv:refpy="633" id="id_100" transform="matrix(0.8003,0,0,1,75.5017,153.5003)">
  <line atv:refpx="366" atv:refpy="483.001" id="id_101" stroke="#000000" stroke-linecap="round" stroke-linejoin="round" stroke-width="2" x1="344" x2="388" y1="482.501" y2="482.501"/>
  <polygon atv:refpx="346.593" atv:refpy="482.501" fill="#000018" id="id_102" points="352.189,492.5 352.189,472.5 339,482.5 339,482.5" stroke="#000000" stroke-linecap="round" stroke-linejoin="round" stroke-opacity="0" stroke-width="2.015"/>
 </g>
 <g atv:refpx="412.251" atv:refpy="537.497" id="id_107" transform="matrix(-1,0,0,-1,776.2507,1019.9978)">
  <line atv:refpx="366" atv:refpy="483.001" id="id_108" stroke="#000000" stroke-linecap="round" stroke-linejoin="round" stroke-width="2" x1="344" x2="388" y1="482.501" y2="482.501"/>
  <polygon atv:refpx="346.593" atv:refpy="482.501" fill="#000018" id="id_109" points="352.189,492.5 352.189,472.5 339,482.5 339,482.5" stroke="#000000" stroke-linecap="round" stroke-linejoin="round" stroke-opacity="0" stroke-width="2.015"/>
 </g>
 <line atv:refpx="564.751" atv:refpy="570.72" id="id_113" stroke="#000000" stroke-linecap="round" stroke-linejoin="round" stroke-width="2" x1="564.251" x2="564.251" y1="533" y2="615"/>
 <line atv:refpx="575.751" atv:refpy="612.495" id="id_114" stroke="#000000" stroke-linecap="round" stroke-linejoin="round" stroke-width="2" x1="564.251" x2="587.251" y1="614.995" y2="614.995"/>
 <polygon atv:refpx="324.033" atv:refpy="528.496" fill="#000018" id="id_115" points="577.25,604.994 577.25,624.994 590.439,614.994 590.439,614.994" stroke="#000000" stroke-linecap="round" stroke-linejoin="round" stroke-opacity="0" stroke-width="2.015"/>
 <svg atv:refpx="640.418" atv:refpy="454.996" height="63.11" id="id_17" transform="matrix(0.7519,0,0,0.7289,0,0)" width="133" x="785.239" xlink:href="ObjectTypes.PROJECT.ElementoLinea.Principal" y="592.667">
  <atv:argument name="base" value="AGENT.OBJECTS.SCADA.Benito_Juarez.Circuitos.Circuito_CAP_011.Carcamo_Almendros_TE"/>
 </svg>
 <svg atv:refpx="50.001" atv:refpy="59.5" height="23" id="id_18" width="100" x="0.001" xlink:href="ObjectTypes.PROJECT.Caudalimetro.line_mini" y="46">
  <atv:argument name="base" value="AGENT.OBJECTS.SCADA.Benito_Juarez.Circuitos.Circuito_CAP_011.Carcamo_011.Equipos.Caudalimetro.L1"/>
 </svg>
 <svg atv:refpx="50.001" atv:refpy="82.5" height="23" id="id_21" width="100" x="0.001" xlink:href="ObjectTypes.PROJECT.Caudalimetro.line_mini" y="69">
  <atv:argument name="base" value="AGENT.OBJECTS.SCADA.Benito_Juarez.Circuitos.Circuito_CAP_011.Carcamo_011.Equipos.Caudalimetro.L2"/>
 </svg>
 <svg atv:refpx="172.751" atv:refpy="61.5" height="23" id="id_24" width="100" x="118.751" xlink:href="ObjectTypes.PROJECT.Caudalimetro.line_mini" y="48">
  <atv:argument name="base" value="AGENT.OBJECTS.SCADA.Benito_Juarez.Circuitos.Circuito_CAP_011.Carcamo_010.Equipos.Caudalimetro.L1"/>
 </svg>
 <svg atv:refpx="172.751" atv:refpy="165.5" height="23" id="id_26" width="100" x="118.751" xlink:href="ObjectTypes.PROJECT.Caudalimetro.line_mini" y="152">
  <atv:argument name="base" value="AGENT.OBJECTS.SCADA.Benito_Juarez.Circuitos.Circuito_CAP_011.Carcamo_Aeropuerto_ZU.Equipos.Caudalimetro.L1"/>
 </svg>
 <svg atv:refpx="288.001" atv:refpy="322.5" height="23" id="id_33" width="100" x="247.001" xlink:href="ObjectTypes.PROJECT.Caudalimetro.line_mini" y="280">
  <atv:argument name="base" value="AGENT.OBJECTS.SCADA.Benito_Juarez.Circuitos.Circuito_CAP_001.Carcamo_Uxmal.Equipos.Caudalimetro.L_63"/>
 </svg>
 <svg atv:refpx="288.001" atv:refpy="276.5" height="23" id="id_34" width="100" x="247.001" xlink:href="ObjectTypes.PROJECT.Caudalimetro.line_mini" y="234">
  <atv:argument name="base" value="AGENT.OBJECTS.SCADA.Benito_Juarez.Circuitos.Circuito_CAP_001.Carcamo_Uxmal.Equipos.Caudalimetro.L_29"/>
 </svg>
 <svg atv:refpx="288.001" atv:refpy="299.5" height="23" id="id_35" width="100" x="247.001" xlink:href="ObjectTypes.PROJECT.Caudalimetro.line_mini" y="257">
  <atv:argument name="base" value="AGENT.OBJECTS.SCADA.Benito_Juarez.Circuitos.Circuito_CAP_001.Carcamo_Uxmal.Equipos.Caudalimetro.L_08"/>
 </svg>
 <svg atv:refpx="488.261" atv:refpy="213.5" height="23" id="id_36" width="100" x="438.261" xlink:href="ObjectTypes.PROJECT.Caudalimetro.line_mini" y="199">
  <atv:argument name="base" value="AGENT.OBJECTS.SCADA.Benito_Juarez.Circuitos.Circuito_CAP_011.Carcamo_Luciernagas_1.Equipos.Caudalimetro.L1"/>
 </svg>
 <svg atv:refpx="488.261" atv:refpy="60.5" height="23" id="id_37" width="100" x="438.261" xlink:href="ObjectTypes.PROJECT.Caudalimetro.line_mini" y="73">
  <atv:argument name="base" value="AGENT.OBJECTS.SCADA.Benito_Juarez.Circuitos.Circuito_CAP_011.Carcamo_Las_Americas.Equipos.Caudalimetro.L1"/>
 </svg>
 <g atv:refpx="412.251" atv:refpy="611.999" id="id_38" transform="matrix(-1,0,0,-1,776.2507,1094.4998)">
  <line atv:refpx="366" atv:refpy="483.001" id="id_39" stroke="#000000" stroke-linecap="round" stroke-linejoin="round" stroke-width="2" x1="344" x2="388" y1="482.501" y2="482.501"/>
  <polygon atv:refpx="346.593" atv:refpy="482.501" fill="#000018" id="id_40" points="352.189,492.5 352.189,472.5 339,482.5 339,482.5" stroke="#000000" stroke-linecap="round" stroke-linejoin="round" stroke-opacity="0" stroke-width="2.015"/>
 </g>
 <svg atv:refpx="172.751" atv:refpy="245.5" height="23" id="id_41" width="100" x="118.751" xlink:href="ObjectTypes.PROJECT.Caudalimetro.line_mini" y="232">
  <atv:argument name="base" value="AGENT.OBJECTS.SCADA.Benito_Juarez.Circuitos.Circuito_CAP_011.Carcamo_Luciernagas_1.Equipos.Caudalimetro.L1"/>
 </svg>
 <line atv:refpx="305.625" atv:refpy="375.5" id="id_47" stroke="#000000" stroke-linecap="round" stroke-linejoin="round" stroke-width="2.015" x1="385.251" x2="226" y1="462" y2="462"/>
 <svg atv:refpx="488.261" atv:refpy="316.5" height="23" id="id_51" width="100" x="438.261" xlink:href="ObjectTypes.PROJECT.Caudalimetro.line_mini" y="303">
  <atv:argument name="base" value="AGENT.OBJECTS.SCADA.Benito_Juarez.Circuitos.Circuito_CAP_011.Carcamo_Bonampak.Equipos.Caudalimetro.L1"/>
 </svg>
 <svg atv:refpx="640.375" atv:refpy="316.5" height="23" id="id_52" width="100" x="590.375" xlink:href="ObjectTypes.PROJECT.Caudalimetro.line_mini" y="303">
  <atv:argument name="base" value="AGENT.OBJECTS.SCADA.Benito_Juarez.Circuitos.Circuito_CAP_011.Carcamo_Punta_Sam.Equipos.Caudalimetro.L1"/>
 </svg>
 <svg atv:refpx="640.375" atv:refpy="213.5" height="23" id="id_53" width="100" x="590.375" xlink:href="ObjectTypes.PROJECT.Caudalimetro.line_mini" y="200">
  <atv:argument name="base" value="AGENT.OBJECTS.SCADA.Benito_Juarez.Circuitos.Circuito_CAP_001A.Carcamo_001A.Equipos.Caudalimetro.L1"/>
 </svg>
 <svg atv:refpx="488.261" atv:refpy="428.5" height="23" id="id_54" width="100" x="438.261" xlink:href="ObjectTypes.PROJECT.Caudalimetro.line_mini" y="415">
  <atv:argument name="base" value="AGENT.OBJECTS.SCADA.Benito_Juarez.Circuitos.Circuito_CAP_011.Carcamo_Cumbres.Equipos.Caudalimetro.L1"/>
 </svg>
 <svg atv:refpx="488.256" atv:refpy="566.5" height="23" id="id_56" width="100" x="438.256" xlink:href="ObjectTypes.PROJECT.Caudalimetro.line_mini" y="553">
  <atv:argument name="base" value="AGENT.OBJECTS.SCADA.Benito_Juarez.Circuitos.Circuito_CAP_011.Carcamo_2000_Oriente.Equipos.Caudalimetro.L_500"/>
 </svg>
 <svg atv:refpx="488.261" atv:refpy="648.5" height="23" id="id_57" width="100" x="438.261" xlink:href="ObjectTypes.PROJECT.Caudalimetro.line_mini" y="635">
  <atv:argument name="base" value="AGENT.OBJECTS.SCADA.Benito_Juarez.Circuitos.Circuito_CAP_011.Carcamo_El_table.Equipos.Caudalimetro.L1"/>
 </svg>
 <svg atv:refpx="640.422" atv:refpy="537.5" height="23" id="id_58" width="100" x="590.422" xlink:href="ObjectTypes.PROJECT.Caudalimetro.line_mini" y="524">
  <atv:argument name="base" value="AGENT.OBJECTS.SCADA.Benito_Juarez.Circuitos.Circuito_CAP_011.Carcamo_Almendros.Equipos.Caudalimetro.L1"/>
 </svg>
 <svg atv:refpx="640.422" atv:refpy="620.5" height="23" id="id_62" transform="matrix(1.0306,0,0,1,0,0)" width="100" x="571.394" xlink:href="ObjectTypes.PROJECT.Caudalimetro.line_mini" y="607">
  <atv:argument name="base" value="AGENT.OBJECTS.SCADA.Benito_Juarez.Circuitos.Circuito_CAP_011.Carcamo_Andalucia.Equipos.Caudalimetro.L_SANTA_FE"/>
 </svg>
 <svg atv:refpx="488.256" atv:refpy="543.5" height="23" id="id_66" width="100" x="438.256" xlink:href="ObjectTypes.PROJECT.Caudalimetro.line_mini" y="530">
  <atv:argument name="base" value="AGENT.OBJECTS.SCADA.Benito_Juarez.Circuitos.Circuito_CAP_011.Carcamo_2000_Oriente.Equipos.Caudalimetro.L_40"/>
 </svg>
 <svg atv:refpx="640.424" atv:refpy="643.5" height="23" id="id_69" transform="matrix(1.0306,0,0,1,0,0)" width="100" x="571.407" xlink:href="ObjectTypes.PROJECT.Caudalimetro.line_mini" y="630">
  <atv:argument name="base" value="AGENT.OBJECTS.SCADA.Benito_Juarez.Circuitos.Circuito_CAP_011.Carcamo_Andalucia.Equipos.Caudalimetro.L_ITZALES"/>
 </svg>
 <svg atv:refpx="640.424" atv:refpy="666.5" height="23" id="id_70" transform="matrix(1.0306,0,0,1,0,0)" width="100" x="571.407" xlink:href="ObjectTypes.PROJECT.Caudalimetro.line_mini" y="653">
  <atv:argument name="base" value="AGENT.OBJECTS.SCADA.Benito_Juarez.Circuitos.Circuito_CAP_011.Carcamo_Andalucia.Equipos.Caudalimetro.L_500"/>
 </svg>
 <polygon atv:refpx="225.593" atv:refpy="375.001" fill="#000018" id="id_71" points="233.189,472 233.189,452 220,462 220,462" stroke="#000000" stroke-linecap="round" stroke-linejoin="round" stroke-opacity="0" stroke-width="2.015"/>
 <polygon atv:refpx="168.754" atv:refpy="97.595" fill="#000018" id="id_22" points="178.751,94 158.751,94 168.751,107.189 168.751,107.189" stroke="#000000" stroke-linecap="round" stroke-linejoin="round" stroke-opacity="0" stroke-width="2.015"/>
 <svg atv:refpx="177.751" atv:refpy="490.5" height="23" id="id_42" width="100" x="118.751" xlink:href="ObjectTypes.PROJECT.Caudalimetro.line_mini" y="476">
  <atv:argument name="base" value="AGENT.OBJECTS.SCADA.Benito_Juarez.Circuitos.Circuito_CAP_011.Carcamo_0+000.Equipos.Caudalimetros.L24"/>
 </svg>
 <svg atv:refpx="177.751" atv:refpy="513.5" height="23" id="id_45" width="100" x="118.751" xlink:href="ObjectTypes.PROJECT.Caudalimetro.line_mini" y="499">
  <atv:argument name="base" value="AGENT.OBJECTS.SCADA.Benito_Juarez.Circuitos.Circuito_CAP_011.Carcamo_0+000.Equipos.Caudalimetros.L16"/>
 </svg>
 <svg atv:refpx="177.751" atv:refpy="536.5" height="23" id="id_49" width="100" x="118.751" xlink:href="ObjectTypes.PROJECT.Caudalimetro.line_mini" y="522">
  <atv:argument name="base" value="AGENT.OBJECTS.SCADA.Benito_Juarez.Circuitos.Circuito_CAP_011.Carcamo_0+000.Equipos.Caudalimetros.L6"/>
 </svg>
 <svg atv:refpx="289.329" atv:refpy="25.938" height="63.11" id="id_86" transform="matrix(0.7428,0,0,0.7428,0,0)" width="133" x="335.14" xlink:href="ObjectTypes.PROJECT.ElementoLinea.Principal" y="2.02">
  <atv:argument name="base" value="AGENT.OBJECTS.SCADA.Benito_Juarez.Circuitos.Circuito_CAP_011.Carcamo_Santa_Fe"/>
 </svg>
 <svg atv:refpx="289.329" atv:refpy="59.5" height="23" id="id_103" transform="matrix(0.9905,0,0,0.9905,0,0)" width="100" x="251.189" xlink:href="ObjectTypes.PROJECT.Caudalimetro.line_mini" y="48.571">
  <atv:argument name="base" value="AGENT.OBJECTS.SCADA.Benito_Juarez.Circuitos.Circuito_CAP_011.Carcamo_Santa_Fe.Equipos.Caudalimetros.L1"/>
 </svg>
 <polygon atv:refpx="167.003" atv:refpy="270.595" fill="#000018" id="id_105" points="177,267 157,267 167,280.189 167,280.189" stroke="#000000" stroke-linecap="round" stroke-linejoin="round" stroke-opacity="0" stroke-width="2.015"/>
</svg>
