<?xml version='1.0' encoding='utf-8'?>
<svg enable-background="new 0 0 20 20" height="20" id="Ebene_1" version="1.1" width="20" x="0px" xml:space="preserve" y="0px" xmlns="http://www.w3.org/2000/svg" xmlns:atv="http://webmi.atvise.com/2007/svgext" xmlns:xlink="http://www.w3.org/1999/xlink">
 <defs/>
 <metadata>
  <atv:parameter behavior="optional" defaultvalue="#000000" desc="symbol color" name="symbolColor" substitute="$SYMBOLCOLOR$" valuetype="color"/>
  <atv:gridconfig enabled="false" gridstyle="lines" height="20" width="20"/>
  <atv:snapconfig enabled="false" height="10" width="10"/>
 </metadata>
 <path atv:refpx="10.108" atv:refpy="10.146" d="M16.71,0.1L16.244,0.1L12.863,0.1L12.075,0.1L11.592,0.1L3.277,0.1L3.277,19.9L15.7,19.9L16.263,19.9L16.722,19.9L16.722,4.583L16.722,4.443L16.722,3.472ZM4.131,18.921L4.131,0.922L12.073,0.922L15.698,0.922L15.698,4.443L15.698,18.919Z" fill="$SYMBOLCOLOR$" id="id_2" stroke-width="1"/>
 <rect atv:refpx="9.962" atv:refpy="13.132" fill="$SYMBOLCOLOR$" height="0.979" id="id_6" stroke-width="1" width="9.453" x="5.236" y="12.642"/>
 <rect atv:refpx="9.962" atv:refpy="17.457" fill="$SYMBOLCOLOR$" height="0.979" id="id_7" stroke-width="1" width="9.453" x="5.236" y="16.967"/>
 <rect atv:refpx="9.962" atv:refpy="15.294" fill="$SYMBOLCOLOR$" height="0.979" id="id_8" stroke-width="1" width="9.453" x="5.236" y="14.804"/>
 <rect atv:refpx="9.962" atv:refpy="6.644" fill="$SYMBOLCOLOR$" height="0.979" id="id_0" stroke-width="1" width="9.453" x="5.236" y="6.154"/>
 <rect atv:refpx="9.962" atv:refpy="10.969" fill="$SYMBOLCOLOR$" height="0.979" id="id_1" stroke-width="1" width="9.453" x="5.236" y="10.479"/>
 <rect atv:refpx="9.962" atv:refpy="8.807" fill="$SYMBOLCOLOR$" height="0.979" id="id_3" stroke-width="1" width="9.453" x="5.236" y="8.317"/>
 <rect atv:refpx="9.962" atv:refpy="4.482" fill="$SYMBOLCOLOR$" height="0.979" id="id_5" stroke-width="1" width="9.453" x="5.236" y="3.992"/>
 <rect atv:refpx="9.962" atv:refpy="2.319" fill="$SYMBOLCOLOR$" height="0.979" id="id_9" stroke-width="1" width="9.453" x="5.236" y="1.829"/>
 <script atv:desc="" atv:name="" type="text/ecmascript"/>
</svg>
