<?xml version='1.0' encoding='utf-8'?>
<!-- Uploaded to: SVG Repo, www.svgrepo.com, Generator: SVG Repo Mixer Tools -->
<svg height="100" width="100" xmlns="http://www.w3.org/2000/svg" xmlns:atv="http://webmi.atvise.com/2007/svgext" xmlns:xlink="http://www.w3.org/1999/xlink">
 <defs/>
 <metadata>
  <atv:gridconfig enabled="false" gridstyle="lines" height="20" width="20"/>
  <atv:snapconfig enabled="false" height="10" width="10"/>
 </metadata>
 <path atv:refpx="50" atv:refpy="50" d="M50,0C22.386,0 0,22.386 0,50C0,77.615 22.386,100 50,100C77.613,100 100,77.615 100,50C100,22.386 77.613,0 50,0" fill="#4681A0" id="id_0"/>
 <path atv:refpx="50" atv:refpy="49.999" d="M71,20.999C72.104,20.999 73,21.895 73,22.999L73,76.999C73,78.103 72.104,78.999 71,78.999C69.896,78.999 69,78.103 69,76.999L69,22.998C69,21.894 69.896,20.998 71,20.998M50,20.998C51.104,20.998 52,21.894 52,22.998L52,76.999C52,78.103 51.104,78.999 50,78.999C48.896,78.999 48,78.103 48,76.999L48,22.998C48,21.894 48.896,20.998 50,20.998M29,20.998C30.104,20.998 31,21.894 31,22.998L31,76.999C31,78.103 30.104,78.999 29,78.999C27.896,78.999 27,78.103 27,76.999L27,22.998C27,21.894 27.896,20.998 29,20.998M71,18.998C68.794,18.998 67,20.792 67,22.998L67,76.999C67,79.205 68.794,80.999 71,80.999C73.206,80.999 75,79.205 75,76.999L75,22.998C75,20.792 73.206,18.998 71,18.998M50,18.998C47.794,18.998 46,20.792 46,22.998L46,76.999C46,79.205 47.794,80.999 50,80.999C52.206,80.999 54,79.205 54,76.999L54,22.998C54,20.792 52.206,18.998 50,18.998M29,18.998C26.794,18.998 25,20.792 25,22.998L25,76.999C25,79.205 26.794,80.999 29,80.999C31.206,80.999 33,79.205 33,76.999L33,22.998C33,20.792 31.206,18.998 29,18.998" fill="#70A0BA" id="id_1"/>
 <path atv:refpx="50" atv:refpy="49.999" d="M50,20.999C48.896,20.999 48,21.895 48,22.999L48,76.999C48,78.103 48.896,78.999 50,78.999C51.104,78.999 52,78.103 52,76.999L52,22.998C52,21.894 51.104,20.998 50,20.999M71,20.999C69.896,20.999 69,21.895 69,22.999L69,76.999C69,78.103 69.896,78.999 71,78.999C72.104,78.999 73,78.103 73,76.999L73,22.998C73,21.894 72.104,20.998 71,20.999M29,20.999C27.896,20.999 27,21.895 27,22.999L27,76.999C27,78.103 27.896,78.999 29,78.999C30.104,78.999 31,78.103 31,76.999L31,22.998C31,21.894 30.104,20.998 29,20.999" fill="#376B86" id="id_2"/>
 <g atv:refpx="50.75" atv:refpy="49.999" id="id_12">
  <path atv:refpx="50.75" atv:refpy="49.999" d="M50,20.999C49.826,20.999 49.661,21.028 49.5,21.07C50.36,21.293 51,22.069 51,22.999L51,76.999C51,77.929 50.36,78.705 49.5,78.928C49.661,78.97 49.826,78.999 50,78.999C51.104,78.999 52,78.103 52,76.999L52,22.998C52,21.894 51.104,20.998 50,20.999M29,20.999C28.826,20.999 28.661,21.028 28.5,21.07C29.361,21.293 30,22.069 30,22.999L30,76.999C30,77.929 29.361,78.705 28.5,78.928C28.661,78.97 28.826,78.999 29,78.999C30.104,78.999 31,78.103 31,76.999L31,22.998C31,21.894 30.104,20.998 29,20.999M71,20.999C70.826,20.999 70.661,21.028 70.5,21.07C71.36,21.293 72,22.069 72,22.999L72,76.999C72,77.929 71.36,78.705 70.5,78.928C70.661,78.97 70.826,78.999 71,78.999C72.104,78.999 73,78.103 73,76.999L73,22.998C73,21.894 72.104,20.998 71,20.999" fill="#316078" id="id_3"/>
 </g>
 <path atv:refpx="50" atv:refpy="51.999" d="M34,32.999L24,32.999C22.896,32.999 22,33.895 22,34.999L22,46.999C22,48.103 22.896,48.999 24,48.999L34,48.999C35.104,48.999 36,48.103 36,46.999L36,34.999C36,33.895 35.104,32.999 34,32.999M55,54.999L45,54.999C43.896,54.999 43,55.895 43,56.999L43,68.999C43,70.103 43.896,70.999 45,70.999L55,70.999C56.104,70.999 57,70.103 57,68.999L57,56.998C57,55.894 56.104,54.998 55,54.999M76,32.999L66,32.999C64.896,32.999 64,33.895 64,34.999L64,46.999C64,48.103 64.896,48.999 66,48.999L76,48.999C77.104,48.999 78,48.103 78,46.999L78,34.999C78,33.895 77.104,32.999 76,32.999" fill="#3D708B" id="id_4"/>
 <g atv:refpx="50" atv:refpy="51.999" id="id_13">
  <path atv:refpx="50" atv:refpy="51.999" d="M73,32.999L75,32.999L75,48.999L73,48.999ZM67,32.999L69,32.999L69,48.999L67,48.999ZM46,54.999L48,54.999L48,70.999L46,70.999ZM25,32.999L27,32.999L27,48.999L25,48.999ZM31,32.999L33,32.999L33,48.999L31,48.999ZM52,54.999L54,54.999L54,70.999L52,70.999Z" fill="#5F889E" id="id_5"/>
 </g>
 <g atv:refpx="50" atv:refpy="51.999" id="id_14">
  <path atv:refpx="50" atv:refpy="51.999" d="M69,32.999L73,32.999L73,48.999L69,48.999ZM27,32.999L31,32.999L31,48.999L27,48.999ZM48,54.999L52,54.999L52,70.999L48,70.999Z" fill="#2F5B72" id="id_6"/>
 </g>
 <g atv:refpx="51.5" atv:refpy="51.999" id="id_15">
  <path atv:refpx="51.5" atv:refpy="51.999" d="M72,32.999L73,32.999L73,48.999L72,48.999ZM30,32.999L31,32.999L31,48.999L30,48.999ZM51,54.999L52,54.999L52,70.999L51,70.999Z" fill="#2A5266" id="id_7"/>
 </g>
 <path atv:refpx="50" atv:refpy="49.999" d="M34,30.999L24,30.999C22.896,30.999 22,31.895 22,32.998L22,44.998C22,46.102 22.896,46.998 24,46.998L34,46.998C35.104,46.998 36,46.102 36,44.998L36,32.998C36,31.894 35.104,30.998 34,30.999M55,52.998L45,52.998C43.896,52.998 43,53.894 43,54.998L43,66.999C43,68.103 43.896,68.999 45,68.999L55,68.999C56.104,68.999 57,68.103 57,66.999L57,54.998C57,53.894 56.104,52.998 55,52.998M76,30.998L66,30.998C64.896,30.998 64,31.894 64,32.998L64,44.998C64,46.102 64.896,46.998 66,46.998L76,46.998C77.104,46.998 78,46.102 78,44.998L78,32.998C78,31.894 77.104,30.998 76,30.998" fill="#D4D4D4" id="id_8"/>
 <path atv:refpx="50" atv:refpy="48.499" d="M34,29.999L24,29.999C22.896,29.999 22,30.895 22,31.999L22,42.998C22,44.102 22.896,44.998 24,44.998L34,44.998C35.104,44.998 36,44.102 36,42.998L36,31.998C36,30.894 35.104,29.998 34,29.999M55,51.998L45,51.998C43.896,51.998 43,52.894 43,53.998L43,64.998C43,66.103 43.896,66.999 45,66.999L55,66.999C56.104,66.999 57,66.103 57,64.998L57,53.998C57,52.894 56.104,51.998 55,51.998M76,29.998L66,29.998C64.896,29.998 64,30.894 64,31.998L64,42.998C64,44.102 64.896,44.998 66,44.998L76,44.998C77.104,44.998 78,44.102 78,42.998L78,31.998C78,30.894 77.104,29.998 76,29.998" fill="#EDEDED" id="id_9"/>
 <path atv:refpx="50" atv:refpy="49.999" d="M32,35.999L26,35.999C25.447,35.999 25,36.447 25,36.999C25,37.552 25.447,37.999 26,37.999L32,37.999C32.552,37.999 33,37.552 33,36.999C33,36.447 32.552,35.999 32,35.999M32,39.999L26,39.999C25.447,39.999 25,40.446 25,40.999C25,41.552 25.447,41.999 26,41.999L32,41.999C32.552,41.999 33,41.552 33,40.999C33,40.446 32.552,39.999 32,39.999M53,57.999L47,57.999C46.447,57.999 46,58.445 46,58.999C46,59.552 46.447,59.999 47,59.999L53,59.999C53.553,59.999 54,59.552 54,58.999C54,58.445 53.553,57.999 53,57.999M53,61.999L47,61.999C46.447,61.999 46,62.445 46,62.999C46,63.552 46.447,63.999 47,63.999L53,63.999C53.553,63.999 54,63.552 54,62.999C54,62.445 53.553,61.999 53,61.999M68,37.999L74,37.999C74.553,37.999 75,37.552 75,36.999C75,36.447 74.553,35.999 74,35.999L68,35.999C67.447,35.999 67,36.447 67,36.999C67,37.552 67.447,37.999 68,37.999M74,39.999L68,39.999C67.447,39.999 67,40.446 67,40.999C67,41.552 67.447,41.999 68,41.999L74,41.999C74.553,41.999 75,41.552 75,40.999C75,40.446 74.553,39.999 74,39.999" fill="#C3C3C3" id="id_10"/>
 <g atv:refpx="50" atv:refpy="42.999" id="id_16">
  <path atv:refpx="50" atv:refpy="42.999" d="M34,29.999L24,29.999C22.896,29.999 22,30.895 22,31.999L22,33.998C22,32.894 22.896,31.998 24,31.998L34,31.998C35.104,31.998 36,32.894 36,33.998L36,31.998C36,30.894 35.104,29.998 34,29.999M55,51.999L45,51.999C43.896,51.999 43,52.895 43,53.999L43,55.999C43,54.895 43.896,53.999 45,53.999L55,53.999C56.104,53.999 57,54.895 57,55.999L57,53.999C57,52.895 56.104,51.999 55,51.999M76,29.999L66,29.999C64.896,29.999 64,30.895 64,31.999L64,33.998C64,32.894 64.896,31.998 66,31.998L76,31.998C77.104,31.998 78,32.894 78,33.998L78,31.998C78,30.894 77.104,29.998 76,29.999" fill="#ffffff" id="id_11"/>
 </g>
</svg>
