<?xml version='1.0' encoding='UTF-8' standalone='no'?>
<svg height="20" version="1.2" width="20" xmlns="http://www.w3.org/2000/svg" xmlns:atv="http://webmi.atvise.com/2007/svgext" xmlns:xlink="http://www.w3.org/1999/xlink">
 <defs/>
 <metadata>
  <atv:parameter behavior="optional" defaultvalue="#000000" desc="symbol color" name="symbolColor" substitute="$SYMBOLCOLOR$" valuetype="color"/>
  <atv:gridconfig enabled="true" gridstyle="lines" height="1" width="1"/>
  <atv:snapconfig enabled="false" height="1" width="1"/>
 </metadata>
 <polyline atv:refpx="9.991" atv:refpy="4.38" fill="none" id="id_1" points="2,5 10,10 18,5" stroke="$SYMBOLCOLOR$" stroke-linecap="butt" stroke-linejoin="miter" stroke-width="1.1"/>
 <polyline atv:refpx="11" atv:refpy="8.063" fill="none" id="id_0" points="8,14 2,14 2,2 18,2 18,9" stroke="$SYMBOLCOLOR$" stroke-linecap="butt" stroke-linejoin="bevel" stroke-width="1.1"/>
 <g atv:refpx="14.715" atv:refpy="14.818" id="id_5" transform="matrix(0.7116,-0.3614,0.3614,0.7116,-0.0437,10.0348)">
  <path atv:refpx="14.346" atv:refpy="14.579" d="M18.732,11.213L18.362,10.65L15.868,12.285C16.64,13.462 16.318,15.043 15.15,15.809C13.981,16.576 12.406,16.239 11.635,15.06L9.14,16.696L9.51,17.26L11.088,16.613C11.374,16.874 11.693,17.09 12.035,17.255L12.013,18.852L13.309,19.125L13.914,17.657C14.298,17.644 14.681,17.578 15.053,17.45L16.242,18.679L17.34,17.958L16.688,16.379C16.957,16.088 17.175,15.759 17.341,15.409L18.93,15.441L19.195,14.143L17.72,13.524C17.703,13.146 17.632,12.771 17.506,12.404Z" fill="$SYMBOLCOLOR$" id="id_25" stroke-width="0.498"/>
  <path atv:refpx="13.205" atv:refpy="12.929" d="M8.817,16.219L9.188,16.783L11.682,15.149C10.91,13.971 11.232,12.39 12.4,11.625C13.569,10.858 15.144,11.195 15.915,12.373L18.409,10.737L18.04,10.174L16.462,10.821C16.175,10.56 15.857,10.344 15.515,10.178L15.537,8.582L14.241,8.308L13.636,9.777C13.252,9.789 12.869,9.855 12.497,9.984L11.308,8.755L10.209,9.476L10.862,11.053C10.593,11.346 10.375,11.675 10.209,12.025L8.62,11.993L8.355,13.29L9.83,13.91C9.848,14.287 9.918,14.662 10.044,15.029Z" fill="$SYMBOLCOLOR$" id="id_4" stroke-width="0.498"/>
 </g>
 <script atv:desc="" atv:name="" type="text/ecmascript"/>
</svg>
