<?xml version="1.0" encoding="utf-8"?>
<!-- Uploaded to: SVG Repo, www.svgrepo.com, Generator: SVG Repo Mixer Tools -->
<!DOCTYPE svg PUBLIC "-//W3C//DTD SVG 1.1//EN" "http://www.w3.org/Graphics/SVG/1.1/DTD/svg11.dtd">
<svg height="800px" width="800px" version="1.1" id="Layer_1" xmlns="http://www.w3.org/2000/svg" xmlns:xlink="http://www.w3.org/1999/xlink" 
	 viewBox="0 0 298.2 355.6" enable-background="new 0 0 298.2 355.6" xml:space="preserve">
<g>
	<g id="g2904_1_" transform="matrix(0.965926,0.258819,-0.258819,0.965926,6.16213,8.3855)">
		<path fill="#323232" d="M335.6,138l-20.5-1.4c-1.6-8.2-4.9-15.8-9.4-22.4l13.3-15.7l2.4-2.9l-2.4-2.9c-2.7-3.2-5.7-6.2-8.9-8.9
			l-2.9-2.4l-2.9,2.4L288.5,97c-6.7-4.5-14.3-7.8-22.4-9.4l-1.4-20.5l-0.2-3.9l-3.9-0.2c-1.8-0.1-3.8-0.5-6.3-0.5
			c-2.5,0-4.5,0.3-6.3,0.5l-3.9,0.2l-0.2,3.9l-1.4,20.5c-8.2,1.6-15.8,4.9-22.4,9.4l-18.6-15.7l-14.2,14.2l15.7,18.6
			c-4.5,6.7-7.8,14.3-9.4,22.4L173,138l-3.9,0.2l-0.2,3.9c-0.1,1.8-0.5,3.8-0.5,6.3c0,2.5,0.3,4.5,0.5,6.3l0.2,3.9l3.9,0.2l20.5,1.4
			c1.6,8.2,4.9,15.8,9.4,22.4l-13.3,15.7l-2.4,2.9l2.4,2.9c2.7,3.2,5.7,6.2,8.9,8.9l2.9,2.4l2.9-2.4l15.7-13.3
			c6.7,4.5,14.3,7.8,22.4,9.4l1.4,20.5l0.2,3.9l3.9,0.2c1.8,0.1,3.8,0.5,6.3,0.5c2.5,0,4.5-0.3,6.3-0.5l3.9-0.2l0.2-3.9l1.4-20.5
			c8.2-1.6,15.8-4.9,22.4-9.4l15.7,13.3l2.9,2.4l2.9-2.4c3.2-2.7,6.2-5.7,8.9-8.9l2.4-2.9l-2.4-2.9l-13.3-15.7
			c4.5-6.7,7.8-14.3,9.4-22.4l20.5-1.4l3.9-0.2l0.2-3.9c0.1-1.8,0.5-3.8,0.5-6.3c0-2.5-0.3-4.5-0.5-6.3l-0.2-3.9L335.6,138z
			 M281.3,148.4c0,14.9-12.1,27-27,27c-14.9,0-27-12.1-27-27c0-14.9,12.1-27,27-27C269.2,121.4,281.3,133.5,281.3,148.4z"/>
	</g>
	<g id="g2924_1_" transform="matrix(0.965926,0.258819,-0.258819,0.965926,-6.83787,-6.6145)">
		<path id="path2930_1_" fill="#323232" d="M133.2-26.7c-2.7,0-4.9,0.4-6.8,0.5l-4.2,0.3l-0.3,4.2l-1.6,22.2
			c-8.9,1.7-17.1,5.4-24.3,10.2l-20.1-17L60.5,9.1l17,20.1c-4.8,7.2-8.4,15.4-10.2,24.3L45,55.2l-4.2,0.3l-0.3,4.2
			c-0.2,1.9-0.5,4.1-0.5,6.8c0,2.7,0.4,4.9,0.5,6.8l0.3,4.2l4.2,0.3l22.2,1.6c1.7,8.9,5.4,17.1,10.2,24.3l-14.4,17l-2.6,3.1l2.6,3.1
			c3,3.4,6.2,6.7,9.7,9.7l3.1,2.6l3.1-2.6l17-14.4c7.2,4.8,15.4,8.4,24.3,10.2l1.6,22.2l0.3,4.2l4.2,0.3c1.9,0.2,4.1,0.5,6.8,0.5
			c2.7,0,4.9-0.4,6.8-0.5l4.2-0.3l0.3-4.2l1.6-22.2c8.9-1.7,17.1-5.4,24.3-10.2l17,14.4l3.1,2.6l3.1-2.6c3.4-3,6.7-6.2,9.7-9.7
			l2.6-3.1l-2.6-3.1l-14.4-17c4.8-7.2,8.4-15.4,10.2-24.3l22.2-1.6l4.2-0.3l0.3-4.2c0.2-1.9,0.5-4.1,0.5-6.8c0-2.7-0.4-4.9-0.5-6.8
			l-0.3-4.2l-4.2-0.3L199,53.6c-1.7-8.9-5.4-17.1-10.2-24.3l14.4-17l2.6-3.1L203.2,6c-3-3.4-6.2-6.7-9.7-9.7l-3.1-2.6l-3.1,2.6
			l-17,14.4c-7.2-4.8-15.4-8.4-24.3-10.2l-1.6-22.2l-0.3-4.2l-4.2-0.3C138-26.3,135.8-26.7,133.2-26.7z M133.2,37.1
			c16.2,0,29.3,13.1,29.3,29.3c0,16.2-13.1,29.3-29.3,29.3s-29.3-13.1-29.3-29.3C103.9,50.2,117,37.1,133.2,37.1z"/>
	</g>
	<path id="path2978_1_" fill="#323232" d="M72.4,205c-4.1,0.2-8.1,0.8-12,1.6h-0.3c-2.9,0.6-5.8,1.4-8.6,2.4c-4,1.3-7.8,3-11.5,5
		l5.5,26.1c-4,3-7.7,6.4-10.7,10.5l-25.9-5.2c-2.1,4.1-4.1,8.1-5.5,12.6C1.5,264,0.3,270.6,0,277.4l25.6,8.6c0.6,5,1.7,9.9,3.7,14.4
		l-17.8,19.9c2.3,3.7,4.9,7.2,7.8,10.5l5.2,5c3.2,3,6.7,5.7,10.5,8.1L54.9,326c2.4,1.1,4.7,1.9,7.3,2.6c2.5,0.7,5.1,1.3,7.6,1.6
		l8.4,25.4c4.1-0.2,8.1-0.8,12-1.6h0.3c2.9-0.6,5.8-1.4,8.6-2.4c4-1.3,7.8-3,11.5-5l-5.5-26.1c4-3,7.7-6.4,10.7-10.5l25.9,5.2
		c2.1-4.1,4.1-8.1,5.5-12.6c1.9-6.2,3.1-12.9,3.4-19.6l-25.6-8.6c-0.6-5-1.7-9.9-3.7-14.4l17.8-19.9c-2.3-3.7-4.9-7.2-7.8-10.5
		l-5.2-5c-3.2-3-6.7-5.7-10.5-8.1l-19.9,17.8c-2.4-1.1-4.7-1.9-7.3-2.6c-2.5-0.7-5.1-1.3-7.6-1.6L72.4,205z M73.5,263.5
		c0.9-0.1,1.9-0.1,2.9,0c1.1,0.1,2.3,0.2,3.4,0.5c8.9,2.4,14.2,11.7,11.8,20.7c-2.4,8.9-11.7,14.2-20.7,11.8
		c-8.9-2.4-14.2-11.7-11.8-20.7C60.9,269,66.8,264.3,73.5,263.5z"/>
</g>
</svg>