<?xml version='1.0' encoding='UTF-8' standalone='no'?>
<svg height="203" version="1.2" width="1000" xmlns="http://www.w3.org/2000/svg" xmlns:atv="http://webmi.atvise.com/2007/svgext" xmlns:xlink="http://www.w3.org/1999/xlink">
 <defs/>
 <metadata>
  <atv:parameter behavior="optional" defaultvalue="#000000" name="color_frame" substitute="$f_color$" valuetype="color"/>
  <atv:parameter behavior="optional" defaultvalue="#f9fafb" name="color_background" substitute="$b_color$" valuetype="color"/>
  <atv:parameter behavior="optional" defaultvalue="Cancel" name="text_button_cancel" valuetype="string"/>
  <atv:parameter behavior="optional" defaultvalue="" name="step" valuetype="string"/>
  <atv:parameter behavior="optional" defaultvalue="OK" name="text_button_ok" valuetype="string"/>
  <atv:gridconfig enabled="false" gridstyle="lines" height="20" width="20"/>
  <atv:snapconfig enabled="false" height="10" width="10"/>
 </metadata>
 <g atv:insensitive="true" atv:refpx="0" atv:refpy="0" id="id_2">
  <rect atv:refpx="500" atv:refpy="101.5" fill="#f0f0f0" height="203.00" id="id_222" width="1000.00" x="0" y="0"/>
 </g>
 <rect atv:refpx="499.999" atv:refpy="101.499" fill="#f0f0f0" height="203" id="id_1" stroke="none" stroke-width="2" width="1000" x="0" y="0"/>
 <svg atv:refpx="709.234" atv:refpy="169.657" height="30" id="but_ok" transform="matrix(2.3358,0,0,1.5,0,0)" width="80" x="254.22" xlink:href="SYSTEM.LIBRARY.ATVISE.OBJECTDISPLAYS.Advanced.button" y="90">
  <atv:argument name="label" prefix="text_button_ok" value=""/>
  <atv:argument name="fontColor" value="SYSTEM.GLOBALS.atvFontColor"/>
  <atv:argument name="fontSize" value="16"/>
  <atv:overwrite height="43" id="id_6" transform="matrix(0.4281,0,0,0.6667,0,0)" width="184.864"/>
  <atv:overwrite id="button_label_2" transform="matrix(0.4281,0,0,0.6667,0,0)" x="93.432" y="34"/>
  <atv:overwrite id="button_label_1" transform="matrix(0.4281,0,0,0.6667,0,0)" x="93.432" y="19"/>
  <atv:overwrite id="button_label" transform="matrix(0.4281,0,0,0.6667,0,0)" x="93.432" y="27"/>
  <atv:overwrite id="button_symbol" transform="matrix(0.4281,0,0,0.6667,0,0)" x="83.432" y="12.5"/>
  <atv:overwrite height="41" id="button_stroke" transform="matrix(0.4281,0,0,0.6667,0,0)" width="182.864"/>
  <atv:overwrite height="43" id="button_bg" transform="matrix(0.4281,0,0,0.6667,0,0)" width="184.864"/>
  <atv:overwrite height="45" id="outer_frame" transform="matrix(0.4281,0,0,0.6667,0,0)" width="186.864"/>
 </svg>
 <text atv:refpx="500.522" atv:refpy="71" fill="#002d49" font-family="Arial" font-size="20" font-weight="bold" id="text_1" text-anchor="middle" x="500" y="78.5">Delete PDF now?</text>
 <svg atv:refpx="336.433" atv:refpy="168.656" height="30" id="but_cancel" transform="matrix(2.3358,0,0,1.5,0,0)" width="80" x="93.76" xlink:href="SYSTEM.LIBRARY.ATVISE.OBJECTDISPLAYS.Advanced.button" y="90">
  <atv:argument name="label" prefix="text_button_cancel" value=""/>
  <atv:argument name="fontColor" value="SYSTEM.GLOBALS.atvFontColor"/>
  <atv:argument name="fontSize" value="16"/>
  <atv:overwrite height="43" id="id_6" transform="matrix(0.4281,0,0,0.6667,0,0)" width="184.864"/>
  <atv:overwrite id="button_label_2" transform="matrix(0.4281,0,0,0.6667,0,0)" x="93.432" y="34"/>
  <atv:overwrite id="button_label_1" transform="matrix(0.4281,0,0,0.6667,0,0)" x="93.432" y="19"/>
  <atv:overwrite id="button_label" transform="matrix(0.4281,0,0,0.6667,0,0)" x="93.432" y="27"/>
  <atv:overwrite id="button_symbol" transform="matrix(0.4281,0,0,0.6667,0,0)" x="83.432" y="12.5"/>
  <atv:overwrite height="41" id="button_stroke" transform="matrix(0.4281,0,0,0.6667,0,0)" width="182.864"/>
  <atv:overwrite height="43" id="button_bg" transform="matrix(0.4281,0,0,0.6667,0,0)" width="184.864"/>
  <atv:overwrite height="45" id="outer_frame" transform="matrix(0.4281,0,0,0.6667,0,0)" width="186.864"/>
 </svg>
 <script atv:desc="" atv:name="" type="text/ecmascript"><![CDATA[webMI.gfx.setText("text_1",webMI.query.text_button_ok+"?");

webMI.trigger.connect("clicked", function(e) {
var id = "but_ok";
var value = e.value;
	
	if(webMI.query.mode=="one") {
	webMI.trigger.fire("delete_pdf",true);
	}
	
	closePopup()
}, "but_ok");

webMI.trigger.connect("clicked", function(e) {
var id = "but_cancel";
var value = e.value;	
	closePopup()
}, "but_cancel");

function closePopup(){
	webMI.display.closeWindow();
}]]></script>
</svg>
