<?xml version='1.0' encoding='UTF-8' standalone='no'?>
<svg height="890" version="1.2" width="1920" xmlns="http://www.w3.org/2000/svg" xmlns:atv="http://webmi.atvise.com/2007/svgext" xmlns:xlink="http://www.w3.org/1999/xlink">
 <defs/>
 <metadata>
  <atv:gridconfig enabled="false" gridstyle="lines" height="20" width="20"/>
  <atv:snapconfig enabled="true" height="2" width="2"/>
 </metadata>
 <svg atv:refpx="740" atv:refpy="809.994" height="600" id="equipamiento" transform="matrix(0.25,0,0,0.2667,0,0)" width="800" x="3056" xlink:href="SYSTEM.LIBRARY.ATVISE.OBJECTDISPLAYS.Advanced.hmi.iframe" y="2737.5">
  <atv:argument name="frameName" value="equipment"/>
 </svg>
 <svg atv:refpx="940" atv:refpy="809.994" height="600" id="energia" transform="matrix(0.25,0,0,0.2667,0,0)" width="800" x="3856" xlink:href="SYSTEM.LIBRARY.ATVISE.OBJECTDISPLAYS.Advanced.hmi.iframe" y="2737.158">
  <atv:argument name="frameName" value="energy"/>
 </svg>
 <svg atv:refpx="1140" atv:refpy="809.994" height="600" id="alarmas" transform="matrix(0.25,0,0,0.2667,0,0)" width="800" x="4656" xlink:href="SYSTEM.LIBRARY.ATVISE.OBJECTDISPLAYS.Advanced.hmi.iframe" y="2737.158">
  <atv:argument name="frameName" value="alarming"/>
 </svg>
 <svg atv:refpx="364" atv:refpy="684.452" height="600" id="id_36" transform="matrix(0.9,0,0,0.6783,0,0)" width="800" x="4.444" xlink:href="SYSTEM.LIBRARY.ATVISE.OBJECTDISPLAYS.Advanced.hmi.iframe" y="709.091">
  <atv:argument name="frameName" value="topo"/>
 </svg>
 <svg atv:refpx="175" atv:refpy="118" height="160" id="id_38" transform="matrix(2.1875,0,0,1.5,0,0)" width="160" x="0" xlink:href="SYSTEM.LIBRARY.ATVISE.OBJECTDISPLAYS.Advanced.dashboard.chart_bar_tile" y="0">
  <atv:argument name="title" value="T{Flujo del cárcamo}"/>
  <atv:argument name="series1Address" prefix="base" value=".flow"/>
  <atv:argument name="series1Name" value="T{Caudal L1}"/>
  <atv:argument name="series2Name" value="T{Caudal L2}"/>
  <atv:argument name="series3Name" value="T{Caudal L3}"/>
  <atv:argument name="max" value=""/>
  <atv:argument name="seriesCount" value="0"/>
  <atv:argument name="postDecimals" value="1"/>
  <atv:argument name="unit" value="T{l/s}"/>
  <atv:argument name="fontSizeTitle" value="20"/>
  <atv:argument name="series2Address" prefix="base" value=".flow2"/>
  <atv:argument name="series3Address" prefix="base" value=".flow3"/>
  <atv:argument name="series4Name" value="T{Caudal L4}"/>
  <atv:argument name="series4Address" prefix="base" value=".flow4"/>
  <atv:argument name="series5Name" value="T{Caudal L5}"/>
  <atv:argument name="series5Address" prefix="base" value=".flow5"/>
  <atv:argument name="series6Name" value="T{Caudal L6}"/>
  <atv:argument name="series6Address" prefix="base" value=".flow6"/>
  <atv:argument name="series7Name" value="T{Caudal L7}"/>
  <atv:argument name="series7Address" prefix="base" value=".flow7"/>
  <atv:argument name="min" value=""/>
  <atv:argument name="series7Color" value="#f15c80"/>
  <atv:argument name="series1Color" value="#008efa"/>
  <atv:argument name="series3Color" value="#434348"/>
  <atv:argument name="series4Color" value="#90ed7d"/>
  <atv:argument name="series5Color" value="#f7a35c"/>
  <atv:argument name="series6Color" value="#8085e9"/>
  <atv:argument name="borderColor" value="SYSTEM.GLOBALS.Colors.Brown-AR"/>
  <atv:argument name="backgroundColor" value="SYSTEM.GLOBALS.Colors.Blanco"/>
  <atv:argument name="textColor" value="SYSTEM.GLOBALS.Colors.Negro"/>
  <atv:argument name="enableClickContent" value="true"/>
  <atv:overwrite height="215" id="clickarea_display" transform="matrix(0.4571,0,0,0.6667,0,0)" width="350"/>
  <atv:overwrite height="105" id="clickarea_title" transform="matrix(0.4571,0,0,0.6667,0,0)" width="350"/>
  <atv:overwrite id="sub_label" transform="matrix(0.4571,0,0,0.6667,0,0)" x="175" y="149.246"/>
  <atv:overwrite id="main_label" transform="matrix(0.4571,0,0,0.6667,0,0)" x="175" y="130.5"/>
  <atv:overwrite height="236" id="blinking_frame" transform="matrix(0.4571,0,0,0.6667,0,0)" width="346"/>
  <atv:overwrite height="210" id="content_frame" transform="matrix(0.4571,0,0,0.6667,0,0)" width="340"/>
  <atv:overwrite id="chart" transform="matrix(1.0331,0,0,1.0718,0,0)" x="2.434" y="15.861"/>
  <atv:overwrite id="title" transform="matrix(0.4571,0,0,0.6667,0,0)" x="175"/>
  <atv:overwrite height="238" id="background" transform="matrix(0.4571,0,0,0.6667,0,0)" width="348"/>
 </svg>
 <svg atv:refpx="609.939" atv:refpy="120" height="160" id="id_40" transform="matrix(3.8,0,0,1.5,0,0)" width="160" x="92.106" xlink:href="SYSTEM.LIBRARY.ATVISE.OBJECTDISPLAYS.Advanced.dashboard.chart_line_tile" y="0">
  <atv:argument name="fontSizeTitle" value="20"/>
  <atv:argument name="title" value="T{Nivel}"/>
  <atv:argument name="unit" value="T{%}"/>
  <atv:argument name="trendName" value="level"/>
  <atv:argument name="xAxisxAxis_timeSpanUnit" value="minute(s)"/>
  <atv:argument name="series1series_name" value="T{Nivel}"/>
  <atv:argument name="series1series_address" prefix="base" value=".level_percent"/>
  <atv:argument name="series1series_marker_enabled" value="false"/>
  <atv:argument name="yAxis1yAxis_min" value="0"/>
  <atv:argument name="xAxisxAxis_timeSpan" value="30"/>
  <atv:argument name="series1series_tooltip_valueDecimals" value="2"/>
  <atv:argument name="series1series_tooltip_valueSuffix" value="%"/>
  <atv:argument name="gshowTooltip" value="true"/>
  <atv:argument name="series2series_address" prefix="base" value=".level_percent2"/>
  <atv:argument name="series2series_marker_enabled" value="false"/>
  <atv:argument name="series1series_color" value="#01d8bf"/>
  <atv:argument name="borderColor" value="SYSTEM.GLOBALS.Colors.Brown-AR"/>
  <atv:argument name="backgroundColor" value="SYSTEM.GLOBALS.Colors.Blanco"/>
  <atv:argument name="textColor" value="SYSTEM.GLOBALS.Colors.Negro"/>
  <atv:argument name="enableClickContent" value="true"/>
  <atv:overwrite height="215" id="clickarea_display" transform="matrix(0.2632,0,0,0.6667,0,0)" width="608.001"/>
  <atv:overwrite height="105" id="clickarea_title" transform="matrix(0.2632,0,0,0.6667,0,0)" width="608.001"/>
  <atv:overwrite id="sub_label" transform="matrix(0.2632,0,0,0.6667,0,0)" x="304" y="149.246"/>
  <atv:overwrite id="main_label" transform="matrix(0.2632,0,0,0.6667,0,0)" x="304" y="130.5"/>
  <atv:overwrite id="chart" transform="matrix(0.3928,0,0,0.3483,0,0)" x="3.685" y="48.804"/>
  <atv:overwrite height="236" id="blinking_frame" transform="matrix(0.2632,0,0,0.6667,0,0)" width="604.001"/>
  <atv:overwrite height="210" id="content_frame" transform="matrix(0.2632,0,0,0.6667,0,0)" width="598.001"/>
  <atv:overwrite id="title" transform="matrix(0.2632,0,0,0.6667,0,0)" x="304"/>
  <atv:overwrite height="238" id="background" transform="matrix(0.2632,0,0,0.6667,0,0)" width="606.001"/>
 </svg>
 <svg atv:refpx="1217.94" atv:refpy="120" height="160" id="id_42" transform="matrix(3.8,0,0,1.5,0,0)" width="160" x="252.105" xlink:href="SYSTEM.LIBRARY.ATVISE.OBJECTDISPLAYS.Advanced.dashboard.chart_line_tile" y="0">
  <atv:argument name="fontSizeTitle" value="20"/>
  <atv:argument name="title" value="T{Caudal}"/>
  <atv:argument name="unit" value="T{l/s}"/>
  <atv:argument name="trendName" value="flow"/>
  <atv:argument name="xAxisxAxis_timeSpanUnit" value="minute(s)"/>
  <atv:argument name="series1series_address" prefix="base" value=".flow"/>
  <atv:argument name="series1series_name" value="T{Caudal L1}"/>
  <atv:argument name="series1series_marker_enabled" value="false"/>
  <atv:argument name="yAxis1yAxis_min" value="0"/>
  <atv:argument name="xAxisxAxis_timeSpan" value="30"/>
  <atv:argument name="series1series_tooltip_valueDecimals" value="2"/>
  <atv:argument name="series1series_tooltip_valueSuffix" value="m3"/>
  <atv:argument name="gshowTooltip" value="true"/>
  <atv:argument name="series2series_address" prefix="base" value=".flow2"/>
  <atv:argument name="series2series_name" value="T{Caudal L2}"/>
  <atv:argument name="series2series_marker_enabled" value="false"/>
  <atv:argument name="series2series_tooltip_valueDecimals" value="2"/>
  <atv:argument name="series2series_tooltip_valueSuffix" value="l/s"/>
  <atv:argument name="series3series_address" prefix="base" value=".flow3"/>
  <atv:argument name="series3series_name" value="T{Caudal L3}"/>
  <atv:argument name="series3series_marker_enabled" value="false"/>
  <atv:argument name="series3series_tooltip_valueDecimals" value="2"/>
  <atv:argument name="series3series_tooltip_valueSuffix" value="l/s"/>
  <atv:argument name="series4series_address" prefix="base" value=".flow4"/>
  <atv:argument name="series4series_name" value="T{Caudal L4}"/>
  <atv:argument name="series4series_marker_enabled" value="false"/>
  <atv:argument name="series4series_tooltip_valueDecimals" value="2"/>
  <atv:argument name="series4series_tooltip_valueSuffix" value="l/s"/>
  <atv:argument name="series5series_address" prefix="base" value=".flow5"/>
  <atv:argument name="series5series_name" value="T{Caudal L5}"/>
  <atv:argument name="series5series_marker_enabled" value="false"/>
  <atv:argument name="series5series_tooltip_valueDecimals" value="2"/>
  <atv:argument name="series5series_tooltip_valueSuffix" value="l/s"/>
  <atv:argument name="series6series_address" prefix="base" value=".flow6"/>
  <atv:argument name="series6series_name" value="T{Caudal L6}"/>
  <atv:argument name="series6series_marker_enabled" value="false"/>
  <atv:argument name="series6series_tooltip_valueDecimals" value="2"/>
  <atv:argument name="series6series_tooltip_valueSuffix" value="l/s"/>
  <atv:argument name="series7series_address" prefix="base" value=".flow7"/>
  <atv:argument name="series7series_name" value="T{Caudal L7}"/>
  <atv:argument name="series7series_tooltip_valueDecimals" value="2"/>
  <atv:argument name="series7series_tooltip_valueSuffix" value="l/s"/>
  <atv:argument name="series7series_marker_enabled" value="false"/>
  <atv:argument name="series1series_color" value="#01d8bf"/>
  <atv:argument name="borderColor" value="SYSTEM.GLOBALS.Colors.Brown-AR"/>
  <atv:argument name="backgroundColor" value="SYSTEM.GLOBALS.Colors.Blanco"/>
  <atv:argument name="textColor" value="SYSTEM.GLOBALS.Colors.Negro"/>
  <atv:argument name="enableClickContent" value="true"/>
  <atv:overwrite height="215" id="clickarea_display" transform="matrix(0.2632,0,0,0.6667,0,0)" width="608.001"/>
  <atv:overwrite height="105" id="clickarea_title" transform="matrix(0.2632,0,0,0.6667,0,0)" width="608.001"/>
  <atv:overwrite id="sub_label" transform="matrix(0.2632,0,0,0.6667,0,0)" x="304" y="149.246"/>
  <atv:overwrite id="main_label" transform="matrix(0.2632,0,0,0.6667,0,0)" x="304" y="130.5"/>
  <atv:overwrite id="chart" transform="matrix(0.3928,0,0,0.3483,0,0)" x="3.685" y="48.804"/>
  <atv:overwrite height="236" id="blinking_frame" transform="matrix(0.2632,0,0,0.6667,0,0)" width="604.001"/>
  <atv:overwrite height="210" id="content_frame" transform="matrix(0.2632,0,0,0.6667,0,0)" width="598.001"/>
  <atv:overwrite id="title" transform="matrix(0.2632,0,0,0.6667,0,0)" x="304"/>
  <atv:overwrite height="238" id="background" transform="matrix(0.2632,0,0,0.6667,0,0)" width="606.001"/>
 </svg>
 <svg atv:refpx="175" atv:refpy="362.769" height="160" id="id_3" transform="matrix(2.1875,0,0,1.5,0,0)" width="160" x="0" xlink:href="SYSTEM.LIBRARY.ATVISE.OBJECTDISPLAYS.Advanced.dashboard.base_custom_tile" y="159.999">
  <atv:argument name="borderColor" value="SYSTEM.GLOBALS.Colors.Brown-AR"/>
  <atv:argument name="textColor" value="SYSTEM.GLOBALS.Colors.Negro"/>
  <atv:argument name="backgroundColor" value="SYSTEM.GLOBALS.Colors.Blanco"/>
  <atv:argument name="title" value="T{Producción}"/>
  <atv:argument name="titleFontSize" value="20"/>
  <atv:argument name="colorInactive" value="SYSTEM.GLOBALS.Colors.Blanco"/>
  <atv:overwrite height="215.001" id="clickarea_display" transform="matrix(0.4571,0,0,0.6667,0,0)" width="350"/>
  <atv:overwrite height="105.001" id="clickarea_title" transform="matrix(0.4571,0,0,0.6667,0,0)" width="350"/>
  <atv:overwrite id="sub_label" transform="matrix(1.1633,0,0,2.642,-13.0639,-177.1872)"/>
  <atv:overwrite id="main_label" transform="matrix(1.2923,0,0,2.3333,-23.3846,-111.668)"/>
  <atv:overwrite height="236.001" id="blinking_frame" transform="matrix(0.4571,0,0,0.6667,0,0)" width="346"/>
  <atv:overwrite height="210.001" id="content_frame" transform="matrix(0.4571,0,0,0.6667,0,0)" width="340"/>
  <atv:overwrite id="title" transform="matrix(0.4571,0,0,0.6667,0,0)" x="175"/>
  <atv:overwrite height="238.001" id="background" transform="matrix(0.4571,0,0,0.6667,0,0)" width="348"/>
 </svg>
 <svg atv:refpx="175" atv:refpy="369.504" height="130" id="id_2" transform="matrix(2.3067,0,0,1.6693,0,0)" width="150" x="0.867" xlink:href="SYSTEM.LIBRARY.ATVISE.OBJECTDISPLAYS.Advanced.dashboard.charts.pie" y="156.354">
  <atv:argument name="series1Address" prefix="base" value=".cummulative"/>
  <atv:argument name="innerSize" value="75"/>
  <atv:argument name="outerSize" value="100"/>
  <atv:argument name="seriesCount" value="0"/>
  <atv:argument name="unit" value="T{M3}"/>
  <atv:argument name="series1Name" value="T{L1}"/>
  <atv:argument name="series2Address" prefix="base" value=".cummulative2"/>
  <atv:argument name="series3Address" prefix="base" value=".cummulative3"/>
  <atv:argument name="series4Address" prefix="base" value=".cummulative4"/>
  <atv:argument name="series5Address" prefix="base" value=".cummulative5"/>
  <atv:argument name="series6Address" prefix="base" value=".cummulative6"/>
  <atv:argument name="series7Address" prefix="base" value=".cummulative7"/>
  <atv:argument name="series2Name" value="T{L2}"/>
  <atv:argument name="series3Name" value="T{L3}"/>
  <atv:argument name="series4Name" value="T{L4}"/>
  <atv:argument name="series5Name" value="T{L5}"/>
  <atv:argument name="series6Name" value="T{L6}"/>
  <atv:argument name="series7Name" value="T{L7}"/>
  <atv:argument name="series1Color" value="#008efa"/>
  <atv:argument name="series2Color" value="7cb5ec"/>
  <atv:argument name="series3Color" value="#434348"/>
  <atv:argument name="series4Color" value="#90ed7d"/>
  <atv:argument name="series5Color" value="#f7a35c"/>
  <atv:argument name="series6Color" value="#8085e9"/>
  <atv:argument name="series7Color" value="#f15c80"/>
  <atv:overwrite id="sub_label" transform="matrix(0.4335,0,0,0.5991,0,0)" x="173.003" y="125.875"/>
  <atv:overwrite id="main_label" transform="matrix(0.4335,0,0,0.5991,0,0)" x="173.003" y="107.129"/>
  <atv:overwrite height="215.004" id="fo_container" transform="matrix(0.4335,0,0,0.5991,0,0)" width="344.005"/>
  <atv:overwrite height="216.004" id="border" transform="matrix(0.4335,0,0,0.5991,0,0)" width="345.005"/>
 </svg>
 <svg atv:refpx="1743.735" atv:refpy="121" height="242" id="id_12" width="352.53" x="1567.47" xlink:href="SYSTEM.DISPLAYS.Circuito.op_param" y="0"/>
 <svg atv:refpx="1744" atv:refpy="566" height="648" id="id_4" width="352" x="1568" xlink:href="SYSTEM.DISPLAYS.Circuito.emergency_power_supply" y="242">
  <atv:argument name="base" prefix="base"/>
 </svg>
 <script atv:desc="" atv:name="" type="text/ecmascript"><![CDATA[

var n;
var m;
//Añadir función en la carga del display principal
webMI.addOnload(function(e) {
	
	//Obtener el nombre en formato string del objeto base, haciendo una query al webMI 
	var name = webMI.query.base;
	//Parte de la función addOnload
	var id = "";
	var value = true;

//Cargar menús de equipamiento, alarmas y energía
webMI.display.openDisplay("SYSTEM.DISPLAYS.Circuito.Equipos",
	{base:  name},
	"equipment");
				
webMI.display.openDisplay("SYSTEM.DISPLAYS.Circuito.Energia",
	{base:  name},
	"energy");
				
webMI.display.openDisplay("SYSTEM.DISPLAYS.Circuito.Alarmas",
	{base:  name},
	"alarming");
	
webMI.data.subscribe(webMI.query["base"] + ".cuenca", function(e) {
	var id = "id_36";
	var value = e.value;
	webMI.display.openDisplay(value, webMI.query, "topo");
	});
	


});



]]></script>
 <svg atv:refpx="1113" atv:refpy="492.007" height="600" id="id_0" transform="matrix(0.8925,0,0,0.7399,0,0)" width="800" x="847.059" xlink:href="SYSTEM.LIBRARY.ATVISE.OBJECTDISPLAYS.Advanced.hmi.iframe" y="364.914">
  <atv:argument name="frameName" value="tanque"/>
  <atv:argument name="base" prefix="base"/>
  <atv:argument name="display" value="ObjectTypes.PROJECT.ElementoLineaAR.Tanque"/>
 </svg>
</svg>
