<?xml version='1.0' encoding='UTF-8' standalone='no'?>
<svg height="100" version="1.2" width="100" xmlns="http://www.w3.org/2000/svg" xmlns:atv="http://webmi.atvise.com/2007/svgext" xmlns:xlink="http://www.w3.org/1999/xlink">
 <defs>
  <linearGradient gradientUnits="objectBoundingBox" id="linear_12" x1="0.119403" x2="0.119403" y1="0.970149" y2="-0.0159425">
   <stop offset="0" stop-color="#29394b"/>
   <stop offset="1" stop-color="#788ba3"/>
  </linearGradient>
  <linearGradient gradientUnits="objectBoundingBox" id="linear_13" x1="0.776844" x2="0.776844" y1="-0.0159425" y2="0.940299">
   <stop offset="0" stop-color="#1a242f"/>
   <stop offset="1" stop-color="#71849c"/>
  </linearGradient>
  <linearGradient gradientUnits="objectBoundingBox" id="linear_8" x1="1" x2="1" y1="-0.0183441" y2="1">
   <stop offset="0" stop-color="#c4c4c4"/>
   <stop offset="1" stop-color="#000000"/>
  </linearGradient>
  <linearGradient gradientUnits="objectBoundingBox" id="linear_4" x1="1" x2="1" y1="-0.0183441" y2="1">
   <stop offset="0" stop-color="#ffffff" stop-opacity="0.2745098039215687"/>
   <stop offset="0.5515695067264574" stop-color="#ffffff" stop-opacity="0"/>
  </linearGradient>
 </defs>
 <desc>Displays the current client time.</desc>
 <title>Clock Analog</title>
 <metadata>
  <atv:parameter behavior="hidden" name="base" valuetype="address"/>
  <atv:gridconfig enabled="true" gridstyle="lines" height="2" width="2"/>
  <atv:snapconfig enabled="true" height="2" width="2"/>
 </metadata>
 <circle atv:refpx="50" atv:refpy="50" cx="50" cy="50" fill="url(#linear_12)" id="id_46" r="49.5" stroke="#646464" stroke-width="0.5"/>
 <circle atv:refpx="50" atv:refpy="50" cx="50" cy="50" fill="url(#linear_13)" id="id_49" r="47" stroke="none" stroke-width="2"/>
 <circle atv:refpx="50" atv:refpy="50" cx="50" cy="50" fill="#495a6f" id="id_50" r="45" stroke="none" stroke-width="2"/>
 <circle atv:refpx="50" atv:refpy="50" cx="50" cy="50" fill="url(#linear_4)" id="id_1" r="44.374" stroke="none" stroke-width="2"/>
 <path atv:refpx="50" atv:refpy="49.986" d="M49.292,50L49.291,40.048L48.229,38.145L49.999,28L51.77,38.144L50.707,40.048L50.707,50Z" fill="#bf0000" id="hour" stroke="#c4c4c4" stroke-width="0.5"/>
 <path atv:refpx="50" atv:refpy="49.998" d="M49.292,50L49.292,30.666L48.23,28.665L49.999,18L51.769,28.666L50.707,30.666L50.707,50Z" fill="#bf0000" id="minute" stroke="#c4c4c4" stroke-width="0.5"/>
 <g atv:refpx="50" atv:refpy="50" id="id_3">
  <circle atv:refpx="-84.354" atv:refpy="-14.354" cx="50" cy="50" fill="url(#linear_8)" id="id_65" r="6.507" stroke="none" stroke-width="1.66"/>
  <circle atv:refpx="93.251" atv:refpy="137.516" cx="50" cy="50" fill="url(#linear_12)" id="id_66" r="6.242" stroke="none" stroke-width="1.66"/>
 </g>
 <g atv:refpx="52.081" atv:refpy="49.999" id="id_19" transform="matrix(0.9584,0,0,0.9584,2.0806,2.0806)">
  <path atv:refpx="-16.105" atv:refpy="14.714" d="M32.119,17.028L28.866,11.393L27.134,12.393L30.39,18.033C30.958,17.686 31.531,17.347 32.119,17.028" fill="#ffffff" id="id_0" stroke-width="1"/>
  <path atv:refpx="-73.891" atv:refpy="56.761" d="M18.034,30.39L12.394,27.134L11.394,28.866L17.03,32.119C17.349,31.533 17.686,30.958 18.034,30.39" fill="#ffffff" id="id_2" stroke-width="1"/>
  <path atv:refpx="167.252" atv:refpy="50.763" d="M82.972,32.119L88.606,28.867L87.606,27.135L81.966,30.391C82.314,30.958 82.652,31.533 82.972,32.119" fill="#ffffff" id="id_4" stroke-width="1"/>
  <path atv:refpx="106.136" atv:refpy="14.715" d="M69.609,18.034L72.866,12.393L71.134,11.393L67.881,17.03C68.469,17.347 69.044,17.686 69.609,18.034" fill="#ffffff" id="id_6" stroke-width="1"/>
  <path atv:refpx="167.252" atv:refpy="132.255" d="M81.966,69.608L87.606,72.866L88.606,71.135L82.97,67.881C82.652,68.468 82.313,69.043 81.966,69.608" fill="#ffffff" id="id_11" stroke-width="1"/>
  <path atv:refpx="-73.891" atv:refpy="138.255" d="M17.03,67.881L11.394,71.135L12.394,72.866L18.034,69.608C17.686,69.043 17.349,68.468 17.03,67.881" fill="#ffffff" id="id_12" stroke-width="1"/>
  <path atv:refpx="29.627" atv:refpy="243.216" d="M30.39,81.965L27.134,87.606L28.866,88.606L32.119,82.971C31.533,82.651 30.958,82.314 30.39,81.965" fill="#ffffff" id="id_14" stroke-width="1"/>
  <path atv:refpx="70.374" atv:refpy="243.216" d="M67.881,82.971L71.134,88.606L72.866,87.606L69.609,81.965C69.042,82.312 68.467,82.651 67.881,82.971" fill="#ffffff" id="id_15" stroke-width="1"/>
 </g>
 <text atv:refpx="50" atv:refpy="12.5" fill="#ffffff" font-family="Arial" font-size="12" id="id_10" x="43.5" y="17">12</text>
 <text atv:refpx="50" atv:refpy="88.5" fill="#ffffff" font-family="Arial" font-size="10" id="id_16" x="47.5" y="92">6</text>
 <text atv:refpx="89.5" atv:refpy="50" fill="#ffffff" font-family="Arial" font-size="12" id="id_17" x="86.5" y="54.5">3</text>
 <text atv:refpx="11.5" atv:refpy="50" fill="#ffffff" font-family="Arial" font-size="12" id="id_18" x="8.5" y="54.5">9</text>
 <script atv:desc="" atv:href="SYSTEM.LIBRARY.ATVISE.DISPLAYSCRIPTS.hmi.clock_analog" atv:name="clock_analog" atv:type="text/ecmascript"/>
 <script atv:desc="" atv:name="" type="text/ecmascript"/>
</svg>
