<svg width="24" height="24" stroke-width="1.5" stroke="#000000" class="icon icon-tabler icon-tabler-location-filled" xmlns:xlink="http://www.w3.org/1999/xlink" fill="none" stroke-linecap="round" xmlns:atv="http://webmi.atvise.com/2007/svgext" stroke-linejoin="round" xmlns="http://www.w3.org/2000/svg">
 <defs/>
 <metadata>
  <atv:gridconfig enabled="false" gridstyle="lines" height="20" width="20"/>
  <atv:snapconfig enabled="false" height="10" width="10"/>
 </metadata>
 <path atv:refpx="12" atv:refpy="12" d="M0,0L24,0L24,24L0,24Z" fill="none" id="id_0" stroke="none"/>
 <path atv:refpx="11.84" atv:refpy="12.16" d="M20.891,2.005L20.997,1.999L21.127,2.007L21.217,2.023L21.34,2.058L21.447,2.104L21.547,2.161L21.637,2.228L21.719,2.304L21.771,2.363L21.853,2.479L21.905,2.575C21.952,2.675 21.982,2.781 21.995,2.891L22,2.997C22,3.072 21.992,3.146 21.976,3.217L21.941,3.34L15.408,21.417C15.156,21.967 14.605,22.32 13.999,22.32C13.456,22.321 12.952,22.038 12.67,21.573L12.605,21.446L9.253,14.744L2.583,11.408C2.081,11.178 1.739,10.698 1.685,10.149L1.679,10C1.679,9.44 1.98,8.928 2.52,8.63L2.66,8.56L20.677,2.054L20.784,2.024L20.892,2.006Z" fill="currentColor" id="id_1" stroke-width="0"/>
</svg>
