<?xml version='1.0' encoding='UTF-8' standalone='no'?>
<svg height="40" version="1.2" width="40" xmlns="http://www.w3.org/2000/svg" xmlns:atv="http://webmi.atvise.com/2007/svgext" xmlns:xlink="http://www.w3.org/1999/xlink">
 <defs/>
 <metadata>
  <atv:parameter behavior="optional" defaultvalue="#000000" desc="symbol color" name="symbolColor" substitute="$SYMBOLCOLOR$" valuetype="color"/>
  <atv:gridconfig enabled="true" gridstyle="lines" height="1" width="1"/>
  <atv:snapconfig enabled="true" height="1" width="1"/>
 </metadata>
 <path atv:refpx="65.794" atv:refpy="20.001" d="M30.905,13.38L30.905,28.274C30.905,28.274 38.163,27.446 38.163,20C38.163,12.553 30.905,11.725 30.905,11.725C30.905,11.725 30.905,13.38 30.905,13.38" fill="$SYMBOLCOLOR$" id="id_0" stroke="none" stroke-width="2"/>
 <path atv:refpx="-6.29" atv:refpy="6.556" d="M9.132,13.38L9.132,28.274C9.132,28.274 1.875,27.446 1.875,20C1.875,12.553 9.132,11.725 9.132,11.725C9.132,11.725 9.132,13.38 9.132,13.38" fill="$SYMBOLCOLOR$" id="id_1" stroke="none" stroke-width="2"/>
 <polygon atv:refpx="10.04" atv:refpy="31.176" fill="none" id="id_4" points="10.947,10.696 9.132,10.696 9.132,29.303 10.947,29.303" stroke="$SYMBOLCOLOR$" stroke-width="0.5"/>
 <polygon atv:refpx="59.444" atv:refpy="20.001" fill="none" id="id_5" points="30.905,10.696 29.091,10.696 29.091,29.303 30.905,29.303" stroke="$SYMBOLCOLOR$" stroke-width="0.5"/>
 <rect atv:refpx="1.583" atv:refpy="37.201" fill="$SYMBOLCOLOR$" height="6.559" id="id_6" rx="0" ry="0" stroke="none" stroke-width="0.5" width="1.874" x="0.646" y="16.721"/>
 <rect atv:refpx="57.511" atv:refpy="-4.362" fill="$SYMBOLCOLOR$" height="6.559" id="id_7" rx="0" ry="0" stroke="none" stroke-width="0.5" width="1.874" x="37.48" y="16.721"/>
 <path atv:refpx="15.486" atv:refpy="20.137" d="M19.999,28.412L10.973,28.412L10.973,11.863L19.999,11.863L19.999,15.396L16.849,15.396L16.849,17.27L19.999,17.27Z" fill="$SYMBOLCOLOR$" fill-rule="evenodd" id="id_17" stroke="none" stroke-width="2"/>
 <path atv:refpx="22.986" atv:refpy="20.137" d="M29.117,11.863L29.117,28.412L16.856,28.412L16.856,17.271L23.408,17.271L23.408,15.397L16.856,15.397L16.856,11.863Z" fill="$SYMBOLCOLOR$" fill-rule="evenodd" id="id_18" stroke="none" stroke-width="2"/>
 <script atv:desc="" atv:name="" type="text/ecmascript"/>
</svg>
