<?xml version='1.0' encoding='UTF-8' standalone='no'?>
<svg height="60" version="1.2" width="60" xmlns="http://www.w3.org/2000/svg" xmlns:atv="http://webmi.atvise.com/2007/svgext" xmlns:xlink="http://www.w3.org/1999/xlink">
 <defs/>
 <metadata>
  <atv:parameter behavior="optional" defaultvalue="#000000" desc="symbol color" name="symbolColor" substitute="$SYMBOLCOLOR$" valuetype="color"/>
  <atv:gridconfig enabled="false" gridstyle="lines" height="20" width="20"/>
  <atv:snapconfig enabled="false" height="10" width="10"/>
 </metadata>
 <rect atv:refpx="15.073" atv:refpy="63.286" fill="$SYMBOLCOLOR$" height="5.425" id="id_20" stroke-width="0.819" width="5.425" x="6.936" y="24.573"/>
 <rect atv:refpx="31.352" atv:refpy="63.286" fill="$SYMBOLCOLOR$" height="5.425" id="id_21" stroke-width="0.819" width="5.425" x="15.078" y="24.573"/>
 <rect atv:refpx="70.736" atv:refpy="43.561" fill="$SYMBOLCOLOR$" height="5.425" id="id_22" stroke-width="0.819" width="5.425" x="23.219" y="24.573"/>
 <rect atv:refpx="95.15" atv:refpy="43.561" fill="$SYMBOLCOLOR$" height="5.425" id="id_23" stroke-width="0.819" width="5.425" x="31.357" y="24.573"/>
 <rect atv:refpx="15.073" atv:refpy="87.706" fill="$SYMBOLCOLOR$" height="5.425" id="id_24" stroke-width="0.819" width="5.425" x="6.936" y="32.715"/>
 <rect atv:refpx="31.352" atv:refpy="87.706" fill="$SYMBOLCOLOR$" height="5.425" id="id_25" stroke-width="0.819" width="5.425" x="15.078" y="32.715"/>
 <rect atv:refpx="47.63" atv:refpy="87.706" fill="$SYMBOLCOLOR$" height="5.425" id="id_26" stroke-width="0.819" width="5.425" x="23.219" y="32.715"/>
 <rect atv:refpx="143.983" atv:refpy="43.561" fill="$SYMBOLCOLOR$" height="5.425" id="id_27" stroke-width="0.819" width="5.425" x="47.636" y="24.573"/>
 <rect atv:refpx="119.571" atv:refpy="43.561" fill="$SYMBOLCOLOR$" height="5.425" id="id_28" stroke-width="0.819" width="5.425" x="39.497" y="24.573"/>
 <rect atv:refpx="15.073" atv:refpy="112.123" fill="$SYMBOLCOLOR$" height="5.425" id="id_29" stroke-width="0.819" width="5.425" x="6.936" y="40.856"/>
 <rect atv:refpx="43.566" atv:refpy="112.123" fill="$SYMBOLCOLOR$" height="5.425" id="id_30" stroke-width="0.819" width="29.846" x="15.078" y="40.856"/>
 <rect atv:refpx="143.983" atv:refpy="76.115" fill="$SYMBOLCOLOR$" height="5.425" id="id_31" stroke-width="0.819" width="5.425" x="47.636" y="40.856"/>
 <rect atv:refpx="95.15" atv:refpy="59.84" fill="$SYMBOLCOLOR$" height="5.425" id="id_32" stroke-width="0.819" width="5.425" x="31.357" y="32.715"/>
 <rect atv:refpx="143.983" atv:refpy="59.84" fill="$SYMBOLCOLOR$" height="5.425" id="id_33" stroke-width="0.819" width="5.425" x="47.636" y="32.715"/>
 <rect atv:refpx="119.571" atv:refpy="59.84" fill="$SYMBOLCOLOR$" height="5.425" id="id_34" stroke-width="0.819" width="5.425" x="39.497" y="32.715"/>
 <polyline atv:refpx="30.002" atv:refpy="29.416" fill="none" id="id_3" points="53.729,9.071 53.729,13.015 40.368,13.015 40.368,18.266 37.622,18.266 37.622,21.125 3.499,21.125 3.499,49.757 56.5,49.757 56.5,21.125 37.622,21.125" stroke="$SYMBOLCOLOR$" stroke-linejoin="miter" stroke-width="3"/>
 <script atv:desc="" atv:name="" type="text/ecmascript"/>
</svg>
