<?xml version='1.0' encoding='UTF-8' standalone='no'?>
<svg height="30" version="1.2" width="335" xmlns="http://www.w3.org/2000/svg" xmlns:atv="http://webmi.atvise.com/2007/svgext" xmlns:xlink="http://www.w3.org/1999/xlink">
 <defs/>
 <metadata>
  <atv:parameter behavior="optional" defaultvalue="Atributo" name="Atributo" substitute="$a$" valuetype="string"/>
  <atv:parameter behavior="optional" name="Hora" substitute="$hora$" valuetype="address"/>
  <atv:parameter behavior="optional" name="Minuto" substitute="$minuto$" valuetype="address"/>
  <atv:gridconfig enabled="false" gridstyle="lines" height="20" width="20"/>
  <atv:snapconfig enabled="false" height="10" width="10"/>
 </metadata>
 <script atv:desc="" atv:name="" type="text/ecmascript"/>
 <text atv:refpx="41.449" atv:refpy="12.978" fill="#000000" font-family="Arial" font-size="14" font-weight="bold" id="id_7" text-anchor="start" x="4.5" y="19.978">$a$</text>
 <svg atv:refpx="212.001" atv:refpy="15" height="30" id="id_18" transform="matrix(0.5,0,0,1,0,0)" width="160" x="350" xlink:href="SYSTEM.LIBRARY.ATVISE.OBJECTDISPLAYS.Advanced.in_out_value" y="0">
  <atv:argument name="base" prefix="Hora"/>
  <atv:argument name="unit" value="T{:}"/>
  <atv:argument name="postDecimal" value="0"/>
  <atv:argument name="selectTextOnFocus" value="true"/>
  <atv:overwrite id="input_label" transform="matrix(2.411,0,0,1,4.909,0)" x="56.555"/>
  <atv:overwrite id="blinking_frame" transform="matrix(2,0,0,1,0,0)" width="72"/>
  <atv:overwrite id="focus_frame" transform="matrix(2,0,0,1,0,0)" width="76"/>
  <atv:overwrite id="input_bg" transform="matrix(2,0,0,1,0,0)" width="72"/>
  <atv:overwrite id="id_1" transform="matrix(2,0,0,1,0,0)" width="78"/>
  <atv:overwrite id="input_border" transform="matrix(2,0,0,1,0,0)" width="80"/>
 </svg>
 <svg atv:refpx="293.714" atv:refpy="15" height="30" id="id_22" transform="matrix(0.5,0,0,1,0,0)" width="160" x="509.427" xlink:href="SYSTEM.LIBRARY.ATVISE.OBJECTDISPLAYS.Advanced.in_out_value" y="0">
  <atv:argument name="base" prefix="Minuto"/>
  <atv:argument name="unit" value="T{h}"/>
  <atv:argument name="postDecimal" value="0"/>
  <atv:argument name="selectTextOnFocus" value="true"/>
  <atv:overwrite id="input_label" transform="matrix(2.411,0,0,1,4.909,0)" x="56.555"/>
  <atv:overwrite id="blinking_frame" transform="matrix(2,0,0,1,0,0)" width="72"/>
  <atv:overwrite id="focus_frame" transform="matrix(2,0,0,1,0,0)" width="76"/>
  <atv:overwrite id="input_bg" transform="matrix(2,0,0,1,0,0)" width="72"/>
  <atv:overwrite id="id_1" transform="matrix(2,0,0,1,0,0)" width="78"/>
  <atv:overwrite id="input_border" transform="matrix(2,0,0,1,0,0)" width="80"/>
 </svg>
</svg>
