<?xml version='1.0' encoding='UTF-8' standalone='no'?>
<svg height="30" version="1.2" width="110" xmlns="http://www.w3.org/2000/svg" xmlns:atv="http://webmi.atvise.com/2007/svgext" xmlns:xlink="http://www.w3.org/1999/xlink">
 <defs/>
 <title>Display Date</title>
 <desc>Displays the current client date.</desc>
 <metadata>
  <atv:parameter behavior="optional" name="base" valuetype="address"/>
  <atv:parameter behavior="optional" defaultvalue="T{.}" desc="separator" name="separator" substitute="$SEPARATOR$" valuetype="trstring"/>
  <atv:parameter behavior="optional" defaultvalue="SYSTEM.GLOBALS.atvFontColor" desc="font color" group="Appearance" name="fontColor" substitute="$FONTCOLOR$" valuetype="global"/>
  <atv:parameter behavior="optional" defaultvalue="SYSTEM.GLOBALS.atvFillColor" desc="fill color" group="Appearance" name="fillColor" substitute="$FILLCOLOR$" valuetype="global"/>
  <atv:parameter behavior="optional" defaultvalue="SYSTEM.GLOBALS.atvBorderColor" desc="border color" group="Appearance" name="borderColor" substitute="$BORDERCOLOR$" valuetype="global"/>
  <atv:parameter behavior="optional" defaultvalue="true" desc="show access control notification" group="Security" name="displayAcNotification" valuetype="bool"/>
  <!-- menu -->
  <atv:parameter behavior="optional" config="top-left;top-right;bottom-left;bottom-right" defaultvalue="" desc="menu positioning" group="Menu" name="elementPosition" valuetype="enum"/>
  <atv:parameter behavior="optional" config="Yes;No" defaultvalue="" desc="menu mouseover active" group="Menu" name="fadeInAtHover" valuetype="enum"/>
  <atv:parameter behavior="optional" defaultvalue="" desc="menu symbol offset x" group="Menu" name="elementOffsetX" valuetype="number"/>
  <atv:parameter behavior="optional" defaultvalue="" desc="menu symbol offset y" group="Menu" name="elementOffsetY" valuetype="number"/>
  <atv:parameter behavior="optional" defaultvalue="" desc="context menu click frame" group="Menu" name="clickareaEnlargement" valuetype="number"/>
  <atv:gridconfig enabled="true" gridstyle="lines" height="1" width="1"/>
  <atv:snapconfig enabled="false" height="1" width="1"/>
 </metadata>
 <rect atv:dynamic="true" atv:refpx="55" atv:refpy="15.5" fill="$FILLCOLOR$" height="29.5" id="bg_rect" rx="3" ry="3" stroke="$BORDERCOLOR$" stroke-width="0.5" width="109.5" x="0.25" y="0.25"/>
 <rect atv:refpx="68.934" atv:refpy="-143.026" fill="#ffffff" height="21.203" id="id_7" rx="2.995" ry="3" stroke="none" stroke-width="3.426" width="102" x="4" y="4.399"/>
 <path atv:refpx="70.1" atv:refpy="128.517" d="M6.985,6.616C6.985,6.616 6.291,11.255 6.291,14.608C6.291,17.96 6.985,23.383 6.985,23.383C6.985,23.383 103.016,23.383 103.016,23.383C103.016,23.383 103.708,18.328 103.708,14.975C103.708,11.621 103.016,6.616 103.016,6.616C103.016,6.616 6.985,6.616 6.985,6.616" fill="#ffffff" id="id_10" stroke="$FILLCOLOR$" stroke-width="1.713"/>
 <path atv:refpx="50.88" atv:refpy="15.113" d="M17.402,6.458L17.402,23.756L92.13,23.649L92.13,6.35L91.441,6.35L91.441,22.567L82.319,22.567L82.319,6.35L81.63,6.35L81.63,22.567L72.5,22.567L72.5,6.35L71.811,6.35L71.811,22.567L61.652,22.567L61.652,6.35L60.628,6.35L54.555,6.35L54.555,22.567L44.669,22.567L44.669,6.35L44.036,6.35L44.036,22.567L34.067,22.606L34.067,6.388L27.25,6.458L27.25,22.676L18.068,22.676L18.068,6.458Z" fill="$FILLCOLOR$" id="id_1" stroke="none" stroke-width="2"/>
 <text atv:refpx="30.468" atv:refpy="14.811" fill="$FONTCOLOR$" font-family="Arial" font-size="16" id="id_3" text-anchor="middle" x="30.468" y="20.811">$SEPARATOR$</text>
 <text atv:refpx="57.698" atv:refpy="14.811" fill="$FONTCOLOR$" font-family="Arial" font-size="16" id="id_5" text-anchor="middle" x="57.698" y="20.811">$SEPARATOR$</text>
 <text atv:refpx="37.217" atv:refpy="35.131" fill="$FONTCOLOR$" font-family="Courier" font-size="16" font-weight="bold" id="d" text-anchor="middle" x="17.5" y="19.93">00</text>
 <text atv:refpx="806.714" atv:refpy="91.225" fill="$FONTCOLOR$" font-family="Courier" font-size="16" font-weight="bold" id="y" text-anchor="middle" x="81.835" y="20">0000</text>
 <text atv:refpx="214.172" atv:refpy="35.877" fill="$FONTCOLOR$" font-family="Courier" font-size="16" font-weight="bold" id="m" text-anchor="middle" x="44.36" y="20">00</text>
 <script atv:desc="" atv:href="SYSTEM.LIBRARY.ATVISE.DISPLAYSCRIPTS.common.rights_handling" atv:name="rights_handling" atv:type="text/ecmascript"/>
 <script atv:desc="" atv:href="SYSTEM.LIBRARY.ATVISE.DISPLAYSCRIPTS.hmi.date_display" atv:name="date_display" atv:type="text/ecmascript"/>
 <script atv:desc="" atv:name="" type="text/ecmascript"/>
</svg>
