<?xml version='1.0' encoding='UTF-8' standalone='no'?>
<svg height="1080" version="1.2" width="1920" xmlns="http://www.w3.org/2000/svg" xmlns:atv="http://webmi.atvise.com/2007/svgext" xmlns:xlink="http://www.w3.org/1999/xlink">
 <defs/>
 <metadata>
  <atv:parameter behavior="optional" defaultvalue="SYSTEM.GLOBALS.Color_Global_1" desc="Color" name="Color" substitute="$Color$" valuetype="global"/>
  <atv:gridconfig enabled="true" gridstyle="lines" height="20" width="20"/>
  <atv:snapconfig enabled="true" height="10" width="10"/>
 </metadata>
 <g atv:insensitive="true" atv:refpx="0" atv:refpy="0" id="id_13">
  <rect atv:refpx="960" atv:refpy="540" fill="#ffffff" height="1080.00" id="id_14" width="1920.00" x="0" y="0"/>
 </g>
 <script atv:desc="" atv:name="" type="text/ecmascript"/>
 <svg atv:refpx="1796.5" atv:refpy="60" height="30" id="id_9" width="203" x="1695" xlink:href="SYSTEM.LIBRARY.ATVISE.OBJECTDISPLAYS.Advanced.layoutelements.date" y="45">
  <atv:argument name="globalFontColor" value="SYSTEM.GLOBALS.MENU.main-1"/>
  <atv:argument name="dateFormat" value="%d-%m-%Y"/>
 </svg>
 <svg atv:refpx="1796.5" atv:refpy="26" height="52" id="id_10" width="203" x="1695" xlink:href="SYSTEM.LIBRARY.ATVISE.OBJECTDISPLAYS.Advanced.layoutelements.time" y="0">
  <atv:argument name="globalFontColor" value="SYSTEM.GLOBALS.MENU.main-1"/>
 </svg>
 <svg atv:refpx="1392.5" atv:refpy="37.5" height="65" id="id_11" width="185" x="1300" xlink:href="SYSTEM.LIBRARY.ATVISE.OBJECTDISPLAYS.Advanced.layoutelements.redu_info" y="5"/>
 <svg atv:refpx="1079.997" atv:refpy="579.962" height="600" id="id_17" transform="matrix(2.1,0,0,1.6667,0,0)" width="800" x="114.286" xlink:href="SYSTEM.LIBRARY.ATVISE.OBJECTDISPLAYS.Advanced.hmi.iframe" y="47.999">
  <atv:argument name="display" value="AGENT.DISPLAYS.Main"/>
  <atv:argument name="frameName" value="Main_Dashboards"/>
 </svg>
 <g atv:refpx="89.72" atv:refpy="39.506" id="logo_clickarea" transform="matrix(1,0,0,1,-17.4997,-3.5)">
  <svg atv:refpx="50" atv:refpy="50" height="80" id="layout_logo" transform="matrix(0.75,0,0,0.75,0,0)" width="80" x="23.333" xlink:href="SYSTEM.LIBRARY.ATVISE.OBJECTDISPLAYS.Symbols.atvise_logo" y="19.333"/>
  <svg atv:refpx="106.77" atv:refpy="43.941" height="12.99" id="layout_logo_r" transform="matrix(2.4895,0,0,2.4895,0,0)" width="48.94" x="26.991" xlink:href="SYSTEM.LIBRARY.ATVISE.OBJECTDISPLAYS.Symbols.atvise_R" y="10.09"/>
  <rect atv:refpx="212.5" atv:refpy="75" fill="#000000" fill-opacity="0.0001" height="60" id="logo_click_1" stroke="none" stroke-width="0" width="60" x="19.5" y="13.5"/>
  <rect atv:refpx="212.421" atv:refpy="81.302" fill="#000000" fill-opacity="0.0001" height="36.506" id="logo_click_2" stroke="none" stroke-width="0" width="135.001" x="64.999" y="23.494"/>
 </g>
 <rect atv:refpx="120" atv:refpy="1042.5" fill="$Color$" height="75" id="id_6" stroke="#0000ff" stroke-width="0" width="240" x="0" y="1005"/>
 <svg atv:refpx="72" atv:refpy="1045" height="40" id="id_5" width="130" x="7" xlink:href="SYSTEM.LIBRARY.PROJECT.OBJECTDISPLAYS.box_user_small" y="1025">
  <atv:argument name="globalFontColor" value="SYSTEM.GLOBALS.MENU.font-1"/>
 </svg>
 <image atv:refpx="45" atv:refpy="27.5" height="0" id="id_0" transform="matrix(0.1635,0,0,0.1473,0,0)" width="0" x="91.75" xlink:href="../../logoJUMAPA.png" y="-67.889"/>
 <svg atv:refpx="120" atv:refpy="544.978" height="890" id="id_1" transform="matrix(1.2,0,0,1.0449,0,0)" width="200" x="0" xlink:href="SYSTEM.LIBRARY.PROJECT.OBJECTDISPLAYS.atvise_Advanced_Objects_Complementary_Elements.Dynamic_Advanced_Sidebar_Complementary_Element" y="76.561">
  <atv:argument name="navGlobalList" value="SYSTEM.GLOBALS.atvise_Advanced_Objects_Sidebar_List.Advanced_Sidebar_Global_List"/>
  <atv:argument name="navContent" value="Main_Dashboards"/>
  <atv:argument name="navHomeDisplay" value="AGENT.DISPLAYS.Main"/>
  <atv:overwrite id="navigation_1_description" transform="matrix(0.8333,0,0,0.957,0,0)"/>
 </svg>
</svg>
