<?xml version='1.0' encoding='UTF-8' standalone='no'?>
<svg enable-background="new 0 0 72 72" height="20" id="Ebene_1" version="1.1" width="20" x="0px" xml:space="preserve" y="0px" xmlns="http://www.w3.org/2000/svg" xmlns:atv="http://webmi.atvise.com/2007/svgext" xmlns:xlink="http://www.w3.org/1999/xlink">
 <defs/>
 <metadata>
  <atv:parameter behavior="optional" defaultvalue="#000000" desc="symbol color" name="symbolColor" substitute="$SYMBOLCOLOR$" valuetype="color"/>
  <atv:gridconfig enabled="false" gridstyle="lines" height="20" width="20"/>
  <atv:snapconfig enabled="false" height="10" width="10"/>
 </metadata>
 <circle atv:refpx="10.001" atv:refpy="10.122" cx="10.001" cy="10.122" fill="$SYMBOLCOLOR$" id="id_1" r="0.99" stroke-width="1"/>
 <path atv:refpx="11.515" atv:refpy="6.896" d="M10.757,4.973L10.757,8.817C11.626,8.608 12.271,7.828 12.271,6.895C12.271,5.962 11.626,5.182 10.757,4.973" fill="$SYMBOLCOLOR$" id="id_2" stroke-width="1"/>
 <path atv:refpx="12.962" atv:refpy="8.521" d="M14.176,7.016L11.456,9.735C12.219,10.201 13.227,10.106 13.886,9.446C14.547,8.786 14.642,7.778 14.176,7.016" fill="$SYMBOLCOLOR$" id="id_3" stroke-width="1"/>
 <path atv:refpx="13.227" atv:refpy="11.637" d="M15.149,10.879L11.303,10.879C11.513,11.746 12.293,12.393 13.226,12.393C14.159,12.393 14.939,11.747 15.149,10.879" fill="$SYMBOLCOLOR$" id="id_4" stroke-width="1"/>
 <path atv:refpx="11.601" atv:refpy="13.084" d="M13.105,14.298L10.385,11.578C9.92,12.339 10.015,13.348 10.673,14.008C11.335,14.668 12.343,14.763 13.105,14.298" fill="$SYMBOLCOLOR$" id="id_5" stroke-width="1"/>
 <path atv:refpx="8.486" atv:refpy="13.349" d="M9.243,15.27L9.243,11.424C8.375,11.634 7.729,12.415 7.729,13.347C7.729,14.281 8.374,15.061 9.243,15.27" fill="$SYMBOLCOLOR$" id="id_6" stroke-width="1"/>
 <path atv:refpx="7.039" atv:refpy="11.722" d="M5.823,13.227L8.542,10.507C7.78,10.042 6.772,10.136 6.112,10.796C5.453,11.456 5.358,12.465 5.823,13.227" fill="$SYMBOLCOLOR$" id="id_7" stroke-width="1"/>
 <path atv:refpx="6.774" atv:refpy="8.607" d="M4.851,9.364L8.696,9.364C8.486,8.496 7.706,7.85 6.773,7.85C5.84,7.85 5.061,8.495 4.851,9.364" fill="$SYMBOLCOLOR$" id="id_8" stroke-width="1"/>
 <path atv:refpx="8.4" atv:refpy="7.16" d="M6.894,5.945L9.614,8.664C10.078,7.902 9.985,6.894 9.325,6.234C8.665,5.574 7.656,5.479 6.894,5.945" fill="$SYMBOLCOLOR$" id="id_9" stroke-width="1"/>
 <path atv:refpx="10" atv:refpy="6.413" d="M17.875,2.703L2.124,2.703L1.971,2.771L1.907,2.935L1.907,10.122L3.924,10.122L3.971,9.302L4.109,8.513L4.333,7.76L4.636,7.05L5.012,6.388L5.457,5.782L5.964,5.237L6.528,4.758L7.143,4.353L7.803,4.027L8.503,3.788L9.237,3.639L9.999,3.588L10.762,3.639L11.495,3.788L12.195,4.027L12.855,4.353L13.47,4.758L14.034,5.237L14.541,5.782L14.986,6.388L15.362,7.05L15.665,7.76L15.889,8.513L16.027,9.302L16.074,10.122L18.092,10.122L18.092,2.935L18.028,2.771Z" fill="$SYMBOLCOLOR$" fill-rule="evenodd" id="id_22" stroke="none" stroke-width="1"/>
 <path atv:refpx="10" atv:refpy="13.587" d="M17.875,17.296L2.124,17.296L1.971,17.228L1.908,17.064L1.908,9.877L3.925,9.877L3.972,10.697L4.11,11.486L4.333,12.239L4.636,12.949L5.012,13.611L5.458,14.217L5.964,14.762L6.529,15.241L7.143,15.645L7.803,15.971L8.503,16.21L9.237,16.36L10,16.411L10.761,16.36L11.495,16.21L12.194,15.971L12.855,15.645L13.47,15.241L14.034,14.762L14.541,14.217L14.986,13.611L15.362,12.949L15.665,12.239L15.889,11.486L16.026,10.697L16.074,9.877L18.092,9.877L18.092,17.064L18.028,17.228Z" fill="$SYMBOLCOLOR$" fill-rule="evenodd" id="id_23" stroke="none" stroke-width="1"/>
 <script atv:desc="" atv:name="" type="text/ecmascript"/>
</svg>
