<?xml version='1.0' encoding='UTF-8' standalone='no'?>
<svg height="50" version="1.2" width="800" xmlns="http://www.w3.org/2000/svg" xmlns:atv="http://webmi.atvise.com/2007/svgext" xmlns:xlink="http://www.w3.org/1999/xlink">
 <defs>
  <linearGradient gradientUnits="objectBoundingBox" id="linear_21" x1="-0.0150911" x2="-0.0150911" y1="-7.18755e-05" y2="1.58424">
   <stop offset="0" stop-color="#c9c9c9"/>
   <stop offset="0.7117903930131004" stop-color="#000000"/>
  </linearGradient>
  <linearGradient gradientUnits="objectBoundingBox" id="linear_37" x1="1" x2="1" y1="0.0149254" y2="1">
   <stop offset="0" stop-color="#ffffff" stop-opacity="0.392156862745098"/>
   <stop offset="1" stop-color="#ffffff" stop-opacity="0"/>
  </linearGradient>
  <linearGradient gradientUnits="objectBoundingBox" id="linear_36" x1="-0.223972" x2="1" y1="1" y2="1">
   <stop offset="0" stop-color="#000000"/>
   <stop offset="1" stop-color="#ffffff" stop-opacity="0"/>
  </linearGradient>
  <linearGradient gradientUnits="objectBoundingBox" id="linear_39" x1="-0.223972" x2="1" y1="1" y2="1">
   <stop offset="0" stop-color="#000000"/>
   <stop offset="1" stop-color="#ffffff" stop-opacity="0"/>
  </linearGradient>
  <linearGradient gradientUnits="objectBoundingBox" id="linear_48" x1="1" x2="1" y1="0.0149254" y2="1">
   <stop offset="0" stop-color="#ffffff" stop-opacity="0.392156862745098"/>
   <stop offset="1" stop-color="#ffffff" stop-opacity="0"/>
  </linearGradient>
  <linearGradient gradientUnits="objectBoundingBox" id="linear_49" x1="1" x2="1" y1="0.0149254" y2="1">
   <stop offset="0" stop-color="#ffffff" stop-opacity="0.392156862745098"/>
   <stop offset="1" stop-color="#ffffff" stop-opacity="0"/>
  </linearGradient>
 </defs>
 <desc>A minimal version of the default "top" display (e.g. for panel screens).</desc>
 <title>Topframe One Row</title>
 <metadata>
  <atv:parameter behavior="optional" defaultvalue="SYSTEM.LIBRARY.ATVISE.OBJECTDISPLAYS.Standard.dialogs.message_dialog" desc="message dialog" name="message_dialog" valuetype="display"/>
  <atv:parameter behavior="optional" defaultvalue="SYSTEM.LIBRARY.ATVISE.OBJECTDISPLAYS.Standard.dialogs.message_dialog_small" desc="small message dialog" name="message_dialog_small" valuetype="display"/>
  <atv:parameter behavior="optional" defaultvalue="SYSTEM.LIBRARY.ATVISE.OBJECTDISPLAYS.Standard.dialogs.user_editor" desc="user editor dialog" name="user_dialog" valuetype="display"/>
  <atv:parameter behavior="optional" defaultvalue="SYSTEM.LIBRARY.ATVISE.OBJECTDISPLAYS.Standard.dialogs.pw_editor" desc="password editor dialog" name="password_dialog" valuetype="display"/>
  <atv:parameter behavior="optional" defaultvalue="SYSTEM.LIBRARY.ATVISE.OBJECTDISPLAYS.Standard.redundancy.warning_dialog" group="Notifications" desc="redundancy warning dialog" name="redundancy_warning_dialog" valuetype="display"/>
  <atv:parameter behavior="optional" defaultvalue="SYSTEM.LIBRARY.ATVISE.OBJECTDISPLAYS.Standard.dialogs.message_dialog" group="Notifications" desc="redundancy connection dialog" name="redundancy_connection_dialog" valuetype="display"/>
  <atv:parameter behavior="optional" defaultvalue="true" group="Notifications" desc="show SOP notification" name="show_sop_change" valuetype="bool"/>
  <atv:parameter behavior="optional" defaultvalue="true" group="Notifications" desc="show connection notification" name="show_con_change" valuetype="bool"/>
  <atv:gridconfig enabled="true" gridstyle="lines" height="10" width="10"/>
  <atv:snapconfig enabled="true" height="5" width="5"/>
 </metadata>
 <path atv:refpx="355.987" atv:refpy="59.436" d="M0,0" fill="#000088" id="id_33" stroke="#0000ff" stroke-width="2"/>
 <path atv:refpx="639.201" atv:refpy="59.501" d="M800,30.165C800,30.165 800,50 780.024,50C760.049,50 19.975,50 19.975,50C19.975,50 0,50 0,30.165C0,10.332 0,0 0,0C0,0 800,0 800,0C800,0 800,30.165 800,30.165" fill="url(#linear_21)" id="id_10" stroke="#c8c8c8" stroke-width="1"/>
 <svg atv:refpx="115" atv:refpy="25" height="45" id="id_22" width="160" x="35" xlink:href="SYSTEM.LIBRARY.ATVISE.OBJECTDISPLAYS.Standard.hmi.button_group_display" y="2.5">
  <atv:argument name="symbolColor" value="#000000"/>
  <atv:argument name="symbolColor2" value="#ffffff"/>
 </svg>
 <svg atv:refpx="502.498" atv:refpy="24.999" height="30" id="id_11" transform="matrix(1.5,0,0,1.5,0,0)" width="30" x="320" xlink:href="SYSTEM.LIBRARY.ATVISE.OBJECTDISPLAYS.Standard.hmi.button_login" y="1.667">
  <atv:overwrite height="37.5" id="button_stroke" transform="matrix(0.6667,0,0,0.6667,0,0)" width="37.5"/>
  <atv:overwrite id="button_symbol" transform="matrix(0.6667,0,0,0.6667,0,0)" x="12.5" y="12.5"/>
  <atv:overwrite id="button_symbol_pressed" transform="matrix(0.6667,0,0,0.6667,0,0)" x="12.5" y="12.5"/>
  <atv:overwrite height="37.5" id="button_bg" transform="matrix(0.6667,0,0,0.6667,0,0)" width="37.5"/>
  <atv:overwrite height="39.5" id="id_3" transform="matrix(0.6667,0,0,0.6667,0,0)" width="39.5"/>
  <atv:overwrite height="44.5" id="id_0" transform="matrix(0.6667,0,0,0.6667,0,0)" width="44.5"/>
 </svg>
 <svg atv:refpx="442.5" atv:refpy="25" height="45" id="id_12" width="45" x="420" xlink:href="SYSTEM.LIBRARY.ATVISE.OBJECTDISPLAYS.Standard.hmi.button_switch_language" y="2.5">
  <atv:argument name="symbolColor" value="#ffffff"/>
 </svg>
 <rect atv:refpx="865.301" atv:refpy="33.34" fill="#000000" height="45" id="id_5" rx="5" ry="5.625" stroke="#676767" stroke-width="1" width="194.5" x="210.5" y="2.5"/>
 <text atv:refpx="75.207" atv:refpy="-62.261" fill="#ffffff" font-family="Courier New" font-size="14" font-weight="bold" id="username_label" text-anchor="end" x="396.231" y="20"/>
 <text atv:refpx="-1499.827" atv:refpy="-269.5" fill="#ffffff" font-family="Courier New" font-size="14" font-weight="bold" id="id_20" x="262.231" y="20">T{User}:</text>
 <text atv:refpx="-777.066" atv:refpy="-44.261" fill="#ffffff" font-family="Courier New" font-size="14" font-weight="bold" id="language_label" text-anchor="end" x="396.231" y="38">T{}</text>
 <text atv:refpx="-1708.444" atv:refpy="-71.5" fill="#ffffff" font-family="Courier New" font-size="14" font-weight="bold" id="id_25" x="262.231" y="38">T{Language}:</text>
 <g atv:refpx="233.02" atv:refpy="25.039" id="logo_clickarea">
  <svg atv:refpx="232.976" atv:refpy="24.997" height="80" id="atvise_logo" transform="matrix(0.313,0,0,0.313,0,0)" width="80" x="704.473" xlink:href="SYSTEM.LIBRARY.ATVISE.OBJECTDISPLAYS.Symbols.atvise_logo" y="40.06"/>
  <rect atv:refpx="247.6" atv:refpy="39.6" fill="#000000" fill-opacity="0.0001" height="25" id="logo_click" stroke="none" stroke-width="0" width="25" x="220.5" y="12.5"/>
 </g>
 <g atv:refpx="688.898" atv:refpy="25.586" id="redu_info" transform="matrix(1,0,0,1,-479.16,-69.828)" visibility="hidden">
  <g atv:refpx="1141.471" atv:refpy="97.989" id="id_36" transform="matrix(1,0,0,1,-0.9122,0.5935)">
   <text atv:refpx="1154.387" atv:refpy="85.735" fill="#d4d4d4" font-family="Arial" font-size="8" id="id_31" text-anchor="start" x="1133.387" y="89.235">T{STATUS}:</text>
   <text atv:refpx="1151.887" atv:refpy="101.735" fill="#d4d4d4" font-family="Arial" font-size="14" font-weight="bold" id="redu_status" text-anchor="start" x="1133.387" y="105.235"/>
  </g>
  <text atv:refpx="1411.296" atv:refpy="305.508" fill="#d4d4d4" font-family="Arial" font-size="30" font-weight="bold" id="redu_role" x="1103.16" y="104.828"/>
  <svg atv:refpx="1217.783" atv:refpy="95.501" height="30" id="id_43" transform="matrix(0.5625,0,0,1.5,0,0)" width="80" x="2124.95" xlink:href="SYSTEM.LIBRARY.ATVISE.OBJECTDISPLAYS.Standard.button_open_display" y="48.667">
   <atv:argument name="display" value="SYSTEM.LIBRARY.ATVISE.OBJECTDISPLAYS.Standard.redundancy.status"/>
   <atv:argument name="symbol" value="SYSTEM.LIBRARY.ATVISE.OBJECTDISPLAYS.Symbols.20x20.info"/>
   <atv:argument name="symbolPressed" value="SYSTEM.LIBRARY.ATVISE.OBJECTDISPLAYS.Symbols.20x20.info"/>
   <atv:argument name="symbolColor" value="#ffffff"/>
   <atv:argument name="visibilityLabel" value="hidden"/>
   <atv:argument name="visibilitySymbol" value="inherit"/>
   <atv:argument name="tabIndex" value="-999999"/>
   <atv:overwrite id="button_symbol_pressed" transform="matrix(1.7778,0,0,0.6667,0,0)" x="12.5" y="12.5"/>
   <atv:overwrite height="39.5" id="id_2" transform="matrix(1.7778,0,0,0.6667,0,0)" width="39.5"/>
   <atv:overwrite height="44.5" id="id_0" transform="matrix(1.7778,0,0,0.6667,0,0)" width="44.5"/>
   <atv:overwrite height="37" id="button_stroke" transform="matrix(1.7778,0,0,0.6667,0,0)" width="37"/>
   <atv:overwrite id="button_label" transform="matrix(1.7778,0,0,0.6667,0,0)" x="22.5" y="27"/>
   <atv:overwrite id="button_symbol" transform="matrix(1.7778,0,0,0.6667,0,0)" x="12.5" y="12.5"/>
   <atv:overwrite height="37" id="button_bg" transform="matrix(1.7778,0,0,0.6667,0,0)" width="37"/>
  </svg>
 </g>
 <script atv:desc="" atv:href="SYSTEM.LIBRARY.ATVISE.DISPLAYSCRIPTS.hmi.top" atv:name="top" atv:type="text/ecmascript"/>
 <script atv:desc="" atv:name="" type="text/ecmascript"/>
</svg>
