<?xml version='1.0' encoding='UTF-8' standalone='no'?>
<svg height="90.480000000000004" version="1.2" width="641.08000000000004" xmlns="http://www.w3.org/2000/svg" xmlns:atv="http://webmi.atvise.com/2007/svgext" xmlns:xlink="http://www.w3.org/1999/xlink">
 <defs/>
 <metadata>
  <atv:gridconfig enabled="false" gridstyle="lines" height="20" width="20"/>
  <atv:snapconfig enabled="false" height="10" width="10"/>
 </metadata>
 <svg atv:refpx="80.098" atv:refpy="30.258" height="30" id="presion_alta" width="160" x="0.098" xlink:href="SYSTEM.LIBRARY.ATVISE.OBJECTDISPLAYS.Advanced.in_out_value" y="15.258">
  <atv:argument name="base" prefix="base" value=".PA"/>
  <atv:argument name="unit" value="T{kg/cm2}"/>
  <atv:argument name="postDecimal" value="2"/>
  <atv:argument name="selectTextOnFocus" value="true"/>
  <atv:overwrite id="input_label" transform="matrix(1.2055,0,0,1,-13.9839,0)" x="136.555"/>
 </svg>
 <svg atv:refpx="80.098" atv:refpy="75.257" height="30" id="presion_baja" width="160" x="0.098" xlink:href="SYSTEM.LIBRARY.ATVISE.OBJECTDISPLAYS.Advanced.in_out_value" y="60.258">
  <atv:argument name="base" prefix="base" value=".PB"/>
  <atv:argument name="unit" value="T{kg/cm2}"/>
  <atv:argument name="postDecimal" value="2"/>
  <atv:argument name="selectTextOnFocus" value="true"/>
  <atv:overwrite id="input_label" transform="matrix(1.2055,0,0,1,-13.9839,0)" x="136.555"/>
 </svg>
 <svg atv:refpx="80.098" atv:refpy="7.758" height="30" id="id_12" transform="matrix(2,0,0,0.5,0,0)" width="80" x="0.05" xlink:href="SYSTEM.LIBRARY.ATVISE.OBJECTDISPLAYS.Advanced.label" y="0.515">
  <atv:argument name="text" value="Presión alta"/>
 </svg>
 <svg atv:refpx="80" atv:refpy="52.758" height="30" id="id_13" transform="matrix(2,0,0,0.5,0,0)" width="80" x="0" xlink:href="SYSTEM.LIBRARY.ATVISE.OBJECTDISPLAYS.Advanced.label" y="90.515">
  <atv:argument name="text" value="Presión baja"/>
 </svg>
 <svg atv:refpx="239.191" atv:refpy="28" height="30" id="presion_deseada_1" width="160" x="160.191" xlink:href="SYSTEM.LIBRARY.ATVISE.OBJECTDISPLAYS.Advanced.in_out_value" y="15">
  <atv:argument name="base" prefix="base" value=".PD1"/>
  <atv:argument name="unit" value="T{kg/cm2}"/>
  <atv:argument name="postDecimal" value="2"/>
  <atv:argument name="selectTextOnFocus" value="true"/>
  <atv:overwrite id="input_label" transform="matrix(1.2055,0,0,1,-13.9839,0)" x="136.555"/>
 </svg>
 <svg atv:refpx="239.191" atv:refpy="72.999" height="30" id="presion_deseada_2" width="160" x="160.191" xlink:href="SYSTEM.LIBRARY.ATVISE.OBJECTDISPLAYS.Advanced.in_out_value" y="59.999">
  <atv:argument name="base" prefix="base" value=".PD2"/>
  <atv:argument name="unit" value="T{kg/cm2}"/>
  <atv:argument name="postDecimal" value="2"/>
  <atv:argument name="selectTextOnFocus" value="true"/>
  <atv:overwrite id="input_label" transform="matrix(1.2055,0,0,1,-13.9839,0)" x="136.555"/>
 </svg>
 <svg atv:refpx="239.191" atv:refpy="5.499" height="30" id="id_16" transform="matrix(2,0,0,0.5,0,0)" width="80" x="80.095" xlink:href="SYSTEM.LIBRARY.ATVISE.OBJECTDISPLAYS.Advanced.label" y="0">
  <atv:argument name="text" value="Presión deseada 1"/>
 </svg>
 <svg atv:refpx="239.093" atv:refpy="50.499" height="30" id="id_17" transform="matrix(2,0,0,0.5,0,0)" width="80" x="80.045" xlink:href="SYSTEM.LIBRARY.ATVISE.OBJECTDISPLAYS.Advanced.label" y="90">
  <atv:argument name="text" value="Presión deseada 2"/>
 </svg>
 <svg atv:refpx="358.899" atv:refpy="30.049" height="30" id="hora_inicio_1" transform="matrix(0.5,0,0,1,0,0)" width="160" x="637.798" xlink:href="SYSTEM.LIBRARY.ATVISE.OBJECTDISPLAYS.Advanced.in_out_value" y="15.049">
  <atv:argument name="base" prefix="base" value=".HH1"/>
  <atv:argument name="unit" value="T{:}"/>
  <atv:argument name="postDecimal" value="0"/>
  <atv:argument name="selectTextOnFocus" value="true"/>
  <atv:overwrite id="input_label" transform="matrix(2.411,0,0,1,4.909,0)" x="56.555"/>
  <atv:overwrite id="blinking_frame" transform="matrix(2,0,0,1,0,0)" width="72"/>
  <atv:overwrite id="focus_frame" transform="matrix(2,0,0,1,0,0)" width="76"/>
  <atv:overwrite id="input_bg" transform="matrix(2,0,0,1,0,0)" width="72"/>
  <atv:overwrite id="id_1" transform="matrix(2,0,0,1,0,0)" width="78"/>
  <atv:overwrite id="input_border" transform="matrix(2,0,0,1,0,0)" width="80"/>
 </svg>
 <svg atv:refpx="359.244" atv:refpy="75.048" height="30" id="hora_inicio_2" transform="matrix(0.5,0,0,1,0,0)" width="160" x="638.488" xlink:href="SYSTEM.LIBRARY.ATVISE.OBJECTDISPLAYS.Advanced.in_out_value" y="60.048">
  <atv:argument name="base" prefix="base" value=".HH2"/>
  <atv:argument name="unit" value="T{:}"/>
  <atv:argument name="postDecimal" value="0"/>
  <atv:argument name="selectTextOnFocus" value="true"/>
  <atv:overwrite id="input_label" transform="matrix(2.411,0,0,1,4.909,0)" x="56.555"/>
  <atv:overwrite id="blinking_frame" transform="matrix(2,0,0,1,0,0)" width="72"/>
  <atv:overwrite id="focus_frame" transform="matrix(2,0,0,1,0,0)" width="76"/>
  <atv:overwrite id="input_bg" transform="matrix(2,0,0,1,0,0)" width="72"/>
  <atv:overwrite id="id_1" transform="matrix(2,0,0,1,0,0)" width="78"/>
  <atv:overwrite id="input_border" transform="matrix(2,0,0,1,0,0)" width="80"/>
 </svg>
 <svg atv:refpx="399.846" atv:refpy="7.548" height="30" id="id_20" transform="matrix(2,0,0,0.5,0,0)" width="80" x="159.924" xlink:href="SYSTEM.LIBRARY.ATVISE.OBJECTDISPLAYS.Advanced.label" y="0.095">
  <atv:argument name="text" value="Horario de inicio presión 1"/>
 </svg>
 <svg atv:refpx="399.748" atv:refpy="52.548" height="30" id="id_21" transform="matrix(2,0,0,0.5,0,0)" width="80" x="159.874" xlink:href="SYSTEM.LIBRARY.ATVISE.OBJECTDISPLAYS.Advanced.label" y="90.095">
  <atv:argument name="text" value="Horario de inicio presión 2"/>
 </svg>
 <svg atv:refpx="439.847" atv:refpy="30.049" height="30" id="minuto_inicio_1" transform="matrix(0.5,0,0,1,0,0)" width="160" x="799.693" xlink:href="SYSTEM.LIBRARY.ATVISE.OBJECTDISPLAYS.Advanced.in_out_value" y="15.049">
  <atv:argument name="base" prefix="base" value=".MH1"/>
  <atv:argument name="unit" value="T{h}"/>
  <atv:argument name="postDecimal" value="0"/>
  <atv:argument name="selectTextOnFocus" value="true"/>
  <atv:overwrite id="input_label" transform="matrix(2.411,0,0,1,4.909,0)" x="56.555"/>
  <atv:overwrite id="blinking_frame" transform="matrix(2,0,0,1,0,0)" width="72"/>
  <atv:overwrite id="focus_frame" transform="matrix(2,0,0,1,0,0)" width="76"/>
  <atv:overwrite id="input_bg" transform="matrix(2,0,0,1,0,0)" width="72"/>
  <atv:overwrite id="id_1" transform="matrix(2,0,0,1,0,0)" width="78"/>
  <atv:overwrite id="input_border" transform="matrix(2,0,0,1,0,0)" width="80"/>
 </svg>
 <svg atv:refpx="439.847" atv:refpy="75.047" height="30" id="minuto_inicio_2" transform="matrix(0.5,0,0,1,0,0)" width="160" x="799.693" xlink:href="SYSTEM.LIBRARY.ATVISE.OBJECTDISPLAYS.Advanced.in_out_value" y="60.047">
  <atv:argument name="base" prefix="base" value=".MH2"/>
  <atv:argument name="unit" value="T{h}"/>
  <atv:argument name="postDecimal" value="0"/>
  <atv:argument name="selectTextOnFocus" value="true"/>
  <atv:overwrite id="input_label" transform="matrix(2.411,0,0,1,4.909,0)" x="56.555"/>
  <atv:overwrite id="blinking_frame" transform="matrix(2,0,0,1,0,0)" width="72"/>
  <atv:overwrite id="focus_frame" transform="matrix(2,0,0,1,0,0)" width="76"/>
  <atv:overwrite id="input_bg" transform="matrix(2,0,0,1,0,0)" width="72"/>
  <atv:overwrite id="id_1" transform="matrix(2,0,0,1,0,0)" width="78"/>
  <atv:overwrite id="input_border" transform="matrix(2,0,0,1,0,0)" width="80"/>
 </svg>
 <svg atv:refpx="520.128" atv:refpy="30.476" height="30" id="hora_finalizacion_1" transform="matrix(0.5,0,0,1,0,0)" width="160" x="960.255" xlink:href="SYSTEM.LIBRARY.ATVISE.OBJECTDISPLAYS.Advanced.in_out_value" y="15.476">
  <atv:argument name="base" prefix="base" value=".HF1"/>
  <atv:argument name="unit" value="T{:}"/>
  <atv:argument name="postDecimal" value="0"/>
  <atv:argument name="selectTextOnFocus" value="true"/>
  <atv:overwrite id="input_label" transform="matrix(2,0,0,1,0,0)" x="72.055"/>
  <atv:overwrite id="blinking_frame" transform="matrix(2,0,0,1,0,0)" width="72"/>
  <atv:overwrite id="focus_frame" transform="matrix(2,0,0,1,0,0)" width="76"/>
  <atv:overwrite id="input_bg" transform="matrix(2,0,0,1,0,0)" width="72"/>
  <atv:overwrite id="id_1" transform="matrix(2,0,0,1,0,0)" width="78"/>
  <atv:overwrite id="input_border" transform="matrix(2,0,0,1,0,0)" width="80"/>
 </svg>
 <svg atv:refpx="520.473" atv:refpy="75.476" height="30" id="hora_finalizacion_2" transform="matrix(0.5,0,0,1,0,0)" width="160" x="960.945" xlink:href="SYSTEM.LIBRARY.ATVISE.OBJECTDISPLAYS.Advanced.in_out_value" y="60.476">
  <atv:argument name="base" prefix="base" value=".HF2"/>
  <atv:argument name="unit" value="T{:}"/>
  <atv:argument name="postDecimal" value="0"/>
  <atv:argument name="selectTextOnFocus" value="true"/>
  <atv:overwrite id="input_label" transform="matrix(2,0,0,1,0,0)" x="72.055"/>
  <atv:overwrite id="blinking_frame" transform="matrix(2,0,0,1,0,0)" width="72"/>
  <atv:overwrite id="focus_frame" transform="matrix(2,0,0,1,0,0)" width="76"/>
  <atv:overwrite id="input_bg" transform="matrix(2,0,0,1,0,0)" width="72"/>
  <atv:overwrite id="id_1" transform="matrix(2,0,0,1,0,0)" width="78"/>
  <atv:overwrite id="input_border" transform="matrix(2,0,0,1,0,0)" width="80"/>
 </svg>
 <svg atv:refpx="561.075" atv:refpy="7.976" height="30" id="id_4" transform="matrix(2,0,0,0.5,0,0)" width="80" x="240.539" xlink:href="SYSTEM.LIBRARY.ATVISE.OBJECTDISPLAYS.Advanced.label" y="0.948">
  <atv:argument name="text" value="Horario de finalización presión 1"/>
 </svg>
 <svg atv:refpx="560.977" atv:refpy="52.976" height="30" id="id_5" transform="matrix(2,0,0,0.5,0,0)" width="80" x="240.488" xlink:href="SYSTEM.LIBRARY.ATVISE.OBJECTDISPLAYS.Advanced.label" y="90.948">
  <atv:argument name="text" value="Horario de finalización presión 2"/>
 </svg>
 <svg atv:refpx="601.076" atv:refpy="30.476" height="30" id="minuto_finalizacion_1" transform="matrix(0.5,0,0,1,0,0)" width="160" x="1122.15" xlink:href="SYSTEM.LIBRARY.ATVISE.OBJECTDISPLAYS.Advanced.in_out_value" y="15.476">
  <atv:argument name="base" prefix="base" value=".MF1"/>
  <atv:argument name="unit" value="T{h}"/>
  <atv:argument name="postDecimal" value="0"/>
  <atv:argument name="selectTextOnFocus" value="true"/>
  <atv:overwrite id="input_label" transform="matrix(2,0,0,1,0,0)" x="72.055"/>
  <atv:overwrite id="blinking_frame" transform="matrix(2,0,0,1,0,0)" width="72"/>
  <atv:overwrite id="focus_frame" transform="matrix(2,0,0,1,0,0)" width="76"/>
  <atv:overwrite id="input_bg" transform="matrix(2,0,0,1,0,0)" width="72"/>
  <atv:overwrite id="id_1" transform="matrix(2,0,0,1,0,0)" width="78"/>
  <atv:overwrite id="input_border" transform="matrix(2,0,0,1,0,0)" width="80"/>
 </svg>
 <svg atv:refpx="601.076" atv:refpy="75.475" height="30" id="minuto_finalizacion_2" transform="matrix(0.5,0,0,1,0,0)" width="160" x="1122.15" xlink:href="SYSTEM.LIBRARY.ATVISE.OBJECTDISPLAYS.Advanced.in_out_value" y="60.475">
  <atv:argument name="base" prefix="base" value=".MF2"/>
  <atv:argument name="unit" value="T{h}"/>
  <atv:argument name="postDecimal" value="0"/>
  <atv:argument name="selectTextOnFocus" value="true"/>
  <atv:overwrite id="input_label" transform="matrix(2,0,0,1,0,0)" x="72.055"/>
  <atv:overwrite id="blinking_frame" transform="matrix(2,0,0,1,0,0)" width="72"/>
  <atv:overwrite id="focus_frame" transform="matrix(2,0,0,1,0,0)" width="76"/>
  <atv:overwrite id="input_bg" transform="matrix(2,0,0,1,0,0)" width="72"/>
  <atv:overwrite id="id_1" transform="matrix(2,0,0,1,0,0)" width="78"/>
  <atv:overwrite id="input_border" transform="matrix(2,0,0,1,0,0)" width="80"/>
 </svg>
 <script atv:desc="" atv:name="" type="text/ecmascript"><![CDATA[// === FUNCIÓN PARA GENERAR EL MENSAJE DESCRIPTIVO ===

/**
 * Mapea cada ID a su mensaje descriptivo para el log.
 */
const logMessages = {
    "presion_alta": "Se ha modificado el set point de presión alta",
    "presion_baja": "Se ha modificado el set point de presión baja",
    "presion_deseada_1": "Se ha modificado la presión deseada 1",
    "presion_deseada_2": "Se ha modificado la presión deseada 2",
    "hora_inicio_1": "Se ha modificado la hora de inicio 1",
    "hora_inicio_2": "Se ha modificado la hora de inicio 2",
    "minuto_inicio_1": "Se ha modificado el minuto de inicio 1",
    "minuto_inicio_2": "Se ha modificado el minuto de inicio 2",
    "hora_finalizacion_1": "Se ha modificado la hora de finalización 1",
    "hora_finalizacion_2": "Se ha modificado la hora de finalización 2",
    "minuto_finalizacion_1": "Se ha modificado el minuto de finalización 1",
    "minuto_finalizacion_2": "Se ha modificado el minuto de finalización 2"
};

/**
 * Crea un evento de click en el ID indicado que registra una entrada en el log.
 * @param {string} id - ID del objeto gráfico.
 * @param {string} mensaje - Mensaje a registrar en el log.
 */
function addLogEvent(id, mensaje) {
    webMI.addEvent(id, "click", function() {
        webMI.callExtension("SYSTEM.LIBRARY.ATVISE.QUICKDYNAMICS.WriteLog", {
            group: "Manipulación",
            id: id,
            label: webMI.query["base"],
            message: mensaje,
            subgroup: "Caudalímetro"
        });
    });
}

// === REGISTRO DE TODOS LOS EVENTOS SEGÚN LA TABLA DE IDS ===

Object.entries(logMessages).forEach(([id, mensaje]) => {
    addLogEvent(id, mensaje);
});
]]></script>
</svg>
