<?xml version='1.0' encoding='UTF-8' standalone='no'?>
<svg height="90.079999999999998" version="1.2" width="151.19999999999999" xmlns="http://www.w3.org/2000/svg" xmlns:atv="http://webmi.atvise.com/2007/svgext" xmlns:xlink="http://www.w3.org/1999/xlink">
 <defs>
  <linearGradient gradientUnits="objectBoundingBox" id="linear_0" x1="0" x2="1" y1="0" y2="1">
   <stop offset="0" stop-color="#ffffff"/>
   <stop offset="1" stop-color="#ffffff" stop-opacity="0"/>
  </linearGradient>
 </defs>
 <metadata>
  <atv:gridconfig enabled="true" gridstyle="lines" height="20" width="20"/>
  <atv:snapconfig enabled="false" height="10" width="10"/>
 </metadata>
 <script atv:desc="" atv:name="" type="text/ecmascript"/>
 <svg atv:refpx="76.204" atv:refpy="20" height="40" id="id_1" transform="matrix(1.145,0,0,1,0,0)" width="131" x="1.052" xlink:href="SYSTEM.LIBRARY.PROJECT.OBJECTDISPLAYS.Custom_bar_horizontal" y="0"/>
 <text atv:refpx="12.204" atv:refpy="21.086" fill="#000088" font-family="Arial" font-size="12" id="id_2" x="5.204" y="25.586">Nv</text>
 <text atv:refpx="26.5" atv:refpy="52.127" fill="#000088" font-family="Arial" font-size="12" id="id_3" x="4.5" y="56.627">Nombre </text>
 <text atv:refpx="20.482" atv:refpy="78.578" fill="#000088" font-family="Arial" font-size="12" id="id_4" x="5.482" y="83.078">L1-D"</text>
 <svg atv:refpx="136.204" atv:refpy="78.578" height="30" id="id_5" transform="matrix(0.3125,0,0,0.6667,0,0)" width="160" x="323.854" xlink:href="SYSTEM.LIBRARY.ATVISE.OBJECTDISPLAYS.Default.Number.in_out_value" y="102.867">
  <atv:argument name="base" value="AGENT.OBJECTS.Prueba.Captacion.AP_BJ_CAR_1.Datos.AP_BJ_CAR_LIN.Presion"/>
  <atv:overwrite id="input_label" transform="matrix(3.2,0,0,1.5,0,0)" x="41.5" y="14.25"/>
  <atv:overwrite height="12.5" id="blinking_frame" transform="matrix(3.2,0,0,1.5,0,0)" width="43"/>
  <atv:overwrite height="12.5" id="focus_frame" transform="matrix(3.2,0,0,1.5,0,0)" width="42"/>
  <atv:overwrite height="14.5" id="id_2" transform="matrix(3.2,0,0,1.5,0,0)" width="44.5"/>
  <atv:overwrite height="19.5" id="input_bg" transform="matrix(3.2,0,0,1.5,0,0)" width="49.5"/>
 </svg>
 <svg atv:refpx="75.593" atv:refpy="78.578" height="30" id="id_6" transform="matrix(0.3125,0,0,0.6667,0,0)" width="160" x="136.299" xlink:href="SYSTEM.LIBRARY.ATVISE.OBJECTDISPLAYS.Default.Number.in_out_value" y="102.867">
  <atv:argument name="base" value="AGENT.OBJECTS.Prueba.Captacion.AP_BJ_CAR_1.Datos.AP_BJ_CAR_LIN.Caudal"/>
  <atv:overwrite id="input_label" transform="matrix(3.2,0,0,1.5,0,0)" x="41.5" y="14.25"/>
  <atv:overwrite height="12.5" id="blinking_frame" transform="matrix(3.2,0,0,1.5,0,0)" width="43"/>
  <atv:overwrite height="12.5" id="focus_frame" transform="matrix(3.2,0,0,1.5,0,0)" width="42"/>
  <atv:overwrite height="14.5" id="id_2" transform="matrix(3.2,0,0,1.5,0,0)" width="44.5"/>
  <atv:overwrite height="19.5" id="input_bg" transform="matrix(3.2,0,0,1.5,0,0)" width="49.5"/>
 </svg>
 <rect atv:refpx="138.744" atv:refpy="52.726" fill="#ffffff" height="20" id="id_7" stroke="#ffffff" stroke-width="2" width="20" x="128.744" y="42.726"/>
 <svg atv:refpx="138.744" atv:refpy="52.726" height="310.249" id="id_8" transform="matrix(0.058,0,0,0.058,0,0)" width="310.249" x="2236.278" xlink:href="SYSTEM.LIBRARY.PROJECT.RESOURCES%2FSVG%20WIFI.svg" y="753.667"/>
</svg>
