<?xml version='1.0' encoding='UTF-8' standalone='no'?>
<svg height="120" version="1.2" width="1024" xmlns="http://www.w3.org/2000/svg" xmlns:atv="http://webmi.atvise.com/2007/svgext" xmlns:xlink="http://www.w3.org/1999/xlink">
 <defs>
  <linearGradient gradientUnits="objectBoundingBox" id="linear_21" x1="-0.0150911" x2="-0.0150911" y1="-7.18755e-05" y2="1.58424">
   <stop offset="0" stop-color="#c9c9c9"/>
   <stop offset="0.7117903930131004" stop-color="#000000"/>
  </linearGradient>
  <linearGradient gradientUnits="objectBoundingBox" id="linear_37" x1="1" x2="1" y1="0.0149254" y2="1">
   <stop offset="0" stop-color="#ffffff" stop-opacity="0.392156862745098"/>
   <stop offset="1" stop-color="#ffffff" stop-opacity="0"/>
  </linearGradient>
  <linearGradient gradientUnits="objectBoundingBox" id="linear_36" x1="-0.223972" x2="1" y1="1" y2="1">
   <stop offset="0" stop-color="#000000"/>
   <stop offset="1" stop-color="#ffffff" stop-opacity="0"/>
  </linearGradient>
  <linearGradient gradientUnits="objectBoundingBox" id="linear_39" x1="-0.223972" x2="1" y1="1" y2="1">
   <stop offset="0" stop-color="#000000"/>
   <stop offset="1" stop-color="#ffffff" stop-opacity="0"/>
  </linearGradient>
  <linearGradient gradientUnits="objectBoundingBox" id="linear_48" x1="1" x2="1" y1="0.0149254" y2="1">
   <stop offset="0" stop-color="#ffffff" stop-opacity="0.392156862745098"/>
   <stop offset="1" stop-color="#ffffff" stop-opacity="0"/>
  </linearGradient>
  <linearGradient gradientUnits="objectBoundingBox" id="linear_49" x1="1" x2="1" y1="0.0149254" y2="1">
   <stop offset="0" stop-color="#ffffff" stop-opacity="0.392156862745098"/>
   <stop offset="1" stop-color="#ffffff" stop-opacity="0"/>
  </linearGradient>
 </defs>
 <desc>This control is a smaller version of the default "top" display.</desc>
 <title>Topframe (1024x120)</title>
 <metadata>
  <atv:parameter behavior="optional" defaultvalue="SYSTEM.LIBRARY.ATVISE.OBJECTDISPLAYS.Standard.dialogs.message_dialog" desc="message dialog" name="message_dialog" valuetype="display"/>
  <atv:parameter behavior="optional" defaultvalue="SYSTEM.LIBRARY.ATVISE.OBJECTDISPLAYS.Standard.dialogs.message_dialog_small" desc="small message dialog" name="message_dialog_small" valuetype="display"/>
  <atv:parameter behavior="optional" defaultvalue="SYSTEM.LIBRARY.ATVISE.OBJECTDISPLAYS.Standard.dialogs.user_editor" desc="user editor dialog" name="user_dialog" valuetype="display"/>
  <atv:parameter behavior="optional" defaultvalue="SYSTEM.LIBRARY.ATVISE.OBJECTDISPLAYS.Standard.dialogs.pw_editor" desc="password editor dialog" name="password_dialog" valuetype="display"/>
  <atv:parameter behavior="optional" defaultvalue="0" desc="min alarm priority" group="Alarm" name="minAlarmPriority" scope="" valuetype="number"/>
  <atv:parameter behavior="optional" defaultvalue="0" desc="max alarm priority" group="Alarm" name="maxAlarmPriority" valuetype="number"/>
  <atv:parameter behavior="optional" defaultvalue="SYSTEM.LIBRARY.ATVISE.OBJECTDISPLAYS.Standard.redundancy.warning_dialog" group="Notifications" desc="redundancy warning dialog" name="redundancy_warning_dialog" valuetype="display"/>
  <atv:parameter behavior="optional" defaultvalue="SYSTEM.LIBRARY.ATVISE.OBJECTDISPLAYS.Standard.dialogs.message_dialog" group="Notifications" desc="redundancy connection dialog" name="redundancy_connection_dialog" valuetype="display"/>
  <atv:parameter behavior="optional" defaultvalue="true" group="Notifications" desc="show SOP notification" name="show_sop_change" valuetype="bool"/>
  <atv:parameter behavior="optional" defaultvalue="true" group="Notifications" desc="show connection notification" name="show_con_change" valuetype="bool"/>
  <atv:gridconfig enabled="true" gridstyle="lines" height="10" width="10"/>
  <atv:snapconfig enabled="false" height="5" width="5"/>
 </metadata>
 <path atv:refpx="355.987" atv:refpy="59.436" d="M0,0" fill="#000088" id="id_33" stroke="#0000ff" stroke-width="2"/>
 <path atv:refpx="640" atv:refpy="59.501" d="M1024,99.166C1024,99.166 1024,119 1004,119C984,119 20,119 20,119C20,119 0,119 0,99.166C0,79.333 0,0 0,0C0,0 1024,0 1024,0C1024,0 1024,99.166 1024,99.166" fill="url(#linear_21)" id="id_10" stroke="#c8c8c8" stroke-width="1"/>
 <svg atv:refpx="719.023" atv:refpy="95.502" height="30" id="id_29" transform="matrix(0.5625,0,0,1.5,0,0)" width="80" x="1238.267" xlink:href="SYSTEM.LIBRARY.ATVISE.OBJECTDISPLAYS.Standard.button_open_display" y="48.667">
  <atv:argument name="display" value="SYSTEM.LIBRARY.ATVISE.OBJECTDISPLAYS.Standard.hmi.historylist"/>
  <atv:argument name="symbol" value="SYSTEM.LIBRARY.ATVISE.OBJECTDISPLAYS.Symbols.20x20.history"/>
  <atv:argument name="symbolPressed" value="SYSTEM.LIBRARY.ATVISE.OBJECTDISPLAYS.Symbols.20x20.history"/>
  <atv:argument name="symbolColor" value="#ffffff"/>
  <atv:argument name="visibilityLabel" value="hidden"/>
  <atv:argument name="visibilitySymbol" value="inherit"/>
  <atv:argument name="tabIndex" value="-999999"/>
  <atv:overwrite id="button_symbol_pressed" transform="matrix(1.7778,0,0,0.6667,0,0)" x="12.5" y="12.5"/>
  <atv:overwrite height="39.5" id="id_2" transform="matrix(1.7778,0,0,0.6667,0,0)" width="39.5"/>
  <atv:overwrite height="44.5" id="id_0" transform="matrix(1.7778,0,0,0.6667,0,0)" width="44.5"/>
  <atv:overwrite height="37" id="button_stroke" transform="matrix(1.7778,0,0,0.6667,0,0)" width="37"/>
  <atv:overwrite id="button_label" transform="matrix(1.7778,0,0,0.6667,0,0)" x="22.5" y="27"/>
  <atv:overwrite id="button_symbol" transform="matrix(1.7778,0,0,0.6667,0,0)" x="12.5" y="12.5"/>
  <atv:overwrite height="37" id="button_bg" transform="matrix(1.7778,0,0,0.6667,0,0)" width="37"/>
 </svg>
 <svg atv:refpx="101" atv:refpy="95.501" height="45" id="id_22" width="160" x="21" xlink:href="SYSTEM.LIBRARY.ATVISE.OBJECTDISPLAYS.Standard.hmi.button_group_display" y="73.001">
  <atv:argument name="symbolColor" value="#000000"/>
  <atv:argument name="symbolColor2" value="#ffffff"/>
 </svg>
 <svg atv:refpx="422.142" atv:refpy="88.001" height="45" id="id_13" width="160" x="370.529" xlink:href="SYSTEM.LIBRARY.ATVISE.OBJECTDISPLAYS.Standard.hmi.button_group_zoom" y="73.001"/>
 <svg atv:refpx="613.527" atv:refpy="95.501" height="45" id="id_15" width="160" x="533.527" xlink:href="SYSTEM.LIBRARY.ATVISE.OBJECTDISPLAYS.Standard.hmi.button_group_alarm" y="73.001"/>
 <rect atv:refpx="3027.406" atv:refpy="72.5" fill="#000000" height="65" id="id_1" rx="5.904" ry="3" stroke="none" stroke-width="1.542" width="639.586" x="370" y="5"/>
 <svg atv:refpx="685.835" atv:refpy="45" height="75" id="id_8" transform="matrix(0.9872,0,0,1,0,0)" width="650" x="369.739" xlink:href="SYSTEM.LIBRARY.ATVISE.OBJECTDISPLAYS.Standard.hmi.alarmlog" y="0">
  <atv:argument name="fill" value="#ff0000"/>
  <atv:argument name="minAlarmPriority" prefix="minAlarmPriority"/>
  <atv:argument name="maxAlarmPriority" prefix="maxAlarmPriority"/>
  <atv:argument name="fontColor" value="#ffffff"/>
 </svg>
 <rect atv:refpx="1207.768" atv:refpy="127.5" fill="#000000" height="65" id="id_27" rx="6" ry="6" stroke="none" stroke-width="1.542" width="147" x="202" y="5"/>
 <rect atv:refpx="868.51" atv:refpy="135.41" fill="url(#linear_37)" height="20" id="id_28" rx="6" ry="6" stroke="none" stroke-width="1.542" width="145.392" x="202.661" y="6.319"/>
 <text atv:refpx="2.561" atv:refpy="-31.5" fill="#ffffff" font-family="Courier New" font-size="12" font-weight="normal" id="username_label" text-anchor="end" x="338" y="48"/>
 <text atv:refpx="-629.436" atv:refpy="-1.5" fill="#ffffff" font-family="Courier New" font-size="12" font-weight="bold" id="id_20" x="214.5" y="48">T{User}:</text>
 <text atv:refpx="-1291.968" atv:refpy="-7.5" fill="#ffffff" font-family="Courier New" font-size="12" font-weight="normal" id="time_label" text-anchor="end" x="338.5" y="37">10:56</text>
 <text atv:refpx="228.5" atv:refpy="32.287" fill="#ffffff" font-family="Courier New" font-size="12" font-weight="bold" id="id_19" x="214.5" y="36.787">T{Time}:</text>
 <text atv:refpx="-883.182" atv:refpy="-20.5" fill="#ffffff" font-family="Courier New" font-size="12" font-weight="normal" id="language_label" text-anchor="end" x="338" y="59">T{}</text>
 <text atv:refpx="-2121.368" atv:refpy="-50.5" fill="#ffffff" font-family="Courier New" font-size="12" font-weight="bold" id="id_25" x="214.5" y="59">T{Language}:</text>
 <text atv:refpx="-1582.757" atv:refpy="-3.5" fill="#ffffff" font-family="Courier New" font-size="12" font-weight="normal" id="date_label" text-anchor="end" x="338.5" y="26">25.02.2011</text>
 <text atv:refpx="227.5" atv:refpy="21.5" fill="#ffffff" font-family="Courier New" font-size="12" font-weight="bold" id="id_18" x="214.5" y="26">T{Date}:</text>
 <rect atv:refpx="-69.5" atv:refpy="-16" fill="url(#linear_36)" height="118" id="id_6" stroke="none" stroke-width="2" width="5" x="358" y="0"/>
 <svg atv:refpx="250.5" atv:refpy="95.499" height="30" id="id_11" transform="matrix(1.5,0,0,1.5,0,0)" width="30" x="152.001" xlink:href="SYSTEM.LIBRARY.ATVISE.OBJECTDISPLAYS.Standard.hmi.button_login" y="48.667">
  <atv:overwrite height="37.5" id="button_stroke" transform="matrix(0.6667,0,0,0.6667,0,0)" width="37.5"/>
  <atv:overwrite id="button_symbol" transform="matrix(0.6667,0,0,0.6667,0,0)" x="12.5" y="12.5"/>
  <atv:overwrite id="button_symbol_pressed" transform="matrix(0.6667,0,0,0.6667,0,0)" x="12.5" y="12.5"/>
  <atv:overwrite height="37.5" id="button_bg" transform="matrix(0.6667,0,0,0.6667,0,0)" width="37.5"/>
  <atv:overwrite height="39.5" id="id_3" transform="matrix(0.6667,0,0,0.6667,0,0)" width="39.5"/>
  <atv:overwrite height="44.5" id="id_0" transform="matrix(0.6667,0,0,0.6667,0,0)" width="44.5"/>
 </svg>
 <svg atv:refpx="298.5" atv:refpy="95.501" height="45" id="id_12" width="45" x="276" xlink:href="SYSTEM.LIBRARY.ATVISE.OBJECTDISPLAYS.Standard.hmi.button_switch_language" y="73.001">
  <atv:argument name="symbolColor" value="#ffffff"/>
 </svg>
 <rect atv:refpx="-237.5" atv:refpy="-16" fill="url(#linear_39)" height="118" id="id_7" stroke="none" stroke-width="2" width="5" x="190" y="0"/>
 <rect atv:refpx="3297.365" atv:refpy="134.875" fill="url(#linear_48)" height="20" id="id_4" rx="5.917" ry="3" stroke="none" stroke-width="1.542" width="639" x="370.949" y="5.784"/>
 <g atv:refpx="101.264" atv:refpy="37.5" id="id_16" transform="matrix(1,0,0,1,0,1.4733)">
  <rect atv:refpx="1137.241" atv:refpy="126.027" fill="#000000" height="65" id="id_5" rx="6" ry="6" stroke="none" stroke-width="1.542" width="160" x="21.264" y="3.527"/>
  <rect atv:refpx="768.588" atv:refpy="133.937" fill="url(#linear_49)" height="20" id="id_9" rx="6" ry="6" stroke="none" stroke-width="1.542" width="158.213" x="22.011" y="4.846"/>
  <g atv:refpx="123.31" atv:refpy="35.969" id="atvise_logo" transform="matrix(0.6198,0,0,0.6198,77.6812,-2.4818)">
   <svg atv:dynamic="true" atv:refpx="175.51" atv:refpy="29.508" height="80" id="id_17" transform="matrix(0.6904,0,0,0.6904,0,0)" width="80" x="-71.847" xlink:href="SYSTEM.LIBRARY.ATVISE.OBJECTDISPLAYS.Symbols.atvise_logo" y="54.873"/>
   <rect atv:refpx="333.467" atv:refpy="32.463" fill="#000000" fill-opacity="0.0001" height="55.2" id="logo_click" stroke="none" stroke-width="0" width="196.914" x="-60.873" y="36.315"/>
   <svg atv:refpx="144.672" atv:refpy="19.737" height="12.99" id="title" transform="matrix(2.3352,0,0,2.3352,0,0)" width="48.94" x="-1.299" xlink:href="SYSTEM.LIBRARY.ATVISE.OBJECTDISPLAYS.Symbols.atvise_R" y="20.54">
    <atv:argument name="symbolColor" value="#FFFFFF"/>
   </svg>
  </g>
 </g>
 <g atv:refpx="939.847" atv:refpy="96.087" id="redu_info" transform="matrix(1,0,0,1,-228.2111,0.673)" visibility="hidden">
  <g atv:refpx="1141.471" atv:refpy="97.989" id="id_36" transform="matrix(1,0,0,1,-0.9122,0.5935)">
   <text atv:refpx="1154.387" atv:refpy="85.735" fill="#d4d4d4" font-family="Arial" font-size="8" id="id_31" text-anchor="start" x="1133.387" y="89.235">T{STATUS}:</text>
   <text atv:refpx="1151.887" atv:refpy="101.735" fill="#d4d4d4" font-family="Arial" font-size="14" font-weight="bold" id="redu_status" text-anchor="start" x="1133.387" y="105.235"/>
  </g>
  <text atv:refpx="1411.296" atv:refpy="305.508" fill="#d4d4d4" font-family="Arial" font-size="30" font-weight="bold" id="redu_role" x="1103.16" y="104.828"/>
  <svg atv:refpx="1217.783" atv:refpy="95.501" height="30" id="id_43" transform="matrix(0.5625,0,0,1.5,0,0)" width="80" x="2124.95" xlink:href="SYSTEM.LIBRARY.ATVISE.OBJECTDISPLAYS.Standard.button_open_display" y="48.667">
   <atv:argument name="display" value="SYSTEM.LIBRARY.ATVISE.OBJECTDISPLAYS.Standard.redundancy.status"/>
   <atv:argument name="symbol" value="SYSTEM.LIBRARY.ATVISE.OBJECTDISPLAYS.Symbols.20x20.info"/>
   <atv:argument name="symbolPressed" value="SYSTEM.LIBRARY.ATVISE.OBJECTDISPLAYS.Symbols.20x20.info"/>
   <atv:argument name="symbolColor" value="#ffffff"/>
   <atv:argument name="visibilityLabel" value="hidden"/>
   <atv:argument name="visibilitySymbol" value="inherit"/>
   <atv:argument name="tabIndex" value="-999999"/>
   <atv:overwrite id="button_symbol_pressed" transform="matrix(1.7778,0,0,0.6667,0,0)" x="12.5" y="12.5"/>
   <atv:overwrite height="39.5" id="id_2" transform="matrix(1.7778,0,0,0.6667,0,0)" width="39.5"/>
   <atv:overwrite height="44.5" id="id_0" transform="matrix(1.7778,0,0,0.6667,0,0)" width="44.5"/>
   <atv:overwrite height="37" id="button_stroke" transform="matrix(1.7778,0,0,0.6667,0,0)" width="37"/>
   <atv:overwrite id="button_label" transform="matrix(1.7778,0,0,0.6667,0,0)" x="22.5" y="27"/>
   <atv:overwrite id="button_symbol" transform="matrix(1.7778,0,0,0.6667,0,0)" x="12.5" y="12.5"/>
   <atv:overwrite height="37" id="button_bg" transform="matrix(1.7778,0,0,0.6667,0,0)" width="37"/>
  </svg>
 </g>
 <script atv:desc="" atv:href="SYSTEM.LIBRARY.ATVISE.DISPLAYSCRIPTS.hmi.top" atv:name="top" atv:type="text/ecmascript"/>
 <script atv:desc="" atv:name="" type="text/ecmascript"/>
</svg>
