<?xml version='1.0' encoding='UTF-8' standalone='no'?>
<svg enable-background="new 0 0 50 50" height="20" id="Ebene_1" version="1.1" width="20" x="0px" xml:space="preserve" y="0px" xmlns="http://www.w3.org/2000/svg" xmlns:atv="http://webmi.atvise.com/2007/svgext" xmlns:xlink="http://www.w3.org/1999/xlink">
 <defs/>
 <metadata>
  <atv:parameter behavior="optional" defaultvalue="#000000" desc="symbol color" name="symbolColor" substitute="$SYMBOLCOLOR$" valuetype="color"/>
  <atv:gridconfig enabled="false" gridstyle="lines" height="20" width="20"/>
  <atv:snapconfig enabled="false" height="10" width="10"/>
 </metadata>
 <circle atv:refpx="8.53" atv:refpy="12.357" cx="8.53" cy="8.594" fill="none" id="id_6" r="4.919" stroke="$SYMBOLCOLOR$" stroke-width="1"/>
 <rect atv:refpx="13.972" atv:refpy="26.909" fill="$SYMBOLCOLOR$" height="5.532" id="id_7" stroke="none" stroke-width="1" transform="matrix(0.7071,-0.7071,0.7071,0.7071,0,0)" width="2.725" x="-1.317" y="16.946"/>
 <polygon atv:refpx="6.693" atv:refpy="7.18" fill="$SYMBOLCOLOR$" id="id_1" points="5.162,6.051 5.162,8.307 5.63,8.307 5.63,6.456 8.222,6.456 8.222,6.051" stroke-width="0.328"/>
 <polygon atv:refpx="10.386" atv:refpy="7.18" fill="$SYMBOLCOLOR$" id="id_2" points="11.916,8.307 11.916,6.051 8.855,6.051 8.855,6.456 11.447,6.456 11.447,8.307" stroke-width="0.328"/>
 <polygon atv:refpx="6.693" atv:refpy="10.045" fill="$SYMBOLCOLOR$" id="id_3" points="5.63,10.768 5.63,8.916 5.162,8.916 5.162,11.172 8.222,11.172 8.222,10.768" stroke-width="0.328"/>
 <polygon atv:refpx="10.386" atv:refpy="10.045" fill="$SYMBOLCOLOR$" id="id_4" points="11.916,11.172 11.916,8.916 11.447,8.916 11.447,10.768 8.855,10.768 8.855,11.172" stroke-width="0.328"/>
 <script atv:desc="" atv:name="" type="text/ecmascript"/>
</svg>
