<?xml version='1.0' encoding='UTF-8' standalone='no'?>
<svg height="500" version="1.2" width="900" xmlns="http://www.w3.org/2000/svg" xmlns:atv="http://webmi.atvise.com/2007/svgext" xmlns:xlink="http://www.w3.org/1999/xlink">
 <defs/>
 <desc>Edit configurations for reports.</desc>
 <title>Report Editor</title>
 <metadata>
  <atv:parameter behavior="optional" defaultvalue="T{Edit report}" desc="headline" name="headline" substitute="$HEADLINE$" valuetype="trstring"/>
  <atv:parameter behavior="optional" defaultvalue="SYSTEM.LIBRARY.ATVISE.OBJECTDISPLAYS.Symbols.20x20.folder_report" desc="symbol" name="symbol" substitute="$SYMBOL$" valuetype="display"/>
  <atv:parameter behavior="optional" defaultvalue="SYSTEM.LIBRARY.ATVISE.OBJECTDISPLAYS.Advanced.keyboard.keyboard" desc="keyboard display" name="keyboard" valuetype="display"/>
  <atv:parameter behavior="optional" defaultvalue="SYSTEM.LIBRARY.ATVISE.OBJECTDISPLAYS.Advanced.dialogs.pw_editor" desc="password display" name="passworddisplay" valuetype="display"/>
  <atv:parameter behavior="optional" defaultvalue="SYSTEM.GLOBALS.atvFontColor" desc="font color" name="fontColor" substitute="$FONTCOLOR$" valuetype="global"/>
  <atv:parameter behavior="optional" defaultvalue="SYSTEM.GLOBALS.atvFillColor" desc="fill color" name="fillColor" substitute="$FILLCOLOR$" valuetype="global"/>
  <atv:parameter behavior="optional" defaultvalue="SYSTEM.GLOBALS.atvSymbolColor" desc="symbol color" name="symbolColor" substitute="$SYMBOLCOLOR$" valuetype="global"/>
  <atv:gridconfig enabled="true" gridstyle="lines" height="5" width="5"/>
  <atv:snapconfig enabled="true" height="5" width="5"/>
 </metadata>
 <script atv:desc="" atv:href="SYSTEM.LIBRARY.ATVISE.DISPLAYSCRIPTS.report.edit_dialog" atv:name="Edit dialog" atv:type="text/ecmascript"/>
 <script atv:desc="" atv:name="" type="text/ecmascript"/>
 <rect atv:refpx="450" atv:refpy="250" fill="$FILLCOLOR$" height="500" id="background" stroke="none" stroke-width="0" width="900" x="0" y="0"/>
 <svg atv:dynamic="true" atv:refpx="394.875" atv:refpy="460" height="30" id="save_button" transform="matrix(1.1875,0,0,1,0,0)" width="80" x="290.526" xlink:href="SYSTEM.LIBRARY.ATVISE.OBJECTDISPLAYS.Advanced.button" y="451">
  <atv:argument name="label" value="T{Save}"/>
  <atv:argument name="tabIndex" value="60"/>
  <atv:argument name="borderVisible" value="true"/>
  <atv:argument name="extraBorderColor" value="#ffffff"/>
  <atv:argument name="fontSize" value="14"/>
  <atv:overwrite id="id_6" transform="matrix(0.8421,0,0,1,0,0)" width="93"/>
  <atv:overwrite id="button_label_2" transform="matrix(0.8421,0,0,1,0,0)" x="47.5"/>
  <atv:overwrite id="button_label_1" transform="matrix(0.8421,0,0,1,0,0)" x="47.5"/>
  <atv:overwrite id="button_label" transform="matrix(0.8421,0,0,1,0,0)" x="47.5"/>
  <atv:overwrite id="button_symbol_bottom" transform="matrix(0.5053,0,0,0.6,0,0)" x="69"/>
  <atv:overwrite id="button_symbol_top" transform="matrix(0.5053,0,0,0.6,0,0)" x="69"/>
  <atv:overwrite id="button_symbol" transform="matrix(0.8421,0,0,1,0,0)" x="37.5"/>
  <atv:overwrite id="button_stroke" transform="matrix(0.8421,0,0,1,0,0)" width="91"/>
  <atv:overwrite id="button_bg" transform="matrix(0.8421,0,0,1,0,0)" width="93"/>
  <atv:overwrite id="outer_frame" transform="matrix(0.8421,0,0,1,0,0)" width="95"/>
 </svg>
 <svg atv:dynamic="true" atv:refpx="509.875" atv:refpy="460" height="30" id="cancel_button" transform="matrix(1.1875,0,0,1,0,0)" width="80" x="387.368" xlink:href="SYSTEM.LIBRARY.ATVISE.OBJECTDISPLAYS.Advanced.button" y="451">
  <atv:argument name="label" value="T{Cancel}"/>
  <atv:argument name="tabIndex" value="61"/>
  <atv:argument name="borderVisible" value="true"/>
  <atv:argument name="extraBorderColor" value="#ffffff"/>
  <atv:argument name="fontSize" value="14"/>
  <atv:overwrite id="id_6" transform="matrix(0.8421,0,0,1,0,0)" width="93"/>
  <atv:overwrite id="button_label_2" transform="matrix(0.8421,0,0,1,0,0)" x="47.5"/>
  <atv:overwrite id="button_label_1" transform="matrix(0.8421,0,0,1,0,0)" x="47.5"/>
  <atv:overwrite id="button_label" transform="matrix(0.8421,0,0,1,0,0)" x="47.5"/>
  <atv:overwrite id="button_symbol_bottom" transform="matrix(0.5053,0,0,0.6,0,0)" x="69"/>
  <atv:overwrite id="button_symbol_top" transform="matrix(0.5053,0,0,0.6,0,0)" x="69"/>
  <atv:overwrite id="button_symbol" transform="matrix(0.8421,0,0,1,0,0)" x="37.5"/>
  <atv:overwrite id="button_stroke" transform="matrix(0.8421,0,0,1,0,0)" width="91"/>
  <atv:overwrite id="button_bg" transform="matrix(0.8421,0,0,1,0,0)" width="93"/>
  <atv:overwrite id="outer_frame" transform="matrix(0.8421,0,0,1,0,0)" width="95"/>
 </svg>
 <rect atv:refpx="232.5" atv:refpy="235" fill="#ffffff" height="310" id="general_background" rx="10" ry="10" stroke="none" stroke-width="0" width="425" x="20" y="80"/>
 <text atv:refpx="80" atv:refpy="174.5" fill="$FONTCOLOR$" font-family="Arial" font-size="16" id="metascript_label" x="34" y="180.5">T{Metascript}</text>
 <text atv:refpx="473" atv:refpy="423.5" fill="#ff0004" font-family="Arial" font-size="14" id="message" text-anchor="middle" x="451" y="428">&lt;errormessage></text>
 <rect atv:refpx="450" atv:refpy="45" fill="#ffffff" height="50" id="name_background" rx="10" ry="12.5" stroke="none" stroke-width="0" width="860" x="20" y="20"/>
 <svg atv:refpx="285.473" atv:refpy="140" height="30" id="template_input" transform="matrix(1.8125,0,0,1,0,0)" width="160" x="77.517" xlink:href="SYSTEM.LIBRARY.ATVISE.OBJECTDISPLAYS.Advanced.in_out_value" y="125">
  <atv:argument name="validation" value="String"/>
  <atv:argument name="allowDirectInput" value="Yes"/>
  <atv:argument name="tabIndex" value="31"/>
  <atv:overwrite id="id_2" transform="matrix(0.8889,0,0,1,0,0)" width="174.5"/>
  <atv:argument name="tooltip" value="T{Examples: 'C:/project/template.xlsx', 'C:\project\template.xlsx' or './template.xlsx'}"/>
  <atv:overwrite id="input_label" transform="matrix(0.5517,0,0,1,0,0)" x="282.055"/>
  <atv:overwrite id="blinking_frame" transform="matrix(0.5517,0,0,1,0,0)" width="282"/>
  <atv:overwrite id="focus_frame" transform="matrix(0.5517,0,0,1,0,0)" width="286"/>
  <atv:overwrite id="input_bg" transform="matrix(0.5517,0,0,1,0,0)" width="282"/>
  <atv:overwrite id="id_1" transform="matrix(0.5517,0,0,1,0,0)" width="288"/>
  <atv:overwrite id="id_0" transform="matrix(0.5517,0,0,1,0,0)" width="290"/>
 </svg>
 <svg atv:refpx="285.482" atv:refpy="210" height="30" id="xlsx_input" transform="matrix(1.8124,0,0,1,0,0)" width="160" x="77.533" xlink:href="SYSTEM.LIBRARY.ATVISE.OBJECTDISPLAYS.Advanced.in_out_value" y="195">
  <atv:argument name="validation" value="String"/>
  <atv:argument name="allowDirectInput" value="Yes"/>
  <atv:argument name="tabIndex" value="33"/>
  <atv:overwrite id="id_2" transform="matrix(0.8889,0,0,1,0,0)" width="174.5"/>
  <atv:overwrite id="input_label" transform="matrix(0.5518,0,0,1,0,0)" x="282.039"/>
  <atv:overwrite id="blinking_frame" transform="matrix(0.5518,0,0,1,0,0)" width="281.984"/>
  <atv:overwrite id="focus_frame" transform="matrix(0.5518,0,0,1,0,0)" width="285.984"/>
  <atv:overwrite id="input_bg" transform="matrix(0.5518,0,0,1,0,0)" width="281.984"/>
  <atv:overwrite id="id_1" transform="matrix(0.5518,0,0,1,0,0)" width="287.984"/>
  <atv:overwrite id="id_0" transform="matrix(0.5518,0,0,1,0,0)" width="289.984"/>
 </svg>
 <svg atv:refpx="285.481" atv:refpy="245" height="30" id="pdf_input" transform="matrix(1.8124,0,0,1,0,0)" width="160" x="77.533" xlink:href="SYSTEM.LIBRARY.ATVISE.OBJECTDISPLAYS.Advanced.in_out_value" y="230">
  <atv:argument name="validation" value="String"/>
  <atv:argument name="allowDirectInput" value="Yes"/>
  <atv:argument name="tabIndex" value="34"/>
  <atv:overwrite id="id_2" transform="matrix(0.8889,0,0,1,0,0)" width="174.5"/>
  <atv:overwrite id="input_label" transform="matrix(0.5518,0,0,1,0,0)" x="282.039"/>
  <atv:overwrite id="blinking_frame" transform="matrix(0.5518,0,0,1,0,0)" width="281.984"/>
  <atv:overwrite id="focus_frame" transform="matrix(0.5518,0,0,1,0,0)" width="285.984"/>
  <atv:overwrite id="input_bg" transform="matrix(0.5518,0,0,1,0,0)" width="281.984"/>
  <atv:overwrite id="id_1" transform="matrix(0.5518,0,0,1,0,0)" width="287.984"/>
  <atv:overwrite id="id_0" transform="matrix(0.5518,0,0,1,0,0)" width="289.984"/>
 </svg>
 <text atv:refpx="285.045" atv:refpy="92" fill="$FONTCOLOR$" font-family="Arial" font-size="16" id="template_label" x="34.5" y="146.5">T{Template}*</text>
 <text atv:refpx="239.293" atv:refpy="293" fill="$FONTCOLOR$" font-family="Arial" font-size="16" id="locale_label" x="34" y="347.5">T{Locale}</text>
 <text atv:refpx="302.015" atv:refpy="162" fill="$FONTCOLOR$" font-family="Arial" font-size="16" id="xlsx_label" x="34.5" y="216.5">T{XLSX rep.}*</text>
 <text atv:refpx="287.873" atv:refpy="197" fill="$FONTCOLOR$" font-family="Arial" font-size="16" id="pdf_label" x="34.5" y="251.5">T{PDF rep.}</text>
 <text atv:refpx="85" atv:refpy="279.5" fill="$FONTCOLOR$" font-family="Arial" font-size="16" id="worksheet_label" x="34" y="285.5">T{Worksheets}</text>
 <text atv:refpx="424.615" atv:refpy="231" fill="$FONTCOLOR$" font-family="Arial" font-size="16" id="id_39" text-anchor="middle" x="324.5" y="285.5">T{To}</text>
 <svg atv:refpx="284.993" atv:refpy="175" height="30" id="metascript_input" transform="matrix(1.8125,0,0,1,0,0)" width="160" x="77.241" xlink:href="SYSTEM.LIBRARY.ATVISE.OBJECTDISPLAYS.Advanced.in_out_value" y="160">
  <atv:argument name="validation" value="String"/>
  <atv:argument name="allowDirectInput" value="Yes"/>
  <atv:argument name="tabIndex" value="32"/>
  <atv:overwrite id="id_2" transform="matrix(0.8889,0,0,1,0,0)" width="174.5"/>
  <atv:overwrite id="input_label" transform="matrix(0.5517,0,0,1,0,0)" x="282.055"/>
  <atv:overwrite id="blinking_frame" transform="matrix(0.5517,0,0,1,0,0)" width="282"/>
  <atv:overwrite id="focus_frame" transform="matrix(0.5517,0,0,1,0,0)" width="286"/>
  <atv:overwrite id="input_bg" transform="matrix(0.5517,0,0,1,0,0)" width="282"/>
  <atv:overwrite id="id_1" transform="matrix(0.5517,0,0,1,0,0)" width="288"/>
  <atv:overwrite id="id_0" transform="matrix(0.5517,0,0,1,0,0)" width="290"/>
 </svg>
 <svg atv:refpx="284.974" atv:refpy="45" height="30" id="configuration_input" transform="matrix(1.8125,0,0,1,0,0)" width="160" x="77.241" xlink:href="SYSTEM.LIBRARY.ATVISE.OBJECTDISPLAYS.Advanced.in_out_value" y="30">
  <atv:argument name="validation" value="String"/>
  <atv:argument name="allowDirectInput" value="Yes"/>
  <atv:argument name="tabIndex" value="1"/>
  <atv:overwrite id="id_2" transform="matrix(0.8889,0,0,1,0,0)" width="174.5"/>
  <atv:overwrite id="input_label" transform="matrix(0.5517,0,0,1,0,0)" x="282.055"/>
  <atv:overwrite id="blinking_frame" transform="matrix(0.5517,0,0,1,0,0)" width="282"/>
  <atv:overwrite id="focus_frame" transform="matrix(0.5517,0,0,1,0,0)" width="286"/>
  <atv:overwrite id="input_bg" transform="matrix(0.5517,0,0,1,0,0)" width="282"/>
  <atv:overwrite id="id_1" transform="matrix(0.5517,0,0,1,0,0)" width="288"/>
  <atv:overwrite id="id_0" transform="matrix(0.5517,0,0,1,0,0)" width="290"/>
 </svg>
 <svg atv:refpx="284.973" atv:refpy="340" height="30" id="locale_input" transform="matrix(1.8125,0,0,1,0,0)" width="160" x="77.241" xlink:href="SYSTEM.LIBRARY.ATVISE.OBJECTDISPLAYS.Advanced.in_out_value" y="325">
  <atv:argument name="validation" value="String"/>
  <atv:argument name="allowDirectInput" value="Yes"/>
  <atv:argument name="tabIndex" value="38"/>
  <atv:overwrite id="id_2" transform="matrix(0.8889,0,0,1,0,0)" width="174.5"/>
  <atv:overwrite id="input_label" transform="matrix(0.5517,0,0,1,0,0)" x="282.055"/>
  <atv:overwrite id="blinking_frame" transform="matrix(0.5517,0,0,1,0,0)" width="282"/>
  <atv:overwrite id="focus_frame" transform="matrix(0.5517,0,0,1,0,0)" width="286"/>
  <atv:overwrite id="input_bg" transform="matrix(0.5517,0,0,1,0,0)" width="282"/>
  <atv:overwrite id="id_1" transform="matrix(0.5517,0,0,1,0,0)" width="288"/>
  <atv:overwrite id="id_0" transform="matrix(0.5517,0,0,1,0,0)" width="290"/>
 </svg>
 <rect atv:refpx="667.5" atv:refpy="235" fill="#ffffff" height="310" id="schedule_background" rx="10" ry="10" stroke="none" stroke-width="0" width="425" x="455" y="80"/>
 <text atv:refpx="363.5" atv:refpy="376.5" fill="$FONTCOLOR$" font-family="Arial" font-size="12" id="id_3" text-anchor="end" x="430" y="381">* T{mandatory field}</text>
 <svg atv:refpx="387.427" atv:refpy="280" height="30" id="ws_end_input" transform="matrix(0.5313,0,0,1,0,0)" width="160" x="649.351" xlink:href="SYSTEM.LIBRARY.ATVISE.OBJECTDISPLAYS.Advanced.picker_value" y="265">
  <atv:argument name="tabIndex" value="37"/>
  <atv:argument name="min" value="0"/>
  <atv:argument name="tooltip" value="T{Worksheet selection for PDF reports}"/>
  <atv:overwrite id="focus_frame" transform="matrix(1.8822,0,0,1,0,0)" width="81.008"/>
  <atv:overwrite id="clickarea_dec" transform="matrix(1.8822,0,0,1,-141.1481,0)"/>
  <atv:overwrite id="clickarea_inc" transform="matrix(1.8822,0,0,1,-141.1481,0)"/>
  <atv:overwrite id="input_label" transform="matrix(1.8822,0,0,1,0,0)" x="50.508"/>
  <atv:overwrite id="blinking_frame" transform="matrix(1.8822,0,0,1,0,0)" width="53.008"/>
  <atv:overwrite id="input_bg" transform="matrix(1.8822,0,0,1,0,0)" width="53.008"/>
  <atv:overwrite id="id_0" transform="matrix(1.8822,0,0,1,0,0)" width="83.008"/>
  <atv:overwrite id="bg" transform="matrix(1.8822,0,0,1,0,0)" width="85.008"/>
 </svg>
 <svg atv:refpx="262.5" atv:refpy="280" height="30" id="ws_start_input" transform="matrix(0.5313,0,0,1,0,0)" width="160" x="414.079" xlink:href="SYSTEM.LIBRARY.ATVISE.OBJECTDISPLAYS.Advanced.picker_value" y="265">
  <atv:argument name="min" value="0"/>
  <atv:argument name="tabIndex" value="36"/>
  <atv:argument name="tooltip" value="T{Worksheet selection for PDF reports}"/>
  <atv:overwrite id="focus_frame" transform="matrix(1.8822,0,0,1,0,0)" width="81.008"/>
  <atv:overwrite id="clickarea_dec" transform="matrix(1.8822,0,0,1,-141.1481,0)"/>
  <atv:overwrite id="clickarea_inc" transform="matrix(1.8822,0,0,1,-141.1481,0)"/>
  <atv:overwrite id="input_label" transform="matrix(1.8822,0,0,1,0,0)" x="50.508"/>
  <atv:overwrite id="blinking_frame" transform="matrix(1.8822,0,0,1,0,0)" width="53.008"/>
  <atv:overwrite id="input_bg" transform="matrix(1.8822,0,0,1,0,0)" width="53.008"/>
  <atv:overwrite id="id_0" transform="matrix(1.8822,0,0,1,0,0)" width="83.008"/>
  <atv:overwrite id="bg" transform="matrix(1.8822,0,0,1,0,0)" width="85.008"/>
 </svg>
 <svg atv:refpx="180" atv:refpy="280" height="30" id="ws_all_input" transform="matrix(0.5,0,0,1,0,0)" width="160" x="280" xlink:href="SYSTEM.LIBRARY.ATVISE.OBJECTDISPLAYS.Advanced.checkbox" y="265">
  <atv:argument name="label" value="T{All}"/>
  <atv:argument name="tabIndex" value="35"/>
  <atv:argument name="valueOn" value="true"/>
  <atv:argument name="outputValueOn" value="true"/>
  <atv:argument name="outputValueOff" value="false"/>
  <atv:argument name="fontSize" value="16"/>
  <atv:argument name="tooltip" value="T{Worksheet selection for PDF reports}"/>
  <atv:overwrite id="checkbox_item" transform="matrix(2,0,0,1,0,0)"/>
  <atv:overwrite id="checkbox_symbol" transform="matrix(2,0,0,1,0,0)"/>
  <atv:overwrite id="blinking_frame" transform="matrix(2,0,0,1,0,0)"/>
  <atv:overwrite id="focus_frame" transform="matrix(2,0,0,1,0,0)"/>
  <atv:overwrite id="checkbox_bg" transform="matrix(2,0,0,1,0,0)"/>
  <atv:overwrite id="checkbox_frame" transform="matrix(2,0,0,1,0,0)"/>
  <atv:overwrite id="checkbox_stroke" transform="matrix(2,0,0,1,0,0)"/>
 </svg>
 <text atv:refpx="65.06" atv:refpy="45.5" fill="$FONTCOLOR$" font-family="Arial" font-size="16" id="id_6" text-anchor="start" x="34" y="51.5">T{Name}</text>
 <svg atv:refpx="694.98" atv:refpy="45" height="30" id="group_input" transform="matrix(1.5,0,0,1,0,0)" width="160" x="383.333" xlink:href="SYSTEM.LIBRARY.ATVISE.OBJECTDISPLAYS.Advanced.picker_address" y="30">
  <atv:argument name="showDisplays" value="No"/>
  <atv:argument name="showVariableTypes" value="No"/>
  <atv:argument name="base" value="AGENT.OBJECTS.ATVISE.Report"/>
  <atv:argument name="showArchives" value="No"/>
  <atv:argument name="showAlarms" value="No"/>
  <atv:argument name="showBaseVariables" value="No"/>
  <atv:argument name="tabIndex" value="2"/>
  <atv:overwrite id="addresspicker_clickarea" transform="matrix(0.6667,0,0,1,0,0)" x="212"/>
  <atv:overwrite id="focus_frame" transform="matrix(0.6667,0,0,1,0,0)" width="236"/>
  <atv:overwrite id="button_stroke" transform="matrix(0.6667,0,0,1,0,0)" x="215"/>
  <atv:overwrite id="button_symbol" transform="matrix(0.6667,0,0,1,0,0)" x="214.75"/>
  <atv:overwrite id="button_bg" transform="matrix(0.6667,0,0,1,0,0)" x="215"/>
  <atv:overwrite id="input_label" transform="matrix(0.6667,0,0,1,0,0)" x="206"/>
  <atv:overwrite id="blinking_frame" transform="matrix(0.6667,0,0,1,0,0)" width="208"/>
  <atv:overwrite id="addresspicker_bg" transform="matrix(0.6667,0,0,1,0,0)" width="208"/>
  <atv:overwrite id="id_0" transform="matrix(0.6667,0,0,1,0,0)" width="238"/>
  <atv:overwrite id="addresspicker_stroke" transform="matrix(0.6667,0,0,1,0,0)" width="240"/>
 </svg>
 <text atv:refpx="71.346" atv:refpy="98.5" fill="$FONTCOLOR$" font-family="Arial" font-size="16" font-weight="bold" id="id_7" x="34" y="104.5">T{General}</text>
 <text atv:refpx="500.568" atv:refpy="45.5" fill="$FONTCOLOR$" font-family="Arial" font-size="16" id="id_9" text-anchor="start" x="469" y="51.5">T{Group}</text>
 <svg atv:refpx="694.999" atv:refpy="245" height="30" id="minutes_input" transform="matrix(1.5,0,0,1,0,0)" width="160" x="383.334" xlink:href="SYSTEM.LIBRARY.ATVISE.OBJECTDISPLAYS.Advanced.in_out_value" y="230">
  <atv:argument name="validation" value="String"/>
  <atv:argument name="allowDirectInput" value="Yes"/>
  <atv:argument name="tabIndex" value="41"/>
  <atv:overwrite id="id_2" transform="matrix(0.8889,0,0,1,0,0)" width="174.5"/>
  <atv:argument name="tooltip" value="T{Simplified cron syntax: numbers sperated with ','}"/>
  <atv:overwrite id="input_label" transform="matrix(0.6667,0,0,1,0,0)" x="232.055"/>
  <atv:overwrite id="blinking_frame" transform="matrix(0.6667,0,0,1,0,0)" width="232"/>
  <atv:overwrite id="focus_frame" transform="matrix(0.6667,0,0,1,0,0)" width="236"/>
  <atv:overwrite id="input_bg" transform="matrix(0.6667,0,0,1,0,0)" width="232"/>
  <atv:overwrite id="id_1" transform="matrix(0.6667,0,0,1,0,0)" width="238"/>
  <atv:overwrite id="id_0" transform="matrix(0.6667,0,0,1,0,0)" width="240"/>
 </svg>
 <text atv:refpx="511.239" atv:refpy="244.5" fill="$FONTCOLOR$" font-family="Arial" font-size="16" id="minutes_label" x="469" y="250.5">T{Minute(s)}</text>
 <svg atv:refpx="694.998" atv:refpy="210" height="30" id="hours_input" transform="matrix(1.5,0,0,1,0,0)" width="160" x="383.334" xlink:href="SYSTEM.LIBRARY.ATVISE.OBJECTDISPLAYS.Advanced.in_out_value" y="195">
  <atv:argument name="validation" value="String"/>
  <atv:argument name="allowDirectInput" value="Yes"/>
  <atv:argument name="tabIndex" value="42"/>
  <atv:overwrite id="id_2" transform="matrix(0.8889,0,0,1,0,0)" width="174.5"/>
  <atv:argument name="tooltip" value="T{Simplified cron syntax: numbers sperated with ','}"/>
  <atv:overwrite id="input_label" transform="matrix(0.6667,0,0,1,0,0)" x="232.055"/>
  <atv:overwrite id="blinking_frame" transform="matrix(0.6667,0,0,1,0,0)" width="232"/>
  <atv:overwrite id="focus_frame" transform="matrix(0.6667,0,0,1,0,0)" width="236"/>
  <atv:overwrite id="input_bg" transform="matrix(0.6667,0,0,1,0,0)" width="232"/>
  <atv:overwrite id="id_1" transform="matrix(0.6667,0,0,1,0,0)" width="238"/>
  <atv:overwrite id="id_0" transform="matrix(0.6667,0,0,1,0,0)" width="240"/>
 </svg>
 <svg atv:refpx="694.999" atv:refpy="175" height="30" id="days_input" transform="matrix(1.5,0,0,1,0,0)" width="160" x="383.334" xlink:href="SYSTEM.LIBRARY.ATVISE.OBJECTDISPLAYS.Advanced.in_out_value" y="160">
  <atv:argument name="validation" value="String"/>
  <atv:argument name="allowDirectInput" value="Yes"/>
  <atv:argument name="tabIndex" value="43"/>
  <atv:overwrite id="id_2" transform="matrix(0.8889,0,0,1,0,0)" width="174.5"/>
  <atv:argument name="tooltip" value="T{Simplified cron syntax: numbers sperated with ','}"/>
  <atv:overwrite id="input_label" transform="matrix(0.6667,0,0,1,0,0)" x="232.055"/>
  <atv:overwrite id="blinking_frame" transform="matrix(0.6667,0,0,1,0,0)" width="232"/>
  <atv:overwrite id="focus_frame" transform="matrix(0.6667,0,0,1,0,0)" width="236"/>
  <atv:overwrite id="input_bg" transform="matrix(0.6667,0,0,1,0,0)" width="232"/>
  <atv:overwrite id="id_1" transform="matrix(0.6667,0,0,1,0,0)" width="238"/>
  <atv:overwrite id="id_0" transform="matrix(0.6667,0,0,1,0,0)" width="240"/>
 </svg>
 <svg atv:refpx="694.999" atv:refpy="140" height="30" id="months_input" transform="matrix(1.5,0,0,1,0,0)" width="160" x="383.334" xlink:href="SYSTEM.LIBRARY.ATVISE.OBJECTDISPLAYS.Advanced.in_out_value" y="125">
  <atv:argument name="validation" value="String"/>
  <atv:argument name="allowDirectInput" value="Yes"/>
  <atv:argument name="tabIndex" value="44"/>
  <atv:overwrite id="id_2" transform="matrix(0.8889,0,0,1,0,0)" width="174.5"/>
  <atv:argument name="tooltip" value="T{Simplified cron syntax: numbers sperated with ','}"/>
  <atv:overwrite id="input_label" transform="matrix(0.6667,0,0,1,0,0)" x="232.055"/>
  <atv:overwrite id="blinking_frame" transform="matrix(0.6667,0,0,1,0,0)" width="232"/>
  <atv:overwrite id="focus_frame" transform="matrix(0.6667,0,0,1,0,0)" width="236"/>
  <atv:overwrite id="input_bg" transform="matrix(0.6667,0,0,1,0,0)" width="232"/>
  <atv:overwrite id="id_1" transform="matrix(0.6667,0,0,1,0,0)" width="238"/>
  <atv:overwrite id="id_0" transform="matrix(0.6667,0,0,1,0,0)" width="240"/>
 </svg>
 <text atv:refpx="504.633" atv:refpy="210.5" fill="$FONTCOLOR$" font-family="Arial" font-size="16" id="hours_label" x="469" y="216.5">T{Hour(s)}</text>
 <text atv:refpx="502.092" atv:refpy="175.5" fill="$FONTCOLOR$" font-family="Arial" font-size="16" id="days_label" x="469" y="181.5">T{Day(s)}</text>
 <text atv:refpx="509.206" atv:refpy="140.5" fill="$FONTCOLOR$" font-family="Arial" font-size="16" id="months_label" x="469" y="146.5">T{Month(s)}</text>
 <text atv:refpx="512.385" atv:refpy="98.5" fill="$FONTCOLOR$" font-family="Arial" font-size="16" font-weight="bold" id="cycletime_label" x="469" y="104.5">T{Schedule}</text>
 <text atv:refpx="521.4" atv:refpy="280.5" fill="$FONTCOLOR$" font-family="Arial" font-size="16" id="weekdays_label" x="469" y="286.5">T{Weekday(s)}</text>
 <text atv:refpx="-560.219" atv:refpy="-14.517" fill="#575757" font-family="Arial" font-size="16" id="minutes_range" x="824.5" y="251.5">(0-59)</text>
 <text atv:refpx="-560.219" atv:refpy="-49.517" fill="#575757" font-family="Arial" font-size="16" id="hours_range" x="824.5" y="216.5">(0-23)</text>
 <text atv:refpx="-560.219" atv:refpy="-85.517" fill="#575757" font-family="Arial" font-size="16" id="days_range" x="824.5" y="180.5">(1-31)</text>
 <text atv:refpx="-560.219" atv:refpy="-120.517" fill="#575757" font-family="Arial" font-size="16" id="months_range" x="824.5" y="145.5">(1-12)</text>
 <text atv:refpx="517.336" atv:refpy="340.5" fill="$FONTCOLOR$" font-family="Arial" font-size="16" id="offset_label" x="469" y="346.5">T{Data offset}</text>
 <svg atv:refpx="694.987" atv:refpy="340" height="30" id="offset_input" transform="matrix(1.5,0,0,1,0,0)" width="160" x="383.334" xlink:href="SYSTEM.LIBRARY.ATVISE.OBJECTDISPLAYS.Advanced.rocker_switch_horizontal" y="325">
  <atv:argument name="tabIndex" value="55"/>
  <atv:argument name="min" value="0"/>
  <atv:overwrite id="icon_plus" transform="matrix(0.6667,0,0,1,53.3333,0)"/>
  <atv:overwrite id="inc_stroke" transform="matrix(0.6667,0,0,1,0,0)" x="201"/>
  <atv:overwrite id="inc_bg" transform="matrix(0.6667,0,0,1,0,0)" x="201"/>
  <atv:overwrite id="id_5" transform="matrix(0.6667,0,0,1,0,0)" x="200"/>
  <atv:overwrite id="icon_minus" transform="matrix(0.6667,0,0,1,0,0)"/>
  <atv:overwrite id="dec_stroke" transform="matrix(0.6667,0,0,1,0,0)"/>
  <atv:overwrite id="dec_bg" transform="matrix(0.6667,0,0,1,0,0)"/>
  <atv:overwrite id="id_20" transform="matrix(0.6667,0,0,1,0,0)"/>
  <atv:overwrite id="input_label" transform="matrix(0.6667,0,0,1,0,0)" x="120"/>
  <atv:overwrite id="blinking_frame" transform="matrix(0.6667,0,0,1,0,0)" x="124"/>
  <atv:overwrite id="input_field_widget" transform="matrix(0.6667,0,0,1,0,0)" width="152"/>
  <atv:overwrite id="focus_frame" transform="matrix(0.6667,0,0,1,0,0)" width="157"/>
  <atv:overwrite id="input_bg" transform="matrix(0.6667,0,0,1,0,0)" width="158"/>
  <atv:overwrite id="border_area" transform="matrix(0.6667,0,0,1,0,0)" width="160"/>
 </svg>
 <text atv:refpx="872.336" atv:refpy="340.5" fill="$FONTCOLOR$" font-family="Arial" font-size="16" id="id_4" x="824" y="346.5">T{Min.}</text>
 <svg atv:refpx="800" atv:refpy="280" height="30" id="weekdays_0" transform="matrix(0.1875,0,0,1,0,0)" width="160" x="4186.666" xlink:href="SYSTEM.LIBRARY.ATVISE.OBJECTDISPLAYS.Advanced.checkbox" y="265">
  <atv:argument name="label" value=""/>
  <atv:argument name="tabIndex" value="52"/>
  <atv:argument name="valueOn" value="true"/>
  <atv:argument name="outputValueOn" value="true"/>
  <atv:argument name="outputValueOff" value="false"/>
  <atv:overwrite id="checkbox_item" transform="matrix(5.3333,0,0,1,0,0)"/>
  <atv:overwrite id="checkbox_symbol" transform="matrix(5.3333,0,0,1,0,0)"/>
  <atv:overwrite id="blinking_frame" transform="matrix(5.3333,0,0,1,0,0)"/>
  <atv:overwrite id="focus_frame" transform="matrix(5.3333,0,0,1,0,0)"/>
  <atv:overwrite id="checkbox_bg" transform="matrix(5.3333,0,0,1,0,0)"/>
  <atv:overwrite id="checkbox_frame" transform="matrix(5.3333,0,0,1,0,0)"/>
  <atv:overwrite id="checkbox_stroke" transform="matrix(5.3333,0,0,1,0,0)"/>
 </svg>
 <svg atv:refpx="590" atv:refpy="280" height="30" id="weekdays_1" transform="matrix(0.1875,0,0,1,0,0)" width="160" x="3066.666" xlink:href="SYSTEM.LIBRARY.ATVISE.OBJECTDISPLAYS.Advanced.checkbox" y="265">
  <atv:argument name="label" value=""/>
  <atv:argument name="tabIndex" value="45"/>
  <atv:argument name="valueOn" value="true"/>
  <atv:argument name="outputValueOn" value="true"/>
  <atv:argument name="outputValueOff" value="false"/>
  <atv:overwrite id="checkbox_item" transform="matrix(5.3333,0,0,1,0,0)"/>
  <atv:overwrite id="checkbox_symbol" transform="matrix(5.3333,0,0,1,0,0)"/>
  <atv:overwrite id="blinking_frame" transform="matrix(5.3333,0,0,1,0,0)"/>
  <atv:overwrite id="focus_frame" transform="matrix(5.3333,0,0,1,0,0)"/>
  <atv:overwrite id="checkbox_bg" transform="matrix(5.3333,0,0,1,0,0)"/>
  <atv:overwrite id="checkbox_frame" transform="matrix(5.3333,0,0,1,0,0)"/>
  <atv:overwrite id="checkbox_stroke" transform="matrix(5.3333,0,0,1,0,0)"/>
 </svg>
 <svg atv:refpx="625" atv:refpy="280" height="30" id="weekdays_2" transform="matrix(0.1875,0,0,1,0,0)" width="160" x="3253.333" xlink:href="SYSTEM.LIBRARY.ATVISE.OBJECTDISPLAYS.Advanced.checkbox" y="265">
  <atv:argument name="label" value=""/>
  <atv:argument name="tabIndex" value="46"/>
  <atv:argument name="valueOn" value="true"/>
  <atv:argument name="outputValueOn" value="true"/>
  <atv:argument name="outputValueOff" value="false"/>
  <atv:overwrite id="checkbox_item" transform="matrix(5.3333,0,0,1,0,0)"/>
  <atv:overwrite id="checkbox_symbol" transform="matrix(5.3333,0,0,1,0,0)"/>
  <atv:overwrite id="blinking_frame" transform="matrix(5.3333,0,0,1,0,0)"/>
  <atv:overwrite id="focus_frame" transform="matrix(5.3333,0,0,1,0,0)"/>
  <atv:overwrite id="checkbox_bg" transform="matrix(5.3333,0,0,1,0,0)"/>
  <atv:overwrite id="checkbox_frame" transform="matrix(5.3333,0,0,1,0,0)"/>
  <atv:overwrite id="checkbox_stroke" transform="matrix(5.3333,0,0,1,0,0)"/>
 </svg>
 <svg atv:refpx="660" atv:refpy="280" height="30" id="weekdays_3" transform="matrix(0.1875,0,0,1,0,0)" width="160" x="3440" xlink:href="SYSTEM.LIBRARY.ATVISE.OBJECTDISPLAYS.Advanced.checkbox" y="265">
  <atv:argument name="label" value=""/>
  <atv:argument name="tabIndex" value="47"/>
  <atv:argument name="valueOn" value="true"/>
  <atv:argument name="outputValueOn" value="true"/>
  <atv:argument name="outputValueOff" value="false"/>
  <atv:overwrite id="checkbox_item" transform="matrix(5.3333,0,0,1,0,0)"/>
  <atv:overwrite id="checkbox_symbol" transform="matrix(5.3333,0,0,1,0,0)"/>
  <atv:overwrite id="blinking_frame" transform="matrix(5.3333,0,0,1,0,0)"/>
  <atv:overwrite id="focus_frame" transform="matrix(5.3333,0,0,1,0,0)"/>
  <atv:overwrite id="checkbox_bg" transform="matrix(5.3333,0,0,1,0,0)"/>
  <atv:overwrite id="checkbox_frame" transform="matrix(5.3333,0,0,1,0,0)"/>
  <atv:overwrite id="checkbox_stroke" transform="matrix(5.3333,0,0,1,0,0)"/>
 </svg>
 <svg atv:refpx="695" atv:refpy="280" height="30" id="weekdays_4" transform="matrix(0.1875,0,0,1,0,0)" width="160" x="3626.666" xlink:href="SYSTEM.LIBRARY.ATVISE.OBJECTDISPLAYS.Advanced.checkbox" y="265">
  <atv:argument name="label" value=""/>
  <atv:argument name="tabIndex" value="48"/>
  <atv:argument name="valueOn" value="true"/>
  <atv:argument name="outputValueOn" value="true"/>
  <atv:argument name="outputValueOff" value="false"/>
  <atv:overwrite id="checkbox_item" transform="matrix(5.3333,0,0,1,0,0)"/>
  <atv:overwrite id="checkbox_symbol" transform="matrix(5.3333,0,0,1,0,0)"/>
  <atv:overwrite id="blinking_frame" transform="matrix(5.3333,0,0,1,0,0)"/>
  <atv:overwrite id="focus_frame" transform="matrix(5.3333,0,0,1,0,0)"/>
  <atv:overwrite id="checkbox_bg" transform="matrix(5.3333,0,0,1,0,0)"/>
  <atv:overwrite id="checkbox_frame" transform="matrix(5.3333,0,0,1,0,0)"/>
  <atv:overwrite id="checkbox_stroke" transform="matrix(5.3333,0,0,1,0,0)"/>
 </svg>
 <svg atv:refpx="730" atv:refpy="280" height="30" id="weekdays_5" transform="matrix(0.1875,0,0,1,0,0)" width="160" x="3813.333" xlink:href="SYSTEM.LIBRARY.ATVISE.OBJECTDISPLAYS.Advanced.checkbox" y="265">
  <atv:argument name="label" value=""/>
  <atv:argument name="tabIndex" value="49"/>
  <atv:argument name="valueOn" value="true"/>
  <atv:argument name="outputValueOn" value="true"/>
  <atv:argument name="outputValueOff" value="false"/>
  <atv:overwrite id="checkbox_item" transform="matrix(5.3333,0,0,1,0,0)"/>
  <atv:overwrite id="checkbox_symbol" transform="matrix(5.3333,0,0,1,0,0)"/>
  <atv:overwrite id="blinking_frame" transform="matrix(5.3333,0,0,1,0,0)"/>
  <atv:overwrite id="focus_frame" transform="matrix(5.3333,0,0,1,0,0)"/>
  <atv:overwrite id="checkbox_bg" transform="matrix(5.3333,0,0,1,0,0)"/>
  <atv:overwrite id="checkbox_frame" transform="matrix(5.3333,0,0,1,0,0)"/>
  <atv:overwrite id="checkbox_stroke" transform="matrix(5.3333,0,0,1,0,0)"/>
 </svg>
 <svg atv:refpx="765" atv:refpy="280" height="30" id="weekdays_6" transform="matrix(0.1875,0,0,1,0,0)" width="160" x="4000" xlink:href="SYSTEM.LIBRARY.ATVISE.OBJECTDISPLAYS.Advanced.checkbox" y="265">
  <atv:argument name="label" value=""/>
  <atv:argument name="tabIndex" value="50"/>
  <atv:argument name="valueOn" value="true"/>
  <atv:argument name="outputValueOn" value="true"/>
  <atv:argument name="outputValueOff" value="false"/>
  <atv:overwrite id="checkbox_item" transform="matrix(5.3333,0,0,1,0,0)"/>
  <atv:overwrite id="checkbox_symbol" transform="matrix(5.3333,0,0,1,0,0)"/>
  <atv:overwrite id="blinking_frame" transform="matrix(5.3333,0,0,1,0,0)"/>
  <atv:overwrite id="focus_frame" transform="matrix(5.3333,0,0,1,0,0)"/>
  <atv:overwrite id="checkbox_bg" transform="matrix(5.3333,0,0,1,0,0)"/>
  <atv:overwrite id="checkbox_frame" transform="matrix(5.3333,0,0,1,0,0)"/>
  <atv:overwrite id="checkbox_stroke" transform="matrix(5.3333,0,0,1,0,0)"/>
 </svg>
 <text atv:refpx="788.902" atv:refpy="303.5" fill="$FONTCOLOR$" font-family="Arial" font-size="10" id="id_15" text-anchor="middle" x="800.5" y="308">T{Sun.}</text>
 <text atv:refpx="578.363" atv:refpy="303.5" fill="$FONTCOLOR$" font-family="Arial" font-size="10" id="id_16" text-anchor="middle" x="590.5" y="308">T{Mon.}</text>
 <text atv:refpx="612.902" atv:refpy="303.5" fill="$FONTCOLOR$" font-family="Arial" font-size="10" id="id_17" text-anchor="middle" x="624.5" y="308">T{Tue.}</text>
 <text atv:refpx="648.363" atv:refpy="303.5" fill="$FONTCOLOR$" font-family="Arial" font-size="10" id="id_18" text-anchor="middle" x="660.5" y="308">T{Wed.}</text>
 <text atv:refpx="683.902" atv:refpy="303.5" fill="$FONTCOLOR$" font-family="Arial" font-size="10" id="id_19" text-anchor="middle" x="695.5" y="308">T{Thu.}</text>
 <text atv:refpx="720.79" atv:refpy="303.5" fill="$FONTCOLOR$" font-family="Arial" font-size="10" id="id_21" text-anchor="middle" x="730.5" y="308">T{Fri.}</text>
 <text atv:refpx="754.211" atv:refpy="303.5" fill="$FONTCOLOR$" font-family="Arial" font-size="10" id="id_22" text-anchor="middle" x="765" y="308">T{Sat.}</text>
</svg>
