<?xml version='1.0' encoding='iso-8859-1'?>
<!-- Uploaded to: SVG Repo, www.svgrepo.com, Generator: SVG Repo Mixer Tools -->
<svg fill="#000000" height="391.36000000000001" id="Layer_1" version="1.1" width="512" xml:space="preserve" xmlns="http://www.w3.org/2000/svg" xmlns:atv="http://webmi.atvise.com/2007/svgext" xmlns:xlink="http://www.w3.org/1999/xlink">
 <defs/>
 <metadata>
  <atv:parameter behavior="optional" defaultvalue="true" desc="rotation (bool)" name="rotation" valuetype="address"/>
  <atv:parameter behavior="optional" defaultvalue="100" name="speed" valuetype="number"/>
  <atv:parameter behavior="optional" defaultvalue="10" name="angle" valuetype="number"/>
  <atv:gridconfig enabled="false" gridstyle="lines" height="20" width="20"/>
  <atv:snapconfig enabled="false" height="10" width="10"/>
 </metadata>
 <path atv:refpx="256.001" atv:refpy="195.679" d="M503.141,234.459L428.736,234.459L428.736,226.488C428.736,210.98 416.119,198.363 400.611,198.363C385.103,198.363 372.486,210.98 372.486,226.488L372.486,234.461L361.262,234.461L361.262,220.197C361.262,206.019 349.727,194.486 335.55,194.486L264.86,194.486L264.86,176.28C309.439,171.822 344.365,134.096 344.365,88.362C344.365,39.638 304.725,0 256.002,0C207.279,0 167.64,39.638 167.64,88.362C167.64,134.096 202.564,171.821 247.144,176.28L247.144,194.486L176.455,194.486C162.277,194.486 150.742,206.019 150.742,220.197L150.742,234.459L139.519,234.459L139.519,226.486C139.519,210.978 126.902,198.361 111.394,198.361C95.886,198.361 83.272,210.978 83.272,226.486L83.272,234.457L8.859,234.457C3.966,234.457 0,238.423 0,243.315L0,342.532C0,347.424 3.965,351.391 8.859,351.391L83.27,351.391L83.27,359.358C83.27,374.866 95.887,387.483 111.396,387.483C126.904,387.483 139.521,374.866 139.521,359.358L139.521,351.392L150.744,351.392L150.744,365.646C150.744,379.823 162.279,391.358 176.457,391.358L335.552,391.358C349.729,391.358 361.264,379.824 361.264,365.646L361.264,351.392L372.488,351.392L372.488,359.358C372.488,374.866 385.105,387.483 400.613,387.483C416.121,387.483 428.738,374.866 428.738,359.358L428.738,351.391L503.143,351.391C508.036,351.391 512.001,347.425 512.001,342.532L512.001,243.317C512,238.426 508.035,234.459 503.141,234.459M83.27,333.675L17.717,333.675L17.717,252.176L83.27,252.176ZM121.804,359.36C121.804,365.099 117.135,369.768 111.396,369.768C105.657,369.768 100.987,365.099 100.987,359.36L100.987,226.488C100.987,220.749 105.655,216.079 111.396,216.079C117.134,216.079 121.804,220.748 121.804,226.488ZM150.744,333.677L139.521,333.677L139.521,252.178L150.744,252.178ZM185.36,88.363C185.36,49.408 217.051,17.718 256.005,17.718C294.959,17.718 326.651,49.408 326.651,88.363C326.651,127.317 294.96,159.007 256.005,159.007C217.051,159.008 185.36,127.317 185.36,88.363M343.547,365.647L343.546,365.647C343.546,370.055 339.96,373.642 335.551,373.642L176.457,373.642C172.049,373.642 168.46,370.056 168.46,365.647L168.46,220.2C168.46,215.791 172.047,212.204 176.457,212.204L335.552,212.204C339.96,212.204 343.547,215.791 343.547,220.2ZM372.487,333.677L361.263,333.677L361.263,252.178L372.487,252.178ZM411.02,359.36C411.02,365.099 406.351,369.768 400.611,369.768C394.873,369.768 390.203,365.099 390.203,359.36L390.203,226.488C390.203,220.749 394.872,216.079 400.611,216.079C406.35,216.079 411.02,220.748 411.02,226.488ZM494.283,333.675L428.737,333.675L428.737,252.176L494.283,252.176Z" id="id_0" stroke-width="1"/>
 <g atv:refpx="255.439" atv:refpy="294.087" id="id_6" transform="matrix(1,0,0,1,0,-60.322)">
  <g atv:refpx="255.439" atv:refpy="354.409" id="id_5">
   <path atv:refpx="255.439" atv:refpy="354.409" d="M307.571,348.144L273.605,314.18C270.144,310.72 264.536,310.72 261.077,314.18C257.618,317.64 257.617,323.248 261.077,326.707L279.92,345.55L209.571,345.55C204.678,345.55 200.712,349.516 200.712,354.409C200.712,359.301 204.677,363.268 209.571,363.268L279.92,363.268L261.077,382.109C257.617,385.569 257.617,391.177 261.077,394.636C262.807,396.366 265.074,397.232 267.342,397.232C269.609,397.232 271.876,396.366 273.607,394.636L307.572,360.671C309.233,359.01 310.166,356.757 310.166,354.407C310.166,352.057 309.232,349.805 307.571,348.144" id="id_1"/>
  </g>
 </g>
 <g atv:refpx="256.056" atv:refpy="97.004" id="id_8" transform="matrix(1,0,0,1,0,-60.322)">
  <g atv:refpx="256.004" atv:refpy="132.851" id="id_7">
   <path atv:refpx="256.004" atv:refpy="132.851" d="M256.004,108.157C251.111,108.157 247.145,112.122 247.145,117.015L247.145,148.685C247.145,153.577 251.11,157.545 256.004,157.545C260.897,157.545 264.863,153.578 264.863,148.685L264.863,117.015C264.862,112.123 260.897,108.157 256.004,108.157" id="id_2"/>
  </g>
 </g>
 <script atv:desc="" atv:name="" type="text/ecmascript"><![CDATA[
// rotation must be a boolean (true->start, false->stop)
//  The rotating Object (oder Objectgroup) must be named "rotor"
//  Rotation-Speed and Angle per step get defined by the parameters
//  "speed" in milliseconds und "angle" in degreees.
var currentRotation = 0;
var currentRotationSpeed  = Number(webMI.query["speed"]);
var currentRotationAngle = Number(webMI.query["angle"]);
var rotateFunction;

webMI.data.subscribe(webMI.query["rotation"] + "", function(e) {	
	var value = e.value;
	if (value){
		rotateFunction = setInterval(function() {
			currentRotation -= currentRotationAngle;
			if (currentRotation >= 0) currentRotation = 360;
			webMI.gfx.setRotation("id_8", webMI.translate(currentRotation, 360, 0, 360, 0));
		}, currentRotationSpeed);
	} else {
		clearInterval(rotateFunction);
	}
});]]></script>
</svg>
