<?xml version="1.0" ?>
<!-- Uploaded to: SVG Repo, www.svgrepo.com, Generator: SVG Repo Mixer Tools -->
<svg width="800px" height="800px" viewBox="0 0 64 64" id="Layer_1" version="1.1" xml:space="preserve" xmlns="http://www.w3.org/2000/svg" xmlns:xlink="http://www.w3.org/1999/xlink">
<style type="text/css">
	.st0{fill:#3E606F;}
	.st1{fill:#A4A5A6;}
	.st2{fill:#9F3A37;}
	.st3{fill:#7D828C;}
</style>
<g id="Layer_29">
<circle class="st0" cx="32" cy="32" r="30"/>
<circle class="st1" cx="32" cy="32" r="26"/>
<path class="st0" d="M51,36v-2h-5c-0.6,0-1,0.4-1,1v9h2v-4h2v-2h-2v-2H51z"/>
<path class="st2" d="M19,36v-2h-5c-0.6,0-1,0.4-1,1v8c0,0.6,0.4,1,1,1h5v-2h-4v-2h2v-2h-2v-2H19z"/>
<rect class="st2" height="10" width="6" x="24" y="43"/>
<rect class="st0" height="10" width="6" x="34" y="43"/>
<path class="st3" d="M34,6.1C33.3,6,32.7,6,32,6s-1.3,0-2,0.1V12h4V6.1z"/>
<path class="st3" d="M11.7,15.7L16,20l4-4l-4.3-4.3C14.3,12.9,12.9,14.3,11.7,15.7z"/>
<path class="st3" d="M48.3,11.7L44,16l4,4l4.3-4.3C51.1,14.3,49.7,12.9,48.3,11.7z"/>
<path class="st3" d="M12,31v-4H6.5c-0.3,1.3-0.4,2.7-0.5,4H12z"/>
<path class="st3" d="M57.5,27H52v4h6C57.9,29.7,57.8,28.3,57.5,27z"/>
<path class="st0" d="M12.6,23.9l0.9-1.8L9,19.9c-0.3,0.6-0.6,1.2-0.9,1.8L12.6,23.9z"/>
<path class="st0" d="M55.9,21.7c-0.3-0.6-0.6-1.2-0.9-1.8l-4.4,2.2l0.9,1.8L55.9,21.7z"/>
<path class="st0" d="M23.1,12.5l1.7-1l-2.2-3.7C22,8,21.4,8.3,20.8,8.6L23.1,12.5z"/>
<path class="st0" d="M41.4,7.8l-2.2,3.7l1.7,1l2.4-4C42.6,8.3,42,8,41.4,7.8z"/>
<rect class="st3" height="2" width="6" x="24" y="46"/>
<rect class="st3" height="2" width="6" x="34" y="46"/>
<circle class="st3" cx="32" cy="32" r="6"/>
<path class="st0" d="M30.3,26.3L23,20l-3,3l6.3,7.3C26.8,28.3,28.3,26.8,30.3,26.3z"/>
<circle class="st0" cx="32" cy="32" r="2"/>
</g>
</svg>