<?xml version='1.0' encoding='UTF-8' standalone='no'?>
<svg height="167" version="1.2" width="605" xmlns="http://www.w3.org/2000/svg" xmlns:atv="http://webmi.atvise.com/2007/svgext" xmlns:xlink="http://www.w3.org/1999/xlink">
 <defs/>
 <desc>Display which allows selecting a recipe with a combobox and setting as active.</desc>
 <title>Recipe Picker (Small)</title>
 <rect atv:refpx="302.5" atv:refpy="127.514" fill="$FILLCOLOR$" height="77" id="id_12" stroke="none" stroke-width="2" width="605" x="0" y="90"/>
 <metadata>
  <atv:parameter behavior="mandatory" defaultvalue="AGENT.OBJECTS.recipes" desc="config node" name="configNode" valuetype="address"/>
  <atv:parameter behavior="optional" defaultvalue="" desc="template name" name="templateName" valuetype="string"/>
  <atv:parameter behavior="optional" defaultvalue="SYSTEM.GLOBALS.atvFillColor" desc="fill color" group="Appearance" name="globalFillColor" substitute="$FILLCOLOR$" valuetype="global"/>
  <atv:gridconfig enabled="true" gridstyle="lines" height="10" width="10"/>
  <atv:snapconfig enabled="true" height="5" width="5"/>
 </metadata>
 <text atv:refpx="32.616" atv:refpy="64" fill="#575757" font-family="Arial" font-size="20" id="id_3" x="5" y="68.5">T{Recipe}:</text>
 <svg atv:refpx="310" atv:refpy="67.497" height="30" id="cboRecipes" transform="matrix(1.1875,0,0,1.1667,0,0)" width="160" x="181.053" xlink:href="SYSTEM.LIBRARY.ATVISE.OBJECTDISPLAYS.Advanced.combobox" y="38.57">
  <atv:overwrite height="31.001" id="focus_frame" transform="matrix(0.8421,0,0,0.8571,0,0)" width="186"/>
  <atv:overwrite id="button_stroke" transform="matrix(0.8421,0,0,0.8571,0,0)" x="165" y="7.501"/>
  <atv:overwrite id="id_7" transform="matrix(0.8421,0,0,0.8571,0,0)" x="165" y="8.501"/>
  <atv:overwrite id="button_bg" transform="matrix(0.8421,0,0,0.8571,0,0)" x="165" y="7.501"/>
  <atv:overwrite id="combobox_label" transform="matrix(0.8421,0,0,0.8571,0,0)" x="155.5" y="22.001"/>
  <atv:overwrite height="27.001" id="blinking_frame" transform="matrix(0.8421,0,0,0.8571,0,0)" width="158"/>
  <atv:overwrite height="27.001" id="combobox_bg" transform="matrix(0.8421,0,0,0.8571,0,0)" width="158"/>
  <atv:overwrite height="33.001" id="id_1" transform="matrix(0.8421,0,0,0.8571,0,0)" width="188"/>
  <atv:overwrite height="35.001" id="id_0" transform="matrix(0.8421,0,0,0.8571,0,0)" width="190"/>
 </svg>
 <svg atv:refpx="509.998" atv:refpy="107.496" height="30" id="btn_setActiveRecipe" transform="matrix(2.375,0,0,1.1667,0,0)" width="80" x="174.737" xlink:href="SYSTEM.LIBRARY.ATVISE.OBJECTDISPLAYS.Advanced.button" y="38.57">
  <atv:argument name="label" value="T{Set as active recipe}"/>
  <atv:overwrite height="33.001" id="id_6" transform="matrix(0.4211,0,0,0.8571,0,0)" width="188"/>
  <atv:overwrite id="button_label_2" transform="matrix(0.4211,0,0,0.8571,0,0)" x="95" y="29"/>
  <atv:overwrite id="button_label_1" transform="matrix(0.4211,0,0,0.8571,0,0)" x="95" y="14"/>
  <atv:overwrite id="button_label" transform="matrix(0.4211,0,0,0.8571,0,0)" x="95" y="22"/>
  <atv:overwrite id="button_symbol_bottom" transform="matrix(0.2526,0,0,0.5143,0,0)" x="148.167" y="30.46"/>
  <atv:overwrite id="button_symbol_top" transform="matrix(0.2526,0,0,0.5143,0,0)" x="148.167" y="9.126"/>
  <atv:overwrite id="button_symbol" transform="matrix(0.4211,0,0,0.8571,0,0)" x="85" y="7.5"/>
  <atv:overwrite height="31.001" id="button_stroke" transform="matrix(0.4211,0,0,0.8571,0,0)" width="186"/>
  <atv:overwrite height="33.001" id="button_bg" transform="matrix(0.4211,0,0,0.8571,0,0)" width="188"/>
  <atv:overwrite height="35.001" id="outer_frame" transform="matrix(0.4211,0,0,0.8571,0,0)" width="190"/>
 </svg>
 <svg atv:refpx="310" atv:refpy="17.5" height="30" id="cboTemplates" transform="matrix(1.1875,0,0,1.1667,0,0)" width="160" x="181.053" xlink:href="SYSTEM.LIBRARY.ATVISE.OBJECTDISPLAYS.Advanced.combobox" y="0">
  <atv:overwrite height="31.001" id="focus_frame" transform="matrix(0.8421,0,0,0.8571,0,0)" width="186"/>
  <atv:overwrite id="button_stroke" transform="matrix(0.8421,0,0,0.8571,0,0)" x="165" y="7.501"/>
  <atv:overwrite id="id_7" transform="matrix(0.8421,0,0,0.8571,0,0)" x="165" y="8.501"/>
  <atv:overwrite id="button_bg" transform="matrix(0.8421,0,0,0.8571,0,0)" x="165" y="7.501"/>
  <atv:overwrite id="combobox_label" transform="matrix(0.8421,0,0,0.8571,0,0)" x="155.5" y="22.001"/>
  <atv:overwrite height="27.001" id="blinking_frame" transform="matrix(0.8421,0,0,0.8571,0,0)" width="158"/>
  <atv:overwrite height="27.001" id="combobox_bg" transform="matrix(0.8421,0,0,0.8571,0,0)" width="158"/>
  <atv:overwrite height="33.001" id="id_1" transform="matrix(0.8421,0,0,0.8571,0,0)" width="188"/>
  <atv:overwrite height="35.001" id="id_0" transform="matrix(0.8421,0,0,0.8571,0,0)" width="190"/>
 </svg>
 <text atv:refpx="62.97" atv:refpy="109" fill="#575757" font-family="Arial" font-size="20" id="id_4" x="5" y="113.5">T{Last active recipe}:</text>
 <text atv:refpx="92.5" atv:refpy="16" fill="#575757" font-family="Arial" font-size="20" id="id_5" x="5" y="23.5">T{Recipe template}:</text>
 <text atv:refpx="44.564" atv:refpy="154" fill="#575757" font-family="Arial" font-size="20" id="id_2" x="5" y="158.5">T{Description}:</text>
 <text atv:refpx="218.896" atv:refpy="154" fill="#575757" font-family="Arial" font-size="20" id="txtActiveRecipeDescription" x="215" y="158.5">...</text>
 <text atv:refpx="218.896" atv:refpy="109" fill="#575757" font-family="Arial" font-size="20" id="txtActiveRecipeName" x="215" y="113.5">...</text>
 <script atv:desc="" atv:href="SYSTEM.LIBRARY.ATVISE.DISPLAYSCRIPTS.recipemanager.update_structure" atv:name="" atv:type="text/ecmascript"/>
 <script atv:desc="" atv:href="SYSTEM.LIBRARY.ATVISE.DISPLAYSCRIPTS.recipemanager.recipe_picker_combobox" atv:name="" atv:type="text/ecmascript"/>
 <script atv:desc="" atv:name="" type="text/ecmascript"/>
</svg>
