<?xml version='1.0' encoding='UTF-8' standalone='no'?>
<svg enable-background="new 0 0 16 16" height="60" id="Ebene_1" version="1.1" width="60" x="0px" xml:space="preserve" y="0px" xmlns="http://www.w3.org/2000/svg" xmlns:atv="http://webmi.atvise.com/2007/svgext" xmlns:xlink="http://www.w3.org/1999/xlink">
 <defs>
  <linearGradient gradientUnits="objectBoundingBox" id="SVGID_1_" x1="-0.290145" x2="0.792871" y1="0.136603" y2="0.639639">
   <stop offset="0" stop-color="#9d9d9c"/>
   <stop offset="1" stop-color="#c3c3b"/>
  </linearGradient>
  <linearGradient gradientUnits="objectBoundingBox" id="SVGID_2_" x1="0.0373956" x2="0.933879" y1="0.0373166" y2="1.06773">
   <stop offset="0" stop-color="#9d9d9c"/>
   <stop offset="1" stop-color="#c3c3b"/>
  </linearGradient>
 </defs>
 <metadata>
  <atv:parameter behavior="optional" defaultvalue="#000000" desc="symbol color" name="symbolColor" substitute="$SYMBOLCOLOR$" valuetype="color"/>
  <atv:parameter behavior="optional" defaultvalue="#ffffff" desc="symbol color 2" name="symbolColor2" substitute="$SYMBOLCOLOR2$" valuetype="color"/>
  <atv:gridconfig enabled="false" gridstyle="lines" height="20" width="20"/>
  <atv:snapconfig enabled="false" height="10" width="10"/>
 </metadata>
 <g atv:refpx="30" atv:refpy="30" id="id_6" transform="matrix(1,0,0,1,-0.2133,3.079)">
  <path atv:refpx="102.765" atv:refpy="34.745" d="M48.681,22.951L48.642,46.532L48.825,46.532L59.565,23.354C59.666,23.132 59.502,22.957 59.203,22.957" fill="$SYMBOLCOLOR$" id="id_0" stroke-width="1.117"/>
  <path atv:refpx="23.727" atv:refpy="33.956" d="M46.013,12.52L21.584,12.52L21.584,7.598C21.584,7.283 21.327,7.03 21.008,7.03L4.287,7.03C3.972,7.03 3.716,7.283 3.716,7.598L3.716,12.52L1.429,12.52C1.114,12.52 0.861,12.776 0.861,13.091L0.861,46.239C0.861,46.558 1.114,46.812 1.429,46.812L46.013,46.812C46.336,46.812 46.589,46.558 46.589,46.239L46.589,13.091C46.589,12.776 46.336,12.52 46.013,12.52" fill="$SYMBOLCOLOR$" id="id_1" stroke-width="1.117"/>
  <rect atv:refpx="24.45" atv:refpy="41.421" fill="none" height="14.645" id="id_2" stroke="$SYMBOLCOLOR2$" stroke-width="1" width="18.804" x="15.048" y="17.051"/>
  <rect atv:refpx="24.45" atv:refpy="74.594" fill="$SYMBOLCOLOR2$" height="8.23" id="id_3" stroke="none" stroke-width="1" width="30.497" x="9.2" y="35.239"/>
  <rect atv:refpx="32.134" atv:refpy="75.376" fill="$SYMBOLCOLOR$" height="0.822" id="id_4" stroke="none" stroke-width="1" width="12.079" x="26.093" y="37.483"/>
  <circle atv:refpx="35.18" atv:refpy="79.554" cx="35.18" cy="40.261" fill="$SYMBOLCOLOR$" id="id_5" r="0.969" stroke="none" stroke-width="1"/>
 </g>
 <script atv:desc="" atv:name="" type="text/ecmascript"/>
</svg>
