<?xml version='1.0' encoding='UTF-8' standalone='no'?>
<svg height="40" version="1.2" width="40" xmlns="http://www.w3.org/2000/svg" xmlns:atv="http://webmi.atvise.com/2007/svgext" xmlns:xlink="http://www.w3.org/1999/xlink">
 <defs/>
 <metadata>
  <atv:parameter behavior="optional" defaultvalue="#000000" desc="symbol color" name="symbolColor" substitute="$SYMBOLCOLOR$" valuetype="color"/>
  <atv:parameter behavior="optional" defaultvalue="#ffffff" desc="symbol color 2" name="symbolColor2" substitute="$SYMBOLCOLOR2$" valuetype="color"/>
 </metadata>
 <path atv:refpx="0.5" atv:refpy="1.5" d="M0,0" fill="#000000" id="id_10" stroke="none" stroke-width="2"/>
 <path atv:refpx="21.848" atv:refpy="18.009" d="M13.749,17.127C13.988,16.673 17.581,11.027 23.591,13.898C29.49,17.958 25.642,23.872 25.642,23.872C17.664,19.363 13.749,17.127 13.749,17.127" fill="$SYMBOLCOLOR$" id="id_14" stroke="none" stroke-width="4"/>
 <g atv:refpx="20.006" atv:refpy="27.009" id="id_3" transform="matrix(0.1626,0,0,0.1429,-0.8186,1.7025)">
  <path atv:refpx="128" atv:refpy="128" d="M128,56C48,56 16,128 16,128C16,128 48,200 128,200C208,200 240,128 240,128C240,128 208,56 128,56" fill="none" id="id_0" stroke="$SYMBOLCOLOR$" stroke-width="24"/>
 </g>
 <line atv:refpx="21.039" atv:refpy="19.946" id="id_2" stroke="$SYMBOLCOLOR$" stroke-linecap="round" stroke-width="4" x1="2" x2="37.883" y1="6" y2="34.386"/>
 <script atv:desc="" atv:name="" type="text/ecmascript"/>
</svg>
