<?xml version='1.0' encoding='UTF-8' standalone='no'?>
<svg height="890" version="1.2" width="960" xmlns="http://www.w3.org/2000/svg" xmlns:atv="http://webmi.atvise.com/2007/svgext" xmlns:xlink="http://www.w3.org/1999/xlink">
 <defs/>
 <metadata>
  <atv:gridconfig enabled="false" gridstyle="lines" height="20" width="20"/>
  <atv:snapconfig enabled="true" height="1" width="1"/>
 </metadata>
 <g atv:insensitive="true" atv:refpx="0" atv:refpy="0" id="id_0">
  <rect atv:refpx="480" atv:refpy="445" fill="#ffffff" fill-opacity="0" height="890.00" id="id_3" width="960.00" x="0" y="0"/>
 </g>
 <script atv:desc="" atv:name="" type="text/ecmascript"/>
 <rect atv:refpx="217" atv:refpy="708.5" fill="#000088" fill-opacity="0" height="365" id="id_8" stroke="#26286f" stroke-width="2" width="428" x="3" y="524"/>
 <line atv:refpx="173.007" atv:refpy="654.5" id="id_45" stroke="#000000" stroke-linecap="round" stroke-linejoin="round" stroke-width="2.015" x1="225.007" x2="121.007" y1="620" y2="620"/>
 <rect atv:refpx="217" atv:refpy="150.5" fill="#000088" fill-opacity="0" height="299" id="id_7" stroke="#26286f" stroke-width="2" width="428" x="3" y="1"/>
 <line atv:refpx="211.5" atv:refpy="129.5" id="id_44" stroke="#000000" stroke-linecap="round" stroke-linejoin="round" stroke-width="2.015" x1="285" x2="138" y1="132" y2="132"/>
 <rect atv:refpx="689" atv:refpy="445" fill="#000088" fill-opacity="0" height="886" id="id_24" stroke="#26286f" stroke-width="2" width="514" x="432" y="2"/>
 <rect atv:refpx="227.439" atv:refpy="411.5" fill="#000088" fill-opacity="0" height="223" id="id_9" stroke="#26286f" stroke-width="2" width="428" x="3" y="300"/>
 <svg atv:refpx="247.579" atv:refpy="442.983" height="63.11" id="id_2" transform="matrix(1,0,0,0.9983,0,0)" width="133" x="150.5" xlink:href="ObjectTypes.PROJECT.ElementoLinea.Principal" y="377.908">
  <atv:argument name="base" value="AGENT.OBJECTS.SCADA.Puerto_Morelos.Circuitos.Circuito_CV.Carcamo_Central_Vallarta"/>
 </svg>
 <text atv:refpx="183.421" atv:refpy="334.221" fill="#000000" font-family="Arial" font-size="20" id="id_13" transform="matrix(1.3193,0,0,1.3913,-39.1685,-120.4368)" x="127.17" y="331.286">Central Vallarta</text>
 <text atv:refpx="188.409" atv:refpy="48.797" fill="#000000" font-family="Arial" font-size="20" id="id_10" transform="matrix(1.3193,0,0,1.3913,-42.4669,-8.7498)" x="137.5" y="45.861">Leona Vicario</text>
 <line atv:refpx="368" atv:refpy="722.5" id="id_47" stroke="#000000" stroke-linecap="round" stroke-linejoin="round" stroke-width="2.015" x1="368" x2="368" y1="686" y2="759"/>
 <svg atv:refpx="352.48" atv:refpy="773.318" height="63.11" id="id_5" transform="matrix(1,0,0,0.9983,0,0)" width="133" x="297" xlink:href="ObjectTypes.PROJECT.ElementoLinea.Principal" y="763.788">
  <atv:argument name="base" value="AGENT.OBJECTS.SCADA.Puerto_Morelos.Circuitos.Circuito_PM.Carcamo_Villas_Morelos_Tanque_01"/>
 </svg>
 <svg atv:refpx="362.482" atv:refpy="621.444" height="63.11" id="id_6" transform="matrix(1,0,0,0.9983,0,0)" width="133" x="296" xlink:href="ObjectTypes.PROJECT.ElementoLinea.Principal" y="587.605">
  <atv:argument name="base" value="AGENT.OBJECTS.SCADA.Puerto_Morelos.Circuitos.Circuito_PM.Carcamo_Villas_Morelos_Tanque_02"/>
 </svg>
 <text atv:refpx="176.224" atv:refpy="560.718" fill="#000000" font-family="Arial" font-size="20" id="id_14" transform="matrix(1.3193,0,0,1.3913,-36.8705,-209.0647)" x="119.973" y="557.782">Puerto Morelos</text>
 <svg atv:refpx="352.5" atv:refpy="836.533" height="23" id="id_4" transform="matrix(1.33,0,0,1.3478,0,0)" width="100" x="223.308" xlink:href="ObjectTypes.PROJECT.Caudalimetro.line_mini" y="613.025">
  <atv:argument name="base" value="AGENT.OBJECTS.SCADA.Puerto_Morelos.Circuitos.Circuito_PM.Carcamo_Villas_Morelos_Tanque_01.Equipos.Caudalimetro.L_14"/>
 </svg>
 <svg atv:refpx="352.5" atv:refpy="868.381" height="23" id="id_15" transform="matrix(1.33,0,0,1.3478,0,0)" width="100" x="223.308" xlink:href="ObjectTypes.PROJECT.Caudalimetro.line_mini" y="635.654">
  <atv:argument name="base" value="AGENT.OBJECTS.SCADA.Puerto_Morelos.Circuitos.Circuito_PM.Carcamo_Villas_Morelos_Tanque_01.Equipos.Caudalimetro.L_10"/>
 </svg>
 <svg atv:refpx="352.5" atv:refpy="669.098" height="23" id="id_16" transform="matrix(1.33,0,0,1.3478,0,0)" width="100" x="222.556" xlink:href="ObjectTypes.PROJECT.Caudalimetro.line_mini" y="482.444">
  <atv:argument name="base" value="AGENT.OBJECTS.SCADA.Puerto_Morelos.Circuitos.Circuito_PM.Carcamo_Villas_Morelos_Tanque_02.Equipos.Caudalimetro.L1"/>
 </svg>
 <svg atv:refpx="217" atv:refpy="418.755" height="23" id="id_22" transform="matrix(1.33,0,0,1.3478,0,0)" width="100" x="113.158" xlink:href="ObjectTypes.PROJECT.Caudalimetro.line_mini" y="326.061">
  <atv:argument name="base" value="AGENT.OBJECTS.SCADA.Puerto_Morelos.Circuitos.Circuito_CV.Carcamo_Central_Vallarta.Equipos.Caudalimetro.L1"/>
 </svg>
 <svg atv:refpx="217" atv:refpy="441.283" height="23" id="id_23" transform="matrix(1.33,0,0,1.3478,0,0)" width="100" x="113.158" xlink:href="ObjectTypes.PROJECT.Caudalimetro.line_mini" y="348.71">
  <atv:argument name="base" value="AGENT.OBJECTS.SCADA.Puerto_Morelos.Circuitos.Circuito_CV.Carcamo_Central_Vallarta.Equipos.Caudalimetro.LPOZO"/>
 </svg>
 <svg atv:refpx="679.362" atv:refpy="140.938" height="63.11" id="id_1" transform="matrix(1,0,0,0.9983,0,0)" width="133" x="612.886" xlink:href="ObjectTypes.PROJECT.ElementoLineaAR.Principal" y="103.26">
  <atv:argument name="base" value="AGENT.OBJECTS.SCADA.Puerto_Morelos.Cuencas.Cuenca_PTAR_Casco_Antiguo.Carcamo_Final_PTAR_Casco_Antiguo"/>
 </svg>
 <svg atv:refpx="691.489" atv:refpy="422.435" height="63.11" id="id_18" transform="matrix(1,0,0,0.9983,0,0)" width="133" x="625" xlink:href="ObjectTypes.PROJECT.ElementoLineaAR.Principal" y="377.908">
  <atv:argument name="base" value="AGENT.OBJECTS.SCADA.Puerto_Morelos.Cuencas.Cuenca_PTAR_VM1.Carcamo_Final_PTAR_VM1"/>
 </svg>
 <svg atv:refpx="697.318" atv:refpy="618.079" height="63.11" id="id_19" transform="matrix(1,0,0,0.9983,0,0)" width="133" x="630.842" xlink:href="ObjectTypes.PROJECT.ElementoLineaAR.Principal" y="587.605">
  <atv:argument name="base" value="AGENT.OBJECTS.SCADA.Puerto_Morelos.Cuencas.Cuenca_PTAR_VM2.Carcamo_Final_PTAR_VM2"/>
 </svg>
 <svg atv:refpx="697.332" atv:refpy="787.955" height="63.11" id="id_20" transform="matrix(1,0,0,0.9983,0,0)" width="133" x="630.842" xlink:href="ObjectTypes.PROJECT.ElementoLineaAR.Principal" y="763.788">
  <atv:argument name="base" value="AGENT.OBJECTS.SCADA.Puerto_Morelos.Cuencas.Cuenca_PTAR_VM4.Carcamo_Final_PTAR_VM4"/>
 </svg>
 <text atv:refpx="630.409" atv:refpy="703.384" fill="#000018" font-family="Arial" font-size="38" font-weight="bold" id="id_17" transform="matrix(0.6405,0,0,0.5971,203.8365,275.2154)" x="571.5" y="723.586">PTAR Villas Morelos 4</text>
 <text atv:refpx="50.767" atv:refpy="440.219" fill="#000018" font-family="Arial" font-size="38" font-weight="bold" id="id_30" transform="matrix(0.6405,0,0,0.5971,203.8365,217.7358)" x="572" y="580.922">PTAR Villas Morelos 2</text>
 <text atv:refpx="633.858" atv:refpy="48.801" fill="#000018" font-family="Arial" font-size="38" font-weight="bold" id="id_34" transform="matrix(0.6405,0,0,0.5971,206.1819,11.4826)" x="578.024" y="69">PTAR Casco Antiguo</text>
 <text atv:refpx="48.48" atv:refpy="214.723" fill="#000018" font-family="Arial" font-size="38" font-weight="bold" id="id_38" transform="matrix(0.6405,0,0,0.5971,203.5338,126.4806)" x="573.158" y="354.425">PTAR Villas Morelos 1</text>
 <svg atv:refpx="72.5" atv:refpy="118.555" height="63.11" id="id_31" width="133" x="6" xlink:href="ObjectTypes.PROJECT.ElementoPozo.Principal" y="87">
  <atv:argument name="base" value="AGENT.OBJECTS.SCADA.Puerto_Morelos.Circuitos.Circuito_LV.Pozo_Nuevo_LV"/>
 </svg>
 <svg atv:refpx="362.66" atv:refpy="139.586" height="63.11" id="id_32" width="133" x="295.16" xlink:href="ObjectTypes.PROJECT.ElementoLinea.Principal" y="103.031">
  <atv:argument name="base" value="AGENT.OBJECTS.SCADA.Puerto_Morelos.Circuitos.Circuito_LV.Carcamo_Leona_Vicario"/>
 </svg>
 <svg atv:refpx="72.5" atv:refpy="218.555" height="63.11" id="id_33" width="133" x="6" xlink:href="ObjectTypes.PROJECT.ElementoPozo.Principal" y="187">
  <atv:argument name="base" value="AGENT.OBJECTS.SCADA.Puerto_Morelos.Circuitos.Circuito_LV.Pozo_Viejo_LV"/>
 </svg>
 <svg atv:refpx="72.5" atv:refpy="620.555" height="63.11" id="id_35" width="133" x="6" xlink:href="ObjectTypes.PROJECT.ElementoPozo.Principal" y="587">
  <atv:argument name="base" value="AGENT.OBJECTS.SCADA.Puerto_Morelos.Circuitos.Circuito_PM.Pozo_001_PM"/>
 </svg>
 <svg atv:refpx="72.5" atv:refpy="631.888" height="63.11" id="id_36" width="133" x="6" xlink:href="ObjectTypes.PROJECT.ElementoPozo.Principal" y="663.333">
  <atv:argument name="base" value="AGENT.OBJECTS.SCADA.Puerto_Morelos.Circuitos.Circuito_PM.Pozo_002_PM"/>
 </svg>
 <svg atv:refpx="72.5" atv:refpy="777.222" height="63.11" id="id_37" width="133" x="6" xlink:href="ObjectTypes.PROJECT.ElementoPozo.Principal" y="739.667">
  <atv:argument name="base" value="AGENT.OBJECTS.SCADA.Puerto_Morelos.Circuitos.Circuito_PM.Pozo_003_PM"/>
 </svg>
 <svg atv:refpx="72.5" atv:refpy="790.555" height="63.11" id="id_39" width="133" x="6" xlink:href="ObjectTypes.PROJECT.ElementoPozo.Principal" y="816">
  <atv:argument name="base" value="AGENT.OBJECTS.SCADA.Puerto_Morelos.Circuitos.Circuito_PM.Pozo_004_PM"/>
 </svg>
 <svg atv:refpx="362.661" atv:refpy="180.5" height="23" id="id_40" transform="matrix(1.33,0,0,1.3478,0,0)" width="100" x="221.925" xlink:href="ObjectTypes.PROJECT.Caudalimetro.line_mini" y="122.419">
  <atv:argument name="base" value="AGENT.OBJECTS.SCADA.Puerto_Morelos.Circuitos.Circuito_LV.Carcamo_Leona_Vicario.Equipos.Caudalimetro.L1"/>
 </svg>
 <polygon atv:refpx="289.593" atv:refpy="132.001" fill="#000018" id="id_118" points="283,122 283,142 296.188,132 296.188,132" stroke="#000000" stroke-linecap="round" stroke-linejoin="round" stroke-opacity="0" stroke-width="2.015"/>
 <line atv:refpx="192" atv:refpy="235.5" id="id_42" stroke="#000000" stroke-linecap="round" stroke-linejoin="round" stroke-width="2.015" x1="248" x2="136" y1="235" y2="235"/>
 <line atv:refpx="247.5" atv:refpy="184" id="id_43" stroke="#000000" stroke-linecap="round" stroke-linejoin="round" stroke-width="2.015" x1="247" x2="247" y1="132" y2="236"/>
 <polygon atv:refpx="289.593" atv:refpy="792.001" fill="#000018" id="id_46" points="283,782 283,802 296.188,792 296.188,792" stroke="#000000" stroke-linecap="round" stroke-linejoin="round" stroke-opacity="0" stroke-width="2.015"/>
 <line atv:refpx="237.14" atv:refpy="706.5" id="id_48" stroke="#000000" stroke-linecap="round" stroke-linejoin="round" stroke-width="2.015" x1="225" x2="225" y1="620" y2="793"/>
 <polygon atv:refpx="368.593" atv:refpy="689.001" fill="#000018" id="id_52" points="358.592,695.589 378.592,695.589 368.592,682.402 368.592,682.402" stroke="#000000" stroke-linecap="round" stroke-linejoin="round" stroke-opacity="0" stroke-width="2.015"/>
 <polygon atv:refpx="359.593" atv:refpy="750.001" fill="#000018" id="id_53" points="378.589,750.408 358.589,750.408 368.589,763.595 368.589,763.595" stroke="#000000" stroke-linecap="round" stroke-linejoin="round" stroke-opacity="0" stroke-width="2.015"/>
 <line atv:refpx="258.495" atv:refpy="792" id="id_54" stroke="#000000" stroke-linecap="round" stroke-linejoin="round" stroke-width="2.015" x1="292" x2="225" y1="792" y2="792"/>
 <polygon atv:refpx="72.001" atv:refpy="656.598" fill="#000018" id="id_55" points="62,663.187 82,663.187 72,650 72,650" stroke="#000000" stroke-linecap="round" stroke-linejoin="round" stroke-opacity="0" stroke-width="2.015"/>
 <polygon atv:refpx="72.001" atv:refpy="732.598" fill="#000018" id="id_56" points="62,739.187 82,739.187 72,726 72,726" stroke="#000000" stroke-linecap="round" stroke-linejoin="round" stroke-opacity="0" stroke-width="2.015"/>
 <polygon atv:refpx="72.001" atv:refpy="818.598" fill="#000018" id="id_57" points="62,816.187 82,816.187 72,803 72,803" stroke="#000000" stroke-linecap="round" stroke-linejoin="round" stroke-opacity="0" stroke-width="2.015"/>
 <svg atv:refpx="679.5" atv:refpy="194" height="23" id="id_12" transform="matrix(1.33,0,0,1.3043,0,0)" width="100" x="460.902" xlink:href="ObjectTypes.PROJECT.Caudalimetro.line_mini_AR" y="127.266">
  <atv:argument name="base" value="AGENT.OBJECTS.SCADA.Puerto_Morelos.Cuencas.Cuenca_PTAR_Casco_Antiguo.Carcamo_Final_PTAR_Casco_Antiguo.Equipos.Caudalimetro.L1"/>
 </svg>
 <svg atv:refpx="362.66" atv:refpy="87.288" height="23" id="id_11" transform="matrix(1.33,0,0,1.3294,0,0)" width="100" x="221.925" xlink:href="ObjectTypes.PROJECT.Caudalimetro.line_mini" y="54.159">
  <atv:argument name="base" value="AGENT.OBJECTS.SCADA.Puerto_Morelos.Circuitos.Circuito_LV.Carcamo_Leona_Vicario.Equipos.Caudalimetro.E1"/>
 </svg>
 <svg atv:refpx="691.5" atv:refpy="455.964" height="23" id="id_21" transform="matrix(1.3097,0,0,1.3097,0,0)" width="100" x="477.977" xlink:href="ObjectTypes.PROJECT.Caudalimetro.line_mini_AR" y="335.876">
  <atv:argument name="base" value="AGENT.OBJECTS.SCADA.Puerto_Morelos.Cuencas.Cuenca_PTAR_VM1.Carcamo_Final_PTAR_VM1.Equipos.Caudalimetros.L1"/>
 </svg>
 <svg atv:refpx="691.5" atv:refpy="485.966" height="23" id="id_25" transform="matrix(1.3177,0,0,1.3177,0,0)" width="100" x="474.78" xlink:href="ObjectTypes.PROJECT.Caudalimetro.line_mini_AR" y="356.542">
  <atv:argument name="base" value="AGENT.OBJECTS.SCADA.Puerto_Morelos.Cuencas.Cuenca_PTAR_VM1.Carcamo_Final_PTAR_VM1.Equipos.Caudalimetros.L2"/>
 </svg>
</svg>
