<?xml version='1.0' encoding='UTF-8' standalone='no'?>
<svg height="101.26000000000001" version="1.2" width="103.76000000000001" xmlns="http://www.w3.org/2000/svg" xmlns:atv="http://webmi.atvise.com/2007/svgext" xmlns:xlink="http://www.w3.org/1999/xlink">
 <defs/>
 <metadata>
  <atv:gridconfig enabled="false" gridstyle="lines" height="20" width="20"/>
  <atv:snapconfig enabled="false" height="10" width="10"/>
 </metadata>
 <script atv:desc="" atv:name="" type="text/ecmascript"><![CDATA[
webMI.data.subscribe(webMI.query["base"] + ".ManAuto", function(e) {
var id = "id_21";
var value = e.value;
if (value == false)
	webMI.gfx.setText(id, "T{Manual}");
if (value == true)
	webMI.gfx.setText(id, "T{Automatico}");

});]]></script>
 <rect atv:refpx="54.071" atv:refpy="53.163" fill="#b4b9be" height="112.613" id="id_3" stroke="#000000" stroke-width="2" width="106.142" x="1" y="-3.143"/>
 <text atv:refpx="53.771" atv:refpy="28.432" fill="#ffffff" font-family="Arial" font-size="12" id="id_4" x="8.733" y="32.932">Modo de Control</text>
 <text atv:refpx="53.789" atv:refpy="7.239" fill="#ffffff" font-family="Arial" font-size="12" id="id_6" x="7.233" y="11.739">Tipo de Arranque</text>
 <text atv:refpx="53.534" atv:refpy="48.569" fill="#ffffff" font-family="Arial" font-size="12" id="id_21" x="30.233" y="53.069">ManAuto</text>
 <svg atv:refpx="44.38" atv:refpy="53.626" height="30" id="id_22" transform="matrix(1,0,0,0.8081,0,0)" width="80" x="13.38" xlink:href="SYSTEM.LIBRARY.ATVISE.OBJECTDISPLAYS.Advanced.button_switch" y="73.21">
  <atv:argument name="base" prefix="base" value=".ManAuto"/>
  <atv:argument name="labelOn" value="T{Automatico}"/>
  <atv:argument name="labelOff" value="T{Manual}"/>
  <atv:overwrite height="22.243" id="id_6" transform="matrix(1,0,0,1.2375,0,0)"/>
  <atv:overwrite id="button_label" transform="matrix(1,0,0,1.2375,0,0)" y="16.622"/>
  <atv:overwrite id="button_symbol_off" transform="matrix(1,0,0,1.2375,0,0)" y="2.122"/>
  <atv:overwrite id="button_symbol_on" transform="matrix(1,0,0,1.2375,0,0)" y="2.122"/>
  <atv:overwrite height="20.243" id="blinking_frame" transform="matrix(1,0,0,1.2375,0,0)"/>
  <atv:overwrite height="20.243" id="button_stroke" transform="matrix(1,0,0,1.2375,0,0)"/>
  <atv:overwrite height="22.243" id="button_bg" transform="matrix(1,0,0,1.2375,0,0)"/>
  <atv:overwrite height="24.243" id="outer_frame" transform="matrix(1,0,0,1.2375,0,0)"/>
 </svg>
 <svg atv:refpx="46.38" atv:refpy="82.927" height="30" id="id_23" transform="matrix(1,0,0,0.7404,0,0)" width="80" x="13.38" xlink:href="SYSTEM.LIBRARY.ATVISE.OBJECTDISPLAYS.Advanced.button_switch" y="115.215">
  <atv:argument name="base" prefix="base" value=".LocalRemoto"/>
  <atv:argument name="labelOn" value="T{Remoto}"/>
  <atv:argument name="labelOff" value="T{Local}"/>
  <atv:overwrite height="20.212" id="id_6" transform="matrix(1,0,0,1.3506,0,0)"/>
  <atv:overwrite id="button_label" transform="matrix(1,0,0,1.3506,0,0)" y="15.606"/>
  <atv:overwrite id="button_symbol_off" transform="matrix(1,0,0,1.3506,0,0)" y="1.106"/>
  <atv:overwrite id="button_symbol_on" transform="matrix(1,0,0,1.3506,0,0)" y="1.106"/>
  <atv:overwrite height="18.212" id="blinking_frame" transform="matrix(1,0,0,1.3506,0,0)"/>
  <atv:overwrite height="18.212" id="button_stroke" transform="matrix(1,0,0,1.3506,0,0)"/>
  <atv:overwrite height="20.212" id="button_bg" transform="matrix(1,0,0,1.3506,0,0)"/>
  <atv:overwrite height="22.212" id="outer_frame" transform="matrix(1,0,0,1.3506,0,0)"/>
 </svg>
</svg>
