<svg width="24" height="24" stroke-width="1.5" stroke="#000000" class="icon icon-tabler icon-tabler-logout-2" xmlns:xlink="http://www.w3.org/1999/xlink" fill="none" stroke-linecap="round" xmlns:atv="http://webmi.atvise.com/2007/svgext" stroke-linejoin="round" xmlns="http://www.w3.org/2000/svg">
 <defs/>
 <metadata>
  <atv:gridconfig enabled="true" gridstyle="lines" height="20" width="20"/>
  <atv:snapconfig enabled="true" height="1" width="1"/>
 </metadata>
 <path atv:refpx="12" atv:refpy="12" d="M0,0L24,0L24,24L0,24Z" fill="none" id="id_0" stroke="none"/>
 <path atv:refpx="15.5" atv:refpy="12" d="M10,8L10,6C10,4.895 10.895,4 12,4L19,4C20.104,4 21,4.895 21,6L21,18C21,19.104 20.104,20 19,20L12,20C10.895,20 10,19.104 10,18L10,16" fill="#000000" fill-opacity="0" id="id_1" stroke="#000000" stroke-linecap="round" stroke-linejoin="round"/>
 <path atv:refpx="8.5" atv:refpy="12" d="M15,12L2,12L5,9M5,15L2,12" fill="#000000" fill-opacity="0" id="id_4" stroke="#000000" stroke-linecap="round" stroke-linejoin="round" stroke-width="1"/>
</svg>
