<?xml version='1.0' encoding='UTF-8' standalone='no'?>
<svg enable-background="new 0 0 16 16" height="40" id="Ebene_1" version="1.1" width="40" x="0px" xml:space="preserve" y="0px" xmlns="http://www.w3.org/2000/svg" xmlns:atv="http://webmi.atvise.com/2007/svgext" xmlns:xlink="http://www.w3.org/1999/xlink">
 <defs>
  <linearGradient gradientUnits="objectBoundingBox" id="SVGID_1_" x1="-0.290145" x2="0.792871" y1="0.136603" y2="0.639639">
   <stop offset="0" stop-color="#9d9d9c"/>
   <stop offset="1" stop-color="#c3c3b"/>
  </linearGradient>
  <linearGradient gradientUnits="objectBoundingBox" id="SVGID_2_" x1="0.0373956" x2="0.933879" y1="0.0373166" y2="1.06773">
   <stop offset="0" stop-color="#9d9d9c"/>
   <stop offset="1" stop-color="#c3c3b"/>
  </linearGradient>
 </defs>
 <metadata>
  <atv:parameter behavior="optional" defaultvalue="#000000" desc="symbol color" name="symbolColor" substitute="$SYMBOLCOLOR$" valuetype="color"/>
  <atv:gridconfig enabled="true" gridstyle="lines" height="2" width="2"/>
  <atv:snapconfig enabled="true" height="1" width="1"/>
 </metadata>
 <script atv:desc="" atv:name="" type="text/ecmascript"/>
 <g atv:refpx="20.02" atv:refpy="20.029" id="id_3" transform="matrix(1.9902,0,0,1.9902,0.0688,-0.2888)">
  <path atv:refpx="115.197" atv:refpy="82.227" d="M12.445,4.407L9.088,1.469L9.029,1.417L8.33,1.417L7.901,1.417L0.515,1.417L0.515,19.001L11.549,19.001L12.048,19.001L12.456,19.001L12.456,5.399L12.456,5.275L12.456,4.412ZM1.275,18.131L1.275,2.148L8.328,2.148L8.328,5.275L11.546,5.275L11.546,18.131Z" fill="$SYMBOLCOLOR$" id="id_2" stroke-width="1"/>
  <rect atv:refpx="135.454" atv:refpy="178.059" fill="$SYMBOLCOLOR$" height="2" id="id_6" stroke-width="1" width="9.453" x="8.308" y="11.38"/>
  <polyline atv:refpx="16.836" atv:refpy="12.396" fill="$SYMBOLCOLOR$" id="id_0" points="14.135,8.795 14.135,15.995 19.535,12.395 14.135,8.795" stroke="none" stroke-width="2"/>
 </g>
</svg>
