<?xml version='1.0' encoding='UTF-8' standalone='no'?>
<svg height="325" version="1.2" width="490" xmlns="http://www.w3.org/2000/svg" xmlns:atv="http://webmi.atvise.com/2007/svgext" xmlns:xlink="http://www.w3.org/1999/xlink">
 <defs>
  <linearGradient gradientUnits="objectBoundingBox" id="linear_0" x1="0" x2="1" y1="0" y2="1">
   <stop offset="0" stop-color="#000000" stop-opacity="0"/>
   <stop offset="1" stop-color="#000000" stop-opacity="0"/>
  </linearGradient>
 </defs>
 <metadata>
  <atv:gridconfig enabled="false" gridstyle="lines" height="20" width="20"/>
  <atv:snapconfig enabled="true" height="1" width="1"/>
 </metadata>
 <g atv:insensitive="true" atv:refpx="0" atv:refpy="0" id="id_11" transform="matrix(0.3828,0,0,0.4233,0,0)">
  <rect atv:refpx="640" atv:refpy="384" fill="#ffffff" height="768.00" id="id_12" width="1280.00" x="0" y="0"/>
 </g>
 <script atv:desc="" atv:name="" type="text/ecmascript"/>
 <g atv:refpx="316.099" atv:refpy="223" id="id_73" transform="matrix(1,0,0,1,153.0075,89)">
  <line atv:refpx="162" atv:refpy="79.5" id="id_75" stroke="#000000" stroke-linecap="round" stroke-linejoin="round" stroke-width="2.015" x1="192" x2="132" y1="79" y2="79"/>
  <polygon atv:refpx="185.405" atv:refpy="79" fill="#000018" id="id_76" points="192,89 192,69 205.19,79 205.19,79" stroke="#000000" stroke-linecap="round" stroke-linejoin="round" stroke-opacity="0" stroke-width="2.015"/>
 </g>
 <g atv:refpx="203.099" atv:refpy="223.625" id="id_69" transform="matrix(1,0,0,1,36.0075,89.6247)">
  <line atv:refpx="162" atv:refpy="79.5" id="id_70" stroke="#000000" stroke-linecap="round" stroke-linejoin="round" stroke-width="2.015" x1="192" x2="132" y1="79" y2="79"/>
  <polygon atv:refpx="185.405" atv:refpy="79" fill="#000018" id="id_72" points="192,89 192,69 205.19,79 205.19,79" stroke="#000000" stroke-linecap="round" stroke-linejoin="round" stroke-opacity="0" stroke-width="2.015"/>
 </g>
 <g atv:refpx="52.001" atv:refpy="152.099" id="id_31" transform="matrix(0,1,-1,0,127,-60.9925)">
  <line atv:refpx="162" atv:refpy="79.5" id="id_29" stroke="#000000" stroke-linecap="round" stroke-linejoin="round" stroke-width="2.015" x1="192" x2="132" y1="79" y2="79"/>
  <polygon atv:refpx="185.405" atv:refpy="79" fill="#000018" id="id_26" points="192,89 192,69 205.19,79 205.19,79" stroke="#000000" stroke-linecap="round" stroke-linejoin="round" stroke-opacity="0" stroke-width="2.015"/>
 </g>
 <line atv:refpx="105.504" atv:refpy="224.125" id="id_67" stroke="#000000" stroke-linecap="round" stroke-linejoin="round" stroke-width="2.015" x1="110.007" x2="101" y1="168.625" y2="168.625"/>
 <svg atv:refpx="172.197" atv:refpy="168.001" height="63.11" id="id_6" transform="matrix(0.7519,0,0,0.7289,0,0)" width="133" x="162.516" xlink:href="ObjectTypes.PROJECT.ElementoLinea.Principal" y="198.93">
  <atv:argument name="base" value="AGENT.OBJECTS.SCADA.Solidaridad.Circuitos.Circuito_PDC.Carcamo_007"/>
 </svg>
 <svg atv:refpx="288.323" atv:refpy="225.997" height="63.11" id="id_7" transform="matrix(0.7519,0,0,0.7289,0,0)" width="133" x="320.989" xlink:href="ObjectTypes.PROJECT.ElementoLinea.Principal" y="198.93">
  <atv:argument name="base" value="AGENT.OBJECTS.SCADA.Solidaridad.Circuitos.Circuito_PDC.Carcamo_008"/>
 </svg>
 <svg atv:refpx="404.722" atv:refpy="222.997" height="63.11" id="id_15" transform="matrix(0.7519,0,0,0.7289,0,0)" width="133" x="475.796" xlink:href="ObjectTypes.PROJECT.ElementoLinea.Principal" y="198.93">
  <atv:argument name="base" value="AGENT.OBJECTS.SCADA.Solidaridad.Circuitos.Circuito_PDC.Carcamo_015"/>
 </svg>
 <svg atv:refpx="49.991" atv:refpy="22.999" height="63.11" id="id_17" transform="matrix(0.7519,0,0,0.7289,0,0)" width="133" x="0" xlink:href="ObjectTypes.PROJECT.ElementoLinea.Principal" y="0">
  <atv:argument name="base" value="AGENT.OBJECTS.SCADA.Solidaridad.Circuitos.Circuito_PDC.Carcamo_Intermedio"/>
 </svg>
 <svg atv:refpx="288.323" atv:refpy="325.495" height="63.11" id="id_19" transform="matrix(0.7739,0,0,0.7289,0,0)" width="133" x="310.016" xlink:href="ObjectTypes.PROJECT.ElementoLinea.Principal" y="323.09">
  <atv:argument name="base" value="AGENT.OBJECTS.SCADA.Solidaridad.Circuitos.Circuito_PDC.Desaladora_008"/>
 </svg>
 <svg atv:refpx="52.991" atv:refpy="222.987" height="63.11" id="id_5" transform="matrix(0.7519,0,0,0.7289,0,0)" width="133" x="3.99" xlink:href="ObjectTypes.PROJECT.ElementoLinea.Principal" y="198.93">
  <atv:argument name="base" value="AGENT.OBJECTS.SCADA.Solidaridad.Circuitos.Circuito_PDC.Carcamo_006"/>
 </svg>
 <svg atv:refpx="52.991" atv:refpy="291.489" height="63.11" id="id_18" transform="matrix(0.7519,0,0,0.7289,0,0)" width="133" x="3.99" xlink:href="ObjectTypes.PROJECT.ElementoLinea.Principal" y="292.908">
  <atv:argument name="base" value="AGENT.OBJECTS.SCADA.Solidaridad.Circuitos.Circuito_PDC.Desaladora_006"/>
 </svg>
 <svg atv:refpx="53" atv:refpy="257.751" height="23" id="id_21" width="100" x="3" xlink:href="ObjectTypes.PROJECT.Caudalimetro.line_mini" y="191.251">
  <atv:argument name="base" value="AGENT.OBJECTS.SCADA.Solidaridad.Circuitos.Circuito_PDC.Carcamo_006.Equipos.Caudalimetro.L1"/>
 </svg>
 <svg atv:refpx="50.001" atv:refpy="57.875" height="23" id="id_37" width="100" x="0.001" xlink:href="ObjectTypes.PROJECT.Caudalimetro.line_mini" y="46.375">
  <atv:argument name="base" value="AGENT.OBJECTS.SCADA.Solidaridad.Circuitos.Circuito_PDC.Carcamo_Intermedio.Equipos.Caudalimetros.L_30"/>
 </svg>
 <svg atv:refpx="407.753" atv:refpy="257.751" height="23" id="id_57" width="100" x="357.753" xlink:href="ObjectTypes.PROJECT.Caudalimetro.line_mini" y="191.251">
  <atv:argument name="base" value="AGENT.OBJECTS.SCADA.Solidaridad.Circuitos.Circuito_PDC.Carcamo_015.Equipos.Caudalimetro.L1"/>
 </svg>
 <polygon atv:refpx="185.405" atv:refpy="79" fill="#000018" id="id_68" points="110.007,178.624 110.007,158.624 123.197,168.624 123.197,168.624" stroke="#000000" stroke-linecap="round" stroke-linejoin="round" stroke-opacity="0" stroke-width="2.015"/>
 <svg atv:refpx="286" atv:refpy="202.5" height="23" id="id_0" width="100" x="242" xlink:href="ObjectTypes.PROJECT.Caudalimetro.line_mini" y="191">
  <atv:argument name="base" value="AGENT.OBJECTS.SCADA.Solidaridad.Circuitos.Circuito_PDC.Carcamo_008.Equipos.Caudalimetros.L_1"/>
 </svg>
 <svg atv:refpx="287" atv:refpy="224.5" height="23" id="id_1" width="100" x="242" xlink:href="ObjectTypes.PROJECT.Caudalimetro.line_mini" y="213">
  <atv:argument name="base" value="AGENT.OBJECTS.SCADA.Solidaridad.Circuitos.Circuito_PDC.Carcamo_008.Equipos.Caudalimetros.L_2"/>
 </svg>
 <svg atv:refpx="170" atv:refpy="203.5" height="23" id="id_2" width="100" x="122" xlink:href="ObjectTypes.PROJECT.Caudalimetro.line_mini" y="191">
  <atv:argument name="base" value="AGENT.OBJECTS.SCADA.Solidaridad.Circuitos.Circuito_PDC.Carcamo_007.Equipos.Caudalimetro.L1"/>
 </svg>
</svg>
