<?xml version="1.0" encoding="iso-8859-1"?>
<!-- Uploaded to: SVG Repo, www.svgrepo.com, Generator: SVG Repo Mixer Tools -->
<svg fill="#000000" height="800px" width="800px" version="1.1" id="Layer_1" xmlns="http://www.w3.org/2000/svg" xmlns:xlink="http://www.w3.org/1999/xlink" 
	 viewBox="0 0 503.607 503.607" xml:space="preserve">
<g>
	<g>
		<g>
			<path d="M485.703,318.95h-49.244v-15.669c0-9.89-8.013-17.903-17.903-17.903h-31.341c-9.89,0-17.903,8.013-17.903,17.903v15.669
				h-42.443c-4.884-5.457-10.354-10.378-16.311-14.664v-69.27h8.393c5.729,0,9.774-5.613,7.963-11.048l-16.787-50.361
				c-1.143-3.427-4.35-5.739-7.963-5.739h-11.599l-21.919-43.838l78.215-56.884h14.057c13.868,0,25.18-11.312,25.18-25.18
				s-11.312-25.18-25.18-25.18h-218.23c-13.868,0-25.18,11.312-25.18,25.18s11.312,25.18,25.18,25.18h14.057l78.215,56.884
				l-21.919,43.838h-11.599c-3.613,0-6.82,2.312-7.963,5.739l-16.787,50.361c-1.812,5.435,2.234,11.048,7.963,11.048h8.393v69.27
				c-5.958,4.286-11.427,9.207-16.311,14.664h-42.443v-15.669c0-9.89-8.013-17.903-17.903-17.903H85.051
				c-9.89,0-17.903,8.013-17.903,17.903v15.671H17.903C8.013,318.952,0,326.965,0,336.855v98.489c0,9.89,8.013,17.903,17.903,17.903
				h49.244v15.671c0,9.89,8.013,17.903,17.903,17.903h31.341c9.89,0,17.903-8.013,17.903-17.903v-15.672h42.443
				c18.443,20.603,45.238,33.574,75.065,33.574s56.623-12.97,75.065-33.574h42.443v15.672c0,9.89,8.013,17.903,17.903,17.903h31.341
				c9.89,0,17.903-8.013,17.903-17.903v-15.672h49.244c9.89,0,17.903-8.013,17.903-17.903v-98.489
				C503.607,326.963,495.593,318.95,485.703,318.95z M260.197,109.418V67.147h58.123L260.197,109.418z M134.295,41.966
				c0-4.597,3.796-8.393,8.393-8.393h218.23c4.597,0,8.393,3.796,8.393,8.393s-3.796,8.393-8.393,8.393h-218.23
				C138.091,50.36,134.295,46.564,134.295,41.966z M243.41,67.147v42.271l-58.123-42.271H243.41z M248.597,134.294h6.412
				l16.787,33.574H231.81L248.597,134.294z M207.492,184.655h10.737h67.148h10.737l11.191,33.574H196.301L207.492,184.655z
				 M209.836,235.016h83.934v59.5c-9.597-4.405-20.004-7.344-30.938-8.536c-0.049-0.005-0.097-0.011-0.146-0.017
				c-0.793-0.085-1.588-0.16-2.387-0.227c-0.122-0.01-0.243-0.023-0.365-0.032c-0.728-0.058-1.458-0.106-2.19-0.149
				c-0.18-0.011-0.359-0.025-0.539-0.034c-0.704-0.037-1.41-0.063-2.117-0.086c-0.197-0.006-0.393-0.017-0.591-0.022
				c-0.895-0.023-1.793-0.036-2.693-0.036s-1.798,0.013-2.693,0.036c-0.197,0.005-0.393,0.016-0.59,0.022
				c-0.708,0.023-1.414,0.049-2.118,0.086c-0.18,0.01-0.359,0.024-0.539,0.034c-0.732,0.043-1.463,0.09-2.191,0.149
				c-0.122,0.01-0.243,0.022-0.364,0.032c-0.799,0.067-1.595,0.142-2.388,0.227c-0.048,0.005-0.097,0.011-0.145,0.017
				c-10.934,1.191-21.342,4.13-30.939,8.536V235.016z M17.903,436.46c-0.619,0-1.116-0.498-1.116-1.116v-98.489
				c0-0.619,0.498-1.116,1.116-1.116h49.244V436.46H17.903z M117.508,468.917c0,0.619-0.498,1.116-1.116,1.116H85.051
				c-0.619,0-1.116-0.498-1.116-1.116v-24.064V327.345v-24.064c0-0.619,0.498-1.116,1.116-1.116h31.341
				c0.619,0,1.116,0.498,1.116,1.116v24.062v117.508V468.917z M164.556,436.458h-30.261V335.737h30.261
				c-0.023,0.04-0.044,0.081-0.067,0.121c-0.475,0.823-0.937,1.655-1.389,2.493c-0.146,0.271-0.287,0.544-0.431,0.817
				c-0.318,0.603-0.631,1.209-0.937,1.82c-0.155,0.308-0.309,0.617-0.461,0.927c-0.333,0.682-0.658,1.368-0.977,2.058
				c-0.092,0.199-0.187,0.395-0.277,0.594c-0.395,0.871-0.775,1.75-1.146,2.633c-0.112,0.267-0.219,0.535-0.328,0.803
				c-0.272,0.664-0.537,1.332-0.795,2.003c-0.11,0.287-0.22,0.574-0.328,0.862c-0.295,0.789-0.58,1.582-0.855,2.38
				c-0.045,0.132-0.094,0.262-0.139,0.394c-0.322,0.947-0.629,1.902-0.923,2.862c-0.062,0.202-0.12,0.405-0.181,0.608
				c-0.232,0.773-0.455,1.55-0.669,2.331c-0.067,0.244-0.133,0.488-0.198,0.733c-0.229,0.86-0.447,1.725-0.653,2.594
				c-0.026,0.109-0.054,0.217-0.079,0.325c-0.235,1.006-0.454,2.018-0.659,3.035c-0.029,0.145-0.055,0.291-0.084,0.437
				c-0.167,0.849-0.323,1.702-0.468,2.559c-0.042,0.247-0.083,0.494-0.123,0.741c-0.134,0.829-0.258,1.662-0.372,2.498
				c-0.025,0.184-0.053,0.367-0.077,0.551c-0.133,1.021-0.253,2.046-0.356,3.076c-0.013,0.127-0.022,0.255-0.034,0.383
				c-0.084,0.874-0.156,1.752-0.217,2.633c-0.021,0.3-0.039,0.6-0.057,0.9c-0.045,0.746-0.082,1.494-0.111,2.244
				c-0.011,0.297-0.025,0.593-0.034,0.89c-0.03,1.015-0.05,2.033-0.05,3.056s0.02,2.041,0.05,3.056
				c0.009,0.297,0.022,0.593,0.034,0.89c0.029,0.75,0.066,1.498,0.111,2.243c0.018,0.3,0.036,0.601,0.057,0.901
				c0.061,0.881,0.133,1.758,0.217,2.633c0.012,0.127,0.021,0.255,0.034,0.383c0.103,1.03,0.222,2.055,0.356,3.076
				c0.024,0.184,0.052,0.368,0.077,0.552c0.114,0.835,0.238,1.667,0.372,2.496c0.04,0.248,0.081,0.495,0.123,0.742
				c0.145,0.856,0.301,1.709,0.468,2.557c0.029,0.146,0.055,0.293,0.084,0.438c0.205,1.017,0.424,2.029,0.659,3.034
				c0.026,0.11,0.054,0.218,0.08,0.328c0.206,0.869,0.424,1.732,0.652,2.592c0.065,0.245,0.132,0.489,0.198,0.734
				c0.214,0.78,0.436,1.557,0.668,2.329c0.061,0.203,0.119,0.407,0.181,0.61c0.294,0.959,0.601,1.913,0.923,2.86
				c0.045,0.133,0.094,0.265,0.14,0.398c0.275,0.797,0.56,1.589,0.854,2.376c0.108,0.289,0.218,0.577,0.329,0.865
				c0.257,0.67,0.522,1.336,0.793,2c0.11,0.269,0.217,0.538,0.329,0.806c0.37,0.884,0.751,1.762,1.145,2.633
				c0.09,0.199,0.186,0.396,0.277,0.594c0.318,0.69,0.643,1.377,0.977,2.058c0.152,0.31,0.306,0.618,0.461,0.927
				c0.306,0.61,0.619,1.216,0.937,1.82c0.144,0.272,0.285,0.546,0.431,0.817c0.452,0.838,0.914,1.67,1.389,2.493
				C164.512,436.377,164.533,436.418,164.556,436.458z M251.803,470.032c-26.054,0-49.335-11.873-64.73-30.502
				c-0.007-0.008-0.011-0.017-0.018-0.025c-0.277-0.335-0.536-0.682-0.807-1.021c-0.523-0.654-1.048-1.305-1.552-1.975
				c-0.285-0.379-0.554-0.768-0.833-1.151c-0.486-0.669-0.971-1.338-1.437-2.021c-0.258-0.378-0.505-0.764-0.757-1.146
				c-0.466-0.708-0.928-1.42-1.374-2.143c-0.23-0.374-0.453-0.752-0.677-1.128c-0.447-0.752-0.885-1.51-1.309-2.277
				c-0.201-0.364-0.4-0.73-0.596-1.097c-0.429-0.804-0.844-1.616-1.247-2.436c-0.169-0.343-0.34-0.686-0.504-1.032
				c-0.42-0.883-0.821-1.777-1.21-2.677c-0.127-0.292-0.259-0.582-0.382-0.876c-0.448-1.069-0.873-2.15-1.278-3.241
				c-0.048-0.13-0.102-0.258-0.15-0.388c-0.462-1.266-0.897-2.546-1.299-3.839c-0.001-0.003-0.002-0.007-0.003-0.01
				c-0.382-1.228-0.731-2.47-1.057-3.722c-0.095-0.365-0.177-0.735-0.268-1.102c-0.221-0.897-0.433-1.797-0.624-2.704
				c-0.098-0.464-0.186-0.931-0.276-1.397c-0.16-0.825-0.309-1.654-0.444-2.488c-0.081-0.502-0.158-1.005-0.231-1.51
				c-0.118-0.823-0.221-1.65-0.315-2.48c-0.057-0.502-0.116-1.003-0.164-1.507c-0.085-0.893-0.148-1.791-0.205-2.692
				c-0.028-0.438-0.065-0.874-0.085-1.314c-0.063-1.337-0.102-2.682-0.102-4.035s0.039-2.697,0.102-4.035
				c0.021-0.439,0.058-0.876,0.086-1.314c0.057-0.9,0.12-1.799,0.205-2.691c0.048-0.504,0.107-1.006,0.164-1.508
				c0.094-0.83,0.197-1.657,0.315-2.48c0.072-0.505,0.149-1.008,0.231-1.51c0.135-0.834,0.285-1.662,0.444-2.487
				c0.09-0.466,0.178-0.933,0.276-1.398c0.192-0.907,0.403-1.807,0.624-2.703c0.09-0.367,0.173-0.737,0.268-1.103
				c0.326-1.25,0.674-2.491,1.056-3.718c0.001-0.005,0.003-0.009,0.004-0.014c0.402-1.293,0.836-2.573,1.299-3.838
				c0.048-0.132,0.102-0.26,0.151-0.392c0.404-1.09,0.829-2.17,1.277-3.238c0.124-0.295,0.256-0.585,0.383-0.879
				c0.389-0.899,0.79-1.792,1.209-2.675c0.165-0.346,0.336-0.69,0.505-1.034c0.403-0.819,0.818-1.63,1.246-2.433
				c0.196-0.368,0.395-0.734,0.597-1.099c0.424-0.767,0.862-1.524,1.309-2.276c0.224-0.377,0.447-0.755,0.677-1.129
				c0.445-0.722,0.906-1.433,1.373-2.141c0.252-0.383,0.499-0.769,0.758-1.148c0.466-0.683,0.951-1.351,1.436-2.019
				c0.279-0.383,0.548-0.773,0.834-1.152c0.504-0.669,1.029-1.321,1.552-1.975c0.271-0.339,0.53-0.686,0.807-1.021
				c0.007-0.008,0.011-0.017,0.018-0.025c4.887-5.914,10.58-11.133,16.894-15.521l2.063-1.346
				c8.247-5.382,17.302-9.249,26.831-11.462c0.364-0.084,0.726-0.173,1.092-0.252c0.669-0.146,1.342-0.279,2.016-0.409
				c0.61-0.117,1.224-0.225,1.839-0.328c0.546-0.092,1.091-0.189,1.64-0.271c1.137-0.168,2.281-0.315,3.432-0.436
				c0.384-0.041,0.77-0.07,1.154-0.105c0.922-0.085,1.848-0.157,2.779-0.211c0.387-0.023,0.774-0.046,1.162-0.063
				c1.27-0.057,2.544-0.097,3.827-0.097s2.558,0.04,3.827,0.097c0.388,0.018,0.775,0.041,1.162,0.063
				c0.931,0.055,1.857,0.127,2.779,0.211c0.385,0.036,0.771,0.064,1.154,0.105c1.151,0.122,2.295,0.268,3.432,0.436
				c0.549,0.082,1.094,0.179,1.64,0.271c0.615,0.103,1.228,0.212,1.839,0.328c0.674,0.13,1.347,0.263,2.016,0.409
				c0.366,0.079,0.729,0.168,1.093,0.252c9.529,2.213,18.584,6.08,26.831,11.462l2.063,1.346
				c6.314,4.389,12.007,9.607,16.895,15.522c0.007,0.008,0.011,0.017,0.018,0.025c0.275,0.332,0.532,0.676,0.801,1.013
				c0.525,0.656,1.052,1.311,1.558,1.983c0.286,0.38,0.556,0.77,0.835,1.154c0.484,0.667,0.968,1.334,1.433,2.016
				c0.26,0.38,0.508,0.768,0.761,1.153c0.465,0.706,0.926,1.416,1.37,2.136c0.231,0.375,0.455,0.754,0.68,1.133
				c0.446,0.75,0.883,1.507,1.306,2.272c0.202,0.365,0.401,0.732,0.598,1.101c0.428,0.803,0.843,1.614,1.245,2.432
				c0.17,0.345,0.341,0.689,0.506,1.036c0.419,0.882,0.819,1.774,1.208,2.672c0.127,0.294,0.26,0.585,0.384,0.88
				c0.448,1.068,0.872,2.148,1.276,3.237c0.049,0.131,0.103,0.26,0.151,0.392c0.462,1.265,0.896,2.544,1.298,3.837
				c0.003,0.009,0.005,0.017,0.007,0.026c0.38,1.223,0.728,2.461,1.053,3.707c0.095,0.366,0.178,0.736,0.268,1.103
				c0.221,0.896,0.432,1.796,0.624,2.703c0.098,0.464,0.186,0.931,0.276,1.398c0.16,0.825,0.309,1.654,0.444,2.487
				c0.081,0.502,0.159,1.006,0.231,1.51c0.118,0.822,0.221,1.65,0.315,2.48c0.057,0.502,0.116,1.004,0.164,1.508
				c0.085,0.892,0.148,1.791,0.205,2.691c0.028,0.438,0.065,0.874,0.086,1.314c0.063,1.337,0.102,2.681,0.102,4.035
				s-0.039,2.697-0.102,4.035c-0.021,0.439-0.058,0.876-0.085,1.314c-0.057,0.9-0.12,1.799-0.205,2.692
				c-0.048,0.504-0.107,1.005-0.164,1.507c-0.094,0.83-0.197,1.657-0.315,2.48c-0.072,0.505-0.149,1.008-0.231,1.51
				c-0.135,0.834-0.285,1.663-0.444,2.488c-0.09,0.466-0.178,0.933-0.276,1.397c-0.192,0.908-0.403,1.808-0.624,2.704
				c-0.09,0.367-0.172,0.736-0.268,1.102c-0.325,1.248-0.673,2.486-1.054,3.711c-0.002,0.007-0.004,0.015-0.006,0.022
				c-0.402,1.293-0.836,2.572-1.299,3.838c-0.048,0.13-0.102,0.258-0.15,0.388c-0.405,1.091-0.83,2.172-1.278,3.241
				c-0.123,0.295-0.256,0.585-0.383,0.878c-0.389,0.899-0.79,1.792-1.209,2.674c-0.165,0.346-0.336,0.69-0.505,1.034
				c-0.403,0.819-0.818,1.63-1.247,2.434c-0.196,0.368-0.395,0.734-0.597,1.099c-0.423,0.766-0.861,1.522-1.307,2.273
				c-0.225,0.378-0.448,0.758-0.68,1.132c-0.444,0.721-0.905,1.431-1.371,2.138c-0.253,0.384-0.5,0.771-0.759,1.15
				c-0.465,0.682-0.95,1.35-1.435,2.017c-0.279,0.384-0.549,0.774-0.834,1.153c-0.506,0.672-1.033,1.327-1.558,1.983
				c-0.269,0.336-0.526,0.68-0.801,1.013c-0.007,0.008-0.011,0.017-0.018,0.025C301.139,458.159,277.858,470.032,251.803,470.032z
				 M339.05,436.458c0.023-0.039,0.044-0.08,0.066-0.119c0.475-0.824,0.938-1.656,1.39-2.495c0.146-0.271,0.287-0.544,0.43-0.816
				c0.319-0.604,0.632-1.211,0.939-1.822c0.154-0.308,0.308-0.615,0.46-0.925c0.333-0.681,0.658-1.367,0.976-2.057
				c0.092-0.199,0.188-0.396,0.278-0.595c0.395-0.871,0.775-1.75,1.146-2.635c0.111-0.266,0.218-0.533,0.327-0.8
				c0.272-0.665,0.537-1.333,0.795-2.005c0.11-0.288,0.221-0.575,0.329-0.864c0.293-0.785,0.577-1.575,0.851-2.37
				c0.047-0.136,0.097-0.27,0.143-0.406c0.322-0.946,0.628-1.9,0.922-2.858c0.062-0.203,0.12-0.407,0.181-0.61
				c0.232-0.773,0.455-1.549,0.668-2.329c0.067-0.244,0.133-0.489,0.198-0.734c0.228-0.86,0.446-1.724,0.652-2.592
				c0.026-0.109,0.054-0.218,0.08-0.328c0.235-1.006,0.454-2.017,0.659-3.034c0.029-0.146,0.055-0.292,0.084-0.438
				c0.167-0.849,0.322-1.701,0.468-2.557c0.042-0.247,0.083-0.495,0.123-0.742c0.134-0.829,0.258-1.661,0.372-2.496
				c0.025-0.184,0.053-0.368,0.077-0.552c0.133-1.021,0.253-2.046,0.356-3.076c0.013-0.127,0.022-0.255,0.034-0.383
				c0.084-0.874,0.156-1.752,0.217-2.633c0.021-0.3,0.039-0.6,0.057-0.901c0.045-0.746,0.082-1.493,0.111-2.243
				c0.011-0.297,0.025-0.593,0.034-0.89c0.03-1.015,0.05-2.033,0.05-3.056s-0.02-2.041-0.05-3.056
				c-0.009-0.297-0.022-0.593-0.034-0.89c-0.029-0.75-0.066-1.498-0.111-2.244c-0.018-0.3-0.036-0.601-0.057-0.9
				c-0.061-0.881-0.133-1.759-0.217-2.633c-0.012-0.127-0.021-0.255-0.034-0.383c-0.103-1.03-0.222-2.055-0.356-3.076
				c-0.024-0.184-0.052-0.367-0.077-0.551c-0.114-0.836-0.238-1.669-0.372-2.498c-0.04-0.247-0.081-0.494-0.123-0.741
				c-0.145-0.857-0.301-1.71-0.468-2.559c-0.029-0.145-0.055-0.291-0.084-0.437c-0.205-1.017-0.424-2.029-0.659-3.035
				c-0.025-0.109-0.054-0.217-0.079-0.325c-0.206-0.869-0.424-1.734-0.653-2.594c-0.065-0.245-0.132-0.489-0.198-0.733
				c-0.214-0.781-0.437-1.558-0.669-2.331c-0.061-0.202-0.119-0.406-0.181-0.608c-0.294-0.959-0.601-1.913-0.923-2.86
				c-0.046-0.135-0.095-0.268-0.142-0.403c-0.275-0.796-0.559-1.587-0.853-2.374c-0.107-0.288-0.217-0.575-0.328-0.862
				c-0.258-0.673-0.524-1.342-0.797-2.008c-0.109-0.266-0.215-0.532-0.326-0.797c-0.371-0.885-0.751-1.764-1.146-2.636
				c-0.09-0.2-0.186-0.396-0.278-0.595c-0.318-0.69-0.643-1.376-0.976-2.057c-0.151-0.309-0.305-0.617-0.46-0.925
				c-0.307-0.611-0.62-1.218-0.939-1.822c-0.143-0.272-0.284-0.545-0.43-0.816c-0.452-0.839-0.915-1.671-1.39-2.495
				c-0.023-0.039-0.044-0.08-0.066-0.119h30.261v100.721H339.05z M419.672,468.917c0,0.619-0.498,1.116-1.116,1.116h-31.341
				c-0.619,0-1.116-0.498-1.116-1.116v-24.066V327.343v-24.062c0-0.619,0.498-1.116,1.116-1.116h31.341
				c0.619,0,1.116,0.498,1.116,1.116v24.062v117.508V468.917z M486.82,435.342c0,0.619-0.498,1.116-1.116,1.116h-49.244V335.737
				h49.244c0.619,0,1.116,0.498,1.116,1.116V435.342z"/>
			<path d="M251.803,318.95c-4.642,0-8.393,3.752-8.393,8.393c0,4.642,3.752,8.393,8.393,8.393c4.642,0,8.394-3.752,8.394-8.393
				C260.197,322.702,256.445,318.95,251.803,318.95z"/>
			<path d="M318.951,386.097c0-4.642-3.752-8.393-8.393-8.393c-4.642,0-8.393,3.752-8.393,8.393c0,4.642,3.752,8.393,8.393,8.393
				C315.199,394.491,318.951,390.739,318.951,386.097z"/>
			<path d="M193.049,377.704c-4.642,0-8.393,3.752-8.393,8.393c0,4.642,3.752,8.393,8.393,8.393c4.642,0,8.393-3.752,8.393-8.393
				C201.443,381.456,197.691,377.704,193.049,377.704z"/>
			<path d="M251.803,436.458c-4.642,0-8.393,3.752-8.393,8.393c0,4.642,3.752,8.393,8.393,8.393c4.642,0,8.394-3.752,8.394-8.393
				C260.197,440.21,256.445,436.458,251.803,436.458z"/>
			<path d="M204.32,338.614c-3.282,3.282-3.282,8.595,0,11.877c3.282,3.273,8.595,3.273,11.877,0c3.273-3.282,3.273-8.595,0-11.877
				C212.915,335.332,207.602,335.332,204.32,338.614z"/>
			<path d="M287.41,338.614c-3.273,3.282-3.273,8.595,0,11.877c3.282,3.273,8.595,3.273,11.877,0c3.282-3.282,3.282-8.595,0-11.877
				C296.005,335.332,290.692,335.332,287.41,338.614z"/>
			<path d="M204.32,421.704c-3.282,3.282-3.282,8.595,0,11.877c3.282,3.282,8.595,3.282,11.877,0c3.273-3.282,3.273-8.595,0-11.877
				C212.915,418.431,207.602,418.431,204.32,421.704z"/>
			<path d="M287.41,421.704c-3.273,3.282-3.273,8.595,0,11.877c3.282,3.282,8.595,3.282,11.877,0c3.282-3.282,3.282-8.595,0-11.877
				C296.005,418.431,290.692,418.431,287.41,421.704z"/>
		</g>
	</g>
</g>
</svg>