<?xml version='1.0' encoding='UTF-8' standalone='no'?>
<svg height="200" version="1.2" width="300" xmlns="http://www.w3.org/2000/svg" xmlns:atv="http://webmi.atvise.com/2007/svgext" xmlns:xlink="http://www.w3.org/1999/xlink">
 <defs/>
 <desc>Used by highcharts configuration dialog.</desc>
 <title>Configuration - Line/Area (Small)</title>
 <metadata>
  <atv:parameter behavior="optional" defaultvalue="SYSTEM.GLOBALS.atvFontColor" desc="font color" name="fontColor" substitute="$FONTCOLOR$" valuetype="global"/>
  <atv:gridconfig enabled="true" gridstyle="lines" height="20" width="20"/>
  <atv:snapconfig enabled="true" height="5" width="5"/>
 </metadata>
 <text atv:refpx="68.5" atv:refpy="24.5" fill="$FONTCOLOR$" font-family="Arial" font-size="12" id="id_39" text-anchor="end" x="115.5" y="29">T{Related y-axis}:</text>
 <text atv:refpx="80" atv:refpy="60.5" fill="$FONTCOLOR$" font-family="Arial" font-size="12" id="id_40" text-anchor="end" x="115.5" y="65">T{Line color}:</text>
 <text atv:refpx="66.5" atv:refpy="131.5" fill="$FONTCOLOR$" font-family="Arial" font-size="12" id="id_41" text-anchor="end" x="113.5" y="136">T{Line width} [px]:</text>
 <svg atv:refpx="210.003" atv:refpy="57" height="30" id="series_color" transform="matrix(0.9375,0,0,1,0,0)" width="160" x="144" xlink:href="SYSTEM.LIBRARY.ATVISE.OBJECTDISPLAYS.Advanced.picker_color" y="45">
  <atv:argument name="name" value="series_color"/>
  <atv:argument name="tabIndex" value="82"/>
  <atv:overwrite id="button_stroke" transform="matrix(1.0667,0,0,1,0,0)" x="125.5"/>
  <atv:overwrite id="id_1" transform="matrix(1.0667,0,0,1,0,0)" x="125.75"/>
  <atv:overwrite id="button_bg" transform="matrix(1.0667,0,0,1,0,0)" x="125.5"/>
  <atv:overwrite id="input_label" transform="matrix(1.0667,0,0,1,0,0)" x="113.5"/>
  <atv:overwrite id="blinking_frame" transform="matrix(1.0667,0,0,1,0,0)" width="118"/>
  <atv:overwrite id="focus_frame" transform="matrix(1.0667,0,0,1,0,0)" width="146"/>
  <atv:overwrite id="input_bg" transform="matrix(1.0667,0,0,1,0,0)" width="118"/>
  <atv:overwrite id="id_0" transform="matrix(1.0667,0,0,1,0,0)" width="148"/>
  <atv:overwrite id="id_2" transform="matrix(1.0667,0,0,1,0,0)" width="150"/>
 </svg>
 <svg atv:refpx="209.996" atv:refpy="164" height="30" id="series_lineWidth" transform="matrix(0.9375,0,0,1,0,0)" width="160" x="144.008" xlink:href="SYSTEM.LIBRARY.ATVISE.OBJECTDISPLAYS.Advanced.rocker_switch_horizontal" y="115">
  <atv:argument name="tabIndex" value="84"/>
  <atv:argument name="min" value="0"/>
  <atv:argument name="statusEnabled" value="No"/>
  <atv:overwrite id="id_19" transform="matrix(1.0667,0,0,1,0,0)" width="70"/>
  <atv:overwrite id="icon_plus" transform="matrix(1.0667,0,0,1,-10.6667,0)"/>
  <atv:overwrite id="inc_stroke" transform="matrix(1.0667,0,0,1,0,0)" x="111"/>
  <atv:overwrite id="inc_bg" transform="matrix(1.0667,0,0,1,0,0)" x="111"/>
  <atv:overwrite id="id_5" transform="matrix(1.0667,0,0,1,0,0)" x="110"/>
  <atv:overwrite id="icon_minus" transform="matrix(1.0667,0,0,1,0,0)"/>
  <atv:overwrite id="dec_stroke" transform="matrix(1.0667,0,0,1,0,0)"/>
  <atv:overwrite id="dec_bg" transform="matrix(1.0667,0,0,1,0,0)"/>
  <atv:overwrite id="id_20" transform="matrix(1.0667,0,0,1,0,0)"/>
  <atv:overwrite id="input_label" transform="matrix(1.0667,0,0,1,0,0)" x="75"/>
  <atv:overwrite id="blinking_frame" transform="matrix(1.0667,0,0,1,0,0)" x="34"/>
  <atv:overwrite id="input_field_widget" transform="matrix(1.0667,0,0,1,0,0)" width="62"/>
  <atv:overwrite id="focus_frame" transform="matrix(1.0667,0,0,1,0,0)" width="67"/>
  <atv:overwrite id="input_bg" transform="matrix(1.0667,0,0,1,0,0)" width="68"/>
 </svg>
 <svg atv:refpx="86" atv:refpy="204" height="30" id="series_dashStyle-Solid" width="160" x="12" xlink:href="SYSTEM.LIBRARY.ATVISE.OBJECTDISPLAYS.Advanced.radiobutton" y="155">
  <atv:argument name="radiogroupId" value="series_dashStyle"/>
  <atv:argument name="label" value="T{solid}"/>
  <atv:argument name="value" value="solid"/>
  <atv:argument name="tabIndex" value="85"/>
  <atv:overwrite id="radiobutton_bg2" transform="matrix(1.6,0,0,1,0,0)"/>
  <atv:overwrite id="id_2" transform="matrix(1.6,0,0,1,0,0)" width="68"/>
  <atv:overwrite id="id_0" transform="matrix(1.6,0,0,1,0,0)" width="99.5"/>
  <atv:overwrite id="radiobutton_bg" width="66"/>
 </svg>
 <svg atv:refpx="191" atv:refpy="207" height="30" id="series_dashStyle-Dot" width="160" x="100" xlink:href="SYSTEM.LIBRARY.ATVISE.OBJECTDISPLAYS.Advanced.radiobutton" y="155">
  <atv:argument name="radiogroupId" value="series_dashStyle"/>
  <atv:argument name="label" value="T{dotted}"/>
  <atv:argument name="value" value="dotted"/>
  <atv:argument name="tabIndex" value="86"/>
  <atv:overwrite id="radiobutton_bg2" transform="matrix(1.6,0,0,1,0,0)"/>
  <atv:overwrite id="id_2" transform="matrix(1.6,0,0,1,0,0)" width="68"/>
  <atv:overwrite id="id_0" transform="matrix(1.6,0,0,1,0,0)" width="99.5"/>
  <atv:overwrite id="radiobutton_bg" width="66"/>
 </svg>
 <svg atv:refpx="290" atv:refpy="204" height="30" id="series_dashStyle-Dash" width="160" x="197" xlink:href="SYSTEM.LIBRARY.ATVISE.OBJECTDISPLAYS.Advanced.radiobutton" y="155">
  <atv:argument name="radiogroupId" value="series_dashStyle"/>
  <atv:argument name="label" value="T{dashed}"/>
  <atv:argument name="value" value="dashed"/>
  <atv:argument name="tabIndex" value="87"/>
  <atv:overwrite id="radiobutton_bg2" transform="matrix(1.6,0,0,1,0,0)"/>
  <atv:overwrite id="id_2" transform="matrix(1.6,0,0,1,0,0)" width="68"/>
  <atv:overwrite id="id_0" transform="matrix(1.6,0,0,1,0,0)" width="99.5"/>
  <atv:overwrite id="radiobutton_bg" width="66"/>
 </svg>
 <text atv:refpx="84" atv:refpy="96.5" fill="$FONTCOLOR$" font-family="Arial" font-size="12" id="series_fillColor_label" text-anchor="end" visibility="hidden" x="115.5" y="101">T{Fill color}:</text>
 <svg atv:refpx="210.003" atv:refpy="92" height="30" id="series_fillColor" transform="matrix(0.9375,0,0,1,0,0)" visibility="hidden" width="160" x="144" xlink:href="SYSTEM.LIBRARY.ATVISE.OBJECTDISPLAYS.Advanced.picker_color" y="80">
  <atv:argument name="name" value="series_fillColor"/>
  <atv:argument name="tabIndex" value="83"/>
  <atv:overwrite id="button_stroke" transform="matrix(1.0667,0,0,1,0,0)" x="125.5"/>
  <atv:overwrite id="id_1" transform="matrix(1.0667,0,0,1,0,0)" x="125.75"/>
  <atv:overwrite id="button_bg" transform="matrix(1.0667,0,0,1,0,0)" x="125.5"/>
  <atv:overwrite id="input_label" transform="matrix(1.0667,0,0,1,0,0)" x="113.5"/>
  <atv:overwrite id="blinking_frame" transform="matrix(1.0667,0,0,1,0,0)" width="118"/>
  <atv:overwrite id="focus_frame" transform="matrix(1.0667,0,0,1,0,0)" width="146"/>
  <atv:overwrite id="input_bg" transform="matrix(1.0667,0,0,1,0,0)" width="118"/>
  <atv:overwrite id="id_0" transform="matrix(1.0667,0,0,1,0,0)" width="148"/>
  <atv:overwrite id="id_2" transform="matrix(1.0667,0,0,1,0,0)" width="150"/>
 </svg>
 <svg atv:refpx="208.026" atv:refpy="25" height="30" id="series_yAxis" transform="matrix(0.9375,0,0,1,0,0)" width="160" x="144" xlink:href="SYSTEM.LIBRARY.ATVISE.OBJECTDISPLAYS.Advanced.combobox" y="10">
  <atv:overwrite id="id_3" transform="matrix(1.0526,0,0,1,0,0)" x="126.75"/>
  <atv:overwrite id="id_5" transform="matrix(1.0526,0,0,1,0,0)" x="124.5"/>
  <atv:overwrite id="id_2" transform="matrix(1.0526,0,0,1,0,0)" width="120"/>
  <atv:overwrite id="combobox_stroke" transform="matrix(1.0526,0,0,1,0,0)" width="151.5"/>
  <atv:argument name="tabIndex" value="81"/>
  <atv:overwrite id="focus_frame" transform="matrix(1.0667,0,0,1,0,0)" width="146"/>
  <atv:overwrite id="button_stroke" transform="matrix(1.0667,0,0,1,0,0)" x="125"/>
  <atv:overwrite id="id_7" transform="matrix(1.0667,0,0,1,0,0)" x="125"/>
  <atv:overwrite id="button_bg" transform="matrix(1.0667,0,0,1,0,0)" x="125"/>
  <atv:overwrite id="combobox_label" transform="matrix(1.0667,0,0,1,0,0)" x="115.5"/>
  <atv:overwrite id="blinking_frame" transform="matrix(1.0667,0,0,1,0,0)" width="118"/>
  <atv:overwrite id="combobox_bg" transform="matrix(1.0667,0,0,1,0,0)" width="118"/>
  <atv:overwrite id="id_1" transform="matrix(1.0667,0,0,1,0,0)" width="148"/>
  <atv:overwrite id="id_0" transform="matrix(1.0667,0,0,1,0,0)" width="150"/>
 </svg>
 <script atv:desc="" atv:href="SYSTEM.LIBRARY.ATVISE.DISPLAYSCRIPTS.highcharts.opt_series_line_area" atv:name="opt_series_line_area" atv:type="text/ecmascript"/>
 <script atv:desc="" atv:name="" type="text/ecmascript"/>
</svg>
