<?xml version='1.0' encoding='UTF-8' standalone='no'?>
<svg height="540" version="1.2" width="860" xmlns="http://www.w3.org/2000/svg" xmlns:atv="http://webmi.atvise.com/2007/svgext" xmlns:xlink="http://www.w3.org/1999/xlink">
 <defs>
  <linearGradient gradientUnits="objectBoundingBox" id="linear_0" x1="0" x2="1" y1="0" y2="1">
   <stop offset="0" stop-color="#000000"/>
   <stop offset="1" stop-color="#000000" stop-opacity="0"/>
  </linearGradient>
 </defs>
 <desc>Display for changing user information and password.</desc>
 <title>User Editor</title>
 <rect atv:refpx="215" atv:refpy="270" fill="$FILLCOLOR$" height="540" id="background" stroke="none" stroke-width="0" width="860" x="0" y="0"/>
 <g atv:refpx="195" atv:refpy="-95" id="id_11" transform="matrix(1,0,0,1,-20,-400)">
  <rect atv:refpx="-186.142" atv:refpy="295" fill="#ffffff" height="50" id="content_background" rx="10" ry="10" stroke="none" stroke-width="0" width="390" x="20" y="280"/>
  <text atv:refpx="99.578" atv:refpy="303.5" fill="$FONTCOLOR$" font-family="Arial" font-size="16" id="content_label" x="34" y="309.5">T{Content Display}</text>
  <svg atv:refpx="260" atv:refpy="305" height="30" id="display_content_input" transform="matrix(1.125,0,0,1,0,0)" width="160" x="151.111" xlink:href="SYSTEM.LIBRARY.ATVISE.OBJECTDISPLAYS.Advanced.in_out_value" y="290">
   <atv:argument name="validation" value="String"/>
   <atv:argument name="allowDirectInput" value="Yes"/>
   <atv:argument name="tabIndex" value="9"/>
   <atv:overwrite id="id_2" transform="matrix(0.8889,0,0,1,0,0)" width="174.5"/>
   <atv:overwrite id="id_0" transform="matrix(0.8889,0,0,1,0,0)" width="180"/>
   <atv:overwrite id="input_label" transform="matrix(0.8889,0,0,1,0,0)" x="172.055"/>
   <atv:overwrite id="blinking_frame" transform="matrix(0.8889,0,0,1,0,0)" width="172"/>
   <atv:overwrite id="focus_frame" transform="matrix(0.8889,0,0,1,0,0)" width="176"/>
   <atv:overwrite id="input_bg" transform="matrix(0.8889,0,0,1,0,0)" width="172"/>
   <atv:overwrite id="id_1" transform="matrix(0.8889,0,0,1,0,0)" width="178"/>
  </svg>
  <svg atv:dynamic="true" atv:refpx="375" atv:refpy="365" height="30" id="display_content_keyboard" transform="matrix(0.375,0,0,1,0,0)" width="80" x="960" xlink:href="SYSTEM.LIBRARY.ATVISE.OBJECTDISPLAYS.Advanced.button" y="290">
   <atv:argument name="symbol" value="SYSTEM.LIBRARY.ATVISE.OBJECTDISPLAYS.Symbols.20x20.keyboard"/>
   <atv:argument name="visibilitySymbol" value="inherit"/>
   <atv:argument name="visibilityLabel" value="hidden"/>
   <atv:argument name="tabIndex" value="10"/>
   <atv:overwrite id="id_2" transform="matrix(2.6667,0,0,1,0,0)" width="24.5"/>
   <atv:overwrite id="id_0" transform="matrix(2.6667,0,0,1,0,0)" width="29.5"/>
   <atv:overwrite id="id_1" transform="matrix(2.6667,0,0,1,0,0)" width="30"/>
   <atv:overwrite id="id_6" transform="matrix(2.6667,0,0,1,0,0)" width="28"/>
   <atv:overwrite id="button_label_2" transform="matrix(2.6667,0,0,1,0,0)" x="15"/>
   <atv:overwrite id="button_label_1" transform="matrix(2.6667,0,0,1,0,0)" x="15"/>
   <atv:overwrite id="button_label" transform="matrix(2.6667,0,0,1,0,0)" x="15"/>
   <atv:overwrite id="button_symbol_bottom" transform="matrix(1.6,0,0,0.6,0,0)" x="14.833"/>
   <atv:overwrite id="button_symbol_top" transform="matrix(1.6,0,0,0.6,0,0)" x="14.833"/>
   <atv:overwrite id="button_symbol" transform="matrix(2.6667,0,0,1,0,0)" x="5"/>
   <atv:overwrite id="button_stroke" transform="matrix(2.6667,0,0,1,0,0)" width="26"/>
   <atv:overwrite id="button_bg" transform="matrix(2.6667,0,0,1,0,0)" width="28"/>
   <atv:overwrite id="outer_frame" transform="matrix(2.6667,0,0,1,0,0)" width="30"/>
  </svg>
 </g>
 <rect atv:refpx="-48.571" atv:refpy="4" fill="#ffffff" height="40" id="id_4" rx="7.692" ry="8" stroke="none" stroke-width="0" width="300" x="335.25" y="40"/>
 <text atv:refpx="448.25" atv:refpy="62" fill="$FONTCOLOR$" font-family="Arial" font-size="18" id="username" text-anchor="end" x="492.75" y="66.5">&lt;username></text>
 <rect atv:refpx="-186.142" atv:refpy="175" fill="#ffffff" height="56.41" id="language_background" rx="11.282" ry="11.282" stroke="none" stroke-width="0" width="440" x="222.75" y="176.667"/>
 <text atv:refpx="250.327" atv:refpy="203.178" fill="$FONTCOLOR$" font-family="Arial" font-size="14" id="language_label" transform="matrix(1.1282,0,0,1.1282,-29.9304,-24.4564)" x="237.967" y="207.768">T{Language}</text>
 <svg atv:refpx="280.001" atv:refpy="185" height="30" id="language_input" transform="matrix(1.5513,0,0,1.1282,0,0)" width="160" x="252.681" xlink:href="SYSTEM.LIBRARY.ATVISE.OBJECTDISPLAYS.Advanced.combobox" y="166.591">
  <atv:argument name="tabIndex" value="5"/>
  <atv:overwrite id="id_2" transform="matrix(0.8889,0,0,1,0,0)" width="174.5"/>
  <atv:overwrite id="input_label" transform="matrix(0.8889,0,0,1,0,0)" x="172.055"/>
  <atv:overwrite id="input_bg" transform="matrix(0.8889,0,0,1,0,0)" width="172"/>
  <atv:overwrite height="29.846" id="focus_frame" transform="matrix(0.6446,0,0,0.8864,0,0)" width="244.205"/>
  <atv:overwrite id="button_stroke" transform="matrix(0.6446,0,0,0.8864,0,0)" x="223.205" y="6.923"/>
  <atv:overwrite id="id_7" transform="matrix(0.6446,0,0,0.8864,0,0)" x="223.205" y="7.923"/>
  <atv:overwrite id="button_bg" transform="matrix(0.6446,0,0,0.8864,0,0)" x="223.205" y="6.923"/>
  <atv:overwrite id="combobox_label" transform="matrix(0.7868,0,0,0.8864,-19.1547,0)" x="198.705" y="21.423"/>
  <atv:overwrite height="25.846" id="blinking_frame" transform="matrix(0.6446,0,0,0.8864,0,0)" width="216.205"/>
  <atv:overwrite height="25.846" id="combobox_bg" transform="matrix(0.6446,0,0,0.8864,0,0)" width="216.205"/>
  <atv:overwrite height="31.846" id="id_1" transform="matrix(0.6446,0,0,0.8864,0,0)" width="246.205"/>
  <atv:overwrite height="33.846" id="id_0" transform="matrix(0.6446,0,0,0.8864,0,0)" width="248.205"/>
 </svg>
 <metadata>
  <atv:parameter behavior="optional" defaultvalue="T{Edit user}" desc="headline" name="headline" substitute="$HEADLINE$" valuetype="trstring"/>
  <atv:parameter behavior="optional" defaultvalue="SYSTEM.LIBRARY.ATVISE.OBJECTDISPLAYS.Symbols.20x20.user" desc="symbol" name="symbol" substitute="$SYMBOL$" valuetype="display"/>
  <atv:parameter behavior="optional" defaultvalue="SYSTEM.LIBRARY.ATVISE.OBJECTDISPLAYS.Advanced.keyboard.keyboard" desc="keyboard display" name="keyboard" valuetype="display"/>
  <atv:parameter behavior="optional" defaultvalue="SYSTEM.GLOBALS.atvFontColor" desc="font color" name="fontColor" substitute="$FONTCOLOR$" valuetype="global"/>
  <atv:parameter behavior="optional" defaultvalue="SYSTEM.GLOBALS.atvFillColor" desc="fill color" name="fillColor" substitute="$FILLCOLOR$" valuetype="global"/>
  <atv:parameter behavior="optional" defaultvalue="SYSTEM.GLOBALS.atvSymbolColor" desc="symbol color" name="symbolColor" substitute="$SYMBOLCOLOR$" valuetype="global"/>
  <atv:gridconfig enabled="true" gridstyle="lines" height="20" width="20"/>
  <atv:snapconfig enabled="true" height="10" width="10"/>
 </metadata>
 <svg atv:dynamic="true" atv:refpx="345.625" atv:refpy="370" height="30" id="save_button" transform="matrix(2.0625,0,0,1.5,0,0)" width="80" x="119.758" xlink:href="SYSTEM.LIBRARY.ATVISE.OBJECTDISPLAYS.Advanced.button" y="319">
  <atv:argument name="label" value="T{Save}"/>
  <atv:argument name="tabIndex" value="11"/>
  <atv:argument name="borderVisible" value="true"/>
  <atv:argument name="extraBorderColor" value="#ffffff"/>
  <atv:overwrite height="43" id="id_6" transform="matrix(0.4848,0,0,0.6667,0,0)" width="163"/>
  <atv:overwrite id="button_label_2" transform="matrix(0.4848,0,0,0.6667,0,0)" x="82.5" y="34"/>
  <atv:overwrite id="button_label_1" transform="matrix(0.4848,0,0,0.6667,0,0)" x="82.5" y="19"/>
  <atv:overwrite id="button_label" transform="matrix(0.4848,0,0,0.6667,0,0)" x="82.5" y="27"/>
  <atv:overwrite id="button_symbol_bottom" transform="matrix(0.2909,0,0,0.4,0,0)" x="127.333" y="38.792"/>
  <atv:overwrite id="button_symbol_top" transform="matrix(0.2909,0,0,0.4,0,0)" x="127.333" y="17.459"/>
  <atv:overwrite id="button_symbol" transform="matrix(0.4848,0,0,0.6667,0,0)" x="72.5" y="12.5"/>
  <atv:overwrite height="41" id="button_stroke" transform="matrix(0.4848,0,0,0.6667,0,0)" width="161"/>
  <atv:overwrite height="43" id="button_bg" transform="matrix(0.4848,0,0,0.6667,0,0)" width="163"/>
  <atv:overwrite height="45" id="outer_frame" transform="matrix(0.4848,0,0,0.6667,0,0)" width="165"/>
 </svg>
 <svg atv:dynamic="true" atv:refpx="545.625" atv:refpy="370" height="30" id="cancel_button" transform="matrix(2.0625,0,0,1.5,0,0)" width="80" x="226.909" xlink:href="SYSTEM.LIBRARY.ATVISE.OBJECTDISPLAYS.Advanced.button" y="319">
  <atv:argument name="label" value="T{Cancel}"/>
  <atv:argument name="tabIndex" value="12"/>
  <atv:argument name="borderVisible" value="true"/>
  <atv:argument name="extraBorderColor" value="#ffffff"/>
  <atv:overwrite height="43" id="id_6" transform="matrix(0.4848,0,0,0.6667,0,0)" width="163"/>
  <atv:overwrite id="button_label_2" transform="matrix(0.4848,0,0,0.6667,0,0)" x="82.5" y="34"/>
  <atv:overwrite id="button_label_1" transform="matrix(0.4848,0,0,0.6667,0,0)" x="82.5" y="19"/>
  <atv:overwrite id="button_label" transform="matrix(0.4848,0,0,0.6667,0,0)" x="82.5" y="27"/>
  <atv:overwrite id="button_symbol_bottom" transform="matrix(0.2909,0,0,0.4,0,0)" x="127.333" y="38.792"/>
  <atv:overwrite id="button_symbol_top" transform="matrix(0.2909,0,0,0.4,0,0)" x="127.333" y="17.459"/>
  <atv:overwrite id="button_symbol" transform="matrix(0.4848,0,0,0.6667,0,0)" x="72.5" y="12.5"/>
  <atv:overwrite height="41" id="button_stroke" transform="matrix(0.4848,0,0,0.6667,0,0)" width="161"/>
  <atv:overwrite height="43" id="button_bg" transform="matrix(0.4848,0,0,0.6667,0,0)" width="163"/>
  <atv:overwrite height="45" id="outer_frame" transform="matrix(0.4848,0,0,0.6667,0,0)" width="165"/>
 </svg>
 <text atv:refpx="407.5" atv:refpy="-359.5" fill="$FONTCOLOR$" font-family="Arial" font-size="12" id="status_message2" text-anchor="middle" x="407.5" y="-355"/>
 <text atv:refpx="466.328" atv:refpy="463.5" fill="#ff0004" font-family="Arial" font-size="14" id="error_message" text-anchor="middle" x="444.328" y="468">&lt;errormessage></text>
 <rect atv:refpx="-413.427" atv:refpy="369.6" fill="#ffffff" height="80" id="id_9" rx="21.026" ry="16" stroke="none" stroke-width="0" width="820" x="20" y="360"/>
 <svg atv:refpx="548" atv:refpy="382" height="30" id="super_user" transform="matrix(1.1,0,0,1,0,0)" width="160" x="418.182" xlink:href="SYSTEM.LIBRARY.ATVISE.OBJECTDISPLAYS.Advanced.checkbox" y="367">
  <atv:argument name="label" value="T{Super User}"/>
  <atv:argument name="fontSize" value="16"/>
  <atv:overwrite id="checkbox_item" transform="matrix(0.9091,0,0,1,0,0)"/>
  <atv:overwrite id="checkbox_symbol" transform="matrix(0.9091,0,0,1,0,0)"/>
  <atv:overwrite id="blinking_frame" transform="matrix(0.9091,0,0,1,0,0)"/>
  <atv:overwrite id="focus_frame" transform="matrix(0.9091,0,0,1,0,0)"/>
  <atv:overwrite id="checkbox_bg" transform="matrix(0.9091,0,0,1,0,0)"/>
  <atv:overwrite id="checkbox_frame" transform="matrix(0.9091,0,0,1,0,0)"/>
  <atv:overwrite id="checkbox_stroke" transform="matrix(0.9091,0,0,1,0,0)"/>
 </svg>
 <svg atv:refpx="135" atv:refpy="382" height="30" id="webmi" transform="matrix(1.1875,0,0,1,0,0)" width="160" x="33.684" xlink:href="SYSTEM.LIBRARY.ATVISE.OBJECTDISPLAYS.Advanced.checkbox" y="367">
  <atv:argument name="label" value="T{Visualization}"/>
  <atv:argument name="fontSize" value="16"/>
  <atv:overwrite id="checkbox_item" transform="matrix(0.8421,0,0,1,0,0)"/>
  <atv:overwrite id="checkbox_symbol" transform="matrix(0.8421,0,0,1,0,0)"/>
  <atv:overwrite id="blinking_frame" transform="matrix(0.8421,0,0,1,0,0)"/>
  <atv:overwrite id="focus_frame" transform="matrix(0.8421,0,0,1,0,0)"/>
  <atv:overwrite id="checkbox_bg" transform="matrix(0.8421,0,0,1,0,0)"/>
  <atv:overwrite id="checkbox_frame" transform="matrix(0.8421,0,0,1,0,0)"/>
  <atv:overwrite id="checkbox_stroke" transform="matrix(0.8421,0,0,1,0,0)"/>
 </svg>
 <svg atv:refpx="231.501" atv:refpy="625" height="30" id="opcua" transform="matrix(2.0187,0,0,1,0,0)" width="160" x="34.676" xlink:href="SYSTEM.LIBRARY.ATVISE.OBJECTDISPLAYS.Advanced.checkbox" y="610">
  <atv:argument name="label" value="T{OPC UA Server (Engineering)}"/>
  <atv:argument name="fontSize" value="16"/>
  <atv:overwrite id="checkbox_item" transform="matrix(0.4954,0,0,1,0,0)"/>
  <atv:overwrite id="checkbox_symbol" transform="matrix(0.4954,0,0,1,0,0)"/>
  <atv:overwrite id="blinking_frame" transform="matrix(0.4954,0,0,1,0,0)"/>
  <atv:overwrite id="focus_frame" transform="matrix(0.4954,0,0,1,0,0)"/>
  <atv:overwrite id="checkbox_bg" transform="matrix(0.4954,0,0,1,0,0)"/>
  <atv:overwrite id="checkbox_frame" transform="matrix(0.4954,0,0,1,0,0)"/>
  <atv:overwrite id="checkbox_stroke" transform="matrix(0.4954,0,0,1,0,0)"/>
 </svg>
 <rect atv:refpx="622.5" atv:refpy="-297" fill="#ffffff" height="80" id="newpassword_background" rx="10" ry="8.889" stroke="none" stroke-width="0" width="390" x="427.5" y="-332"/>
 <rect atv:refpx="411.786" atv:refpy="-366" fill="none" height="50" id="id_5" rx="5.961" ry="5.961" stroke="none" stroke-width="0" width="200" x="517.5" y="-332"/>
 <svg atv:refpx="667.5" atv:refpy="-296" height="30" id="newpassword_input" transform="matrix(1.125,0,0,1,0,0)" width="160" x="513.333" xlink:href="SYSTEM.LIBRARY.ATVISE.OBJECTDISPLAYS.Advanced.in_out_password" y="-322">
  <atv:argument name="validation" value="Password"/>
  <atv:argument name="allowDirectInput" value="Yes"/>
  <atv:argument name="tabIndex" value="3"/>
  <atv:overwrite id="id_2" transform="matrix(0.8889,0,0,1,0,0)" width="174.5"/>
  <atv:overwrite id="id_0" transform="matrix(0.8889,0,0,1,0,0)" width="180"/>
  <atv:overwrite id="clickarea_visibility" transform="matrix(0.8889,0,0,1,0,0)" x="153"/>
  <atv:overwrite id="button_stroke" transform="matrix(0.8889,0,0,1,0,0)" x="155"/>
  <atv:overwrite id="button_eye_slash" transform="matrix(0.7111,0,0,0.85,0,0)" x="196.25"/>
  <atv:overwrite id="button_eye" transform="matrix(0.7111,0,0,0.85,0,0)" x="196.25"/>
  <atv:overwrite id="button_bg" transform="matrix(0.8889,0,0,1,0,0)" x="155"/>
  <atv:overwrite id="input_label" transform="matrix(0.8889,0,0,1,0,0)" x="148.055"/>
  <atv:overwrite id="blinking_frame" transform="matrix(0.8889,0,0,1,0,0)" width="172"/>
  <atv:overwrite id="focus_frame" transform="matrix(0.8889,0,0,1,0,0)" width="176"/>
  <atv:overwrite id="input_bg" transform="matrix(0.8889,0,0,1,0,0)" width="148"/>
  <atv:overwrite id="id_1" transform="matrix(0.8889,0,0,1,0,0)" width="178"/>
  <atv:overwrite id="input_border" transform="matrix(0.8889,0,0,1,0,0)" width="180"/>
 </svg>
 <svg atv:refpx="54.371" atv:refpy="52.37" height="20" id="symbol" transform="matrix(3.8371,0,0,3.8371,0,0)" width="20" x="65.218" xlink:href="$SYMBOL$" y="3.649">
  <atv:argument name="symbolColor" prefix="symbolColor"/>
 </svg>
 <rect atv:refpx="215" atv:refpy="185" fill="#ffffff" height="56.41" id="fullname_background" rx="11.282" ry="11.282" stroke="none" stroke-width="0" width="440" x="222.75" y="110"/>
 <rect atv:refpx="4.286" atv:refpy="115" fill="none" height="56.41" id="id_1" rx="6.725" ry="6.725" stroke="none" stroke-width="0" width="225.641" x="324.288" y="110"/>
 <svg atv:refpx="260" atv:refpy="125" height="30" id="fullname_input" transform="matrix(1.2692,0,0,1.1282,0,0)" width="160" x="308.833" xlink:href="SYSTEM.LIBRARY.ATVISE.OBJECTDISPLAYS.Advanced.in_out_value" y="107.5">
  <atv:argument name="validation" value="String"/>
  <atv:argument name="allowDirectInput" value="Yes"/>
  <atv:argument name="tabIndex" value="3"/>
  <atv:overwrite id="id_2" transform="matrix(0.8889,0,0,1,0,0)" width="174.5"/>
  <atv:overwrite id="id_0" transform="matrix(0.8889,0,0,1,0,0)" width="180"/>
  <atv:overwrite id="input_label" transform="matrix(0.9498,0,0,0.8864,-17.9915,0)" x="179.632" y="21.388"/>
  <atv:overwrite height="25.846" id="blinking_frame" transform="matrix(0.7879,0,0,0.8864,0,0)" width="195.077"/>
  <atv:overwrite height="29.846" id="focus_frame" transform="matrix(0.7879,0,0,0.8864,0,0)" width="199.077"/>
  <atv:overwrite height="25.846" id="input_bg" transform="matrix(0.7879,0,0,0.8864,0,0)" width="195.077"/>
  <atv:overwrite height="31.846" id="id_1" transform="matrix(0.7879,0,0,0.8864,0,0)" width="201.077"/>
  <atv:overwrite height="33.846" id="input_border" transform="matrix(0.7879,0,0,0.8864,0,0)" width="203.077"/>
 </svg>
 <text atv:refpx="333.793" atv:refpy="136.512" fill="$FONTCOLOR$" font-family="Arial" font-size="14" id="fullname_label" transform="matrix(1.1282,0,0,1.1282,-29.9304,-15.9098)" x="237.967" y="141.101">T{Full name}</text>
 <svg atv:dynamic="true" atv:refpx="375" atv:refpy="185" height="30" id="fullname_keyboard" transform="matrix(0.4231,0,0,1.1282,0,0)" width="80" x="1433.165" xlink:href="SYSTEM.LIBRARY.ATVISE.OBJECTDISPLAYS.Advanced.button" y="107.5">
  <atv:argument name="symbol" value="SYSTEM.LIBRARY.ATVISE.OBJECTDISPLAYS.Symbols.20x20.keyboard"/>
  <atv:argument name="visibilitySymbol" value="inherit"/>
  <atv:argument name="visibilityLabel" value="hidden"/>
  <atv:argument name="tabIndex" value="4"/>
  <atv:overwrite id="id_2" transform="matrix(2.6667,0,0,1,0,0)" width="24.5"/>
  <atv:overwrite id="id_0" transform="matrix(2.6667,0,0,1,0,0)" width="29.5"/>
  <atv:overwrite id="id_1" transform="matrix(2.6667,0,0,1,0,0)" width="30"/>
  <atv:overwrite height="31.846" id="id_6" transform="matrix(2.3636,0,0,0.8864,0,0)" width="31.846"/>
  <atv:overwrite id="button_label_2" transform="matrix(2.3636,0,0,0.8864,0,0)" x="16.923" y="28.423"/>
  <atv:overwrite id="button_label_1" transform="matrix(3.2727,0,0,0.8864,9.1607,0)" x="9.423" y="13.423"/>
  <atv:overwrite id="button_label" transform="matrix(3.2727,0,0,0.8864,9.1607,0)" x="9.423" y="21.423"/>
  <atv:overwrite id="button_symbol_bottom" transform="matrix(1.4182,0,0,0.5318,0,0)" x="18.038" y="29.497"/>
  <atv:overwrite id="button_symbol_top" transform="matrix(1.4182,0,0,0.5318,0,0)" x="18.038" y="8.164"/>
  <atv:overwrite id="button_symbol" transform="matrix(2.3636,0,0,0.8864,0,0)" x="6.923" y="6.923"/>
  <atv:overwrite height="29.846" id="button_stroke" transform="matrix(2.3636,0,0,0.8864,0,0)" width="29.846"/>
  <atv:overwrite height="31.846" id="button_bg" transform="matrix(2.3636,0,0,0.8864,0,0)" width="31.846"/>
  <atv:overwrite height="33.846" id="outer_frame" transform="matrix(2.3636,0,0,0.8864,0,0)" width="33.846"/>
 </svg>
 <rect atv:refpx="-186.142" atv:refpy="235" fill="#ffffff" height="56.41" id="default_background" rx="11.282" ry="11.282" stroke="none" stroke-width="0" width="440" x="222.75" y="243.333"/>
 <text atv:refpx="326.606" atv:refpy="269.845" fill="$FONTCOLOR$" font-family="Arial" font-size="14" id="default_label" transform="matrix(1.1282,0,0,1.1282,-29.8853,-33.0031)" x="237.614" y="274.434">T{Default Display}</text>
 <svg atv:refpx="260" atv:refpy="245" height="30" id="display_default_input" transform="matrix(1.2692,0,0,1.1282,0,0)" width="160" x="308.833" xlink:href="SYSTEM.LIBRARY.ATVISE.OBJECTDISPLAYS.Advanced.in_out_value" y="225.682">
  <atv:argument name="validation" value="String"/>
  <atv:argument name="allowDirectInput" value="Yes"/>
  <atv:argument name="tabIndex" value="7"/>
  <atv:overwrite id="id_2" transform="matrix(0.8889,0,0,1,0,0)" width="174.5"/>
  <atv:overwrite id="id_0" transform="matrix(0.8889,0,0,1,0,0)" width="180"/>
  <atv:overwrite id="input_label" transform="matrix(0.9498,0,0,0.8864,-17.9914,0)" x="179.632" y="21.388"/>
  <atv:overwrite height="25.846" id="blinking_frame" transform="matrix(0.7879,0,0,0.8864,0,0)" width="195.077"/>
  <atv:overwrite height="29.846" id="focus_frame" transform="matrix(0.7879,0,0,0.8864,0,0)" width="199.077"/>
  <atv:overwrite height="25.846" id="input_bg" transform="matrix(0.7879,0,0,0.8864,0,0)" width="195.077"/>
  <atv:overwrite height="31.846" id="id_1" transform="matrix(0.7879,0,0,0.8864,0,0)" width="201.077"/>
  <atv:overwrite height="33.846" id="input_border" transform="matrix(0.7879,0,0,0.8864,0,0)" width="203.077"/>
 </svg>
 <svg atv:dynamic="true" atv:refpx="375" atv:refpy="305" height="30" id="display_default_keyboard" transform="matrix(0.4231,0,0,1.1282,0,0)" width="80" x="1433.165" xlink:href="SYSTEM.LIBRARY.ATVISE.OBJECTDISPLAYS.Advanced.button" y="225.682">
  <atv:argument name="symbol" value="SYSTEM.LIBRARY.ATVISE.OBJECTDISPLAYS.Symbols.20x20.keyboard"/>
  <atv:argument name="visibilitySymbol" value="inherit"/>
  <atv:argument name="visibilityLabel" value="hidden"/>
  <atv:argument name="tabIndex" value="8"/>
  <atv:overwrite id="id_2" transform="matrix(2.6667,0,0,1,0,0)" width="24.5"/>
  <atv:overwrite id="id_0" transform="matrix(2.6667,0,0,1,0,0)" width="29.5"/>
  <atv:overwrite id="id_1" transform="matrix(2.6667,0,0,1,0,0)" width="30"/>
  <atv:overwrite height="31.846" id="id_6" transform="matrix(2.3636,0,0,0.8864,0,0)" width="31.846"/>
  <atv:overwrite id="button_label_2" transform="matrix(2.3636,0,0,0.8864,0,0)" x="16.923" y="28.423"/>
  <atv:overwrite id="button_label_1" transform="matrix(3.2727,0,0,0.8864,9.1607,0)" x="9.423" y="13.423"/>
  <atv:overwrite id="button_label" transform="matrix(3.2727,0,0,0.8864,9.1607,0)" x="9.423" y="21.423"/>
  <atv:overwrite id="button_symbol_bottom" transform="matrix(1.4182,0,0,0.5318,0,0)" x="18.038" y="29.497"/>
  <atv:overwrite id="button_symbol_top" transform="matrix(1.4182,0,0,0.5318,0,0)" x="18.038" y="8.164"/>
  <atv:overwrite id="button_symbol" transform="matrix(2.3636,0,0,0.8864,0,0)" x="6.923" y="6.923"/>
  <atv:overwrite height="29.846" id="button_stroke" transform="matrix(2.3636,0,0,0.8864,0,0)" width="29.846"/>
  <atv:overwrite height="31.846" id="button_bg" transform="matrix(2.3636,0,0,0.8864,0,0)" width="31.846"/>
  <atv:overwrite height="33.846" id="outer_frame" transform="matrix(2.3636,0,0,0.8864,0,0)" width="33.846"/>
 </svg>
 <text atv:refpx="503.555" atv:refpy="-307.5" fill="$FONTCOLOR$" font-family="Arial" font-size="16" id="newpassword_label" x="441.5" y="-301.5">T{New password}</text>
 <svg atv:dynamic="true" atv:refpx="782.5" atv:refpy="-296" height="30" id="newpassword_keyboard" transform="matrix(0.375,0,0,1,0,0)" width="80" x="2046.667" xlink:href="SYSTEM.LIBRARY.ATVISE.OBJECTDISPLAYS.Advanced.button" y="-322">
  <atv:argument name="symbol" value="SYSTEM.LIBRARY.ATVISE.OBJECTDISPLAYS.Symbols.20x20.keyboard"/>
  <atv:argument name="visibilitySymbol" value="inherit"/>
  <atv:argument name="visibilityLabel" value="hidden"/>
  <atv:argument name="tabIndex" value="6"/>
  <atv:overwrite id="id_2" transform="matrix(2.6667,0,0,1,0,0)" width="24.5"/>
  <atv:overwrite id="id_0" transform="matrix(2.6667,0,0,1,0,0)" width="29.5"/>
  <atv:overwrite id="id_1" transform="matrix(2.6667,0,0,1,0,0)" width="30"/>
  <atv:overwrite id="id_6" transform="matrix(2.6667,0,0,1,0,0)" width="28"/>
  <atv:overwrite id="button_label_2" transform="matrix(2.6667,0,0,1,0,0)" x="15"/>
  <atv:overwrite id="button_label_1" transform="matrix(2.6667,0,0,1,0,0)" x="15"/>
  <atv:overwrite id="button_label" transform="matrix(2.6667,0,0,1,0,0)" x="15"/>
  <atv:overwrite id="button_symbol_bottom" transform="matrix(1.6,0,0,0.6,0,0)" x="14.833"/>
  <atv:overwrite id="button_symbol_top" transform="matrix(1.6,0,0,0.6,0,0)" x="14.833"/>
  <atv:overwrite id="button_symbol" transform="matrix(2.6667,0,0,1,0,0)" x="5"/>
  <atv:overwrite id="button_stroke" transform="matrix(2.6667,0,0,1,0,0)" width="26"/>
  <atv:overwrite id="button_bg" transform="matrix(2.6667,0,0,1,0,0)" width="28"/>
  <atv:overwrite id="outer_frame" transform="matrix(2.6667,0,0,1,0,0)" width="30"/>
 </svg>
 <text atv:refpx="720.992" atv:refpy="-271" fill="$FONTCOLOR$" font-family="Arial" font-size="14" id="valid_period" text-anchor="end" x="794" y="-265">-</text>
 <text atv:refpx="503.555" atv:refpy="-271.5" fill="$FONTCOLOR$" font-family="Arial" font-size="16" id="valid_period_label" x="441.5" y="-265.5">T{Valid period}</text>
 <g atv:refpx="622.5" atv:refpy="-156" id="requirements_list" transform="matrix(1,0,0,1,-22.5,-432)">
  <rect atv:refpx="243.858" atv:refpy="55" fill="#ffffff" height="150" id="info_background" rx="10" ry="10.715" stroke="none" stroke-width="0" width="390" x="450" y="190"/>
  <text atv:refpx="526.542" atv:refpy="211" fill="$FONTCOLOR$" font-family="Arial" font-size="14" font-weight="bold" id="requirements_label" x="464.5" y="217">T{Requirements}:</text>
  <text atv:refpx="496" atv:refpy="242" fill="$FONTCOLOR$" font-family="Arial" font-size="14" id="req_text1" text-anchor="start" x="489" y="247">- T{None} -</text>
  <text atv:refpx="499.5" atv:refpy="260" fill="$FONTCOLOR$" font-family="Arial" font-size="14" id="req_text2" text-anchor="start" x="489" y="267"/>
  <text atv:refpx="499.5" atv:refpy="280" fill="$FONTCOLOR$" font-family="Arial" font-size="14" id="req_text3" text-anchor="start" x="489" y="287"/>
  <text atv:refpx="499.5" atv:refpy="300" fill="$FONTCOLOR$" font-family="Arial" font-size="14" id="req_text4" text-anchor="start" x="489" y="307"/>
  <text atv:refpx="499.5" atv:refpy="320" fill="$FONTCOLOR$" font-family="Arial" font-size="14" id="req_text5" text-anchor="start" x="489" y="327"/>
  <g atv:refpx="475" atv:refpy="240" id="id_8" transform="matrix(1,0,0,1,440,-53)">
   <svg atv:refpx="35" atv:refpy="295" height="20" id="check1" transform="matrix(0.5,0,0,0.5,0,0)" width="20" x="60" xlink:href="SYSTEM.LIBRARY.ATVISE.OBJECTDISPLAYS.Symbols.20x20.check" y="580">
    <atv:argument name="symbolColor" prefix="symbolColor" value=""/>
   </svg>
   <svg atv:refpx="35" atv:refpy="295" height="20" id="cross1" transform="matrix(0.5,0,0,0.5,0,0)" width="20" x="60" xlink:href="SYSTEM.LIBRARY.ATVISE.OBJECTDISPLAYS.Symbols.20x20.x" y="580">
    <atv:argument name="symbolColor" prefix="symbolColor" value=""/>
   </svg>
  </g>
  <g atv:refpx="475" atv:refpy="259" id="id_7" transform="matrix(1,0,0,1,440,-33)">
   <svg atv:refpx="35" atv:refpy="295" height="20" id="check2" transform="matrix(0.5,0,0,0.5,0,0)" width="20" x="60" xlink:href="SYSTEM.LIBRARY.ATVISE.OBJECTDISPLAYS.Symbols.20x20.check" y="580">
    <atv:argument name="symbolColor" prefix="symbolColor" value=""/>
   </svg>
   <svg atv:refpx="35" atv:refpy="295" height="20" id="cross2" transform="matrix(0.5,0,0,0.5,0,0)" width="20" x="60" xlink:href="SYSTEM.LIBRARY.ATVISE.OBJECTDISPLAYS.Symbols.20x20.x" y="580">
    <atv:argument name="symbolColor" prefix="symbolColor" value=""/>
   </svg>
  </g>
  <g atv:refpx="476" atv:refpy="278" id="id_10" transform="matrix(1,0,0,1,441,-13)">
   <svg atv:refpx="35" atv:refpy="295" height="20" id="check3" transform="matrix(0.5,0,0,0.5,0,0)" width="20" x="60" xlink:href="SYSTEM.LIBRARY.ATVISE.OBJECTDISPLAYS.Symbols.20x20.check" y="580">
    <atv:argument name="symbolColor" prefix="symbolColor" value=""/>
   </svg>
   <svg atv:refpx="35" atv:refpy="295" height="20" id="cross3" transform="matrix(0.5,0,0,0.5,0,0)" width="20" x="60" xlink:href="SYSTEM.LIBRARY.ATVISE.OBJECTDISPLAYS.Symbols.20x20.x" y="580">
    <atv:argument name="symbolColor" prefix="symbolColor" value=""/>
   </svg>
  </g>
  <g atv:refpx="476" atv:refpy="298" id="id_13" transform="matrix(1,0,0,1,441,7)">
   <svg atv:refpx="35" atv:refpy="295" height="20" id="check4" transform="matrix(0.5,0,0,0.5,0,0)" width="20" x="60" xlink:href="SYSTEM.LIBRARY.ATVISE.OBJECTDISPLAYS.Symbols.20x20.check" y="580">
    <atv:argument name="symbolColor" prefix="symbolColor" value=""/>
   </svg>
   <svg atv:refpx="35" atv:refpy="295" height="20" id="cross4" transform="matrix(0.5,0,0,0.5,0,0)" width="20" x="60" xlink:href="SYSTEM.LIBRARY.ATVISE.OBJECTDISPLAYS.Symbols.20x20.x" y="580">
    <atv:argument name="symbolColor" prefix="symbolColor" value=""/>
   </svg>
  </g>
  <g atv:refpx="485" atv:refpy="263" id="id_16" transform="matrix(1,0,0,1,441,27)">
   <svg atv:refpx="35" atv:refpy="295" height="20" id="check5" transform="matrix(0.5,0,0,0.5,0,0)" width="20" x="60" xlink:href="SYSTEM.LIBRARY.ATVISE.OBJECTDISPLAYS.Symbols.20x20.check" y="580">
    <atv:argument name="symbolColor" prefix="symbolColor" value=""/>
   </svg>
   <svg atv:refpx="35" atv:refpy="295" height="20" id="cross5" transform="matrix(0.5,0,0,0.5,0,0)" width="20" x="60" xlink:href="SYSTEM.LIBRARY.ATVISE.OBJECTDISPLAYS.Symbols.20x20.x" y="580">
    <atv:argument name="symbolColor" prefix="symbolColor" value=""/>
   </svg>
  </g>
 </g>
 <script atv:desc="" atv:href="SYSTEM.LIBRARY.PROJECT.DISPLAYSCRIPTS.usermanagement.user_editor" atv:name="user_editor" atv:type="text/ecmascript"/>
 <script atv:desc="" atv:name="" type="text/ecmascript"/>
 <rect atv:refpx="622.5" atv:refpy="-216" fill="none" height="270" id="id_3" stroke="#8e8e8e" stroke-linejoin="round" stroke-width="2" width="410" x="417.5" y="-346"/>
 <svg atv:refpx="534.5" atv:refpy="-365" height="30" id="enable_pwd_change" transform="matrix(1.4125,0,0,1,0,0)" width="160" x="298.407" xlink:href="SYSTEM.LIBRARY.ATVISE.OBJECTDISPLAYS.Advanced.checkbox" y="-380">
  <atv:argument name="label" value="T{Change/Set Password}"/>
  <atv:argument name="fontSize" value="16"/>
  <atv:overwrite id="checkbox_item" transform="matrix(0.708,0,0,1,0,0)"/>
  <atv:overwrite id="checkbox_symbol" transform="matrix(0.708,0,0,1,0,0)"/>
  <atv:overwrite id="blinking_frame" transform="matrix(0.708,0,0,1,0,0)"/>
  <atv:overwrite id="focus_frame" transform="matrix(0.708,0,0,1,0,0)"/>
  <atv:overwrite id="checkbox_bg" transform="matrix(0.708,0,0,1,0,0)"/>
  <atv:overwrite id="checkbox_frame" transform="matrix(0.708,0,0,1,0,0)"/>
  <atv:overwrite id="checkbox_stroke" transform="matrix(0.708,0,0,1,0,0)"/>
 </svg>
 <rect atv:refpx="622.5" atv:refpy="-211" fill="#898989" fill-opacity="0.709804" height="268" id="deactivated_password" stroke="none" stroke-width="0" width="408" x="418.5" y="-345"/>
 <svg atv:refpx="635.001" atv:refpy="665" height="30" id="password_policy" transform="matrix(1.8125,0,0,1,0,0)" width="160" x="270.345" xlink:href="SYSTEM.LIBRARY.ATVISE.OBJECTDISPLAYS.Advanced.checkbox" y="650">
  <atv:argument name="label" value="T{Ignore Password Policy}"/>
  <atv:argument name="fontSize" value="16"/>
  <atv:overwrite id="checkbox_item" transform="matrix(0.5517,0,0,1,0,0)"/>
  <atv:overwrite id="checkbox_symbol" transform="matrix(0.5517,0,0,1,0,0)"/>
  <atv:overwrite id="blinking_frame" transform="matrix(0.5517,0,0,1,0,0)"/>
  <atv:overwrite id="focus_frame" transform="matrix(0.5517,0,0,1,0,0)"/>
  <atv:overwrite id="checkbox_bg" transform="matrix(0.5517,0,0,1,0,0)"/>
  <atv:overwrite id="checkbox_frame" transform="matrix(0.5517,0,0,1,0,0)"/>
  <atv:overwrite id="checkbox_stroke" transform="matrix(0.5517,0,0,1,0,0)"/>
 </svg>
</svg>
