<?xml version='1.0' encoding='UTF-8' standalone='no'?>
<!-- Uploaded to: SVG Repo, www.svgrepo.com, Generator: SVG Repo Mixer Tools -->
<svg height="23.699999999999999" version="1.1" width="23.73" xmlns="http://www.w3.org/2000/svg" xmlns:atv="http://webmi.atvise.com/2007/svgext" xmlns:cc="http://creativecommons.org/ns#" xmlns:dc="http://purl.org/dc/elements/1.1/" xmlns:rdf="http://www.w3.org/1999/02/22-rdf-syntax-ns#" xmlns:xlink="http://www.w3.org/1999/xlink">
 <defs/>
 <metadata>
  <atv:gridconfig enabled="false" gridstyle="lines" height="20" width="20"/>
  <atv:snapconfig enabled="false" height="10" width="10"/>
 </metadata>
 <g atv:refpx="11.866" atv:refpy="11.85" id="id_2" transform="matrix(1,0,0,1,-0.1339,-1028.5)">
  <path atv:refpx="12" atv:refpy="1040.35" d="M4.221,1031.2L6.343,1031.9L6.497,1032C6.841,1031.8 7.195,1031.6 7.558,1031.4L7.492,1031.2L7.912,1029L9.856,1028.5L11.337,1030.2L11.381,1030.4C11.797,1030.3 12.203,1030.3 12.619,1030.4L12.663,1030.2L14.143,1028.5L16.088,1029L16.508,1031.2L16.442,1031.4C16.804,1031.6 17.159,1031.8 17.502,1032L17.657,1031.9L19.778,1031.2L21.192,1032.6L20.485,1034.7L20.331,1034.9C20.557,1035.2 20.769,1035.6 20.949,1035.9L21.148,1035.9L23.336,1036.3L23.866,1038.2L22.165,1039.7L21.988,1039.7C22.014,1040.2 22.014,1040.6 21.988,1041L22.165,1041L23.866,1042.5L23.336,1044.5L21.148,1044.9L20.949,1044.8C20.769,1045.2 20.557,1045.5 20.331,1045.9L20.485,1046L21.192,1048.1L19.778,1049.6L17.657,1048.8L17.502,1048.7C17.159,1048.9 16.804,1049.1 16.442,1049.3L16.508,1049.5L16.088,1051.7L14.143,1052.2L12.663,1050.5L12.619,1050.4L11.381,1050.4L11.337,1050.5L9.856,1052.2L7.912,1051.7L7.492,1049.5L7.558,1049.3C7.195,1049.1 6.841,1048.9 6.497,1048.7L6.343,1048.8L4.221,1049.6L2.807,1048.1L3.514,1046L3.669,1045.9C3.442,1045.5 3.23,1045.2 3.05,1044.8L2.851,1044.9L0.664,1044.5L0.133,1042.5L1.835,1041L2.012,1041C1.986,1040.6 1.986,1040.2 2.012,1039.7L1.835,1039.7L0.133,1038.2L0.664,1036.3L2.851,1035.9L3.05,1035.9C3.23,1035.6 3.442,1035.2 3.669,1034.9L3.514,1034.7L2.807,1032.6L4.221,1031.2ZM7.05,1035.4C4.316,1038.1 4.316,1042.6 7.05,1045.3C9.783,1048 14.216,1048 16.95,1045.3C19.683,1042.6 19.683,1038.1 16.95,1035.4C14.216,1032.7 9.783,1032.7 7.05,1035.4" fill="#95a5a6" id="id_0"/>
  <path atv:refpx="12" atv:refpy="1040.35" d="M6.343,1034.7C9.467,1031.6 14.533,1031.6 17.657,1034.7C20.781,1037.8 20.781,1042.9 17.657,1046C14.533,1049.1 9.467,1049.1 6.343,1046C3.219,1042.9 3.219,1037.8 6.343,1034.7ZM7.823,1034.8L9.989,1036.9C10.874,1036.4 11.885,1036.2 12.862,1036.5L14.254,1033.7C12.112,1033 9.702,1033.4 7.823,1034.8M6.409,1036.2C5.003,1038.1 4.643,1040.5 5.37,1042.6L8.088,1041.2C7.871,1040.2 8.053,1039.2 8.575,1038.4ZM10.585,1038.9C9.804,1039.7 9.804,1041 10.585,1041.8C11.367,1042.6 12.633,1042.6 13.413,1041.8C14.194,1041 14.194,1039.7 13.413,1038.9C12.632,1038.2 11.366,1038.2 10.585,1038.9M16.021,1034.7L14.629,1037.4C14.691,1037.4 14.767,1037.5 14.828,1037.5C15.517,1038.2 15.895,1039.1 15.977,1040L18.983,1040.5C19.005,1038.6 18.339,1036.8 16.95,1035.4C16.662,1035.1 16.343,1034.9 16.021,1034.7M6.298,1044.4C6.526,1044.7 6.762,1045 7.05,1045.3C8.439,1046.7 10.267,1047.4 12.087,1047.3L11.645,1044.3C10.745,1044.3 9.86,1043.9 9.171,1043.2C9.111,1043.1 9.072,1043.1 9.016,1043ZM15.667,1042C15.473,1042.4 15.193,1042.8 14.827,1043.2C14.462,1043.6 14.037,1043.8 13.59,1044L14.054,1047.1C15.112,1046.7 16.113,1046.1 16.95,1045.3C17.787,1044.5 18.371,1043.5 18.695,1042.4Z" fill="#7f8c8d" id="id_1"/>
 </g>
</svg>
