<?xml version='1.0' encoding='UTF-8' standalone='no'?>
<svg height="280" version="1.2" width="430" xmlns="http://www.w3.org/2000/svg" xmlns:atv="http://webmi.atvise.com/2007/svgext" xmlns:xlink="http://www.w3.org/1999/xlink">
 <defs>
  <linearGradient gradientUnits="objectBoundingBox" id="linear_0" x1="0" x2="1" y1="0" y2="1">
   <stop offset="0" stop-color="#000000"/>
   <stop offset="1" stop-color="#000000" stop-opacity="0"/>
  </linearGradient>
 </defs>
 <desc>Simple display that can be used as dialog to login.</desc>
 <title>Login Dialog</title>
 <metadata>
  <atv:parameter behavior="optional" defaultvalue="SYSTEM.GLOBALS.atvFontColor" desc="font color" name="fontColor" substitute="$FONTCOLOR$" valuetype="global"/>
  <atv:parameter behavior="optional" defaultvalue="SYSTEM.GLOBALS.atvFillColor" desc="fill color" name="fillColor" substitute="$FILLCOLOR$" valuetype="global"/>
  <atv:parameter behavior="optional" defaultvalue="SYSTEM.GLOBALS.atvSymbolColor" desc="symbol color" name="symbolColor" substitute="$SYMBOLCOLOR$" valuetype="global"/>
  <atv:parameter behavior="optional" defaultvalue="SYSTEM.LIBRARY.ATVISE.OBJECTDISPLAYS.Advanced.keyboard.keyboard" desc="keyboard display" name="keyboard" valuetype="display"/>
  <atv:parameter behavior="optional" defaultvalue="SYSTEM.LIBRARY.ATVISE.OBJECTDISPLAYS.Advanced.keyboard.number_keyboard" desc="number keyboard display" name="number_keyboard" valuetype="display"/>
  <atv:gridconfig enabled="true" gridstyle="lines" height="20" width="20"/>
  <atv:snapconfig enabled="true" height="5" width="5"/>
 </metadata>
 <rect atv:refpx="215" atv:refpy="140" fill="$FILLCOLOR$" height="280" id="background" stroke="none" stroke-width="0" width="430" x="0" y="0"/>
 <rect atv:refpx="236.728" atv:refpy="90" fill="#ffffff" height="70" id="code_background" rx="10" ry="10" stroke="none" stroke-width="0" width="330" x="50" y="55"/>
 <svg atv:refpx="149.667" atv:refpy="90" height="30" id="code_input" transform="matrix(0.875,0,0,2,0,0)" width="160" x="85.714" xlink:href="SYSTEM.LIBRARY.ATVISE.OBJECTDISPLAYS.Advanced.in_out_value" y="30">
  <atv:argument name="validation" value="String"/>
  <atv:argument name="allowDirectInput" value="Yes"/>
  <atv:argument name="tabIndex" value="1"/>
  <atv:overwrite id="id_2" transform="matrix(0.8889,0,0,1,0,0)" width="174.5"/>
  <atv:argument name="selectTextOnFocus" value="true"/>
  <atv:argument name="fontSize" value="36"/>
  <atv:overwrite height="60" id="id_0" transform="matrix(1.1429,0,0,0.5,0,0)" width="140"/>
  <atv:overwrite id="input_label" transform="matrix(1.1429,0,0,0.5,0,0)" x="132.055" y="34.465"/>
  <atv:overwrite height="52" id="blinking_frame" transform="matrix(1.1429,0,0,0.5,0,0)" width="132"/>
  <atv:overwrite height="56" id="focus_frame" transform="matrix(1.1429,0,0,0.5,0,0)" width="136"/>
  <atv:overwrite height="52" id="input_bg" transform="matrix(1.1429,0,0,0.5,0,0)" width="132"/>
  <atv:overwrite height="58" id="id_1" transform="matrix(1.1429,0,0,0.5,0,0)" width="138"/>
 </svg>
 <text atv:refpx="216.499" atv:refpy="30.999" fill="$FONTCOLOR$" font-family="Arial" font-size="16" id="title" text-anchor="middle" x="216.499" y="35.499">T{Two-factor authentication code}</text>
 <text atv:refpx="217.5" atv:refpy="187.5" fill="$FONTCOLOR$" font-family="Arial" font-size="12" id="status_message" text-anchor="middle" x="217.5" y="192"/>
 <svg atv:dynamic="true" atv:refpx="260" atv:refpy="90" height="30" id="code_keyboard" transform="matrix(0.75,0,0,2,0,0)" width="80" x="300" xlink:href="SYSTEM.LIBRARY.ATVISE.OBJECTDISPLAYS.Advanced.button" y="30">
  <atv:argument name="symbol" value="SYSTEM.LIBRARY.ATVISE.OBJECTDISPLAYS.Symbols.20x20.keyboard"/>
  <atv:argument name="visibilitySymbol" value="inherit"/>
  <atv:argument name="visibilityLabel" value="hidden"/>
  <atv:overwrite id="id_2" transform="matrix(2.6667,0,0,1,0,0)" width="24.5"/>
  <atv:overwrite id="id_0" transform="matrix(2.6667,0,0,1,0,0)" width="29.5"/>
  <atv:overwrite id="id_1" transform="matrix(2.6667,0,0,1,0,0)" width="30"/>
  <atv:argument name="tabIndex" value="2"/>
  <atv:argument name="label" value="T{Keyboard}"/>
  <atv:overwrite height="58" id="id_6" transform="matrix(1.3333,0,0,0.5,0,0)" width="58"/>
  <atv:overwrite id="button_label_2" transform="matrix(1.3333,0,0,0.5,0,0)" x="30" y="41.5"/>
  <atv:overwrite id="button_label_1" transform="matrix(1.3333,0,0,0.5,0,0)" x="30" y="26.5"/>
  <atv:overwrite id="button_label" transform="matrix(1.3333,0,0,0.5,0,0)" x="30" y="34.5"/>
  <atv:overwrite id="button_symbol_bottom" transform="matrix(0.8,0,0,0.3,0,0)" x="39.833" y="51.292"/>
  <atv:overwrite id="button_symbol_top" transform="matrix(0.8,0,0,0.3,0,0)" x="39.833" y="29.959"/>
  <atv:overwrite id="button_symbol" transform="matrix(1.3333,0,0,0.5,0,0)" x="20" y="20"/>
  <atv:overwrite height="56" id="button_stroke" transform="matrix(1.3333,0,0,0.5,0,0)" width="56"/>
  <atv:overwrite height="58" id="button_bg" transform="matrix(1.3333,0,0,0.5,0,0)" width="58"/>
  <atv:overwrite height="60" id="outer_frame" transform="matrix(1.3333,0,0,0.5,0,0)" width="60"/>
 </svg>
 <svg atv:dynamic="true" atv:refpx="365" atv:refpy="255" height="30" id="mail_keyboard" transform="matrix(0.375,0,0,1,0,0)" width="80" x="933.333" xlink:href="SYSTEM.LIBRARY.ATVISE.OBJECTDISPLAYS.Advanced.button" y="240">
  <atv:argument name="symbol" value="SYSTEM.LIBRARY.ATVISE.OBJECTDISPLAYS.Symbols.20x20.keyboard"/>
  <atv:argument name="visibilitySymbol" value="inherit"/>
  <atv:argument name="visibilityLabel" value="hidden"/>
  <atv:overwrite id="id_2" transform="matrix(2.6667,0,0,1,0,0)" width="24.5"/>
  <atv:overwrite id="id_0" transform="matrix(2.6667,0,0,1,0,0)" width="29.5"/>
  <atv:overwrite id="id_1" transform="matrix(2.6667,0,0,1,0,0)" width="30"/>
  <atv:argument name="tabIndex" value="20"/>
  <atv:overwrite id="id_6" transform="matrix(2.6667,0,0,1,0,0)" width="28"/>
  <atv:overwrite id="button_label_2" transform="matrix(2.6667,0,0,1,0,0)" x="15"/>
  <atv:overwrite id="button_label_1" transform="matrix(2.6667,0,0,1,0,0)" x="15"/>
  <atv:overwrite id="button_label" transform="matrix(2.6667,0,0,1,0,0)" x="15"/>
  <atv:overwrite id="button_symbol_bottom" transform="matrix(1.6,0,0,0.6,0,0)" x="14.833"/>
  <atv:overwrite id="button_symbol_top" transform="matrix(1.6,0,0,0.6,0,0)" x="14.833"/>
  <atv:overwrite id="button_symbol" transform="matrix(2.6667,0,0,1,0,0)" x="5"/>
  <atv:overwrite id="button_stroke" transform="matrix(2.6667,0,0,1,0,0)" width="26"/>
  <atv:overwrite id="button_bg" transform="matrix(2.6667,0,0,1,0,0)" width="28"/>
  <atv:overwrite id="outer_frame" transform="matrix(2.6667,0,0,1,0,0)" width="30"/>
 </svg>
 <svg atv:refpx="174.999" atv:refpy="254" height="30" id="mail_input" transform="matrix(2.0625,0,0,1,0,0)" visibility="hidden" width="160" x="4.848" xlink:href="SYSTEM.LIBRARY.ATVISE.OBJECTDISPLAYS.Advanced.in_out_value" y="240">
  <atv:argument name="validation" value="String"/>
  <atv:argument name="tabIndex" value="10"/>
  <atv:overwrite id="id_0" transform="matrix(0.4848,0,0,1,0,0)" width="330"/>
  <atv:overwrite id="input_label" transform="matrix(0.4848,0,0,1,0,0)" x="322.055"/>
  <atv:overwrite id="blinking_frame" transform="matrix(0.4848,0,0,1,0,0)" width="322"/>
  <atv:overwrite id="focus_frame" transform="matrix(0.4848,0,0,1,0,0)" width="326"/>
  <atv:overwrite id="input_bg" transform="matrix(0.4848,0,0,1,0,0)" width="322"/>
  <atv:overwrite id="id_1" transform="matrix(0.4848,0,0,1,0,0)" width="328"/>
 </svg>
 <line atv:refpx="215" atv:refpy="210.5" id="mail_configuration" stroke="#ffffff" stroke-width="2" visibility="hidden" x1="10" x2="420" y1="210" y2="210"/>
 <text atv:refpx="216" atv:refpy="251.5" fill="$FONTCOLOR$" font-family="Arial" font-size="12" id="mail_label" text-anchor="middle" x="219.5" y="256"/>
 <svg atv:dynamic="true" atv:refpx="405" atv:refpy="255" height="30" id="mail_set_button" transform="matrix(0.375,0,0,1,0,0)" width="80" x="1040" xlink:href="SYSTEM.LIBRARY.ATVISE.OBJECTDISPLAYS.Advanced.button" y="240">
  <atv:argument name="label" value=""/>
  <atv:argument name="tabIndex" value="21"/>
  <atv:argument name="borderVisible" value="true"/>
  <atv:argument name="extraBorderColor" value="#ffffff"/>
  <atv:argument name="visibilitySymbol" value="inherit"/>
  <atv:argument name="visibilityLabel" value="hidden"/>
  <atv:overwrite id="id_6" transform="matrix(2.6667,0,0,1,0,0)" width="28"/>
  <atv:overwrite id="button_label_2" transform="matrix(2.6667,0,0,1,0,0)" x="15"/>
  <atv:overwrite id="button_label_1" transform="matrix(2.6667,0,0,1,0,0)" x="15"/>
  <atv:overwrite id="button_label" transform="matrix(2.6667,0,0,1,0,0)" x="15"/>
  <atv:overwrite id="button_symbol_bottom" transform="matrix(1.6,0,0,0.6,0,0)" x="14.833"/>
  <atv:overwrite id="button_symbol_top" transform="matrix(1.6,0,0,0.6,0,0)" x="14.833"/>
  <atv:overwrite id="button_symbol" transform="matrix(2.6667,0,0,1,0,0)" x="5"/>
  <atv:overwrite id="button_stroke" transform="matrix(2.6667,0,0,1,0,0)" width="26"/>
  <atv:overwrite id="button_bg" transform="matrix(2.6667,0,0,1,0,0)" width="28"/>
  <atv:overwrite id="outer_frame" transform="matrix(2.6667,0,0,1,0,0)" width="30"/>
 </svg>
 <svg atv:refpx="39.999" atv:refpy="35.999" height="60" id="status_symbol" transform="matrix(0.6667,0,0,0.6667,0,0)" width="60" x="29.999" xlink:href="SYSTEM.LIBRARY.ATVISE.OBJECTDISPLAYS.Symbols.60x60.login" y="14.999">
  <atv:argument name="symbolColor" prefix="symbolColor" value=""/>
 </svg>
 <svg atv:dynamic="true" atv:refpx="165" atv:refpy="145" height="30" id="action_button" transform="matrix(2.875,0,0,1,0,0)" width="80" x="17.391" xlink:href="SYSTEM.LIBRARY.ATVISE.OBJECTDISPLAYS.Advanced.button" y="135">
  <atv:argument name="label" value="T{Send code via e-mail}"/>
  <atv:argument name="tabIndex" value="4"/>
  <atv:argument name="borderVisible" value="true"/>
  <atv:argument name="extraBorderColor" value="#ffffff"/>
  <atv:overwrite id="id_6" transform="matrix(0.3478,0,0,1,0,0)" width="228"/>
  <atv:overwrite id="button_label_2" transform="matrix(0.3478,0,0,1,0,0)" x="115"/>
  <atv:overwrite id="button_label_1" transform="matrix(0.3478,0,0,1,0,0)" x="115"/>
  <atv:overwrite id="button_label" transform="matrix(0.3478,0,0,1,0,0)" x="115"/>
  <atv:overwrite id="button_symbol_bottom" transform="matrix(0.2087,0,0,0.6,0,0)" x="181.5"/>
  <atv:overwrite id="button_symbol_top" transform="matrix(0.2087,0,0,0.6,0,0)" x="181.5"/>
  <atv:overwrite id="button_symbol" transform="matrix(0.3478,0,0,1,0,0)" x="105"/>
  <atv:overwrite id="button_stroke" transform="matrix(0.3478,0,0,1,0,0)" width="226"/>
  <atv:overwrite id="button_bg" transform="matrix(0.3478,0,0,1,0,0)" width="228"/>
  <atv:overwrite id="outer_frame" transform="matrix(0.3478,0,0,1,0,0)" width="230"/>
 </svg>
 <svg atv:dynamic="true" atv:refpx="335" atv:refpy="150" height="30" id="cancel_button" transform="matrix(1.125,0,0,1,0,0)" width="80" x="257.778" xlink:href="SYSTEM.LIBRARY.ATVISE.OBJECTDISPLAYS.Advanced.button" y="135">
  <atv:argument name="label" value="T{Cancel}"/>
  <atv:argument name="tabIndex" value="5"/>
  <atv:argument name="borderVisible" value="true"/>
  <atv:argument name="extraBorderColor" value="#ffffff"/>
  <atv:overwrite id="id_6" transform="matrix(0.8889,0,0,1,0,0)" width="88"/>
  <atv:overwrite id="button_label_2" transform="matrix(0.8889,0,0,1,0,0)" x="45"/>
  <atv:overwrite id="button_label_1" transform="matrix(0.8889,0,0,1,0,0)" x="45"/>
  <atv:overwrite id="button_label" transform="matrix(0.8889,0,0,1,0,0)" x="45"/>
  <atv:overwrite id="button_symbol_bottom" transform="matrix(0.5333,0,0,0.6,0,0)" x="64.833"/>
  <atv:overwrite id="button_symbol_top" transform="matrix(0.5333,0,0,0.6,0,0)" x="64.833"/>
  <atv:overwrite id="button_symbol" transform="matrix(0.8889,0,0,1,0,0)" x="35"/>
  <atv:overwrite id="button_stroke" transform="matrix(0.8889,0,0,1,0,0)" width="86"/>
  <atv:overwrite id="button_bg" transform="matrix(0.8889,0,0,1,0,0)" width="88"/>
  <atv:overwrite id="outer_frame" transform="matrix(0.8889,0,0,1,0,0)" width="90"/>
 </svg>
 <image atv:bindbr="0.5,0.5" atv:bindtl="0.5,0.5" atv:refpx="10613" atv:refpy="9678" height="0" id="qr_image" transform="matrix(100,0,0,100,0,0)" visibility="hidden" width="0" x="2.32" xlink:href="" y="1.7"/>
 <svg atv:dynamic="true" atv:refpx="330" atv:refpy="90" height="30" id="code_send" transform="matrix(0.75,0,0,2,0,0)" width="80" x="393.333" xlink:href="SYSTEM.LIBRARY.ATVISE.OBJECTDISPLAYS.Advanced.button" y="30">
  <atv:argument name="symbol" value="SYSTEM.LIBRARY.ATVISE.OBJECTDISPLAYS.Symbols.20x20.check"/>
  <atv:argument name="visibilitySymbol" value="inherit"/>
  <atv:overwrite id="id_2" transform="matrix(2.6667,0,0,1,0,0)" width="24.5"/>
  <atv:overwrite id="id_0" transform="matrix(2.6667,0,0,1,0,0)" width="29.5"/>
  <atv:overwrite id="id_1" transform="matrix(2.6667,0,0,1,0,0)" width="30"/>
  <atv:argument name="tabIndex" value="3"/>
  <atv:argument name="label" value="T{OK}"/>
  <atv:argument name="visibilityLabel" value="hidden"/>
  <atv:overwrite height="58" id="id_6" transform="matrix(1.3333,0,0,0.5,0,0)" width="58"/>
  <atv:overwrite id="button_label_2" transform="matrix(1.3333,0,0,0.5,0,0)" x="30" y="41.5"/>
  <atv:overwrite id="button_label_1" transform="matrix(1.3333,0,0,0.5,0,0)" x="30" y="26.5"/>
  <atv:overwrite id="button_label" transform="matrix(1.3333,0,0,0.5,0,0)" x="30" y="34.5"/>
  <atv:overwrite id="button_symbol_bottom" transform="matrix(0.8,0,0,0.3,0,0)" x="39.833" y="51.292"/>
  <atv:overwrite id="button_symbol_top" transform="matrix(0.8,0,0,0.3,0,0)" x="39.833" y="29.959"/>
  <atv:overwrite id="button_symbol" transform="matrix(1.3333,0,0,0.5,0,0)" x="20" y="20"/>
  <atv:overwrite height="56" id="button_stroke" transform="matrix(1.3333,0,0,0.5,0,0)" width="56"/>
  <atv:overwrite height="58" id="button_bg" transform="matrix(1.3333,0,0,0.5,0,0)" width="58"/>
  <atv:overwrite height="60" id="outer_frame" transform="matrix(1.3333,0,0,0.5,0,0)" width="60"/>
 </svg>
 <svg atv:refpx="145.5" atv:refpy="220.004" height="30" id="qr_info" transform="matrix(1.6375,0,0,3.3333,0,0)" visibility="hidden" width="80" x="48.855" xlink:href="SYSTEM.LIBRARY.ATVISE.OBJECTDISPLAYS.Advanced.label" y="51.001">
  <atv:argument name="text" value="T{App authentication not configured.} T{Scan QR code in authenticator app to use app authentication.}"/>
  <atv:argument name="vertical-align" value="middle"/>
  <atv:argument name="horizontal-align" value="center"/>
 </svg>
 <svg atv:refpx="255" atv:refpy="255" height="30" id="mail_domain_input" transform="matrix(1.125,0,0,1,0,0)" width="160" x="146.667" xlink:href="SYSTEM.LIBRARY.ATVISE.OBJECTDISPLAYS.Advanced.combobox" y="240">
  <atv:argument name="tabIndex" value="12"/>
  <atv:overwrite id="focus_frame" transform="matrix(0.8889,0,0,1,0,0)" width="176"/>
  <atv:overwrite id="button_stroke" transform="matrix(0.8889,0,0,1,0,0)" x="155"/>
  <atv:overwrite id="id_7" transform="matrix(0.8889,0,0,1,0,0)" x="155"/>
  <atv:overwrite id="button_bg" transform="matrix(0.8889,0,0,1,0,0)" x="155"/>
  <atv:overwrite id="combobox_label" transform="matrix(0.8889,0,0,1,0,0)" x="145.5"/>
  <atv:overwrite id="blinking_frame" transform="matrix(0.8889,0,0,1,0,0)" width="148"/>
  <atv:overwrite id="combobox_bg" transform="matrix(0.8889,0,0,1,0,0)" width="148"/>
  <atv:overwrite id="id_1" transform="matrix(0.8889,0,0,1,0,0)" width="178"/>
  <atv:overwrite id="id_0" transform="matrix(0.8889,0,0,1,0,0)" width="180"/>
 </svg>
 <svg atv:refpx="85" atv:refpy="255" height="30" id="mail_local_input" transform="matrix(0.9375,0,0,1,0,0)" width="160" x="10.667" xlink:href="SYSTEM.LIBRARY.ATVISE.OBJECTDISPLAYS.Advanced.in_out_value" y="240">
  <atv:argument name="validation" value="String"/>
  <atv:argument name="tabIndex" value="11"/>
  <atv:overwrite id="id_0" transform="matrix(1.0667,0,0,1,0,0)" width="150"/>
  <atv:overwrite id="input_label" transform="matrix(1.0667,0,0,1,0,0)" x="142.055"/>
  <atv:overwrite id="blinking_frame" transform="matrix(1.0667,0,0,1,0,0)" width="142"/>
  <atv:overwrite id="focus_frame" transform="matrix(1.0667,0,0,1,0,0)" width="146"/>
  <atv:overwrite id="input_bg" transform="matrix(1.0667,0,0,1,0,0)" width="142"/>
  <atv:overwrite id="id_1" transform="matrix(1.0667,0,0,1,0,0)" width="148"/>
 </svg>
 <text atv:refpx="216" atv:refpy="226.5" fill="$FONTCOLOR$" font-family="Arial" font-size="12" id="mail_header" text-anchor="middle" visibility="hidden" x="216" y="231">T{E-mail address not configured. Please enter e-mail address}:</text>
 <script atv:desc="" atv:href="SYSTEM.LIBRARY.ATVISE.DISPLAYSCRIPTS.dialogs.login2FA_dialog" atv:name="login2FA_dialog" atv:type="text/ecmascript"/>
 <script atv:desc="" atv:name="" type="text/ecmascript"/>
</svg>
