<svg xmlns:xlink="http://www.w3.org/1999/xlink" stroke-linecap="round" xmlns="http://www.w3.org/2000/svg" class="icon icon-tabler icon-tabler-alert-triangle" fill="none" stroke-width="1.5" stroke-linejoin="round" width="43.170000000000002" height="37.5" stroke="#000000" xmlns:atv="http://webmi.atvise.com/2007/svgext">
 <defs/>
 <metadata>
  <atv:gridconfig enabled="true" gridstyle="lines" height="20" width="20"/>
  <atv:snapconfig enabled="true" height="1" width="1"/>
 </metadata>
 <g atv:refpx="21.585" atv:refpy="18.75" id="id_4" transform="matrix(1,0,0,1,-3.2898,-6.25)">
  <path atv:refpx="24.877" atv:refpy="25" d="M21.333,8.243L3.785,37.535C3.05,38.808 3.045,40.379 3.775,41.656C4.504,42.935 5.856,43.731 7.329,43.747L42.422,43.75C43.893,43.731 45.245,42.935 45.975,41.656C46.704,40.379 46.7,38.808 45.964,37.535L28.414,8.241C27.664,7.006 26.32,6.25 24.875,6.25C23.427,6.25 22.083,7.006 21.333,8.243" fill="#000000" fill-opacity="0" id="id_1" stroke="#000000" stroke-linecap="round" stroke-linejoin="round" stroke-width="1"/>
  <circle atv:refpx="25.5" atv:refpy="38.5" cx="25.5" cy="38.5" fill="#000000" id="id_7" r="1.5" stroke="#000000" stroke-opacity="0" stroke-width="1"/>
  <g atv:refpx="25.367" atv:refpy="23.436" id="id_0" transform="matrix(0.1534,0,0,0.324,-13.9129,-19.0391)">
   <g atv:refpx="256.004" atv:refpy="132.851" id="id_2">
    <path atv:refpx="256.004" atv:refpy="132.851" d="M256.004,108.157C251.111,108.157 247.145,112.122 247.145,117.015L247.145,148.685C247.145,153.577 251.11,157.545 256.004,157.545C260.897,157.545 264.863,153.578 264.863,148.685L264.863,117.015C264.862,112.123 260.897,108.157 256.004,108.157" id="id_3"/>
   </g>
  </g>
 </g>
</svg>
