<?xml version='1.0' encoding='UTF-8'?>
<svg atv:contentheight="846" atv:contentwidth="644" height="965" version="1.2" width="644" xmlns="http://www.w3.org/2000/svg" xmlns:atv="http://webmi.atvise.com/2007/svgext" xmlns:xlink="http://www.w3.org/1999/xlink">
 <defs/>
 <title>Portrait mobile</title>
 <desc>644 x 965</desc>
 <metadata>
  <atv:parameter behavior="optional" defaultvalue="" name="Parent" valuetype="address"/>
  <atv:gridconfig enabled="false" gridstyle="lines" height="20" width="20"/>
  <atv:snapconfig enabled="true" height="10" width="10"/>
 </metadata>
 <svg atv:refpx="322" atv:refpy="483.035" height="600" id="content_iframe" transform="matrix(0.805,0,0,1.41,0,0)" width="800" x="0" xlink:href="SYSTEM.LIBRARY.ATVISE.OBJECTDISPLAYS.Standard.hmi.iframe" y="42.553">
  <atv:argument name="display" value="AGENT.DISPLAYS.MOBILE.Portrait.Main"/>
  <atv:argument name="frameName" value="content"/>
  <atv:argument name="isNavigationFrame" value="true"/>
  <atv:overwrite id="label2" transform="matrix(0.625,0,0,0.9231,0,0)" x="415.5" y="414.11"/>
  <atv:overwrite id="label" transform="matrix(0.625,0,0,0.9231,0,0)" x="549" y="344.5"/>
 </svg>
 <svg atv:refpx="410" atv:refpy="-450" height="120" id="layout_top" width="800" x="10" xlink:href="SYSTEM.LIBRARY.ATVISE.OBJECTDISPLAYS.Advanced.hmi.top_800" y="-510"/>
 <svg atv:refpx="524" atv:refpy="482.994" height="300" id="layout_navi" transform="matrix(1.2,0,0,2.7867,0,0)" width="200" x="336.667" xlink:href="SYSTEM.LIBRARY.ATVISE.OBJECTDISPLAYS.Advanced.navigation" y="23.325">
  <atv:argument name="navHomeDisplay" value="AGENT.DISPLAYS.MOBILE.Portrait.Main"/>
  <atv:argument name="navVisible" value="false"/>
  <atv:argument name="navAnimateType" value="slide-right"/>
  <atv:argument name="navCustomEntry" value="AGENT.DISPLAYS.MOBILE.Portrait"/>
  <atv:overwrite id="navigation_1_description" transform="matrix(0.8333,0,0,0.3589,0,0)"/>
  <atv:argument name="navContainerID" value="menu_container"/>
 </svg>
 <rect atv:refpx="322" atv:refpy="903.667" fill="$FONTCOLOR$" height="3.333" id="line_bottom" stroke="none" stroke-width="0" width="644" x="0" y="906"/>
 <svg atv:refpx="464.383" atv:refpy="1058.137" height="43" id="button1" width="154" x="86" xlink:href="SYSTEM.LIBRARY.ATVISE.OBJECTDISPLAYS.Advanced.layoutelements.button_custom_small" y="915">
  <atv:argument name="target1" value="SYSTEM.LIBRARY.ATVISE.OBJECTDISPLAYS.Advanced.hmi.alarmlist_small_portrait"/>
  <atv:argument name="symbol1" value="SYSTEM.LIBRARY.ATVISE.OBJECTDISPLAYS.Symbols.20x20.alarm"/>
  <atv:argument name="contextmenu1" value="SYSTEM.GLOBALS.atvObjectDisplays.CustomButtonsMenu.LayoutButtonAlarmsPortrait"/>
  <atv:argument name="symbolScaling1" value="200"/>
  <atv:argument name="target2" value="SYSTEM.LIBRARY.ATVISE.OBJECTDISPLAYS.Advanced.hmi.historylist_small_portrait"/>
  <atv:argument name="symbol2" value="SYSTEM.LIBRARY.ATVISE.OBJECTDISPLAYS.Symbols.20x20.history"/>
 </svg>
 <svg atv:refpx="775.269" atv:refpy="1063.137" height="43" id="button3" width="154" x="245" xlink:href="SYSTEM.LIBRARY.ATVISE.OBJECTDISPLAYS.Advanced.layoutelements.button_custom_small" y="915">
  <atv:argument name="target1" value="SYSTEM.LIBRARY.ATVISE.OBJECTDISPLAYS.Advanced.highcharts.main_display_small_portrait"/>
  <atv:argument name="symbol1" value="SYSTEM.LIBRARY.ATVISE.OBJECTDISPLAYS.Symbols.20x20.chart"/>
  <atv:argument name="target1_configName" value="Overview"/>
  <atv:argument name="symbolScaling1" value="120"/>
  <atv:argument name="span" value="false"/>
 </svg>
 <svg atv:refpx="938.243" atv:refpy="1058.137" height="43" id="button4" width="154" x="404" xlink:href="SYSTEM.LIBRARY.ATVISE.OBJECTDISPLAYS.Advanced.layoutelements.button_custom_small" y="915"/>
 <svg atv:refpx="599.829" atv:refpy="936.531" height="30" id="button_navigation" transform="matrix(0.925,0,0,1.4333,0,0)" width="80" x="608.649" xlink:href="SYSTEM.LIBRARY.ATVISE.OBJECTDISPLAYS.Advanced.button" y="638.387">
  <atv:argument name="symbol" value="SYSTEM.LIBRARY.ATVISE.OBJECTDISPLAYS.Symbols.table.burger"/>
  <atv:argument name="visibilitySymbol" value="inherit"/>
  <atv:argument name="visibilityLabel" value="hidden"/>
  <atv:argument name="borderColor" value="SYSTEM.GLOBALS.atvBorderColor2"/>
  <atv:overwrite height="40.999" id="id_6" transform="matrix(1.0811,0,0,0.6977,0,0)" width="72"/>
  <atv:overwrite id="button_label_2" transform="matrix(1.0811,0,0,0.6977,0,0)" x="37" y="32.999"/>
  <atv:overwrite id="button_label_1" transform="matrix(1.0811,0,0,0.6977,0,0)" x="37" y="18"/>
  <atv:overwrite id="button_label" transform="matrix(1.0811,0,0,0.6977,0,0)" x="37" y="26"/>
  <atv:overwrite id="button_symbol" transform="matrix(1.0811,0,0,0.6977,0,0)" x="27" y="11.5"/>
  <atv:overwrite height="38.999" id="button_stroke" transform="matrix(1.0811,0,0,0.6977,0,0)" width="70"/>
  <atv:overwrite height="40.999" id="button_bg" transform="matrix(1.0811,0,0,0.6977,0,0)" width="72"/>
  <atv:overwrite height="42.999" id="outer_frame" transform="matrix(1.0811,0,0,0.6977,0,0)" width="74"/>
 </svg>
 <svg atv:refpx="43" atv:refpy="936.5" height="43" id="button_favorites" width="74" x="7" xlink:href="SYSTEM.LIBRARY.ATVISE.OBJECTDISPLAYS.Advanced.layoutelements.button_favorites_small_half" y="915"/>
 <g atv:refpx="74.918" atv:refpy="30.671" id="logo_clickarea" transform="matrix(0.6667,0,0,0.6667,0,0)">
  <svg atv:refpx="50" atv:refpy="50" height="80" id="layout_logo" transform="matrix(0.75,0,0,0.75,0,0)" width="80" x="38.665" xlink:href="SYSTEM.LIBRARY.ATVISE.OBJECTDISPLAYS.Symbols.atvise_logo" y="18"/>
  <svg atv:refpx="97.384" atv:refpy="29.82" height="12.99" id="layout_logo_r" transform="matrix(2.3446,0,0,2.3446,0,0)" width="48.94" x="33.564" xlink:href="SYSTEM.LIBRARY.ATVISE.OBJECTDISPLAYS.Symbols.atvise_R" y="10.876"/>
  <rect atv:refpx="141.451" atv:refpy="52.002" fill="#000000" fill-opacity="0.0001" height="60" id="logo_click_1" stroke="none" stroke-width="0" width="60" x="27.166" y="13.5"/>
  <rect atv:refpx="212.5" atv:refpy="75" fill="#000000" fill-opacity="0.0001" height="30" id="logo_click_2" stroke="none" stroke-width="0" width="125" x="74.499" y="27.494"/>
 </g>
 <rect atv:refpx="322" atv:refpy="59.666" fill="$FONTCOLOR$" height="3.333" id="line_top" stroke="none" stroke-width="0" width="644" x="0" y="55.667"/>
 <g atv:refpx="532" atv:refpy="23.5" id="id_25" transform="matrix(1,0,0,1,-640,0)">
  <svg atv:refpx="1171.5" atv:refpy="45" height="30" id="layout_date" width="203" x="1070" xlink:href="SYSTEM.LIBRARY.ATVISE.OBJECTDISPLAYS.Advanced.layoutelements.date" y="26">
   <atv:argument name="font_size" value="12"/>
  </svg>
  <svg atv:refpx="1171.5" atv:refpy="11" height="52" id="layout_time" width="203" x="1071" xlink:href="SYSTEM.LIBRARY.ATVISE.OBJECTDISPLAYS.Advanced.layoutelements.time" y="-9">
   <atv:argument name="font_size" value="25"/>
  </svg>
 </g>
 <g atv:refpx="322" atv:refpy="27.668" id="id_24" transform="matrix(1,0,0,1,40.664,6)">
  <svg atv:refpx="305.661" atv:refpy="32.5" height="65" id="box_language" transform="matrix(0.6667,0,0,0.6667,0,0)" width="178" x="239.988" xlink:href="SYSTEM.LIBRARY.ATVISE.OBJECTDISPLAYS.Advanced.layoutelements.box_language_small" y="0"/>
  <svg atv:refpx="479.656" atv:refpy="32.5" height="67" id="box_user" transform="matrix(0.6667,0,0,0.6667,0,0)" width="247" x="425.979" xlink:href="SYSTEM.LIBRARY.ATVISE.OBJECTDISPLAYS.Advanced.layoutelements.box_user_small" y="0">
   <atv:argument name="popup_height" value="870"/>
   <atv:argument name="x" value="25"/>
   <atv:argument name="popup_width" value="650"/>
  </svg>
 </g>
 <script atv:desc="" atv:href="SYSTEM.LIBRARY.ATVISE.DISPLAYSCRIPTS.layouts.Advanced" atv:name="Advanced" atv:type="text/ecmascript"><![CDATA[]]></script>
 <script atv:desc="" atv:name="" type="text/ecmascript"><![CDATA[]]></script>
</svg>
