<?xml version='1.0' encoding='UTF-8' standalone='no'?>
<svg height="360" version="1.2" width="200" xmlns="http://www.w3.org/2000/svg" xmlns:atv="http://webmi.atvise.com/2007/svgext" xmlns:xlink="http://www.w3.org/1999/xlink">
 <defs>
  <linearGradient gradientUnits="objectBoundingBox" id="linear_0" x1="0.581818" x2="1.50909" y1="0.181818" y2="1.65455">
   <stop offset="0" stop-color="#c2c2c2"/>
   <stop offset="1" stop-color="#000000" stop-opacity="0.9882352941176471"/>
  </linearGradient>
 </defs>
 <desc>Simple display that can be used as dialog for choosing colors.</desc>
 <title>Color Picker Dialog</title>
 <metadata>
  <atv:parameter behavior="mandatory" desc="name" name="name" valuetype="string"/>
  <atv:parameter behavior="optional" desc="color" name="color" valuetype="color"/>
  <atv:gridconfig enabled="true" gridstyle="lines" height="20" width="20"/>
  <atv:snapconfig enabled="true" height="10" width="10"/>
 </metadata>
 <text atv:refpx="9.5" atv:refpy="235" fill="#000000" font-family="Arial" font-size="12" font-weight="bold" id="id_4" x="4.5" y="239.5">H:</text>
 <text atv:refpx="9.5" atv:refpy="265" fill="#000000" font-family="Arial" font-size="12" font-weight="bold" id="id_5" x="4.5" y="269.5">S:</text>
 <text atv:refpx="9" atv:refpy="295" fill="#000000" font-family="Arial" font-size="12" font-weight="bold" id="id_6" x="4.5" y="299.5">V:</text>
 <text atv:refpx="109.5" atv:refpy="235" fill="#000000" font-family="Arial" font-size="12" font-weight="bold" id="id_10" x="104.5" y="239.5">R:</text>
 <text atv:refpx="109.5" atv:refpy="265" fill="#000000" font-family="Arial" font-size="12" font-weight="bold" id="id_11" x="104.5" y="269.5">G:</text>
 <text atv:refpx="109.5" atv:refpy="295" fill="#000000" font-family="Arial" font-size="12" font-weight="bold" id="id_12" x="104.5" y="299.5">B:</text>
 <circle atv:refpx="100.882" atv:refpy="74.882" cx="100.882" cy="74.882" fill="#000000" id="id_32" r="69.882" stroke="none" stroke-width="4"/>
 <path atv:dynamic="true" atv:refpx="77.912" atv:refpy="106.786" d="M84.125,138.467C72.467,135.343 63.254,130.023 54.719,121.489L101.104,75.103Z" fill="rgb(2, 71, 254)" fill-opacity="1" id="id_0" stroke="#000000" stroke-width="1" style="fill-rule:evenodd"/>
 <path atv:dynamic="true" atv:refpx="101.104" atv:refpy="107.957" d="M118.082,138.467C106.423,141.591 95.784,141.591 84.125,138.467L101.104,75.103Z" fill="rgb(3, 145, 206)" fill-opacity="1" id="id_3" stroke="#000000" stroke-width="1" style="fill-rule:evenodd"/>
 <path atv:dynamic="true" atv:refpx="124.297" atv:refpy="106.786" d="M147.489,121.489C138.953,130.023 129.74,135.343 118.082,138.467L101.104,75.103Z" fill="rgb(102, 176, 50)" fill-opacity="1" id="id_16" stroke="#000000" stroke-width="1" style="fill-rule:evenodd"/>
 <path atv:dynamic="true" atv:refpx="132.786" atv:refpy="98.297" d="M164.467,92.082C161.343,103.74 156.023,112.954 147.489,121.489L101.104,75.103Z" fill="rgb(208, 234, 43)" fill-opacity="1" id="id_20" stroke="#000000" stroke-width="1" style="fill-rule:evenodd"/>
 <path atv:dynamic="true" atv:refpx="133.957" atv:refpy="75.104" d="M164.467,58.126C167.591,69.784 167.591,80.423 164.467,92.082L101.104,75.103Z" fill="rgb(254, 254, 51)" fill-opacity="1" id="id_21" stroke="#000000" stroke-width="1" style="fill-rule:evenodd"/>
 <path atv:dynamic="true" atv:refpx="132.786" atv:refpy="51.912" d="M147.489,28.719C156.023,37.253 161.343,46.467 164.467,58.126L101.104,75.103Z" fill="rgb(250, 188, 2)" fill-opacity="1" id="id_22" stroke="#000000" stroke-width="1" style="fill-rule:evenodd"/>
 <path atv:dynamic="true" atv:refpx="124.297" atv:refpy="43.423" d="M118.082,11.741C129.74,14.865 138.953,20.184 147.489,28.719L101.104,75.103Z" fill="rgb(251, 153, 2)" fill-opacity="1" id="id_23" stroke="#000000" stroke-width="1" style="fill-rule:evenodd"/>
 <path atv:dynamic="true" atv:refpx="101.104" atv:refpy="42.252" d="M84.125,11.74C95.784,8.617 106.423,8.617 118.082,11.74L101.104,75.103Z" fill="rgb(253, 83, 8)" fill-opacity="1" id="id_24" stroke="#000000" stroke-width="1" style="fill-rule:evenodd"/>
 <path atv:dynamic="true" atv:refpx="69.423" atv:refpy="98.297" d="M54.719,121.489C46.184,112.954 40.864,103.74 37.741,92.082L101.104,75.103Z" fill="rgb(61, 1, 164)" fill-opacity="1" id="id_25" stroke="#000000" stroke-width="1" style="fill-rule:evenodd"/>
 <path atv:dynamic="true" atv:refpx="68.252" atv:refpy="75.104" d="M37.741,92.082C34.616,80.423 34.616,69.784 37.741,58.126L101.104,75.103Z" fill="rgb(134, 1, 175)" fill-opacity="1" id="id_26" stroke="#000000" stroke-width="1" style="fill-rule:evenodd"/>
 <path atv:dynamic="true" atv:refpx="77.912" atv:refpy="43.423" d="M54.719,28.719C63.254,20.184 72.467,14.865 84.125,11.741L101.104,75.103Z" fill="rgb(254, 39, 18)" fill-opacity="1" id="id_27" stroke="#000000" stroke-width="1" style="fill-rule:evenodd"/>
 <path atv:dynamic="true" atv:refpx="69.423" atv:refpy="51.912" d="M37.741,58.126C40.864,46.467 46.184,37.253 54.719,28.719L101.104,75.103Z" fill="rgb(167, 25, 75)" fill-opacity="1" id="id_28" stroke="#000000" stroke-width="1" style="fill-rule:evenodd"/>
 <path atv:refpx="-2.576" atv:refpy="-6.749" d="M141.458,75.103C141.458,97.38 123.38,115.458 101.103,115.458C78.828,115.458 60.748,97.38 60.748,75.103C60.748,52.827 78.828,34.749 101.103,34.749C123.38,34.749 141.458,52.827 141.458,75.103" fill="#000000" id="id_29" stroke="#000000" stroke-width="2" style="fill-rule:evenodd"/>
 <path atv:refpx="101.104" atv:refpy="75.104" d="M141.458,75.103C141.458,97.38 123.38,115.458 101.103,115.458C78.828,115.458 60.748,97.38 60.748,75.103C60.748,52.828 78.828,34.749 101.103,34.749C123.38,34.749 141.458,52.828 141.458,75.103" fill="#ffffff" id="preview" stroke="#000000" stroke-width="2" style="fill-rule:evenodd"/>
 <svg atv:dynamic="true" atv:refpx="110" atv:refpy="335" height="30" id="id_18" width="80" x="70" xlink:href="SYSTEM.LIBRARY.ATVISE.OBJECTDISPLAYS.Steelblue.button" y="320">
  <atv:argument name="label" value="T{OK}"/>
  <atv:argument name="tabIndex" value="8"/>
 </svg>
 <text atv:refpx="-22.072" atv:refpy="164.308" fill="#000000" font-family="Arial" font-size="12" font-weight="bold" id="id_19" x="44.5" y="186.5">Hex:</text>
 <svg atv:refpx="125" atv:refpy="182" height="30" id="hexvalue" transform="matrix(0.5625,0,0,1,0,0)" width="160" x="142.222" xlink:href="SYSTEM.LIBRARY.ATVISE.OBJECTDISPLAYS.Steelblue.in_out_value" y="167">
  <atv:overwrite id="vd_unit" transform="matrix(1.7778,0,0,1,0,0)" x="81.5"/>
  <atv:argument name="mode" value="set value"/>
  <atv:argument name="sourceType" value="hexColor"/>
  <atv:argument name="trigger" value="hexChange"/>
  <atv:argument name="initValue" value="#efefef"/>
  <atv:argument name="validation" value="String"/>
  <atv:argument name="tabIndex" value="1"/>
  <atv:overwrite id="id_0" transform="matrix(1.7778,0,0,1,0,0)" width="89.5"/>
  <atv:overwrite id="input_label" transform="matrix(1.7778,0,0,1,0,0)" x="81.5"/>
  <atv:overwrite id="blinking_frame" transform="matrix(1.7778,0,0,1,0,0)" width="83"/>
  <atv:overwrite id="focus_frame" transform="matrix(1.7778,0,0,1,0,0)" width="82"/>
  <atv:overwrite id="id_2" transform="matrix(1.7778,0,0,1,0,0)" width="84.5"/>
  <atv:overwrite id="input_bg" transform="matrix(1.7778,0,0,1,0,0)" width="89.5"/>
 </svg>
 <svg atv:refpx="55" atv:refpy="235" height="30" id="hvalue" transform="matrix(0.4375,0,0,1,0,0)" width="160" x="45.714" xlink:href="SYSTEM.LIBRARY.ATVISE.OBJECTDISPLAYS.Steelblue.picker_value" y="220">
  <atv:argument name="tabIndex" value="2"/>
  <atv:argument name="min" value="0"/>
  <atv:argument name="max" value="360"/>
  <atv:overwrite id="id_0" transform="matrix(2.2857,0,0,1,0,0)" width="69.5"/>
  <atv:overwrite id="clickarea_dec" transform="matrix(2.2857,0,0,1,-205.7143,0)"/>
  <atv:overwrite id="clickarea_inc" transform="matrix(2.2857,0,0,1,-205.7143,0)"/>
  <atv:overwrite id="input_label" transform="matrix(2.2857,0,0,1,0,0)" x="35.5"/>
  <atv:overwrite id="input_bg" transform="matrix(2.2857,0,0,1,0,0)" width="36"/>
  <atv:overwrite id="id_2" transform="matrix(2.2857,0,0,1,0,0)" width="38"/>
 </svg>
 <svg atv:refpx="55" atv:refpy="265" height="30" id="svalue" transform="matrix(0.4375,0,0,1,0,0)" width="160" x="45.714" xlink:href="SYSTEM.LIBRARY.ATVISE.OBJECTDISPLAYS.Steelblue.picker_value" y="250">
  <atv:argument name="tabIndex" value="3"/>
  <atv:argument name="min" value="0"/>
  <atv:argument name="max" value="100"/>
  <atv:overwrite id="id_0" transform="matrix(2.2857,0,0,1,0,0)" width="69.5"/>
  <atv:overwrite id="clickarea_dec" transform="matrix(2.2857,0,0,1,-205.7143,0)"/>
  <atv:overwrite id="clickarea_inc" transform="matrix(2.2857,0,0,1,-205.7143,0)"/>
  <atv:overwrite id="input_label" transform="matrix(2.2857,0,0,1,0,0)" x="35.5"/>
  <atv:overwrite id="input_bg" transform="matrix(2.2857,0,0,1,0,0)" width="36"/>
  <atv:overwrite id="id_2" transform="matrix(2.2857,0,0,1,0,0)" width="38"/>
 </svg>
 <svg atv:refpx="55" atv:refpy="295" height="30" id="vvalue" transform="matrix(0.4375,0,0,1,0,0)" width="160" x="45.714" xlink:href="SYSTEM.LIBRARY.ATVISE.OBJECTDISPLAYS.Steelblue.picker_value" y="280">
  <atv:argument name="tabIndex" value="4"/>
  <atv:argument name="min" value="0"/>
  <atv:argument name="max" value="100"/>
  <atv:overwrite id="id_0" transform="matrix(2.2857,0,0,1,0,0)" width="69.5"/>
  <atv:overwrite id="clickarea_dec" transform="matrix(2.2857,0,0,1,-205.7143,0)"/>
  <atv:overwrite id="clickarea_inc" transform="matrix(2.2857,0,0,1,-205.7143,0)"/>
  <atv:overwrite id="input_label" transform="matrix(2.2857,0,0,1,0,0)" x="35.5"/>
  <atv:overwrite id="input_bg" transform="matrix(2.2857,0,0,1,0,0)" width="36"/>
  <atv:overwrite id="id_2" transform="matrix(2.2857,0,0,1,0,0)" width="38"/>
 </svg>
 <svg atv:refpx="155" atv:refpy="235" height="30" id="rvalue" transform="matrix(0.4375,0,0,1,0,0)" width="160" x="274.286" xlink:href="SYSTEM.LIBRARY.ATVISE.OBJECTDISPLAYS.Steelblue.picker_value" y="220">
  <atv:argument name="tabIndex" value="5"/>
  <atv:argument name="min" value="0"/>
  <atv:argument name="max" value="255"/>
  <atv:overwrite id="id_0" transform="matrix(2.2857,0,0,1,0,0)" width="69.5"/>
  <atv:overwrite id="clickarea_dec" transform="matrix(2.2857,0,0,1,-205.7143,0)"/>
  <atv:overwrite id="clickarea_inc" transform="matrix(2.2857,0,0,1,-205.7143,0)"/>
  <atv:overwrite id="input_label" transform="matrix(2.2857,0,0,1,0,0)" x="35.5"/>
  <atv:overwrite id="input_bg" transform="matrix(2.2857,0,0,1,0,0)" width="36"/>
  <atv:overwrite id="id_2" transform="matrix(2.2857,0,0,1,0,0)" width="38"/>
 </svg>
 <svg atv:refpx="155" atv:refpy="265" height="30" id="gvalue" transform="matrix(0.4375,0,0,1,0,0)" width="160" x="274.286" xlink:href="SYSTEM.LIBRARY.ATVISE.OBJECTDISPLAYS.Steelblue.picker_value" y="250">
  <atv:argument name="tabIndex" value="6"/>
  <atv:argument name="min" value="0"/>
  <atv:argument name="max" value="255"/>
  <atv:overwrite id="id_0" transform="matrix(2.2857,0,0,1,0,0)" width="69.5"/>
  <atv:overwrite id="clickarea_dec" transform="matrix(2.2857,0,0,1,-205.7143,0)"/>
  <atv:overwrite id="clickarea_inc" transform="matrix(2.2857,0,0,1,-205.7143,0)"/>
  <atv:overwrite id="input_label" transform="matrix(2.2857,0,0,1,0,0)" x="35.5"/>
  <atv:overwrite id="input_bg" transform="matrix(2.2857,0,0,1,0,0)" width="36"/>
  <atv:overwrite id="id_2" transform="matrix(2.2857,0,0,1,0,0)" width="38"/>
 </svg>
 <svg atv:refpx="155" atv:refpy="295" height="30" id="bvalue" transform="matrix(0.4375,0,0,1,0,0)" width="160" x="274.286" xlink:href="SYSTEM.LIBRARY.ATVISE.OBJECTDISPLAYS.Steelblue.picker_value" y="280">
  <atv:argument name="tabIndex" value="7"/>
  <atv:argument name="min" value="0"/>
  <atv:argument name="max" value="255"/>
  <atv:overwrite id="id_0" transform="matrix(2.2857,0,0,1,0,0)" width="69.5"/>
  <atv:overwrite id="clickarea_dec" transform="matrix(2.2857,0,0,1,-205.7143,0)"/>
  <atv:overwrite id="clickarea_inc" transform="matrix(2.2857,0,0,1,-205.7143,0)"/>
  <atv:overwrite id="input_label" transform="matrix(2.2857,0,0,1,0,0)" x="35.5"/>
  <atv:overwrite id="input_bg" transform="matrix(2.2857,0,0,1,0,0)" width="36"/>
  <atv:overwrite id="id_2" transform="matrix(2.2857,0,0,1,0,0)" width="38"/>
 </svg>
 <script atv:desc="" atv:href="SYSTEM.LIBRARY.ATVISE.DISPLAYSCRIPTS.dialogs.picker_color_dialog" atv:name="picker_color_dialog" atv:type="text/ecmascript"/>
 <script atv:desc="" atv:name="" type="text/ecmascript"/>
</svg>
