<?xml version='1.0' encoding='iso-8859-1'?>
<!DOCTYPE svg PUBLIC '-//W3C//DTD SVG 1.1//EN' 'http://www.w3.org/Graphics/SVG/1.1/DTD/svg11.dtd'>
<!-- Generator: Adobe Illustrator 16.0.0, SVG Export Plug-In . SVG Version: 6.00 Build 0)  -->
<svg height="40" id="Capa_1" style="enable-background:new 0 0 310.249 310.249" version="1.1" width="40" x="0px" xml:space="preserve" y="0px" xmlns="http://www.w3.org/2000/svg" xmlns:atv="http://webmi.atvise.com/2007/svgext" xmlns:xlink="http://www.w3.org/1999/xlink">
 <defs/>
 <metadata>
  <atv:gridconfig enabled="false" gridstyle="lines" height="20" width="20"/>
  <atv:snapconfig enabled="true" height="10" width="10"/>
 </metadata>
 <g atv:refpx="20" atv:refpy="20" id="id_1" transform="matrix(0.1289,0,0,0.1649,0,-5.5769)">
  <path atv:refpx="155.124" atv:refpy="155.125" d="M185.475,246.104C185.475,262.863 171.912,276.425 155.153,276.425C138.391,276.425 124.827,262.863 124.827,246.104C124.827,229.339 138.391,215.777 155.153,215.777C171.912,215.777 185.475,229.339 185.475,246.104M85.347,187.728L108.595,207.222C131.784,179.528 178.576,179.528 201.733,207.245L225.012,187.815C207.628,167.033 182.159,155.125 155.152,155.125C128.142,155.125 102.704,167.001 85.347,187.728M42.765,144.287L65.242,164.663C88.193,139.312 120.946,124.802 155.153,124.802C189.331,124.802 222.084,139.312 245.037,164.603L267.485,144.227C238.783,112.598 197.852,94.476 155.153,94.476C112.418,94.475 71.46,112.658 42.765,144.287M0,101.2L22.15,121.901C56.443,85.204 104.925,64.147 155.152,64.147C206.122,64.147 253.324,84.644 288.094,121.84L310.248,101.107C270.265,58.347 213.728,33.824 155.151,33.824C96.543,33.824 40.009,58.375 0,101.2" id="id_0"/>
 </g>
 <g atv:refpx="0" atv:refpy="0" id="id_2"/>
 <g atv:refpx="0" atv:refpy="0" id="id_3"/>
 <g atv:refpx="0" atv:refpy="0" id="id_4"/>
 <g atv:refpx="0" atv:refpy="0" id="id_5"/>
 <g atv:refpx="0" atv:refpy="0" id="id_6"/>
 <g atv:refpx="0" atv:refpy="0" id="id_7"/>
 <g atv:refpx="0" atv:refpy="0" id="id_8"/>
 <g atv:refpx="0" atv:refpy="0" id="id_9"/>
 <g atv:refpx="0" atv:refpy="0" id="id_10"/>
 <g atv:refpx="0" atv:refpy="0" id="id_11"/>
 <g atv:refpx="0" atv:refpy="0" id="id_12"/>
 <g atv:refpx="0" atv:refpy="0" id="id_13"/>
 <g atv:refpx="0" atv:refpy="0" id="id_14"/>
 <g atv:refpx="0" atv:refpy="0" id="id_15"/>
 <g atv:refpx="0" atv:refpy="0" id="id_16"/>
 <script atv:desc="" atv:name="" type="text/ecmascript"/>
</svg>
