<?xml version='1.0' encoding='UTF-8' standalone='no'?>
<svg height="165" version="1.2" width="540" xmlns="http://www.w3.org/2000/svg" xmlns:atv="http://webmi.atvise.com/2007/svgext" xmlns:xlink="http://www.w3.org/1999/xlink">
 <defs/>
 <desc>For naming favorite links.</desc>
 <title>Favorites Name Input</title>
 <metadata>
  <atv:parameter behavior="optional" defaultvalue="SYSTEM.GLOBALS.atvFillColor" desc="background color" name="fillColor" substitute="$FILLCOLOR$" valuetype="global"/>
  <atv:parameter behavior="optional" config="Arial;Courier;Tahoma;Verdana" defaultvalue="Arial" desc="font family" group="Font" name="fontFamily" substitute="$FONTFAMILY$" valuetype="enum"/>
  <atv:parameter behavior="optional" defaultvalue="14" desc="font size" group="Font" name="fontSize" substitute="$FONTSIZE$" valuetype="number"/>
  <atv:parameter behavior="optional" defaultvalue="SYSTEM.GLOBALS.atvFontColor" desc="font color" group="Font" name="fontColor" substitute="$FONTCOLOR$" valuetype="string"/>
  <atv:gridconfig enabled="false" gridstyle="lines" height="20" width="20"/>
  <atv:snapconfig enabled="false" height="10" width="10"/>
 </metadata>
 <rect atv:refpx="257.143" atv:refpy="112.75" fill="$FILLCOLOR$" height="165" id="background" stroke="none" stroke-width="0" width="540" x="0" y="0"/>
 <text atv:refpx="45.5" atv:refpy="21.5" fill="$FONTCOLOR$" font-family="$FONTFAMILY$" font-size="$FONTSIZE$" font-weight="bold" id="display_address_label" x="15.5" y="26">T{Display}:</text>
 <text atv:refpx="35.5" atv:refpy="42.5" fill="$FONTCOLOR$" font-family="$FONTFAMILY$" font-size="$FONTSIZE$" id="display_address_1" x="15.5" y="47">Display</text>
 <svg atv:refpx="212.001" atv:refpy="96" height="30" id="fav_name" transform="matrix(2.4625,0,0,1,0,0)" width="160" x="6.092" xlink:href="SYSTEM.LIBRARY.ATVISE.OBJECTDISPLAYS.Advanced.in_out_value" y="100">
  <atv:argument name="tabIndex" value="1"/>
  <atv:argument name="validation" value="String"/>
  <atv:argument name="fontSize" value="14"/>
  <atv:argument name="selectTextOnFocus" value="true"/>
  <atv:overwrite id="input_label" transform="matrix(0.4061,0,0,1,0,0)" x="386.055"/>
  <atv:overwrite id="blinking_frame" transform="matrix(0.4061,0,0,1,0,0)" width="386"/>
  <atv:overwrite id="focus_frame" transform="matrix(0.4061,0,0,1,0,0)" width="390"/>
  <atv:overwrite id="input_bg" transform="matrix(0.4061,0,0,1,0,0)" width="386"/>
  <atv:overwrite id="id_1" transform="matrix(0.4061,0,0,1,0,0)" width="392"/>
  <atv:overwrite id="id_0" transform="matrix(0.4061,0,0,1,0,0)" width="394"/>
 </svg>
 <text atv:refpx="54.5" atv:refpy="86.5" fill="$FONTCOLOR$" font-family="$FONTFAMILY$" font-size="$FONTSIZE$" font-weight="bold" id="fav_name_label" x="15.5" y="91">T{Name}:</text>
 <svg atv:refpx="471.488" atv:refpy="96" height="30" id="button" transform="matrix(1.35,0,0,1,0,0)" width="80" x="307.408" xlink:href="SYSTEM.LIBRARY.ATVISE.OBJECTDISPLAYS.Advanced.button" y="100">
  <atv:argument name="tabIndex" value="2"/>
  <atv:argument name="label" value="T{Add}"/>
  <atv:argument name="fontSize" value="14"/>
  <atv:overwrite id="id_6" transform="matrix(0.7407,0,0,1,0,0)" width="106"/>
  <atv:overwrite id="button_label_2" transform="matrix(0.7407,0,0,1,0,0)" x="54"/>
  <atv:overwrite id="button_label_1" transform="matrix(0.7407,0,0,1,0,0)" x="54"/>
  <atv:overwrite id="button_label" transform="matrix(0.7407,0,0,1,0,0)" x="54"/>
  <atv:overwrite id="button_symbol" transform="matrix(-0.2963,0,0,1,0,0)" x="-145"/>
  <atv:overwrite id="button_stroke" transform="matrix(0.7407,0,0,1,0,0)" width="104"/>
  <atv:overwrite id="button_bg" transform="matrix(0.7407,0,0,1,0,0)" width="106"/>
  <atv:overwrite id="outer_frame" transform="matrix(0.7407,0,0,1,0,0)" width="108"/>
 </svg>
 <text atv:refpx="39.5" atv:refpy="148.739" fill="#ff0000" font-family="$FONTFAMILY$" font-size="$FONTSIZE$" id="error" visibility="hidden" x="17.5" y="153.239">T{Error}:</text>
 <text atv:refpx="35.731" atv:refpy="60.978" fill="$FONTCOLOR$" font-family="$FONTFAMILY$" font-size="$FONTSIZE$" id="display_address_2" x="15.731" y="65.478">Display</text>
 <script atv:desc="" atv:href="SYSTEM.LIBRARY.ATVISE.DISPLAYSCRIPTS.layoutelements.fav_input" atv:name="fav_input" atv:type="text/ecmascript"/>
 <script atv:desc="" atv:name="" type="text/ecmascript"/>
</svg>
