<?xml version='1.0' encoding='UTF-8' standalone='no'?>
<svg enable-background="new 0 0 72 72" height="20" id="Ebene_1" version="1.1" width="20" x="0px" xml:space="preserve" y="0px" xmlns="http://www.w3.org/2000/svg" xmlns:atv="http://webmi.atvise.com/2007/svgext" xmlns:xlink="http://www.w3.org/1999/xlink">
 <defs/>
 <metadata>
  <atv:parameter behavior="optional" defaultvalue="#000000" desc="symbol color" name="symbolColor" substitute="$SYMBOLCOLOR$" valuetype="color"/>
  <atv:gridconfig enabled="false" gridstyle="lines" height="20" width="20"/>
  <atv:snapconfig enabled="false" height="10" width="10"/>
 </metadata>
 <g atv:refpx="10.089" atv:refpy="12.659" id="id_3">
  <path atv:refpx="18.076" atv:refpy="31.828" d="M11.696,15.692L8.447,15.692C8.203,15.692 8.004,15.891 8.004,16.134C8.004,16.378 8.203,16.576 8.447,16.576L11.696,16.576C11.939,16.576 12.137,16.378 12.137,16.134C12.137,15.891 11.939,15.692 11.696,15.692" fill="$SYMBOLCOLOR$" id="id_0" stroke-width="0.42"/>
  <path atv:refpx="18.076" atv:refpy="34.155" d="M11.696,16.856L8.447,16.856C8.203,16.856 8.004,17.055 8.004,17.298C8.004,17.542 8.203,17.74 8.447,17.74L11.696,17.74C11.939,17.74 12.137,17.542 12.137,17.298C12.137,17.055 11.939,16.856 11.696,16.856" fill="$SYMBOLCOLOR$" id="id_1" stroke-width="0.42"/>
  <path atv:refpx="19.099" atv:refpy="36.482" d="M10.672,18.02L9.47,18.02C9.226,18.02 9.028,18.218 9.028,18.461C9.028,18.705 9.226,18.903 9.47,18.903L10.672,18.903C10.915,18.903 11.113,18.705 11.113,18.461C11.114,18.218 10.916,18.02 10.672,18.02" fill="$SYMBOLCOLOR$" id="id_2" stroke-width="0.42"/>
  <circle atv:refpx="5.248" atv:refpy="16.945" cx="10.089" cy="10.529" fill="$SYMBOLCOLOR$" id="id_10" r="4.113" stroke="none" stroke-width="1.099"/>
  <rect atv:refpx="17.831" atv:refpy="41.195" fill="$SYMBOLCOLOR$" height="1.743" id="id_11" rx="1.036" ry="0.76" stroke="none" stroke-width="1.099" width="4.692" x="7.742" y="13.644"/>
 </g>
 <script atv:desc="" atv:name="" type="text/ecmascript"/>
</svg>
