<?xml version='1.0' encoding='UTF-8' standalone='no'?>
<svg height="930" version="1.2" width="1700" xmlns="http://www.w3.org/2000/svg" xmlns:atv="http://webmi.atvise.com/2007/svgext" xmlns:xlink="http://www.w3.org/1999/xlink">
 <defs/>
 <metadata>
  <atv:gridconfig enabled="false" gridstyle="lines" height="20" width="20"/>
  <atv:snapconfig enabled="false" height="10" width="10"/>
 </metadata>
 <script atv:desc="" atv:name="" type="text/ecmascript"><![CDATA[
webMI.addEvent("id_3", "click", function(e) {
var id = "id_3";
var value = true;
webMI.display.openDisplay("SYSTEM.DISPLAYS.Caudalimetro.totalizer_table", webMI.query, "totalizer_options");
});]]><![CDATA[
webMI.addEvent("id_4", "click", function(e) {
var id = "id_4";
var value = true;
webMI.display.openDisplay("SYSTEM.DISPLAYS.Caudalimetro.totalizer_table_01_00", webMI.query, "totalizer_options");
});]]></script>
 <svg atv:refpx="850" atv:refpy="450" height="600" id="id_0" transform="matrix(2.125,0,0,1.5,0,0)" width="800" x="0" xlink:href="SYSTEM.LIBRARY.ATVISE.OBJECTDISPLAYS.Advanced.hmi.iframe" y="0">
  <atv:argument name="frameName" value="totalizer_options"/>
  <atv:argument name="display" value="SYSTEM.DISPLAYS.Caudalimetro.totalizer_table_01_00"/>
  <atv:argument name="base" prefix="base"/>
 </svg>
 <svg atv:refpx="100" atv:refpy="915" height="30" id="id_3" transform="matrix(2.5,0,0,1,0,0)" width="80" x="0" xlink:href="SYSTEM.LIBRARY.ATVISE.OBJECTDISPLAYS.Advanced.button" y="900">
  <atv:argument name="label" value="T{Variables en tiempo real}"/>
  <atv:argument name="fontSize" value="16"/>
  <atv:overwrite id="id_6" transform="matrix(0.4,0,0,1,0,0)" width="198"/>
  <atv:overwrite id="button_label_2" transform="matrix(0.4,0,0,1,0,0)" x="100"/>
  <atv:overwrite id="button_label_1" transform="matrix(0.4,0,0,1,0,0)" x="100.5"/>
  <atv:overwrite id="button_label" transform="matrix(0.4,0,0,1,0,0)" x="100.5"/>
  <atv:overwrite id="button_symbol_bottom" transform="matrix(0.24,0,0,0.6,0,0)" x="156.5"/>
  <atv:overwrite id="button_symbol_top" transform="matrix(0.24,0,0,0.6,0,0)" x="156.5"/>
  <atv:overwrite id="button_symbol" transform="matrix(0.4,0,0,1,0,0)" x="90"/>
  <atv:overwrite id="button_stroke" transform="matrix(0.4,0,0,1,0,0)" width="196"/>
  <atv:overwrite id="button_bg" transform="matrix(0.4,0,0,1,0,0)" width="198"/>
  <atv:overwrite id="outer_frame" transform="matrix(0.4,0,0,1,0,0)" width="200"/>
 </svg>
 <svg atv:refpx="310.001" atv:refpy="915" height="30" id="id_4" transform="matrix(2.5,0,0,1,0,0)" width="80" x="84" xlink:href="SYSTEM.LIBRARY.ATVISE.OBJECTDISPLAYS.Advanced.button" y="900">
  <atv:argument name="label" value="T{Variables al cambio horario}"/>
  <atv:argument name="fontSize" value="16"/>
  <atv:overwrite id="id_6" transform="matrix(0.4,0,0,1,0,0)" width="198"/>
  <atv:overwrite id="button_label_2" transform="matrix(0.4,0,0,1,0,0)" x="100"/>
  <atv:overwrite id="button_label_1" transform="matrix(0.4,0,0,1,0,0)" x="100.5"/>
  <atv:overwrite id="button_label" transform="matrix(0.4,0,0,1,0,0)" x="100.5"/>
  <atv:overwrite id="button_symbol_bottom" transform="matrix(0.24,0,0,0.6,0,0)" x="156.5"/>
  <atv:overwrite id="button_symbol_top" transform="matrix(0.24,0,0,0.6,0,0)" x="156.5"/>
  <atv:overwrite id="button_symbol" transform="matrix(0.4,0,0,1,0,0)" x="90"/>
  <atv:overwrite id="button_stroke" transform="matrix(0.4,0,0,1,0,0)" width="196"/>
  <atv:overwrite id="button_bg" transform="matrix(0.4,0,0,1,0,0)" width="198"/>
  <atv:overwrite id="outer_frame" transform="matrix(0.4,0,0,1,0,0)" width="200"/>
 </svg>
</svg>
