<?xml version='1.0' encoding='UTF-8' standalone='no'?>
<svg height="120" version="1.2" width="1280" xmlns="http://www.w3.org/2000/svg" xmlns:atv="http://webmi.atvise.com/2007/svgext" xmlns:xlink="http://www.w3.org/1999/xlink">
 <defs>
  <linearGradient gradientUnits="objectBoundingBox" id="linear_21" x1="-0.0150911" x2="-0.0150911" y1="-7.18755e-05" y2="1.58424">
   <stop offset="0" stop-color="#c9c9c9"/>
   <stop offset="0.7117903930131004" stop-color="#000000"/>
  </linearGradient>
  <linearGradient gradientUnits="objectBoundingBox" id="linear_30" x1="1" x2="1" y1="0.0149254" y2="1">
   <stop offset="0" stop-color="#ffffff" stop-opacity="0.392156862745098"/>
   <stop offset="1" stop-color="#ffffff" stop-opacity="0"/>
  </linearGradient>
  <linearGradient gradientUnits="objectBoundingBox" id="linear_37" x1="1" x2="1" y1="0.0149254" y2="1">
   <stop offset="0" stop-color="#ffffff" stop-opacity="0.392156862745098"/>
   <stop offset="1" stop-color="#ffffff" stop-opacity="0"/>
  </linearGradient>
  <linearGradient gradientUnits="objectBoundingBox" id="linear_36" x1="-0.223972" x2="1" y1="1" y2="1">
   <stop offset="0" stop-color="#000000"/>
   <stop offset="1" stop-color="#ffffff" stop-opacity="0"/>
  </linearGradient>
  <linearGradient gradientUnits="objectBoundingBox" id="linear_38" x1="1" x2="1" y1="0.0149254" y2="1">
   <stop offset="0" stop-color="#ffffff" stop-opacity="0.392156862745098"/>
   <stop offset="1" stop-color="#ffffff" stop-opacity="0"/>
  </linearGradient>
  <linearGradient gradientUnits="objectBoundingBox" id="linear_39" x1="-0.223972" x2="1" y1="1" y2="1">
   <stop offset="0" stop-color="#000000"/>
   <stop offset="1" stop-color="#ffffff" stop-opacity="0"/>
  </linearGradient>
  <radialGradient cx="0.5" cy="0.5" fx="0.5" fy="0.5" gradientUnits="objectBoundingBox" id="radial_48" r="0.574373">
   <stop offset="0.5152838427947598" stop-color="#000000" stop-opacity="0"/>
   <stop offset="0.8253275109170306" stop-color="#000000" stop-opacity="0.6078431372549019"/>
   <stop offset="1" stop-color="#000000"/>
  </radialGradient>
  <linearGradient gradientUnits="objectBoundingBox" id="linear_49" x1="1" x2="1" y1="0.036325" y2="1">
   <stop offset="0.1703056768558952" stop-color="#000000"/>
   <stop offset="1" stop-color="#c2c2c2"/>
  </linearGradient>
  <linearGradient gradientUnits="objectBoundingBox" id="linear_51" x1="1" x2="1" y1="0.036325" y2="1">
   <stop offset="0.1703056768558952" stop-color="#000000"/>
   <stop offset="1" stop-color="#c2c2c2"/>
  </linearGradient>
  <radialGradient cx="0.5" cy="0.5" fx="0.5" fy="0.5" gradientUnits="objectBoundingBox" id="radial_52" r="0.574373">
   <stop offset="0.5152838427947598" stop-color="#000000" stop-opacity="0"/>
   <stop offset="0.8253275109170306" stop-color="#000000" stop-opacity="0.6078431372549019"/>
   <stop offset="1" stop-color="#000000"/>
  </radialGradient>
 </defs>
 <desc>Is used as the top frame by default.</desc>
 <title>Topframe Large (1280x120)</title>
 <metadata>
  <atv:parameter behavior="optional" defaultvalue="SYSTEM.LIBRARY.ATVISE.OBJECTDISPLAYS.Standard.dialogs.message_dialog" desc="message dialog" name="message_dialog" valuetype="display"/>
  <atv:parameter behavior="optional" defaultvalue="SYSTEM.LIBRARY.ATVISE.OBJECTDISPLAYS.Standard.dialogs.message_dialog_small" desc="small message dialog" name="message_dialog_small" valuetype="display"/>
  <atv:parameter behavior="optional" defaultvalue="SYSTEM.LIBRARY.ATVISE.OBJECTDISPLAYS.Standard.dialogs.user_editor" desc="user editor dialog" name="user_dialog" valuetype="display"/>
  <atv:parameter behavior="optional" defaultvalue="SYSTEM.LIBRARY.ATVISE.OBJECTDISPLAYS.Standard.dialogs.pw_editor" desc="password editor dialog" name="password_dialog" valuetype="display"/>
  <atv:parameter behavior="optional" defaultvalue="0" desc="min alarm priority" group="Alarm" name="minAlarmPriority" scope="" valuetype="number"/>
  <atv:parameter behavior="optional" defaultvalue="0" desc="max alarm priority" group="Alarm" name="maxAlarmPriority" valuetype="number"/>
  <atv:parameter behavior="optional" defaultvalue="SYSTEM.LIBRARY.ATVISE.OBJECTDISPLAYS.Standard.redundancy.warning_dialog" group="Notifications" desc="redundancy warning dialog" name="redundancy_warning_dialog" valuetype="display"/>
  <atv:parameter behavior="optional" defaultvalue="SYSTEM.LIBRARY.ATVISE.OBJECTDISPLAYS.Standard.dialogs.message_dialog" group="Notifications" desc="redundancy connection dialog" name="redundancy_connection_dialog" valuetype="display"/>
  <atv:parameter behavior="optional" defaultvalue="true" group="Notifications" desc="show SOP notification" name="show_sop_change" valuetype="bool"/>
  <atv:parameter behavior="optional" defaultvalue="true" group="Notifications" desc="show connection notification" name="show_con_change" valuetype="bool"/>
  <atv:gridconfig enabled="false" gridstyle="lines" height="10" width="10"/>
  <atv:snapconfig enabled="false" height="2" width="2"/>
 </metadata>
 <path atv:refpx="355.987" atv:refpy="59.436" d="M0,0" fill="#000088" id="id_33" stroke="#0000ff" stroke-width="2"/>
 <path atv:refpx="640" atv:refpy="59.75" d="M1280,99.415C1280,99.415 1280,119.249 1260,119.249C1240,119.249 20,119.249 20,119.249C20,119.249 0,119.249 0,99.415C0,79.582 0,0.249 0,0.249C0,0.249 1280,0.249 1280,0.249C1280,0.249 1280,99.415 1280,99.415" fill="url(#linear_21)" id="id_10" stroke="#c8c8c8" stroke-width="1"/>
 <svg atv:refpx="773.498" atv:refpy="95.502" height="30" id="id_29" transform="matrix(0.5625,0,0,1.5,0,0)" width="80" x="1335.111" xlink:href="SYSTEM.LIBRARY.ATVISE.OBJECTDISPLAYS.Standard.button_open_display" y="48.667">
  <atv:argument name="display" value="SYSTEM.LIBRARY.ATVISE.OBJECTDISPLAYS.Standard.hmi.historylist"/>
  <atv:argument name="symbol" value="SYSTEM.LIBRARY.ATVISE.OBJECTDISPLAYS.Symbols.20x20.history"/>
  <atv:argument name="symbolPressed" value="SYSTEM.LIBRARY.ATVISE.OBJECTDISPLAYS.Symbols.20x20.history"/>
  <atv:argument name="symbolColor" value="#ffffff"/>
  <atv:argument name="visibilityLabel" value="hidden"/>
  <atv:argument name="visibilitySymbol" value="inherit"/>
  <atv:argument name="tabIndex" value="-999999"/>
  <atv:overwrite id="button_symbol_pressed" transform="matrix(1.7778,0,0,0.6667,0,0)" x="12.5" y="12.5"/>
  <atv:overwrite height="39.5" id="id_2" transform="matrix(1.7778,0,0,0.6667,0,0)" width="39.5"/>
  <atv:overwrite height="44.5" id="id_0" transform="matrix(1.7778,0,0,0.6667,0,0)" width="44.5"/>
  <atv:overwrite height="37" id="button_stroke" transform="matrix(1.7778,0,0,0.6667,0,0)" width="37"/>
  <atv:overwrite id="button_label" transform="matrix(1.7778,0,0,0.6667,0,0)" x="22.5" y="27"/>
  <atv:overwrite id="button_symbol" transform="matrix(1.7778,0,0,0.6667,0,0)" x="12.5" y="12.5"/>
  <atv:overwrite height="37" id="button_bg" transform="matrix(1.7778,0,0,0.6667,0,0)" width="37"/>
 </svg>
 <svg atv:refpx="122" atv:refpy="95.5" height="45" id="id_22" width="160" x="42" xlink:href="SYSTEM.LIBRARY.ATVISE.OBJECTDISPLAYS.Standard.hmi.button_group_display" y="73">
  <atv:argument name="symbolColor" value="#000000"/>
  <atv:argument name="symbolColor2" value="#ffffff"/>
 </svg>
 <svg atv:refpx="308.613" atv:refpy="88" height="45" id="id_13" width="160" x="257" xlink:href="SYSTEM.LIBRARY.ATVISE.OBJECTDISPLAYS.Standard.hmi.button_group_zoom" y="73"/>
 <svg atv:refpx="661" atv:refpy="95.5" height="45" id="id_15" width="160" x="581" xlink:href="SYSTEM.LIBRARY.ATVISE.OBJECTDISPLAYS.Standard.hmi.button_group_alarm" y="73"/>
 <rect atv:refpx="1491.5" atv:refpy="36.5" fill="#000000" height="65" id="id_14" rx="6" ry="4" stroke="none" stroke-width="2" width="655" x="582" y="4"/>
 <rect atv:refpx="-659.448" atv:refpy="3.983" fill="url(#linear_30)" height="20.408" id="id_16" rx="6.008" ry="4.082" stroke="none" stroke-width="2" width="653.098" x="582.939" y="4.911"/>
 <svg atv:refpx="905" atv:refpy="44" height="75" id="id_8" width="650" x="580" xlink:href="SYSTEM.LIBRARY.ATVISE.OBJECTDISPLAYS.Standard.hmi.alarmlog" y="-1">
  <atv:argument name="fill" value="#ff0000"/>
  <atv:argument name="symbolColor" value="#ffffff"/>
  <atv:argument name="fontColor" value="#ffffff"/>
  <atv:argument name="minAlarmPriority" prefix="minAlarmPriority"/>
  <atv:argument name="maxAlarmPriority" prefix="maxAlarmPriority"/>
 </svg>
 <rect atv:refpx="2098.487" atv:refpy="126.5" fill="#000000" height="65" id="id_27" rx="6" ry="6" stroke="none" stroke-width="1.542" width="269" x="258" y="4"/>
 <rect atv:refpx="1479.536" atv:refpy="136.635" fill="url(#linear_37)" height="20.408" id="id_28" rx="6.009" ry="6.123" stroke="none" stroke-width="1.542" width="266.465" x="259.21" y="4.911"/>
 <text atv:refpx="168.561" atv:refpy="-32.5" fill="#ffffff" font-family="Courier New" font-size="12" font-weight="normal" id="username_label" text-anchor="end" x="504" y="47"/>
 <text atv:refpx="-563.436" atv:refpy="-2.5" fill="#ffffff" font-family="Courier New" font-size="12" font-weight="bold" id="id_20" x="280.5" y="47">T{User}:</text>
 <text atv:refpx="-1125.968" atv:refpy="-8.5" fill="#ffffff" font-family="Courier New" font-size="12" font-weight="normal" id="time_label" text-anchor="end" x="504.5" y="36">10:56</text>
 <text atv:refpx="294.5" atv:refpy="31.5" fill="#ffffff" font-family="Courier New" font-size="12" font-weight="bold" id="id_19" x="280.5" y="36">T{Time}:</text>
 <text atv:refpx="-717.182" atv:refpy="-21.5" fill="#ffffff" font-family="Courier New" font-size="12" font-weight="normal" id="language_label" text-anchor="end" x="504" y="58">T{}</text>
 <text atv:refpx="-2055.368" atv:refpy="-51.5" fill="#ffffff" font-family="Courier New" font-size="12" font-weight="bold" id="id_25" x="280.5" y="58">T{Language}:</text>
 <text atv:refpx="-1416.757" atv:refpy="-4.5" fill="#ffffff" font-family="Courier New" font-size="12" font-weight="normal" id="date_label" text-anchor="end" x="504.5" y="25">25.02.2011</text>
 <text atv:refpx="293.5" atv:refpy="20.5" fill="#ffffff" font-family="Courier New" font-size="12" font-weight="bold" id="id_18" x="280.5" y="25">T{Date}:</text>
 <rect atv:refpx="124.5" atv:refpy="-16" fill="url(#linear_36)" height="118" id="id_6" stroke="none" stroke-width="2" width="5" x="552" y="0"/>
 <svg atv:refpx="456.5" atv:refpy="95.499" height="30" id="id_11" transform="matrix(1.5,0,0,1.5,0,0)" width="30" x="289.334" xlink:href="SYSTEM.LIBRARY.ATVISE.OBJECTDISPLAYS.Standard.hmi.button_login" y="48.667">
  <atv:overwrite height="37.5" id="button_stroke" transform="matrix(0.6667,0,0,0.6667,0,0)" width="37.5"/>
  <atv:overwrite id="button_symbol" transform="matrix(0.6667,0,0,0.6667,0,0)" x="12.5" y="12.5"/>
  <atv:overwrite id="button_symbol_pressed" transform="matrix(0.6667,0,0,0.6667,0,0)" x="12.5" y="12.5"/>
  <atv:overwrite height="37.5" id="button_bg" transform="matrix(0.6667,0,0,0.6667,0,0)" width="37.5"/>
  <atv:overwrite height="39.5" id="id_3" transform="matrix(0.6667,0,0,0.6667,0,0)" width="39.5"/>
  <atv:overwrite height="44.5" id="id_0" transform="matrix(0.6667,0,0,0.6667,0,0)" width="44.5"/>
 </svg>
 <svg atv:refpx="504.5" atv:refpy="95.5" height="45" id="id_12" width="45" x="482" xlink:href="SYSTEM.LIBRARY.ATVISE.OBJECTDISPLAYS.Standard.hmi.button_switch_language" y="73">
  <atv:argument name="symbolColor" value="#ffffff"/>
 </svg>
 <rect atv:refpx="1136.713" atv:refpy="126.5" fill="#000000" height="65" id="id_1" rx="6" ry="6" stroke="none" stroke-width="1.542" width="160" x="42" y="4"/>
 <rect atv:refpx="768.334" atv:refpy="136.635" fill="url(#linear_38)" height="20.408" id="id_5" rx="6.009" ry="6.123" stroke="none" stroke-width="1.542" width="158.436" x="42.747" y="4.911"/>
 <g atv:refpx="123.31" atv:refpy="35.969" id="atvise_logo" transform="matrix(0.6198,0,0,0.6198,77.6812,-2.4818)">
  <svg atv:dynamic="true" atv:refpx="159.452" atv:refpy="49.236" height="80" id="id_17" transform="matrix(0.6904,0,0,0.6904,0,0)" width="80" x="-20.434" xlink:href="SYSTEM.LIBRARY.ATVISE.OBJECTDISPLAYS.Symbols.atvise_logo" y="52.536"/>
  <rect atv:refpx="438.506" atv:refpy="54.003" fill="#000000" fill-opacity="0.0001" height="55.2" id="logo_click" stroke="none" stroke-width="0" width="196.914" x="-23.764" y="36.315"/>
  <svg atv:refpx="144.672" atv:refpy="19.737" height="12.99" id="title" transform="matrix(2.3352,0,0,2.3352,0,0)" width="48.94" x="15.283" xlink:href="SYSTEM.LIBRARY.ATVISE.OBJECTDISPLAYS.Symbols.atvise_R" y="19.158">
   <atv:argument name="symbolColor" value="#FFFFFF"/>
  </svg>
 </g>
 <rect atv:refpx="-200.5" atv:refpy="-16" fill="url(#linear_39)" height="118" id="id_7" stroke="none" stroke-width="2" width="5" x="227" y="0"/>
 <g atv:refpx="1170.058" atv:refpy="95.414" id="redu_info" visibility="hidden">
  <g atv:refpx="1141.471" atv:refpy="97.989" id="id_36" transform="matrix(1,0,0,1,-0.9122,0.5935)">
   <text atv:refpx="1153.475" atv:refpy="86.329" fill="#d4d4d4" font-family="Arial" font-size="8" id="id_31" text-anchor="start" x="1133.387" y="89.235">T{STATUS}:</text>
   <text atv:refpx="1151.887" atv:refpy="101.735" fill="#d4d4d4" font-family="Arial" font-size="14" font-weight="bold" id="redu_status" text-anchor="start" x="1133.387" y="105.235"/>
  </g>
  <text atv:refpx="1101.888" atv:refpy="100.328" fill="#d4d4d4" font-family="Arial" font-size="30" font-weight="bold" id="redu_role" x="1103.16" y="104.828"/>
  <svg atv:refpx="1217.783" atv:refpy="95.501" height="30" id="id_43" transform="matrix(0.5625,0,0,1.5,0,0)" width="80" x="2124.95" xlink:href="SYSTEM.LIBRARY.ATVISE.OBJECTDISPLAYS.Standard.button_open_display" y="48.667">
   <atv:argument name="display" value="SYSTEM.LIBRARY.ATVISE.OBJECTDISPLAYS.Standard.redundancy.status"/>
   <atv:argument name="symbol" value="SYSTEM.LIBRARY.ATVISE.OBJECTDISPLAYS.Symbols.20x20.info"/>
   <atv:argument name="symbolPressed" value="SYSTEM.LIBRARY.ATVISE.OBJECTDISPLAYS.Symbols.20x20.info"/>
   <atv:argument name="symbolColor" value="#ffffff"/>
   <atv:argument name="visibilityLabel" value="hidden"/>
   <atv:argument name="visibilitySymbol" value="inherit"/>
   <atv:argument name="tabIndex" value="-999999"/>
   <atv:overwrite id="button_symbol_pressed" transform="matrix(1.7778,0,0,0.6667,0,0)" x="12.5" y="12.5"/>
   <atv:overwrite height="39.5" id="id_2" transform="matrix(1.7778,0,0,0.6667,0,0)" width="39.5"/>
   <atv:overwrite height="44.5" id="id_0" transform="matrix(1.7778,0,0,0.6667,0,0)" width="44.5"/>
   <atv:overwrite height="37" id="button_stroke" transform="matrix(1.7778,0,0,0.6667,0,0)" width="37"/>
   <atv:overwrite id="button_label" transform="matrix(1.7778,0,0,0.6667,0,0)" x="22.5" y="27"/>
   <atv:overwrite id="button_symbol" transform="matrix(1.7778,0,0,0.6667,0,0)" x="12.5" y="12.5"/>
   <atv:overwrite height="37" id="button_bg" transform="matrix(1.7778,0,0,0.6667,0,0)" width="37"/>
  </svg>
 </g>
 <script atv:desc="" atv:href="SYSTEM.LIBRARY.ATVISE.DISPLAYSCRIPTS.hmi.top" atv:name="top" atv:type="text/ecmascript"/>
 <script atv:desc="" atv:name="" type="text/ecmascript"/>
</svg>
