<?xml version='1.0'?>
<!DOCTYPE svg PUBLIC '-//W3C//DTD SVG 1.1//EN' 'http://www.w3.org/Graphics/SVG/1.1/DTD/svg11.dtd'>
<!-- Uploaded to: SVG Repo, www.svgrepo.com, Generator: SVG Repo Mixer Tools -->
<svg enable-background="new 0 0 32 32" height="30" version="1.1" width="24" xml:space="preserve" xmlns="http://www.w3.org/2000/svg" xmlns:atv="http://webmi.atvise.com/2007/svgext" xmlns:xlink="http://www.w3.org/1999/xlink">
 <defs/>
 <metadata>
  <atv:gridconfig enabled="false" gridstyle="lines" height="20" width="20"/>
  <atv:snapconfig enabled="false" height="10" width="10"/>
 </metadata>
 <g atv:refpx="0" atv:refpy="0" id="Energy20"/>
 <g atv:refpx="0" atv:refpy="0" id="Energy19"/>
 <g atv:refpx="0" atv:refpy="0" id="Energy18"/>
 <g atv:refpx="0" atv:refpy="0" id="Energy17"/>
 <g atv:refpx="0" atv:refpy="0" id="Energy16"/>
 <g atv:refpx="0" atv:refpy="0" id="Energy15"/>
 <g atv:refpx="0" atv:refpy="0" id="Energy14"/>
 <g atv:refpx="0" atv:refpy="0" id="Energy13"/>
 <g atv:refpx="0" atv:refpy="0" id="Energy12"/>
 <g atv:refpx="12" atv:refpy="15.002" id="Energy11" transform="matrix(1,0,0,1,-4,-0.9975)">
  <g atv:refpx="16" atv:refpy="15.999" id="id_2">
   <path atv:refpx="16" atv:refpy="15.999" d="M28,19C28,25.62 22.62,31 16,31C9.379,31 4,25.62 4,19C4,12.58 14.83,1.75 15.3,1.29C15.69,0.9 16.31,0.9 16.7,1.29C17.17,1.75 28,12.58 28,19" fill="#34B0C0" id="id_0"/>
  </g>
  <g atv:refpx="11.5" atv:refpy="22.5" id="id_3">
   <path atv:refpx="11.5" atv:refpy="22.5" d="M14,26C10.691,26 8,23.308 8,20C8,19.447 8.447,19 9,19C9.552,19 10,19.447 10,20C10,22.206 11.794,24 14,24C14.552,24 15,24.447 15,25C15,25.552 14.552,26 14,26" fill="#FFFFFF" id="id_1"/>
  </g>
 </g>
 <g atv:refpx="0" atv:refpy="0" id="Energy10"/>
 <g atv:refpx="0" atv:refpy="0" id="Energy09"/>
 <g atv:refpx="0" atv:refpy="0" id="Energy08"/>
 <g atv:refpx="0" atv:refpy="0" id="Energy07"/>
 <g atv:refpx="0" atv:refpy="0" id="Energy06"/>
 <g atv:refpx="0" atv:refpy="0" id="Energy05"/>
 <g atv:refpx="0" atv:refpy="0" id="Energy04"/>
 <g atv:refpx="0" atv:refpy="0" id="Energy03"/>
 <g atv:refpx="0" atv:refpy="0" id="Energy02"/>
 <g atv:refpx="0" atv:refpy="0" id="Energy01"/>
</svg>
