<?xml version='1.0' encoding='UTF-8' standalone='no'?>
<!-- Created with Inkscape (http://www.inkscape.org/) -->
<svg height="9.33" id="svg3920" inkscape:version="0.92.4 (5da689c313, 2019-01-14)" sodipodi:docname="world_of_visualization.svg" version="1.1" width="141.08" xmlns="http://www.w3.org/2000/svg" xmlns:atv="http://webmi.atvise.com/2007/svgext" xmlns:cc="http://creativecommons.org/ns#" xmlns:dc="http://purl.org/dc/elements/1.1/" xmlns:inkscape="http://www.inkscape.org/namespaces/inkscape" xmlns:rdf="http://www.w3.org/1999/02/22-rdf-syntax-ns#" xmlns:sodipodi="http://sodipodi.sourceforge.net/DTD/sodipodi-0.dtd" xmlns:svg="http://www.w3.org/2000/svg" xmlns:xlink="http://www.w3.org/1999/xlink">
 <defs id="defs3914"/>
 <sodipodi:namedview bordercolor="#666666" borderopacity="1.0" id="base" inkscape:current-layer="layer1" inkscape:cx="-75.714286" inkscape:cy="560" inkscape:document-units="mm" inkscape:pageopacity="0.0" inkscape:pageshadow="2" inkscape:window-height="1017" inkscape:window-maximized="1" inkscape:window-width="1920" inkscape:window-x="1912" inkscape:window-y="114" inkscape:zoom="0.35" pagecolor="#ffffff" showgrid="false"/>
 <metadata id="metadata3917">
  <rdf:RDF>
   <cc:Work rdf:about="">
    <dc:format>image/svg+xml</dc:format>
    <dc:type rdf:resource="http://purl.org/dc/dcmitype/StillImage"/>
    <dc:title/>
   </cc:Work>
  </rdf:RDF>
  <atv:gridconfig enabled="false" gridstyle="lines" height="20" width="20"/>
  <atv:snapconfig enabled="false" height="10" width="10"/>
 </metadata>
 <g atv:refpx="70.01" atv:refpy="4.84" id="Logo_x5F_Text_x5F_Weiss">
  <g atv:refpx="70.01" atv:refpy="4.84" id="id_24">
   <path atv:refpx="3.19" atv:refpy="5.05" d="M3.67,9.16L2.71,9.16L2.71,1.79L0.109,1.79L0.109,0.94L6.27,0.94L6.27,1.79L3.669,1.79Z" id="id_0"/>
   <path atv:refpx="9.95" atv:refpy="4.79" d="M11.58,9.16L11.58,5.17C11.58,4.67 11.47,4.29 11.24,4.05C11.01,3.8 10.65,3.679 10.17,3.679C9.52,3.679 9.05,3.86 8.75,4.21C8.45,4.56 8.3,5.14 8.3,5.94L8.3,9.16L7.37,9.16L7.37,0.41L8.3,0.41L8.3,3.06C8.3,3.38 8.29,3.64 8.26,3.85L8.32,3.85C8.5,3.55 8.77,3.32 9.1,3.15C9.44,2.98 9.82,2.9 10.26,2.9C11.01,2.9 11.58,3.08 11.959,3.44C12.34,3.8 12.53,4.37 12.53,5.15L12.53,9.17L11.58,9.17Z" id="id_1"/>
   <path atv:refpx="16.69" atv:refpy="6.085" d="M17.04,9.28C16.129,9.28 15.41,9 14.879,8.45C14.349,7.899 14.09,7.119 14.09,6.139C14.09,5.149 14.33,4.359 14.82,3.769C15.31,3.189 15.97,2.889 16.79,2.889C17.56,2.889 18.169,3.139 18.619,3.649C19.069,4.159 19.29,4.829 19.29,5.659L19.29,6.249L15.04,6.249C15.059,6.969 15.239,7.519 15.59,7.899C15.94,8.28 16.43,8.459 17.06,8.459C17.72,8.459 18.38,8.319 19.029,8.039L19.029,8.87C18.7,9.01 18.389,9.11 18.089,9.18C17.789,9.25 17.46,9.28 17.04,9.28M16.79,3.67C16.3,3.67 15.899,3.83 15.61,4.15C15.32,4.47 15.139,4.92 15.09,5.49L18.31,5.49C18.31,4.9 18.18,4.45 17.919,4.14C17.65,3.82 17.27,3.67 16.79,3.67" id="id_2"/>
   <path atv:refpx="27.38" atv:refpy="6.085" d="M28.92,9.16L27.79,5.54C27.72,5.32 27.59,4.82 27.39,4.03L27.35,4.03C27.2,4.7 27.07,5.2 26.96,5.56L25.8,9.17L24.72,9.17L23.03,3L24.01,3C24.41,4.55 24.71,5.73 24.92,6.54C25.13,7.35 25.25,7.9 25.28,8.18L25.32,8.18C25.36,7.97 25.43,7.689 25.52,7.35C25.61,7.01 25.69,6.739 25.759,6.539L26.89,3L27.9,3L29,6.54C29.21,7.18 29.35,7.73 29.43,8.17L29.47,8.17C29.48,8.039 29.529,7.83 29.59,7.55C29.66,7.27 30.05,5.76 30.759,3.01L31.729,3.01L30.029,9.17L28.92,9.17Z" id="id_3"/>
   <path atv:refpx="35.335" atv:refpy="6.075" d="M38.17,6.07C38.17,7.07 37.92,7.86 37.41,8.42C36.9,8.98 36.2,9.27 35.31,9.27C34.76,9.27 34.27,9.139 33.84,8.879C33.41,8.62 33.08,8.249 32.85,7.769C32.619,7.289 32.5,6.719 32.5,6.069C32.5,5.069 32.75,4.279 33.25,3.719C33.75,3.159 34.45,2.879 35.34,2.879C36.2,2.879 36.89,3.169 37.4,3.739C37.91,4.309 38.17,5.1 38.17,6.07M33.48,6.07C33.48,6.86 33.639,7.46 33.949,7.87C34.26,8.28 34.73,8.49 35.339,8.49C35.949,8.49 36.419,8.28 36.73,7.87C37.05,7.46 37.209,6.86 37.209,6.07C37.209,5.29 37.05,4.69 36.73,4.28C36.41,3.87 35.949,3.67 35.33,3.67C34.72,3.67 34.26,3.87 33.949,4.27C33.63,4.68 33.48,5.28 33.48,6.07" id="id_4"/>
   <path atv:refpx="41.59" atv:refpy="6.035" d="M42.62,2.89C42.89,2.89 43.14,2.91 43.36,2.96L43.23,3.83C42.98,3.77 42.75,3.75 42.559,3.75C42.059,3.75 41.629,3.95 41.279,4.36C40.929,4.76 40.749,5.27 40.749,5.87L40.749,9.18L39.819,9.18L39.819,3L40.589,3L40.699,4.14L40.739,4.14C40.969,3.739 41.239,3.429 41.569,3.209C41.88,2.99 42.23,2.89 42.62,2.89" id="id_5"/>
   <path atv:refpx="44.975" atv:refpy="4.785" d="M45.44,9.16L44.51,9.16L44.51,0.41L45.44,0.41Z" id="id_6"/>
   <path atv:refpx="49.795" atv:refpy="4.845" d="M51.62,8.34L51.57,8.34C51.14,8.97 50.49,9.28 49.64,9.28C48.83,9.28 48.21,9 47.76,8.45C47.309,7.899 47.089,7.119 47.089,6.1C47.089,5.08 47.309,4.289 47.76,3.729C48.21,3.169 48.839,2.889 49.64,2.889C50.48,2.889 51.12,3.189 51.56,3.8L51.63,3.8L51.59,3.36L51.57,2.929L51.57,0.41L52.5,0.41L52.5,9.16L51.74,9.16ZM49.75,8.49C50.39,8.49 50.85,8.32 51.14,7.97C51.43,7.62 51.57,7.06 51.57,6.29L51.57,6.1C51.57,5.229 51.42,4.6 51.13,4.229C50.84,3.859 50.38,3.669 49.74,3.669C49.19,3.669 48.77,3.879 48.48,4.31C48.19,4.739 48.04,5.34 48.04,6.109C48.04,6.899 48.18,7.489 48.47,7.89C48.77,8.29 49.19,8.49 49.75,8.49" id="id_7"/>
   <path atv:refpx="59.965" atv:refpy="6.075" d="M62.8,6.07C62.8,7.07 62.55,7.86 62.04,8.42C61.53,8.98 60.83,9.27 59.94,9.27C59.39,9.27 58.9,9.139 58.47,8.879C58.04,8.62 57.71,8.249 57.48,7.769C57.249,7.289 57.129,6.719 57.129,6.069C57.129,5.069 57.379,4.279 57.879,3.719C58.379,3.159 59.08,2.879 59.97,2.879C60.83,2.879 61.519,3.169 62.03,3.739C62.54,4.309 62.8,5.1 62.8,6.07M58.1,6.07C58.1,6.86 58.26,7.46 58.57,7.87C58.88,8.28 59.35,8.49 59.96,8.49C60.57,8.49 61.04,8.28 61.35,7.87C61.67,7.46 61.83,6.86 61.83,6.07C61.83,5.29 61.67,4.69 61.35,4.28C61.03,3.87 60.57,3.67 59.95,3.67C59.34,3.67 58.88,3.87 58.57,4.27C58.25,4.68 58.1,5.28 58.1,6.07" id="id_8"/>
   <path atv:refpx="65.73" atv:refpy="4.755" d="M67.21,3.72L65.64,3.72L65.64,9.16L64.709,9.16L64.709,3.72L63.609,3.72L63.609,3.3L64.709,2.96L64.709,2.62C64.709,1.11 65.369,0.35 66.699,0.35C67.029,0.35 67.409,0.42 67.85,0.55L67.6,1.29C67.24,1.17 66.929,1.12 66.679,1.12C66.33,1.12 66.07,1.24 65.899,1.47C65.729,1.7 65.649,2.08 65.649,2.6L65.649,3L67.219,3L67.219,3.72Z" id="id_9"/>
   <path atv:refpx="73.765" atv:refpy="5.05" d="M76.16,0.94L77.19,0.94L74.23,9.16L73.29,9.16L70.34,0.939L71.35,0.939L73.24,6.26C73.46,6.87 73.63,7.47 73.76,8.039C73.89,7.429 74.07,6.829 74.29,6.219Z" id="id_10"/>
   <path atv:refpx="78.66" atv:refpy="4.935" d="M78.11,1.33C78.11,1.12 78.16,0.96 78.27,0.86C78.38,0.76 78.509,0.71 78.66,0.71C78.81,0.71 78.94,0.76 79.05,0.86C79.16,0.96 79.21,1.12 79.21,1.33C79.21,1.54 79.16,1.7 79.05,1.8C78.94,1.9 78.81,1.95 78.66,1.95C78.5,1.95 78.369,1.9 78.27,1.8C78.17,1.7 78.11,1.54 78.11,1.33M79.12,9.16L78.19,9.16L78.19,3L79.12,3Z" id="id_11"/>
   <path atv:refpx="82.885" atv:refpy="6.085" d="M85.07,7.48C85.07,8.05 84.86,8.5 84.429,8.81C83.999,9.12 83.399,9.28 82.63,9.28C81.81,9.28 81.179,9.15 80.72,8.89L80.72,8.02C81.02,8.17 81.33,8.29 81.67,8.37C82.01,8.45 82.34,8.5 82.65,8.5C83.14,8.5 83.51,8.42 83.77,8.27C84.03,8.109 84.16,7.88 84.16,7.56C84.16,7.319 84.06,7.109 83.85,6.939C83.64,6.77 83.24,6.569 82.63,6.34C82.06,6.13 81.65,5.939 81.41,5.779C81.18,5.62 81,5.44 80.88,5.24C80.759,5.04 80.7,4.79 80.7,4.51C80.7,4.01 80.9,3.61 81.31,3.32C81.72,3.03 82.29,2.89 83,2.89C83.66,2.89 84.31,3.02 84.95,3.29L84.62,4.05C84,3.8 83.44,3.67 82.94,3.67C82.5,3.67 82.16,3.739 81.94,3.88C81.72,4.019 81.6,4.21 81.6,4.45C81.6,4.61 81.64,4.76 81.729,4.87C81.809,4.99 81.949,5.1 82.139,5.2C82.329,5.3 82.689,5.46 83.219,5.66C83.949,5.93 84.449,6.19 84.699,6.46C84.95,6.73 85.07,7.07 85.07,7.48" id="id_12"/>
   <path atv:refpx="89.095" atv:refpy="6.135" d="M87.47,3L87.47,7C87.47,7.5 87.58,7.88 87.81,8.12C88.04,8.37 88.4,8.49 88.88,8.49C89.52,8.49 90,8.31 90.289,7.96C90.579,7.609 90.74,7.03 90.74,6.23L90.74,3L91.67,3L91.67,9.16L90.9,9.16L90.77,8.33L90.72,8.33C90.53,8.63 90.26,8.87 89.92,9.03C89.58,9.189 89.19,9.27 88.76,9.27C88.01,9.27 87.45,9.09 87.08,8.74C86.71,8.38 86.52,7.81 86.52,7.03L86.52,3Z" id="id_13"/>
   <path atv:refpx="95.675" atv:refpy="6.085" d="M97.45,9.16L97.26,8.28L97.22,8.28C96.91,8.67 96.61,8.93 96.3,9.059C96,9.21 95.62,9.28 95.16,9.28C94.55,9.28 94.07,9.12 93.72,8.809C93.37,8.499 93.2,8.039 93.2,7.46C93.2,6.22 94.2,5.56 96.19,5.5L97.24,5.47L97.24,5.08C97.24,4.6 97.14,4.24 96.929,4.01C96.72,3.78 96.389,3.659 95.929,3.659C95.419,3.659 94.839,3.82 94.19,4.13L93.899,3.42C94.199,3.26 94.539,3.13 94.899,3.03C95.259,2.94 95.619,2.889 95.99,2.889C96.72,2.889 97.27,3.05 97.619,3.38C97.969,3.71 98.149,4.229 98.149,4.95L98.149,9.16ZM95.34,8.5C95.92,8.5 96.38,8.34 96.71,8.02C97.04,7.699 97.21,7.26 97.21,6.68L97.21,6.13L96.28,6.17C95.54,6.2 95,6.31 94.67,6.52C94.34,6.72 94.18,7.039 94.18,7.47C94.18,7.81 94.28,8.06 94.49,8.24C94.7,8.42 94.98,8.5 95.34,8.5" id="id_14"/>
   <path atv:refpx="100.535" atv:refpy="4.785" d="M101,9.16L100.07,9.16L100.07,0.41L101,0.41Z" id="id_15"/>
   <path atv:refpx="103.45" atv:refpy="4.935" d="M102.9,1.33C102.9,1.12 102.95,0.96 103.06,0.86C103.16,0.76 103.3,0.71 103.45,0.71C103.6,0.71 103.73,0.76 103.84,0.86C103.95,0.96 104,1.12 104,1.33C104,1.54 103.95,1.7 103.84,1.8C103.73,1.9 103.6,1.95 103.45,1.95C103.29,1.95 103.16,1.9 103.06,1.8C102.96,1.69 102.9,1.54 102.9,1.33M103.92,9.16L102.99,9.16L102.99,3L103.92,3Z" id="id_16"/>
   <path atv:refpx="107.605" atv:refpy="6.08" d="M109.84,9.16L105.37,9.16L105.37,8.53L108.73,3.729L105.57,3.729L105.57,3L109.75,3L109.75,3.73L106.43,8.44L109.83,8.44L109.83,9.16Z" id="id_17"/>
   <path atv:refpx="113.295" atv:refpy="6.08" d="M115.07,9.16L114.88,8.28L114.839,8.28C114.529,8.67 114.229,8.93 113.919,9.059C113.609,9.2 113.229,9.27 112.779,9.27C112.169,9.27 111.689,9.11 111.339,8.799C110.99,8.489 110.82,8.039 110.82,7.459C110.82,6.219 111.82,5.559 113.809,5.499L114.859,5.469L114.859,5.08C114.859,4.6 114.759,4.24 114.549,4.01C114.339,3.78 114.009,3.659 113.549,3.659C113.039,3.659 112.459,3.82 111.809,4.13L111.519,3.42C111.819,3.26 112.159,3.13 112.519,3.03C112.879,2.94 113.239,2.889 113.609,2.889C114.339,2.889 114.889,3.05 115.239,3.38C115.589,3.71 115.769,4.229 115.769,4.95L115.769,9.16ZM112.97,8.5C113.55,8.5 114.01,8.34 114.34,8.02C114.67,7.699 114.84,7.26 114.84,6.68L114.84,6.13L113.91,6.17C113.17,6.2 112.63,6.31 112.3,6.52C111.97,6.72 111.81,7.039 111.81,7.47C111.81,7.81 111.91,8.06 112.12,8.24C112.33,8.42 112.6,8.5 112.97,8.5" id="id_18"/>
   <path atv:refpx="118.705" atv:refpy="5.41" d="M119.68,8.5C119.84,8.5 120,8.49 120.16,8.46C120.31,8.44 120.44,8.41 120.53,8.38L120.53,9.09C120.43,9.14 120.28,9.18 120.08,9.209C119.88,9.239 119.71,9.26 119.55,9.26C118.36,9.26 117.76,8.629 117.76,7.38L117.76,3.72L116.88,3.72L116.88,3.27L117.76,2.88L118.15,1.559L118.69,1.559L118.69,3L120.48,3L120.48,3.73L118.69,3.73L118.69,7.359C118.69,7.729 118.78,8.02 118.95,8.209C119.12,8.399 119.37,8.5 119.68,8.5" id="id_19"/>
   <path atv:refpx="122.23" atv:refpy="4.935" d="M121.68,1.33C121.68,1.12 121.73,0.96 121.84,0.86C121.95,0.76 122.08,0.71 122.23,0.71C122.38,0.71 122.51,0.76 122.62,0.86C122.73,0.96 122.78,1.12 122.78,1.33C122.78,1.54 122.73,1.7 122.62,1.8C122.51,1.9 122.38,1.95 122.23,1.95C122.07,1.95 121.94,1.9 121.84,1.8C121.74,1.7 121.68,1.54 121.68,1.33M122.69,9.16L121.759,9.16L121.759,3L122.69,3Z" id="id_20"/>
   <path atv:refpx="127.155" atv:refpy="6.075" d="M129.99,6.07C129.99,7.07 129.74,7.86 129.23,8.42C128.72,8.98 128.02,9.27 127.13,9.27C126.58,9.27 126.09,9.139 125.66,8.879C125.23,8.62 124.9,8.249 124.67,7.769C124.44,7.289 124.32,6.719 124.32,6.069C124.32,5.069 124.57,4.279 125.07,3.719C125.57,3.159 126.27,2.879 127.16,2.879C128.02,2.879 128.71,3.169 129.22,3.739C129.73,4.309 129.99,5.1 129.99,6.07M125.29,6.07C125.29,6.86 125.45,7.46 125.76,7.87C126.07,8.28 126.54,8.49 127.15,8.49C127.76,8.49 128.23,8.28 128.539,7.87C128.859,7.46 129.019,6.86 129.019,6.07C129.019,5.29 128.859,4.69 128.539,4.28C128.22,3.87 127.759,3.67 127.139,3.67C126.529,3.67 126.07,3.87 125.759,4.27C125.45,4.68 125.29,5.28 125.29,6.07" id="id_21"/>
   <path atv:refpx="134.21" atv:refpy="6.02" d="M135.85,9.16L135.85,5.17C135.85,4.67 135.739,4.29 135.51,4.05C135.28,3.809 134.92,3.679 134.44,3.679C133.8,3.679 133.32,3.849 133.02,4.199C132.72,4.549 132.57,5.119 132.57,5.93L132.57,9.16L131.64,9.16L131.64,3L132.4,3L132.55,3.84L132.59,3.84C132.78,3.54 133.05,3.3 133.39,3.13C133.73,2.96 134.12,2.88 134.54,2.88C135.28,2.88 135.84,3.06 136.22,3.42C136.59,3.78 136.78,4.35 136.78,5.14L136.78,9.16Z" id="id_22"/>
   <path atv:refpx="139.235" atv:refpy="8.57" d="M138.56,8.57C138.56,8.32 138.62,8.13 138.73,8C138.839,7.869 139.01,7.81 139.22,7.81C139.44,7.81 139.609,7.869 139.73,8C139.85,8.13 139.91,8.32 139.91,8.57C139.91,8.81 139.85,9 139.72,9.13C139.6,9.26 139.43,9.33 139.21,9.33C139.02,9.33 138.86,9.27 138.73,9.15C138.6,9.03 138.56,8.84 138.56,8.57" id="id_23"/>
  </g>
 </g>
 <script atv:desc="" atv:name="" type="text/ecmascript"/>
</svg>
