<?xml version='1.0' encoding='iso-8859-1'?>
<!-- Uploaded to: SVG Repo, www.svgrepo.com, Generator: SVG Repo Mixer Tools -->
<svg height="24" id="Layer_1" version="1.1" width="24" xml:space="preserve" xmlns="http://www.w3.org/2000/svg" xmlns:atv="http://webmi.atvise.com/2007/svgext" xmlns:xlink="http://www.w3.org/1999/xlink">
 <defs/>
 <metadata>
  <atv:gridconfig enabled="false" gridstyle="lines" height="20" width="20"/>
  <atv:snapconfig enabled="false" height="10" width="10"/>
 </metadata>
 <rect atv:refpx="12" atv:refpy="3.588" fill="#00A4D4" height="6.433" id="id_0" width="6.433" x="8.783" y="0.371"/>
 <polygon atv:refpx="12" atv:refpy="7.794" fill="#00B4D7" id="id_1" points="16.453,6.804 16.453,8.783 15.463,8.783 8.536,8.783 7.546,8.783 7.546,6.804 8.783,6.804 15.216,6.804"/>
 <path atv:refpx="12" atv:refpy="13.732" d="M17.443,15.711L15.463,15.711L15.463,12.247L15.463,8.783L8.536,8.783L8.536,12.247L8.536,14.969L6.309,14.969C5.626,14.969 5.072,15.523 5.072,16.206C5.072,16.889 5.626,17.443 6.309,17.443L10.045,17.443C10.164,18.141 10.772,18.68 11.505,18.68L17.443,18.68C18.259,18.68 18.927,18.012 18.927,17.195C18.927,16.379 18.259,15.711 17.443,15.711" fill="#FFD311" id="id_2"/>
 <path atv:refpx="12" atv:refpy="17.938" d="M0.371,23.628L0.371,12.247L8.536,12.247L8.536,14.969L6.309,14.969C5.626,14.969 5.072,15.523 5.072,16.206C5.072,16.889 5.626,17.443 6.309,17.443L10.045,17.443C10.164,18.141 10.772,18.68 11.505,18.68L17.443,18.68C18.259,18.68 18.927,18.012 18.927,17.195C18.927,16.379 18.259,15.711 17.443,15.711L15.463,15.711L15.463,14.969L15.463,12.247L23.628,12.247L23.628,23.628Z" fill="#7E8488" id="id_3"/>
 <rect atv:refpx="10.408" atv:refpy="3.588" fill="#0592C2" height="6.433" id="id_4" width="3.25" x="8.783" y="0.371"/>
 <polygon atv:refpx="9.79" atv:refpy="7.794" fill="#009EC5" id="id_5" points="8.783,6.804 7.546,6.804 7.546,8.783 8.536,8.783 12.033,8.783 12.033,6.804"/>
 <path atv:refpx="12" atv:refpy="13.732" d="M17.443,15.711L15.463,15.711L15.463,14.743C12.41,13.825 9.913,11.633 8.585,8.783L8.536,8.783L8.536,12.247L8.536,14.969L6.309,14.969C5.626,14.969 5.072,15.523 5.072,16.206C5.072,16.889 5.626,17.443 6.309,17.443L10.045,17.443C10.164,18.141 10.772,18.68 11.505,18.68L17.443,18.68C18.259,18.68 18.927,18.012 18.927,17.195C18.927,16.379 18.259,15.711 17.443,15.711" fill="#FDB51E" id="id_6"/>
 <path atv:refpx="6.186" atv:refpy="17.938" d="M11.505,18.68C10.772,18.68 10.164,18.141 10.045,17.443L6.309,17.443C5.626,17.443 5.072,16.889 5.072,16.206C5.072,15.523 5.626,14.969 6.309,14.969L8.536,14.969L8.536,12.247L0.371,12.247L0.371,23.628L12,23.628L12,18.68Z" fill="#6A6F72" id="id_7"/>
 <g atv:refpx="12.124" atv:refpy="12" id="id_31" transform="matrix(0.0469,0,0,0.0469,0,0)">
  <rect atv:refpx="256" atv:refpy="44.865" fill="#FFFFFF" height="15.835" id="id_8" width="84.454" x="213.773" y="36.948"/>
  <rect atv:refpx="224.329" atv:refpy="81.815" fill="#FFFFFF" height="15.835" id="id_9" width="21.113" x="213.773" y="73.897"/>
  <rect atv:refpx="256" atv:refpy="81.815" fill="#FFFFFF" height="15.835" id="id_10" width="21.113" x="245.443" y="73.897"/>
  <rect atv:refpx="287.669" atv:refpy="81.815" fill="#FFFFFF" height="15.835" id="id_11" width="21.113" x="277.113" y="73.897"/>
  <rect atv:refpx="219.051" atv:refpy="261.596" fill="#FFFFFF" height="85.087" id="id_12" width="15.835" x="211.134" y="219.052"/>
  <rect atv:refpx="292.949" atv:refpy="250.722" fill="#FFFFFF" height="63.34" id="id_13" width="15.835" x="285.031" y="219.052"/>
  <rect atv:refpx="255.999" atv:refpy="232.248" fill="#FFFFFF" height="26.392" id="id_14" width="15.835" x="248.082" y="219.052"/>
  <rect atv:refpx="255.999" atv:refpy="287.67" fill="#FFFFFF" height="52.784" id="id_15" width="15.835" x="248.082" y="261.278"/>
  <rect atv:refpx="219.052" atv:refpy="329.897" fill="#FFFFFF" height="15.835" id="id_16" width="21.113" x="208.495" y="321.979"/>
  <rect atv:refpx="261.279" atv:refpy="351.011" fill="#FFFFFF" height="15.835" id="id_17" width="21.113" x="250.722" y="343.093"/>
  <rect atv:refpx="292.948" atv:refpy="319.341" fill="#FFFFFF" height="15.835" id="id_18" width="21.113" x="282.392" y="311.423"/>
  <rect atv:refpx="92.371" atv:refpy="424.908" fill="#FFFFFF" height="15.835" id="id_19" width="95.01" x="44.866" y="416.99"/>
  <rect atv:refpx="166.268" atv:refpy="424.908" fill="#FFFFFF" height="15.835" id="id_20" width="21.113" x="155.711" y="416.99"/>
  <rect atv:refpx="50.145" atv:refpy="382.68" fill="#FFFFFF" height="15.835" id="id_21" width="21.113" x="39.588" y="374.763"/>
  <rect atv:refpx="71.257" atv:refpy="319.341" fill="#FFFFFF" height="15.835" id="id_22" width="21.113" x="60.701" y="311.423"/>
  <rect atv:refpx="92.37" atv:refpy="467.135" fill="#FFFFFF" height="15.835" id="id_23" width="21.113" x="81.814" y="459.217"/>
  <rect atv:refpx="409.072" atv:refpy="298.227" fill="#FFFFFF" height="15.835" id="id_24" width="21.113" x="398.515" y="290.309"/>
  <rect atv:refpx="451.298" atv:refpy="361.567" fill="#FFFFFF" height="15.835" id="id_25" width="21.113" x="440.742" y="353.65"/>
  <rect atv:refpx="295.588" atv:refpy="456.578" fill="#FFFFFF" height="15.835" id="id_26" width="58.062" x="266.557" y="448.66"/>
  <rect atv:refpx="240.165" atv:refpy="456.578" fill="#FFFFFF" height="15.835" id="id_27" width="21.113" x="229.608" y="448.66"/>
  <rect atv:refpx="448.66" atv:refpy="435.464" fill="#FFFFFF" height="15.835" id="id_28" width="58.062" x="419.629" y="427.546"/>
  <rect atv:refpx="393.236" atv:refpy="435.464" fill="#FFFFFF" height="15.835" id="id_29" width="21.113" x="382.68" y="427.546"/>
 </g>
 <path atv:refpx="12" atv:refpy="12" d="M15.835,11.876L15.835,9.154L16.824,9.154L16.824,6.432L15.587,6.432L15.587,0.742L18.185,0.742L18.185,0L5.814,0L5.814,0.742L8.412,0.742L8.412,6.432L7.175,6.432L7.175,9.154L8.164,9.154L8.164,11.876L0,11.876L0,24L24,24L24,11.876ZM9.154,0.742L14.845,0.742L14.845,6.432L9.154,6.432ZM7.917,7.175L16.082,7.175L16.082,8.412L7.917,8.412ZM15.092,9.154L15.092,16.082L17.443,16.082C18.057,16.082 18.556,16.581 18.556,17.195C18.556,17.809 18.057,18.309 17.443,18.309L11.505,18.309C10.971,18.309 10.501,17.91 10.411,17.381L10.358,17.072L6.309,17.072C5.831,17.072 5.443,16.683 5.443,16.206C5.443,15.728 5.831,15.34 6.309,15.34L8.907,15.34L8.907,9.154ZM23.257,23.257L0.742,23.257L0.742,12.618L8.164,12.618L8.164,14.597L6.309,14.597C5.422,14.597 4.701,15.319 4.701,16.206C4.701,17.093 5.422,17.814 6.309,17.814L9.759,17.814C10.016,18.546 10.707,19.051 11.505,19.051L17.443,19.051C18.466,19.051 19.298,18.219 19.298,17.195C19.298,16.172 18.466,15.34 17.443,15.34L15.835,15.34L15.835,12.618L23.257,12.618Z" id="id_30"/>
</svg>
