<?xml version='1.0' encoding='UTF-8' standalone='no'?>
<svg enable-background="new 0 0 16 16" height="20" id="Ebene_1" version="1.1" width="20" x="0px" xml:space="preserve" y="0px" xmlns="http://www.w3.org/2000/svg" xmlns:atv="http://webmi.atvise.com/2007/svgext" xmlns:xlink="http://www.w3.org/1999/xlink">
 <defs>
  <linearGradient gradientUnits="objectBoundingBox" id="SVGID_1_" x1="-0.290145" x2="0.792871" y1="0.136603" y2="0.639639">
   <stop offset="0" stop-color="#9d9d9c"/>
   <stop offset="1" stop-color="#c3c3b"/>
  </linearGradient>
  <linearGradient gradientUnits="objectBoundingBox" id="SVGID_2_" x1="0.0373956" x2="0.933879" y1="0.0373166" y2="1.06773">
   <stop offset="0" stop-color="#9d9d9c"/>
   <stop offset="1" stop-color="#c3c3b"/>
  </linearGradient>
 </defs>
 <metadata>
  <atv:parameter behavior="optional" defaultvalue="#000000" desc="symbol color" name="symbolColor" substitute="$SYMBOLCOLOR$" valuetype="color"/>
  <atv:parameter behavior="optional" defaultvalue="#ffffff" desc="symbol color 2" name="symbolColor2" substitute="$SYMBOLCOLOR2$" valuetype="color"/>
  <atv:gridconfig enabled="false" gridstyle="lines" height="20" width="20"/>
  <atv:snapconfig enabled="false" height="10" width="10"/>
 </metadata>
 <path atv:refpx="17.188" atv:refpy="12.444" d="M15.532,8.854L15.52,16.032L15.576,16.032L18.845,8.977C18.876,8.909 18.826,8.856 18.735,8.856" fill="$SYMBOLCOLOR$" id="id_0" stroke-width="1.117"/>
 <path atv:refpx="7.936" atv:refpy="10.064" d="M14.72,5.679L7.284,5.679L7.284,4.181C7.284,4.085 7.206,4.008 7.109,4.008L2.019,4.008C1.923,4.008 1.845,4.085 1.845,4.181L1.845,5.679L1.149,5.679C1.053,5.679 0.976,5.757 0.976,5.853L0.976,15.943C0.976,16.04 1.053,16.117 1.149,16.117L14.72,16.117C14.818,16.117 14.895,16.04 14.895,15.943L14.895,5.853C14.895,5.757 14.818,5.679 14.72,5.679" fill="$SYMBOLCOLOR$" id="id_1" stroke-width="1.117"/>
 <g atv:refpx="7.512" atv:refpy="11.024" id="id_13" transform="matrix(1,0,0,1,-0.6238,-0.0814)">
  <text atv:refpx="-4.931" atv:refpy="17.093" fill="$SYMBOLCOLOR2$" font-family="Arial" font-size="7" font-weight="bold" id="id_2" transform="matrix(0.5594,0,0,0.5594,2.1057,3.2397)" x="8.779" y="17.353">R</text>
  <polygon atv:refpx="13.936" atv:refpy="15.147" fill="none" id="id_3" points="5.572,6.658 5.572,15.32 11.347,15.32 11.347,8.583 9.422,6.658" stroke="$SYMBOLCOLOR2$" stroke-width="0.385"/>
  <polyline atv:refpx="26.452" atv:refpy="4.809" fill="$SYMBOLCOLOR2$" id="id_4" points="9.326,6.828 9.326,8.753 11.251,8.753" stroke="none" stroke-width="0.385"/>
  <rect atv:refpx="11.298" atv:refpy="13.918" fill="$SYMBOLCOLOR2$" height="0.28" id="id_6" stroke="none" stroke-width="0.386" width="2.618" x="6.24" y="8.382"/>
  <rect atv:refpx="11.299" atv:refpy="12.147" fill="$SYMBOLCOLOR2$" height="0.28" id="id_7" stroke="none" stroke-width="0.386" width="2.618" x="6.24" y="7.496"/>
  <rect atv:refpx="8.999" atv:refpy="19.701" fill="$SYMBOLCOLOR2$" height="0.28" id="id_8" stroke="none" stroke-width="0.386" width="4.441" x="6.24" y="9.267"/>
  <rect atv:refpx="9" atv:refpy="34.89" fill="$SYMBOLCOLOR2$" height="0.28" id="id_9" stroke="none" stroke-width="0.386" width="4.441" x="6.24" y="14.328"/>
  <rect atv:refpx="9" atv:refpy="32.522" fill="$SYMBOLCOLOR2$" height="0.28" id="id_11" stroke="none" stroke-width="0.386" width="4.441" x="6.24" y="13.539"/>
 </g>
 <script atv:desc="" atv:name="" type="text/ecmascript"/>
</svg>
