<?xml version='1.0' encoding='UTF-8' standalone='no'?>
<svg height="540" version="1.2" width="620" xmlns="http://www.w3.org/2000/svg" xmlns:atv="http://webmi.atvise.com/2007/svgext" xmlns:xlink="http://www.w3.org/1999/xlink">
 <defs>
  <linearGradient gradientUnits="objectBoundingBox" id="linear_0" x1="0" x2="1" y1="0" y2="1">
   <stop offset="0" stop-color="#000000" stop-opacity="0"/>
   <stop offset="1" stop-color="#000000" stop-opacity="0"/>
  </linearGradient>
  <linearGradient gradientUnits="objectBoundingBox" id="linear_1" x1="0" x2="1" y1="0" y2="1">
   <stop offset="0" stop-color="#000000" stop-opacity="0"/>
   <stop offset="1" stop-color="#000000" stop-opacity="0"/>
  </linearGradient>
 </defs>
 <metadata>
  <atv:gridconfig enabled="true" gridstyle="lines" height="20" width="20"/>
  <atv:snapconfig enabled="true" height="1" width="1"/>
 </metadata>
 <g atv:insensitive="true" atv:refpx="0" atv:refpy="0" id="id_53">
  <rect atv:refpx="310" atv:refpy="270" fill="#ffffff" fill-opacity="0" height="540.00" id="id_54" width="620.00" x="0" y="0"/>
 </g>
 <script atv:desc="" atv:name="" type="text/ecmascript"><![CDATA[
webMI.data.subscribe("AGENT.OBJECTS.SCADA.Solidaridad.Cuencas.Cuenca_PTAR_SAAS.PTAR_SaastunHa.Con", function(e) {
var id = "id_58";
var value = e.value;
if (value == true)
	webMI.gfx.setStroke(id, "#ff0000");

});

]]></script>
 <g atv:refpx="103" atv:refpy="25" id="id_41" transform="matrix(1,0,0,1,-58,-104)">
  <line atv:refpx="152" atv:refpy="139.5" id="id_177" stroke="#000000" stroke-linecap="round" stroke-linejoin="round" stroke-width="2" x1="137" x2="167" y1="139" y2="139"/>
  <polygon atv:refpx="153.499" atv:refpy="138.999" fill="#000018" id="id_182" points="167,129 167,149 180,139 180,139" stroke="#000000" stroke-linecap="round" stroke-linejoin="round" stroke-opacity="0" stroke-width="2"/>
 </g>
 <line atv:refpx="338.333" atv:refpy="-51.5" id="id_181" stroke="#000000" stroke-linecap="round" stroke-linejoin="round" stroke-width="2" x1="497" x2="511" y1="251" y2="251"/>
 <line atv:refpx="126" atv:refpy="122.5" id="id_178" stroke="#000000" stroke-linecap="round" stroke-linejoin="round" stroke-width="2" x1="466" x2="496" y1="425" y2="425"/>
 <polygon atv:refpx="136.495" atv:refpy="-52.001" fill="#000018" id="id_179" points="504.996,241 504.996,261 517.996,251 517.996,251" stroke="#000000" stroke-linecap="round" stroke-linejoin="round" stroke-opacity="0" stroke-width="2"/>
 <g atv:refpx="103" atv:refpy="360" id="id_168" transform="matrix(1,0,0,1,-58,231.0003)">
  <line atv:refpx="152" atv:refpy="139.5" id="id_169" stroke="#000000" stroke-linecap="round" stroke-linejoin="round" stroke-width="2" x1="137" x2="167" y1="139" y2="139"/>
  <polygon atv:refpx="153.499" atv:refpy="138.999" fill="#000018" id="id_170" points="167,129 167,149 180,139 180,139" stroke="#000000" stroke-linecap="round" stroke-linejoin="round" stroke-opacity="0" stroke-width="2"/>
 </g>
 <g atv:refpx="508" atv:refpy="474.242" id="id_165" transform="matrix(-1,0,0,-1,669,635.2424)">
  <line atv:refpx="152" atv:refpy="139.5" id="id_166" stroke="#000000" stroke-linecap="round" stroke-linejoin="round" stroke-width="2" x1="137" x2="167" y1="139" y2="139"/>
  <polygon atv:refpx="153.499" atv:refpy="138.999" fill="#000018" id="id_167" points="167,129 167,149 180,139 180,139" stroke="#000000" stroke-linecap="round" stroke-linejoin="round" stroke-opacity="0" stroke-width="2"/>
 </g>
 <g atv:refpx="231" atv:refpy="167.094" id="id_160" transform="matrix(1,0,0,1,73,28.0935)">
  <line atv:refpx="152" atv:refpy="139.5" id="id_161" stroke="#000000" stroke-linecap="round" stroke-linejoin="round" stroke-width="2" x1="137" x2="167" y1="139" y2="139"/>
  <polygon atv:refpx="153.499" atv:refpy="138.999" fill="#000018" id="id_162" points="167,129 167,149 180,139 180,139" stroke="#000000" stroke-linecap="round" stroke-linejoin="round" stroke-opacity="0" stroke-width="2"/>
 </g>
 <line atv:refpx="240" atv:refpy="242.5" id="id_158" stroke="#000000" stroke-linecap="round" stroke-linejoin="round" stroke-width="2" x1="221" x2="259" y1="242" y2="242"/>
 <line atv:refpx="271.906" atv:refpy="217.5" fill="#000000" fill-opacity="0.964706" id="id_157" stroke="#000000" stroke-linecap="round" stroke-linejoin="round" stroke-width="1.743" x1="259.406" x2="259.406" y1="242" y2="193"/>
 <line atv:refpx="336.906" atv:refpy="216" fill="#000000" fill-opacity="0.964706" id="id_154" stroke="#000000" stroke-linecap="round" stroke-linejoin="round" stroke-width="1.743" x1="329.406" x2="329.406" y1="243" y2="189"/>
 <line atv:refpx="240" atv:refpy="110.5" id="id_156" stroke="#000000" stroke-linecap="round" stroke-linejoin="round" stroke-width="2" x1="221" x2="259" y1="109" y2="109"/>
 <line atv:refpx="569.006" atv:refpy="411.918" id="id_9" stroke="#000000" stroke-linecap="round" stroke-linejoin="round" stroke-width="2" x1="569.368" x2="569.368" y1="471" y2="404"/>
 <svg atv:refpx="565.507" atv:refpy="215.5" height="23" id="id_5" width="100" x="519.369" xlink:href="ObjectTypes.PROJECT.Caudalimetro.line_mini_AR" y="195">
  <atv:argument name="base" value="AGENT.OBJECTS.SCADA.Solidaridad.Cuencas.Cuenca_PTAR_SAAS.Carcamo_Final_AR.Equipos.Caudalimetro.L1"/>
 </svg>
 <g atv:refpx="569.507" atv:refpy="181.049" id="id_98" transform="matrix(1,0,0,1,84.2426,15)">
  <rect atv:refpx="537.564" atv:refpy="122.981" fill="#00008c" height="18" id="id_85" rx="0" ry="0" stroke="#000072" stroke-width="1" width="99" x="435.752" y="163.5"/>
  <text atv:refpx="428.519" atv:refpy="60.206" fill="#ffffff" font-family="Arial" font-size="40" id="id_97" transform="matrix(0.3673,0,0,0.3444,275.2245,107.8462)" x="440.5" y="205">C. Final:</text>
 </g>
 <svg atv:refpx="579.507" atv:refpy="171.5" height="23" id="id_6" width="100" x="519.369" xlink:href="ObjectTypes.PROJECT.Caudalimetro.line_mini_AR" y="156">
  <atv:argument name="base" value="AGENT.OBJECTS.SCADA.Solidaridad.Cuencas.Cuenca_PTAR_SAAS.Carcamo_Mision_Las_Flores.Equipos.Caudalimetro.L1"/>
 </svg>
 <g atv:refpx="569.507" atv:refpy="99.049" id="id_71" transform="matrix(1,0,0,1,96.2426,24)">
  <rect atv:refpx="537.564" atv:refpy="122.981" fill="#00008c" height="18" id="id_66" rx="0" ry="0" stroke="#000072" stroke-width="1" width="99" x="423.752" y="72.5"/>
  <text atv:refpx="443.072" atv:refpy="85.206" fill="#ffffff" font-family="Arial" font-size="40" id="id_67" transform="matrix(0.3673,0,0,0.3444,267.6321,48.1866)" x="428.5" y="114">V. del Sol:</text>
 </g>
 <svg atv:refpx="568.507" atv:refpy="75.5" height="23" id="id_2" width="100" x="519.369" xlink:href="ObjectTypes.PROJECT.Caudalimetro.line_mini_AR" y="74">
  <atv:argument name="base" value="AGENT.OBJECTS.SCADA.Solidaridad.Cuencas.Cuenca_PTAR_SAAS.Carcamo_CADU_II.Equipos.Caudalimetro.L1"/>
 </svg>
 <svg atv:refpx="578.507" atv:refpy="117.5" height="23" id="id_3" width="100" x="519.369" xlink:href="ObjectTypes.PROJECT.Caudalimetro.line_mini_AR" y="115">
  <atv:argument name="base" value="AGENT.OBJECTS.SCADA.Solidaridad.Cuencas.Cuenca_PTAR_SAAS.Carcamo_Villas_del_Sol.Equipos.Caudalimetro.L1"/>
 </svg>
 <rect atv:refpx="569.369" atv:refpy="32.75" fill="#000088" fill-opacity="0" height="51.5" id="id_58" rx="0" ry="0" stroke="#000072" stroke-width="1" width="99" x="519.869" y="7"/>
 <text atv:refpx="558.455" atv:refpy="25.55" fill="#000018" font-family="Arial" font-size="40" font-weight="bold" id="id_106" transform="matrix(0.3673,0,0,0.3444,347.2257,8.8506)" x="553.3" y="55">PTAR</text>
 <text atv:refpx="543.628" atv:refpy="43.55" fill="#000018" font-family="Arial" font-size="40" id="id_37" transform="matrix(0.3673,0,0,0.3444,329.4476,20.877)" x="524.701" y="72.344">SAASTUN HA</text>
 <g atv:refpx="569.507" atv:refpy="59.549" id="id_68" transform="matrix(1,0,0,1,103.2426,20)">
  <rect atv:refpx="476.564" atv:refpy="87.481" fill="#00008c" height="18" id="id_63" rx="0" ry="0" stroke="#000072" stroke-width="1" width="99" x="416.752" y="37"/>
  <text atv:refpx="430.189" atv:refpy="49.706" fill="#ffffff" font-family="Arial" font-size="40" id="id_64" transform="matrix(0.3673,0,0,0.3444,263.2032,24.9128)" x="421.5" y="78.5">CADU II:</text>
 </g>
 <g atv:refpx="569.507" atv:refpy="141.049" id="id_79" transform="matrix(1,0,0,1,102.2426,17)">
  <rect atv:refpx="537.564" atv:refpy="122.981" fill="#00008c" height="18" id="id_73" rx="0" ry="0" stroke="#000072" stroke-width="1" width="99" x="417.752" y="121.5"/>
  <text atv:refpx="427.308" atv:refpy="60.206" fill="#ffffff" font-family="Arial" font-size="40" id="id_75" transform="matrix(0.3673,0,0,0.3444,263.8359,80.311)" x="422.5" y="163">Misión:</text>
 </g>
 <svg atv:refpx="573.507" atv:refpy="284.5" height="23" id="id_36" width="100" x="519.369" xlink:href="ObjectTypes.PROJECT.Caudalimetro.line_mini_AR" y="234.5">
  <atv:argument name="base" value="AGENT.OBJECTS.SCADA.Solidaridad.Cuencas.Cuenca_PTAR_SAAS.PTAR_SaastunHa.Equipos.Caudal.L_FlujoTotal"/>
 </svg>
 <rect atv:refpx="580.819" atv:refpy="263.981" fill="#00008c" height="18" id="id_43" rx="0" ry="0" stroke="#000072" stroke-width="1" width="99" x="519.869" y="217.5"/>
 <text atv:refpx="537.297" atv:refpy="230.206" fill="#ffffff" font-family="Arial" font-size="40" id="id_42" transform="matrix(0.3673,0,0,0.3444,332.1201,143.2486)" x="530.425" y="259">Entrada total:</text>
 <svg atv:refpx="569.287" atv:refpy="405.245" height="63.11" id="id_7" transform="matrix(0.7519,0,0,0.7288,0,0)" width="133" x="690.74" xlink:href="ObjectTypes.PROJECT.ElementoLineaAR.Principal" y="649.348">
  <atv:argument name="base" value="AGENT.OBJECTS.SCADA.Solidaridad.Cuencas.Cuenca_PTAR_GONZ.Carcamo_Gonzalo"/>
 </svg>
 <polygon atv:refpx="569.507" atv:refpy="376.5" fill="#000018" id="id_13" points="559.368,404 579.368,404 569.368,391 569.368,391" stroke="#000000" stroke-linecap="round" stroke-linejoin="round" stroke-opacity="0" stroke-width="2"/>
 <g atv:refpx="569.512" atv:refpy="325.499" id="id_40" transform="matrix(1,0,0,1,-0.252,56)">
  <svg atv:refpx="555.497" atv:refpy="284.497" height="23" id="id_39" transform="matrix(1.01,0,0,0.9999,0,0)" width="100" x="513.861" xlink:href="ObjectTypes.PROJECT.Caudalimetro.line_mini_AR" y="312.031">
   <atv:argument name="base" value="AGENT.OBJECTS.SCADA.Solidaridad.Cuencas.Cuenca_PTAR_GONZ.Carcamo_Gonzalo.Equipos.Caudalimetro.L1"/>
  </svg>
  <svg atv:refpx="305.534" atv:refpy="207.5" height="23" id="id_45" transform="matrix(1.0125,0,0,1,0,0)" width="100" x="512.582" xlink:href="ObjectTypes.PROJECT.Caudalimetro.line_mini_AR" y="271.5">
   <atv:argument name="base" value="AGENT.OBJECTS.SCADA.Solidaridad.Cuencas.Cuenca_PTAR_GONZ.Carcamo_Gonzalo.Equipos.Caudalimetro.L2"/>
  </svg>
  <rect atv:refpx="313.643" atv:refpy="99.849" fill="#000088" fill-opacity="0" height="38" id="id_56" rx="0" ry="0" stroke="#000072" stroke-width="1" width="100" x="519.752" y="216.5"/>
  <text atv:refpx="311.338" atv:refpy="210.05" fill="#000018" font-family="Arial" font-size="40" font-weight="bold" id="id_57" transform="matrix(0.3673,0,0,0.3444,347.1518,142.593)" x="553.183" y="259">PTAR</text>
  <g atv:refpx="555.626" atv:refpy="208.049" id="id_34" transform="matrix(1,0,0,1,14,56)">
   <rect atv:refpx="313.643" atv:refpy="186.981" fill="#00008c" height="18" id="id_55" rx="0" ry="0" stroke="#000072" stroke-width="1" width="100" x="505.752" y="198.5"/>
   <text atv:refpx="278.938" atv:refpy="191.706" fill="#ffffff" font-family="Arial" font-size="40" id="id_60" transform="matrix(0.3673,0,0,0.3444,319.5135,130.7922)" x="510.5" y="240">Entrada total:</text>
  </g>
  <text atv:refpx="304.122" atv:refpy="228.05" fill="#000018" font-family="Arial" font-size="40" id="id_59" transform="matrix(0.3673,0,0,0.3444,329.374,154.6194)" x="526.085" y="276.344">GONZALO G.</text>
  <g atv:refpx="555.626" atv:refpy="264.049" id="id_38" transform="matrix(1,0,0,1,-10,40)">
   <rect atv:refpx="337.643" atv:refpy="242.981" fill="#00008c" height="18" id="id_8" rx="0" ry="0" stroke="#000072" stroke-width="1" width="100" x="529.752" y="254.5"/>
   <text atv:refpx="300.136" atv:refpy="247.706" fill="#ffffff" font-family="Arial" font-size="40" id="id_15" transform="matrix(0.3673,0,0,0.3444,334.6983,167.5058)" x="534.5" y="296">Agua tratada:</text>
  </g>
 </g>
 <g atv:refpx="363.496" atv:refpy="412" id="id_94" transform="matrix(1,0,0,1,208.496,288.0004)">
  <line atv:refpx="152" atv:refpy="139.5" id="id_95" stroke="#000000" stroke-linecap="round" stroke-linejoin="round" stroke-width="2" x1="137" x2="167" y1="139" y2="139"/>
  <polygon atv:refpx="153.499" atv:refpy="138.999" fill="#000018" id="id_96" points="167,129 167,149 180,139 180,139" stroke="#000000" stroke-linecap="round" stroke-linejoin="round" stroke-opacity="0" stroke-width="2"/>
 </g>
 <g atv:refpx="331.876" atv:refpy="329" id="id_114" transform="matrix(0,1,-1,0,598.372,224)">
  <line atv:refpx="152" atv:refpy="139.5" id="id_116" stroke="#000000" stroke-linecap="round" stroke-linejoin="round" stroke-width="2" x1="137" x2="167" y1="139" y2="139"/>
  <polygon atv:refpx="153.499" atv:refpy="138.999" fill="#000018" id="id_117" points="167,129 167,149 180,139 180,139" stroke="#000000" stroke-linecap="round" stroke-linejoin="round" stroke-opacity="0" stroke-width="2"/>
 </g>
 <line atv:refpx="289.406" atv:refpy="155.5" id="id_112" stroke="#000000" stroke-linecap="round" stroke-linejoin="round" stroke-width="2" x1="329.406" x2="329.406" y1="361" y2="391"/>
 <polygon atv:refpx="290.905" atv:refpy="137.999" fill="#000018" id="id_113" points="339.406,391 319.406,391 329.406,404 329.406,404" stroke="#000000" stroke-linecap="round" stroke-linejoin="round" stroke-opacity="0" stroke-width="2"/>
 <line atv:refpx="274.184" atv:refpy="475.5" id="id_101" stroke="#000000" stroke-linecap="round" stroke-linejoin="round" stroke-width="1.743" x1="329" x2="219.368" y1="497" y2="497"/>
 <line atv:refpx="377.005" atv:refpy="144" fill="#000000" fill-opacity="0.964706" id="id_65" stroke="#000000" stroke-linecap="round" stroke-linejoin="round" stroke-width="1.743" x1="483.001" x2="483.001" y1="210" y2="176"/>
 <line atv:refpx="271.906" atv:refpy="124.5" fill="#000000" fill-opacity="0.964706" id="id_44" stroke="#000000" stroke-linecap="round" stroke-linejoin="round" stroke-width="1.743" x1="259.406" x2="259.406" y1="137" y2="110"/>
 <line atv:refpx="479.001" atv:refpy="290.053" fill="#000000" fill-opacity="0.964706" id="id_92" stroke="#000000" stroke-linecap="round" stroke-linejoin="round" stroke-width="1.743" x1="483.001" x2="483.001" y1="301" y2="280"/>
 <line atv:refpx="234.496" atv:refpy="412.5" id="id_90" stroke="#000000" stroke-linecap="round" stroke-linejoin="round" stroke-width="2" x1="219.496" x2="249.496" y1="427" y2="427"/>
 <polygon atv:refpx="246.996" atv:refpy="412" fill="#000018" id="id_91" points="240.496,417 240.496,437 253.496,427 253.496,427" stroke="#000000" stroke-linecap="round" stroke-linejoin="round" stroke-opacity="0" stroke-width="2"/>
 <line atv:refpx="304.602" atv:refpy="20" id="id_128" stroke="#000000" stroke-linecap="round" stroke-linejoin="round" stroke-width="2" x1="99" x2="512.496" y1="14.5" y2="13.5"/>
 <line atv:refpx="393.5" atv:refpy="158.25" id="id_131" stroke="#000000" stroke-linecap="round" stroke-linejoin="round" stroke-width="2" x1="485.496" x2="508.496" y1="228.5" y2="228.5"/>
 <line atv:refpx="310.25" atv:refpy="178.5" id="id_83" stroke="#000000" stroke-linecap="round" stroke-linejoin="round" stroke-width="2" x1="286.25" x2="320.25" y1="167" y2="167"/>
 <line atv:refpx="259.5" atv:refpy="92.375" id="id_76" stroke="#000000" stroke-linecap="round" stroke-linejoin="round" stroke-width="2" x1="339.496" x2="374.496" y1="46.875" y2="46.875"/>
 <g atv:refpx="231.496" atv:refpy="302" id="id_86" transform="matrix(1,0,0,1,73.496,163.0004)">
  <line atv:refpx="152" atv:refpy="139.5" id="id_87" stroke="#000000" stroke-linecap="round" stroke-linejoin="round" stroke-width="2" x1="137" x2="167" y1="139" y2="139"/>
  <polygon atv:refpx="153.499" atv:refpy="138.999" fill="#000018" id="id_88" points="167,129 167,149 180,139 180,139" stroke="#000000" stroke-linecap="round" stroke-linejoin="round" stroke-opacity="0" stroke-width="2"/>
 </g>
 <line atv:refpx="352" atv:refpy="243.5" id="id_80" stroke="#000000" stroke-linecap="round" stroke-linejoin="round" stroke-width="2" x1="331" x2="373" y1="243" y2="243"/>
 <line atv:refpx="418" atv:refpy="293.5" id="id_74" stroke="#000000" stroke-linecap="round" stroke-linejoin="round" stroke-width="1.743" x1="483" x2="353" y1="301" y2="301"/>
 <line atv:refpx="390" atv:refpy="92.375" id="id_125" stroke="#000000" stroke-linecap="round" stroke-linejoin="round" stroke-width="2" x1="462.496" x2="512.496" y1="46.875" y2="46.875"/>
 <line atv:refpx="311.004" atv:refpy="210.24" fill="#000000" fill-opacity="0.964706" id="id_110" stroke="#000000" stroke-linecap="round" stroke-linejoin="round" stroke-width="1.743" x1="444.371" x2="444.371" y1="495" y2="461"/>
 <svg atv:refpx="170.976" atv:refpy="470.985" height="63.11" id="id_14" transform="matrix(0.7519,0,0,0.7289,0,0)" width="133" x="162.25" xlink:href="ObjectTypes.PROJECT.ElementoLineaAR.Principal" y="653.039">
  <atv:argument name="base" value="AGENT.OBJECTS.SCADA.Solidaridad.Cuencas.Cuenca_PTAR_SAAS.Carcamo_88"/>
 </svg>
 <svg atv:refpx="171.993" atv:refpy="25.995" height="63.11" id="id_19" transform="matrix(0.7519,0,0,0.7289,0,0)" width="133" x="162.25" xlink:href="ObjectTypes.PROJECT.ElementoLineaAR.Principal" y="4.116">
  <atv:argument name="base" value="AGENT.OBJECTS.SCADA.Solidaridad.Cuencas.Cuenca_PTAR_SAAS.Carcamo_CADU_II"/>
 </svg>
 <svg atv:refpx="49.997" atv:refpy="25.995" height="63.11" id="id_17" transform="matrix(0.7519,0,0,0.7289,0,0)" width="133" x="0" xlink:href="ObjectTypes.PROJECT.ElementoLineaAR.Principal" y="4.116">
  <atv:argument name="base" value="AGENT.OBJECTS.SCADA.Solidaridad.Cuencas.Cuenca_PTAR_SAAS.Carcamo_CADU_II_CRIBA"/>
 </svg>
 <svg atv:refpx="49.001" atv:refpy="357" height="63.11" id="id_4" transform="matrix(0.7519,0,0,0.7289,0,0)" width="133" x="0" xlink:href="ObjectTypes.PROJECT.ElementoLineaAR.Principal" y="476.059">
  <atv:argument name="base" value="AGENT.OBJECTS.SCADA.Solidaridad.Cuencas.Cuenca_PTAR_SAAS.Carcamo_16"/>
 </svg>
 <svg atv:refpx="303.25" atv:refpy="167.094" height="63.11" id="id_20" transform="matrix(0.7519,0,0,0.7289,0,0)" width="133" x="336.812" xlink:href="ObjectTypes.PROJECT.ElementoLineaAR.Principal" y="197.686">
  <atv:argument name="base" value="AGENT.OBJECTS.SCADA.Solidaridad.Cuencas.Cuenca_PTAR_SAAS.Carcamo_CAME"/>
 </svg>
 <svg atv:refpx="303.001" atv:refpy="412" height="63.11" id="id_21" transform="matrix(0.7519,0,0,0.7289,0,0)" width="133" x="336.481" xlink:href="ObjectTypes.PROJECT.ElementoLineaAR.Principal" y="554.26">
  <atv:argument name="base" value="AGENT.OBJECTS.SCADA.Solidaridad.Cuencas.Cuenca_PTAR_SAAS.Carcamo_Colosio"/>
 </svg>
 <svg atv:refpx="304.372" atv:refpy="294" height="63.11" id="id_23" transform="matrix(0.7519,0,0,0.7289,0,0)" width="133" x="338.304" xlink:href="ObjectTypes.PROJECT.ElementoLineaAR.Principal" y="382.769">
  <atv:argument name="base" value="AGENT.OBJECTS.SCADA.Solidaridad.Cuencas.Cuenca_PTAR_SAAS.Carcamo_Diamante"/>
 </svg>
 <svg atv:refpx="436.685" atv:refpy="474.243" height="63.11" id="id_24" transform="matrix(0.7519,0,0,0.7289,0,0)" width="133" x="516.936" xlink:href="ObjectTypes.PROJECT.ElementoLineaAR.Principal" y="649.255">
  <atv:argument name="base" value="AGENT.OBJECTS.SCADA.Solidaridad.Cuencas.Cuenca_PTAR_SAAS.Carcamo_Ejido_Norte"/>
 </svg>
 <svg atv:refpx="173.001" atv:refpy="295.5" height="63.11" id="id_25" transform="matrix(0.7519,0,0,0.7289,0,0)" width="133" x="163.586" xlink:href="ObjectTypes.PROJECT.ElementoLineaAR.Principal" y="388.943">
  <atv:argument name="base" value="AGENT.OBJECTS.SCADA.Solidaridad.Cuencas.Cuenca_PTAR_SAAS.Carcamo_Ejido_Sur"/>
 </svg>
 <svg atv:refpx="436.684" atv:refpy="412" height="63.11" id="id_26" transform="matrix(0.7519,0,0,0.7289,0,0)" width="133" x="516.936" xlink:href="ObjectTypes.PROJECT.ElementoLineaAR.Principal" y="554.26">
  <atv:argument name="base" value="AGENT.OBJECTS.SCADA.Solidaridad.Cuencas.Cuenca_PTAR_SAAS.Carcamo_Final_AR"/>
 </svg>
 <svg atv:refpx="436.685" atv:refpy="167.094" height="63.11" id="id_30" transform="matrix(0.7519,0,0,0.7289,0,0)" width="133" x="516.936" xlink:href="ObjectTypes.PROJECT.ElementoLineaAR.Principal" y="197.686">
  <atv:argument name="base" value="AGENT.OBJECTS.SCADA.Solidaridad.Cuencas.Cuenca_PTAR_SAAS.Carcamo_Palmas_II"/>
 </svg>
 <svg atv:refpx="312.246" atv:refpy="54.867" height="63.11" id="id_32" transform="matrix(0.7519,0,0,0.7289,0,0)" width="133" x="336.812" xlink:href="ObjectTypes.PROJECT.ElementoLineaAR.Principal" y="32.755">
  <atv:argument name="base" value="AGENT.OBJECTS.SCADA.Solidaridad.Cuencas.Cuenca_PTAR_SAAS.Carcamo_Villas_del_Carmen"/>
 </svg>
 <svg atv:refpx="342.181" atv:refpy="72.867" height="63.11" id="id_33" transform="matrix(0.7519,0,0,0.7289,0,0)" width="133" x="516.936" xlink:href="ObjectTypes.PROJECT.ElementoLineaAR.Principal" y="32.755">
  <atv:argument name="base" value="AGENT.OBJECTS.SCADA.Solidaridad.Cuencas.Cuenca_PTAR_SAAS.Carcamo_Villas_del_Sol"/>
 </svg>
 <svg atv:refpx="436.685" atv:refpy="348.5" height="63.11" id="id_35" transform="matrix(0.7519,0,0,0.7289,0,0)" width="133" x="516.936" xlink:href="ObjectTypes.PROJECT.ElementoLineaAR.Principal" y="461.654">
  <atv:argument name="base" value="AGENT.OBJECTS.SCADA.Solidaridad.Cuencas.Cuenca_PTAR_SAAS.Carcamo_Toscana"/>
 </svg>
 <svg atv:refpx="436.685" atv:refpy="243.751" height="63.11" id="id_29" transform="matrix(0.7519,0,0,0.7289,0,0)" width="133" x="516.936" xlink:href="ObjectTypes.PROJECT.ElementoLineaAR.Principal" y="302.854">
  <atv:argument name="base" value="AGENT.OBJECTS.SCADA.Solidaridad.Cuencas.Cuenca_PTAR_SAAS.Carcamo_Mision_Las_Flores"/>
 </svg>
 <polygon atv:refpx="275.5" atv:refpy="94.875" fill="#000018" id="id_77" points="373.496,36.875 373.496,56.875 386.496,46.875 386.496,46.875" stroke="#000000" stroke-linecap="round" stroke-linejoin="round" stroke-opacity="0" stroke-width="2"/>
 <polygon atv:refpx="271.406" atv:refpy="137.5" fill="#000018" id="id_81" points="269.406,130 249.406,130 259.406,143 259.406,143" stroke="#000000" stroke-linecap="round" stroke-linejoin="round" stroke-opacity="0" stroke-width="2"/>
 <polygon atv:refpx="153.499" atv:refpy="138.999" fill="#000018" id="id_84" points="372.496,233.75 372.496,253.75 385.496,243.75 385.496,243.75" stroke="#000000" stroke-linecap="round" stroke-linejoin="round" stroke-opacity="0" stroke-width="2"/>
 <svg atv:refpx="171.997" atv:refpy="243.5" height="63.11" id="id_18" transform="matrix(0.7519,0,0,0.7289,0,0)" width="133" x="162.25" xlink:href="ObjectTypes.PROJECT.ElementoLineaAR.Principal" y="302.511">
  <atv:argument name="base" value="AGENT.OBJECTS.SCADA.Solidaridad.Cuencas.Cuenca_PTAR_SAAS.Carcamo_Balamtun"/>
 </svg>
 <svg atv:refpx="171.997" atv:refpy="412" height="63.11" id="id_22" transform="matrix(0.7519,0,0,0.7289,0,0)" width="133" x="162.25" xlink:href="ObjectTypes.PROJECT.ElementoLineaAR.Principal" y="567.979">
  <atv:argument name="base" value="AGENT.OBJECTS.SCADA.Solidaridad.Cuencas.Cuenca_PTAR_SAAS.Carcamo_CTM"/>
 </svg>
 <svg atv:refpx="170.997" atv:refpy="95.5" height="63.11" id="id_27" transform="matrix(0.7519,0,0,0.7289,0,0)" width="133" x="162.25" xlink:href="ObjectTypes.PROJECT.ElementoLineaAR.Principal" y="98.093">
  <atv:argument name="base" value="AGENT.OBJECTS.SCADA.Solidaridad.Cuencas.Cuenca_PTAR_SAAS.Carcamo_Gaviotas"/>
 </svg>
 <svg atv:refpx="171.997" atv:refpy="167.094" height="63.11" id="id_28" transform="matrix(0.7519,0,0,0.7289,0,0)" width="133" x="162.25" xlink:href="ObjectTypes.PROJECT.ElementoLineaAR.Principal" y="183.967">
  <atv:argument name="base" value="AGENT.OBJECTS.SCADA.Solidaridad.Cuencas.Cuenca_PTAR_SAAS.Carcamo_Mayakoba"/>
 </svg>
 <svg atv:refpx="171.997" atv:refpy="360" height="63.11" id="id_31" transform="matrix(0.7519,0,0,0.7289,0,0)" width="133" x="162.25" xlink:href="ObjectTypes.PROJECT.ElementoLineaAR.Principal" y="476.059">
  <atv:argument name="base" value="AGENT.OBJECTS.SCADA.Solidaridad.Cuencas.Cuenca_PTAR_SAAS.Carcamo_Playero"/>
 </svg>
 <svg atv:refpx="171.997" atv:refpy="202.094" height="23" id="id_0" width="100" x="121.997" xlink:href="ObjectTypes.PROJECT.Caudalimetro.line_mini_AR" y="180.594">
  <atv:argument name="base" value="AGENT.OBJECTS.SCADA.Solidaridad.Cuencas.Cuenca_PTAR_SAAS.Carcamo_Mayakoba.Equipos.Caudalimetro.L1"/>
 </svg>
 <polygon atv:refpx="313.005" atv:refpy="68.501" fill="#000018" fill-opacity="0.964706" id="id_109" points="434.371,463 454.371,463 444.371,450 444.371,450" stroke="#000000" stroke-linecap="round" stroke-linejoin="round" stroke-opacity="0" stroke-width="2"/>
 <polygon atv:refpx="128.999" atv:refpy="161.874" fill="#000018" id="id_126" points="504.996,36.875 504.996,56.875 517.996,46.875 517.996,46.875" stroke="#000000" stroke-linecap="round" stroke-linejoin="round" stroke-opacity="0" stroke-width="2"/>
 <polygon atv:refpx="408" atv:refpy="146" fill="#000018" fill-opacity="0.964706" id="id_127" points="504.996,219 504.996,239 517.996,229 517.996,229" stroke="#000000" stroke-linecap="round" stroke-linejoin="round" stroke-opacity="0" stroke-width="2"/>
 <polygon atv:refpx="416.999" atv:refpy="26" fill="#000018" fill-opacity="0.964706" id="id_129" points="504.996,3 504.996,23 517.996,13 517.996,13" stroke="#000000" stroke-linecap="round" stroke-linejoin="round" stroke-opacity="0" stroke-width="2"/>
 <polygon atv:refpx="376.505" atv:refpy="159.5" fill="#000018" id="id_62" points="493,208 473,208 483,221 483,221" stroke="#000000" stroke-linecap="round" stroke-linejoin="round" stroke-opacity="0" stroke-width="2"/>
 <line atv:refpx="336.906" atv:refpy="457" fill="#000000" fill-opacity="0.964706" id="id_100" stroke="#000000" stroke-linecap="round" stroke-linejoin="round" stroke-width="1.743" x1="329.406" x2="329.406" y1="497" y2="461"/>
 <polygon atv:refpx="336.406" atv:refpy="442.5" fill="#000000" id="id_102" points="319.406,463 339.406,463 329.406,450 329.406,450" stroke="#000000" stroke-linecap="round" stroke-linejoin="round" stroke-opacity="0" stroke-width="2"/>
 <polygon atv:refpx="480.001" atv:refpy="273.5" fill="#000000" id="id_155" points="473,280 493,280 483,267 483,267" stroke="#000000" stroke-linecap="round" stroke-linejoin="round" stroke-opacity="0" stroke-width="2"/>
 <polygon atv:refpx="271.406" atv:refpy="196.5" fill="#000000" id="id_159" points="249.406,203 269.406,203 259.406,190 259.406,190" stroke="#000000" stroke-linecap="round" stroke-linejoin="round" stroke-opacity="0" stroke-width="2"/>
 <line atv:refpx="274.5" atv:refpy="349.5" id="id_163" stroke="#000000" stroke-linecap="round" stroke-linejoin="round" stroke-width="2" x1="221" x2="328" y1="360" y2="360"/>
 <svg atv:refpx="9.5" atv:refpy="58.5" height="25" id="id_1" transform="matrix(0.6,0,0,0.6,0,0)" width="25" x="0" xlink:href="ObjectTypes.PROJECT.Bomba.Indicador_Bomba" y="81.667">
  <atv:argument name="base" value="AGENT.OBJECTS.SCADA.Solidaridad.Cuencas.Cuenca_PTAR_SAAS.Carcamo_CADU_II_CRIBA.Equipos.Bombas.Bomba_1"/>
 </svg>
 <svg atv:refpx="28.5" atv:refpy="58.5" height="25" id="id_10" transform="matrix(0.6,0,0,0.6,0,0)" width="25" x="26.667" xlink:href="ObjectTypes.PROJECT.Bomba.Indicador_Bomba" y="81.667">
  <atv:argument name="base" value="AGENT.OBJECTS.SCADA.Solidaridad.Cuencas.Cuenca_PTAR_SAAS.Carcamo_CADU_II_CRIBA.Equipos.Bombas.Bomba_2"/>
 </svg>
 <svg atv:refpx="129.998" atv:refpy="56.5" height="25" id="id_11" transform="matrix(0.6,0,0,0.6,0,0)" width="25" x="204.163" xlink:href="ObjectTypes.PROJECT.Bomba.Indicador_Bomba" y="81.667">
  <atv:argument name="base" value="AGENT.OBJECTS.SCADA.Solidaridad.Cuencas.Cuenca_PTAR_SAAS.Carcamo_CADU_II.Equipos.Bombas.Bomba_1"/>
 </svg>
 <svg atv:refpx="145.923" atv:refpy="56.5" height="25" id="id_12" transform="matrix(0.6,0,0,0.6,0,0)" width="25" x="229.039" xlink:href="ObjectTypes.PROJECT.Bomba.Indicador_Bomba" y="81.667">
  <atv:argument name="base" value="AGENT.OBJECTS.SCADA.Solidaridad.Cuencas.Cuenca_PTAR_SAAS.Carcamo_CADU_II.Equipos.Bombas.Bomba_2"/>
 </svg>
 <svg atv:refpx="159.874" atv:refpy="56.5" height="25" id="id_16" transform="matrix(0.6,0,0,0.6,0,0)" width="25" x="253.957" xlink:href="ObjectTypes.PROJECT.Bomba.Indicador_Bomba" y="81.667">
  <atv:argument name="base" value="AGENT.OBJECTS.SCADA.Solidaridad.Cuencas.Cuenca_PTAR_SAAS.Carcamo_CADU_II.Equipos.Bombas.Bomba_3"/>
 </svg>
 <svg atv:refpx="178.774" atv:refpy="56.5" height="25" id="id_46" transform="matrix(0.6,0,0,0.6,0,0)" width="25" x="280.457" xlink:href="ObjectTypes.PROJECT.Bomba.Indicador_Bomba" y="81.667">
  <atv:argument name="base" value="AGENT.OBJECTS.SCADA.Solidaridad.Cuencas.Cuenca_PTAR_SAAS.Carcamo_CADU_II.Equipos.Bombas.Bomba_4"/>
 </svg>
 <svg atv:refpx="195.2" atv:refpy="56.5" height="25" id="id_47" transform="matrix(0.6,0,0,0.6,0,0)" width="25" x="306.167" xlink:href="ObjectTypes.PROJECT.Bomba.Indicador_Bomba" y="81.667">
  <atv:argument name="base" value="AGENT.OBJECTS.SCADA.Solidaridad.Cuencas.Cuenca_PTAR_SAAS.Carcamo_CADU_II.Equipos.Bombas.Bomba_5"/>
 </svg>
 <svg atv:refpx="260.5" atv:refpy="86.5" height="25" id="id_48" transform="matrix(0.6,0,0,0.6,0,0)" width="25" x="421.667" xlink:href="ObjectTypes.PROJECT.Bomba.Indicador_Bomba" y="116.667">
  <atv:argument name="base" value="AGENT.OBJECTS.SCADA.Solidaridad.Cuencas.Cuenca_PTAR_SAAS.Carcamo_Villas_del_Carmen.Equipos.Bombas.Bombas_1"/>
 </svg>
 <svg atv:refpx="279.5" atv:refpy="86.5" height="25" id="id_49" transform="matrix(0.6,0,0,0.6,0,0)" width="25" x="451.667" xlink:href="ObjectTypes.PROJECT.Bomba.Indicador_Bomba" y="116.667">
  <atv:argument name="base" value="AGENT.OBJECTS.SCADA.Solidaridad.Cuencas.Cuenca_PTAR_SAAS.Carcamo_Villas_del_Carmen.Equipos.Bombas.Bombas_2"/>
 </svg>
 <svg atv:refpx="393.5" atv:refpy="86.5" height="25" id="id_50" transform="matrix(0.6,0,0,0.6,0,0)" width="25" x="643.333" xlink:href="ObjectTypes.PROJECT.Bomba.Indicador_Bomba" y="116.667">
  <atv:argument name="base" value="AGENT.OBJECTS.SCADA.Solidaridad.Cuencas.Cuenca_PTAR_SAAS.Carcamo_Villas_del_Sol.Equipos.Bombas.Bomba_1"/>
 </svg>
 <svg atv:refpx="408" atv:refpy="86.5" height="25" id="id_51" transform="matrix(0.6,0,0,0.6,0,0)" width="25" x="667.5" xlink:href="ObjectTypes.PROJECT.Bomba.Indicador_Bomba" y="116.667">
  <atv:argument name="base" value="AGENT.OBJECTS.SCADA.Solidaridad.Cuencas.Cuenca_PTAR_SAAS.Carcamo_Villas_del_Sol.Equipos.Bombas.Bomba_2"/>
 </svg>
 <svg atv:refpx="423.5" atv:refpy="86.5" height="25" id="id_52" transform="matrix(0.6,0,0,0.6,0,0)" width="25" x="691.667" xlink:href="ObjectTypes.PROJECT.Bomba.Indicador_Bomba" y="116.667">
  <atv:argument name="base" value="AGENT.OBJECTS.SCADA.Solidaridad.Cuencas.Cuenca_PTAR_SAAS.Carcamo_Villas_del_Sol.Equipos.Bombas.Bomba_3"/>
 </svg>
 <svg atv:refpx="439" atv:refpy="86.5" height="25" id="id_61" transform="matrix(0.6,0,0,0.6,0,0)" width="25" x="715.833" xlink:href="ObjectTypes.PROJECT.Bomba.Indicador_Bomba" y="116.667">
  <atv:argument name="base" value="AGENT.OBJECTS.SCADA.Solidaridad.Cuencas.Cuenca_PTAR_SAAS.Carcamo_Villas_del_Sol.Equipos.Bombas.Bomba_4"/>
 </svg>
 <svg atv:refpx="129.998" atv:refpy="126.5" height="25" id="id_69" transform="matrix(0.6,0,0,0.6,0,0)" width="25" x="204.163" xlink:href="ObjectTypes.PROJECT.Bomba.Indicador_Bomba" y="198.333">
  <atv:argument name="base" value="AGENT.OBJECTS.SCADA.Solidaridad.Cuencas.Cuenca_PTAR_SAAS.Carcamo_Gaviotas.Equipos.Bombas.Bomba_1"/>
 </svg>
 <svg atv:refpx="145.923" atv:refpy="126.5" height="25" id="id_70" transform="matrix(0.6,0,0,0.6,0,0)" width="25" x="229.039" xlink:href="ObjectTypes.PROJECT.Bomba.Indicador_Bomba" y="198.333">
  <atv:argument name="base" value="AGENT.OBJECTS.SCADA.Solidaridad.Cuencas.Cuenca_PTAR_SAAS.Carcamo_Gaviotas.Equipos.Bombas.Bomba_2"/>
 </svg>
 <svg atv:refpx="129.998" atv:refpy="211.5" height="25" id="id_72" transform="matrix(0.6,0,0,0.6,0,0)" width="25" x="204.163" xlink:href="ObjectTypes.PROJECT.Bomba.Indicador_Bomba" y="340">
  <atv:argument name="base" value="AGENT.OBJECTS.SCADA.Solidaridad.Cuencas.Cuenca_PTAR_SAAS.Carcamo_Mayakoba.Equipos.Bombas.Bomba_1"/>
 </svg>
 <svg atv:refpx="144.923" atv:refpy="211.5" height="25" id="id_78" transform="matrix(0.6,0,0,0.6,0,0)" width="25" x="229.039" xlink:href="ObjectTypes.PROJECT.Bomba.Indicador_Bomba" y="340">
  <atv:argument name="base" value="AGENT.OBJECTS.SCADA.Solidaridad.Cuencas.Cuenca_PTAR_SAAS.Carcamo_Mayakoba.Equipos.Bombas.Bomba_2"/>
 </svg>
 <svg atv:refpx="159.874" atv:refpy="211.5" height="25" id="id_82" transform="matrix(0.6,0,0,0.6,0,0)" width="25" x="253.957" xlink:href="ObjectTypes.PROJECT.Bomba.Indicador_Bomba" y="340">
  <atv:argument name="base" value="AGENT.OBJECTS.SCADA.Solidaridad.Cuencas.Cuenca_PTAR_SAAS.Carcamo_Mayakoba.Equipos.Bombas.Bomba_3"/>
 </svg>
 <svg atv:refpx="175.774" atv:refpy="211.5" height="25" id="id_89" transform="matrix(0.6,0,0,0.6,0,0)" width="25" x="280.457" xlink:href="ObjectTypes.PROJECT.Bomba.Indicador_Bomba" y="340">
  <atv:argument name="base" value="AGENT.OBJECTS.SCADA.Solidaridad.Cuencas.Cuenca_PTAR_SAAS.Carcamo_Mayakoba.Equipos.Bombas.Bomba_4"/>
 </svg>
 <svg atv:refpx="191.2" atv:refpy="211.5" height="25" id="id_93" transform="matrix(0.6,0,0,0.6,0,0)" width="25" x="306.167" xlink:href="ObjectTypes.PROJECT.Bomba.Indicador_Bomba" y="340">
  <atv:argument name="base" value="AGENT.OBJECTS.SCADA.Solidaridad.Cuencas.Cuenca_PTAR_SAAS.Carcamo_Mayakoba.Equipos.Bombas.Bomba_5"/>
 </svg>
 <svg atv:refpx="207.5" atv:refpy="211.5" height="25" id="id_99" transform="matrix(0.6,0,0,0.6,0,0)" width="25" x="333.333" xlink:href="ObjectTypes.PROJECT.Bomba.Indicador_Bomba" y="340">
  <atv:argument name="base" value="AGENT.OBJECTS.SCADA.Solidaridad.Cuencas.Cuenca_PTAR_SAAS.Carcamo_Mayakoba.Equipos.Bombas.Bomba_6"/>
 </svg>
 <svg atv:refpx="280.5" atv:refpy="197.5" height="25" id="id_103" transform="matrix(0.6,0,0,0.6,0,0)" width="25" x="455" xlink:href="ObjectTypes.PROJECT.Bomba.Indicador_Bomba" y="316.667">
  <atv:argument name="base" value="AGENT.OBJECTS.SCADA.Solidaridad.Cuencas.Cuenca_PTAR_SAAS.Carcamo_CAME.Equipos.Bombas.Bomba_1"/>
 </svg>
 <svg atv:refpx="297.5" atv:refpy="197.5" height="25" id="id_104" transform="matrix(0.6,0,0,0.6,0,0)" width="25" x="480" xlink:href="ObjectTypes.PROJECT.Bomba.Indicador_Bomba" y="316.667">
  <atv:argument name="base" value="AGENT.OBJECTS.SCADA.Solidaridad.Cuencas.Cuenca_PTAR_SAAS.Carcamo_CAME.Equipos.Bombas.Bomba_2"/>
 </svg>
 <svg atv:refpx="313.5" atv:refpy="197.5" height="25" id="id_105" transform="matrix(0.6,0,0,0.6,0,0)" width="25" x="505" xlink:href="ObjectTypes.PROJECT.Bomba.Indicador_Bomba" y="316.667">
  <atv:argument name="base" value="AGENT.OBJECTS.SCADA.Solidaridad.Cuencas.Cuenca_PTAR_SAAS.Carcamo_CAME.Equipos.Bombas.Bomba_3"/>
 </svg>
 <svg atv:refpx="393.5" atv:refpy="197.5" height="25" id="id_107" transform="matrix(0.6,0,0,0.6,0,0)" width="25" x="643.333" xlink:href="ObjectTypes.PROJECT.Bomba.Indicador_Bomba" y="316.667">
  <atv:argument name="base" value="AGENT.OBJECTS.SCADA.Solidaridad.Cuencas.Cuenca_PTAR_SAAS.Carcamo_Palmas_II.Equipos.Bombas.Bomba_1"/>
 </svg>
 <svg atv:refpx="408" atv:refpy="197.5" height="25" id="id_108" transform="matrix(0.6,0,0,0.6,0,0)" width="25" x="667.5" xlink:href="ObjectTypes.PROJECT.Bomba.Indicador_Bomba" y="316.667">
  <atv:argument name="base" value="AGENT.OBJECTS.SCADA.Solidaridad.Cuencas.Cuenca_PTAR_SAAS.Carcamo_Palmas_II.Equipos.Bombas.Bomba_2"/>
 </svg>
 <svg atv:refpx="391.5" atv:refpy="274.5" height="25" id="id_111" transform="matrix(0.6,0,0,0.6,0,0)" width="25" x="643.334" xlink:href="ObjectTypes.PROJECT.Bomba.Indicador_Bomba" y="445">
  <atv:argument name="base" value="AGENT.OBJECTS.SCADA.Solidaridad.Cuencas.Cuenca_PTAR_SAAS.Carcamo_Mision_Las_Flores.Equipos.Bombas.Bomba_1"/>
 </svg>
 <svg atv:refpx="407.499" atv:refpy="274.5" height="25" id="id_115" transform="matrix(0.6,0,0,0.6,0,0)" width="25" x="668.333" xlink:href="ObjectTypes.PROJECT.Bomba.Indicador_Bomba" y="445">
  <atv:argument name="base" value="AGENT.OBJECTS.SCADA.Solidaridad.Cuencas.Cuenca_PTAR_SAAS.Carcamo_Mision_Las_Flores.Equipos.Bombas.Bomba_2"/>
 </svg>
 <svg atv:refpx="419.5" atv:refpy="274.5" height="25" id="id_118" transform="matrix(0.6,0,0,0.6,0,0)" width="25" x="693.333" xlink:href="ObjectTypes.PROJECT.Bomba.Indicador_Bomba" y="445">
  <atv:argument name="base" value="AGENT.OBJECTS.SCADA.Solidaridad.Cuencas.Cuenca_PTAR_SAAS.Carcamo_Mision_Las_Flores.Equipos.Bombas.Bomba_3"/>
 </svg>
 <svg atv:refpx="430.5" atv:refpy="274.5" height="25" id="id_119" transform="matrix(0.6,0,0,0.6,0,0)" width="25" x="718.333" xlink:href="ObjectTypes.PROJECT.Bomba.Indicador_Bomba" y="445">
  <atv:argument name="base" value="AGENT.OBJECTS.SCADA.Solidaridad.Cuencas.Cuenca_PTAR_SAAS.Carcamo_Mision_Las_Flores.Equipos.Bombas.Bomba_4"/>
 </svg>
 <svg atv:refpx="443" atv:refpy="274.5" height="25" id="id_120" transform="matrix(0.6,0,0,0.6,0,0)" width="25" x="742.5" xlink:href="ObjectTypes.PROJECT.Bomba.Indicador_Bomba" y="445">
  <atv:argument name="base" value="AGENT.OBJECTS.SCADA.Solidaridad.Cuencas.Cuenca_PTAR_SAAS.Carcamo_Mision_Las_Flores.Equipos.Bombas.Bomba_5"/>
 </svg>
 <svg atv:refpx="462" atv:refpy="273.5" height="25" id="id_121" transform="matrix(0.6,0,0,0.6,0,0)" width="25" x="767.5" xlink:href="ObjectTypes.PROJECT.Bomba.Indicador_Bomba" y="445">
  <atv:argument name="base" value="AGENT.OBJECTS.SCADA.Solidaridad.Cuencas.Cuenca_PTAR_SAAS.Carcamo_Mision_Las_Flores.Equipos.Bombas.Bomba_6"/>
 </svg>
 <svg atv:refpx="129.998" atv:refpy="274" height="25" id="id_122" transform="matrix(0.6,0,0,0.6,0,0)" width="25" x="204.163" xlink:href="ObjectTypes.PROJECT.Bomba.Indicador_Bomba" y="444.167">
  <atv:argument name="base" value="AGENT.OBJECTS.SCADA.Solidaridad.Cuencas.Cuenca_PTAR_SAAS.Carcamo_Balamtun.Equipos.Bombas.Bomba_1"/>
 </svg>
 <svg atv:refpx="145.923" atv:refpy="274" height="25" id="id_123" transform="matrix(0.6,0,0,0.6,0,0)" width="25" x="229.039" xlink:href="ObjectTypes.PROJECT.Bomba.Indicador_Bomba" y="444.167">
  <atv:argument name="base" value="AGENT.OBJECTS.SCADA.Solidaridad.Cuencas.Cuenca_PTAR_SAAS.Carcamo_Balamtun.Equipos.Bombas.Bomba_2"/>
 </svg>
 <svg atv:refpx="159.874" atv:refpy="274" height="25" id="id_124" transform="matrix(0.6,0,0,0.6,0,0)" width="25" x="253.957" xlink:href="ObjectTypes.PROJECT.Bomba.Indicador_Bomba" y="444.167">
  <atv:argument name="base" value="AGENT.OBJECTS.SCADA.Solidaridad.Cuencas.Cuenca_PTAR_SAAS.Carcamo_Balamtun.Equipos.Bombas.Bomba_3"/>
 </svg>
 <svg atv:refpx="129.998" atv:refpy="337.5" height="25" id="id_130" transform="matrix(0.6,0,0,0.6,0,0)" width="25" x="204.163" xlink:href="ObjectTypes.PROJECT.Bomba.Indicador_Bomba" y="550">
  <atv:argument name="base" value="AGENT.OBJECTS.SCADA.Solidaridad.Cuencas.Cuenca_PTAR_SAAS.Carcamo_Ejido_Sur.Equipos.Bombas.Bomba_1"/>
 </svg>
 <svg atv:refpx="145.923" atv:refpy="337.5" height="25" id="id_132" transform="matrix(0.6,0,0,0.6,0,0)" width="25" x="229.039" xlink:href="ObjectTypes.PROJECT.Bomba.Indicador_Bomba" y="550">
  <atv:argument name="base" value="AGENT.OBJECTS.SCADA.Solidaridad.Cuencas.Cuenca_PTAR_SAAS.Carcamo_Ejido_Sur.Equipos.Bombas.Bomba_2"/>
 </svg>
 <svg atv:refpx="159.874" atv:refpy="337.5" height="25" id="id_133" transform="matrix(0.6,0,0,0.6,0,0)" width="25" x="253.957" xlink:href="ObjectTypes.PROJECT.Bomba.Indicador_Bomba" y="550">
  <atv:argument name="base" value="AGENT.OBJECTS.SCADA.Solidaridad.Cuencas.Cuenca_PTAR_SAAS.Carcamo_Ejido_Sur.Equipos.Bombas.Bomba_3"/>
 </svg>
 <svg atv:refpx="262.5" atv:refpy="332.5" height="25" id="id_134" transform="matrix(0.6,0,0,0.6,0,0)" width="25" x="425" xlink:href="ObjectTypes.PROJECT.Bomba.Indicador_Bomba" y="541.667">
  <atv:argument name="base" value="AGENT.OBJECTS.SCADA.Solidaridad.Cuencas.Cuenca_PTAR_SAAS.Carcamo_Diamante.Equipos.Bombas.Bomba_1"/>
 </svg>
 <svg atv:refpx="279.5" atv:refpy="332.5" height="25" id="id_135" transform="matrix(0.6,0,0,0.6,0,0)" width="25" x="450" xlink:href="ObjectTypes.PROJECT.Bomba.Indicador_Bomba" y="541.667">
  <atv:argument name="base" value="AGENT.OBJECTS.SCADA.Solidaridad.Cuencas.Cuenca_PTAR_SAAS.Carcamo_Diamante.Equipos.Bombas.Bomba_2"/>
 </svg>
 <svg atv:refpx="295.5" atv:refpy="332.5" height="25" id="id_136" transform="matrix(0.6,0,0,0.6,0,0)" width="25" x="475" xlink:href="ObjectTypes.PROJECT.Bomba.Indicador_Bomba" y="541.667">
  <atv:argument name="base" value="AGENT.OBJECTS.SCADA.Solidaridad.Cuencas.Cuenca_PTAR_SAAS.Carcamo_Diamante.Equipos.Bombas.Bomba_3"/>
 </svg>
 <svg atv:refpx="130" atv:refpy="400.5" height="25" id="id_139" transform="matrix(0.6,0,0,0.6,0,0)" width="25" x="204.167" xlink:href="ObjectTypes.PROJECT.Bomba.Indicador_Bomba" y="655">
  <atv:argument name="base" value="AGENT.OBJECTS.SCADA.Solidaridad.Cuencas.Cuenca_PTAR_SAAS.Carcamo_Playero.Equipos.Bombas.Bomba_2"/>
 </svg>
 <svg atv:refpx="145" atv:refpy="400.5" height="25" id="id_140" transform="matrix(0.6,0,0,0.6,0,0)" width="25" x="229.167" xlink:href="ObjectTypes.PROJECT.Bomba.Indicador_Bomba" y="655">
  <atv:argument name="base" value="AGENT.OBJECTS.SCADA.Solidaridad.Cuencas.Cuenca_PTAR_SAAS.Carcamo_Playero.Equipos.Bombas.Bomba_1"/>
 </svg>
 <svg atv:refpx="393.5" atv:refpy="390.5" height="25" id="id_141" transform="matrix(0.6,0,0,0.6,0,0)" width="25" x="643.333" xlink:href="ObjectTypes.PROJECT.Bomba.Indicador_Bomba" y="638.333">
  <atv:argument name="base" value="AGENT.OBJECTS.SCADA.Solidaridad.Cuencas.Cuenca_PTAR_SAAS.Carcamo_Toscana.Equipos.Bombas.Bomba_1"/>
 </svg>
 <svg atv:refpx="408" atv:refpy="390.5" height="25" id="id_142" transform="matrix(0.6,0,0,0.6,0,0)" width="25" x="667.5" xlink:href="ObjectTypes.PROJECT.Bomba.Indicador_Bomba" y="638.333">
  <atv:argument name="base" value="AGENT.OBJECTS.SCADA.Solidaridad.Cuencas.Cuenca_PTAR_SAAS.Carcamo_Toscana.Equipos.Bombas.Bomba_2"/>
 </svg>
 <svg atv:refpx="423.5" atv:refpy="390.5" height="25" id="id_143" transform="matrix(0.6,0,0,0.6,0,0)" width="25" x="691.667" xlink:href="ObjectTypes.PROJECT.Bomba.Indicador_Bomba" y="638.333">
  <atv:argument name="base" value="AGENT.OBJECTS.SCADA.Solidaridad.Cuencas.Cuenca_PTAR_SAAS.Carcamo_Toscana.Equipos.Bombas.Bomba_3"/>
 </svg>
 <svg atv:refpx="439" atv:refpy="390.5" height="25" id="id_144" transform="matrix(0.6,0,0,0.6,0,0)" width="25" x="715.833" xlink:href="ObjectTypes.PROJECT.Bomba.Indicador_Bomba" y="638.333">
  <atv:argument name="base" value="AGENT.OBJECTS.SCADA.Solidaridad.Cuencas.Cuenca_PTAR_SAAS.Carcamo_Toscana.Equipos.Bombas.Bomba_4"/>
 </svg>
 <svg atv:refpx="130" atv:refpy="467.5" height="25" id="id_145" transform="matrix(0.6,0,0,0.6,0,0)" width="25" x="204.167" xlink:href="ObjectTypes.PROJECT.Bomba.Indicador_Bomba" y="766.667">
  <atv:argument name="base" value="AGENT.OBJECTS.SCADA.Solidaridad.Cuencas.Cuenca_PTAR_SAAS.Carcamo_CTM.Equipos.Bombas.Bomba_1"/>
 </svg>
 <svg atv:refpx="145" atv:refpy="467.5" height="25" id="id_146" transform="matrix(0.6,0,0,0.6,0,0)" width="25" x="229.167" xlink:href="ObjectTypes.PROJECT.Bomba.Indicador_Bomba" y="766.667">
  <atv:argument name="base" value="AGENT.OBJECTS.SCADA.Solidaridad.Cuencas.Cuenca_PTAR_SAAS.Carcamo_CTM.Equipos.Bombas.Bomba_2"/>
 </svg>
 <svg atv:refpx="130" atv:refpy="529" height="25" id="id_147" transform="matrix(0.6,0,0,0.6,0,0)" width="25" x="204.167" xlink:href="ObjectTypes.PROJECT.Bomba.Indicador_Bomba" y="869.167">
  <atv:argument name="base" value="AGENT.OBJECTS.SCADA.Solidaridad.Cuencas.Cuenca_PTAR_SAAS.Carcamo_88.Equipos.Bombas.Bomba_1"/>
 </svg>
 <svg atv:refpx="145.5" atv:refpy="562.5" height="25" id="id_148" transform="matrix(0.6,0,0,0.6,0,0)" width="25" x="230" xlink:href="ObjectTypes.PROJECT.Bomba.Indicador_Bomba" y="925">
  <atv:argument name="base" value="AGENT.OBJECTS.SCADA.Solidaridad.Cuencas.Cuenca_PTAR_SAAS.Carcamo_88.Equipos.Bombas.Bomba_3"/>
 </svg>
 <svg atv:refpx="144.5" atv:refpy="529" height="25" id="id_149" transform="matrix(0.6,0,0,0.6,0,0)" width="25" x="228.333" xlink:href="ObjectTypes.PROJECT.Bomba.Indicador_Bomba" y="869.167">
  <atv:argument name="base" value="AGENT.OBJECTS.SCADA.Solidaridad.Cuencas.Cuenca_PTAR_SAAS.Carcamo_88.Equipos.Bombas.Bomba_2"/>
 </svg>
 <svg atv:refpx="262.5" atv:refpy="458.5" height="25" id="id_150" transform="matrix(0.6,0,0,0.6,0,0)" width="25" x="421.667" xlink:href="ObjectTypes.PROJECT.Bomba.Indicador_Bomba" y="750">
  <atv:argument name="base" value="AGENT.OBJECTS.SCADA.Solidaridad.Cuencas.Cuenca_PTAR_SAAS.Carcamo_Colosio.Equipos.Bombas.Bomba_1"/>
 </svg>
 <svg atv:refpx="288.5" atv:refpy="459.5" height="25" id="id_151" transform="matrix(0.6,0,0,0.6,0,0)" width="25" x="446.667" xlink:href="ObjectTypes.PROJECT.Bomba.Indicador_Bomba" y="750">
  <atv:argument name="base" value="AGENT.OBJECTS.SCADA.Solidaridad.Cuencas.Cuenca_PTAR_SAAS.Carcamo_Colosio.Equipos.Bombas.Bomba_2"/>
 </svg>
 <svg atv:refpx="310.5" atv:refpy="459.5" height="25" id="id_152" transform="matrix(0.6,0,0,0.6,0,0)" width="25" x="471.667" xlink:href="ObjectTypes.PROJECT.Bomba.Indicador_Bomba" y="750">
  <atv:argument name="base" value="AGENT.OBJECTS.SCADA.Solidaridad.Cuencas.Cuenca_PTAR_SAAS.Carcamo_Colosio.Equipos.Bombas.Bomba_3"/>
 </svg>
 <svg atv:refpx="393.5" atv:refpy="457.5" height="25" id="id_153" transform="matrix(0.6,0,0,0.6,0,0)" width="25" x="643.333" xlink:href="ObjectTypes.PROJECT.Bomba.Indicador_Bomba" y="750">
  <atv:argument name="base" value="AGENT.OBJECTS.SCADA.Solidaridad.Cuencas.Cuenca_PTAR_SAAS.Carcamo_Final_AR.Equipos.Bombas.Bomba_1"/>
 </svg>
 <svg atv:refpx="408" atv:refpy="457.5" height="25" id="id_164" transform="matrix(0.6,0,0,0.6,0,0)" width="25" x="667.5" xlink:href="ObjectTypes.PROJECT.Bomba.Indicador_Bomba" y="750">
  <atv:argument name="base" value="AGENT.OBJECTS.SCADA.Solidaridad.Cuencas.Cuenca_PTAR_SAAS.Carcamo_Final_AR.Equipos.Bombas.Bomba_2"/>
 </svg>
 <svg atv:refpx="423.5" atv:refpy="457.5" height="25" id="id_171" transform="matrix(0.6,0,0,0.6,0,0)" width="25" x="691.667" xlink:href="ObjectTypes.PROJECT.Bomba.Indicador_Bomba" y="750">
  <atv:argument name="base" value="AGENT.OBJECTS.SCADA.Solidaridad.Cuencas.Cuenca_PTAR_SAAS.Carcamo_Final_AR.Equipos.Bombas.Bomba_3"/>
 </svg>
 <svg atv:refpx="393.5" atv:refpy="526.5" height="25" id="id_172" transform="matrix(0.6,0,0,0.6,0,0)" width="25" x="643.333" xlink:href="ObjectTypes.PROJECT.Bomba.Indicador_Bomba" y="865">
  <atv:argument name="base" value="AGENT.OBJECTS.SCADA.Solidaridad.Cuencas.Cuenca_PTAR_SAAS.Carcamo_Ejido_Norte.Equipos.Bombas.Bomba_1"/>
 </svg>
 <svg atv:refpx="408" atv:refpy="526.5" height="25" id="id_173" transform="matrix(0.6,0,0,0.6,0,0)" width="25" x="667.5" xlink:href="ObjectTypes.PROJECT.Bomba.Indicador_Bomba" y="865">
  <atv:argument name="base" value="AGENT.OBJECTS.SCADA.Solidaridad.Cuencas.Cuenca_PTAR_SAAS.Carcamo_Ejido_Norte.Equipos.Bombas.Bomba_2"/>
 </svg>
 <svg atv:refpx="527.5" atv:refpy="527.5" height="25" id="id_174" transform="matrix(0.6,0,0,0.6,0,0)" width="25" x="866.667" xlink:href="ObjectTypes.PROJECT.Bomba.Indicador_Bomba" y="866.667">
  <atv:argument name="base" value="AGENT.OBJECTS.SCADA.Solidaridad.Cuencas.Cuenca_PTAR_GONZ.Carcamo_Gonzalo.Equipos.Bombas.Bomba_1"/>
 </svg>
 <svg atv:refpx="542.5" atv:refpy="527.5" height="25" id="id_175" transform="matrix(0.6,0,0,0.6,0,0)" width="25" x="891.667" xlink:href="ObjectTypes.PROJECT.Bomba.Indicador_Bomba" y="866.667">
  <atv:argument name="base" value="AGENT.OBJECTS.SCADA.Solidaridad.Cuencas.Cuenca_PTAR_GONZ.Carcamo_Gonzalo.Equipos.Bombas.Bomba_2"/>
 </svg>
 <svg atv:refpx="557.5" atv:refpy="527.5" height="25" id="id_176" transform="matrix(0.6,0,0,0.6,0,0)" width="25" x="916.667" xlink:href="ObjectTypes.PROJECT.Bomba.Indicador_Bomba" y="866.667">
  <atv:argument name="base" value="AGENT.OBJECTS.SCADA.Solidaridad.Cuencas.Cuenca_PTAR_GONZ.Carcamo_Gonzalo.Equipos.Bombas.Bomba_3"/>
 </svg>
 <line atv:refpx="496" atv:refpy="338.5" fill="#000000" fill-opacity="0.964706" id="id_180" stroke="#000000" stroke-linecap="round" stroke-linejoin="round" stroke-width="1.743" x1="496" x2="496" y1="425" y2="252"/>
 <svg atv:refpx="436.685" atv:refpy="119" height="63.11" id="id_183" transform="matrix(0.7519,0,0,0.7289,0,0)" width="133" x="516.951" xlink:href="ObjectTypes.PROJECT.ElementoLineaAR.Principal" y="119.36">
  <atv:argument name="base" value="AGENT.OBJECTS.SCADA.Solidaridad.Cuencas.Cuenca_PTAR_SAAS.Carcamo_Palmas_Turquesa"/>
 </svg>
 <svg atv:refpx="7.212" atv:refpy="400.212" height="25" id="id_137" transform="matrix(0.5769,0,0,0.5769,0,0)" width="25" x="0" xlink:href="ObjectTypes.PROJECT.Bomba.Indicador_Bomba" y="681.2">
  <atv:argument name="base" value="AGENT.OBJECTS.SCADA.Solidaridad.Cuencas.Cuenca_PTAR_SAAS.Carcamo_16.Equipos.Bombas.Bomba_1"/>
 </svg>
 <svg atv:refpx="22.212" atv:refpy="400.212" height="25" id="id_138" transform="matrix(0.5769,0,0,0.5769,0,0)" width="25" x="26" xlink:href="ObjectTypes.PROJECT.Bomba.Indicador_Bomba" y="681.2">
  <atv:argument name="base" value="AGENT.OBJECTS.SCADA.Solidaridad.Cuencas.Cuenca_PTAR_SAAS.Carcamo_16.Equipos.Bombas.Bomba_2"/>
 </svg>
 <svg atv:refpx="463.5" atv:refpy="457.5" height="25" id="id_184" transform="matrix(0.6,0,0,0.6,0,0)" width="25" x="765" xlink:href="ObjectTypes.PROJECT.Bomba.Indicador_Bomba" y="750">
  <atv:argument name="base" value="AGENT.OBJECTS.SCADA.Solidaridad.Cuencas.Cuenca_PTAR_SAAS.Carcamo_Final_AR.Equipos.Bombas.Aux_B1"/>
 </svg>
 <svg atv:refpx="481.5" atv:refpy="457.5" height="25" id="id_185" transform="matrix(0.6,0,0,0.6,0,0)" width="25" x="790" xlink:href="ObjectTypes.PROJECT.Bomba.Indicador_Bomba" y="750">
  <atv:argument name="base" value="AGENT.OBJECTS.SCADA.Solidaridad.Cuencas.Cuenca_PTAR_SAAS.Carcamo_Final_AR.Equipos.Bombas.Aux_B2"/>
 </svg>
</svg>
