<?xml version='1.0' encoding='utf-8'?>
<!-- Uploaded to: SVG Repo, www.svgrepo.com, Generator: SVG Repo Mixer Tools -->
<svg fill="none" height="21.170000000000002" width="16" xmlns="http://www.w3.org/2000/svg" xmlns:atv="http://webmi.atvise.com/2007/svgext" xmlns:xlink="http://www.w3.org/1999/xlink">
 <defs/>
 <metadata>
  <atv:gridconfig enabled="false" gridstyle="lines" height="20" width="20"/>
  <atv:snapconfig enabled="false" height="10" width="10"/>
 </metadata>
 <path atv:refpx="8" atv:refpy="10.587" clip-rule="evenodd" d="M8,0L8.887,1.712C10.103,4.057 11.521,5.689 12.802,7.164C12.989,7.38 13.172,7.59 13.353,7.802C14.733,9.413 16,11.052 16,13.342C16,17.689 12.395,21.173 8,21.173C3.604,21.173 0,17.689 0,13.342C0,11.052 1.266,9.413 2.646,7.802C2.825,7.59 3.01,7.38 3.197,7.164C4.478,5.689 5.896,4.057 7.112,1.712ZM4.164,9.103C2.774,10.727 2,11.86 2,13.342C2,16.539 4.663,19.173 8,19.173C11.337,19.173 14,16.539 14,13.342C14,11.86 13.225,10.727 11.834,9.103C11.664,8.904 11.486,8.699 11.302,8.488C10.296,7.33 9.108,5.966 8,4.189C6.891,5.966 5.702,7.33 4.696,8.488C4.513,8.699 4.335,8.904 4.164,9.103" fill="#35c0f3" fill-rule="evenodd" id="id_0"/>
</svg>
