<?xml version='1.0' encoding='UTF-8' standalone='no'?>
<svg enable-background="new 0 0 16 16" height="40" id="Ebene_1" version="1.1" width="40" x="0px" xml:space="preserve" y="0px" xmlns="http://www.w3.org/2000/svg" xmlns:atv="http://webmi.atvise.com/2007/svgext" xmlns:xlink="http://www.w3.org/1999/xlink">
 <defs>
  <linearGradient gradientUnits="objectBoundingBox" id="SVGID_1_" x1="-0.290145" x2="0.792871" y1="0.136603" y2="0.639639">
   <stop offset="0" stop-color="#9d9d9c"/>
   <stop offset="1" stop-color="#c3c3b"/>
  </linearGradient>
  <linearGradient gradientUnits="objectBoundingBox" id="SVGID_2_" x1="0.0373956" x2="0.933879" y1="0.0373166" y2="1.06773">
   <stop offset="0" stop-color="#9d9d9c"/>
   <stop offset="1" stop-color="#c3c3b"/>
  </linearGradient>
 </defs>
 <metadata>
  <atv:parameter behavior="optional" defaultvalue="#000000" desc="symbol color" name="symbolColor" substitute="$SYMBOLCOLOR$" valuetype="color"/>
  <atv:parameter behavior="optional" defaultvalue="#ffffff" desc="symbol color 2" name="symbolColor2" substitute="$SYMBOLCOLOR2$" valuetype="color"/>
  <atv:gridconfig enabled="false" gridstyle="lines" height="20" width="20"/>
  <atv:snapconfig enabled="false" height="10" width="10"/>
 </metadata>
 <path atv:refpx="35.601" atv:refpy="25.105" d="M32.049,17.409L32.024,32.796L32.145,32.796L39.152,17.673C39.219,17.527 39.111,17.413 38.916,17.413" fill="$SYMBOLCOLOR$" id="id_0" stroke-width="1.117"/>
 <path atv:refpx="15.767" atv:refpy="20.003" d="M30.31,10.603L14.369,10.603L14.369,7.391C14.369,7.186 14.202,7.021 13.994,7.021L3.083,7.021C2.877,7.021 2.71,7.186 2.71,7.391L2.71,10.603L1.218,10.603C1.012,10.603 0.847,10.77 0.847,10.976L0.847,32.604C0.847,32.813 1.012,32.978 1.218,32.978L30.31,32.978C30.52,32.978 30.685,32.813 30.685,32.604L30.685,10.976C30.685,10.77 30.52,10.603 30.31,10.603" fill="$SYMBOLCOLOR$" id="id_1" stroke-width="1.117"/>
 <g atv:refpx="14.858" atv:refpy="22.061" id="id_13" transform="matrix(2.1437,0,0,2.1437,-2.5821,-1.7453)">
  <text atv:refpx="-4.931" atv:refpy="17.093" fill="$SYMBOLCOLOR2$" font-family="Arial" font-size="7" font-weight="bold" id="id_2" transform="matrix(0.5594,0,0,0.5594,2.1057,3.2397)" x="8.779" y="17.353">R</text>
  <polygon atv:refpx="13.936" atv:refpy="15.147" fill="none" id="id_3" points="5.572,6.658 5.572,15.32 11.347,15.32 11.347,8.583 9.422,6.658" stroke="$SYMBOLCOLOR2$" stroke-width="0.385"/>
  <polyline atv:refpx="26.452" atv:refpy="4.809" fill="$SYMBOLCOLOR2$" id="id_4" points="9.326,6.828 9.326,8.753 11.251,8.753" stroke="none" stroke-width="0.385"/>
  <rect atv:refpx="11.298" atv:refpy="13.918" fill="$SYMBOLCOLOR2$" height="0.28" id="id_6" stroke="none" stroke-width="0.386" width="2.618" x="6.24" y="8.382"/>
  <rect atv:refpx="11.299" atv:refpy="12.147" fill="$SYMBOLCOLOR2$" height="0.28" id="id_7" stroke="none" stroke-width="0.386" width="2.618" x="6.24" y="7.496"/>
  <rect atv:refpx="8.999" atv:refpy="19.701" fill="$SYMBOLCOLOR2$" height="0.28" id="id_8" stroke="none" stroke-width="0.386" width="4.441" x="6.24" y="9.267"/>
  <rect atv:refpx="9" atv:refpy="34.89" fill="$SYMBOLCOLOR2$" height="0.28" id="id_9" stroke="none" stroke-width="0.386" width="4.441" x="6.24" y="14.328"/>
  <rect atv:refpx="9" atv:refpy="32.522" fill="$SYMBOLCOLOR2$" height="0.28" id="id_11" stroke="none" stroke-width="0.386" width="4.441" x="6.24" y="13.539"/>
 </g>
 <script atv:desc="" atv:name="" type="text/ecmascript"/>
</svg>
