<?xml version='1.0' encoding='UTF-8' standalone='no'?>
<svg height="290" version="1.2" width="600" xmlns="http://www.w3.org/2000/svg" xmlns:atv="http://webmi.atvise.com/2007/svgext" xmlns:xlink="http://www.w3.org/1999/xlink">
 <desc>Confirmation dialog for Recipe Picker.</desc>
 <title>Confirmation Dialog</title>
 <defs/>
 <metadata>
  <atv:parameter behavior="optional" desc="recipe name" name="receipeName" substitute="$receipeName$" valuetype="address"/>
  <atv:gridconfig enabled="false" gridstyle="lines" height="20" width="20"/>
  <atv:snapconfig enabled="false" height="10" width="10"/>
 </metadata>
 <text atv:refpx="291.495" atv:refpy="16" fill="#575757" font-family="Arial" font-size="20" id="id_1" x="218.995" y="23.5">T{Recipe select}</text>
 <svg atv:refpx="392.42" atv:refpy="277.229" height="30" id="btnOk" transform="matrix(1.5625,0,0,1.1667,0,0)" width="80" x="211.149" xlink:href="SYSTEM.LIBRARY.ATVISE.OBJECTDISPLAYS.Advanced.button" y="218.339">
  <atv:argument name="label" value="T{OK}"/>
  <atv:overwrite height="33.001" id="id_6" transform="matrix(0.64,0,0,0.8571,0,0)" width="123"/>
  <atv:overwrite id="button_label_2" transform="matrix(0.64,0,0,0.8571,0,0)" x="62.5" y="29.001"/>
  <atv:overwrite id="button_label_1" transform="matrix(0.64,0,0,0.8571,0,0)" x="62.5" y="14.001"/>
  <atv:overwrite id="button_label" transform="matrix(0.64,0,0,0.8571,0,0)" x="62.5" y="22.001"/>
  <atv:overwrite id="button_symbol_bottom" transform="matrix(0.384,0,0,0.5143,0,0)" x="94" y="30.46"/>
  <atv:overwrite id="button_symbol_top" transform="matrix(0.384,0,0,0.5143,0,0)" x="94" y="9.127"/>
  <atv:overwrite id="button_symbol" transform="matrix(0.64,0,0,0.8571,0,0)" x="52.5" y="7.501"/>
  <atv:overwrite height="31.001" id="button_stroke" transform="matrix(0.64,0,0,0.8571,0,0)" width="121"/>
  <atv:overwrite height="33.001" id="button_bg" transform="matrix(0.64,0,0,0.8571,0,0)" width="123"/>
  <atv:overwrite height="35.001" id="outer_frame" transform="matrix(0.64,0,0,0.8571,0,0)" width="125"/>
 </svg>
 <svg atv:refpx="537.282" atv:refpy="276.405" height="30" id="btn_cancel" transform="matrix(1.5625,0,0,1.1667,0,0)" width="80" x="303.86" xlink:href="SYSTEM.LIBRARY.ATVISE.OBJECTDISPLAYS.Advanced.button" y="218.49">
  <atv:argument name="label" value="T{Cancel}"/>
  <atv:overwrite height="33.001" id="id_6" transform="matrix(0.64,0,0,0.8571,0,0)" width="123"/>
  <atv:overwrite id="button_label_2" transform="matrix(0.64,0,0,0.8571,0,0)" x="62.5" y="29.001"/>
  <atv:overwrite id="button_label_1" transform="matrix(0.64,0,0,0.8571,0,0)" x="62.5" y="14.001"/>
  <atv:overwrite id="button_label" transform="matrix(0.64,0,0,0.8571,0,0)" x="62.5" y="22.001"/>
  <atv:overwrite id="button_symbol_bottom" transform="matrix(0.384,0,0,0.5143,0,0)" x="94" y="30.46"/>
  <atv:overwrite id="button_symbol_top" transform="matrix(0.384,0,0,0.5143,0,0)" x="94" y="9.127"/>
  <atv:overwrite id="button_symbol" transform="matrix(0.64,0,0,0.8571,0,0)" x="52.5" y="7.501"/>
  <atv:overwrite height="31.001" id="button_stroke" transform="matrix(0.64,0,0,0.8571,0,0)" width="121"/>
  <atv:overwrite height="33.001" id="button_bg" transform="matrix(0.64,0,0,0.8571,0,0)" width="123"/>
  <atv:overwrite height="35.001" id="outer_frame" transform="matrix(0.64,0,0,0.8571,0,0)" width="125"/>
 </svg>
 <text atv:refpx="300.5" atv:refpy="132.194" fill="#575757" font-family="Arial" font-size="20" id="id_3" text-anchor="middle" x="300" y="139.694">$receipeName$ : T{Set as active recipe}?</text>
 <script atv:desc="" atv:name="" type="text/ecmascript"><![CDATA[webMI.trigger.connect("clicked", function(e){
	webMI.trigger.fire("set_recipe_active");
	webMI.display.closeWindow()
}, "btnOk");

webMI.trigger.connect("clicked", function(e){
	webMI.display.closeWindow()
}, "btn_cancel");]]></script>
</svg>
