<?xml version='1.0' encoding='UTF-8' standalone='no'?>
<!-- Uploaded to: SVG Repo, www.svgrepo.com, Generator: SVG Repo Mixer Tools -->
<svg height="16.000000000000114" version="1.1" width="20" xmlns="http://www.w3.org/2000/svg" xmlns:atv="http://webmi.atvise.com/2007/svgext" xmlns:xlink="http://www.w3.org/1999/xlink">
 <g atv:refpx="10" atv:refpy="8" id="id_0">
  <defs/>
  <metadata/>
  <title>wifi [#1018]</title>
  <desc>Created with Sketch.</desc>
  <g atv:refpx="10" atv:refpy="8" id="Page-1">
   <g atv:refpx="10" atv:refpy="8" id="Dribbble-Light-Preview" transform="translate(-60.000000, -3681.000000)">
    <g atv:refpx="70" atv:refpy="3689" id="icons" transform="translate(56.000000, 160.000000)">
     <path atv:refpx="14" atv:refpy="3529" d="M11.979,3535C11.979,3536 12.883,3537 14,3537C15.116,3537 16.02,3536 16.02,3535C16.02,3532 11.979,3532 11.979,3535M9.713,3530.76L11.143,3532.17C12.718,3530.61 15.281,3530.61 16.856,3532.17L18.286,3530.76C15.918,3528.41 12.081,3528.41 9.713,3530.76M4,3525.1L5.428,3526.51C10.155,3521.84 17.844,3521.84 22.571,3526.51L24,3525.1C18.477,3519.63 9.522,3519.63 4,3525.1M21.143,3527.93L19.714,3529.34C16.563,3526.22 11.436,3526.22 8.285,3529.34L6.856,3527.93C10.801,3524.02 17.198,3524.02 21.143,3527.93" fill="#000000" fill-rule="evenodd" id="wifi-[#1018]" stroke="none" stroke-width="1"/>
    </g>
   </g>
  </g>
 </g>
</svg>
