<?xml version='1.0' encoding='UTF-8' standalone='no'?>
<svg enable-background="new 0 0 72 72" height="40" id="Ebene_1" version="1.1" width="40" x="0px" xml:space="preserve" y="0px" xmlns="http://www.w3.org/2000/svg" xmlns:atv="http://webmi.atvise.com/2007/svgext" xmlns:xlink="http://www.w3.org/1999/xlink">
 <defs/>
 <metadata>
  <atv:parameter behavior="optional" defaultvalue="#000000" desc="symbol color" name="symbolColor" substitute="$SYMBOLCOLOR$" valuetype="color"/>
  <atv:gridconfig enabled="false" gridstyle="lines" height="20" width="20"/>
  <atv:snapconfig enabled="false" height="10" width="10"/>
 </metadata>
 <g atv:refpx="19.808" atv:refpy="18.228" id="id_5">
  <path atv:refpx="20.13" atv:refpy="60.2" d="M23.061,29.701L17.198,29.701C16.759,29.701 16.4,30.059 16.4,30.498C16.4,30.938 16.759,31.295 17.198,31.295L23.061,31.295C23.501,31.295 23.859,30.937 23.859,30.498C23.859,30.059 23.501,29.701 23.061,29.701" fill="$SYMBOLCOLOR$" id="id_0" stroke-width="0.757"/>
  <path atv:refpx="20.13" atv:refpy="64.4" d="M23.061,31.801L17.198,31.801C16.759,31.801 16.4,32.159 16.4,32.598C16.4,33.038 16.759,33.396 17.198,33.396L23.061,33.396C23.501,33.396 23.859,33.038 23.859,32.598C23.859,32.159 23.501,31.801 23.061,31.801" fill="$SYMBOLCOLOR$" id="id_1" stroke-width="0.757"/>
  <path atv:refpx="20.129" atv:refpy="68.599" d="M21.214,33.901L19.045,33.901C18.605,33.901 18.247,34.258 18.247,34.697C18.247,35.137 18.605,35.495 19.045,35.495L21.214,35.495C21.652,35.495 22.01,35.137 22.01,34.697C22.011,34.258 21.654,33.901 21.214,33.901" fill="$SYMBOLCOLOR$" id="id_2" stroke-width="0.757"/>
  <circle atv:refpx="0.31" atv:refpy="33.156" cx="20" cy="20.321" fill="$SYMBOLCOLOR$" id="id_10" r="7.487" stroke="none" stroke-width="2"/>
  <rect atv:refpx="20" atv:refpy="77.303" fill="$SYMBOLCOLOR$" height="3.173" id="id_11" rx="1.886" ry="1.383" stroke="none" stroke-width="2" width="8.542" x="15.729" y="25.992"/>
  <rect atv:refpx="39.214" atv:refpy="6.142" fill="none" height="9.361" id="id_3" rx="0.948" ry="1.239" stroke="$SYMBOLCOLOR$" stroke-width="1" width="1.897" x="19.133" y="1.461"/>
  <rect atv:refpx="21.86" atv:refpy="7.701" fill="none" height="9.361" id="id_4" rx="0.948" ry="1.239" stroke="$SYMBOLCOLOR$" stroke-width="1" transform="matrix(0.866,-0.5,0.5,0.866,0,0)" width="1.897" x="6.036" y="8.244"/>
  <rect atv:refpx="5.576" atv:refpy="41.544" fill="none" height="9.361" id="id_6" rx="0.948" ry="1.239" stroke="$SYMBOLCOLOR$" stroke-width="1" transform="matrix(-0,-1,1,-0,0,0)" width="1.897" x="-21.246" y="0.895"/>
  <rect atv:refpx="7.533" atv:refpy="57.27" fill="none" height="9.361" id="id_7" rx="0.948" ry="1.239" stroke="$SYMBOLCOLOR$" stroke-width="1" transform="matrix(-0.4853,-0.8744,0.8744,-0.4853,0,0)" width="1.897" x="-28.285" y="-11.238"/>
  <rect atv:refpx="7.241" atv:refpy="24.329" fill="none" height="9.361" id="id_8" rx="0.948" ry="1.239" stroke="$SYMBOLCOLOR$" stroke-width="1" transform="matrix(0.5044,-0.8635,0.8635,0.5044,0,0)" width="1.897" x="-8.465" y="8.096"/>
  <rect atv:refpx="57.371" atv:refpy="7.702" fill="none" height="9.361" id="id_16" rx="0.948" ry="1.239" stroke="$SYMBOLCOLOR$" stroke-width="1" transform="matrix(-0.866,-0.5,-0.5,0.866,0,0)" width="1.897" x="-28.273" y="-11.564"/>
  <rect atv:refpx="72.761" atv:refpy="20.299" fill="none" height="9.361" id="id_17" rx="0.948" ry="1.239" stroke="$SYMBOLCOLOR$" stroke-width="1" transform="matrix(0,-1,-1,0,0,0)" width="1.897" x="-21.247" y="-38.721"/>
  <rect atv:refpx="67.8" atv:refpy="27.085" fill="none" height="9.361" id="id_18" rx="0.948" ry="1.239" stroke="$SYMBOLCOLOR$" stroke-width="1" transform="matrix(0.4853,-0.8744,-0.8744,-0.4853,0,0)" width="1.897" x="-9.062" y="-45.877"/>
  <rect atv:refpx="69.273" atv:refpy="12.936" fill="none" height="9.361" id="id_19" rx="0.948" ry="1.239" stroke="$SYMBOLCOLOR$" stroke-width="1" transform="matrix(-0.5044,-0.8635,-0.8635,0.5044,0,0)" width="1.897" x="-28.449" y="-26.112"/>
 </g>
 <script atv:desc="" atv:name="" type="text/ecmascript"/>
</svg>
