<?xml version='1.0' encoding='UTF-8' standalone='no'?>
<svg height="600" version="1.2" width="860" xmlns="http://www.w3.org/2000/svg" xmlns:atv="http://webmi.atvise.com/2007/svgext" xmlns:xlink="http://www.w3.org/1999/xlink">
 <desc>Display for changing user information and password.</desc>
 <title>User Editor</title>
 <defs/>
 <rect atv:refpx="215" atv:refpy="300" fill="$FILLCOLOR$" height="600" id="background" stroke="none" stroke-width="0" width="860" x="0" y="0"/>
 <metadata>
  <atv:parameter behavior="optional" defaultvalue="T{Add user}" desc="headline" name="headline" substitute="$HEADLINE$" valuetype="trstring"/>
  <atv:parameter behavior="optional" defaultvalue="SYSTEM.LIBRARY.ATVISE.OBJECTDISPLAYS.Symbols.20x20.user" desc="symbol" name="symbol" substitute="$SYMBOL$" valuetype="display"/>
  <atv:parameter behavior="optional" defaultvalue="SYSTEM.LIBRARY.ATVISE.OBJECTDISPLAYS.Advanced.keyboard.keyboard" desc="keyboard display" name="keyboard" valuetype="display"/>
  <atv:parameter behavior="optional" defaultvalue="SYSTEM.GLOBALS.atvFontColor" desc="font color" name="fontColor" substitute="$FONTCOLOR$" valuetype="global"/>
  <atv:parameter behavior="optional" defaultvalue="SYSTEM.GLOBALS.atvFillColor" desc="fill color" name="fillColor" substitute="$FILLCOLOR$" valuetype="global"/>
  <atv:parameter behavior="optional" defaultvalue="SYSTEM.GLOBALS.atvSymbolColor" desc="symbol color" name="symbolColor" substitute="$SYMBOLCOLOR$" valuetype="global"/>
  <atv:gridconfig enabled="true" gridstyle="lines" height="20" width="20"/>
  <atv:snapconfig enabled="true" height="10" width="10"/>
 </metadata>
 <rect atv:refpx="223.858" atv:refpy="-5" fill="#ffffff" height="50" id="password_background" rx="10" ry="10" stroke="none" stroke-width="0" width="390" x="430" y="90"/>
 <rect atv:refpx="215" atv:refpy="235" fill="#ffffff" height="50" id="fullname_background" rx="10" ry="10" stroke="none" stroke-width="0" width="390" x="20" y="154"/>
 <rect atv:refpx="4.286" atv:refpy="165" fill="none" height="50" id="id_1" rx="5.961" ry="5.961" stroke="none" stroke-width="0" width="200" x="110" y="154"/>
 <svg atv:dynamic="true" atv:refpx="322.5" atv:refpy="490" height="30" id="save_button" transform="matrix(2.0625,0,0,1.5,0,0)" width="80" x="116.364" xlink:href="SYSTEM.LIBRARY.ATVISE.OBJECTDISPLAYS.Advanced.button" y="351.667">
  <atv:argument name="label" value="T{Save}"/>
  <atv:argument name="tabIndex" value="11"/>
  <atv:argument name="borderVisible" value="true"/>
  <atv:argument name="extraBorderColor" value="#ffffff"/>
  <atv:overwrite height="43" id="id_6" transform="matrix(0.4848,0,0,0.6667,0,0)" width="163"/>
  <atv:overwrite id="button_label_2" transform="matrix(0.4848,0,0,0.6667,0,0)" x="82.5" y="34"/>
  <atv:overwrite id="button_label_1" transform="matrix(0.4848,0,0,0.6667,0,0)" x="82.5" y="19"/>
  <atv:overwrite id="button_label" transform="matrix(0.4848,0,0,0.6667,0,0)" x="82.5" y="27"/>
  <atv:overwrite id="button_symbol_bottom" transform="matrix(0.2909,0,0,0.4,0,0)" x="127.333" y="38.792"/>
  <atv:overwrite id="button_symbol_top" transform="matrix(0.2909,0,0,0.4,0,0)" x="127.333" y="17.459"/>
  <atv:overwrite id="button_symbol" transform="matrix(0.4848,0,0,0.6667,0,0)" x="72.5" y="12.5"/>
  <atv:overwrite height="41" id="button_stroke" transform="matrix(0.4848,0,0,0.6667,0,0)" width="161"/>
  <atv:overwrite height="43" id="button_bg" transform="matrix(0.4848,0,0,0.6667,0,0)" width="163"/>
  <atv:overwrite height="45" id="outer_frame" transform="matrix(0.4848,0,0,0.6667,0,0)" width="165"/>
 </svg>
 <svg atv:dynamic="true" atv:refpx="543.499" atv:refpy="490" height="30" id="cancel_button" transform="matrix(2.0625,0,0,1.5,0,0)" width="80" x="223.515" xlink:href="SYSTEM.LIBRARY.ATVISE.OBJECTDISPLAYS.Advanced.button" y="351.667">
  <atv:argument name="label" value="T{Cancel}"/>
  <atv:argument name="tabIndex" value="12"/>
  <atv:argument name="borderVisible" value="true"/>
  <atv:argument name="extraBorderColor" value="#ffffff"/>
  <atv:overwrite height="43" id="id_6" transform="matrix(0.4848,0,0,0.6667,0,0)" width="163"/>
  <atv:overwrite id="button_label_2" transform="matrix(0.4848,0,0,0.6667,0,0)" x="82.5" y="34"/>
  <atv:overwrite id="button_label_1" transform="matrix(0.4848,0,0,0.6667,0,0)" x="82.5" y="19"/>
  <atv:overwrite id="button_label" transform="matrix(0.4848,0,0,0.6667,0,0)" x="82.5" y="27"/>
  <atv:overwrite id="button_symbol_bottom" transform="matrix(0.2909,0,0,0.4,0,0)" x="127.333" y="38.792"/>
  <atv:overwrite id="button_symbol_top" transform="matrix(0.2909,0,0,0.4,0,0)" x="127.333" y="17.459"/>
  <atv:overwrite id="button_symbol" transform="matrix(0.4848,0,0,0.6667,0,0)" x="72.5" y="12.5"/>
  <atv:overwrite height="41" id="button_stroke" transform="matrix(0.4848,0,0,0.6667,0,0)" width="161"/>
  <atv:overwrite height="43" id="button_bg" transform="matrix(0.4848,0,0,0.6667,0,0)" width="163"/>
  <atv:overwrite height="45" id="outer_frame" transform="matrix(0.4848,0,0,0.6667,0,0)" width="165"/>
 </svg>
 <svg atv:refpx="260" atv:refpy="235" height="30" id="fullname_input" transform="matrix(1.125,0,0,1,0,0)" width="160" x="151.111" xlink:href="SYSTEM.LIBRARY.ATVISE.OBJECTDISPLAYS.Advanced.in_out_value" y="164">
  <atv:argument name="validation" value="String"/>
  <atv:argument name="allowDirectInput" value="Yes"/>
  <atv:argument name="tabIndex" value="3"/>
  <atv:overwrite id="id_2" transform="matrix(0.8889,0,0,1,0,0)" width="174.5"/>
  <atv:overwrite id="input_label" transform="matrix(0.8889,0,0,1,0,0)" x="172.055"/>
  <atv:overwrite id="blinking_frame" transform="matrix(0.8889,0,0,1,0,0)" width="172"/>
  <atv:overwrite id="focus_frame" transform="matrix(0.8889,0,0,1,0,0)" width="176"/>
  <atv:overwrite id="input_bg" transform="matrix(0.8889,0,0,1,0,0)" width="172"/>
  <atv:overwrite id="id_1" transform="matrix(0.8889,0,0,1,0,0)" width="178"/>
  <atv:overwrite id="id_0" transform="matrix(0.8889,0,0,1,0,0)" width="180"/>
 </svg>
 <text atv:refpx="77.763" atv:refpy="177.5" fill="$FONTCOLOR$" font-family="Arial" font-size="16" id="fullname_label" x="34" y="183.5">T{Full name}</text>
 <text atv:refpx="488.5" atv:refpy="113.5" fill="$FONTCOLOR$" font-family="Arial" font-size="16" id="password_label" x="444" y="119.5">T{Password}</text>
 <text atv:refpx="216" atv:refpy="51" fill="$FONTCOLOR$" font-family="Arial" font-size="12" id="status_message2" text-anchor="middle" x="216" y="55.5"/>
 <svg atv:dynamic="true" atv:refpx="375" atv:refpy="235" height="30" id="fullname_keyboard" transform="matrix(0.375,0,0,1,0,0)" width="80" x="960" xlink:href="SYSTEM.LIBRARY.ATVISE.OBJECTDISPLAYS.Advanced.button" y="164">
  <atv:argument name="symbol" value="SYSTEM.LIBRARY.ATVISE.OBJECTDISPLAYS.Symbols.20x20.keyboard"/>
  <atv:argument name="visibilitySymbol" value="inherit"/>
  <atv:argument name="visibilityLabel" value="hidden"/>
  <atv:argument name="tabIndex" value="4"/>
  <atv:overwrite id="id_2" transform="matrix(2.6667,0,0,1,0,0)" width="24.5"/>
  <atv:overwrite id="id_0" transform="matrix(2.6667,0,0,1,0,0)" width="29.5"/>
  <atv:overwrite id="id_1" transform="matrix(2.6667,0,0,1,0,0)" width="30"/>
  <atv:overwrite id="id_6" transform="matrix(2.6667,0,0,1,0,0)" width="28"/>
  <atv:overwrite id="button_label_2" transform="matrix(2.6667,0,0,1,0,0)" x="15"/>
  <atv:overwrite id="button_label_1" transform="matrix(2.6667,0,0,1,0,0)" x="15"/>
  <atv:overwrite id="button_label" transform="matrix(2.6667,0,0,1,0,0)" x="15"/>
  <atv:overwrite id="button_symbol_bottom" transform="matrix(1.6,0,0,0.6,0,0)" x="14.833"/>
  <atv:overwrite id="button_symbol_top" transform="matrix(1.6,0,0,0.6,0,0)" x="14.833"/>
  <atv:overwrite id="button_symbol" transform="matrix(2.6667,0,0,1,0,0)" x="5"/>
  <atv:overwrite id="button_stroke" transform="matrix(2.6667,0,0,1,0,0)" width="26"/>
  <atv:overwrite id="button_bg" transform="matrix(2.6667,0,0,1,0,0)" width="28"/>
  <atv:overwrite id="outer_frame" transform="matrix(2.6667,0,0,1,0,0)" width="30"/>
 </svg>
 <svg atv:dynamic="true" atv:refpx="785" atv:refpy="65" height="30" id="password_keyboard" transform="matrix(0.375,0,0,1,0,0)" width="80" x="2053.333" xlink:href="SYSTEM.LIBRARY.ATVISE.OBJECTDISPLAYS.Advanced.button" y="100">
  <atv:argument name="symbol" value="SYSTEM.LIBRARY.ATVISE.OBJECTDISPLAYS.Symbols.20x20.keyboard"/>
  <atv:argument name="visibilitySymbol" value="inherit"/>
  <atv:argument name="visibilityLabel" value="hidden"/>
  <atv:argument name="tabIndex" value="2"/>
  <atv:overwrite id="id_2" transform="matrix(2.6667,0,0,1,0,0)" width="24.5"/>
  <atv:overwrite id="id_0" transform="matrix(2.6667,0,0,1,0,0)" width="29.5"/>
  <atv:overwrite id="id_1" transform="matrix(2.6667,0,0,1,0,0)" width="30"/>
  <atv:overwrite id="id_6" transform="matrix(2.6667,0,0,1,0,0)" width="28"/>
  <atv:overwrite id="button_label_2" transform="matrix(2.6667,0,0,1,0,0)" x="15"/>
  <atv:overwrite id="button_label_1" transform="matrix(2.6667,0,0,1,0,0)" x="15"/>
  <atv:overwrite id="button_label" transform="matrix(2.6667,0,0,1,0,0)" x="15"/>
  <atv:overwrite id="button_symbol_bottom" transform="matrix(1.6,0,0,0.6,0,0)" x="14.833"/>
  <atv:overwrite id="button_symbol_top" transform="matrix(1.6,0,0,0.6,0,0)" x="14.833"/>
  <atv:overwrite id="button_symbol" transform="matrix(2.6667,0,0,1,0,0)" x="5"/>
  <atv:overwrite id="button_stroke" transform="matrix(2.6667,0,0,1,0,0)" width="26"/>
  <atv:overwrite id="button_bg" transform="matrix(2.6667,0,0,1,0,0)" width="28"/>
  <atv:overwrite id="outer_frame" transform="matrix(2.6667,0,0,1,0,0)" width="30"/>
 </svg>
 <svg atv:refpx="62.317" atv:refpy="45.934" height="20" id="symbol" transform="matrix(3.1935,0,0,3.1935,0,0)" width="20" x="11.859" xlink:href="$SYMBOL$" y="4.384">
  <atv:argument name="symbolColor" prefix="symbolColor"/>
 </svg>
 <text atv:refpx="224" atv:refpy="49" fill="$FONTCOLOR$" font-family="Arial" font-size="20" id="headline" text-anchor="middle" x="236.5" y="53.5">$HEADLINE$</text>
 <rect atv:refpx="-186.142" atv:refpy="175" fill="#ffffff" height="50" id="language_background" rx="10" ry="10" stroke="none" stroke-width="0" width="390" x="20" y="214"/>
 <text atv:refpx="78.949" atv:refpy="237.5" fill="$FONTCOLOR$" font-family="Arial" font-size="16" id="language_label" x="34" y="243.5">T{Language}</text>
 <rect atv:refpx="-186.142" atv:refpy="235" fill="#ffffff" height="50" id="default_background" rx="10" ry="10" stroke="none" stroke-width="0" width="390" x="20" y="274"/>
 <text atv:refpx="96.935" atv:refpy="297.5" fill="$FONTCOLOR$" font-family="Arial" font-size="16" id="default_label" x="33.688" y="303.5">T{Default Display}</text>
 <rect atv:refpx="-186.142" atv:refpy="295" fill="#ffffff" height="50" id="content_background" rx="10" ry="10" stroke="none" stroke-width="0" width="390" x="20" y="334"/>
 <text atv:refpx="99.578" atv:refpy="357.5" fill="$FONTCOLOR$" font-family="Arial" font-size="16" id="content_label" x="34" y="363.5">T{Content Display}</text>
 <text atv:refpx="437.328" atv:refpy="512" fill="#ff0004" font-family="Arial" font-size="14" id="error_message" text-anchor="middle" x="437.328" y="517">&lt;errormessage></text>
 <svg atv:refpx="260" atv:refpy="305" height="30" id="display_default_input" transform="matrix(1.125,0,0,1,0,0)" width="160" x="151.111" xlink:href="SYSTEM.LIBRARY.ATVISE.OBJECTDISPLAYS.Advanced.in_out_value" y="284">
  <atv:argument name="validation" value="String"/>
  <atv:argument name="allowDirectInput" value="Yes"/>
  <atv:argument name="tabIndex" value="7"/>
  <atv:overwrite id="id_2" transform="matrix(0.8889,0,0,1,0,0)" width="174.5"/>
  <atv:overwrite id="input_label" transform="matrix(0.8889,0,0,1,0,0)" x="172.055"/>
  <atv:overwrite id="blinking_frame" transform="matrix(0.8889,0,0,1,0,0)" width="172"/>
  <atv:overwrite id="focus_frame" transform="matrix(0.8889,0,0,1,0,0)" width="176"/>
  <atv:overwrite id="input_bg" transform="matrix(0.8889,0,0,1,0,0)" width="172"/>
  <atv:overwrite id="id_1" transform="matrix(0.8889,0,0,1,0,0)" width="178"/>
  <atv:overwrite id="id_0" transform="matrix(0.8889,0,0,1,0,0)" width="180"/>
 </svg>
 <svg atv:refpx="260" atv:refpy="365" height="30" id="display_content_input" transform="matrix(1.125,0,0,1,0,0)" width="160" x="151.111" xlink:href="SYSTEM.LIBRARY.ATVISE.OBJECTDISPLAYS.Advanced.in_out_value" y="344">
  <atv:argument name="validation" value="String"/>
  <atv:argument name="allowDirectInput" value="Yes"/>
  <atv:argument name="tabIndex" value="9"/>
  <atv:overwrite id="id_2" transform="matrix(0.8889,0,0,1,0,0)" width="174.5"/>
  <atv:overwrite id="input_label" transform="matrix(0.8889,0,0,1,0,0)" x="172.055"/>
  <atv:overwrite id="blinking_frame" transform="matrix(0.8889,0,0,1,0,0)" width="172"/>
  <atv:overwrite id="focus_frame" transform="matrix(0.8889,0,0,1,0,0)" width="176"/>
  <atv:overwrite id="input_bg" transform="matrix(0.8889,0,0,1,0,0)" width="172"/>
  <atv:overwrite id="id_1" transform="matrix(0.8889,0,0,1,0,0)" width="178"/>
  <atv:overwrite id="id_0" transform="matrix(0.8889,0,0,1,0,0)" width="180"/>
 </svg>
 <svg atv:dynamic="true" atv:refpx="375" atv:refpy="305" height="30" id="display_default_keyboard" transform="matrix(0.375,0,0,1,0,0)" width="80" x="960" xlink:href="SYSTEM.LIBRARY.ATVISE.OBJECTDISPLAYS.Advanced.button" y="284">
  <atv:argument name="symbol" value="SYSTEM.LIBRARY.ATVISE.OBJECTDISPLAYS.Symbols.20x20.keyboard"/>
  <atv:argument name="visibilitySymbol" value="inherit"/>
  <atv:argument name="visibilityLabel" value="hidden"/>
  <atv:argument name="tabIndex" value="8"/>
  <atv:overwrite id="id_2" transform="matrix(2.6667,0,0,1,0,0)" width="24.5"/>
  <atv:overwrite id="id_0" transform="matrix(2.6667,0,0,1,0,0)" width="29.5"/>
  <atv:overwrite id="id_1" transform="matrix(2.6667,0,0,1,0,0)" width="30"/>
  <atv:overwrite id="id_6" transform="matrix(2.6667,0,0,1,0,0)" width="28"/>
  <atv:overwrite id="button_label_2" transform="matrix(2.6667,0,0,1,0,0)" x="15"/>
  <atv:overwrite id="button_label_1" transform="matrix(2.6667,0,0,1,0,0)" x="15"/>
  <atv:overwrite id="button_label" transform="matrix(2.6667,0,0,1,0,0)" x="15"/>
  <atv:overwrite id="button_symbol_bottom" transform="matrix(1.6,0,0,0.6,0,0)" x="14.833"/>
  <atv:overwrite id="button_symbol_top" transform="matrix(1.6,0,0,0.6,0,0)" x="14.833"/>
  <atv:overwrite id="button_symbol" transform="matrix(2.6667,0,0,1,0,0)" x="5"/>
  <atv:overwrite id="button_stroke" transform="matrix(2.6667,0,0,1,0,0)" width="26"/>
  <atv:overwrite id="button_bg" transform="matrix(2.6667,0,0,1,0,0)" width="28"/>
  <atv:overwrite id="outer_frame" transform="matrix(2.6667,0,0,1,0,0)" width="30"/>
 </svg>
 <svg atv:dynamic="true" atv:refpx="375" atv:refpy="365" height="30" id="display_content_keyboard" transform="matrix(0.375,0,0,1,0,0)" width="80" x="960" xlink:href="SYSTEM.LIBRARY.ATVISE.OBJECTDISPLAYS.Advanced.button" y="344">
  <atv:argument name="symbol" value="SYSTEM.LIBRARY.ATVISE.OBJECTDISPLAYS.Symbols.20x20.keyboard"/>
  <atv:argument name="visibilitySymbol" value="inherit"/>
  <atv:argument name="visibilityLabel" value="hidden"/>
  <atv:argument name="tabIndex" value="10"/>
  <atv:overwrite id="id_2" transform="matrix(2.6667,0,0,1,0,0)" width="24.5"/>
  <atv:overwrite id="id_0" transform="matrix(2.6667,0,0,1,0,0)" width="29.5"/>
  <atv:overwrite id="id_1" transform="matrix(2.6667,0,0,1,0,0)" width="30"/>
  <atv:overwrite id="id_6" transform="matrix(2.6667,0,0,1,0,0)" width="28"/>
  <atv:overwrite id="button_label_2" transform="matrix(2.6667,0,0,1,0,0)" x="15"/>
  <atv:overwrite id="button_label_1" transform="matrix(2.6667,0,0,1,0,0)" x="15"/>
  <atv:overwrite id="button_label" transform="matrix(2.6667,0,0,1,0,0)" x="15"/>
  <atv:overwrite id="button_symbol_bottom" transform="matrix(1.6,0,0,0.6,0,0)" x="14.833"/>
  <atv:overwrite id="button_symbol_top" transform="matrix(1.6,0,0,0.6,0,0)" x="14.833"/>
  <atv:overwrite id="button_symbol" transform="matrix(2.6667,0,0,1,0,0)" x="5"/>
  <atv:overwrite id="button_stroke" transform="matrix(2.6667,0,0,1,0,0)" width="26"/>
  <atv:overwrite id="button_bg" transform="matrix(2.6667,0,0,1,0,0)" width="28"/>
  <atv:overwrite id="outer_frame" transform="matrix(2.6667,0,0,1,0,0)" width="30"/>
 </svg>
 <rect atv:refpx="215" atv:refpy="115" fill="#ffffff" height="50" id="id_3" rx="10" ry="10" stroke="none" stroke-width="0" width="390" x="20" y="90"/>
 <rect atv:refpx="4.286" atv:refpy="45" fill="none" height="50" id="id_5" rx="5.961" ry="5.961" stroke="none" stroke-width="0" width="200" x="110" y="90"/>
 <svg atv:refpx="260" atv:refpy="115" height="30" id="username_input" transform="matrix(1.125,0,0,1,0,0)" width="160" x="151.111" xlink:href="SYSTEM.LIBRARY.ATVISE.OBJECTDISPLAYS.Advanced.in_out_value" y="100">
  <atv:argument name="validation" value="String"/>
  <atv:argument name="allowDirectInput" value="Yes"/>
  <atv:argument name="tabIndex" value="3"/>
  <atv:overwrite id="id_2" transform="matrix(0.8889,0,0,1,0,0)" width="174.5"/>
  <atv:overwrite id="input_label" transform="matrix(0.8889,0,0,1,0,0)" x="172.055"/>
  <atv:overwrite id="blinking_frame" transform="matrix(0.8889,0,0,1,0,0)" width="172"/>
  <atv:overwrite id="focus_frame" transform="matrix(0.8889,0,0,1,0,0)" width="176"/>
  <atv:overwrite id="input_bg" transform="matrix(0.8889,0,0,1,0,0)" width="172"/>
  <atv:overwrite id="id_1" transform="matrix(0.8889,0,0,1,0,0)" width="178"/>
  <atv:overwrite id="id_0" transform="matrix(0.8889,0,0,1,0,0)" width="180"/>
 </svg>
 <text atv:refpx="80.304" atv:refpy="113.5" fill="$FONTCOLOR$" font-family="Arial" font-size="16" id="username_label" x="34" y="119.5">T{Username}</text>
 <svg atv:dynamic="true" atv:refpx="375" atv:refpy="115" height="30" id="username_keyboard" transform="matrix(0.375,0,0,1,0,0)" width="80" x="960" xlink:href="SYSTEM.LIBRARY.ATVISE.OBJECTDISPLAYS.Advanced.button" y="100">
  <atv:argument name="symbol" value="SYSTEM.LIBRARY.ATVISE.OBJECTDISPLAYS.Symbols.20x20.keyboard"/>
  <atv:argument name="visibilitySymbol" value="inherit"/>
  <atv:argument name="visibilityLabel" value="hidden"/>
  <atv:argument name="tabIndex" value="4"/>
  <atv:overwrite id="id_2" transform="matrix(2.6667,0,0,1,0,0)" width="24.5"/>
  <atv:overwrite id="id_0" transform="matrix(2.6667,0,0,1,0,0)" width="29.5"/>
  <atv:overwrite id="id_1" transform="matrix(2.6667,0,0,1,0,0)" width="30"/>
  <atv:overwrite id="id_6" transform="matrix(2.6667,0,0,1,0,0)" width="28"/>
  <atv:overwrite id="button_label_2" transform="matrix(2.6667,0,0,1,0,0)" x="15"/>
  <atv:overwrite id="button_label_1" transform="matrix(2.6667,0,0,1,0,0)" x="15"/>
  <atv:overwrite id="button_label" transform="matrix(2.6667,0,0,1,0,0)" x="15"/>
  <atv:overwrite id="button_symbol_bottom" transform="matrix(1.6,0,0,0.6,0,0)" x="14.833"/>
  <atv:overwrite id="button_symbol_top" transform="matrix(1.6,0,0,0.6,0,0)" x="14.833"/>
  <atv:overwrite id="button_symbol" transform="matrix(2.6667,0,0,1,0,0)" x="5"/>
  <atv:overwrite id="button_stroke" transform="matrix(2.6667,0,0,1,0,0)" width="26"/>
  <atv:overwrite id="button_bg" transform="matrix(2.6667,0,0,1,0,0)" width="28"/>
  <atv:overwrite id="outer_frame" transform="matrix(2.6667,0,0,1,0,0)" width="30"/>
 </svg>
 <script atv:desc="" atv:href="SYSTEM.LIBRARY.PROJECT.DISPLAYSCRIPTS.usermanagement.user_add" atv:name="user_add" atv:type="text/ecmascript"/>
 <script atv:desc="" atv:name="" type="text/ecmascript"><![CDATA[

]]></script>
 <svg atv:refpx="280.001" atv:refpy="298.333" height="30" id="language_input" transform="matrix(1.375,0,0,1,0,0)" width="160" x="123.636" xlink:href="SYSTEM.LIBRARY.ATVISE.OBJECTDISPLAYS.Advanced.combobox" y="224">
  <atv:argument name="tabIndex" value="5"/>
  <atv:overwrite id="id_2" transform="matrix(0.8889,0,0,1,0,0)" width="174.5"/>
  <atv:overwrite id="input_label" transform="matrix(0.8889,0,0,1,0,0)" x="172.055"/>
  <atv:overwrite id="input_bg" transform="matrix(0.8889,0,0,1,0,0)" width="172"/>
  <atv:overwrite id="focus_frame" transform="matrix(0.7273,0,0,1,0,0)" width="216"/>
  <atv:overwrite id="button_stroke" transform="matrix(0.7273,0,0,1,0,0)" x="195"/>
  <atv:overwrite id="id_7" transform="matrix(0.7273,0,0,1,0,0)" x="195"/>
  <atv:overwrite id="button_bg" transform="matrix(0.7273,0,0,1,0,0)" x="195"/>
  <atv:overwrite id="combobox_label" transform="matrix(0.7273,0,0,1,0,0)" x="185.5"/>
  <atv:overwrite id="blinking_frame" transform="matrix(0.7273,0,0,1,0,0)" width="188"/>
  <atv:overwrite id="combobox_bg" transform="matrix(0.7273,0,0,1,0,0)" width="188"/>
  <atv:overwrite id="id_1" transform="matrix(0.7273,0,0,1,0,0)" width="218"/>
  <atv:overwrite id="id_0" transform="matrix(0.7273,0,0,1,0,0)" width="220"/>
 </svg>
 <svg atv:refpx="670" atv:refpy="131" height="30" id="password_input" transform="matrix(1.125,0,0,1,0,0)" width="160" x="515.555" xlink:href="SYSTEM.LIBRARY.ATVISE.OBJECTDISPLAYS.Advanced.in_out_password" y="100">
  <atv:argument name="validation" value="Password"/>
  <atv:argument name="allowDirectInput" value="Yes"/>
  <atv:argument name="tabIndex" value="3"/>
  <atv:overwrite id="id_2" transform="matrix(0.8889,0,0,1,0,0)" width="174.5"/>
  <atv:overwrite id="clickarea_visibility" transform="matrix(0.8889,0,0,1,0,0)" x="153"/>
  <atv:overwrite id="button_stroke" transform="matrix(0.8889,0,0,1,0,0)" x="155"/>
  <atv:overwrite id="button_eye_slash" transform="matrix(0.7111,0,0,0.85,0,0)" x="196.25"/>
  <atv:overwrite id="button_eye" transform="matrix(0.7111,0,0,0.85,0,0)" x="196.25"/>
  <atv:overwrite id="button_bg" transform="matrix(0.8889,0,0,1,0,0)" x="155"/>
  <atv:overwrite id="input_label" transform="matrix(0.8889,0,0,1,0,0)" x="148.055"/>
  <atv:overwrite id="blinking_frame" transform="matrix(0.8889,0,0,1,0,0)" width="172"/>
  <atv:overwrite id="focus_frame" transform="matrix(0.8889,0,0,1,0,0)" width="176"/>
  <atv:overwrite id="input_bg" transform="matrix(0.8889,0,0,1,0,0)" width="148"/>
  <atv:overwrite id="id_1" transform="matrix(0.8889,0,0,1,0,0)" width="178"/>
  <atv:overwrite id="id_0" transform="matrix(0.8889,0,0,1,0,0)" width="180"/>
 </svg>
 <g atv:refpx="625" atv:refpy="270" id="id_17">
  <rect atv:refpx="223.858" atv:refpy="-52" fill="#ffffff" height="230" id="info_background" rx="10" ry="16.429" stroke="none" stroke-width="0" width="390" x="430" y="155"/>
  <text atv:refpx="506.542" atv:refpy="176" fill="$FONTCOLOR$" font-family="Arial" font-size="14" font-weight="bold" id="requirements_label" x="444.5" y="182">T{Requirements}:</text>
  <text atv:refpx="476" atv:refpy="207" fill="$FONTCOLOR$" font-family="Arial" font-size="14" id="req_text1" text-anchor="start" x="469" y="212">- T{None} -</text>
  <text atv:refpx="479.5" atv:refpy="225" fill="$FONTCOLOR$" font-family="Arial" font-size="14" id="req_text2" text-anchor="start" x="469" y="232"/>
  <text atv:refpx="479.5" atv:refpy="245" fill="$FONTCOLOR$" font-family="Arial" font-size="14" id="req_text3" text-anchor="start" x="469" y="252"/>
  <text atv:refpx="479.5" atv:refpy="265" fill="$FONTCOLOR$" font-family="Arial" font-size="14" id="req_text4" text-anchor="start" x="469" y="272"/>
  <text atv:refpx="479.5" atv:refpy="285" fill="$FONTCOLOR$" font-family="Arial" font-size="14" id="req_text5" text-anchor="start" x="469" y="292"/>
  <g atv:refpx="475" atv:refpy="240" id="id_8" transform="matrix(1,0,0,1,420,-88)">
   <svg atv:refpx="35" atv:refpy="295" height="20" id="check1" transform="matrix(0.5,0,0,0.5,0,0)" width="20" x="60" xlink:href="SYSTEM.LIBRARY.ATVISE.OBJECTDISPLAYS.Symbols.20x20.check" y="580">
    <atv:argument name="symbolColor" prefix="symbolColor" value=""/>
   </svg>
   <svg atv:refpx="35" atv:refpy="295" height="20" id="cross1" transform="matrix(0.5,0,0,0.5,0,0)" width="20" x="60" xlink:href="SYSTEM.LIBRARY.ATVISE.OBJECTDISPLAYS.Symbols.20x20.x" y="580">
    <atv:argument name="symbolColor" prefix="symbolColor" value=""/>
   </svg>
  </g>
  <g atv:refpx="475" atv:refpy="259" id="id_4" transform="matrix(1,0,0,1,420,-68)">
   <svg atv:refpx="35" atv:refpy="295" height="20" id="check2" transform="matrix(0.5,0,0,0.5,0,0)" width="20" x="60" xlink:href="SYSTEM.LIBRARY.ATVISE.OBJECTDISPLAYS.Symbols.20x20.check" y="580">
    <atv:argument name="symbolColor" prefix="symbolColor" value=""/>
   </svg>
   <svg atv:refpx="35" atv:refpy="295" height="20" id="cross2" transform="matrix(0.5,0,0,0.5,0,0)" width="20" x="60" xlink:href="SYSTEM.LIBRARY.ATVISE.OBJECTDISPLAYS.Symbols.20x20.x" y="580">
    <atv:argument name="symbolColor" prefix="symbolColor" value=""/>
   </svg>
  </g>
  <g atv:refpx="476" atv:refpy="278" id="id_10" transform="matrix(1,0,0,1,421,-48)">
   <svg atv:refpx="35" atv:refpy="295" height="20" id="check3" transform="matrix(0.5,0,0,0.5,0,0)" width="20" x="60" xlink:href="SYSTEM.LIBRARY.ATVISE.OBJECTDISPLAYS.Symbols.20x20.check" y="580">
    <atv:argument name="symbolColor" prefix="symbolColor" value=""/>
   </svg>
   <svg atv:refpx="35" atv:refpy="295" height="20" id="cross3" transform="matrix(0.5,0,0,0.5,0,0)" width="20" x="60" xlink:href="SYSTEM.LIBRARY.ATVISE.OBJECTDISPLAYS.Symbols.20x20.x" y="580">
    <atv:argument name="symbolColor" prefix="symbolColor" value=""/>
   </svg>
  </g>
  <g atv:refpx="476" atv:refpy="298" id="id_13" transform="matrix(1,0,0,1,421,-28)">
   <svg atv:refpx="35" atv:refpy="295" height="20" id="check4" transform="matrix(0.5,0,0,0.5,0,0)" width="20" x="60" xlink:href="SYSTEM.LIBRARY.ATVISE.OBJECTDISPLAYS.Symbols.20x20.check" y="580">
    <atv:argument name="symbolColor" prefix="symbolColor" value=""/>
   </svg>
   <svg atv:refpx="35" atv:refpy="295" height="20" id="cross4" transform="matrix(0.5,0,0,0.5,0,0)" width="20" x="60" xlink:href="SYSTEM.LIBRARY.ATVISE.OBJECTDISPLAYS.Symbols.20x20.x" y="580">
    <atv:argument name="symbolColor" prefix="symbolColor" value=""/>
   </svg>
  </g>
  <g atv:refpx="485" atv:refpy="263" id="id_16" transform="matrix(1,0,0,1,421,-8)">
   <svg atv:refpx="35" atv:refpy="295" height="20" id="check5" transform="matrix(0.5,0,0,0.5,0,0)" width="20" x="60" xlink:href="SYSTEM.LIBRARY.ATVISE.OBJECTDISPLAYS.Symbols.20x20.check" y="580">
    <atv:argument name="symbolColor" prefix="symbolColor" value=""/>
   </svg>
   <svg atv:refpx="35" atv:refpy="295" height="20" id="cross5" transform="matrix(0.5,0,0,0.5,0,0)" width="20" x="60" xlink:href="SYSTEM.LIBRARY.ATVISE.OBJECTDISPLAYS.Symbols.20x20.x" y="580">
    <atv:argument name="symbolColor" prefix="symbolColor" value=""/>
   </svg>
  </g>
 </g>
 <rect atv:refpx="-402.856" atv:refpy="409.6" fill="#ffffff" height="80" id="id_11" rx="20.513" ry="16" stroke="none" stroke-width="0" width="800" x="20" y="400"/>
 <svg atv:refpx="538" atv:refpy="612" height="30" id="super_user" transform="matrix(1.1,0,0,1,0,0)" width="160" x="418.182" xlink:href="SYSTEM.LIBRARY.ATVISE.OBJECTDISPLAYS.Advanced.checkbox" y="407">
  <atv:argument name="label" value="T{Super User}"/>
  <atv:argument name="fontSize" value="16"/>
  <atv:overwrite id="checkbox_item" transform="matrix(0.9091,0,0,1,0,0)"/>
  <atv:overwrite id="checkbox_symbol" transform="matrix(0.9091,0,0,1,0,0)"/>
  <atv:overwrite id="blinking_frame" transform="matrix(0.9091,0,0,1,0,0)"/>
  <atv:overwrite id="focus_frame" transform="matrix(0.9091,0,0,1,0,0)"/>
  <atv:overwrite id="checkbox_bg" transform="matrix(0.9091,0,0,1,0,0)"/>
  <atv:overwrite id="checkbox_frame" transform="matrix(0.9091,0,0,1,0,0)"/>
  <atv:overwrite id="checkbox_stroke" transform="matrix(0.9091,0,0,1,0,0)"/>
 </svg>
 <svg atv:refpx="125" atv:refpy="612" height="30" id="webmi" transform="matrix(1.1875,0,0,1,0,0)" width="160" x="33.684" xlink:href="SYSTEM.LIBRARY.ATVISE.OBJECTDISPLAYS.Advanced.checkbox" y="407">
  <atv:argument name="label" value="T{Visualization}"/>
  <atv:argument name="fontSize" value="16"/>
  <atv:overwrite id="checkbox_item" transform="matrix(0.8421,0,0,1,0,0)"/>
  <atv:overwrite id="checkbox_symbol" transform="matrix(0.8421,0,0,1,0,0)"/>
  <atv:overwrite id="blinking_frame" transform="matrix(0.8421,0,0,1,0,0)"/>
  <atv:overwrite id="focus_frame" transform="matrix(0.8421,0,0,1,0,0)"/>
  <atv:overwrite id="checkbox_bg" transform="matrix(0.8421,0,0,1,0,0)"/>
  <atv:overwrite id="checkbox_frame" transform="matrix(0.8421,0,0,1,0,0)"/>
  <atv:overwrite id="checkbox_stroke" transform="matrix(0.8421,0,0,1,0,0)"/>
 </svg>
 <svg atv:refpx="191.5" atv:refpy="649" height="30" id="opcua" transform="matrix(2.0187,0,0,1,0,0)" width="160" x="19.814" xlink:href="SYSTEM.LIBRARY.ATVISE.OBJECTDISPLAYS.Advanced.checkbox" y="444">
  <atv:argument name="label" value="T{OPC UA Server (Engineering)}"/>
  <atv:argument name="fontSize" value="16"/>
  <atv:overwrite id="checkbox_item" transform="matrix(0.4954,0,0,1,0,0)"/>
  <atv:overwrite id="checkbox_symbol" transform="matrix(0.4954,0,0,1,0,0)"/>
  <atv:overwrite id="blinking_frame" transform="matrix(0.4954,0,0,1,0,0)"/>
  <atv:overwrite id="focus_frame" transform="matrix(0.4954,0,0,1,0,0)"/>
  <atv:overwrite id="checkbox_bg" transform="matrix(0.4954,0,0,1,0,0)"/>
  <atv:overwrite id="checkbox_frame" transform="matrix(0.4954,0,0,1,0,0)"/>
  <atv:overwrite id="checkbox_stroke" transform="matrix(0.4954,0,0,1,0,0)"/>
 </svg>
 <svg atv:refpx="595.001" atv:refpy="649" height="30" id="password_policy" transform="matrix(1.8125,0,0,1,0,0)" visibility="hidden" width="160" x="253.793" xlink:href="SYSTEM.LIBRARY.ATVISE.OBJECTDISPLAYS.Advanced.checkbox" y="444">
  <atv:argument name="label" value="T{Ignore Password Policy}"/>
  <atv:argument name="fontSize" value="16"/>
  <atv:overwrite id="checkbox_item" transform="matrix(0.5517,0,0,1,0,0)"/>
  <atv:overwrite id="checkbox_symbol" transform="matrix(0.5517,0,0,1,0,0)"/>
  <atv:overwrite id="blinking_frame" transform="matrix(0.5517,0,0,1,0,0)"/>
  <atv:overwrite id="focus_frame" transform="matrix(0.5517,0,0,1,0,0)"/>
  <atv:overwrite id="checkbox_bg" transform="matrix(0.5517,0,0,1,0,0)"/>
  <atv:overwrite id="checkbox_frame" transform="matrix(0.5517,0,0,1,0,0)"/>
  <atv:overwrite id="checkbox_stroke" transform="matrix(0.5517,0,0,1,0,0)"/>
 </svg>
</svg>
