<?xml version='1.0' encoding='UTF-8' standalone='no'?>
<svg height="30" version="1.2" width="125" xmlns="http://www.w3.org/2000/svg" xmlns:atv="http://webmi.atvise.com/2007/svgext" xmlns:xlink="http://www.w3.org/1999/xlink">
 <defs/>
 <title>Display Time Advanced</title>
 <desc>Displays the current client time (hour, minutes, seconds and milliseconds).</desc>
 <metadata>
  <atv:parameter behavior="optional" name="base" valuetype="address"/>
  <atv:parameter behavior="optional" defaultvalue="SYSTEM.GLOBALS.atvFontColor" desc="font color" group="Appearance" name="fontColor" substitute="$FONTCOLOR$" valuetype="global"/>
  <atv:parameter behavior="optional" defaultvalue="SYSTEM.GLOBALS.atvFillColor" desc="fill color" group="Appearance" name="fillColor" substitute="$FILLCOLOR$" valuetype="global"/>
  <atv:parameter behavior="optional" defaultvalue="SYSTEM.GLOBALS.atvBorderColor" desc="border color" group="Appearance" name="borderColor" substitute="$BORDERCOLOR$" valuetype="global"/>
  <atv:parameter behavior="optional" defaultvalue="30000" desc="update time interval" name="updateTime" valuetype="number"/>
  <atv:parameter behavior="optional" defaultvalue="true" desc="show access control notification" group="Security" name="displayAcNotification" valuetype="bool"/>
  <!-- menu -->
  <atv:parameter behavior="optional" config="top-left;top-right;bottom-left;bottom-right" defaultvalue="" desc="menu positioning" group="Menu" name="elementPosition" valuetype="enum"/>
  <atv:parameter behavior="optional" config="Yes;No" defaultvalue="" desc="menu mouseover active" group="Menu" name="fadeInAtHover" valuetype="enum"/>
  <atv:parameter behavior="optional" defaultvalue="" desc="menu symbol offset x" group="Menu" name="elementOffsetX" valuetype="number"/>
  <atv:parameter behavior="optional" defaultvalue="" desc="menu symbol offset y" group="Menu" name="elementOffsetY" valuetype="number"/>
  <atv:parameter behavior="optional" defaultvalue="" desc="context menu click frame" group="Menu" name="clickareaEnlargement" valuetype="number"/>
  <atv:gridconfig enabled="true" gridstyle="lines" height="2" width="2"/>
  <atv:snapconfig enabled="false" height="1" width="1"/>
 </metadata>
 <rect atv:dynamic="true" atv:refpx="62.5" atv:refpy="15.25" fill="$FILLCOLOR$" height="29.5" id="bg_rect" rx="3" ry="3" stroke="#d7d7d7" stroke-width="0.5" width="124.5" x="0.25" y="0.25"/>
 <rect atv:refpx="78.526" atv:refpy="-143.184" fill="#ffffff" height="21.203" id="id_7" rx="2.92" ry="3" stroke="none" stroke-width="3.426" width="118.024" x="3.393" y="4.241"/>
 <path atv:refpx="42.046" atv:refpy="128.437" d="M5.816,6.538C5.816,6.538 5.11,11.177 5.11,14.53C5.11,17.882 5.816,23.305 5.816,23.305C5.816,23.305 118.995,23.305 118.995,23.305C118.995,23.305 119.699,18.25 119.699,14.897C119.699,11.543 118.995,6.538 118.995,6.538C118.995,6.538 5.816,6.538 5.816,6.538" fill="#ffffff" id="id_10" stroke="$FILLCOLOR$" stroke-width="1.713"/>
 <path atv:refpx="62.348" atv:refpy="14.975" d="M15.567,6.949L16.242,6.949L16.242,22.422L26.057,22.422L26.057,6.949L33.2,6.949L33.2,22.422L43.009,22.422L43.009,6.949L43.688,6.949L43.688,22.422L53.506,22.422L53.506,6.949L60.649,6.949L60.649,22.422L70.439,22.422L70.439,6.949L71.111,6.949L71.111,22.422L80.955,22.422L80.955,6.949L88.744,6.949L88.744,22.422L98.653,22.422L98.653,6.949L99.328,6.949L99.328,22.422L108.457,22.422L108.457,6.949L109.126,6.949L109.126,22.948L15.567,22.948Z" fill="$FILLCOLOR$" fill-rule="evenodd" id="id_17" stroke="none" stroke-width="2"/>
 <text atv:refpx="16.08" atv:refpy="16" fill="$FONTCOLOR$" font-family="Courier" font-size="16" font-weight="bold" id="h" text-anchor="middle" x="16.08" y="20">00</text>
 <text atv:refpx="43.552" atv:refpy="16" fill="$FONTCOLOR$" font-family="Courier" font-size="16" font-weight="bold" id="m" text-anchor="middle" x="43.552" y="20">00</text>
 <text atv:refpx="70.97" atv:refpy="16" fill="$FONTCOLOR$" font-family="Courier" font-size="16" font-weight="bold" id="s" text-anchor="middle" x="70.97" y="20">00</text>
 <text atv:refpx="103.7" atv:refpy="16" fill="$FONTCOLOR$" font-family="Courier" font-size="16" font-weight="bold" id="ms" text-anchor="middle" x="103.7" y="20">000</text>
 <text atv:refpx="29.524" atv:refpy="14.126" fill="$FONTCOLOR$" font-family="Arial" font-size="16" id="id_3" text-anchor="middle" x="29.524" y="20.126">:</text>
 <text atv:refpx="56.971" atv:refpy="14.126" fill="$FONTCOLOR$" font-family="Arial" font-size="16" id="id_4" text-anchor="middle" x="56.971" y="20.126">:</text>
 <text atv:refpx="84.697" atv:refpy="14.286" fill="$FONTCOLOR$" font-family="Arial" font-size="16" id="id_5" text-anchor="middle" x="84.697" y="20.286">.</text>
 <script atv:desc="" atv:href="SYSTEM.LIBRARY.ATVISE.DISPLAYSCRIPTS.common.rights_handling" atv:name="rights_handling" atv:type="text/ecmascript"/>
 <script atv:desc="" atv:href="SYSTEM.LIBRARY.ATVISE.DISPLAYSCRIPTS.hmi.time_display" atv:name="time_display" atv:type="text/ecmascript"/>
 <script atv:desc="" atv:name="" type="text/ecmascript"/>
</svg>
