<?xml version='1.0' encoding='UTF-8' standalone='no'?>
<svg height="20" version="1.2" width="20" xmlns="http://www.w3.org/2000/svg" xmlns:atv="http://webmi.atvise.com/2007/svgext" xmlns:xlink="http://www.w3.org/1999/xlink">
 <defs/>
 <metadata>
  <atv:parameter behavior="optional" defaultvalue="#000000" desc="symbol color" name="symbolColor" substitute="$SYMBOLCOLOR$" valuetype="color"/>
  <atv:gridconfig enabled="true" gridstyle="lines" height="1" width="1"/>
  <atv:snapconfig enabled="true" height="1" width="1"/>
 </metadata>
 <g atv:refpx="10.001" atv:refpy="9.999" id="id_5" transform="matrix(0.6667,0,0,0.6792,-114.6667,23.4151)">
  <path atv:refpx="104" atv:refpy="-2" d="M183,-24.5L179,-24.5C179,-24.5 175,-24.5 175,-20.5C175,-16.5 179,-16.5 179,-16.5C179,-16.5 183,-16.5 183,-16.5" fill="none" id="id_70" stroke="$SYMBOLCOLOR$" stroke-linecap="round" stroke-width="3"/>
  <path atv:refpx="120" atv:refpy="-2" d="M191,-16.5L195,-16.5C195,-16.5 199,-16.5 199,-20.5C199,-24.5 195,-24.5 195,-24.5C195,-24.5 191,-24.5 191,-24.5" fill="none" id="id_71" stroke="$SYMBOLCOLOR$" stroke-linecap="round" stroke-width="3"/>
 </g>
 <line atv:refpx="8.906" atv:refpy="9.442" id="id_0" stroke="$SYMBOLCOLOR$" stroke-linecap="round" stroke-linejoin="miter" stroke-width="2" x1="9.847" x2="7" y1="4" y2="14.625"/>
 <line atv:refpx="11.906" atv:refpy="9.442" id="id_1" stroke="$SYMBOLCOLOR$" stroke-linecap="round" stroke-linejoin="miter" stroke-width="2" x1="12.847" x2="10" y1="4" y2="14.625"/>
 <script atv:desc="" atv:name="" type="text/ecmascript"/>
</svg>
