<?xml version='1.0' encoding='UTF-8' standalone='no'?>
<svg enable-background="new 0 0 16 16" height="40" id="Ebene_1" version="1.1" width="40" x="0px" xml:space="preserve" y="0px" xmlns="http://www.w3.org/2000/svg" xmlns:atv="http://webmi.atvise.com/2007/svgext" xmlns:xlink="http://www.w3.org/1999/xlink">
 <defs>
  <linearGradient gradientUnits="objectBoundingBox" id="SVGID_1_" x1="-0.290145" x2="0.792871" y1="0.136603" y2="0.639639">
   <stop offset="0" stop-color="#9d9d9c"/>
   <stop offset="1" stop-color="#c3c3b"/>
  </linearGradient>
  <linearGradient gradientUnits="objectBoundingBox" id="SVGID_2_" x1="0.0373956" x2="0.933879" y1="0.0373166" y2="1.06773">
   <stop offset="0" stop-color="#9d9d9c"/>
   <stop offset="1" stop-color="#c3c3b"/>
  </linearGradient>
 </defs>
 <metadata>
  <atv:parameter behavior="optional" defaultvalue="#000000" desc="symbol color" name="symbolColor" substitute="$SYMBOLCOLOR$" valuetype="color"/>
  <atv:gridconfig enabled="true" gridstyle="lines" height="2" width="2"/>
  <atv:snapconfig enabled="true" height="1" width="1"/>
 </metadata>
 <script atv:desc="" atv:name="" type="text/ecmascript"/>
 <g atv:refpx="20" atv:refpy="20" id="id_2" transform="matrix(2.25,0,0,2.4161,-2.5,-2.8322)">
  <path atv:refpx="8" atv:refpy="12.4" d="M2.5,11.9C2.776,11.9 3,12.124 3,12.4L3,14.9C3,15.453 3.447,15.9 4,15.9L16,15.9C16.552,15.9 17,15.453 17,14.9L17,12.4C17,12.124 17.223,11.9 17.5,11.9C17.776,11.9 18,12.124 18,12.4L18,14.9C18,16.004 17.104,16.9 16,16.9L4,16.9C2.895,16.9 2,16.004 2,14.9L2,12.4C2,12.124 2.223,11.9 2.5,11.9" fill="$SYMBOLCOLOR$" id="id_0" stroke-width="1"/>
  <path atv:refpx="10" atv:refpy="7" d="M10.353,12.854C10.26,12.948 10.132,13 9.999,13C9.867,13 9.739,12.948 9.645,12.854L6.645,9.854C6.45,9.658 6.45,9.341 6.646,9.146C6.841,8.95 7.158,8.95 7.354,9.146L9.499,11.293L9.499,2.5C9.499,2.223 9.723,2 9.999,2C10.276,2 10.499,2.223 10.499,2.5L10.499,11.293L12.645,9.146C12.841,8.95 13.158,8.95 13.354,9.146C13.549,9.341 13.549,9.658 13.353,9.854Z" fill="$SYMBOLCOLOR$" id="id_1" stroke-width="1"/>
 </g>
</svg>
