<?xml version='1.0' encoding='UTF-8' standalone='no'?>
<svg height="290" version="1.2" width="600" xmlns="http://www.w3.org/2000/svg" xmlns:atv="http://webmi.atvise.com/2007/svgext" xmlns:xlink="http://www.w3.org/1999/xlink">
 <defs/>
 <desc>Display to add new recipe templates and recipes.</desc>
 <title>Add Popup</title>
 <metadata>
  <atv:parameter behavior="mandatory" defaultvalue="AGENT.OBJECTS.recipes" desc="config node" name="configNode" substitute="" valuetype="address"/>
  <atv:parameter behavior="mandatory" config="templates;recipes" defaultvalue="templates" desc="mode" name="mode" valuetype="enum"/>
  <atv:parameter behavior="mandatory" defaultvalue="T{Title}" desc="title" name="dialogTitle" substitute="$TITLE$" valuetype="trstring"/>
  <atv:parameter behavior="mandatory" defaultvalue="" desc="trigger name" name="triggerName" valuetype="string"/>
  <atv:parameter behavior="mandatory" defaultvalue="label1" desc="label line 1" name="label1" substitute="$LABEL1$" valuetype="string"/>
  <atv:parameter behavior="hidden" defaultvalue="" name="value1" valuetype="string"/>
  <atv:parameter behavior="hidden" defaultvalue="false" desc="" name="useSecondValue" substitute="" valuetype="bool"/>
  <atv:parameter behavior="optional" defaultvalue="label2" desc="label line 2" name="label2" substitute="$LABEL2$" valuetype="string"/>
  <atv:parameter behavior="hidden" defaultvalue="" name="value2" valuetype="string"/>
  <atv:gridconfig enabled="false" gridstyle="lines" height="20" width="20"/>
  <atv:snapconfig enabled="true" height="5" width="5"/>
 </metadata>
 <text atv:refpx="300" atv:refpy="26" fill="#575757" font-family="Arial" font-size="20" id="id_1" text-anchor="middle" x="300" y="33.5">$TITLE$</text>
 <svg atv:refpx="382.5" atv:refpy="267.492" height="30" id="btn_ok" transform="matrix(1.5625,0,0,1.1667,0,0)" width="80" x="204.8" xlink:href="SYSTEM.LIBRARY.ATVISE.OBJECTDISPLAYS.Advanced.button" y="210">
  <atv:argument name="label" value="T{OK}"/>
  <atv:overwrite height="33.001" id="id_6" transform="matrix(0.64,0,0,0.8571,0,0)" width="123"/>
  <atv:overwrite id="button_label_2" transform="matrix(0.64,0,0,0.8571,0,0)" x="62.5" y="29.001"/>
  <atv:overwrite id="button_label_1" transform="matrix(0.64,0,0,0.8571,0,0)" x="62.5" y="14.001"/>
  <atv:overwrite id="button_label" transform="matrix(0.64,0,0,0.8571,0,0)" x="62.5" y="22.001"/>
  <atv:overwrite id="button_symbol_bottom" transform="matrix(0.384,0,0,0.5143,0,0)" x="94" y="30.46"/>
  <atv:overwrite id="button_symbol_top" transform="matrix(0.384,0,0,0.5143,0,0)" x="94" y="9.127"/>
  <atv:overwrite id="button_symbol" transform="matrix(0.64,0,0,0.8571,0,0)" x="52.5" y="7.501"/>
  <atv:overwrite height="31.001" id="button_stroke" transform="matrix(0.64,0,0,0.8571,0,0)" width="121"/>
  <atv:overwrite height="33.001" id="button_bg" transform="matrix(0.64,0,0,0.8571,0,0)" width="123"/>
  <atv:overwrite height="35.001" id="outer_frame" transform="matrix(0.64,0,0,0.8571,0,0)" width="125"/>
 </svg>
 <svg atv:refpx="527.501" atv:refpy="266.492" height="30" id="btn_cancel" transform="matrix(1.5625,0,0,1.1667,0,0)" width="80" x="297.6" xlink:href="SYSTEM.LIBRARY.ATVISE.OBJECTDISPLAYS.Advanced.button" y="210">
  <atv:argument name="label" value="T{Cancel}"/>
  <atv:overwrite height="33.001" id="id_6" transform="matrix(0.64,0,0,0.8571,0,0)" width="123"/>
  <atv:overwrite id="button_label_2" transform="matrix(0.64,0,0,0.8571,0,0)" x="62.5" y="29.001"/>
  <atv:overwrite id="button_label_1" transform="matrix(0.64,0,0,0.8571,0,0)" x="62.5" y="14.001"/>
  <atv:overwrite id="button_label" transform="matrix(0.64,0,0,0.8571,0,0)" x="62.5" y="22.001"/>
  <atv:overwrite id="button_symbol_bottom" transform="matrix(0.384,0,0,0.5143,0,0)" x="94" y="30.46"/>
  <atv:overwrite id="button_symbol_top" transform="matrix(0.384,0,0,0.5143,0,0)" x="94" y="9.127"/>
  <atv:overwrite id="button_symbol" transform="matrix(0.64,0,0,0.8571,0,0)" x="52.5" y="7.501"/>
  <atv:overwrite height="31.001" id="button_stroke" transform="matrix(0.64,0,0,0.8571,0,0)" width="121"/>
  <atv:overwrite height="33.001" id="button_bg" transform="matrix(0.64,0,0,0.8571,0,0)" width="123"/>
  <atv:overwrite height="35.001" id="outer_frame" transform="matrix(0.64,0,0,0.8571,0,0)" width="125"/>
 </svg>
 <text atv:refpx="92.691" atv:refpy="110" fill="#575757" font-family="Arial" font-size="20" id="id_3" text-anchor="start" x="54" y="117.5">$LABEL1$</text>
 <text atv:refpx="93.5" atv:refpy="151" fill="#575757" font-family="Arial" font-size="20" id="id_0" text-anchor="start" x="54.5" y="158.5">$LABEL2$</text>
 <svg atv:refpx="374.999" atv:refpy="110" height="30" id="txtValue1" transform="matrix(2.1875,0,0,1,0,0)" width="160" x="91.429" xlink:href="SYSTEM.LIBRARY.ATVISE.OBJECTDISPLAYS.Advanced.in_out_value" y="95">
  <atv:argument name="validation" value="String"/>
  <atv:overwrite id="input_label" transform="matrix(0.4571,0,0,1,0,0)" x="342.055"/>
  <atv:overwrite id="blinking_frame" transform="matrix(0.4571,0,0,1,0,0)" width="342"/>
  <atv:overwrite id="focus_frame" transform="matrix(0.4571,0,0,1,0,0)" width="346"/>
  <atv:overwrite id="input_bg" transform="matrix(0.4571,0,0,1,0,0)" width="342"/>
  <atv:overwrite id="id_1" transform="matrix(0.4571,0,0,1,0,0)" width="348"/>
  <atv:overwrite id="id_0" transform="matrix(0.4571,0,0,1,0,0)" width="350"/>
 </svg>
 <svg atv:refpx="375" atv:refpy="150" height="30" id="txtValue2" transform="matrix(2.1875,0,0,1,0,0)" width="160" x="91.429" xlink:href="SYSTEM.LIBRARY.ATVISE.OBJECTDISPLAYS.Advanced.in_out_value" y="135">
  <atv:argument name="validation" value="String"/>
  <atv:overwrite id="input_label" transform="matrix(0.4571,0,0,1,0,0)" x="342.055"/>
  <atv:overwrite id="blinking_frame" transform="matrix(0.4571,0,0,1,0,0)" width="342"/>
  <atv:overwrite id="focus_frame" transform="matrix(0.4571,0,0,1,0,0)" width="346"/>
  <atv:overwrite id="input_bg" transform="matrix(0.4571,0,0,1,0,0)" width="342"/>
  <atv:overwrite id="id_1" transform="matrix(0.4571,0,0,1,0,0)" width="348"/>
  <atv:overwrite id="id_0" transform="matrix(0.4571,0,0,1,0,0)" width="350"/>
 </svg>
 <text atv:refpx="300" atv:refpy="191" fill="#575757" font-family="Arial" font-size="20" id="lblMessages" text-anchor="middle" x="301" y="198.5"/>
 <script atv:desc="" atv:href="SYSTEM.LIBRARY.ATVISE.DISPLAYSCRIPTS.recipemanager.add_popup" atv:name="" atv:type="text/ecmascript"/>
 <script atv:desc="" atv:name="" type="text/ecmascript"/>
 <svg atv:refpx="375" atv:refpy="150" height="30" id="ChkBox" transform="matrix(2.1875,0,0,1,0,0)" width="160" x="91.429" xlink:href="SYSTEM.LIBRARY.ATVISE.OBJECTDISPLAYS.Advanced.checkbox" y="135">
  <atv:argument name="label" value="T{include recipes}"/>
  <atv:argument name="fontSize" value="20"/>
  <atv:overwrite id="checkbox_item" transform="matrix(0.4571,0,0,1,0,0)"/>
  <atv:overwrite id="checkbox_symbol" transform="matrix(0.4571,0,0,1,0,0)"/>
  <atv:overwrite id="blinking_frame" transform="matrix(0.4571,0,0,1,0,0)"/>
  <atv:overwrite id="focus_frame" transform="matrix(0.4571,0,0,1,0,0)"/>
  <atv:overwrite id="checkbox_bg" transform="matrix(0.4571,0,0,1,0,0)"/>
  <atv:overwrite id="checkbox_frame" transform="matrix(0.4571,0,0,1,0,0)"/>
  <atv:overwrite id="checkbox_stroke" transform="matrix(0.4571,0,0,1,0,0)"/>
 </svg>
</svg>
