<?xml version='1.0' encoding='UTF-8' standalone='no'?>
<svg enable-background="new 0 0 72 72" height="60" id="Ebene_1" version="1.1" width="60" x="0px" xml:space="preserve" y="0px" xmlns="http://www.w3.org/2000/svg" xmlns:atv="http://webmi.atvise.com/2007/svgext" xmlns:xlink="http://www.w3.org/1999/xlink">
 <defs/>
 <metadata>
  <atv:parameter behavior="optional" defaultvalue="#000000" desc="symbol color" name="symbolColor" substitute="$SYMBOLCOLOR$" valuetype="color"/>
  <atv:gridconfig enabled="false" gridstyle="lines" height="20" width="20"/>
  <atv:snapconfig enabled="false" height="10" width="10"/>
 </metadata>
 <path atv:refpx="30.002" atv:refpy="30.002" d="M53.881,27.985L47.431,20.852L47.431,6.005L39.128,6.005L39.128,11.667L31.09,2.768C30.533,2.145 29.464,2.145 28.903,2.768L6.119,27.985C5.727,28.416 5.63,29.042 5.863,29.573C6.1,30.105 6.631,30.448 7.208,30.448L11.749,30.448L11.749,56.224C11.749,57.04 12.403,57.698 13.223,57.698L46.621,57.698C47.435,57.698 48.099,57.04 48.099,56.224L48.099,30.448L52.785,30.448C53.369,30.448 53.897,30.105 54.134,29.573C54.37,29.039 54.273,28.416 53.881,27.985" fill="$SYMBOLCOLOR$" id="id_0"/>
 <script atv:desc="" atv:name="" type="text/ecmascript"/>
</svg>
