<?xml version='1.0' encoding='UTF-8' standalone='no'?>
<svg height="270" version="1.2" width="500" xmlns="http://www.w3.org/2000/svg" xmlns:atv="http://webmi.atvise.com/2007/svgext" xmlns:xlink="http://www.w3.org/1999/xlink">
 <defs/>
 <desc>Global e-mail configuration for reports.</desc>
 <title>E-mail configuration</title>
 <metadata>
  <atv:parameter behavior="optional" defaultvalue="T{Global setttings for e-mail notifications}" desc="headline" name="headline" substitute="$HEADLINE$" valuetype="trstring"/>
  <atv:parameter behavior="optional" defaultvalue="SYSTEM.GLOBALS.atvFontColor" desc="font color" name="fontColor" substitute="$FONTCOLOR$" valuetype="global"/>
  <atv:parameter behavior="optional" defaultvalue="SYSTEM.GLOBALS.atvFillColor" desc="fill color" name="fillColor" substitute="$FILLCOLOR$" valuetype="global"/>
  <atv:gridconfig enabled="true" gridstyle="lines" height="5" width="5"/>
  <atv:snapconfig enabled="true" height="5" width="5"/>
 </metadata>
 <rect atv:refpx="250" atv:refpy="135" fill="$FILLCOLOR$" height="270" id="background" stroke="none" stroke-width="0" width="500" x="0" y="0"/>
 <svg atv:dynamic="true" atv:refpx="184.875" atv:refpy="187" height="30" id="save_button" transform="matrix(1.1875,0,0,1,0,0)" width="80" x="113.684" xlink:href="SYSTEM.LIBRARY.ATVISE.OBJECTDISPLAYS.Advanced.button" y="225">
  <atv:argument name="label" value="T{Save}"/>
  <atv:argument name="tabIndex" value="4"/>
  <atv:argument name="borderVisible" value="true"/>
  <atv:argument name="extraBorderColor" value="#ffffff"/>
  <atv:argument name="fontSize" value="14"/>
  <atv:overwrite id="id_6" transform="matrix(0.8421,0,0,1,0,0)" width="93"/>
  <atv:overwrite id="button_label_2" transform="matrix(0.8421,0,0,1,0,0)" x="47.5"/>
  <atv:overwrite id="button_label_1" transform="matrix(0.8421,0,0,1,0,0)" x="47.5"/>
  <atv:overwrite id="button_label" transform="matrix(0.8421,0,0,1,0,0)" x="47.5"/>
  <atv:overwrite id="button_symbol_bottom" transform="matrix(0.5053,0,0,0.6,0,0)" x="69"/>
  <atv:overwrite id="button_symbol_top" transform="matrix(0.5053,0,0,0.6,0,0)" x="69"/>
  <atv:overwrite id="button_symbol" transform="matrix(0.8421,0,0,1,0,0)" x="37.5"/>
  <atv:overwrite id="button_stroke" transform="matrix(0.8421,0,0,1,0,0)" width="91"/>
  <atv:overwrite id="button_bg" transform="matrix(0.8421,0,0,1,0,0)" width="93"/>
  <atv:overwrite id="outer_frame" transform="matrix(0.8421,0,0,1,0,0)" width="95"/>
 </svg>
 <svg atv:dynamic="true" atv:refpx="289.875" atv:refpy="234" height="30" id="cancel_button" transform="matrix(1.1875,0,0,1,0,0)" width="80" x="202.105" xlink:href="SYSTEM.LIBRARY.ATVISE.OBJECTDISPLAYS.Advanced.button" y="225">
  <atv:argument name="label" value="T{Cancel}"/>
  <atv:argument name="tabIndex" value="5"/>
  <atv:argument name="borderVisible" value="true"/>
  <atv:argument name="extraBorderColor" value="#ffffff"/>
  <atv:argument name="fontSize" value="14"/>
  <atv:overwrite id="id_6" transform="matrix(0.8421,0,0,1,0,0)" width="93"/>
  <atv:overwrite id="button_label_2" transform="matrix(0.8421,0,0,1,0,0)" x="47.5"/>
  <atv:overwrite id="button_label_1" transform="matrix(0.8421,0,0,1,0,0)" x="47.5"/>
  <atv:overwrite id="button_label" transform="matrix(0.8421,0,0,1,0,0)" x="47.5"/>
  <atv:overwrite id="button_symbol_bottom" transform="matrix(0.5053,0,0,0.6,0,0)" x="69"/>
  <atv:overwrite id="button_symbol_top" transform="matrix(0.5053,0,0,0.6,0,0)" x="69"/>
  <atv:overwrite id="button_symbol" transform="matrix(0.8421,0,0,1,0,0)" x="37.5"/>
  <atv:overwrite id="button_stroke" transform="matrix(0.8421,0,0,1,0,0)" width="91"/>
  <atv:overwrite id="button_bg" transform="matrix(0.8421,0,0,1,0,0)" width="93"/>
  <atv:overwrite id="outer_frame" transform="matrix(0.8421,0,0,1,0,0)" width="95"/>
 </svg>
 <text atv:refpx="257" atv:refpy="207.5" fill="#ff0004" font-family="Arial" font-size="14" id="message" text-anchor="middle" x="235" y="212">&lt;errormessage></text>
 <rect atv:refpx="250" atv:refpy="102.5" fill="#ffffff" height="165" id="box_background" rx="10" ry="10.313" stroke="none" stroke-width="0" width="460" x="20" y="20"/>
 <svg atv:refpx="314.978" atv:refpy="139" height="30" id="sender_input" transform="matrix(1.5,0,0,1,0,0)" width="160" x="130" xlink:href="SYSTEM.LIBRARY.ATVISE.OBJECTDISPLAYS.Advanced.in_out_value" y="145">
  <atv:argument name="validation" value="String"/>
  <atv:argument name="allowDirectInput" value="Yes"/>
  <atv:argument name="tabIndex" value="3"/>
  <atv:overwrite id="id_2" transform="matrix(0.8889,0,0,1,0,0)" width="174.5"/>
  <atv:overwrite id="id_0" transform="matrix(0.5517,0,0,1,0,0)" width="290"/>
  <atv:overwrite id="input_label" transform="matrix(0.6667,0,0,1,0,0)" x="232.055"/>
  <atv:overwrite id="blinking_frame" transform="matrix(0.6667,0,0,1,0,0)" width="232"/>
  <atv:overwrite id="focus_frame" transform="matrix(0.6667,0,0,1,0,0)" width="236"/>
  <atv:overwrite id="input_bg" transform="matrix(0.6667,0,0,1,0,0)" width="232"/>
  <atv:overwrite id="id_1" transform="matrix(0.6667,0,0,1,0,0)" width="238"/>
  <atv:overwrite id="input_border" transform="matrix(0.6667,0,0,1,0,0)" width="240"/>
 </svg>
 <svg atv:refpx="314.914" atv:refpy="80" height="30" id="active_toggle" transform="matrix(1.5,0,0,1,0,0)" width="160" x="130" xlink:href="SYSTEM.LIBRARY.ATVISE.OBJECTDISPLAYS.Advanced.checkbox" y="65">
  <atv:argument name="label" value=""/>
  <atv:argument name="tabIndex" value="1"/>
  <atv:argument name="valueOn" value="true"/>
  <atv:argument name="outputValueOn" value="true"/>
  <atv:argument name="outputValueOff" value="false"/>
  <atv:argument name="fontSize" value="16"/>
  <atv:overwrite id="checkbox_item" transform="matrix(0.6667,0,0,1,0,0)"/>
  <atv:overwrite id="checkbox_symbol" transform="matrix(0.6667,0,0,1,0,0)"/>
  <atv:overwrite id="blinking_frame" transform="matrix(0.6667,0,0,1,0,0)"/>
  <atv:overwrite id="focus_frame" transform="matrix(0.6667,0,0,1,0,0)"/>
  <atv:overwrite id="checkbox_bg" transform="matrix(0.6667,0,0,1,0,0)"/>
  <atv:overwrite id="checkbox_frame" transform="matrix(0.6667,0,0,1,0,0)"/>
  <atv:overwrite id="checkbox_stroke" transform="matrix(0.6667,0,0,1,0,0)"/>
 </svg>
 <svg atv:refpx="314.981" atv:refpy="99" height="30" id="smtp_input" transform="matrix(1.5,0,0,1,0,0)" width="160" x="130" xlink:href="SYSTEM.LIBRARY.ATVISE.OBJECTDISPLAYS.Advanced.combobox" y="105">
  <atv:argument name="tabIndex" value="2"/>
  <atv:overwrite id="focus_frame" transform="matrix(0.6667,0,0,1,0,0)" width="236"/>
  <atv:overwrite id="button_stroke" transform="matrix(0.6667,0,0,1,0,0)" x="215"/>
  <atv:overwrite id="id_7" transform="matrix(0.6667,0,0,1,0,0)" x="215"/>
  <atv:overwrite id="button_bg" transform="matrix(0.6667,0,0,1,0,0)" x="215"/>
  <atv:overwrite id="combobox_label" transform="matrix(0.6667,0,0,1,0,0)" x="205.5"/>
  <atv:overwrite id="blinking_frame" transform="matrix(0.6667,0,0,1,0,0)" width="208"/>
  <atv:overwrite id="combobox_bg" transform="matrix(0.6667,0,0,1,0,0)" width="208"/>
  <atv:overwrite id="id_1" transform="matrix(0.6667,0,0,1,0,0)" width="238"/>
  <atv:overwrite id="id_0" transform="matrix(0.6667,0,0,1,0,0)" width="240"/>
 </svg>
 <text atv:refpx="61.126" atv:refpy="38.5" fill="$FONTCOLOR$" font-family="Arial" font-size="16" font-weight="bold" id="header_label" x="34.5" y="44.5">$HEADLINE$</text>
 <text atv:refpx="72.568" atv:refpy="80.5" fill="$FONTCOLOR$" font-family="Arial" font-size="16" id="active_label" text-anchor="start" x="41" y="86.5">T{Active}:</text>
 <text atv:refpx="71.568" atv:refpy="121.5" fill="$FONTCOLOR$" font-family="Arial" font-size="16" id="smtp_server" text-anchor="start" x="40" y="127.5">T{SMTP server}:</text>
 <text atv:refpx="71.06" atv:refpy="161.5" fill="$FONTCOLOR$" font-family="Arial" font-size="16" id="sender_label" text-anchor="start" x="40" y="167.5">T{Sender address}:</text>
 <script atv:desc="" atv:href="SYSTEM.LIBRARY.ATVISE.DISPLAYSCRIPTS.report.email_dialog" atv:name="Email dialog" atv:type="text/ecmascript"/>
 <script atv:desc="" atv:name="" type="text/ecmascript"/>
</svg>
