<?xml version='1.0' encoding='UTF-8' standalone='no'?>
<svg enable-background="new 0 0 80 80" height="80" id="Ebene_1" version="1.1" width="80" x="0px" xml:space="preserve" y="0px" xmlns="http://www.w3.org/2000/svg" xmlns:atv="http://webmi.atvise.com/2007/svgext" xmlns:xlink="http://www.w3.org/1999/xlink">
 <defs/>
 <metadata>
  <atv:gridconfig enabled="false" gridstyle="lines" height="20" width="20"/>
  <atv:snapconfig enabled="false" height="10" width="10"/>
 </metadata>
 <script atv:desc="" atv:name="" type="text/ecmascript"/>
 <path atv:refpx="196.57" atv:refpy="98.78" class="cls-2" d="M31.449,10.105C34.597,10.104 37.15,12.656 37.15,15.804C37.15,18.952 34.598,21.504 31.45,21.503C28.302,21.503 25.751,18.951 25.752,15.803C25.751,12.656 28.302,10.104 31.449,10.105" fill="#f2d600" id="id_1" stroke-width="0.16"/>
 <path atv:refpx="196.575" atv:refpy="249.857" class="cls-2" d="M31.449,25.779C32.961,25.776 34.412,26.375 35.481,27.443C36.551,28.511 37.152,29.961 37.152,31.473L37.152,48.569C37.099,51.68 34.563,54.174 31.452,54.174C28.34,54.174 25.804,51.68 25.752,48.569L25.752,31.473C25.753,28.327 28.304,25.779 31.449,25.779" fill="#f2d600" id="id_2" stroke-width="0.16"/>
 <path atv:refpx="303.41" atv:refpy="401.23" class="cls-2" d="M48.544,58.497C51.691,58.496 54.243,61.047 54.244,64.194C54.245,67.342 51.694,69.894 48.547,69.895C45.399,69.896 42.847,67.345 42.846,64.197C42.849,61.052 45.397,58.501 48.543,58.497" fill="#f2d600" id="id_3" stroke-width="0.16"/>
 <path atv:refpx="303.42" atv:refpy="249.875" class="cls-2" d="M48.544,25.732C51.691,25.733 54.244,28.283 54.247,31.431L54.247,48.526C54.247,51.674 51.695,54.226 48.547,54.226C45.398,54.226 42.846,51.674 42.846,48.526L42.846,31.431C42.848,28.285 45.397,25.735 48.544,25.732" fill="#f2d600" id="id_4" stroke-width="0.16"/>
</svg>
