<?xml version="1.0" encoding="iso-8859-1"?>
<!-- Uploaded to: SVG Repo, www.svgrepo.com, Generator: SVG Repo Mixer Tools -->
<svg height="800px" width="800px" version="1.1" id="Layer_1" xmlns="http://www.w3.org/2000/svg" xmlns:xlink="http://www.w3.org/1999/xlink" 
	 viewBox="0 0 495 495" xml:space="preserve">
<g>
	<path style="fill:#96C8EF;" d="M308.868,46.612c0,0-25.49,23.28-56.93,51.99c-37.43,34.17-50.27,85.31-37.44,130.64
		c-22.6,11.82-38.39,34.9-39.92,61.79c-55.64-76.44-46.08-184.12,25.37-249.36C231.388,12.962,280.158,15.162,308.868,46.612z"/>
	<path style="fill:#5AAAE7;" d="M251.938,98.602c31.44-28.71,56.93-51.99,56.93-51.99c28.71,31.44,26.5,80.21-4.94,108.92
		c-20.65,18.85-28.75,46.59-23.6,72.17c-9.53-4.43-20.15-6.9-31.34-6.9c-12.44,0-24.18,3.05-34.49,8.44
		C201.668,183.912,214.508,132.772,251.938,98.602z"/>
	<path style="fill:#5AAAE7;" d="M3.631,367.846c0,0,32.906,10.435,73.49,23.308c48.307,15.33,99.016,0.88,131.858-32.896
		c21.536,13.662,49.419,15.797,73.472,3.677c-38.379,86.406-136.413,131.966-228.637,102.709
		C13.23,451.771-9.25,408.435,3.631,367.846z"/>
	<path style="fill:#96C8EF;" d="M77.121,391.154c-40.584-12.873-73.49-23.308-73.49-23.308
		c12.873-40.584,56.214-63.055,96.797-50.182c26.65,8.458,54.723,1.603,74.301-15.647c0.929,10.468,4.099,20.9,9.694,30.591
		c6.22,10.773,14.731,19.415,24.554,25.649C176.137,392.034,125.428,406.485,77.121,391.154z"/>
	<path style="fill:#96C8EF;" d="M434.447,471.572c0,0-7.416-33.715-16.56-75.298c-10.877-49.5-48.746-86.19-94.418-97.744
		c1.064-25.482-11.029-50.697-33.552-65.467c94.019-9.966,182.493,52.154,203.267,146.651
		C502.328,421.297,476.038,462.433,434.447,471.572z"/>
	<path style="fill:#5AAAE7;" d="M417.887,396.274c9.144,41.583,16.56,75.298,16.56,75.298
		c-41.583,9.144-82.714-17.155-91.857-58.738c-6-27.308-25.973-48.193-50.701-56.523c8.602-6.038,16.051-14,21.646-23.691
		c6.22-10.773,9.449-22.465,9.936-34.089C369.141,310.084,407.01,346.774,417.887,396.274z"/>
	<path style="fill:#1E81CE;" d="M174.443,295.343c0,41.166,33.372,74.538,74.538,74.538V220.805
		C207.815,220.805,174.443,254.177,174.443,295.343z"/>
	<path style="fill:#165C92;" d="M248.982,220.805v149.077c41.166,0,74.539-33.372,74.539-74.538
		C323.52,254.177,290.148,220.805,248.982,220.805z"/>
</g>
</svg>