<?xml version='1.0' encoding='UTF-8' standalone='no'?>
<svg height="280" version="1.2" width="430" xmlns="http://www.w3.org/2000/svg" xmlns:atv="http://webmi.atvise.com/2007/svgext" xmlns:xlink="http://www.w3.org/1999/xlink">
 <defs/>
 <desc>Simple display that can be used as dialog to login.</desc>
 <title>Login Dialog</title>
 <metadata>
  <atv:parameter behavior="optional" defaultvalue="SYSTEM.GLOBALS.atvFontColor" desc="font color" name="fontColor" substitute="$FONTCOLOR$" valuetype="global"/>
  <atv:parameter behavior="optional" defaultvalue="SYSTEM.GLOBALS.atvFillColor" desc="fill color" name="fillColor" substitute="$FILLCOLOR$" valuetype="global"/>
  <atv:parameter behavior="optional" defaultvalue="SYSTEM.GLOBALS.atvSymbolColor" desc="symbol color" name="symbolColor" substitute="$SYMBOLCOLOR$" valuetype="global"/>
  <atv:parameter behavior="optional" defaultvalue="SYSTEM.LIBRARY.ATVISE.OBJECTDISPLAYS.Advanced.keyboard.keyboard" desc="keyboard display" name="keyboard" valuetype="display"/>
  <atv:gridconfig enabled="true" gridstyle="lines" height="20" width="20"/>
  <atv:snapconfig enabled="true" height="10" width="10"/>
 </metadata>
 <svg atv:refpx="215" atv:refpy="140" height="280" id="login2FA_group" width="430" x="0" xlink:href="SYSTEM.LIBRARY.ATVISE.OBJECTDISPLAYS.Advanced.dialogs.login2FA_dialog" y="0"/>
 <g atv:refpx="215" atv:refpy="140" id="login_group">
  <rect atv:refpx="215" atv:refpy="140" fill="$FILLCOLOR$" height="280" id="background" stroke="none" stroke-width="0" width="430" x="0" y="0"/>
  <rect atv:refpx="-186.142" atv:refpy="95" fill="#ffffff" height="50" id="id_13" rx="10" ry="10" stroke="none" stroke-width="0" width="390" x="20" y="140"/>
  <rect atv:refpx="215" atv:refpy="105" fill="#ffffff" height="50" id="username_background" rx="10" ry="10" stroke="none" stroke-width="0" width="390" x="20" y="80"/>
  <rect atv:refpx="4.286" atv:refpy="165" fill="none" height="50" id="id_1" rx="5.961" ry="5.961" stroke="none" stroke-width="0" width="200" x="110" y="192"/>
  <svg atv:dynamic="true" atv:refpx="160" atv:refpy="255" height="30" id="ok_button" width="80" x="120" xlink:href="SYSTEM.LIBRARY.ATVISE.OBJECTDISPLAYS.Advanced.button" y="240">
   <atv:argument name="label" value="T{OK}"/>
   <atv:argument name="tabIndex" value="4"/>
   <atv:argument name="borderVisible" value="true"/>
   <atv:argument name="extraBorderColor" value="#ffffff"/>
  </svg>
  <svg atv:dynamic="true" atv:refpx="260" atv:refpy="255" height="30" id="cancel_button" width="80" x="220" xlink:href="SYSTEM.LIBRARY.ATVISE.OBJECTDISPLAYS.Advanced.button" y="240">
   <atv:argument name="label" value="T{Cancel}"/>
   <atv:argument name="tabIndex" value="5"/>
   <atv:argument name="borderVisible" value="true"/>
   <atv:argument name="extraBorderColor" value="#ffffff"/>
  </svg>
  <svg atv:refpx="260" atv:refpy="105" height="30" id="username_input" transform="matrix(1.125,0,0,1,0,0)" width="160" x="151.111" xlink:href="SYSTEM.LIBRARY.ATVISE.OBJECTDISPLAYS.Advanced.in_out_value" y="90">
   <atv:argument name="validation" value="String"/>
   <atv:argument name="allowDirectInput" value="Yes"/>
   <atv:argument name="tabIndex" value="1"/>
   <atv:overwrite id="id_2" transform="matrix(0.8889,0,0,1,0,0)" width="174.5"/>
   <atv:argument name="selectTextOnFocus" value="true"/>
   <atv:overwrite id="input_label" transform="matrix(0.8889,0,0,1,0,0)" x="172.055"/>
   <atv:overwrite id="blinking_frame" transform="matrix(0.8889,0,0,1,0,0)" width="172"/>
   <atv:overwrite id="focus_frame" transform="matrix(0.8889,0,0,1,0,0)" width="176"/>
   <atv:overwrite id="input_bg" transform="matrix(0.8889,0,0,1,0,0)" width="172"/>
   <atv:overwrite id="id_1" transform="matrix(0.8889,0,0,1,0,0)" width="178"/>
   <atv:overwrite id="id_0" transform="matrix(0.8889,0,0,1,0,0)" width="180"/>
  </svg>
  <svg atv:refpx="210" atv:refpy="215" height="30" id="remember_username_checkbox" transform="matrix(1.125,0,0,1,0,0)" width="160" x="106.667" xlink:href="SYSTEM.LIBRARY.ATVISE.OBJECTDISPLAYS.Advanced.checkbox" y="200">
   <atv:argument name="label" value="T{Remember username}"/>
   <atv:argument name="preselected" value=""/>
   <atv:argument name="valueOn" value="true"/>
   <atv:argument name="outputValueOn" value="true"/>
   <atv:argument name="outputValueOff" value="false"/>
   <atv:argument name="tabIndex" value="3"/>
   <atv:overwrite id="checkbox_item" transform="matrix(0.8889,0,0,1,0,0)"/>
   <atv:overwrite id="checkbox_symbol" transform="matrix(0.8889,0,0,1,0,0)"/>
   <atv:overwrite id="blinking_frame" transform="matrix(0.8889,0,0,1,0,0)"/>
   <atv:overwrite id="focus_frame" transform="matrix(0.8889,0,0,1,0,0)"/>
   <atv:overwrite id="checkbox_bg" transform="matrix(0.8889,0,0,1,0,0)"/>
   <atv:overwrite id="checkbox_frame" transform="matrix(0.8889,0,0,1,0,0)"/>
   <atv:overwrite id="checkbox_stroke" transform="matrix(0.8889,0,0,1,0,0)"/>
  </svg>
  <svg atv:refpx="260" atv:refpy="165" height="30" id="password_input" transform="matrix(1.125,0,0,1,0,0)" width="160" x="151.111" xlink:href="SYSTEM.LIBRARY.ATVISE.OBJECTDISPLAYS.Advanced.in_out_password" y="150">
   <atv:argument name="validation" value="String"/>
   <atv:argument name="password" value="Yes"/>
   <atv:argument name="allowDirectInput" value="Yes"/>
   <atv:argument name="tabIndex" value="2"/>
   <atv:overwrite id="id_2" transform="matrix(0.8889,0,0,1,0,0)" width="174.5"/>
   <atv:argument name="selectTextOnFocus" value="true"/>
   <atv:overwrite id="clickarea_visibility" transform="matrix(0.8889,0,0,1,0,0)" x="153"/>
   <atv:overwrite id="button_stroke" transform="matrix(0.8889,0,0,1,0,0)" x="155"/>
   <atv:overwrite id="button_eye_slash" transform="matrix(0.7111,0,0,0.85,0,0)" x="196.25"/>
   <atv:overwrite id="button_eye" transform="matrix(0.7111,0,0,0.85,0,0)" x="196.25"/>
   <atv:overwrite id="button_bg" transform="matrix(0.8889,0,0,1,0,0)" x="155"/>
   <atv:overwrite id="input_label" transform="matrix(0.8889,0,0,1,0,0)" x="148.055"/>
   <atv:overwrite id="blinking_frame" transform="matrix(0.8889,0,0,1,0,0)" width="172"/>
   <atv:overwrite id="focus_frame" transform="matrix(0.8889,0,0,1,0,0)" width="176"/>
   <atv:overwrite id="input_bg" transform="matrix(0.8889,0,0,1,0,0)" width="148"/>
   <atv:overwrite id="id_1" transform="matrix(0.8889,0,0,1,0,0)" width="178"/>
   <atv:overwrite id="id_0" transform="matrix(0.8889,0,0,1,0,0)" width="180"/>
  </svg>
  <text atv:refpx="79.5" atv:refpy="103.5" fill="$FONTCOLOR$" font-family="Arial" font-size="16" id="username_label" x="34" y="109.5">T{Username}</text>
  <text atv:refpx="78.5" atv:refpy="163.5" fill="$FONTCOLOR$" font-family="Arial" font-size="16" id="password_label" x="34" y="169.5">T{Password}</text>
  <text atv:refpx="219" atv:refpy="34.5" fill="$FONTCOLOR$" font-family="Arial" font-size="12" id="status_message" text-anchor="middle" x="219" y="39">T{Please enter username and password.}</text>
  <text atv:refpx="216" atv:refpy="48" fill="$FONTCOLOR$" font-family="Arial" font-size="12" id="status_message2" text-anchor="middle" x="216" y="52.5"/>
  <svg atv:dynamic="true" atv:refpx="375" atv:refpy="105" height="30" id="username_keyboard" transform="matrix(0.375,0,0,1,0,0)" width="80" x="960" xlink:href="SYSTEM.LIBRARY.ATVISE.OBJECTDISPLAYS.Advanced.button" y="90">
   <atv:argument name="symbol" value="SYSTEM.LIBRARY.ATVISE.OBJECTDISPLAYS.Symbols.20x20.keyboard"/>
   <atv:argument name="visibilitySymbol" value="inherit"/>
   <atv:argument name="visibilityLabel" value="hidden"/>
   <atv:overwrite id="id_2" transform="matrix(2.6667,0,0,1,0,0)" width="24.5"/>
   <atv:overwrite id="id_0" transform="matrix(2.6667,0,0,1,0,0)" width="29.5"/>
   <atv:overwrite id="id_1" transform="matrix(2.6667,0,0,1,0,0)" width="30"/>
   <atv:argument name="tabIndex" value="6"/>
   <atv:overwrite id="id_6" transform="matrix(2.6667,0,0,1,0,0)" width="28"/>
   <atv:overwrite id="button_label_2" transform="matrix(2.6667,0,0,1,0,0)" x="15"/>
   <atv:overwrite id="button_label_1" transform="matrix(2.6667,0,0,1,0,0)" x="15"/>
   <atv:overwrite id="button_label" transform="matrix(2.6667,0,0,1,0,0)" x="15"/>
   <atv:overwrite id="button_symbol_bottom" transform="matrix(1.6,0,0,0.6,0,0)" x="14.833"/>
   <atv:overwrite id="button_symbol_top" transform="matrix(1.6,0,0,0.6,0,0)" x="14.833"/>
   <atv:overwrite id="button_symbol" transform="matrix(2.6667,0,0,1,0,0)" x="5"/>
   <atv:overwrite id="button_stroke" transform="matrix(2.6667,0,0,1,0,0)" width="26"/>
   <atv:overwrite id="button_bg" transform="matrix(2.6667,0,0,1,0,0)" width="28"/>
   <atv:overwrite id="outer_frame" transform="matrix(2.6667,0,0,1,0,0)" width="30"/>
  </svg>
  <svg atv:dynamic="true" atv:refpx="375" atv:refpy="165" height="30" id="password_keyboard" transform="matrix(0.375,0,0,1,0,0)" width="80" x="960" xlink:href="SYSTEM.LIBRARY.ATVISE.OBJECTDISPLAYS.Advanced.button" y="150">
   <atv:argument name="symbol" value="SYSTEM.LIBRARY.ATVISE.OBJECTDISPLAYS.Symbols.20x20.keyboard"/>
   <atv:argument name="visibilitySymbol" value="inherit"/>
   <atv:argument name="visibilityLabel" value="hidden"/>
   <atv:overwrite id="id_2" transform="matrix(2.6667,0,0,1,0,0)" width="24.5"/>
   <atv:overwrite id="id_0" transform="matrix(2.6667,0,0,1,0,0)" width="29.5"/>
   <atv:overwrite id="id_1" transform="matrix(2.6667,0,0,1,0,0)" width="30"/>
   <atv:argument name="tabIndex" value="7"/>
   <atv:overwrite id="id_6" transform="matrix(2.6667,0,0,1,0,0)" width="28"/>
   <atv:overwrite id="button_label_2" transform="matrix(2.6667,0,0,1,0,0)" x="15"/>
   <atv:overwrite id="button_label_1" transform="matrix(2.6667,0,0,1,0,0)" x="15"/>
   <atv:overwrite id="button_label" transform="matrix(2.6667,0,0,1,0,0)" x="15"/>
   <atv:overwrite id="button_symbol_bottom" transform="matrix(1.6,0,0,0.6,0,0)" x="14.833"/>
   <atv:overwrite id="button_symbol_top" transform="matrix(1.6,0,0,0.6,0,0)" x="14.833"/>
   <atv:overwrite id="button_symbol" transform="matrix(2.6667,0,0,1,0,0)" x="5"/>
   <atv:overwrite id="button_stroke" transform="matrix(2.6667,0,0,1,0,0)" width="26"/>
   <atv:overwrite id="button_bg" transform="matrix(2.6667,0,0,1,0,0)" width="28"/>
   <atv:overwrite id="outer_frame" transform="matrix(2.6667,0,0,1,0,0)" width="30"/>
  </svg>
  <svg atv:refpx="40" atv:refpy="45" height="60" id="status_symbol" transform="matrix(0.6667,0,0,0.6667,0,0)" visibility="hidden" width="60" x="30" xlink:href="SYSTEM.LIBRARY.ATVISE.OBJECTDISPLAYS.Symbols.60x60.prohibition_sign_grey" y="28.5">
   <atv:argument name="symbolColor" prefix="symbolColor" value=""/>
  </svg>
 </g>
 <script atv:desc="" atv:href="SYSTEM.LIBRARY.ATVISE.DISPLAYSCRIPTS.dialogs.login_dialog" atv:name="login_dialog" atv:type="text/ecmascript"/>
 <script atv:desc="" atv:name="" type="text/ecmascript"/>
</svg>
