<?xml version='1.0' encoding='utf-8'?>
<!-- Uploaded to: SVG Repo, www.svgrepo.com, Generator: SVG Repo Mixer Tools -->
<svg height="64" id="Layer_1" version="1.1" width="64" xml:space="preserve" xmlns="http://www.w3.org/2000/svg" xmlns:atv="http://webmi.atvise.com/2007/svgext" xmlns:xlink="http://www.w3.org/1999/xlink">
 <defs/>
 <metadata>
  <atv:gridconfig enabled="false" gridstyle="lines" height="20" width="20"/>
  <atv:snapconfig enabled="false" height="10" width="10"/>
 </metadata>
 <style type="text/css">
	.st0{fill:#4F5D73;}
	.st1{opacity:0.2;fill:#231F20;}
	.st2{fill:#F5CF87;}
</style>
 <circle atv:refpx="32" atv:refpy="32" class="st0" cx="32" cy="32" fill="#4f5d73" id="id_0" r="32"/>
 <path atv:refpx="32.505" atv:refpy="36.05" class="st1" d="M46.9,17.5C46.7,17.2 46.4,17 46,17L29,17C28.6,17 28.3,17.2 28.1,17.6L20.1,33.6C19.9,33.9 20,34.3 20.1,34.6C20.3,34.9 20.6,35.1 21,35.1L26.5,35.1L18.1,53.7C17.9,54.1 18,54.6 18.4,54.9C18.6,55 18.8,55.1 19,55.1C19.2,55.1 19.5,55 19.6,54.9L43.6,34.9C43.9,34.6 44,34.2 43.9,33.8C43.8,33.3 43.4,33 43,33L36.9,33L46.8,18.6C47,18.3 47.1,17.9 46.9,17.5" fill="#465062" id="id_1"/>
 <path atv:refpx="32.505" atv:refpy="34.05" class="st2" d="M46.9,15.5C46.7,15.2 46.4,15 46,15L29,15C28.6,15 28.3,15.2 28.1,15.6L20.1,31.6C19.9,31.9 20,32.299 20.1,32.6C20.3,32.9 20.6,33.1 21,33.1L26.5,33.1L18.1,51.7C17.9,52.1 18,52.6 18.4,52.9C18.6,53 18.8,53.1 19,53.1C19.2,53.1 19.5,53 19.6,52.9L43.6,32.9C43.9,32.6 44,32.2 43.9,31.8C43.8,31.3 43.4,31 43,31L36.9,31L46.8,16.6C47,16.3 47.1,15.9 46.9,15.5" fill="#f5cf87" id="id_2"/>
</svg>
