<?xml version='1.0' encoding='UTF-8' standalone='no'?>
<svg enable-background="new 0 0 50 50" height="20" id="Ebene_1" version="1.1" width="20" x="0px" xml:space="preserve" y="0px" xmlns="http://www.w3.org/2000/svg" xmlns:atv="http://webmi.atvise.com/2007/svgext" xmlns:xlink="http://www.w3.org/1999/xlink">
 <defs/>
 <metadata>
  <atv:parameter behavior="optional" defaultvalue="#000000" desc="symbol color" name="symbolColor" substitute="$SYMBOLCOLOR$" valuetype="color"/>
  <atv:gridconfig enabled="false" gridstyle="lines" height="20" width="20"/>
  <atv:snapconfig enabled="false" height="10" width="10"/>
 </metadata>
 <path atv:refpx="10.005" atv:refpy="10.002" d="M7.78,15.706L5.454,14.084C5.454,14.084 6.686,13.085 9.204,9.445C11.724,5.805 12.226,4.297 12.226,4.297L14.552,5.919C14.552,5.919 13.32,6.918 10.801,10.558C8.282,14.198 7.78,15.706 7.78,15.706" fill="$SYMBOLCOLOR$" id="id_0" stroke="none" stroke-miterlimit="10" stroke-width="0.104"/>
 <path atv:refpx="14.83" atv:refpy="3.678" d="M17.79,3.544L16.216,4.878C16.216,4.878 14.987,5.03 14.266,4.181C13.483,3.259 13.894,2.142 13.894,2.142L15.466,0.806C15.466,0.806 15.428,0.747 15.407,0.737C14.856,0.493 13.426,0.907 12.929,1.327C11.034,2.937 12.16,4.69 12.791,5.432C13.344,6.085 14.969,7.571 16.864,5.961C17.36,5.541 18,4.196 17.849,3.613C17.843,3.591 17.79,3.544 17.79,3.544" fill="$SYMBOLCOLOR$" id="id_1" stroke="none" stroke-miterlimit="10" stroke-width="0.104"/>
 <path atv:refpx="5.17" atv:refpy="16.32" d="M2.208,16.454L3.781,15.12C3.781,15.12 5.012,14.968 5.733,15.817C6.515,16.738 6.104,17.856 6.104,17.856L4.532,19.191C4.532,19.191 4.57,19.25 4.591,19.261C5.142,19.505 6.573,19.091 7.069,18.671C8.964,17.061 7.839,15.308 7.207,14.565C6.654,13.913 5.029,12.427 3.134,14.037C2.638,14.457 1.998,15.802 2.15,16.386C2.155,16.408 2.208,16.454 2.208,16.454" fill="$SYMBOLCOLOR$" id="id_2" stroke="none" stroke-miterlimit="10" stroke-width="0.104"/>
 <script atv:desc="" atv:name="" type="text/ecmascript"/>
</svg>
