<?xml version='1.0' encoding='UTF-8' standalone='no'?>
<svg height="325" version="1.2" width="490" xmlns="http://www.w3.org/2000/svg" xmlns:atv="http://webmi.atvise.com/2007/svgext" xmlns:xlink="http://www.w3.org/1999/xlink">
 <defs>
  <linearGradient gradientUnits="objectBoundingBox" id="linear_0" x1="0" x2="1" y1="0" y2="1">
   <stop offset="0" stop-color="#000000" stop-opacity="0"/>
   <stop offset="1" stop-color="#000000" stop-opacity="0"/>
  </linearGradient>
 </defs>
 <metadata>
  <atv:gridconfig enabled="true" gridstyle="points" height="20" width="20"/>
  <atv:snapconfig enabled="true" height="1" width="1"/>
 </metadata>
 <g atv:insensitive="true" atv:refpx="0" atv:refpy="0" id="id_11" transform="matrix(0.3828,0,0,0.4233,0,0)">
  <rect atv:refpx="640" atv:refpy="384" fill="#ffffff" height="768.00" id="id_12" width="1280.00" x="0" y="0"/>
 </g>
 <script atv:desc="" atv:name="" type="text/ecmascript"/>
 <line atv:refpx="117.5" atv:refpy="58.5" id="id_1" stroke="#000000" stroke-linecap="round" stroke-linejoin="round" stroke-width="2.015" x1="99" x2="136" y1="58" y2="58"/>
 <line atv:refpx="153" atv:refpy="23.5" id="id_65" stroke="#000000" stroke-linecap="round" stroke-linejoin="round" stroke-width="2.015" x1="136" x2="170" y1="23" y2="23"/>
 <svg atv:refpx="49.991" atv:refpy="22.999" height="63.11" id="id_17" transform="matrix(0.7519,0,0,0.7289,0,0)" width="133" x="0" xlink:href="ObjectTypes.PROJECT.ElementoLinea.Principal" y="0">
  <atv:argument name="base" value="AGENT.OBJECTS.SCADA.Solidaridad.Circuitos.Circuito_PDC.Carcamo_Intermedio"/>
 </svg>
 <svg atv:refpx="50.001" atv:refpy="57.875" height="23" id="id_37" width="100" x="0.001" xlink:href="ObjectTypes.PROJECT.Caudalimetro.line_mini" y="44.375">
  <atv:argument name="base" value="AGENT.OBJECTS.SCADA.Solidaridad.Circuitos.Circuito_PDC.Carcamo_Intermedio.Equipos.Caudalimetros.L_30"/>
 </svg>
 <svg atv:refpx="10.99" atv:refpy="198.985" height="63.11" id="id_20" transform="matrix(0.7519,0,0,0.7289,0,0)" width="133" x="-0.002" xlink:href="ObjectTypes.PROJECT.ElementoLinea.Principal" y="241.46">
  <atv:argument name="base" value="AGENT.OBJECTS.SCADA.Solidaridad.Circuitos.Circuito_PDC.Carcamo_001"/>
 </svg>
 <svg atv:refpx="190.998" atv:refpy="278.985" height="63.11" id="id_21" transform="matrix(0.7519,0,0,0.7289,0,0)" width="133" x="239.394" xlink:href="ObjectTypes.PROJECT.ElementoLinea.Principal" y="351.214">
  <atv:argument name="base" value="AGENT.OBJECTS.SCADA.Solidaridad.Circuitos.Circuito_PDC.Carcamo_002"/>
 </svg>
 <svg atv:refpx="229.991" atv:refpy="198.987" height="63.11" id="id_31" transform="matrix(0.7519,0,0,0.7289,0,0)" width="133" x="239.394" xlink:href="ObjectTypes.PROJECT.ElementoLinea.Principal" y="241.46">
  <atv:argument name="base" value="AGENT.OBJECTS.SCADA.Solidaridad.Circuitos.Circuito_PDC.Carcamo_006"/>
 </svg>
 <svg atv:refpx="360.993" atv:refpy="76.994" height="63.11" id="id_35" transform="matrix(0.7519,0,0,0.7289,0,0)" width="133" x="472.137" xlink:href="ObjectTypes.PROJECT.ElementoLinea.Principal" y="107.011">
  <atv:argument name="base" value="AGENT.OBJECTS.SCADA.Solidaridad.Circuitos.Circuito_PDC.Carcamo_009"/>
 </svg>
 <svg atv:refpx="190.992" atv:refpy="99.99" height="63.11" id="id_41" transform="matrix(0.7519,0,0,0.7289,0,0)" width="133" x="239.394" xlink:href="ObjectTypes.PROJECT.ElementoLinea.Principal" y="105.638">
  <atv:argument name="base" value="AGENT.OBJECTS.SCADA.Solidaridad.Circuitos.Circuito_PDC.Carcamo_011"/>
 </svg>
 <svg atv:refpx="275.996" atv:refpy="22.996" height="63.11" id="id_46" transform="matrix(0.7519,0,0,0.7289,0,0)" width="133" x="239.394" xlink:href="ObjectTypes.PROJECT.ElementoLinea.Principal" y="0">
  <atv:argument name="base" value="AGENT.OBJECTS.SCADA.Solidaridad.Circuitos.Circuito_PDC.Carcamo_012"/>
 </svg>
 <svg atv:refpx="191.002" atv:refpy="330.875" height="23" id="id_48" width="100" x="180.002" xlink:href="ObjectTypes.PROJECT.Caudalimetro.line_mini" y="300.375">
  <atv:argument name="base" value="AGENT.OBJECTS.SCADA.Solidaridad.Circuitos.Circuito_PDC.Carcamo_002.Equipos.Caudalimetro.L1"/>
 </svg>
 <svg atv:refpx="191.002" atv:refpy="235.25" height="23" id="id_51" width="100" x="180.002" xlink:href="ObjectTypes.PROJECT.Caudalimetro.line_mini" y="221.75">
  <atv:argument name="base" value="AGENT.OBJECTS.SCADA.Solidaridad.Circuitos.Circuito_PDC.Carcamo_001.Equipos.Caudalimetro.L1"/>
 </svg>
 <svg atv:refpx="50.001" atv:refpy="233.25" height="23" id="id_53" width="100" x="0.001" xlink:href="ObjectTypes.PROJECT.Caudalimetro.line_mini" y="221.75">
  <atv:argument name="base" value="AGENT.OBJECTS.SCADA.Solidaridad.Circuitos.Circuito_PDC.Carcamo_006.Equipos.Caudalimetro.L1"/>
 </svg>
 <svg atv:refpx="361" atv:refpy="111.75" height="23" id="id_54" width="100" x="355" xlink:href="ObjectTypes.PROJECT.Caudalimetro.line_mini" y="123.25">
  <atv:argument name="base" value="AGENT.OBJECTS.SCADA.Solidaridad.Circuitos.Circuito_PDC.Carcamo_009.Equipos.Caudalimetro.L1"/>
 </svg>
 <svg atv:refpx="276.002" atv:refpy="57.25" height="23" id="id_55" width="100" x="180.002" xlink:href="ObjectTypes.PROJECT.Caudalimetro.line_mini" y="45.75">
  <atv:argument name="base" value="AGENT.OBJECTS.SCADA.Solidaridad.Circuitos.Circuito_PDC.Carcamo_012.Equipos.Caudalimetro.L1"/>
 </svg>
 <polygon atv:refpx="158.405" atv:refpy="290.001" fill="#000018" id="id_76" points="165,300 165,280 178.19,290 178.19,290" stroke="#000000" stroke-linecap="round" stroke-linejoin="round" stroke-opacity="0" stroke-width="2.015"/>
 <line atv:refpx="-862.748" atv:refpy="635.188" id="id_80" stroke="#000000" stroke-linecap="round" stroke-linejoin="round" stroke-width="2.015" x1="-861.248" x2="-864.248" y1="368.375" y2="902"/>
 <g atv:refpx="277.099" atv:refpy="99" id="id_92" transform="matrix(1,0,0,1,148.0072,31.9999)">
  <line atv:refpx="162" atv:refpy="79.5" id="id_93" stroke="#000000" stroke-linecap="round" stroke-linejoin="round" stroke-width="2.015" x1="192" x2="132" y1="79" y2="79"/>
  <polygon atv:refpx="185.405" atv:refpy="79" fill="#000018" id="id_94" points="192,89 192,69 205.19,79 205.19,79" stroke="#000000" stroke-linecap="round" stroke-linejoin="round" stroke-opacity="0" stroke-width="2.015"/>
 </g>
 <polygon atv:refpx="161.405" atv:refpy="23.001" fill="#000018" id="id_98" points="168,33 168,13 181.19,23 181.19,23" stroke="#000000" stroke-linecap="round" stroke-linejoin="round" stroke-opacity="0" stroke-width="2.015"/>
 <polygon atv:refpx="161.405" atv:refpy="112.001" fill="#000018" id="id_99" points="168,122 168,102 181.189,112 181.189,112" stroke="#000000" stroke-linecap="round" stroke-linejoin="round" stroke-opacity="0" stroke-width="2.015"/>
 <polygon atv:refpx="159.405" atv:refpy="199.001" fill="#000018" id="id_100" points="166,209 166,189 179.189,199 179.189,199" stroke="#000000" stroke-linecap="round" stroke-linejoin="round" stroke-opacity="0" stroke-width="2.015"/>
 <line atv:refpx="135.5" atv:refpy="156.5" id="id_101" stroke="#000000" stroke-linecap="round" stroke-linejoin="round" stroke-width="2.015" x1="136" x2="136" y1="24" y2="289"/>
 <line atv:refpx="155.5" atv:refpy="111.5" id="id_102" stroke="#000000" stroke-linecap="round" stroke-linejoin="round" stroke-width="2.015" x1="136" x2="175" y1="111" y2="111"/>
 <line atv:refpx="155.5" atv:refpy="199.5" id="id_103" stroke="#000000" stroke-linecap="round" stroke-linejoin="round" stroke-width="2.015" x1="136" x2="175" y1="199" y2="199"/>
 <line atv:refpx="155.5" atv:refpy="288.507" id="id_104" stroke="#000000" stroke-linecap="round" stroke-linejoin="round" stroke-width="2.015" x1="136" x2="175" y1="288.007" y2="288.007"/>
 <line atv:refpx="48" atv:refpy="130" id="id_106" stroke="#000000" stroke-linecap="round" stroke-linejoin="round" stroke-width="2.015" x1="49" x2="49" y1="166" y2="94"/>
 <polygon atv:refpx="49" atv:refpy="163.594" fill="#000018" id="id_107" points="39,162 58.998,162 48.998,175.187 48.998,175.187" stroke="#000000" stroke-linecap="round" stroke-linejoin="round" stroke-opacity="0" stroke-width="2.015"/>
 <svg atv:refpx="50" atv:refpy="80.5" height="23" id="id_0" width="100" x="0" xlink:href="ObjectTypes.PROJECT.Caudalimetro.line_mini" y="67">
  <atv:argument name="base" value="AGENT.OBJECTS.SCADA.Solidaridad.Circuitos.Circuito_PDC.Carcamo_Intermedio.Equipos.Caudalimetros.L_20"/>
 </svg>
</svg>
