<?xml version='1.0' encoding='UTF-8' standalone='no'?>
<svg height="60" version="1.2" width="60" xmlns="http://www.w3.org/2000/svg" xmlns:atv="http://webmi.atvise.com/2007/svgext" xmlns:xlink="http://www.w3.org/1999/xlink">
 <defs/>
 <metadata>
  <atv:parameter behavior="optional" defaultvalue="#000000" desc="symbol color" name="symbolColor" substitute="$SYMBOLCOLOR$" valuetype="color"/>
  <atv:gridconfig enabled="true" gridstyle="lines" height="2" width="2"/>
  <atv:snapconfig enabled="false" height="1" width="1"/>
 </metadata>
 <circle atv:refpx="15.518" atv:refpy="33.72" cx="30" cy="33.72" fill="none" id="id_0" r="21.789" stroke="$SYMBOLCOLOR$" stroke-width="1.461"/>
 <circle atv:refpx="30" atv:refpy="38.303" cx="30" cy="33.72" fill="$SYMBOLCOLOR$" id="id_1" r="5.447" stroke="none" stroke-width="1.461"/>
 <path atv:refpx="30" atv:refpy="-12.083" d="M27.276,11.932L27.276,9.207C27.276,9.207 27.276,6.484 24.552,6.484C21.829,6.481 21.829,6.484 21.829,6.484C21.829,6.484 21.829,3.76 21.829,3.76C21.829,3.76 38.17,3.76 38.17,3.76C38.17,3.76 38.17,6.484 38.17,6.484C38.17,6.484 35.446,6.484 35.446,6.484C35.446,6.484 32.723,6.484 32.723,9.207C32.723,11.932 32.723,11.932 32.723,11.932C32.723,11.932 27.276,11.932 27.276,11.932" fill="$SYMBOLCOLOR$" id="id_2" stroke="none" stroke-width="1.461"/>
 <ellipse atv:refpx="63.909" atv:refpy="14.29" cx="46.097" cy="-10.115" fill="$SYMBOLCOLOR$" id="id_4" rx="5.447" ry="2.723" stroke="none" stroke-width="1.461" transform="matrix(0.866,0.5,-0.5,0.866,0,0)"/>
 <ellipse atv:refpx="3.992" atv:refpy="14.291" cx="5.862" cy="-19.886" fill="$SYMBOLCOLOR$" id="id_6" rx="5.447" ry="2.723" stroke="none" stroke-width="1.461" transform="matrix(0.866,-0.5,-0.5,-0.866,0,0)"/>
 <rect atv:refpx="30" atv:refpy="17.55" fill="$SYMBOLCOLOR$" height="16.341" id="id_10" stroke="none" stroke-width="0.731" width="1.73" x="29.137" y="16.534"/>
 <script atv:desc="" atv:name="" type="text/ecmascript"/>
</svg>
