<?xml version="1.0" encoding="iso-8859-1"?>
<!-- Uploaded to: SVG Repo, www.svgrepo.com, Generator: SVG Repo Mixer Tools -->
<svg height="800px" width="800px" version="1.1" id="Layer_1" xmlns="http://www.w3.org/2000/svg" xmlns:xlink="http://www.w3.org/1999/xlink" 
	 viewBox="0 0 512 512" xml:space="preserve">
<path style="fill:#2D2D2D;" d="M226.12,424.7c-81.853-0.001-148.207-66.961-148.207-149.562
	c0-82.603,66.354-149.563,148.208-149.563h0.022h6.873h141.306v63.192h-0.007v86.875C374.047,358.01,307.807,424.698,226.12,424.7z"
	/>
<path style="fill:#3A3A3A;" d="M359.642,275.138c0,5.545-4.484,10.04-10.017,10.04h-108.65l54.369,95.034
	c2.753,4.811,1.092,10.946-3.708,13.705c-1.57,0.903-3.283,1.332-4.973,1.332c-3.473,0-6.849-1.812-8.7-5.048l-54.281-94.879
	l-54.28,94.879c-1.851,3.236-5.227,5.048-8.7,5.048c-1.691,0-3.403-0.429-4.974-1.332c-4.799-2.758-6.459-8.893-3.708-13.704
	l54.369-95.034H97.741c-5.533,0-10.017-4.494-10.017-10.04s4.484-10.041,10.017-10.041h108.651l-54.37-95.035
	c-2.751-4.811-1.092-10.946,3.708-13.705c4.799-2.757,10.921-1.094,13.673,3.715l54.281,94.878l64.022-111.906
	c2.753-4.811,8.875-6.472,13.673-3.716c4.799,2.758,6.46,8.893,3.708,13.704l-64.111,112.065h108.652
	C355.158,265.097,359.642,269.592,359.642,275.138z"/>
<path style="fill:#6B6B6B;" d="M223.683,233.297c22.896,0,41.459,18.733,41.459,41.84s-18.562,41.84-41.459,41.84
	c-22.9,0-41.462-18.733-41.462-41.84S200.784,233.297,223.683,233.297L223.683,233.297z"/>
<path style="fill:#565656;" d="M233.719,275.138c0,5.545-4.484,10.041-10.017,10.041s-10.04-4.496-10.04-10.041
	c0-5.545,4.463-10.041,9.995-10.041h0.043C229.235,265.097,233.719,269.592,233.719,275.138z"/>
<path style="fill:#6B6B6B;" d="M448.128,275.657v-0.087c0-0.145,0.006-0.288,0.006-0.434L448.128,275.657z M448.128,216.397v59.174
	C447.895,400.04,347.846,500.87,224.45,500.87h-0.767C100.144,500.87,0,399.806,0,275.138C0,150.466,100.144,49.404,223.683,49.404
	h0.019h5.841H512v98.636h-63.872v53.7V216.397z M349.625,148.039H229.543h-5.841h-0.019c-69.56,0-125.948,56.902-125.948,127.098
	c0,70.194,56.387,127.097,125.946,127.097c69.417,0,125.708-56.673,125.938-126.669v-73.827h0.006V148.039z"/>
<path style="fill:#595959;" d="M33.391,275.138c0,106.015,85.365,192.265,190.293,192.265h0.766
	c104.726,0,190.088-86.083,190.286-191.894V148.039h33.391v53.7v14.658v59.174C447.895,400.04,347.846,500.87,224.45,500.87h-0.767
	C100.144,500.87,0,399.806,0,275.138C0,150.466,100.144,49.404,223.683,49.404h0.019h5.841H512v33.467H223.702
	C118.756,82.871,33.391,169.121,33.391,275.138z M448.132,275.138c0,0.145-0.006,0.289-0.006,0.434v0.087L448.132,275.138z"/>
<path style="fill:#424242;" d="M448.128,216.397h-98.502v-68.358h98.502V216.397z"/>
<path style="fill:#2D2D2D;" d="M512,21.171V176.27c0,5.545-4.484,10.041-10.017,10.041c-5.533,0-10.017-4.494-10.017-10.041V21.171
	c0-5.545,4.484-10.041,10.017-10.041C507.516,11.13,512,15.626,512,21.171z"/>
</svg>