<?xml version='1.0' encoding='iso-8859-1'?>
<!-- Uploaded to: SVG Repo, www.svgrepo.com, Generator: SVG Repo Mixer Tools -->
<svg fill="#000000" height="30" id="Layer_1" version="1.1" width="50" xml:space="preserve" xmlns="http://www.w3.org/2000/svg" xmlns:atv="http://webmi.atvise.com/2007/svgext" xmlns:xlink="http://www.w3.org/1999/xlink">
 <defs/>
 <metadata>
  <atv:gridconfig enabled="false" gridstyle="lines" height="20" width="20"/>
  <atv:snapconfig enabled="false" height="10" width="10"/>
 </metadata>
 <path atv:refpx="25" atv:refpy="25.081" d="M47.464,0L44.605,0C43.207,0 42.07,1.14 42.07,2.543L42.07,3.512L7.98,3.512L7.98,2.543C7.98,1.14 6.842,0 5.444,0L2.535,0C1.137,0 0,1.14 0,2.543L0,27.456C0,28.859 1.137,30 2.535,30L5.444,30C6.842,30 7.98,28.859 7.98,27.456L7.98,26.487L42.07,26.487L42.07,27.456C42.07,28.859 43.207,30 44.605,30L47.464,30C48.862,30 49.999,28.859 49.999,27.456L49.999,2.543C50,1.14 48.862,0 47.464,0M5.988,27.456C5.988,27.757 5.744,28.001 5.444,28.001L2.535,28.001C2.235,28.001 1.991,27.757 1.991,27.456L1.991,2.543C1.991,2.242 2.235,1.998 2.535,1.998L5.444,1.998C5.744,1.998 5.988,2.242 5.988,2.543ZM42.07,24.488L7.98,24.488L7.98,5.511L42.07,5.511ZM48.008,27.456C48.008,27.757 47.764,28.001 47.464,28.001L44.605,28.001C44.306,28.001 44.062,27.757 44.062,27.456L44.062,2.543C44.062,2.242 44.306,1.998 44.605,1.998L47.464,1.998C47.764,1.998 48.008,2.242 48.008,2.543Z" id="id_0" stroke-width="1"/>
 <g atv:refpx="0" atv:refpy="0" id="id_6" transform="matrix(0.0977,0,0,0.098,0,-10.0807)">
  <g atv:refpx="274.708" atv:refpy="329.792" id="id_5">
   <path atv:refpx="274.708" atv:refpy="329.792" d="M277.306,319.593L272.109,319.593C266.477,319.593 261.91,324.16 261.91,329.792C261.91,335.424 266.477,339.991 272.109,339.991L277.306,339.991C282.938,339.991 287.505,335.424 287.505,329.792C287.505,324.16 282.938,319.593 277.306,319.593" id="id_1"/>
  </g>
 </g>
 <g atv:refpx="16.677" atv:refpy="22.23" id="id_8" transform="matrix(0.0977,0,0,0.098,0,-10.0807)">
  <g atv:refpx="170.776" atv:refpy="329.792" id="id_7">
   <path atv:refpx="170.776" atv:refpy="329.792" d="M232.615,319.593L108.935,319.593C103.303,319.593 98.736,324.16 98.736,329.792C98.736,335.424 103.303,339.991 108.935,339.991L232.616,339.991C238.248,339.991 242.815,335.424 242.815,329.792C242.815,324.16 238.248,319.593 232.615,319.593" id="id_2"/>
  </g>
 </g>
</svg>
