<?xml version='1.0' encoding='iso-8859-1'?>
<!-- Uploaded to: SVG Repo, www.svgrepo.com, Generator: SVG Repo Mixer Tools -->
<svg height="407.50999999999999" id="Layer_1" version="1.1" width="512" xml:space="preserve" xmlns="http://www.w3.org/2000/svg" xmlns:atv="http://webmi.atvise.com/2007/svgext" xmlns:xlink="http://www.w3.org/1999/xlink">
 <defs/>
 <metadata>
  <atv:gridconfig enabled="false" gridstyle="lines" height="20" width="20"/>
  <atv:snapconfig enabled="false" height="10" width="10"/>
 </metadata>
 <path atv:refpx="176.763" atv:refpy="122.773" d="M291.701,10.447L119.38,10.447C64.508,10.447 20.027,54.928 20.027,109.799L20.027,135.747C20.027,190.618 64.508,235.099 119.38,235.099L291.701,235.099L333.497,216.813L333.497,28.732Z" fill="#2969B0" id="id_0"/>
 <g atv:refpx="375.294" atv:refpy="122.774" id="id_14" transform="matrix(1,0,0,1,0,-52.246)">
  <rect atv:refpx="354.398" atv:refpy="175.02" fill="#EBEBEB" height="146.286" id="id_1" width="41.796" x="333.5" y="101.877"/>
  <polygon atv:refpy="175.019" fill="#EBEBEB" atv:refpx="396.191" points="417.089,227.264 375.293,248.162 375.293,101.877 417.089,122.774 &#x9;" id="id_2"/>
 </g>
 <rect atv:refpx="448.439" atv:refpy="122.774" fill="#FFAC3D" height="52.245" id="id_3" width="62.694" x="417.092" y="96.651"/>
 <rect atv:refpx="206.713" atv:refpy="261.223" fill="#A8A8A8" height="52.245" id="id_4" width="161.959" x="125.733" y="235.1"/>
 <path atv:refpx="206.716" atv:refpy="313.468" d="M314.601,287.345L98.83,287.345C92.05,287.345 86.551,292.842 86.551,299.623L86.551,327.313C86.551,334.093 92.048,339.591 98.83,339.591L314.601,339.591C321.381,339.591 326.879,334.094 326.879,327.313L326.879,299.623C326.879,292.842 321.382,287.345 314.601,287.345" fill="#EBEBEB" id="id_5"/>
 <rect atv:refpx="256" atv:refpy="368.325" fill="#BFDEFF" height="57.469" id="id_6" width="491.102" x="10.449" y="339.59"/>
 <g atv:refpx="256" atv:refpy="203.754" id="id_15" transform="matrix(1,0,0,1,0,-52.246)">
  <path atv:refpx="188.909" atv:refpy="195.917" d="M132.528,206.366L245.29,206.366C251.06,206.366 255.739,201.687 255.739,195.917C255.739,190.147 251.061,185.468 245.29,185.468L132.528,185.468C126.756,185.468 122.079,190.147 122.079,195.917C122.079,201.687 126.758,206.366 132.528,206.366" fill="#231F20" id="id_7"/>
  <path atv:refpx="278.704" atv:refpy="195.917" d="M278.813,185.468L278.594,185.468C272.823,185.468 268.145,190.147 268.145,195.917C268.145,201.687 272.823,206.366 278.594,206.366L278.813,206.366C284.584,206.366 289.262,201.687 289.262,195.917C289.262,190.147 284.584,185.468 278.813,185.468" fill="#231F20" id="id_8"/>
  <path atv:refpx="205.671" atv:refpy="237.713" d="M278.813,227.264L132.528,227.264C126.756,227.264 122.079,231.943 122.079,237.713C122.079,243.483 126.756,248.162 132.528,248.162L278.813,248.162C284.585,248.162 289.263,243.483 289.263,237.713C289.263,231.943 284.584,227.264 278.813,227.264" fill="#231F20" id="id_9"/>
  <path atv:refpx="205.671" atv:refpy="154.121" d="M278.813,143.672L132.528,143.672C126.756,143.672 122.079,148.351 122.079,154.121C122.079,159.891 126.756,164.57 132.528,164.57L278.813,164.57C284.585,164.57 289.263,159.891 289.263,154.121C289.263,148.351 284.584,143.672 278.813,143.672" fill="#231F20" id="id_10"/>
  <path atv:refpx="132.354" atv:refpy="112.325" d="M132.18,122.774L132.528,122.774C138.299,122.774 142.977,118.095 142.977,112.325C142.977,106.555 138.299,101.876 132.528,101.876L132.18,101.876C126.409,101.876 121.731,106.555 121.731,112.325C121.731,118.095 126.409,122.774 132.18,122.774" fill="#231F20" id="id_11"/>
  <path atv:refpx="221.692" atv:refpy="112.325" d="M164.571,122.774L278.813,122.774C284.584,122.774 289.262,118.095 289.262,112.325C289.262,106.555 284.584,101.876 278.813,101.876L164.571,101.876C158.8,101.876 154.122,106.555 154.122,112.325C154.122,118.095 158.8,122.774 164.571,122.774" fill="#231F20" id="id_12"/>
  <path atv:refpx="256" atv:refpy="256" d="M501.551,381.387L337.328,381.387L337.328,351.869C337.328,339.338 327.133,329.142 314.601,329.142L298.144,329.142L298.144,295.932L337.684,278.633C341.487,276.97 343.945,273.212 343.945,269.061L343.945,258.612L375.292,258.612C376.975,258.612 378.559,258.204 379.967,257.498L379.965,257.509L421.761,236.611C425.301,234.841 427.537,231.224 427.537,227.265L427.537,211.592L479.782,211.592C485.553,211.592 490.231,206.913 490.231,201.143L490.231,148.898C490.231,143.128 485.553,138.449 479.782,138.449L427.537,138.449L427.537,122.776C427.537,118.818 425.301,115.2 421.761,113.43L379.965,92.532L379.967,92.543C378.558,91.836 376.974,91.429 375.292,91.429L343.945,91.429L343.945,80.981C343.945,76.83 341.487,73.071 337.684,71.408L295.888,53.122C294.567,52.543 293.141,52.245 291.7,52.245L119.38,52.245C58.835,52.244 9.579,101.501 9.579,162.046L9.579,187.994C9.579,247.168 56.633,295.551 115.288,297.71L115.288,329.142L98.831,329.142C86.3,329.142 76.104,339.337 76.104,351.869L76.104,381.386L10.449,381.386C4.678,381.387 0,386.066 0,391.836L0,449.305C0,455.075 4.678,459.754 10.449,459.754L501.551,459.754C507.322,459.754 512,455.075 512,449.305L512,391.836C512,386.066 507.322,381.387 501.551,381.387M427.538,159.346L469.334,159.346L469.334,190.693L427.538,190.693ZM385.742,118.784L406.64,129.233L406.64,220.807L385.742,231.256ZM343.946,112.325L364.844,112.325L364.844,237.713L343.946,237.713ZM337.277,381.387L337.247,381.387C337.259,381.252 337.269,381.278 337.277,381.387M30.477,187.994L30.477,162.046C30.477,113.024 70.359,73.142 119.38,73.142L289.516,73.142L323.049,87.812L323.049,262.226L289.516,276.896L119.38,276.896C70.358,276.897 30.477,237.015 30.477,187.994M277.246,297.795L277.246,329.142L136.185,329.142L136.185,297.795ZM97.001,350.04L316.43,350.04L316.43,381.387L97.001,381.387C97.001,381.387 97.001,350.04 97.001,350.04M76.184,381.387L76.154,381.387C76.163,381.278 76.173,381.252 76.184,381.387M491.102,438.856L20.898,438.856L20.898,402.284L491.102,402.284Z" fill="#231F20" id="id_13"/>
 </g>
</svg>
