<?xml version='1.0' encoding='UTF-8' standalone='no'?>
<svg height="140" version="1.2" width="287" xmlns="http://www.w3.org/2000/svg" xmlns:atv="http://webmi.atvise.com/2007/svgext" xmlns:xlink="http://www.w3.org/1999/xlink">
 <defs/>
 <desc>Simple display that can be used as dialog for picking a date.</desc>
 <title>Date Picker Dialog</title>
 <metadata>
  <atv:parameter behavior="hidden" defaultvalue="dpt" desc="popup id" name="popupId" valuetype="string"/>
  <atv:parameter behavior="hidden" desc="initial timestamp" name="timestamp" valuetype="number"/>
  <atv:gridconfig enabled="true" gridstyle="lines" height="10" width="10"/>
  <atv:snapconfig enabled="true" height="5" width="5"/>
 </metadata>
 <svg atv:refpx="143.5" atv:refpy="51" height="102" id="id_0" width="287" x="0" xlink:href="SYSTEM.LIBRARY.ATVISE.OBJECTDISPLAYS.Standard.in_out_datetime" y="0">
  <atv:argument name="tabIndex" value="1"/>
 </svg>
 <svg atv:dynamic="true" atv:refpx="143.5" atv:refpy="125" height="30" id="id_1" width="80" x="103.5" xlink:href="SYSTEM.LIBRARY.ATVISE.OBJECTDISPLAYS.Standard.button" y="110">
  <atv:argument name="symbol" value="SYSTEM.LIBRARY.ATVISE.OBJECTDISPLAYS.Symbols.20x20.check"/>
  <atv:argument name="visibilityLabel" value="hidden"/>
  <atv:argument name="visibilitySymbol" value="inherit"/>
  <atv:argument name="tabIndex" value="2"/>
 </svg>
 <svg atv:dynamic="true" atv:refpx="154.5" atv:refpy="5" height="30" id="id_2" transform="matrix(0.5,0,0,1,0,0)" width="80" x="494" xlink:href="SYSTEM.LIBRARY.ATVISE.OBJECTDISPLAYS.Standard.button" y="110">
  <atv:argument name="symbol" value="SYSTEM.LIBRARY.ATVISE.OBJECTDISPLAYS.Symbols.20x20.x"/>
  <atv:argument name="visibilityLabel" value="hidden"/>
  <atv:argument name="visibilitySymbol" value="inherit"/>
  <atv:argument name="tabIndex" value="4"/>
  <atv:overwrite id="button_stroke" transform="matrix(2,0,0,1,0,0)" width="32"/>
  <atv:overwrite id="button_label" transform="matrix(2,0,0,1,0,0)" x="20"/>
  <atv:overwrite id="button_symbol" transform="matrix(2,0,0,1,0,0)" x="10"/>
  <atv:overwrite id="button_bg" transform="matrix(2,0,0,1,0,0)" width="32"/>
  <atv:overwrite id="id_2" transform="matrix(2,0,0,1,0,0)" width="34.5"/>
  <atv:overwrite id="id_0" transform="matrix(2,0,0,1,0,0)" width="39.5"/>
 </svg>
 <svg atv:dynamic="true" atv:refpx="20" atv:refpy="125" height="30" id="id_3" transform="matrix(0.5,0,0,1,0,0)" width="80" x="0" xlink:href="SYSTEM.LIBRARY.ATVISE.OBJECTDISPLAYS.Standard.button" y="110">
  <atv:argument name="symbol" value="SYSTEM.LIBRARY.ATVISE.OBJECTDISPLAYS.Symbols.20x20.dots"/>
  <atv:argument name="label" value="T{now}"/>
  <atv:argument name="tabIndex" value="3"/>
  <atv:overwrite id="button_stroke" transform="matrix(2,0,0,1,0,0)" width="32"/>
  <atv:overwrite id="button_label" transform="matrix(2,0,0,1,0,0)" x="20"/>
  <atv:overwrite id="button_symbol" transform="matrix(2,0,0,1,0,0)" x="10"/>
  <atv:overwrite id="button_bg" transform="matrix(2,0,0,1,0,0)" width="32"/>
  <atv:overwrite id="id_2" transform="matrix(2,0,0,1,0,0)" width="34.5"/>
  <atv:overwrite id="id_0" transform="matrix(2,0,0,1,0,0)" width="39.5"/>
 </svg>
 <script atv:desc="" atv:href="SYSTEM.LIBRARY.ATVISE.DISPLAYSCRIPTS.dialogs.datepicker_dialog" atv:name="datepicker_dialog" atv:type="text/ecmascript"/>
 <script atv:desc="" atv:name="" type="text/ecmascript"/>
</svg>
