<?xml version='1.0' encoding='UTF-8' standalone='no'?>
<svg height="20" version="1.2" width="20" xmlns="http://www.w3.org/2000/svg" xmlns:atv="http://webmi.atvise.com/2007/svgext" xmlns:xlink="http://www.w3.org/1999/xlink">
 <defs/>
 <metadata>
  <atv:parameter behavior="optional" defaultvalue="#000000" desc="symbol color" name="symbolColor" substitute="$SYMBOLCOLOR$" valuetype="color"/>
  <atv:parameter behavior="optional" defaultvalue="#ffffff" desc="symbol color 2" name="symbolColor2" substitute="$SYMBOLCOLOR2$" valuetype="color"/>
  <atv:gridconfig enabled="false" gridstyle="lines" height="20" width="20"/>
  <atv:snapconfig enabled="false" height="10" width="10"/>
 </metadata>
 <g atv:refpx="10" atv:refpy="10" id="id_2" transform="matrix(1.0209,0,0,1.0209,-0.6713,-0.6713)">
  <g atv:refpx="10.452" atv:refpy="12.089" id="id_1" transform="matrix(0.0688,0,0,0.0688,1.637,1.637)">
   <circle atv:refpx="128.062" atv:refpy="128.062" cx="128.062" cy="128.062" fill="$SYMBOLCOLOR$" id="id_32" r="128.062" stroke="none" stroke-width="4"/>
   <path atv:dynamic="true" atv:refpx="85.969" atv:refpy="314.998" d="M97.356,244.585C75.99,238.861 59.108,229.113 43.466,213.472L128.469,128.469Z" fill="$SYMBOLCOLOR$" fill-opacity="1" id="id_0" stroke="$SYMBOLCOLOR$" stroke-width="1" style="fill-rule:evenodd"/>
   <path atv:dynamic="true" atv:refpx="128.47" atv:refpy="317.144" d="M159.582,244.585C138.218,250.311 118.721,250.311 97.356,244.585L128.469,128.469Z" fill="$SYMBOLCOLOR$" fill-opacity="1" id="id_3" stroke="$SYMBOLCOLOR$" stroke-width="1" style="fill-rule:evenodd"/>
   <path atv:dynamic="true" atv:refpx="299.442" atv:refpy="186.529" d="M213.473,213.472C197.831,229.113 180.947,238.861 159.582,244.585L128.469,128.469Z" fill="$SYMBOLCOLOR$" fill-opacity="1" id="id_16" stroke="$SYMBOLCOLOR$" stroke-width="1" style="fill-rule:evenodd"/>
   <path atv:dynamic="true" atv:refpx="314.999" atv:refpy="170.972" d="M244.586,159.583C238.861,180.948 229.113,197.832 213.473,213.472L128.469,128.469Z" fill="$SYMBOLCOLOR$" fill-opacity="1" id="id_20" stroke="$SYMBOLCOLOR$" stroke-width="1" style="fill-rule:evenodd"/>
   <path atv:dynamic="true" atv:refpx="317.145" atv:refpy="128.47" d="M244.586,97.357C250.31,118.722 250.31,138.218 244.586,159.583L128.469,128.469Z" fill="$SYMBOLCOLOR$" fill-opacity="1" id="id_21" stroke="$SYMBOLCOLOR$" stroke-width="1" style="fill-rule:evenodd"/>
   <path atv:dynamic="true" atv:refpx="314.999" atv:refpy="85.969" d="M213.473,43.467C229.113,59.107 238.861,75.991 244.586,97.357L128.469,128.469Z" fill="$SYMBOLCOLOR$" fill-opacity="1" id="id_22" stroke="$SYMBOLCOLOR$" stroke-width="1" style="fill-rule:evenodd"/>
   <path atv:dynamic="true" atv:refpx="299.442" atv:refpy="70.412" d="M159.582,12.354C180.947,18.078 197.831,27.827 213.473,43.467L128.469,128.469Z" fill="$SYMBOLCOLOR$" fill-opacity="1" id="id_23" stroke="$SYMBOLCOLOR$" stroke-width="1" style="fill-rule:evenodd"/>
   <path atv:dynamic="true" atv:refpx="225.826" atv:refpy="68.266" d="M97.356,12.352C118.721,6.629 138.218,6.629 159.582,12.352L128.469,128.469Z" fill="$SYMBOLCOLOR$" fill-opacity="1" id="id_24" stroke="$SYMBOLCOLOR$" stroke-width="1" style="fill-rule:evenodd"/>
   <path atv:dynamic="true" atv:refpx="70.412" atv:refpy="299.441" d="M43.466,213.472C27.827,197.832 18.078,180.948 12.353,159.583L128.469,128.469Z" fill="$SYMBOLCOLOR$" fill-opacity="1" id="id_25" stroke="$SYMBOLCOLOR$" stroke-width="1" style="fill-rule:evenodd"/>
   <path atv:dynamic="true" atv:refpx="68.266" atv:refpy="225.827" d="M12.353,159.583C6.627,138.218 6.627,118.722 12.353,97.357L128.469,128.469Z" fill="$SYMBOLCOLOR$" fill-opacity="1" id="id_26" stroke="$SYMBOLCOLOR$" stroke-width="1" style="fill-rule:evenodd"/>
   <path atv:dynamic="true" atv:refpx="129.436" atv:refpy="70.412" d="M43.466,43.467C59.108,27.827 75.99,18.078 97.356,12.354L128.469,128.469Z" fill="$SYMBOLCOLOR$" fill-opacity="1" id="id_27" stroke="$SYMBOLCOLOR$" stroke-width="1" style="fill-rule:evenodd"/>
   <path atv:dynamic="true" atv:refpx="70.412" atv:refpy="129.436" d="M12.353,97.357C18.078,75.991 27.827,59.107 43.466,43.467L128.469,128.469Z" fill="$SYMBOLCOLOR$" fill-opacity="1" id="id_28" stroke="$SYMBOLCOLOR$" stroke-width="1" style="fill-rule:evenodd"/>
   <path atv:refpx="-61.53" atv:refpy="32.988" d="M202.421,128.467C202.421,169.292 169.291,202.422 128.469,202.422C87.647,202.422 54.518,169.292 54.518,128.467C54.518,87.646 87.647,54.518 128.469,54.518C169.291,54.518 202.421,87.646 202.421,128.467" fill="#000000" id="id_29" stroke="#000000" stroke-width="2" style="fill-rule:evenodd"/>
   <path atv:refpx="128.47" atv:refpy="182.988" d="M202.421,128.469C202.421,169.292 169.291,202.422 128.469,202.422C87.647,202.422 54.518,169.292 54.518,128.469C54.518,87.648 87.647,54.518 128.469,54.518C169.291,54.518 202.421,87.648 202.421,128.469" fill="$SYMBOLCOLOR2$" id="preview" stroke="$SYMBOLCOLOR$" stroke-width="2" style="fill-rule:evenodd"/>
  </g>
 </g>
 <script atv:desc="" atv:name="" type="text/ecmascript"/>
</svg>
