<?xml version='1.0' encoding='UTF-8' standalone='no'?>
<svg height="90.480000000000004" version="1.2" width="550" xmlns="http://www.w3.org/2000/svg" xmlns:atv="http://webmi.atvise.com/2007/svgext" xmlns:xlink="http://www.w3.org/1999/xlink">
 <defs/>
 <metadata>
  <atv:gridconfig enabled="false" gridstyle="lines" height="20" width="20"/>
  <atv:snapconfig enabled="false" height="10" width="10"/>
 </metadata>
 <script atv:desc="" atv:name="" type="text/ecmascript"/>
 <svg atv:refpx="80.098" atv:refpy="30.258" height="30" id="id_2" width="160" x="5.098" xlink:href="SYSTEM.LIBRARY.ATVISE.OBJECTDISPLAYS.Advanced.in_out_value" y="19.258">
  <atv:argument name="base" value="AGENT.OBJECTS.SCADA.Solidaridad.Circuitos.Circuito_PDC.Carcamo_008.Equipos.Send.M3Enviar"/>
  <atv:argument name="unit" value="T{m3}"/>
  <atv:argument name="postDecimal" value="2"/>
  <atv:argument name="selectTextOnFocus" value="true"/>
  <atv:overwrite id="input_label" transform="matrix(1.2055,0,0,1,-13.9839,0)" x="136.555"/>
 </svg>
 <svg atv:refpx="65.957" atv:refpy="-107.639" height="30" id="id_11" width="160" x="-14.043" xlink:href="SYSTEM.LIBRARY.ATVISE.OBJECTDISPLAYS.Advanced.in_out_value" y="-122.638">
  <atv:argument name="base" prefix="base" value=".PB"/>
  <atv:argument name="unit" value="T{kg/cm2}"/>
  <atv:argument name="postDecimal" value="2"/>
  <atv:argument name="selectTextOnFocus" value="true"/>
  <atv:overwrite id="input_label" transform="matrix(1.2055,0,0,1,-13.9839,0)" x="136.555"/>
 </svg>
 <svg atv:refpx="80.098" atv:refpy="7.758" height="30" id="id_12" transform="matrix(2,0,0,0.5,0,0)" width="80" x="2.55" xlink:href="SYSTEM.LIBRARY.ATVISE.OBJECTDISPLAYS.Advanced.label" y="8.515">
  <atv:argument name="text" value="Cantidad a enviar:"/>
 </svg>
 <svg atv:refpx="65.859" atv:refpy="-130.138" height="30" id="id_13" transform="matrix(2,0,0,0.5,0,0)" width="80" x="-7.071" xlink:href="SYSTEM.LIBRARY.ATVISE.OBJECTDISPLAYS.Advanced.label" y="-275.278">
  <atv:argument name="text" value="Presión baja"/>
 </svg>
 <svg atv:refpx="225.05" atv:refpy="-154.896" height="30" id="id_14" width="160" x="146.05" xlink:href="SYSTEM.LIBRARY.ATVISE.OBJECTDISPLAYS.Advanced.in_out_value" y="-167.896">
  <atv:argument name="base" prefix="base" value=".PD1"/>
  <atv:argument name="unit" value="T{kg/cm2}"/>
  <atv:argument name="postDecimal" value="2"/>
  <atv:argument name="selectTextOnFocus" value="true"/>
  <atv:overwrite id="input_label" transform="matrix(1.2055,0,0,1,-13.9839,0)" x="136.555"/>
 </svg>
 <svg atv:refpx="225.05" atv:refpy="-109.897" height="30" id="id_15" width="160" x="146.05" xlink:href="SYSTEM.LIBRARY.ATVISE.OBJECTDISPLAYS.Advanced.in_out_value" y="-122.897">
  <atv:argument name="base" prefix="base" value=".PD2"/>
  <atv:argument name="unit" value="T{kg/cm2}"/>
  <atv:argument name="postDecimal" value="2"/>
  <atv:argument name="selectTextOnFocus" value="true"/>
  <atv:overwrite id="input_label" transform="matrix(1.2055,0,0,1,-13.9839,0)" x="136.555"/>
 </svg>
 <svg atv:refpx="225.05" atv:refpy="-177.397" height="30" id="id_16" transform="matrix(2,0,0,0.5,0,0)" width="80" x="73.024" xlink:href="SYSTEM.LIBRARY.ATVISE.OBJECTDISPLAYS.Advanced.label" y="-365.793">
  <atv:argument name="text" value="Presión deseada 1"/>
 </svg>
 <svg atv:refpx="224.952" atv:refpy="-132.397" height="30" id="id_17" transform="matrix(2,0,0,0.5,0,0)" width="80" x="72.974" xlink:href="SYSTEM.LIBRARY.ATVISE.OBJECTDISPLAYS.Advanced.label" y="-275.793">
  <atv:argument name="text" value="Presión deseada 2"/>
 </svg>
 <svg atv:refpx="344.758" atv:refpy="-152.847" height="30" id="id_18" transform="matrix(0.5,0,0,1,0,0)" width="160" x="609.515" xlink:href="SYSTEM.LIBRARY.ATVISE.OBJECTDISPLAYS.Advanced.in_out_value" y="-167.847">
  <atv:argument name="base" prefix="base" value=".HH1"/>
  <atv:argument name="unit" value="T{:}"/>
  <atv:argument name="postDecimal" value="0"/>
  <atv:argument name="selectTextOnFocus" value="true"/>
  <atv:overwrite id="input_label" transform="matrix(2.411,0,0,1,4.909,0)" x="56.555"/>
  <atv:overwrite id="blinking_frame" transform="matrix(2,0,0,1,0,0)" width="72"/>
  <atv:overwrite id="focus_frame" transform="matrix(2,0,0,1,0,0)" width="76"/>
  <atv:overwrite id="input_bg" transform="matrix(2,0,0,1,0,0)" width="72"/>
  <atv:overwrite id="id_1" transform="matrix(2,0,0,1,0,0)" width="78"/>
  <atv:overwrite id="input_border" transform="matrix(2,0,0,1,0,0)" width="80"/>
 </svg>
 <svg atv:refpx="345.103" atv:refpy="-107.848" height="30" id="id_19" transform="matrix(0.5,0,0,1,0,0)" width="160" x="610.205" xlink:href="SYSTEM.LIBRARY.ATVISE.OBJECTDISPLAYS.Advanced.in_out_value" y="-122.848">
  <atv:argument name="base" prefix="base" value=".HH2"/>
  <atv:argument name="unit" value="T{:}"/>
  <atv:argument name="postDecimal" value="0"/>
  <atv:argument name="selectTextOnFocus" value="true"/>
  <atv:overwrite id="input_label" transform="matrix(2.411,0,0,1,4.909,0)" x="56.555"/>
  <atv:overwrite id="blinking_frame" transform="matrix(2,0,0,1,0,0)" width="72"/>
  <atv:overwrite id="focus_frame" transform="matrix(2,0,0,1,0,0)" width="76"/>
  <atv:overwrite id="input_bg" transform="matrix(2,0,0,1,0,0)" width="72"/>
  <atv:overwrite id="id_1" transform="matrix(2,0,0,1,0,0)" width="78"/>
  <atv:overwrite id="input_border" transform="matrix(2,0,0,1,0,0)" width="80"/>
 </svg>
 <svg atv:refpx="385.705" atv:refpy="-175.348" height="30" id="id_20" transform="matrix(2,0,0,0.5,0,0)" width="80" x="152.853" xlink:href="SYSTEM.LIBRARY.ATVISE.OBJECTDISPLAYS.Advanced.label" y="-365.698">
  <atv:argument name="text" value="Horario de inicio presión 1"/>
 </svg>
 <svg atv:refpx="385.607" atv:refpy="-130.348" height="30" id="id_21" transform="matrix(2,0,0,0.5,0,0)" width="80" x="152.803" xlink:href="SYSTEM.LIBRARY.ATVISE.OBJECTDISPLAYS.Advanced.label" y="-275.698">
  <atv:argument name="text" value="Horario de inicio presión 2"/>
 </svg>
 <svg atv:refpx="425.706" atv:refpy="-152.847" height="30" id="id_22" transform="matrix(0.5,0,0,1,0,0)" width="160" x="771.41" xlink:href="SYSTEM.LIBRARY.ATVISE.OBJECTDISPLAYS.Advanced.in_out_value" y="-167.847">
  <atv:argument name="base" prefix="base" value=".MH1"/>
  <atv:argument name="unit" value="T{h}"/>
  <atv:argument name="postDecimal" value="0"/>
  <atv:argument name="selectTextOnFocus" value="true"/>
  <atv:overwrite id="input_label" transform="matrix(2.411,0,0,1,4.909,0)" x="56.555"/>
  <atv:overwrite id="blinking_frame" transform="matrix(2,0,0,1,0,0)" width="72"/>
  <atv:overwrite id="focus_frame" transform="matrix(2,0,0,1,0,0)" width="76"/>
  <atv:overwrite id="input_bg" transform="matrix(2,0,0,1,0,0)" width="72"/>
  <atv:overwrite id="id_1" transform="matrix(2,0,0,1,0,0)" width="78"/>
  <atv:overwrite id="input_border" transform="matrix(2,0,0,1,0,0)" width="80"/>
 </svg>
 <svg atv:refpx="425.706" atv:refpy="-107.849" height="30" id="id_23" transform="matrix(0.5,0,0,1,0,0)" width="160" x="771.41" xlink:href="SYSTEM.LIBRARY.ATVISE.OBJECTDISPLAYS.Advanced.in_out_value" y="-122.849">
  <atv:argument name="base" prefix="base" value=".MH2"/>
  <atv:argument name="unit" value="T{h}"/>
  <atv:argument name="postDecimal" value="0"/>
  <atv:argument name="selectTextOnFocus" value="true"/>
  <atv:overwrite id="input_label" transform="matrix(2.411,0,0,1,4.909,0)" x="56.555"/>
  <atv:overwrite id="blinking_frame" transform="matrix(2,0,0,1,0,0)" width="72"/>
  <atv:overwrite id="focus_frame" transform="matrix(2,0,0,1,0,0)" width="76"/>
  <atv:overwrite id="input_bg" transform="matrix(2,0,0,1,0,0)" width="72"/>
  <atv:overwrite id="id_1" transform="matrix(2,0,0,1,0,0)" width="78"/>
  <atv:overwrite id="input_border" transform="matrix(2,0,0,1,0,0)" width="80"/>
 </svg>
 <svg atv:refpx="505.987" atv:refpy="-152.42" height="30" id="id_0" transform="matrix(0.5,0,0,1,0,0)" width="160" x="931.972" xlink:href="SYSTEM.LIBRARY.ATVISE.OBJECTDISPLAYS.Advanced.in_out_value" y="-167.42">
  <atv:argument name="base" prefix="base" value=".HF1"/>
  <atv:argument name="unit" value="T{:}"/>
  <atv:argument name="postDecimal" value="0"/>
  <atv:argument name="selectTextOnFocus" value="true"/>
  <atv:overwrite id="input_label" transform="matrix(2.411,0,0,1,4.909,0)" x="56.555"/>
  <atv:overwrite id="blinking_frame" transform="matrix(2,0,0,1,0,0)" width="72"/>
  <atv:overwrite id="focus_frame" transform="matrix(2,0,0,1,0,0)" width="76"/>
  <atv:overwrite id="input_bg" transform="matrix(2,0,0,1,0,0)" width="72"/>
  <atv:overwrite id="id_1" transform="matrix(2,0,0,1,0,0)" width="78"/>
  <atv:overwrite id="input_border" transform="matrix(2,0,0,1,0,0)" width="80"/>
 </svg>
 <svg atv:refpx="506.332" atv:refpy="-107.42" height="30" id="id_3" transform="matrix(0.5,0,0,1,0,0)" width="160" x="932.662" xlink:href="SYSTEM.LIBRARY.ATVISE.OBJECTDISPLAYS.Advanced.in_out_value" y="-122.42">
  <atv:argument name="base" prefix="base" value=".HF2"/>
  <atv:argument name="unit" value="T{:}"/>
  <atv:argument name="postDecimal" value="0"/>
  <atv:argument name="selectTextOnFocus" value="true"/>
  <atv:overwrite id="input_label" transform="matrix(2.411,0,0,1,4.909,0)" x="56.555"/>
  <atv:overwrite id="blinking_frame" transform="matrix(2,0,0,1,0,0)" width="72"/>
  <atv:overwrite id="focus_frame" transform="matrix(2,0,0,1,0,0)" width="76"/>
  <atv:overwrite id="input_bg" transform="matrix(2,0,0,1,0,0)" width="72"/>
  <atv:overwrite id="id_1" transform="matrix(2,0,0,1,0,0)" width="78"/>
  <atv:overwrite id="input_border" transform="matrix(2,0,0,1,0,0)" width="80"/>
 </svg>
 <svg atv:refpx="546.934" atv:refpy="-174.92" height="30" id="id_4" transform="matrix(2,0,0,0.5,0,0)" width="80" x="233.468" xlink:href="SYSTEM.LIBRARY.ATVISE.OBJECTDISPLAYS.Advanced.label" y="-364.845">
  <atv:argument name="text" value="Horario de finalización presión 1"/>
 </svg>
 <svg atv:refpx="546.836" atv:refpy="-129.92" height="30" id="id_5" transform="matrix(2,0,0,0.5,0,0)" width="80" x="233.417" xlink:href="SYSTEM.LIBRARY.ATVISE.OBJECTDISPLAYS.Advanced.label" y="-274.845">
  <atv:argument name="text" value="Horario de finalización presión 2"/>
 </svg>
 <svg atv:refpx="586.935" atv:refpy="-152.42" height="30" id="id_6" transform="matrix(0.5,0,0,1,0,0)" width="160" x="1093.867" xlink:href="SYSTEM.LIBRARY.ATVISE.OBJECTDISPLAYS.Advanced.in_out_value" y="-167.42">
  <atv:argument name="base" prefix="base" value=".MF1"/>
  <atv:argument name="unit" value="T{h}"/>
  <atv:argument name="postDecimal" value="0"/>
  <atv:argument name="selectTextOnFocus" value="true"/>
  <atv:overwrite id="input_label" transform="matrix(2.411,0,0,1,4.909,0)" x="56.555"/>
  <atv:overwrite id="blinking_frame" transform="matrix(2,0,0,1,0,0)" width="72"/>
  <atv:overwrite id="focus_frame" transform="matrix(2,0,0,1,0,0)" width="76"/>
  <atv:overwrite id="input_bg" transform="matrix(2,0,0,1,0,0)" width="72"/>
  <atv:overwrite id="id_1" transform="matrix(2,0,0,1,0,0)" width="78"/>
  <atv:overwrite id="input_border" transform="matrix(2,0,0,1,0,0)" width="80"/>
 </svg>
 <svg atv:refpx="586.935" atv:refpy="-107.421" height="30" id="id_7" transform="matrix(0.5,0,0,1,0,0)" width="160" x="1093.867" xlink:href="SYSTEM.LIBRARY.ATVISE.OBJECTDISPLAYS.Advanced.in_out_value" y="-122.421">
  <atv:argument name="base" prefix="base" value=".MF2"/>
  <atv:argument name="unit" value="T{h}"/>
  <atv:argument name="postDecimal" value="0"/>
  <atv:argument name="selectTextOnFocus" value="true"/>
  <atv:overwrite id="input_label" transform="matrix(2.411,0,0,1,4.909,0)" x="56.555"/>
  <atv:overwrite id="blinking_frame" transform="matrix(2,0,0,1,0,0)" width="72"/>
  <atv:overwrite id="focus_frame" transform="matrix(2,0,0,1,0,0)" width="76"/>
  <atv:overwrite id="input_bg" transform="matrix(2,0,0,1,0,0)" width="72"/>
  <atv:overwrite id="id_1" transform="matrix(2,0,0,1,0,0)" width="78"/>
  <atv:overwrite id="input_border" transform="matrix(2,0,0,1,0,0)" width="80"/>
 </svg>
 <svg atv:refpx="302.993" atv:refpy="45.496" height="75" id="id_8" transform="matrix(1.1977,0,0,1.1977,0,0)" width="210" x="139.641" xlink:href="SYSTEM.LIBRARY.ATVISE.OBJECTDISPLAYS.Advanced.bar_horizontal" y="0.488">
  <atv:argument name="base" value="AGENT.OBJECTS.SCADA.Solidaridad.Circuitos.Circuito_PDC.Carcamo_008.Equipos.Send.M3%Enviado"/>
  <atv:argument name="label" value="T{Enviado}"/>
  <atv:argument name="decimalPositions" value="1"/>
  <atv:argument name="unit" value="T{%}"/>
 </svg>
 <svg atv:refpx="500.541" atv:refpy="25.37" height="30" id="id_25" width="80" x="464.541" xlink:href="SYSTEM.LIBRARY.ATVISE.OBJECTDISPLAYS.Default.Boolean.button_switch" y="10.37">
  <atv:argument name="base" value="AGENT.OBJECTS.SCADA.Solidaridad.Circuitos.Circuito_PDC.Carcamo_008.Equipos.Send.EnviarM3"/>
  <atv:argument name="labelOff" value="T{Enviar}"/>
  <atv:argument name="labelOn" value="T{Detener}"/>
  <atv:argument name="fillOn" value="#aa0000"/>
  <atv:argument name="fillOff" value="#00aa00"/>
  <atv:argument name="fillColorInactive" value="#000000"/>
  <atv:overwrite id="button_label" transform="matrix(1.2885,0,0,1,-1.875,0)" x="32.5"/>
 </svg>
 <svg atv:refpx="500.541" atv:refpy="60.253" height="30" id="id_26" width="80" x="464.541" xlink:href="SYSTEM.LIBRARY.ATVISE.OBJECTDISPLAYS.Default.Boolean.button_switch" y="45.253">
  <atv:argument name="base" value="AGENT.OBJECTS.SCADA.Solidaridad.Circuitos.Circuito_PDC.Carcamo_008.Equipos.Send.PausarM3"/>
  <atv:argument name="labelOff" value="T{Pausar}"/>
  <atv:argument name="labelOn" value="T{Iniciar}"/>
  <atv:argument name="fillOff" value="#ff5500"/>
  <atv:overwrite id="button_label" transform="matrix(1.3659,0,0,1,-4.3902,0)" x="32.5"/>
 </svg>
 <svg atv:refpx="338.038" atv:refpy="73.994" height="30" id="id_27" width="160" x="248.038" xlink:href="SYSTEM.LIBRARY.ATVISE.OBJECTDISPLAYS.Default.Number.in_out_value" y="58.994">
  <atv:argument name="base" value="AGENT.OBJECTS.SCADA.Solidaridad.Circuitos.Circuito_PDC.Carcamo_008.Equipos.Send.M3Enviado"/>
  <atv:argument name="postDecimal" value="1"/>
  <atv:argument name="unit" value="T{m3}"/>
  <atv:overwrite id="input_label" transform="matrix(1.2055,0,0,1,-13.8699,0)" x="136"/>
 </svg>
</svg>
