<?xml version='1.0' encoding='UTF-8' standalone='no'?>
<!-- Created with Inkscape (http://www.inkscape.org/) -->
<svg height="685" id="svg59" inkscape:version="1.2.2 (732a01da63, 2022-12-09)" sodipodi:docname="carcamo_.svg" version="1.1" width="542" xmlns="http://www.w3.org/2000/svg" xmlns:atv="http://webmi.atvise.com/2007/svgext" xmlns:inkscape="http://www.inkscape.org/namespaces/inkscape" xmlns:sodipodi="http://sodipodi.sourceforge.net/DTD/sodipodi-0.dtd" xmlns:svg="http://www.w3.org/2000/svg" xmlns:xlink="http://www.w3.org/1999/xlink">
 <defs id="defs63"/>
 <metadata>
  <atv:gridconfig enabled="false" gridstyle="lines" height="20" width="20"/>
  <atv:snapconfig enabled="false" height="10" width="10"/>
 </metadata>
 <sodipodi:namedview bordercolor="#000000" borderopacity="0.25" id="namedview61" inkscape:current-layer="g65" inkscape:cx="270.26055" inkscape:cy="342.5" inkscape:deskcolor="#d1d1d1" inkscape:pagecheckerboard="0" inkscape:pageopacity="0.0" inkscape:showpageshadow="2" inkscape:window-height="1009" inkscape:window-maximized="1" inkscape:window-width="1920" inkscape:window-x="-8" inkscape:window-y="-8" inkscape:zoom="1.1766423" pagecolor="#ffffff" showgrid="false"/>
 <path atv:refpx="276.169" atv:refpy="324.348" d="M270.8,616.527C269.7,615.801 256.425,608.108 241.3,599.431C226.175,590.753 208.625,580.642 202.3,576.961C195.975,573.28 177.525,562.612 161.3,553.254C70.259,500.746 52.546,490.474 50.05,488.733C47.3,486.815 47.3,486.815 47.3,368.837C47.3,250.858 47.3,250.858 44.201,249.155C36.035,244.665 36.209,245.059 36.52,231.777C36.839,218.102 27.53,225.1 106.3,179.326C243.006,99.884 229.637,108.598 222.8,103.383C216.892,98.877 217.415,80.023 223.55,76.374C225.887,74.983 240.625,66.41 256.3,57.322C271.975,48.235 297.884,33.184 313.876,23.875C348.981,3.442 340.51,3.079 381.505,26.769C400.367,37.669 427.725,53.445 442.3,61.825C473.255,79.625 481.987,92.131 470.149,101.711C463.798,106.851 464.3,102.758 464.3,149.428C464.3,191.905 464.3,191.905 466.923,193.624C468.365,194.569 479.053,200.815 490.673,207.504C512.893,220.294 520.981,238.276 508.3,246.695C506.375,247.973 504.012,249.674 503.05,250.475C501.402,251.847 501.299,258.675 501.286,367.691C501.278,431.359 501.019,484.394 500.71,485.547C500.31,487.038 489.406,493.876 462.973,509.213C442.528,521.076 405.1,542.824 379.8,557.542C264.664,624.518 274.69,619.093 270.8,616.527M465.161,514.918C467.897,512.638 471.3,512.32 471.3,514.344C471.3,516.005 469.128,516.962 465.468,516.918C462.8,516.885 462.8,516.885 465.161,514.918M473.867,511.06C473.197,509.976 477.133,507.282 480.696,506.388C482.128,506.028 483.3,505.353 483.3,504.887C483.3,504.051 496.269,495.951 497.608,495.951C499.612,495.951 497.84,502.385 495.8,502.515C495.25,502.549 493,503.392 490.8,504.386C488.6,505.381 486.175,506.288 485.411,506.402C484.648,506.516 483.523,507.287 482.911,508.117C480.633,511.207 475.076,513.015 473.867,511.06" fill="#a4d8ea" id="path207" stroke-width="1"/>
 <path atv:refpx="276.264" atv:refpy="323.385" d="M240.3,597.112C222.425,586.764 173.6,558.573 131.8,534.466C90,510.358 54.051,489.535 51.913,488.193C48.025,485.753 48.025,485.753 48.413,368.132C48.8,250.512 48.8,250.512 43.05,246.704C37.3,242.896 37.3,242.896 37.315,232.674C37.334,219.828 34.223,222.86 66.8,203.945C108.422,179.778 204.27,124.078 216.243,117.098C229.913,109.131 231.052,106.882 223.795,102.192C220.32,99.946 218.394,84.494 221.066,80.295C223.174,76.983 344.683,7.805 346.744,8.744C347.907,9.274 359.196,15.679 371.829,22.977C384.463,30.275 409.425,44.675 427.3,54.977C445.175,65.278 462.05,75.03 464.8,76.647C471.715,80.712 473.132,99.038 466.833,102.931C461.099,106.474 461.299,191.638 467.05,195.33C469.112,196.654 479.912,202.996 491.05,209.425C513.558,222.417 520.275,238.79 506.312,246.639C503.569,248.181 501.132,249.946 500.896,250.562C500.659,251.177 500.136,304.383 499.732,368.797C499.071,474.339 498.841,486.047 497.399,487.26C496.52,488.001 481.4,496.951 463.8,507.149C446.2,517.347 396.858,545.999 354.153,570.821C311.447,595.642 275.672,615.945 274.653,615.939C273.633,615.932 258.175,607.46 240.3,597.112" fill="#00b2e7" id="path205" stroke="#000000" stroke-width="1"/>
 <path atv:refpx="276.265" atv:refpy="359.402" d="M273.417,559.702C274.783,435.222 274.507,383.448 272.467,381.603C271.459,380.691 259.422,373.501 245.717,365.625C213.464,347.091 176.458,325.763 163.8,318.413C133.876,301.038 114.539,289.868 84.8,272.778C66.65,262.348 50.45,252.581 48.8,251.074C47.15,249.566 43.887,247.116 41.55,245.628C37.3,242.923 37.3,242.923 37.315,232.687C37.334,219.831 34.287,222.822 66.3,204.238C81.425,195.458 114.95,175.996 140.8,160.989C166.65,145.982 196.159,128.809 206.375,122.827C216.591,116.845 225.475,111.951 226.116,111.951C226.988,111.951 227.348,126.151 227.541,168.169C227.829,230.796 224.268,222.332 258.8,242.45C299.002,265.872 343.42,291.163 343.743,290.816C345.096,289.363 344.663,174.896 343.3,173.625C342.475,172.856 330.55,165.8 316.8,157.944C303.05,150.088 283.925,139.053 274.3,133.423C264.675,127.792 255,122.229 252.8,121.061C250.6,119.893 245.875,117.14 242.3,114.944C238.725,112.747 234.113,110.162 232.051,109.2C229.989,108.238 228.074,106.776 227.796,105.951C227.518,105.126 225.718,103.434 223.795,102.192C220.3,99.933 220.3,99.933 220.315,90.692C220.337,77.197 218.675,77.051 245.8,92.937C252.126,96.643 266.976,105.258 270.8,107.442C279.526,112.425 301.788,125.26 320.3,135.981C331.025,142.192 341.04,147.989 342.555,148.863C345.885,150.783 342.822,152.315 385.3,127.481C402.075,117.674 420.3,107.059 425.8,103.894C476.417,74.761 470.3,76.612 470.3,90.429C470.3,100.788 470.3,100.788 466.8,102.951C461.093,106.478 461.324,191.654 467.05,195.33C469.112,196.654 479.912,202.996 491.05,209.425C513.558,222.417 520.275,238.79 506.312,246.639C503.569,248.181 501.132,249.946 500.896,250.562C500.659,251.177 500.136,304.383 499.732,368.797C499.071,474.339 498.841,486.047 497.399,487.26C496.52,488.001 481.4,496.951 463.8,507.149C446.2,517.347 396.858,545.999 354.153,570.821C311.447,595.642 275.672,615.951 274.653,615.952C272.863,615.953 272.821,614.018 273.417,559.702M168.3,484.014C149.145,478.151 129.752,452.305 126.314,428.055C124.023,411.895 131.841,395.291 153.086,371.201C161.804,361.316 163.043,361.463 167.782,372.951C195.306,439.674 199.937,455.706 195.757,469.784C192.171,481.86 180.694,487.808 168.3,484.014" fill="#009eda" id="path203" stroke="#000000" stroke-width="1"/>
 <path atv:refpx="276.265" atv:refpy="358.604" d="M273.625,614.483C275.658,612.45 276.706,384.732 274.698,381.352C274.012,380.197 269.93,377.354 265.626,375.034C257.149,370.465 241.222,361.353 228.065,353.548C223.519,350.851 218.45,347.91 216.8,347.013C215.15,346.115 210.425,343.416 206.3,341.014C202.175,338.612 194.75,334.304 189.8,331.44C184.85,328.577 172.25,321.268 161.8,315.2C151.35,309.131 139.65,302.394 135.8,300.229C131.95,298.064 121.825,292.235 113.3,287.277C104.775,282.319 93.075,275.567 87.3,272.272C81.525,268.978 71.245,263.058 64.456,259.117C57.668,255.176 51.507,251.951 50.766,251.951C50.024,251.951 49.136,251.496 48.793,250.939C48.449,250.383 45.722,248.364 42.734,246.452C37.3,242.976 37.3,242.976 37.315,232.714C37.334,219.827 34.283,222.824 66.3,204.238C81.425,195.458 114.95,175.997 140.8,160.992C166.65,145.987 195.788,129.026 205.551,123.299C221.878,113.723 231.657,108.6 223.3,114C219.387,116.529 186.74,135.696 163.8,148.932C147.339,158.43 123.851,172.065 118.931,174.979C117.209,175.999 112.875,178.485 109.3,180.502C105.725,182.52 96.275,188.003 88.3,192.686C80.325,197.369 70.65,203.024 66.8,205.253C50.083,214.932 40.89,220.68 40.564,221.659C40.209,222.724 42.389,224.065 72.8,241.485C98.535,256.226 120.419,268.847 134.3,276.951C141.175,280.965 154.225,288.52 163.3,293.739C172.375,298.958 183.326,305.303 187.637,307.839C197.33,313.543 201.53,315.971 207.3,319.203C216.029,324.093 238.33,336.892 249.994,343.707C275.366,358.53 274.638,358.262 280.233,354.851C282.121,353.7 290.446,348.828 298.733,344.024C307.02,339.22 321,331.101 329.8,325.98C338.6,320.859 354.35,311.728 364.8,305.688C375.25,299.648 385.6,293.639 387.8,292.335C390,291.031 395.4,287.906 399.8,285.39C404.2,282.874 412.75,277.921 418.8,274.383C424.85,270.845 436.1,264.315 443.8,259.873C451.5,255.431 463.2,248.625 469.8,244.748C476.4,240.871 485.4,235.672 489.8,233.195C505.073,224.596 508.731,221.937 507.188,220.555C505.537,219.075 486.698,207.871 476.8,202.483C472.95,200.387 469.029,198.005 468.087,197.19C464.164,193.796 463.3,196.058 463.3,209.729C463.3,225.246 464.246,223.814 447.8,233.206C431.974,242.245 411.421,254.162 401.3,260.166C397.175,262.615 387.275,268.37 379.3,272.957C371.325,277.544 361.075,283.546 356.522,286.295C345.448,292.983 346.353,297.761 346.058,231.088C345.772,166.54 348.63,174.176 318.3,156.918C314.725,154.884 303.025,148.139 292.3,141.928C281.575,135.718 268.3,128.065 262.8,124.921C257.3,121.777 247.953,116.403 242.029,112.979C236.104,109.555 230.615,107 229.83,107.301C229.019,107.612 228.162,107.115 227.847,106.15C227.541,105.216 225.718,103.434 223.795,102.192C220.171,99.849 218.435,84.384 221.3,79.951C221.959,78.931 222.274,78.855 222.284,79.714C222.3,80.983 230.787,86.902 237.3,90.185C239.225,91.155 242.6,93.006 244.8,94.298C250.188,97.463 278.635,114 289.8,120.457C294.75,123.32 302.85,128.049 307.8,130.966C312.75,133.883 320.625,138.383 325.3,140.967C329.975,143.551 336.182,147.079 339.094,148.808C342.005,150.537 344.876,151.951 345.474,151.951C346.572,151.951 359.21,144.763 393.8,124.466C404.25,118.334 425.103,106.191 440.139,97.482C455.176,88.773 467.711,81.043 467.994,80.305C469.338,76.803 470.3,81.026 470.3,90.429C470.3,100.788 470.3,100.788 466.8,102.951C461.093,106.478 461.324,191.654 467.05,195.33C469.112,196.654 479.912,202.996 491.05,209.425C513.558,222.417 520.275,238.79 506.312,246.639C503.569,248.181 501.132,249.946 500.896,250.562C500.659,251.177 500.136,304.383 499.732,368.797C499.071,474.339 498.841,486.047 497.399,487.26C496.52,488.001 481.4,496.951 463.8,507.149C446.2,517.347 396.858,545.999 354.153,570.821C285.872,610.507 267.805,620.303 273.625,614.483M167.245,482.501C133.605,470.107 117.273,425.924 135.385,396.305C151.183,370.471 161.72,361.14 165.428,369.701C179.194,401.487 193.284,440.379 195.349,452.286C199.252,474.793 185.744,489.316 167.245,482.501" fill="#ffffff" id="path201" stroke-width="1"/>
 <path atv:refpx="319.72" atv:refpy="294.09" d="M168.8,482.549C146.479,475.471 126.316,444.954 127.451,419.965C128.014,407.53 139.05,388.13 155.784,370.152C161.45,364.065 162.44,364.024 164.918,369.769C176.954,397.674 191.016,435.416 193.843,447.4C199.677,472.135 187.935,488.616 168.8,482.549M275.3,369.606C275.3,357.092 272.507,359.903 301.8,342.938C314.45,335.611 345.275,317.707 370.3,303.151C395.325,288.594 428.175,269.497 443.3,260.712C458.425,251.928 479.192,239.838 489.45,233.846C512.116,220.605 510.3,220.689 510.3,232.878C510.3,242.804 510.3,242.804 504.901,245.893C501.931,247.592 499.267,249.594 498.98,250.343C498.693,251.091 493.135,254.762 486.629,258.5C480.123,262.239 468.5,268.97 460.8,273.458C448.099,280.861 383.548,318.36 353.8,335.616C347.2,339.444 327.352,350.986 309.694,361.264C271.661,383.401 275.3,382.518 275.3,369.606M346.004,171.201C344.941,169.272 346.107,153.717 347.411,152.444C348.852,151.035 464.827,83.454 467.682,82.358C471.614,80.849 469.826,99.463 465.8,101.951C463.875,103.141 462.3,104.495 462.3,104.96C462.3,105.979 462.014,106.15 410.3,136.149C398.475,143.009 379.766,153.87 368.726,160.286C349.169,171.65 346.863,172.758 346.004,171.201" fill="#026bb3" id="path199" stroke-width="1"/>
 <path atv:refpx="161.569" atv:refpy="436.032" d="M164.185,479.074C139.785,468.663 121.697,430.622 130.717,408.689C135.723,396.515 156.264,367.967 160.621,367.128C162.344,366.796 168.34,378.131 169.933,384.731C170.294,386.227 173.624,395.101 177.333,404.451C202.154,467.027 197.525,493.301 164.185,479.074" fill="#012d5a" id="path197" stroke-width="1"/>
 <svg atv:refpx="399" atv:refpy="424.097" height="160.787" id="id_0" transform="matrix(0.6431,-0.3581,0,0.7303,0,0)" width="153.451" x="543.702" xlink:href="SYSTEM.LIBRARY.PROJECT.RESOURCES%2FSVG%2Finkscape%2Fagk_iso.svg" y="804.6"/>
</svg>
