<?xml version='1.0' encoding='UTF-8' standalone='no'?>
<svg height="120" version="1.2" width="800" xmlns="http://www.w3.org/2000/svg" xmlns:atv="http://webmi.atvise.com/2007/svgext" xmlns:xlink="http://www.w3.org/1999/xlink">
 <defs/>
 <rect atv:refpx="400" atv:refpy="60" fill="$FILLCOLOR$" height="120" id="id_4" stroke="#c8c8c8" stroke-width="1" width="800" x="0" y="0"/>
 <desc>A small version of the default "top" display (e.g. for panel screens).</desc>
 <title>Topframe Small (800x120)</title>
 <metadata>
  <atv:parameter behavior="optional" defaultvalue="SYSTEM.LIBRARY.ATVISE.OBJECTDISPLAYS.Advanced.dialogs.message_dialog" desc="message dialog" name="message_dialog" valuetype="display"/>
  <atv:parameter behavior="optional" defaultvalue="SYSTEM.LIBRARY.ATVISE.OBJECTDISPLAYS.Advanced.dialogs.message_dialog_small" desc="small message dialog" name="message_dialog_small" valuetype="display"/>
  <atv:parameter behavior="optional" defaultvalue="SYSTEM.LIBRARY.ATVISE.OBJECTDISPLAYS.Advanced.dialogs.user_editor" desc="user editor dialog" name="user_dialog" valuetype="display"/>
  <atv:parameter behavior="optional" defaultvalue="SYSTEM.LIBRARY.ATVISE.OBJECTDISPLAYS.Advanced.dialogs.pw_editor" desc="password editor dialog" name="password_dialog" valuetype="display"/>
  <atv:parameter behavior="optional" defaultvalue="SYSTEM.GLOBALS.atvFontColor" desc="font color" group="Appearance" name="fontColor" substitute="$FONTCOLOR$" valuetype="global"/>
  <atv:parameter behavior="optional" defaultvalue="SYSTEM.GLOBALS.atvFillColor" desc="background color" group="Appearance" name="fillColor" substitute="$FILLCOLOR$" valuetype="global"/>
  <atv:parameter behavior="optional" defaultvalue="0" desc="min alarm priority" group="Alarm" name="minAlarmPriority" valuetype="number"/>
  <atv:parameter behavior="optional" defaultvalue="0" desc="max alarm priority" group="Alarm" name="maxAlarmPriority" valuetype="number"/>
  <atv:parameter behavior="optional" defaultvalue="SYSTEM.LIBRARY.ATVISE.OBJECTDISPLAYS.Advanced.redundancy.warning_dialog" group="Notifications" desc="redundancy warning dialog" name="redundancy_warning_dialog" valuetype="display"/>
  <atv:parameter behavior="optional" defaultvalue="SYSTEM.LIBRARY.ATVISE.OBJECTDISPLAYS.Advanced.dialogs.message_dialog" group="Notifications" desc="redundancy connection dialog" name="redundancy_connection_dialog" valuetype="display"/>
  <atv:parameter behavior="optional" defaultvalue="true" group="Notifications" desc="show SOP notification" name="show_sop_change" valuetype="bool"/>
  <atv:parameter behavior="optional" defaultvalue="true" group="Notifications" desc="show connection notification" name="show_con_change" valuetype="bool"/>
  <atv:gridconfig enabled="true" gridstyle="lines" height="10" width="10"/>
  <atv:snapconfig enabled="true" height="5" width="5"/>
 </metadata>
 <path atv:refpx="355.987" atv:refpy="59.436" d="M0,0" fill="#000088" id="id_33" stroke="#0000ff" stroke-width="2"/>
 <svg atv:refpx="726.498" atv:refpy="37.501" height="30" id="id_29" transform="matrix(0.5625,0,0,1.5,0,0)" width="80" x="1251.556" xlink:href="SYSTEM.LIBRARY.ATVISE.OBJECTDISPLAYS.Advanced.button_open_display" y="10">
  <atv:argument name="display" value="SYSTEM.LIBRARY.ATVISE.OBJECTDISPLAYS.Advanced.hmi.historylist"/>
  <atv:argument name="symbol" value="SYSTEM.LIBRARY.ATVISE.OBJECTDISPLAYS.Symbols.20x20.history"/>
  <atv:argument name="symbolPressed" value="SYSTEM.LIBRARY.ATVISE.OBJECTDISPLAYS.Symbols.20x20.history"/>
  <atv:argument name="visibilityLabel" value="hidden"/>
  <atv:argument name="visibilitySymbol" value="inherit"/>
  <atv:argument name="tabIndex" value="-999999"/>
  <atv:overwrite id="button_symbol_pressed" transform="matrix(1.7778,0,0,0.6667,0,0)" x="12.5" y="12.5"/>
  <atv:overwrite height="39.5" id="id_2" transform="matrix(1.7778,0,0,0.6667,0,0)" width="39.5"/>
  <atv:overwrite height="44.5" id="id_0" transform="matrix(1.7778,0,0,0.6667,0,0)" width="44.5"/>
  <atv:argument name="borderVisible" value="true"/>
  <atv:argument name="extraBorderColor" value="#ffffff"/>
  <atv:argument name="smallDisplay" value="SYSTEM.LIBRARY.ATVISE.OBJECTDISPLAYS.Advanced.hmi.historylist_small"/>
  <atv:overwrite height="43" id="id_6" transform="matrix(1.7778,0,0,0.6667,0,0)" width="43"/>
  <atv:overwrite id="button_label" transform="matrix(1.7778,0,0,0.6667,0,0)" x="22.5" y="27"/>
  <atv:overwrite id="button_symbol" transform="matrix(1.7778,0,0,0.6667,0,0)" x="12.5" y="12.5"/>
  <atv:overwrite height="41" id="button_stroke" transform="matrix(1.7778,0,0,0.6667,0,0)" width="41"/>
  <atv:overwrite height="43" id="button_bg" transform="matrix(1.7778,0,0,0.6667,0,0)" width="43"/>
  <atv:overwrite height="45" id="outer_frame" transform="matrix(1.7778,0,0,0.6667,0,0)" width="45"/>
 </svg>
 <svg atv:refpx="86" atv:refpy="87.5" height="45" id="id_22" width="168" x="4" xlink:href="SYSTEM.LIBRARY.ATVISE.OBJECTDISPLAYS.Advanced.hmi.button_group_display" y="65">
  <atv:argument name="symbolColor2" value="#ffffff"/>
 </svg>
 <svg atv:refpx="219.613" atv:refpy="80" height="45" id="id_13" width="168" x="172" xlink:href="SYSTEM.LIBRARY.ATVISE.OBJECTDISPLAYS.Advanced.hmi.button_group_zoom" y="65"/>
 <svg atv:refpx="410" atv:refpy="87.5" height="45" id="id_15" width="168" x="340" xlink:href="SYSTEM.LIBRARY.ATVISE.OBJECTDISPLAYS.Advanced.hmi.button_group_alarm" y="65"/>
 <svg atv:refpx="723.998" atv:refpy="87.499" height="30" id="id_11" transform="matrix(1.5,0,0,1.5,0,0)" width="30" x="468.334" xlink:href="SYSTEM.LIBRARY.ATVISE.OBJECTDISPLAYS.Advanced.hmi.button_login" y="43.333">
  <atv:overwrite id="button_symbol" transform="matrix(0.6667,0,0,0.6667,0,0)" x="12.5" y="12.5"/>
  <atv:overwrite height="37.5" id="button_stroke" transform="matrix(0.6667,0,0,0.6667,0,0)" width="37.5"/>
  <atv:overwrite id="button_symbol_pressed" transform="matrix(0.6667,0,0,0.6667,0,0)" x="12.5" y="12.5"/>
  <atv:overwrite height="37.5" id="button_bg" transform="matrix(0.6667,0,0,0.6667,0,0)" width="37.5"/>
  <atv:overwrite height="39.5" id="id_3" transform="matrix(0.6667,0,0,0.6667,0,0)" width="39.5"/>
  <atv:overwrite height="44.5" id="id_0" transform="matrix(0.6667,0,0,0.6667,0,0)" width="44.5"/>
 </svg>
 <svg atv:refpx="662" atv:refpy="87.5" height="45" id="id_12" width="45" x="657.5" xlink:href="SYSTEM.LIBRARY.ATVISE.OBJECTDISPLAYS.Advanced.hmi.button_switch_language" y="65"/>
 <rect atv:refpx="3050.497" atv:refpy="61.731" fill="#ffffff" height="45" id="id_1" rx="4.971" ry="5" stroke="#d7d7d7" stroke-width="1" width="696" x="6" y="15"/>
 <svg atv:refpx="512.003" atv:refpy="38.955" height="37.91" id="id_16" width="650" x="46.5" xlink:href="SYSTEM.LIBRARY.ATVISE.OBJECTDISPLAYS.Advanced.hmi.alarmlog_1row" y="20">
  <atv:argument name="minAlarmPriority" prefix="minAlarmPriority"/>
  <atv:argument name="maxAlarmPriority" prefix="maxAlarmPriority"/>
 </svg>
 <rect atv:refpx="980.655" atv:refpy="95.84" fill="#ffffff" height="45" id="id_5" rx="5" ry="5" stroke="#d7d7d7" stroke-width="1" width="145" x="510" y="65"/>
 <text atv:refpx="313.061" atv:refpy="-0.261" fill="$FONTCOLOR$" font-family="Arial" font-size="14" font-weight="bold" id="username_label" text-anchor="end" x="649.5" y="82"/>
 <text atv:refpx="-1307.289" atv:refpy="-207.5" fill="$FONTCOLOR$" font-family="Arial" font-size="14" font-weight="bold" id="id_20" x="516.5" y="82">T{User}:</text>
 <text atv:refpx="-698.528" atv:refpy="18.739" fill="$FONTCOLOR$" font-family="Arial" font-size="14" font-weight="bold" id="language_label" text-anchor="end" x="649.5" y="101">T{}</text>
 <text atv:refpx="-1515.906" atv:refpy="-8.5" fill="$FONTCOLOR$" font-family="Arial" font-size="14" font-weight="bold" id="id_25" x="516.5" y="101">T{Language}:</text>
 <g atv:refpx="23.658" atv:refpy="37.521" id="logo_clickarea">
  <svg atv:refpx="23.592" atv:refpy="37.46" height="80" id="atvise_logo" transform="matrix(0.313,0,0,0.313,0,0)" width="80" x="35.516" xlink:href="SYSTEM.LIBRARY.ATVISE.OBJECTDISPLAYS.Symbols.atvise_logo" y="79.878"/>
  <rect atv:refpx="246.1" atv:refpy="52.1" fill="#000000" fill-opacity="0.0001" height="25" id="logo_click" stroke="none" stroke-width="0" width="25" x="11.2" y="25"/>
 </g>
 <g atv:refpx="768.603" atv:refpy="60" id="redu_info" visibility="hidden">
  <svg atv:refpx="1577.659" atv:refpy="164.828" height="30" id="id_43" transform="matrix(0.5625,0,0,1.5,0,0)" width="80" x="1335.111" xlink:href="SYSTEM.LIBRARY.ATVISE.OBJECTDISPLAYS.Advanced.button_open_display" y="10">
   <atv:argument name="display" value="SYSTEM.LIBRARY.ATVISE.OBJECTDISPLAYS.Advanced.redundancy.status"/>
   <atv:argument name="symbol" value="SYSTEM.LIBRARY.ATVISE.OBJECTDISPLAYS.Symbols.20x20.info"/>
   <atv:argument name="symbolPressed" value="SYSTEM.LIBRARY.ATVISE.OBJECTDISPLAYS.Symbols.20x20.info"/>
   <atv:argument name="visibilityLabel" value="hidden"/>
   <atv:argument name="visibilitySymbol" value="inherit"/>
   <atv:argument name="tabIndex" value="-999999"/>
   <atv:overwrite id="button_symbol_pressed" transform="matrix(1.7778,0,0,0.6667,0,0)" x="12.5" y="12.5"/>
   <atv:overwrite height="39.5" id="id_2" transform="matrix(1.7778,0,0,0.6667,0,0)" width="39.5"/>
   <atv:overwrite height="44.5" id="id_0" transform="matrix(1.7778,0,0,0.6667,0,0)" width="44.5"/>
   <atv:argument name="borderVisible" value="true"/>
   <atv:argument name="extraBorderColor" value="#ffffff"/>
   <atv:overwrite height="43" id="id_6" transform="matrix(1.7778,0,0,0.6667,0,0)" width="43"/>
   <atv:overwrite id="button_label" transform="matrix(1.7778,0,0,0.6667,0,0)" x="22.5" y="27"/>
   <atv:overwrite id="button_symbol" transform="matrix(1.7778,0,0,0.6667,0,0)" x="12.5" y="12.5"/>
   <atv:overwrite height="41" id="button_stroke" transform="matrix(1.7778,0,0,0.6667,0,0)" width="41"/>
   <atv:overwrite height="43" id="button_bg" transform="matrix(1.7778,0,0,0.6667,0,0)" width="43"/>
   <atv:overwrite height="45" id="outer_frame" transform="matrix(1.7778,0,0,0.6667,0,0)" width="45"/>
  </svg>
  <g atv:refpx="767.296" atv:refpy="90.661" id="id_36" transform="matrix(1,0,0,1,-375.087,-6.7345)">
   <text atv:refpx="29.126" atv:refpy="65.032" fill="$FONTCOLOR$" font-family="Arial" font-size="8" id="id_31" text-anchor="start" x="1133.387" y="88.734">T{STATUS}:</text>
   <text atv:refpx="-1104.935" atv:refpy="57.328" fill="$FONTCOLOR$" font-family="Arial" font-size="10" font-weight="bold" id="redu_status" text-anchor="start" x="1127.087" y="101.234"/>
  </g>
  <text atv:refpx="1333.888" atv:refpy="232.328" fill="$FONTCOLOR$" font-family="Arial" font-size="26" font-weight="bold" id="redu_role" x="736" y="94.5"/>
 </g>
 <script atv:desc="" atv:href="SYSTEM.LIBRARY.ATVISE.DISPLAYSCRIPTS.hmi.top" atv:name="top" atv:type="text/ecmascript"/>
 <script atv:desc="" atv:name="" type="text/ecmascript"/>
</svg>
