<?xml version='1.0' encoding='UTF-8' standalone='no'?>
<svg height="20" version="1.2" width="20" xmlns="http://www.w3.org/2000/svg" xmlns:atv="http://webmi.atvise.com/2007/svgext" xmlns:xlink="http://www.w3.org/1999/xlink">
 <defs/>
 <metadata>
  <atv:parameter behavior="optional" defaultvalue="#000000" desc="symbol color" name="symbolColor" substitute="$SYMBOLCOLOR$" valuetype="color"/>
  <atv:parameter behavior="optional" defaultvalue="#ffffff" desc="symbol color 2" name="symbolColor2" substitute="$SYMBOLCOLOR2$" valuetype="color"/>
 </metadata>
 <g atv:refpx="10" atv:refpy="14" id="id_3" transform="matrix(0.0813,0,0,0.0714,-0.4094,0.8571)">
  <path atv:refpx="128" atv:refpy="128" d="M128,56C48,56 16,128 16,128C16,128 48,200 128,200C208,200 240,128 240,128C240,128 208,56 128,56" fill="none" id="id_0" stroke="$SYMBOLCOLOR$" stroke-width="24"/>
 </g>
 <path atv:refpx="0.5" atv:refpy="0.5" d="M0,0" fill="#000000" id="id_10" stroke="none" stroke-width="2"/>
 <path atv:refpx="10.886" atv:refpy="9.333" d="M6.852,8.664C6.975,8.431 8.821,5.53 11.909,7.005C14.94,9.091 12.963,12.13 12.963,12.13C8.864,9.813 6.852,8.664 6.852,8.664" fill="$SYMBOLCOLOR$" id="id_14" stroke="none" stroke-width="4"/>
 <line atv:refpx="10.55" atv:refpy="10.582" id="id_2" stroke="$SYMBOLCOLOR$" stroke-linecap="round" stroke-width="2" x1="1" x2="19" y1="3" y2="17"/>
 <script atv:desc="" atv:name="" type="text/ecmascript"/>
</svg>
