<?xml version='1.0' encoding='UTF-8' standalone='no'?>
<svg enable-background="new 0 0 16 16" height="20" id="Ebene_1" version="1.1" width="20" x="0px" xml:space="preserve" y="0px" xmlns="http://www.w3.org/2000/svg" xmlns:atv="http://webmi.atvise.com/2007/svgext" xmlns:xlink="http://www.w3.org/1999/xlink">
 <defs>
  <linearGradient gradientUnits="objectBoundingBox" id="SVGID_1_" x1="-0.290145" x2="0.792871" y1="0.136603" y2="0.639639">
   <stop offset="0" stop-color="#9d9d9c"/>
   <stop offset="1" stop-color="#c3c3b"/>
  </linearGradient>
  <linearGradient gradientUnits="objectBoundingBox" id="SVGID_2_" x1="0.0373956" x2="0.933879" y1="0.0373166" y2="1.06773">
   <stop offset="0" stop-color="#9d9d9c"/>
   <stop offset="1" stop-color="#c3c3b"/>
  </linearGradient>
 </defs>
 <metadata>
  <atv:parameter behavior="optional" defaultvalue="#000000" desc="symbol color" name="symbolColor" substitute="$SYMBOLCOLOR$" valuetype="color"/>
  <atv:gridconfig enabled="true" gridstyle="lines" height="2" width="2"/>
  <atv:snapconfig enabled="true" height="1" width="1"/>
 </metadata>
 <script atv:desc="" atv:name="" type="text/ecmascript"/>
 <g atv:refpx="10" atv:refpy="9.95" id="id_3">
  <g atv:refpx="10" atv:refpy="9.95" id="id_2">
   <path atv:refpx="8" atv:refpy="12.4" d="M2.5,11.9C2.776,11.9 3,12.124 3,12.4L3,14.9C3,15.453 3.447,15.9 4,15.9L16,15.9C16.552,15.9 17,15.453 17,14.9L17,12.4C17,12.124 17.223,11.9 17.5,11.9C17.776,11.9 18,12.124 18,12.4L18,14.9C18,16.004 17.104,16.9 16,16.9L4,16.9C2.895,16.9 2,16.004 2,14.9L2,12.4C2,12.124 2.223,11.9 2.5,11.9" fill="$SYMBOLCOLOR$" id="id_0" stroke-width="1"/>
   <path atv:refpx="8" atv:refpy="6.5" d="M9.646,3.146C9.739,3.052 9.867,3 10,3C10.132,3 10.26,3.052 10.354,3.146L13.354,6.146C13.549,6.342 13.549,6.659 13.353,6.854C13.158,7.05 12.841,7.05 12.645,6.854L10.5,4.707L10.5,13.5C10.5,13.777 10.276,14 10,14C9.723,14 9.5,13.777 9.5,13.5L9.5,4.707L7.354,6.854C7.158,7.05 6.841,7.05 6.645,6.854C6.45,6.659 6.45,6.342 6.646,6.146Z" fill="$SYMBOLCOLOR$" id="id_1" stroke-width="1"/>
  </g>
 </g>
</svg>
