<?xml version='1.0' encoding='UTF-8' standalone='no'?>
<svg height="325" version="1.2" width="490" xmlns="http://www.w3.org/2000/svg" xmlns:atv="http://webmi.atvise.com/2007/svgext" xmlns:xlink="http://www.w3.org/1999/xlink">
 <defs>
  <linearGradient gradientUnits="objectBoundingBox" id="linear_0" x1="0" x2="1" y1="0" y2="1">
   <stop offset="0" stop-color="#000000" stop-opacity="0"/>
   <stop offset="1" stop-color="#000000" stop-opacity="0"/>
  </linearGradient>
 </defs>
 <metadata>
  <atv:gridconfig enabled="false" gridstyle="lines" height="20" width="20"/>
  <atv:snapconfig enabled="true" height="1" width="1"/>
 </metadata>
 <g atv:insensitive="true" atv:refpx="0" atv:refpy="0" id="id_11" transform="matrix(0.3828,0,0,0.4233,0,0)">
  <rect atv:refpx="640" atv:refpy="384" fill="#ffffff" height="768.00" id="id_12" width="1280.00" x="0" y="0"/>
 </g>
 <script atv:desc="" atv:name="" type="text/ecmascript"/>
 <g atv:refpx="324.473" atv:refpy="206" id="id_43" transform="matrix(1,0,0,1,154.3821,115.0005)">
  <line atv:refpx="162" atv:refpy="79.5" id="id_44" stroke="#000000" stroke-linecap="round" stroke-linejoin="round" stroke-width="2.015" x1="192" x2="132" y1="79" y2="79"/>
  <polygon atv:refpx="185.405" atv:refpy="79" fill="#000018" id="id_45" points="192,89 192,69 205.19,79 205.19,79" stroke="#000000" stroke-linecap="round" stroke-linejoin="round" stroke-opacity="0" stroke-width="2.015"/>
 </g>
 <g atv:refpx="204.535" atv:refpy="206" id="id_36" transform="matrix(1,0,0,1,34.444,115.0005)">
  <line atv:refpx="162" atv:refpy="79.5" id="id_38" stroke="#000000" stroke-linecap="round" stroke-linejoin="round" stroke-width="2.015" x1="192" x2="132" y1="79" y2="79"/>
  <polygon atv:refpx="185.405" atv:refpy="79" fill="#000018" id="id_42" points="192,89 192,69 205.19,79 205.19,79" stroke="#000000" stroke-linecap="round" stroke-linejoin="round" stroke-opacity="0" stroke-width="2.015"/>
 </g>
 <g atv:refpx="85.41" atv:refpy="206" id="id_32" transform="matrix(1,0,0,1,-84.681,115.0005)">
  <line atv:refpx="162" atv:refpy="79.5" id="id_33" stroke="#000000" stroke-linecap="round" stroke-linejoin="round" stroke-width="2.015" x1="192" x2="132" y1="79" y2="79"/>
  <polygon atv:refpx="185.405" atv:refpy="79" fill="#000018" id="id_34" points="192,89 192,69 205.19,79 205.19,79" stroke="#000000" stroke-linecap="round" stroke-linejoin="round" stroke-opacity="0" stroke-width="2.015"/>
 </g>
 <svg atv:refpx="52.992" atv:refpy="205.985" height="63.11" id="id_0" transform="matrix(0.7519,0,0,0.7289,0,0)" width="133" x="1.33" xlink:href="ObjectTypes.PROJECT.ElementoLinea.Principal" y="234.6">
  <atv:argument name="base" value="AGENT.OBJECTS.SCADA.Solidaridad.Circuitos.Circuito_PDC.Carcamo_001"/>
 </svg>
 <svg atv:refpx="157.492" atv:refpy="203.986" height="63.11" id="id_2" transform="matrix(0.7519,0,0,0.7289,0,0)" width="133" x="158.94" xlink:href="ObjectTypes.PROJECT.ElementoLinea.Principal" y="234.6">
  <atv:argument name="base" value="AGENT.OBJECTS.SCADA.Solidaridad.Circuitos.Circuito_PDC.Carcamo_003"/>
 </svg>
 <svg atv:refpx="289.767" atv:refpy="205.985" height="63.11" id="id_3" transform="matrix(0.7519,0,0,0.7289,0,0)" width="133" x="316.25" xlink:href="ObjectTypes.PROJECT.ElementoLinea.Principal" y="234.6">
  <atv:argument name="base" value="AGENT.OBJECTS.SCADA.Solidaridad.Circuitos.Circuito_PDC.Carcamo_004"/>
 </svg>
 <svg atv:refpx="410.473" atv:refpy="205.984" height="63.11" id="id_4" transform="matrix(0.7519,0,0,0.7289,0,0)" width="133" x="476.793" xlink:href="ObjectTypes.PROJECT.ElementoLinea.Principal" y="234.6">
  <atv:argument name="base" value="AGENT.OBJECTS.SCADA.Solidaridad.Circuitos.Circuito_PDC.Carcamo_005"/>
 </svg>
 <svg atv:refpx="49.991" atv:refpy="42.999" height="63.11" id="id_17" transform="matrix(0.7519,0,0,0.7289,0,0)" width="133" x="0" xlink:href="ObjectTypes.PROJECT.ElementoLinea.Principal" y="37.042">
  <atv:argument name="base" value="AGENT.OBJECTS.SCADA.Solidaridad.Circuitos.Circuito_PDC.Carcamo_Intermedio"/>
 </svg>
 <svg atv:refpx="53.001" atv:refpy="240.86" height="23" id="id_16" width="100" x="1.001" xlink:href="ObjectTypes.PROJECT.Caudalimetro.line_mini" y="217.36">
  <atv:argument name="base" value="AGENT.OBJECTS.SCADA.Solidaridad.Circuitos.Circuito_PDC.Carcamo_001.Equipos.Caudalimetro.L1"/>
 </svg>
 <svg atv:refpx="50.001" atv:refpy="79.875" height="23" id="id_40" width="100" x="0.001" xlink:href="ObjectTypes.PROJECT.Caudalimetro.line_mini" y="73.375">
  <atv:argument name="base" value="AGENT.OBJECTS.SCADA.Solidaridad.Circuitos.Circuito_PDC.Carcamo_Intermedio.Equipos.Caudalimetros.L_20"/>
 </svg>
 <svg atv:refpx="157.508" atv:refpy="238.875" height="23" id="id_49" width="100" x="119.508" xlink:href="ObjectTypes.PROJECT.Caudalimetro.line_mini" y="217.375">
  <atv:argument name="base" value="AGENT.OBJECTS.SCADA.Solidaridad.Circuitos.Circuito_PDC.Carcamo_003.Equipos.Caudalimetro.L1"/>
 </svg>
 <svg atv:refpx="289.789" atv:refpy="240.875" height="23" id="id_50" width="100" x="237.789" xlink:href="ObjectTypes.PROJECT.Caudalimetro.line_mini" y="217.375">
  <atv:argument name="base" value="AGENT.OBJECTS.SCADA.Solidaridad.Circuitos.Circuito_PDC.Carcamo_004.Equipos.Caudalimetro.L1"/>
 </svg>
 <svg atv:refpx="410.501" atv:refpy="240.875" height="23" id="id_52" width="100" x="358.501" xlink:href="ObjectTypes.PROJECT.Caudalimetro.line_mini" y="217.375">
  <atv:argument name="base" value="AGENT.OBJECTS.SCADA.Solidaridad.Circuitos.Circuito_PDC.Carcamo_005.Equipos.Caudalimetro.L1"/>
 </svg>
 <g atv:refpx="53" atv:refpy="136.099" id="id_1" transform="matrix(0,1,-1,0,132,-35.9925)">
  <line atv:refpx="162" atv:refpy="79.5" id="id_5" stroke="#000000" stroke-linecap="round" stroke-linejoin="round" stroke-width="2.015" x1="192" x2="132" y1="79" y2="79"/>
  <polygon atv:refpx="185.405" atv:refpy="79" fill="#000018" id="id_6" points="192,89 192,69 205.19,79 205.19,79" stroke="#000000" stroke-linecap="round" stroke-linejoin="round" stroke-opacity="0" stroke-width="2.015"/>
 </g>
</svg>
