<?xml version='1.0' encoding='UTF-8' standalone='no'?>
<!-- Created with Inkscape (http://www.inkscape.org/) -->
<svg height="12.99" id="svg8" inkscape:version="0.92.4 (5da689c313, 2019-01-14)" sodipodi:docname="atvise_logo_text_R.svg" version="1.1" width="48.94" xmlns="http://www.w3.org/2000/svg" xmlns:atv="http://webmi.atvise.com/2007/svgext" xmlns:cc="http://creativecommons.org/ns#" xmlns:dc="http://purl.org/dc/elements/1.1/" xmlns:inkscape="http://www.inkscape.org/namespaces/inkscape" xmlns:rdf="http://www.w3.org/1999/02/22-rdf-syntax-ns#" xmlns:sodipodi="http://sodipodi.sourceforge.net/DTD/sodipodi-0.dtd" xmlns:svg="http://www.w3.org/2000/svg" xmlns:xlink="http://www.w3.org/1999/xlink">
 <defs id="defs2"/>
 <sodipodi:namedview bordercolor="#666666" borderopacity="1.0" id="base" inkscape:current-layer="layer2" inkscape:cx="144.37396" inkscape:cy="0.37772838" inkscape:document-units="mm" inkscape:pageopacity="0.0" inkscape:pageshadow="2" inkscape:window-height="1017" inkscape:window-maximized="1" inkscape:window-width="1920" inkscape:window-x="1912" inkscape:window-y="114" inkscape:zoom="1.979899" pagecolor="#ffffff" showgrid="false"/>
 <metadata id="metadata5">
  <rdf:RDF>
   <cc:Work rdf:about="">
    <dc:format>image/svg+xml</dc:format>
    <dc:type rdf:resource="http://purl.org/dc/dcmitype/StillImage"/>
    <dc:title/>
   </cc:Work>
  </rdf:RDF>
  <atv:parameter behavior="optional" defaultvalue="#000000" desc="symbol color" name="symbolColor" substitute="$SYMBOLCOLOR$" valuetype="color"/>
  <atv:gridconfig enabled="false" gridstyle="lines" height="20" width="20"/>
  <atv:snapconfig enabled="false" height="10" width="10"/>
 </metadata>
 <g atv:refpx="24.5" atv:refpy="6.845" id="Logo_x5F_Text_x5F_Weiss">
  <g atv:refpx="24.5" atv:refpy="6.845" id="id_7">
   <path atv:refpx="4.03" atv:refpy="7.77" d="M3.78,11.9C2.989,11.9 2.309,11.71 1.739,11.34C1.17,10.97 0.739,10.47 0.439,9.85C0.15,9.23 0,8.53 0,7.76C0,6.979 0.16,6.27 0.49,5.65C0.82,5.03 1.29,4.54 1.9,4.18C2.51,3.82 3.24,3.64 4.09,3.64C4.9,3.64 5.609,3.82 6.199,4.18C6.789,4.54 7.249,5.02 7.569,5.63C7.9,6.23 8.06,6.92 8.06,7.68L8.06,11.7L7,11.7L7,9.94L6.95,9.94C6.81,10.25 6.59,10.559 6.3,10.86C6.01,11.16 5.66,11.41 5.24,11.61C4.83,11.8 4.34,11.9 3.78,11.9M4.01,10.97C4.59,10.97 5.1,10.83 5.54,10.55C5.98,10.27 6.33,9.88 6.59,9.39C6.85,8.9 6.97,8.34 6.96,7.73C6.96,7.12 6.84,6.58 6.6,6.11C6.359,5.64 6.029,5.26 5.6,4.98C5.17,4.7 4.66,4.56 4.059,4.56C3.439,4.56 2.909,4.699 2.469,4.979C2.029,5.27 1.69,5.65 1.45,6.14C1.21,6.629 1.1,7.19 1.1,7.8C1.1,8.379 1.21,8.91 1.44,9.39C1.67,9.87 2,10.26 2.44,10.54C2.87,10.83 3.4,10.97 4.01,10.97" fill="$SYMBOLCOLOR$" id="id_0"/>
   <path atv:refpx="12.46" atv:refpy="6.765" d="M14.46,4.76L14.46,3.82L11.54,3.82L11.54,1.84L10.46,1.84L10.46,3.82L10.46,4.76L10.46,9.45C10.46,10.139 10.66,10.69 11.05,11.09C11.45,11.49 11.99,11.69 12.69,11.69L14.42,11.69L14.42,10.75L12.91,10.75C12.46,10.75 12.11,10.63 11.88,10.38C11.65,10.13 11.53,9.78 11.53,9.33L11.53,4.76Z" fill="$SYMBOLCOLOR$" id="id_1"/>
   <path atv:refpx="19.51" atv:refpy="7.855" d="M19.5,11.88C19.19,11.88 18.92,11.79 18.69,11.61C18.46,11.43 18.27,11.16 18.13,10.81L15.43,3.83L16.63,3.83L19.12,10.44C19.18,10.57 19.24,10.67 19.31,10.73C19.37,10.79 19.44,10.82 19.53,10.82C19.6,10.82 19.67,10.79 19.72,10.73C19.78,10.67 19.83,10.57 19.88,10.44L22.4,3.83L23.59,3.83L20.86,10.83C20.73,11.18 20.54,11.44 20.31,11.62C20.06,11.79 19.8,11.88 19.5,11.88" fill="$SYMBOLCOLOR$" id="id_2"/>
   <path atv:refpx="25.69" atv:refpy="7.76" d="M25.15,11.7L25.15,3.82L26.229,3.82L26.229,11.7Z" fill="$SYMBOLCOLOR$" id="id_3"/>
   <path atv:refpx="31.485" atv:refpy="7.77" d="M28.44,11.7L28.44,10.76L32.15,10.76C32.47,10.76 32.74,10.69 32.949,10.56C33.169,10.43 33.33,10.25 33.449,10.04C33.569,9.82 33.629,9.6 33.629,9.38C33.629,9.15 33.58,8.95 33.48,8.75C33.379,8.56 33.23,8.4 33.029,8.28C32.829,8.16 32.589,8.09 32.289,8.09L30.639,8.09C30.139,8.09 29.699,8.01 29.339,7.84C28.969,7.67 28.699,7.43 28.509,7.109C28.319,6.789 28.219,6.42 28.219,5.999C28.219,5.619 28.309,5.259 28.499,4.929C28.689,4.599 28.949,4.339 29.289,4.129C29.629,3.929 30.029,3.829 30.479,3.829L34.05,3.829L34.05,4.77L30.589,4.77C30.189,4.77 29.869,4.89 29.649,5.13C29.419,5.37 29.309,5.65 29.309,5.96C29.309,6.26 29.419,6.53 29.649,6.76C29.879,7 30.219,7.12 30.669,7.12L32.209,7.12C32.769,7.12 33.23,7.21 33.609,7.4C33.989,7.59 34.269,7.84 34.459,8.17C34.649,8.5 34.749,8.89 34.749,9.33C34.749,9.73 34.649,10.12 34.439,10.48C34.229,10.85 33.949,11.14 33.599,11.37C33.239,11.6 32.829,11.71 32.359,11.71L28.44,11.71Z" fill="$SYMBOLCOLOR$" id="id_4"/>
   <path atv:refpx="39.93" atv:refpy="7.665" d="M40.67,11.7C39.83,11.7 39.07,11.54 38.41,11.229C37.75,10.919 37.22,10.469 36.84,9.879C36.45,9.29 36.26,8.59 36.26,7.759C36.26,6.999 36.41,6.309 36.72,5.679C37.03,5.059 37.46,4.559 38.03,4.189C38.59,3.819 39.25,3.629 40,3.629C40.77,3.629 41.43,3.799 41.96,4.139C42.5,4.479 42.9,4.939 43.18,5.509C43.46,6.089 43.6,6.739 43.6,7.459C43.6,7.559 43.59,7.679 43.58,7.799C43.57,7.919 43.55,8.029 43.53,8.119L37.4,8.119C37.43,8.7 37.6,9.18 37.89,9.569C38.19,9.959 38.58,10.249 39.06,10.45C39.54,10.649 40.06,10.739 40.61,10.739L42.6,10.739L42.6,11.679L40.67,11.679ZM37.4,7.36L42.5,7.36C42.5,7.15 42.48,6.93 42.44,6.67C42.4,6.42 42.32,6.17 42.22,5.92C42.11,5.67 41.96,5.45 41.769,5.24C41.58,5.03 41.339,4.87 41.04,4.74C40.75,4.61 40.39,4.55 39.97,4.55C39.58,4.55 39.22,4.63 38.9,4.8C38.58,4.96 38.309,5.18 38.1,5.46C37.89,5.74 37.72,6.03 37.6,6.36C37.47,6.68 37.41,7.02 37.4,7.36" fill="$SYMBOLCOLOR$" id="id_5"/>
   <path atv:refpx="46.89" atv:refpy="3.895" d="M46.89,6C46.6,6 46.32,5.95 46.06,5.84C45.8,5.729 45.58,5.58 45.39,5.39C45.2,5.199 45.05,4.97 44.94,4.72C44.83,4.46 44.78,4.189 44.78,3.889C44.78,3.599 44.83,3.32 44.94,3.07C45.05,2.82 45.199,2.59 45.39,2.4C45.58,2.21 45.81,2.06 46.06,1.95C46.31,1.839 46.59,1.79 46.89,1.79C47.18,1.79 47.46,1.84 47.71,1.95C47.96,2.06 48.19,2.21 48.38,2.4C48.57,2.59 48.73,2.82 48.83,3.07C48.95,3.31 49,3.58 49,3.88C49,4.17 48.95,4.45 48.84,4.71C48.73,4.97 48.58,5.189 48.39,5.38C48.2,5.57 47.97,5.72 47.72,5.83C47.46,5.94 47.18,6 46.89,6M46.89,5.76C47.15,5.76 47.39,5.71 47.62,5.609C47.849,5.51 48.05,5.379 48.22,5.209C48.39,5.039 48.519,4.839 48.62,4.609C48.72,4.379 48.769,4.14 48.769,3.879C48.769,3.619 48.72,3.379 48.62,3.149C48.519,2.919 48.39,2.719 48.22,2.549C48.05,2.379 47.85,2.239 47.62,2.149C47.39,2.05 47.15,2 46.89,2C46.63,2 46.39,2.05 46.16,2.15C45.93,2.25 45.73,2.38 45.56,2.55C45.39,2.719 45.25,2.92 45.16,3.15C45.06,3.38 45.02,3.62 45.02,3.88C45.02,4.14 45.07,4.38 45.16,4.609C45.26,4.84 45.39,5.039 45.56,5.209C45.73,5.379 45.93,5.519 46.16,5.609C46.38,5.72 46.63,5.76 46.89,5.76M46.12,4.97L46.12,2.83L47.04,2.83C47.18,2.83 47.3,2.86 47.41,2.92C47.519,2.98 47.61,3.06 47.669,3.17C47.73,3.27 47.769,3.39 47.769,3.53C47.769,3.659 47.73,3.79 47.66,3.909C47.589,4.029 47.47,4.109 47.319,4.17L47.589,4.66C47.61,4.69 47.629,4.71 47.66,4.72C47.68,4.739 47.709,4.739 47.739,4.739L47.879,4.739L47.879,4.979L47.7,4.979C47.62,4.979 47.56,4.96 47.49,4.93C47.43,4.899 47.38,4.85 47.34,4.779L47.04,4.229L46.4,4.229L46.4,4.979L46.12,4.979ZM46.4,3.97L47.019,3.97C47.139,3.97 47.249,3.93 47.339,3.85C47.43,3.77 47.48,3.66 47.48,3.51C47.48,3.39 47.43,3.29 47.339,3.21C47.249,3.13 47.139,3.09 47.01,3.09L46.4,3.09Z" fill="$SYMBOLCOLOR$" id="id_6"/>
  </g>
 </g>
 <script atv:desc="" atv:name="" type="text/ecmascript"/>
</svg>
