<?xml version='1.0' encoding='UTF-8' standalone='no'?>
<svg height="242.00999999999999" version="1.2" width="535.01999999999998" xmlns="http://www.w3.org/2000/svg" xmlns:atv="http://webmi.atvise.com/2007/svgext" xmlns:xlink="http://www.w3.org/1999/xlink">
 <defs/>
 <metadata>
  <atv:gridconfig enabled="true" gridstyle="lines" height="20" width="20"/>
  <atv:snapconfig enabled="true" height="1" width="1"/>
 </metadata>
 <g atv:insensitive="true" atv:refpx="0" atv:refpy="0" id="id_14" transform="matrix(0.7845,0,0,0.8694,0,0)">
  <rect atv:refpx="341" atv:refpy="139.19" fill="#ffffff" fill-opacity="0" height="278.38" id="id_18" width="682.00" x="0" y="0"/>
 </g>
 <script atv:desc="" atv:name="" type="text/ecmascript"><![CDATA[
webMI.addEvent("id_74", "click", function(e) {
var id = "id_74";
var value = true;
webMI.display.openWindow({display:"AGENT.OBJECTS.SCADA.Benito_Juarez.Cuencas.Cuenca_CAR_CBE.PTAR_Caribe_2000.Equipos.Scrubber_CBE.Scrubber",extern:false,height:349,menubar:false,modal:true,movable:true,resizable:true,scrollbars:false,status:false,title:"T{Scrubber}",toolbar:false,width:475,query:webMI.query});
});]]></script>
 <rect atv:refpx="267.507" atv:refpy="121.007" fill="#000018" fill-opacity="0" height="240" id="id_68" stroke="#0e1749" stroke-linecap="round" stroke-linejoin="round" stroke-width="2.015" width="533" x="1.008" y="1.008"/>
 <line atv:refpx="413" atv:refpy="49.5" id="id_40" stroke="#000000" stroke-linecap="round" stroke-linejoin="round" stroke-opacity="0.956863" stroke-width="2" x1="401" x2="427" y1="26" y2="26"/>
 <line atv:refpx="411" atv:refpy="189.5" id="id_24" stroke="#000000" stroke-linecap="round" stroke-linejoin="round" stroke-opacity="0.956863" stroke-width="2" x1="422" x2="400" y1="174" y2="174"/>
 <line atv:refpx="123.004" atv:refpy="231.608" fill="#000000" id="id_16" stroke="#000000" stroke-linecap="round" stroke-linejoin="round" stroke-width="2.015" x1="99" x2="147.007" y1="185.717" y2="185.717"/>
 <line atv:refpx="350.626" atv:refpy="82" id="id_0" stroke="#000000" stroke-linecap="round" stroke-linejoin="round" stroke-opacity="0.956863" stroke-width="2" x1="351.001" x2="351.001" y1="91" y2="73"/>
 <line atv:refpx="418.124" atv:refpy="160.75" fill="#000000" id="id_27" stroke="#000000" stroke-linecap="round" stroke-linejoin="round" stroke-width="2.015" x1="422" x2="422" y1="173.5" y2="118"/>
 <line atv:refpx="268.75" atv:refpy="73" fill="#000000" fill-opacity="0.964706" id="id_46" stroke="#000000" stroke-linecap="round" stroke-linejoin="round" stroke-width="2" x1="247.5" x2="296" y1="110.5" y2="110.5"/>
 <polygon atv:refpx="49.362" atv:refpy="192.001" fill="#000018" id="id_55" points="287.499,101.001 287.499,121.001 300.69,111.001 300.69,111.001" stroke="#000000" stroke-linecap="round" stroke-linejoin="round" stroke-opacity="0" stroke-width="2.015"/>
 <g atv:refpx="50.501" atv:refpy="158.004" id="id_61" transform="matrix(-1,0,0,-1,474.5014,478.0075)">
  <line atv:refpx="423.5" atv:refpy="532.011" fill="#000000" id="id_59" stroke="#000000" stroke-linecap="round" stroke-linejoin="round" stroke-width="2.015" x1="424" x2="424" y1="346" y2="318"/>
  <polygon atv:refpx="423" atv:refpy="489.501" fill="#000018" id="id_60" points="414,328.191 434,328.191 424,315 424,315" stroke="#000000" stroke-linecap="round" stroke-linejoin="round" stroke-opacity="0" stroke-width="2.015"/>
 </g>
 <polyline atv:refpx="224" atv:refpy="67" fill="#000018" fill-opacity="0" id="id_63" points="264,100 264,34 184,34 184,34" stroke="#000000" stroke-linecap="round" stroke-linejoin="round" stroke-opacity="0.956863" stroke-width="2"/>
 <line atv:refpx="129" atv:refpy="177.217" fill="#000000" id="id_70" stroke="#000000" stroke-linecap="round" stroke-linejoin="round" stroke-width="2.015" x1="249" x2="289" y1="185.717" y2="185.717"/>
 <polygon atv:refpx="303.31" atv:refpy="464.469" fill="#000018" id="id_71" points="287,195.717 287,175.717 300.191,185.717 300.191,185.717" stroke="#000000" stroke-linecap="round" stroke-linejoin="round" stroke-opacity="0" stroke-width="2.015"/>
 <svg atv:refpx="248.501" atv:refpy="128.999" height="63.11" id="id_1" transform="matrix(0.7519,0,0,0.7289,0,0)" width="133" x="197.499" xlink:href="ObjectTypes.PROJECT.ElementoLineaAR.Principal" y="120.731">
  <atv:argument name="base" value="AGENT.OBJECTS.SCADA.Benito_Juarez.Cuencas.Cuenca_CAR_CBE.Carcamo_18_Poniente"/>
 </svg>
 <svg atv:refpx="364.736" atv:refpy="222.713" height="63.11" id="id_2" transform="matrix(0.7519,0,0,0.7289,0,0)" width="133" x="398.656" xlink:href="ObjectTypes.PROJECT.ElementoLineaAR.Principal" y="223.237">
  <atv:argument name="base" value="AGENT.OBJECTS.SCADA.Benito_Juarez.Cuencas.Cuenca_CAR_CBE.Carcamo_2000_Oriente"/>
 </svg>
 <svg atv:refpx="244.5" atv:refpy="13.496" height="63.11" id="id_3" transform="matrix(0.7519,0,0,0.7289,0,0)" width="133" x="197.499" xlink:href="ObjectTypes.PROJECT.ElementoLineaAR.Principal" y="0.686">
  <atv:argument name="base" value="AGENT.OBJECTS.SCADA.Benito_Juarez.Cuencas.Cuenca_CAR_CBE.Carcamo_514"/>
 </svg>
 <svg atv:refpx="58.483" atv:refpy="154.713" height="63.11" id="id_4" transform="matrix(0.7519,0,0,0.7289,0,0)" width="133" x="197.499" xlink:href="ObjectTypes.PROJECT.ElementoLineaAR.Principal" y="223.237">
  <atv:argument name="base" value="AGENT.OBJECTS.SCADA.Benito_Juarez.Cuencas.Cuenca_CAR_CBE.Carcamo_Balam"/>
 </svg>
 <svg atv:refpx="375.993" atv:refpy="57.499" height="63.11" id="id_5" transform="matrix(0.7519,0,0,0.7289,0,0)" width="133" x="400.319" xlink:href="ObjectTypes.PROJECT.ElementoLineaAR.Principal" y="120.045">
  <atv:argument name="base" value="AGENT.OBJECTS.SCADA.Benito_Juarez.Cuencas.Cuenca_CAR_CBE.Carcamo_Final_95"/>
 </svg>
 <svg atv:refpx="350.994" atv:refpy="65.493" height="63.11" id="id_6" transform="matrix(0.7519,0,0,0.7289,0,0)" width="133" x="400.319" xlink:href="ObjectTypes.PROJECT.ElementoLineaAR.Principal" y="0.686">
  <atv:argument name="base" value="AGENT.OBJECTS.SCADA.Benito_Juarez.Cuencas.Cuenca_CAR_CBE.Carcamo_Final_Sur"/>
 </svg>
 <svg atv:refpx="489.994" atv:refpy="223.747" height="63.11" id="id_7" transform="matrix(0.7519,0,0,0.7289,0,0)" width="133" x="574.554" xlink:href="ObjectTypes.PROJECT.ElementoLineaAR.Principal" y="224.658">
  <atv:argument name="base" value="AGENT.OBJECTS.SCADA.Benito_Juarez.Cuencas.Cuenca_CAR_CBE.Carcamo_Poder_Judicial"/>
 </svg>
 <svg atv:refpx="54.483" atv:refpy="208.711" height="63.11" id="id_8" transform="matrix(0.7519,0,0,0.7289,0,0)" width="133" x="0.665" xlink:href="ObjectTypes.PROJECT.ElementoLineaAR.Principal" y="223.237">
  <atv:argument name="base" value="AGENT.OBJECTS.SCADA.Benito_Juarez.Cuencas.Cuenca_CAR_CBE.Carcamo_ST_Johns"/>
 </svg>
 <svg atv:refpx="50.983" atv:refpy="135.37" height="63.11" id="id_9" transform="matrix(0.7519,0,0,0.7289,0,0)" width="133" x="0.665" xlink:href="ObjectTypes.PROJECT.ElementoLineaAR.Principal" y="119.875">
  <atv:argument name="base" value="AGENT.OBJECTS.SCADA.Benito_Juarez.Cuencas.Cuenca_CAR_CBE.Carcamo_Villa_Magna"/>
 </svg>
 <svg atv:refpx="17" atv:refpy="230" height="25" id="id_38" width="25" x="0.5" xlink:href="ObjectTypes.PROJECT.Bomba.Indicador_Bomba" y="209.5">
  <atv:argument name="base" value="AGENT.OBJECTS.SCADA.Benito_Juarez.Cuencas.Cuenca_CAR_CBE.Carcamo_ST_Johns.Equipos.Bombas.Bomba_1"/>
 </svg>
 <svg atv:refpx="-84" atv:refpy="176" height="25" id="id_39" width="25" x="24.5" xlink:href="ObjectTypes.PROJECT.Bomba.Indicador_Bomba" y="209.5">
  <atv:argument name="base" value="AGENT.OBJECTS.SCADA.Benito_Juarez.Cuencas.Cuenca_CAR_CBE.Carcamo_ST_Johns.Equipos.Bombas.Bomba_2"/>
 </svg>
 <polygon atv:refpx="302" atv:refpy="489.001" fill="#000018" id="id_17" points="136.815,175.717 136.815,195.717 150.007,185.717 150.007,185.717" stroke="#000000" stroke-linecap="round" stroke-linejoin="round" stroke-opacity="0" stroke-width="2.015"/>
 <line atv:refpx="387.625" atv:refpy="110.25" id="id_21" stroke="#000000" stroke-linecap="round" stroke-linejoin="round" stroke-opacity="0.956863" stroke-width="2" x1="352" x2="423.251" y1="72" y2="72"/>
 <polygon atv:refpx="171.613" atv:refpy="220" fill="#000018" id="id_23" points="415.749,61 415.749,81 428.939,71 428.939,71" stroke="#000000" stroke-linecap="round" stroke-linejoin="round" stroke-opacity="0" stroke-width="2.015"/>
 <polygon atv:refpx="263.499" atv:refpy="92.191" fill="#000018" id="id_26" points="253.499,96.596 273.499,96.596 263.499,109.786 263.499,109.786" stroke="#000000" stroke-linecap="round" stroke-linejoin="round" stroke-opacity="0" stroke-width="2.015"/>
 <polygon atv:refpx="407.846" atv:refpy="114.5" fill="#000018" id="id_28" points="414.44,126.5 414.44,106.5 401.25,116.5 401.25,116.5" stroke="#000000" stroke-linecap="round" stroke-linejoin="round" stroke-opacity="0" stroke-width="2.015"/>
 <g atv:refpx="283.004" atv:refpy="178.5" id="id_29" transform="matrix(0,-1,1,0,84,622.5)">
  <line atv:refpx="423.5" atv:refpy="532.011" fill="#000000" id="id_30" stroke="#000000" stroke-linecap="round" stroke-linejoin="round" stroke-width="2.015" x1="424" x2="424" y1="346" y2="318"/>
  <polygon atv:refpx="423" atv:refpy="489.501" fill="#000018" id="id_31" points="414,328.191 434,328.191 424,315 424,315" stroke="#000000" stroke-linecap="round" stroke-linejoin="round" stroke-opacity="0" stroke-width="2.015"/>
 </g>
 <svg atv:refpx="313.5" atv:refpy="213" height="25" id="id_19" width="25" x="433" xlink:href="ObjectTypes.PROJECT.Bomba.Indicador_Bomba" y="210.5">
  <atv:argument name="base" value="AGENT.OBJECTS.SCADA.Benito_Juarez.Cuencas.Cuenca_CAR_CBE.Carcamo_Poder_Judicial.Equipos.Bombas.Bomba_1"/>
 </svg>
 <svg atv:refpx="337.5" atv:refpy="213" height="25" id="id_20" width="25" x="457" xlink:href="ObjectTypes.PROJECT.Bomba.Indicador_Bomba" y="210.5">
  <atv:argument name="base" value="AGENT.OBJECTS.SCADA.Benito_Juarez.Cuencas.Cuenca_CAR_CBE.Carcamo_Poder_Judicial.Equipos.Bombas.Bomba_2"/>
 </svg>
 <svg atv:refpx="361.5" atv:refpy="213" height="25" id="id_22" width="25" x="481" xlink:href="ObjectTypes.PROJECT.Bomba.Indicador_Bomba" y="210.5">
  <atv:argument name="base" value="AGENT.OBJECTS.SCADA.Benito_Juarez.Cuencas.Cuenca_CAR_CBE.Carcamo_Poder_Judicial.Equipos.Bombas.Bomba_3"/>
 </svg>
 <svg atv:refpx="173.5" atv:refpy="212" height="25" id="id_32" width="25" x="301" xlink:href="ObjectTypes.PROJECT.Bomba.Indicador_Bomba" y="209.5">
  <atv:argument name="base" value="AGENT.OBJECTS.SCADA.Benito_Juarez.Cuencas.Cuenca_CAR_CBE.Carcamo_2000_Oriente.Equipos.Bombas.Bomba_1"/>
 </svg>
 <svg atv:refpx="197.5" atv:refpy="212" height="25" id="id_33" width="25" x="325" xlink:href="ObjectTypes.PROJECT.Bomba.Indicador_Bomba" y="209.5">
  <atv:argument name="base" value="AGENT.OBJECTS.SCADA.Benito_Juarez.Cuencas.Cuenca_CAR_CBE.Carcamo_2000_Oriente.Equipos.Bombas.Bomba_2"/>
 </svg>
 <svg atv:refpx="222.5" atv:refpy="212" height="25" id="id_34" width="25" x="349" xlink:href="ObjectTypes.PROJECT.Bomba.Indicador_Bomba" y="209.5">
  <atv:argument name="base" value="AGENT.OBJECTS.SCADA.Benito_Juarez.Cuencas.Cuenca_CAR_CBE.Carcamo_2000_Oriente.Equipos.Bombas.Bomba_3"/>
 </svg>
 <svg atv:refpx="21.5" atv:refpy="212" height="25" id="id_35" width="25" x="149" xlink:href="ObjectTypes.PROJECT.Bomba.Indicador_Bomba" y="209.5">
  <atv:argument name="base" value="AGENT.OBJECTS.SCADA.Benito_Juarez.Cuencas.Cuenca_CAR_CBE.Carcamo_Balam.Equipos.Bombas.Bomba_1"/>
 </svg>
 <svg atv:refpx="45.5" atv:refpy="212" height="25" id="id_36" width="25" x="173" xlink:href="ObjectTypes.PROJECT.Bomba.Indicador_Bomba" y="209.5">
  <atv:argument name="base" value="AGENT.OBJECTS.SCADA.Benito_Juarez.Cuencas.Cuenca_CAR_CBE.Carcamo_Balam.Equipos.Bombas.Bomba_2"/>
 </svg>
 <svg atv:refpx="69.5" atv:refpy="212" height="25" id="id_37" width="25" x="197" xlink:href="ObjectTypes.PROJECT.Bomba.Indicador_Bomba" y="209.5">
  <atv:argument name="base" value="AGENT.OBJECTS.SCADA.Benito_Juarez.Cuencas.Cuenca_CAR_CBE.Carcamo_Balam.Equipos.Bombas.Bomba_3"/>
 </svg>
 <svg atv:refpx="151.5" atv:refpy="149.5" height="25" id="id_41" width="25" x="149" xlink:href="ObjectTypes.PROJECT.Bomba.Indicador_Bomba" y="135">
  <atv:argument name="base" value="AGENT.OBJECTS.SCADA.Benito_Juarez.Cuencas.Cuenca_CAR_CBE.Carcamo_18_Poniente.Equipos.Bombas.Bomba_1"/>
 </svg>
 <svg atv:refpx="175.5" atv:refpy="149.5" height="25" id="id_42" width="25" x="173" xlink:href="ObjectTypes.PROJECT.Bomba.Indicador_Bomba" y="135">
  <atv:argument name="base" value="AGENT.OBJECTS.SCADA.Benito_Juarez.Cuencas.Cuenca_CAR_CBE.Carcamo_18_Poniente.Equipos.Bombas.Bomba_2"/>
 </svg>
 <svg atv:refpx="150.5" atv:refpy="71.5" height="25" id="id_43" width="25" x="148" xlink:href="ObjectTypes.PROJECT.Bomba.Indicador_Bomba" y="47">
  <atv:argument name="base" value="AGENT.OBJECTS.SCADA.Benito_Juarez.Cuencas.Cuenca_CAR_CBE.Carcamo_514.Equipos.Bombas.Bomba_1"/>
 </svg>
 <svg atv:refpx="174.5" atv:refpy="71.5" height="25" id="id_44" width="25" x="172" xlink:href="ObjectTypes.PROJECT.Bomba.Indicador_Bomba" y="47">
  <atv:argument name="base" value="AGENT.OBJECTS.SCADA.Benito_Juarez.Cuencas.Cuenca_CAR_CBE.Carcamo_514.Equipos.Bombas.Bomba_2"/>
 </svg>
 <svg atv:refpx="198.5" atv:refpy="72.5" height="25" id="id_45" width="25" x="196" xlink:href="ObjectTypes.PROJECT.Bomba.Indicador_Bomba" y="47">
  <atv:argument name="base" value="AGENT.OBJECTS.SCADA.Benito_Juarez.Cuencas.Cuenca_CAR_CBE.Carcamo_514.Equipos.Bombas.Bomba_3"/>
 </svg>
 <svg atv:refpx="299.5" atv:refpy="150.5" height="25" id="id_47" width="25" x="302" xlink:href="ObjectTypes.PROJECT.Bomba.Indicador_Bomba" y="134">
  <atv:argument name="base" value="AGENT.OBJECTS.SCADA.Benito_Juarez.Cuencas.Cuenca_CAR_CBE.Carcamo_Final_95.Equipos.Bombas.Bomba_1"/>
 </svg>
 <svg atv:refpx="323.5" atv:refpy="151.5" height="25" id="id_48" width="25" x="326" xlink:href="ObjectTypes.PROJECT.Bomba.Indicador_Bomba" y="134">
  <atv:argument name="base" value="AGENT.OBJECTS.SCADA.Benito_Juarez.Cuencas.Cuenca_CAR_CBE.Carcamo_Final_95.Equipos.Bombas.Bomba_2"/>
 </svg>
 <svg atv:refpx="348.5" atv:refpy="150.5" height="25" id="id_49" width="25" x="350" xlink:href="ObjectTypes.PROJECT.Bomba.Indicador_Bomba" y="134">
  <atv:argument name="base" value="AGENT.OBJECTS.SCADA.Benito_Juarez.Cuencas.Cuenca_CAR_CBE.Carcamo_Final_95.Equipos.Bombas.Bomba_3"/>
 </svg>
 <svg atv:refpx="386.5" atv:refpy="150.5" height="25" id="id_50" width="25" x="374" xlink:href="ObjectTypes.PROJECT.Bomba.Indicador_Bomba" y="134">
  <atv:argument name="base" value="AGENT.OBJECTS.SCADA.Benito_Juarez.Cuencas.Cuenca_CAR_CBE.Carcamo_Final_95.Equipos.Bombas.Bomba_4"/>
 </svg>
 <svg atv:refpx="314.493" atv:refpy="98.5" height="25" id="id_52" width="25" x="301.993" xlink:href="ObjectTypes.PROJECT.Bomba.Indicador_Bomba" y="47">
  <atv:argument name="base" value="AGENT.OBJECTS.SCADA.Benito_Juarez.Cuencas.Cuenca_CAR_CBE.Carcamo_Final_Sur.Equipos.Bombas.Bomba_1"/>
 </svg>
 <svg atv:refpx="339.493" atv:refpy="99.5" height="25" id="id_53" width="25" x="325.993" xlink:href="ObjectTypes.PROJECT.Bomba.Indicador_Bomba" y="47">
  <atv:argument name="base" value="AGENT.OBJECTS.SCADA.Benito_Juarez.Cuencas.Cuenca_CAR_CBE.Carcamo_Final_Sur.Equipos.Bombas.Bomba_2"/>
 </svg>
 <svg atv:refpx="233.007" atv:refpy="44.554" height="23" id="id_10" transform="matrix(1,0,0,0.9901,0,0)" width="100" x="431.007" xlink:href="ObjectTypes.PROJECT.Caudalimetro.line_mini_AR" y="51.01">
  <atv:argument name="base" value="AGENT.OBJECTS.SCADA.Benito_Juarez.Cuencas.Cuenca_CAR_CBE.PTAR_Caribe_2000.Equipos.Caudal.Demasias"/>
 </svg>
 <rect atv:refpx="240.288" atv:refpy="24.238" fill="#00008c" height="17.822" id="id_11" rx="0" ry="0" stroke="#000072" stroke-width="1" width="99.01" x="431.495" y="33.673"/>
 <rect atv:refpx="240.288" atv:refpy="-3.092" fill="#000088" fill-opacity="0" height="32.178" id="id_56" rx="0" ry="0" stroke="#000072" stroke-width="1" width="99.01" x="431.495" y="1"/>
 <text atv:refpx="225.641" atv:refpy="-6.376" fill="#000018" font-family="Arial" font-size="40" font-weight="bold" id="id_57" transform="matrix(0.3637,0,0,0.341,293.1195,0.659)" x="465.135" y="42.5">PTAR</text>
 <text atv:refpx="481" atv:refpy="25.399" fill="#000018" font-family="Arial" font-size="40" id="id_12" transform="matrix(0.3637,0,0,0.341,276.4579,10.6708)" x="439.452" y="56.692">CARIBE 2000</text>
 <text atv:refpx="277.16" atv:refpy="25.956" fill="#ffffff" font-family="Arial" font-size="40" id="id_15" transform="matrix(0.3637,0,0,0.341,292.3105,22.191)" x="464.864" y="74.173">Demasías:</text>
 <svg atv:refpx="233.997" atv:refpy="84.158" height="23" id="id_51" transform="matrix(1,0,0,0.9901,0,0)" width="100" x="431.007" xlink:href="ObjectTypes.PROJECT.Caudalimetro.line_mini_AR" y="91.01">
  <atv:argument name="base" value="AGENT.OBJECTS.SCADA.Benito_Juarez.Cuencas.Cuenca_CAR_CBE.PTAR_Caribe_2000.Equipos.Caudal.Agua_Clorada"/>
 </svg>
 <rect atv:refpx="241.278" atv:refpy="63.842" fill="#00008c" height="17.822" id="id_54" rx="0" ry="0" stroke="#000072" stroke-width="1" width="99.01" x="431.495" y="73.277"/>
 <text atv:refpx="213.129" atv:refpy="65.56" fill="#ffffff" font-family="Arial" font-size="40" id="id_58" transform="matrix(0.3637,0,0,0.341,279.8142,48.2904)" x="445.226" y="113.777">Agua tratada:</text>
 <svg atv:refpx="480.501" atv:refpy="146.039" height="23" id="id_13" transform="matrix(0.9901,0,0,0.9901,0,0)" width="100" x="436.317" xlink:href="ObjectTypes.PROJECT.Caudalimetro.line_mini_AR" y="133.01">
  <atv:argument name="base" value="AGENT.OBJECTS.SCADA.Benito_Juarez.Cuencas.Cuenca_CAR_CBE.PTAR_Caribe_2000.Equipos.Caudal.Pretratamiento"/>
 </svg>
 <rect atv:refpx="355.015" atv:refpy="96.02" fill="#00008c" height="17.822" id="id_62" rx="0" ry="0" stroke="#000072" stroke-width="1" width="99.01" x="431.495" y="113.871"/>
 <text atv:refpx="180.188" atv:refpy="106.314" fill="#ffffff" font-family="Arial" font-size="40" id="id_64" transform="matrix(0.3561,0,0,0.3339,278.1406,75.8444)" x="437.496" y="154.371">Pretratamiento:</text>
 <svg atv:refpx="49.995" atv:refpy="28.896" height="30" id="id_74" transform="matrix(1.25,0,0,0.7667,0,0)" width="80" x="0" xlink:href="SYSTEM.LIBRARY.ATVISE.OBJECTDISPLAYS.Advanced.button_open_display" y="0.652">
  <atv:argument name="label" value="T{SCRUBBER}"/>
  <atv:argument name="fontSize" value="14"/>
  <atv:argument name="fillColor" value="SYSTEM.GLOBALS.Colors.Azul_PTAR"/>
  <atv:argument name="fontColor" value="SYSTEM.GLOBALS.Colors.Blanco"/>
  <atv:overwrite height="21.001" id="id_6" transform="matrix(0.8,0,0,1.3043,0,0)" width="98"/>
  <atv:overwrite id="button_label" transform="matrix(0.9831,0,0,1.3043,0.1831,0)" x="40.5" y="16.001"/>
  <atv:overwrite id="button_symbol" transform="matrix(0.8,0,0,1.3043,0,0)" x="40" y="1.501"/>
  <atv:overwrite height="19.001" id="button_stroke" transform="matrix(0.8,0,0,1.3043,0,0)" width="96"/>
  <atv:overwrite height="21.001" id="button_bg" transform="matrix(0.8,0,0,1.3043,0,0)" width="98"/>
  <atv:overwrite height="23.001" id="outer_frame" transform="matrix(0.8,0,0,1.3043,0,0)" width="100"/>
 </svg>
 <line atv:refpx="414" atv:refpy="132" id="id_66" stroke="#000000" stroke-linecap="round" stroke-linejoin="round" stroke-opacity="0.956863" stroke-width="2" x1="422" x2="406" y1="116.5" y2="116.5"/>
 <polygon atv:refpx="442.31" atv:refpy="296.752" fill="#000018" id="id_67" points="419,37 419,17 432.19,27 432.19,27" stroke="#000000" stroke-linecap="round" stroke-linejoin="round" stroke-opacity="0" stroke-width="2.015"/>
</svg>
