<?xml version='1.0' encoding='UTF-8' standalone='no'?>
<svg height="60" id="svg1" inkscape:version="1.3.2 (091e20e, 2023-11-25, custom)" sodipodi:docname="certificate_bearbeitet_mit_inkscape.svg" version="1.2" width="60" xmlns="http://www.w3.org/2000/svg" xmlns:atv="http://webmi.atvise.com/2007/svgext" xmlns:inkscape="http://www.inkscape.org/namespaces/inkscape" xmlns:sodipodi="http://sodipodi.sourceforge.net/DTD/sodipodi-0.dtd" xmlns:svg="http://www.w3.org/2000/svg" xmlns:xlink="http://www.w3.org/1999/xlink">
 <defs id="defs1"/>
 <sodipodi:namedview bordercolor="#000000" borderopacity="0.25" id="namedview1" inkscape:current-layer="id_16" inkscape:cx="68" inkscape:cy="2.5625" inkscape:deskcolor="#d1d1d1" inkscape:pagecheckerboard="0" inkscape:pageopacity="0.0" inkscape:showpageshadow="2" inkscape:window-height="1361" inkscape:window-maximized="1" inkscape:window-width="2560" inkscape:window-x="2391" inkscape:window-y="-9" inkscape:zoom="8" pagecolor="#ffffff" showgrid="false"/>
 <metadata id="metadata1">
  <atv:parameter behavior="optional" defaultvalue="#000000" desc="symbol color" name="symbolColor" substitute="$SYMBOLCOLOR$" valuetype="color"/>
  <atv:gridconfig enabled="false" gridstyle="lines" height="20" width="20"/>
  <atv:snapconfig enabled="false" height="10" width="10"/>
 </metadata>
 <script atv:desc="" atv:name="" type="text/ecmascript"/>
 <g atv:refpx="48.003" atv:refpy="37.47" id="id_16" inkscape:groupmode="layer" transform="matrix(3,0,0,3,120.015,20.1735)">
  <g atv:refpx="-30.006" atv:refpy="3.275" id="g127">
   <path atv:refpx="-32.919" atv:refpy="3.275" d="M-38.888,-5.516L-38.888,12.067L-27.855,12.067L-27.357,12.067L-26.949,12.067L-26.949,4.819C-27.299,4.555 -27.607,4.238 -27.859,3.877L-27.859,11.196L-38.128,11.196L-38.128,-4.786L-31.075,-4.786L-31.075,-1.659L-27.859,-1.659L-27.859,-0.79C-27.607,-1.15 -27.3,-1.469 -26.949,-1.733L-26.949,-2.522L-26.958,-2.526L-30.316,-5.465L-30.374,-5.516L-31.074,-5.516L-31.503,-5.516Z" fill="$SYMBOLCOLOR$" id="path127"/>
   <path atv:refpx="4.924" atv:refpy="4.057" d="M-37.324,-4.204L-37.324,-1.551L-32.323,-1.551L-32.323,-4.204ZM-36.324,-3.204L-33.324,-3.204L-33.324,-2.551L-36.324,-2.551Z" fill="$SYMBOLCOLOR$" id="path126"/>
   <path atv:refpx="-33.074" atv:refpy="-0.204" d="M-37.324,-0.704L-37.324,0.295L-28.824,0.295L-28.824,-0.704Z" fill="$SYMBOLCOLOR$" id="path125"/>
   <path atv:refpx="-33.074" atv:refpy="1.796" d="M-37.324,1.295L-37.324,2.295L-28.824,2.295L-28.824,1.295Z" fill="$SYMBOLCOLOR$" id="path124"/>
   <path atv:refpx="-33.074" atv:refpy="3.796" d="M-37.324,3.295L-37.324,4.295L-28.824,4.295L-28.824,3.295Z" fill="$SYMBOLCOLOR$" id="path123"/>
   <path atv:refpx="-33.074" atv:refpy="5.796" d="M-37.324,5.295L-37.324,6.295L-28.824,6.295L-28.824,5.295Z" fill="$SYMBOLCOLOR$" id="path122"/>
   <path atv:refpx="-35.074" atv:refpy="8.796" d="M-37.324,8.295L-37.324,9.295L-32.824,9.295L-32.824,8.295Z" fill="$SYMBOLCOLOR$" id="path121"/>
   <path atv:refpx="-24.531" atv:refpy="3.295" d="M-21.695,-2.1L-22.419,-1.204C-23.001,-1.664 -23.735,-1.94 -24.531,-1.94C-26.407,-1.94 -27.939,-0.408 -27.939,1.467C-27.939,2.688 -27.288,3.764 -26.318,4.366L-26.318,8.69L-24.593,6.819L-22.888,8.666L-22.888,4.452C-21.837,3.87 -21.122,2.748 -21.122,1.467C-21.122,0.607 -21.446,-0.181 -21.976,-0.782L-21.318,-1.842ZM-24.531,-0.94C-23.968,-0.94 -23.453,-0.75 -23.044,-0.43L-24.499,1.37L-25.769,0.51L-26.146,0.897L-24.351,3.047L-22.532,0.118C-22.274,0.502 -22.122,0.966 -22.122,1.467C-22.122,2.803 -23.195,3.875 -24.531,3.875C-25.866,3.875 -26.939,2.803 -26.939,1.467C-26.939,0.131 -25.866,-0.94 -24.531,-0.94M-25.318,4.782C-25.065,4.842 -24.801,4.875 -24.531,4.875C-24.311,4.875 -24.096,4.853 -23.888,4.813L-23.888,6.108L-24.593,5.344L-25.318,6.129Z" fill="$SYMBOLCOLOR$" id="path120"/>
  </g>
 </g>
</svg>
