<?xml version='1.0' encoding='UTF-8' standalone='no'?>
<svg height="40" version="1.2" width="40" xmlns="http://www.w3.org/2000/svg" xmlns:atv="http://webmi.atvise.com/2007/svgext" xmlns:xlink="http://www.w3.org/1999/xlink">
 <defs/>
 <metadata>
  <atv:parameter behavior="optional" defaultvalue="#000000" desc="symbol color" name="symbolColor" substitute="$SYMBOLCOLOR$" valuetype="color"/>
  <atv:gridconfig enabled="false" gridstyle="lines" height="20" width="20"/>
  <atv:snapconfig enabled="false" height="10" width="10"/>
 </metadata>
 <rect atv:refpx="10.253" atv:refpy="42.933" fill="$SYMBOLCOLOR$" height="3.543" id="id_20" stroke-width="0.819" width="3.543" x="4.938" y="16.455"/>
 <rect atv:refpx="20.883" atv:refpy="42.933" fill="$SYMBOLCOLOR$" height="3.543" id="id_21" stroke-width="0.819" width="3.543" x="10.254" y="16.455"/>
 <rect atv:refpx="47.09" atv:refpy="28.856" fill="$SYMBOLCOLOR$" height="3.543" id="id_22" stroke-width="0.819" width="3.543" x="15.571" y="16.455"/>
 <rect atv:refpx="63.033" atv:refpy="28.856" fill="$SYMBOLCOLOR$" height="3.543" id="id_23" stroke-width="0.819" width="3.543" x="20.886" y="16.455"/>
 <rect atv:refpx="10.253" atv:refpy="58.881" fill="$SYMBOLCOLOR$" height="3.543" id="id_24" stroke-width="0.819" width="3.543" x="4.938" y="21.772"/>
 <rect atv:refpx="20.883" atv:refpy="58.881" fill="$SYMBOLCOLOR$" height="3.543" id="id_25" stroke-width="0.819" width="3.543" x="10.254" y="21.772"/>
 <rect atv:refpx="31.514" atv:refpy="58.881" fill="$SYMBOLCOLOR$" height="3.543" id="id_26" stroke-width="0.819" width="3.543" x="15.571" y="21.772"/>
 <rect atv:refpx="94.924" atv:refpy="28.856" fill="$SYMBOLCOLOR$" height="3.543" id="id_27" stroke-width="0.819" width="3.543" x="31.518" y="16.455"/>
 <rect atv:refpx="78.981" atv:refpy="28.856" fill="$SYMBOLCOLOR$" height="3.543" id="id_28" stroke-width="0.819" width="3.543" x="26.203" y="16.455"/>
 <rect atv:refpx="10.253" atv:refpy="74.827" fill="$SYMBOLCOLOR$" height="3.543" id="id_29" stroke-width="0.819" width="3.543" x="4.938" y="27.089"/>
 <rect atv:refpx="28.858" atv:refpy="74.827" fill="$SYMBOLCOLOR$" height="3.543" id="id_30" stroke-width="0.819" width="19.491" x="10.254" y="27.089"/>
 <rect atv:refpx="94.924" atv:refpy="50.116" fill="$SYMBOLCOLOR$" height="3.543" id="id_31" stroke-width="0.819" width="3.543" x="31.518" y="27.089"/>
 <rect atv:refpx="63.033" atv:refpy="39.487" fill="$SYMBOLCOLOR$" height="3.543" id="id_32" stroke-width="0.819" width="3.543" x="20.886" y="21.772"/>
 <rect atv:refpx="94.924" atv:refpy="39.487" fill="$SYMBOLCOLOR$" height="3.543" id="id_33" stroke-width="0.819" width="3.543" x="31.518" y="21.772"/>
 <rect atv:refpx="78.981" atv:refpy="39.487" fill="$SYMBOLCOLOR$" height="3.543" id="id_34" stroke-width="0.819" width="3.543" x="26.203" y="21.772"/>
 <polyline atv:refpx="20.142" atv:refpy="19.377" fill="none" id="id_3" points="36.101,5.693 36.101,8.345 27.114,8.345 27.114,11.877 25.267,11.877 25.267,13.8 2.316,13.8 2.316,33.058 37.965,33.058 37.965,13.8 25.267,13.8" stroke="$SYMBOLCOLOR$" stroke-linejoin="miter" stroke-width="2"/>
 <script atv:desc="" atv:name="" type="text/ecmascript"/>
</svg>
