<?xml version='1.0' encoding='UTF-8' standalone='no'?>
<svg enable-background="new 0 0 16 16" height="20" id="Ebene_1" version="1.1" width="20" x="0px" xml:space="preserve" y="0px" xmlns="http://www.w3.org/2000/svg" xmlns:atv="http://webmi.atvise.com/2007/svgext" xmlns:xlink="http://www.w3.org/1999/xlink">
 <defs>
  <linearGradient gradientUnits="objectBoundingBox" id="SVGID_1_" x1="-0.290145" x2="0.792871" y1="0.136603" y2="0.639639">
   <stop offset="0" stop-color="#9d9d9c"/>
   <stop offset="1" stop-color="#3c3c3b"/>
  </linearGradient>
  <linearGradient gradientUnits="objectBoundingBox" id="SVGID_2_" x1="0.0373956" x2="0.933879" y1="0.0373166" y2="1.06773">
   <stop offset="0" stop-color="#9d9d9c"/>
   <stop offset="1" stop-color="#c3c3b"/>
  </linearGradient>
 </defs>
 <metadata>
  <atv:parameter behavior="optional" defaultvalue="#000000" desc="symbol color" name="symbolColor" substitute="$SYMBOLCOLOR$" valuetype="color"/>
  <atv:parameter behavior="optional" defaultvalue="#ffffff" desc="symbol color 2" name="symbolColor2" substitute="$SYMBOLCOLOR2$" valuetype="color"/>
  <atv:gridconfig enabled="false" gridstyle="lines" height="20" width="20"/>
  <atv:snapconfig enabled="false" height="10" width="10"/>
 </metadata>
 <path atv:refpx="17.188" atv:refpy="12.444" d="M15.532,8.854L15.52,16.032L15.576,16.032L18.845,8.977C18.876,8.909 18.826,8.856 18.735,8.856" fill="$SYMBOLCOLOR$" id="id_0" stroke-width="1.117"/>
 <path atv:refpx="7.936" atv:refpy="10.064" d="M14.72,5.679L7.284,5.679L7.284,4.181C7.284,4.085 7.206,4.008 7.109,4.008L2.019,4.008C1.923,4.008 1.845,4.085 1.845,4.181L1.845,5.679L1.149,5.679C1.053,5.679 0.976,5.757 0.976,5.853L0.976,15.943C0.976,16.04 1.053,16.117 1.149,16.117L14.72,16.117C14.818,16.117 14.895,16.04 14.895,15.943L14.895,5.853C14.895,5.757 14.818,5.679 14.72,5.679" fill="$SYMBOLCOLOR$" id="id_1" stroke-width="1.117"/>
 <rect atv:refpx="8.156" atv:refpy="9.286" fill="none" height="4.458" id="id_2" stroke="$SYMBOLCOLOR2$" stroke-width="1" width="5.724" x="5.294" y="7.058"/>
 <rect atv:refpx="8.156" atv:refpy="13.847" fill="$SYMBOLCOLOR2$" height="2.505" id="id_3" stroke="none" stroke-width="1" width="9.283" x="3.514" y="12.594"/>
 <rect atv:refpx="10.495" atv:refpy="13.402" fill="$SYMBOLCOLOR$" height="0.228" id="id_4" stroke="none" stroke-width="1" width="3.677" x="8.656" y="13.277"/>
 <circle atv:refpx="11.422" atv:refpy="14.123" cx="11.422" cy="14.123" fill="$SYMBOLCOLOR$" id="id_5" r="0.295" stroke="none" stroke-width="1"/>
 <script atv:desc="" atv:name="" type="text/ecmascript"/>
</svg>
