<?xml version='1.0' encoding='UTF-8' standalone='no'?>
<svg enable-background="new 0 0 50 50" height="20" id="Ebene_1" version="1.1" width="20" x="0px" xml:space="preserve" y="0px" xmlns="http://www.w3.org/2000/svg" xmlns:atv="http://webmi.atvise.com/2007/svgext" xmlns:xlink="http://www.w3.org/1999/xlink">
 <defs/>
 <metadata>
  <atv:parameter behavior="optional" defaultvalue="#000000" desc="symbol color" name="symbolColor" substitute="$SYMBOLCOLOR$" valuetype="color"/>
  <atv:gridconfig enabled="false" gridstyle="lines" height="20" width="20"/>
  <atv:snapconfig enabled="false" height="10" width="10"/>
 </metadata>
 <polygon atv:refpx="25.464" atv:refpy="10.741" fill="none" id="id_2" points="4.155,1 4.155,18.528 15.841,18.528 15.841,4.896 11.946,1" stroke="$SYMBOLCOLOR$" stroke-width="0.779"/>
 <polyline atv:refpx="39.515" atv:refpy="3.294" fill="$SYMBOLCOLOR$" id="id_3" points="11.751,1.344 11.751,5.24 15.646,5.24" stroke="none" stroke-width="0.779"/>
 <rect atv:refpx="21.479" atv:refpy="4.773" fill="$SYMBOLCOLOR$" height="0.566" id="id_4" stroke="none" stroke-width="0.781" width="5.298" x="5.506" y="4.49"/>
 <rect atv:refpx="21.48" atv:refpy="2.981" fill="$SYMBOLCOLOR$" height="0.566" id="id_6" stroke="none" stroke-width="0.781" width="5.298" x="5.506" y="2.698"/>
 <rect atv:refpx="9.999" atv:refpy="22.276" fill="$SYMBOLCOLOR$" height="0.566" id="id_7" stroke="none" stroke-width="0.781" width="8.987" x="5.506" y="6.28"/>
 <rect atv:refpx="10" atv:refpy="53" fill="$SYMBOLCOLOR$" height="0.566" id="id_8" stroke="none" stroke-width="0.781" width="8.987" x="5.506" y="16.522"/>
 <rect atv:refpx="10" atv:refpy="48.21" fill="$SYMBOLCOLOR$" height="0.566" id="id_9" stroke="none" stroke-width="0.781" width="8.987" x="5.506" y="14.926"/>
 <path atv:refpx="10.001" atv:refpy="10.929" d="M7.318,7.562L8.665,7.562L8.665,10.255L11.334,10.255L11.334,7.562L12.681,7.562L12.681,14.295L11.334,14.295L11.334,11.602L8.665,11.602L8.665,14.295L7.318,14.295Z" fill="$SYMBOLCOLOR$" fill-rule="evenodd" id="id_0" stroke="none" stroke-width="2"/>
 <script atv:desc="" atv:name="" type="text/ecmascript"/>
</svg>
