<?xml version='1.0' encoding='UTF-8' standalone='no'?>
<svg height="40" version="1.2" width="40" xmlns="http://www.w3.org/2000/svg" xmlns:atv="http://webmi.atvise.com/2007/svgext" xmlns:xlink="http://www.w3.org/1999/xlink">
 <defs/>
 <metadata>
  <atv:parameter behavior="optional" defaultvalue="#000000" desc="symbol color" name="symbolColor" substitute="$SYMBOLCOLOR$" valuetype="color"/>
  <atv:parameter behavior="optional" defaultvalue="SYSTEM.GLOBALS.atvFillColor" desc="symbol color" name="symbolColor2" substitute="$SYMBOLCOLOR2$" valuetype="global"/>
  <atv:gridconfig enabled="true" gridstyle="lines" height="2" width="2"/>
  <atv:snapconfig enabled="true" height="1" width="1"/>
 </metadata>
 <polyline atv:refpx="20" atv:refpy="14" fill="$SYMBOLCOLOR$" id="id_14" points="4,8 20,4 36,8 36,24 4,24 4,8 4,8" stroke="#000000" stroke-width="0"/>
 <circle atv:refpx="20" atv:refpy="24.402" cx="14.252" cy="24.402" fill="$SYMBOLCOLOR$" id="id_15" r="11.402" stroke="#000000" stroke-width="0" transform="matrix(1.4033,0,0,1,0,0)"/>
 <script atv:desc="" atv:name="" type="text/ecmascript"/>
 <circle atv:refpx="32.137" atv:refpy="13.544" cx="20.001" cy="14.823" fill="$SYMBOLCOLOR2$" id="id_0" r="4.99" stroke-width="0" transform="matrix(1,0,0,0.9153,0,0)"/>
 <path atv:refpx="27.393" atv:refpy="46.916" d="M28,29L28,21.018C28,19.549 26.699,18.357 25.092,18.357L23.588,18.357C22.568,18.999 21.332,19.376 20,19.376C18.667,19.376 17.431,18.998 16.41,18.356L14.906,18.356C13.301,18.356 12,19.549 12,21.017L12,29Z" fill="$SYMBOLCOLOR2$" id="id_1" stroke-width="0"/>
</svg>
