<?xml version='1.0' encoding='UTF-8' standalone='no'?>
<svg enable-background="new 0 0 72 72" height="40" id="Ebene_1" version="1.1" width="40" x="0px" xml:space="preserve" y="0px" xmlns="http://www.w3.org/2000/svg" xmlns:atv="http://webmi.atvise.com/2007/svgext" xmlns:xlink="http://www.w3.org/1999/xlink">
 <defs/>
 <metadata>
  <atv:parameter behavior="optional" defaultvalue="#000000" desc="symbol color" name="symbolColor" substitute="$SYMBOLCOLOR$" valuetype="color"/>
  <atv:gridconfig enabled="false" gridstyle="lines" height="20" width="20"/>
  <atv:snapconfig enabled="false" height="10" width="10"/>
 </metadata>
 <path atv:refpx="20" atv:refpy="20" d="M35.454,18.697L31.28,14.08L31.28,4.473L25.906,4.473L25.906,8.137L20.705,2.378C20.345,1.976 19.652,1.976 19.291,2.378L4.546,18.697C4.293,18.976 4.23,19.379 4.381,19.725C4.534,20.067 4.877,20.291 5.252,20.291L8.189,20.291L8.189,36.97C8.189,37.497 8.614,37.923 9.143,37.923L30.756,37.923C31.281,37.923 31.711,37.497 31.711,36.97L31.711,20.291L34.745,20.291C35.121,20.291 35.464,20.067 35.617,19.725C35.771,19.378 35.707,18.976 35.454,18.697" fill="$SYMBOLCOLOR$" id="id_0"/>
 <script atv:desc="" atv:name="" type="text/ecmascript"/>
</svg>
