<?xml version='1.0' encoding='UTF-8' standalone='no'?>
<svg height="890" version="1.2" width="1675" xmlns="http://www.w3.org/2000/svg" xmlns:atv="http://webmi.atvise.com/2007/svgext" xmlns:xlink="http://www.w3.org/1999/xlink">
 <defs/>
 <desc>Overview and management display for Users and Groups.</desc>
 <title>User Manager</title>
 <metadata>
  <atv:parameter behavior="optional" config="Arial;Courier;Tahoma;Verdana" defaultvalue="Arial" desc="font family" group="Font" name="font_family" valuetype="enum"/>
  <atv:parameter behavior="optional" defaultvalue="SYSTEM.GLOBALS.atvFontColor" desc="font color" group="Font" name="globalFontColor" substitute="$FONTCOLOR$" valuetype="global"/>
  <atv:parameter behavior="optional" defaultvalue="12" desc="table header font size" group="Font" name="header_font_size" valuetype="number"/>
  <atv:parameter behavior="optional" defaultvalue="SYSTEM.GLOBALS.atvBorderColor" desc="border color" group="Appearance" name="globalBorderColor" valuetype="global"/>
  <atv:parameter behavior="optional" defaultvalue="SYSTEM.GLOBALS.atvFillColor" desc="fill color" group="Appearance" name="globalFillColor" substitute="$FILLCOLOR$" valuetype="global"/>
  <atv:parameter behavior="mandatory" config="Groups;Users" defaultvalue="Users" desc="current table" name="buttonToHighlight" valuetype="enum"/>
  <atv:parameter behavior="optional" defaultvalue="#d7d7d7" desc="button background" group="Appearance" name="btn_button_bg" valuetype="color"/>
  <atv:gridconfig enabled="false" gridstyle="lines" height="10" width="10"/>
  <atv:snapconfig enabled="true" height="10" width="10"/>
 </metadata>
 <rect atv:refpx="838.884" atv:refpy="57.463" fill="$FILLCOLOR$" height="117.946" id="id_2" stroke="none" stroke-width="2" width="1677.458" x="0.155" y="0"/>
 <svg atv:refpx="252.079" atv:refpy="97.01" height="30" id="btn_groups" transform="matrix(1.802,0,0,1.529,0,0)" width="80" x="99.889" xlink:href="SYSTEM.LIBRARY.ATVISE.OBJECTDISPLAYS.Advanced.button" y="42.202">
  <atv:argument name="label" value="T{Groups}"/>
  <atv:argument name="tabIndex" value="1"/>
  <atv:overwrite id="id_2" transform="matrix(0.8889,0,0,1,0,0)" width="84.5"/>
  <atv:overwrite id="id_0" transform="matrix(0.8889,0,0,1,0,0)" width="89.5"/>
  <atv:argument name="extraBorderColor" value="#ffffff"/>
  <atv:argument name="fontSize" value="16"/>
  <atv:argument name="fontSize2" value="16"/>
  <atv:overwrite height="43.87" id="id_6" transform="matrix(0.5549,0,0,0.654,0,0)" width="142.16"/>
  <atv:overwrite id="button_label_2" transform="matrix(0.5549,0,0,0.654,0,0)" x="72.08" y="34.435"/>
  <atv:overwrite id="button_label_1" transform="matrix(0.5549,0,0,0.654,0,0)" x="72.08" y="19.435"/>
  <atv:overwrite id="button_label" transform="matrix(0.5549,0,0,0.654,0,0)" x="72.08" y="27.435"/>
  <atv:overwrite id="button_symbol_bottom" transform="matrix(0.333,0,0,0.3924,0,0)" x="109.967" y="39.517"/>
  <atv:overwrite id="button_symbol_top" transform="matrix(0.333,0,0,0.3924,0,0)" x="109.967" y="18.184"/>
  <atv:overwrite id="button_symbol" transform="matrix(0.5549,0,0,0.654,0,0)" x="62.08" y="12.935"/>
  <atv:overwrite height="41.87" id="button_stroke" transform="matrix(0.5549,0,0,0.654,0,0)" width="140.16"/>
  <atv:overwrite height="43.87" id="button_bg" transform="matrix(0.5549,0,0,0.654,0,0)" width="142.16"/>
  <atv:overwrite height="45.87" id="outer_frame" transform="matrix(0.5549,0,0,0.654,0,0)" width="144.16"/>
 </svg>
 <svg atv:refpx="93.072" atv:refpy="97.01" height="30" id="btn_users" transform="matrix(1.802,0,0,1.529,0,0)" width="80" x="11.654" xlink:href="SYSTEM.LIBRARY.ATVISE.OBJECTDISPLAYS.Advanced.button" y="42.202">
  <atv:argument name="label" value="T{Users}"/>
  <atv:argument name="tabIndex" value="2"/>
  <atv:overwrite id="id_2" transform="matrix(0.8889,0,0,1,0,0)" width="84.5"/>
  <atv:overwrite id="id_0" transform="matrix(0.8889,0,0,1,0,0)" width="89.5"/>
  <atv:argument name="extraBorderColor" value="#ffffff"/>
  <atv:argument name="fontSize" value="16"/>
  <atv:argument name="fontSize2" value="16"/>
  <atv:overwrite height="43.87" id="id_6" transform="matrix(0.5549,0,0,0.654,0,0)" width="142.16"/>
  <atv:overwrite id="button_label_2" transform="matrix(0.5549,0,0,0.654,0,0)" x="72.08" y="34.435"/>
  <atv:overwrite id="button_label_1" transform="matrix(0.5549,0,0,0.654,0,0)" x="72.08" y="19.435"/>
  <atv:overwrite id="button_label" transform="matrix(0.5549,0,0,0.654,0,0)" x="72.08" y="27.435"/>
  <atv:overwrite id="button_symbol_bottom" transform="matrix(0.333,0,0,0.3924,0,0)" x="109.967" y="39.517"/>
  <atv:overwrite id="button_symbol_top" transform="matrix(0.333,0,0,0.3924,0,0)" x="109.967" y="18.184"/>
  <atv:overwrite id="button_symbol" transform="matrix(0.5549,0,0,0.654,0,0)" x="62.08" y="12.935"/>
  <atv:overwrite height="41.87" id="button_stroke" transform="matrix(0.5549,0,0,0.654,0,0)" width="140.16"/>
  <atv:overwrite height="43.87" id="button_bg" transform="matrix(0.5549,0,0,0.654,0,0)" width="142.16"/>
  <atv:overwrite height="45.87" id="outer_frame" transform="matrix(0.5549,0,0,0.654,0,0)" width="144.16"/>
 </svg>
 <text atv:refpx="154.173" atv:refpy="32.3833" fill="$FONTCOLOR$" font-family="Arial" font-size="22" id="title" text-anchor="start" transform="matrix(1.3105,0,0,1.3105,-4.7381,-3.1375)" x="19.26" y="34.605">T{User management}</text>
 <svg atv:refpx="1583.429" atv:refpy="95.01" height="30" id="btn_save" transform="matrix(1.802,0,0,1.529,0,0)" width="80" x="838.728" xlink:href="SYSTEM.LIBRARY.ATVISE.OBJECTDISPLAYS.Advanced.button" y="42.202">
  <atv:argument name="label" value="T{Save}"/>
  <atv:argument name="tabIndex" value="1"/>
  <atv:overwrite id="id_2" transform="matrix(0.8889,0,0,1,0,0)" width="84.5"/>
  <atv:overwrite id="id_0" transform="matrix(0.8889,0,0,1,0,0)" width="89.5"/>
  <atv:argument name="extraBorderColor" value="#ffffff"/>
  <atv:argument name="fontSize" value="16"/>
  <atv:argument name="fontSize2" value="16"/>
  <atv:overwrite height="43.87" id="id_6" transform="matrix(0.5549,0,0,0.654,0,0)" width="142.16"/>
  <atv:overwrite id="button_label_2" transform="matrix(0.5549,0,0,0.654,0,0)" x="72.08" y="34.435"/>
  <atv:overwrite id="button_label_1" transform="matrix(0.5549,0,0,0.654,0,0)" x="72.08" y="19.435"/>
  <atv:overwrite id="button_label" transform="matrix(0.5549,0,0,0.654,0,0)" x="72.08" y="27.435"/>
  <atv:overwrite id="button_symbol_bottom" transform="matrix(0.333,0,0,0.3924,0,0)" x="109.967" y="39.517"/>
  <atv:overwrite id="button_symbol_top" transform="matrix(0.333,0,0,0.3924,0,0)" x="109.967" y="18.184"/>
  <atv:overwrite id="button_symbol" transform="matrix(0.5549,0,0,0.654,0,0)" x="62.08" y="12.935"/>
  <atv:overwrite height="41.87" id="button_stroke" transform="matrix(0.5549,0,0,0.654,0,0)" width="140.16"/>
  <atv:overwrite height="43.87" id="button_bg" transform="matrix(0.5549,0,0,0.654,0,0)" width="142.16"/>
  <atv:overwrite height="45.87" id="outer_frame" transform="matrix(0.5549,0,0,0.654,0,0)" width="144.16"/>
 </svg>
 <svg atv:refpx="840" atv:refpy="505.5" height="600" id="manager_frame" transform="matrix(2.1,0,0,1.285,0,0)" width="800" x="0" xlink:href="SYSTEM.LIBRARY.ATVISE.OBJECTDISPLAYS.Advanced.hmi.iframe" y="93.385">
  <atv:argument name="frameName" value="manager_frame"/>
  <atv:argument name="url" value="about:blank"/>
 </svg>
 <text atv:refpx="465.153" atv:refpy="493" fill="#d60003" font-family="Arial" font-size="36" id="no_access" text-anchor="middle" visibility="hidden" x="842" y="497.5">T{Permission(s) missing for user management}</text>
 <script atv:desc="" atv:href="SYSTEM.LIBRARY.PROJECT.DISPLAYSCRIPTS.usermanagement.global_list_handling" atv:name="" atv:type="text/ecmascript"/>
 <script atv:desc="" atv:href="SYSTEM.LIBRARY.PROJECT.DISPLAYSCRIPTS.usermanagement.user_management" atv:name="User Management" atv:type="text/ecmascript"/>
 <script atv:desc="" atv:name="" type="text/ecmascript"/>
</svg>
