<?xml version='1.0' encoding='UTF-8' standalone='no'?>
<svg height="630" version="1.2" width="1013" xmlns="http://www.w3.org/2000/svg" xmlns:atv="http://webmi.atvise.com/2007/svgext" xmlns:xlink="http://www.w3.org/1999/xlink">
 <desc>Dialog for creating self-signed certificates.</desc>
 <title>Create Certificate</title>
 <defs>
  <linearGradient gradientUnits="objectBoundingBox" id="linear_0" x1="0" x2="1" y1="0" y2="1">
   <stop offset="0" stop-color="#a5a5a5"/>
   <stop offset="1" stop-color="#a5a5a5" stop-opacity="0"/>
  </linearGradient>
  <linearGradient gradientUnits="objectBoundingBox" id="linear_1" x1="0" x2="1" y1="0" y2="1">
   <stop offset="0" stop-color="#000000"/>
   <stop offset="1" stop-color="#000000" stop-opacity="0"/>
  </linearGradient>
 </defs>
 <rect atv:refpx="506.5" atv:refpy="314.792" fill="$FILLCOLOR$" height="630" id="background" stroke="none" stroke-width="0" width="1013" x="0" y="-0.208"/>
 <rect atv:refpx="197.929" atv:refpy="12" fill="#ffffff" height="40" id="user_background" rx="7.692" ry="8" stroke="none" stroke-width="0" width="300" x="356.5" y="48"/>
 <metadata>
  <atv:parameter behavior="optional" defaultvalue="T{Endpoint Certificate}" desc="headline" name="headline" substitute="$HEADLINE$" valuetype="trstring"/>
  <atv:parameter behavior="optional" defaultvalue="SYSTEM.LIBRARY.ATVISE.OBJECTDISPLAYS.Symbols.20x20.user" desc="symbol" name="symbol" substitute="$SYMBOL$" valuetype="display"/>
  <atv:parameter behavior="optional" defaultvalue="SYSTEM.LIBRARY.ATVISE.OBJECTDISPLAYS.Advanced.keyboard.keyboard" desc="keyboard display" name="keyboard" valuetype="display"/>
  <atv:parameter behavior="optional" defaultvalue="SYSTEM.GLOBALS.atvFontColor" desc="font color" name="fontColor" substitute="$FONTCOLOR$" valuetype="global"/>
  <atv:parameter behavior="optional" defaultvalue="SYSTEM.GLOBALS.atvFillColor" desc="fill color" name="fillColor" substitute="$FILLCOLOR$" valuetype="global"/>
  <atv:parameter behavior="optional" defaultvalue="SYSTEM.GLOBALS.atvSymbolColor" desc="symbol color" name="symbolColor" substitute="$SYMBOLCOLOR$" valuetype="global"/>
  <atv:parameter behavior="optional" defaultvalue="" desc="certificate description" name="certificate_description" substitute="$CERTIFICATE_DESCRIPTION$" valuetype="string"/>
  <atv:parameter behavior="optional" defaultvalue="" desc="path to store" name="pathToStore" substitute="$PATH_TO_STORE$" valuetype="string"/>
  <atv:parameter behavior="optional" defaultvalue="" desc="path to cert.ini" name="pathToCertIni" substitute="$PATH_TO_CERT_INI$" valuetype="string"/>
  <atv:gridconfig enabled="false" gridstyle="lines" height="20" width="20"/>
  <atv:snapconfig enabled="true" height="1" width="1"/>
 </metadata>
 <rect atv:refpx="-234.242" atv:refpy="55" fill="#ffffff" fill-opacity="0.498039" height="50" id="password_background" rx="12.333" ry="10" stroke="none" stroke-width="0" width="481" x="20" y="170"/>
 <rect atv:refpx="260.5" atv:refpy="185" fill="#ffffff" fill-opacity="0.498039" height="50" id="fullname_background" rx="12.333" ry="10" stroke="none" stroke-width="0" width="481" x="20" y="230"/>
 <rect atv:refpx="4.286" atv:refpy="115" fill="none" height="50" id="id_1" rx="5.961" ry="5.961" stroke="none" stroke-width="0" width="200" x="110" y="160"/>
 <svg atv:dynamic="true" atv:refpx="372" atv:refpy="522.5" height="30" id="save_button" width="80" x="416.5" xlink:href="SYSTEM.LIBRARY.ATVISE.OBJECTDISPLAYS.Advanced.button" y="577.5">
  <atv:argument name="label" value="T{Save}"/>
  <atv:argument name="tabIndex" value="31"/>
  <atv:argument name="borderVisible" value="true"/>
  <atv:argument name="extraBorderColor" value="#ffffff"/>
 </svg>
 <svg atv:dynamic="true" atv:refpx="472" atv:refpy="522.5" height="30" id="cancel_button" width="80" x="516.5" xlink:href="SYSTEM.LIBRARY.ATVISE.OBJECTDISPLAYS.Advanced.button" y="577.5">
  <atv:argument name="label" value="T{Cancel}"/>
  <atv:argument name="tabIndex" value="32"/>
  <atv:argument name="borderVisible" value="true"/>
  <atv:argument name="extraBorderColor" value="#ffffff"/>
 </svg>
 <text atv:refpx="50.427" atv:refpy="255" fill="$FONTCOLOR$" font-family="Arial" font-size="16" id="fullname_label" x="35.5" y="261">T{cert.ini}</text>
 <text atv:refpx="82.78" atv:refpy="195" fill="$FONTCOLOR$" font-family="Arial" font-size="16" id="password_label" x="34.5" y="201">T{Certificate Store}</text>
 <text atv:refpx="494.971" atv:refpy="29" fill="$FONTCOLOR$" font-family="Arial" font-size="20" id="headline" text-anchor="middle" x="506.5" y="33.5">T{Create Certificate}</text>
 <rect atv:refpx="-234.242" atv:refpy="235" fill="#ffffff" fill-opacity="0.498039" height="50" id="default_background" rx="12.333" ry="10" stroke="none" stroke-width="0" width="481" x="20" y="350"/>
 <text atv:refpx="89.306" atv:refpy="375" fill="$FONTCOLOR$" font-family="Arial" font-size="16" id="default_label" x="34.188" y="381">T{DNS names (DNS)}</text>
 <svg atv:refpx="422.274" atv:refpy="305" height="30" id="in_out_dns_name" transform="matrix(1.575,0,0,1,0,0)" width="160" x="151.746" xlink:href="SYSTEM.LIBRARY.ATVISE.OBJECTDISPLAYS.Advanced.in_out_value" y="360">
  <atv:argument name="validation" value="String"/>
  <atv:argument name="tabIndex" value="3"/>
  <atv:overwrite id="id_0" transform="matrix(0.7273,0,0,1,0,0)" width="220"/>
  <atv:argument name="tooltip" value="$COM.ATVISE.SELF_VALUE$"/>
  <atv:argument name="editable" value="No"/>
  <atv:overwrite id="input_label" transform="matrix(0.6349,0,0,1,0,0)" x="244.055"/>
  <atv:overwrite id="blinking_frame" transform="matrix(0.6349,0,0,1,0,0)" width="244"/>
  <atv:overwrite id="focus_frame" transform="matrix(0.6349,0,0,1,0,0)" width="248"/>
  <atv:overwrite id="input_bg" transform="matrix(0.6349,0,0,1,0,0)" width="244"/>
  <atv:overwrite id="id_1" transform="matrix(0.6349,0,0,1,0,0)" width="250"/>
  <atv:overwrite id="input_border" transform="matrix(0.6349,0,0,1,0,0)" width="252"/>
 </svg>
 <rect atv:refpx="-14.009" atv:refpy="65" fill="#ffffff" height="50" id="language_background" rx="8.014" ry="10" stroke="none" stroke-width="0" width="561" x="226" y="110"/>
 <text atv:refpx="285.652" atv:refpy="135" fill="$FONTCOLOR$" font-family="Arial" font-size="16" font-weight="bold" id="language_label" x="240" y="141">T{Common name (CN)}</text>
 <svg atv:refpx="683.468" atv:refpy="135" height="30" id="in_out_common_name" transform="matrix(2.1437,0,0,1,0,0)" width="160" x="202.449" xlink:href="SYSTEM.LIBRARY.ATVISE.OBJECTDISPLAYS.Advanced.in_out_value" y="120">
  <atv:argument name="validation" value="String"/>
  <atv:argument name="tabIndex" value="1"/>
  <atv:overwrite id="id_0" transform="matrix(0.7273,0,0,1,0,0)" width="220"/>
  <atv:overwrite id="input_label" transform="matrix(0.4665,0,0,1,0,0)" x="335.055"/>
  <atv:overwrite id="blinking_frame" transform="matrix(0.4665,0,0,1,0,0)" width="335"/>
  <atv:overwrite id="focus_frame" transform="matrix(0.4665,0,0,1,0,0)" width="339"/>
  <atv:overwrite id="input_bg" transform="matrix(0.4665,0,0,1,0,0)" width="335"/>
  <atv:overwrite id="id_1" transform="matrix(0.4665,0,0,1,0,0)" width="341"/>
  <atv:overwrite id="input_border" transform="matrix(0.4665,0,0,1,0,0)" width="343"/>
 </svg>
 <rect atv:refpx="-234.242" atv:refpy="294" fill="#ffffff" fill-opacity="0.498039" height="50" id="content_background" rx="12.333" ry="10" stroke="none" stroke-width="0" width="481" x="20" y="409"/>
 <text atv:refpx="65.204" atv:refpy="435" fill="$FONTCOLOR$" font-family="Arial" font-size="16" id="content_label" x="34.5" y="441">T{IP addresses (IP)}</text>
 <text atv:refpx="519.927" atv:refpy="70" fill="$FONTCOLOR$" font-family="Arial" font-size="18" id="certificate_description" text-anchor="middle" x="506.5" y="74.5">$CERTIFICATE_DESCRIPTION$</text>
 <text atv:refpx="528.5" atv:refpy="552.5" fill="#ff0004" font-family="Arial" font-size="14" font-weight="bold" id="error_message" text-anchor="middle" visibility="hidden" x="506.5" y="557">&lt;errormessage></text>
 <image atv:refpx="763.764" atv:refpy="315.082" height="0" id="qr_image" width="0" x="650" xlink:href="" y="240"/>
 <svg atv:refpx="59" atv:refpy="51" height="20" id="id_4" transform="matrix(4,0,0,4,0,0)" width="20" x="4" xlink:href="SYSTEM.LIBRARY.ATVISE.OBJECTDISPLAYS.Symbols.20x20.certificate" y="2.75">
  <atv:argument name="symbolColor" prefix="symbolColor"/>
 </svg>
 <svg atv:refpx="422.273" atv:refpy="365" height="30" id="in_out_ip_address" transform="matrix(1.575,0,0,1,0,0)" width="160" x="151.746" xlink:href="SYSTEM.LIBRARY.ATVISE.OBJECTDISPLAYS.Advanced.in_out_value" y="420">
  <atv:argument name="validation" value="String"/>
  <atv:argument name="tabIndex" value="4"/>
  <atv:overwrite id="id_0" transform="matrix(0.7273,0,0,1,0,0)" width="220"/>
  <atv:argument name="editable" value="No"/>
  <atv:argument name="tooltip" value="$COM.ATVISE.SELF_VALUE$"/>
  <atv:overwrite id="input_label" transform="matrix(0.6349,0,0,1,0,0)" x="244.055"/>
  <atv:overwrite id="blinking_frame" transform="matrix(0.6349,0,0,1,0,0)" width="244"/>
  <atv:overwrite id="focus_frame" transform="matrix(0.6349,0,0,1,0,0)" width="248"/>
  <atv:overwrite id="input_bg" transform="matrix(0.6349,0,0,1,0,0)" width="244"/>
  <atv:overwrite id="id_1" transform="matrix(0.6349,0,0,1,0,0)" width="250"/>
  <atv:overwrite id="input_border" transform="matrix(0.6349,0,0,1,0,0)" width="252"/>
 </svg>
 <rect atv:refpx="257.758" atv:refpy="55" fill="#ffffff" fill-opacity="0.498039" height="50" id="id_40" rx="12.333" ry="10" stroke="none" stroke-width="0" width="481" x="512" y="170"/>
 <rect atv:refpx="257.758" atv:refpy="115" fill="#ffffff" fill-opacity="0.498039" height="50" id="id_41" rx="12.333" ry="10" stroke="none" stroke-width="0" width="481" x="512" y="230"/>
 <rect atv:refpx="257.758" atv:refpy="175" fill="#ffffff" fill-opacity="0.498039" height="50" id="id_42" rx="12.333" ry="10" stroke="none" stroke-width="0" width="481" x="512" y="290"/>
 <rect atv:refpx="257.758" atv:refpy="235" fill="#ffffff" fill-opacity="0.498039" height="50" id="id_43" rx="12.333" ry="10" stroke="none" stroke-width="0" width="481" x="512" y="350"/>
 <rect atv:refpx="257.758" atv:refpy="295" fill="#ffffff" fill-opacity="0.498039" height="50" id="id_44" rx="12.333" ry="10" stroke="none" stroke-width="0" width="481" x="512" y="410"/>
 <svg atv:refpx="914.274" atv:refpy="125" height="30" id="in_out_organization" transform="matrix(1.575,0,0,1,0,0)" width="160" x="464.127" xlink:href="SYSTEM.LIBRARY.ATVISE.OBJECTDISPLAYS.Advanced.in_out_value" y="180">
  <atv:argument name="validation" value="String"/>
  <atv:argument name="tabIndex" value="10"/>
  <atv:overwrite id="id_0" transform="matrix(0.7273,0,0,1,0,0)" width="220"/>
  <atv:argument name="editable" value="No"/>
  <atv:argument name="tooltip" value="$COM.ATVISE.SELF_VALUE$"/>
  <atv:overwrite id="input_label" transform="matrix(0.6349,0,0,1,0,0)" x="244.055"/>
  <atv:overwrite id="blinking_frame" transform="matrix(0.6349,0,0,1,0,0)" width="244"/>
  <atv:overwrite id="focus_frame" transform="matrix(0.6349,0,0,1,0,0)" width="248"/>
  <atv:overwrite id="input_bg" transform="matrix(0.6349,0,0,1,0,0)" width="244"/>
  <atv:overwrite id="id_1" transform="matrix(0.6349,0,0,1,0,0)" width="250"/>
  <atv:overwrite id="input_border" transform="matrix(0.6349,0,0,1,0,0)" width="252"/>
 </svg>
 <svg atv:refpx="914.274" atv:refpy="185" height="30" id="in_out_organizational_unit" transform="matrix(1.575,0,0,1,0,0)" width="160" x="464.127" xlink:href="SYSTEM.LIBRARY.ATVISE.OBJECTDISPLAYS.Advanced.in_out_value" y="240">
  <atv:argument name="validation" value="String"/>
  <atv:argument name="tabIndex" value="11"/>
  <atv:overwrite id="id_0" transform="matrix(0.7273,0,0,1,0,0)" width="220"/>
  <atv:argument name="editable" value="No"/>
  <atv:argument name="tooltip" value="$COM.ATVISE.SELF_VALUE$"/>
  <atv:overwrite id="input_label" transform="matrix(0.6349,0,0,1,0,0)" x="244.055"/>
  <atv:overwrite id="blinking_frame" transform="matrix(0.6349,0,0,1,0,0)" width="244"/>
  <atv:overwrite id="focus_frame" transform="matrix(0.6349,0,0,1,0,0)" width="248"/>
  <atv:overwrite id="input_bg" transform="matrix(0.6349,0,0,1,0,0)" width="244"/>
  <atv:overwrite id="id_1" transform="matrix(0.6349,0,0,1,0,0)" width="250"/>
  <atv:overwrite id="input_border" transform="matrix(0.6349,0,0,1,0,0)" width="252"/>
 </svg>
 <svg atv:refpx="914.276" atv:refpy="245" height="30" id="in_out_locality" transform="matrix(1.575,0,0,1,0,0)" width="160" x="464.127" xlink:href="SYSTEM.LIBRARY.ATVISE.OBJECTDISPLAYS.Advanced.in_out_value" y="300">
  <atv:argument name="validation" value="String"/>
  <atv:argument name="tabIndex" value="12"/>
  <atv:overwrite id="id_0" transform="matrix(0.7273,0,0,1,0,0)" width="220"/>
  <atv:argument name="tooltip" value="$COM.ATVISE.SELF_VALUE$"/>
  <atv:argument name="editable" value="No"/>
  <atv:overwrite id="input_label" transform="matrix(0.6349,0,0,1,0,0)" x="244.055"/>
  <atv:overwrite id="blinking_frame" transform="matrix(0.6349,0,0,1,0,0)" width="244"/>
  <atv:overwrite id="focus_frame" transform="matrix(0.6349,0,0,1,0,0)" width="248"/>
  <atv:overwrite id="input_bg" transform="matrix(0.6349,0,0,1,0,0)" width="244"/>
  <atv:overwrite id="id_1" transform="matrix(0.6349,0,0,1,0,0)" width="250"/>
  <atv:overwrite id="input_border" transform="matrix(0.6349,0,0,1,0,0)" width="252"/>
 </svg>
 <svg atv:refpx="914.274" atv:refpy="305" height="30" id="in_out_state" transform="matrix(1.575,0,0,1,0,0)" width="160" x="464.127" xlink:href="SYSTEM.LIBRARY.ATVISE.OBJECTDISPLAYS.Advanced.in_out_value" y="360">
  <atv:argument name="validation" value="String"/>
  <atv:argument name="tabIndex" value="13"/>
  <atv:overwrite id="id_0" transform="matrix(0.7273,0,0,1,0,0)" width="220"/>
  <atv:argument name="editable" value="No"/>
  <atv:argument name="tooltip" value="$COM.ATVISE.SELF_VALUE$"/>
  <atv:overwrite id="input_label" transform="matrix(0.6349,0,0,1,0,0)" x="244.055"/>
  <atv:overwrite id="blinking_frame" transform="matrix(0.6349,0,0,1,0,0)" width="244"/>
  <atv:overwrite id="focus_frame" transform="matrix(0.6349,0,0,1,0,0)" width="248"/>
  <atv:overwrite id="input_bg" transform="matrix(0.6349,0,0,1,0,0)" width="244"/>
  <atv:overwrite id="id_1" transform="matrix(0.6349,0,0,1,0,0)" width="250"/>
  <atv:overwrite id="input_border" transform="matrix(0.6349,0,0,1,0,0)" width="252"/>
 </svg>
 <svg atv:refpx="914.274" atv:refpy="365" height="30" id="in_out_country" transform="matrix(1.575,0,0,1,0,0)" width="160" x="464.127" xlink:href="SYSTEM.LIBRARY.ATVISE.OBJECTDISPLAYS.Advanced.in_out_value" y="420">
  <atv:argument name="validation" value="String"/>
  <atv:argument name="tabIndex" value="14"/>
  <atv:overwrite id="id_0" transform="matrix(0.7273,0,0,1,0,0)" width="220"/>
  <atv:argument name="editable" value="No"/>
  <atv:argument name="tooltip" value="$COM.ATVISE.SELF_VALUE$"/>
  <atv:overwrite id="input_label" transform="matrix(0.6349,0,0,1,0,0)" x="244.055"/>
  <atv:overwrite id="blinking_frame" transform="matrix(0.6349,0,0,1,0,0)" width="244"/>
  <atv:overwrite id="focus_frame" transform="matrix(0.6349,0,0,1,0,0)" width="248"/>
  <atv:overwrite id="input_bg" transform="matrix(0.6349,0,0,1,0,0)" width="244"/>
  <atv:overwrite id="id_1" transform="matrix(0.6349,0,0,1,0,0)" width="250"/>
  <atv:overwrite id="input_border" transform="matrix(0.6349,0,0,1,0,0)" width="252"/>
 </svg>
 <text atv:refpx="562.524" atv:refpy="195" fill="$FONTCOLOR$" font-family="Arial" font-size="16" id="id_50" x="525.5" y="201">T{Organization (O)}</text>
 <text atv:refpx="575.933" atv:refpy="255" fill="$FONTCOLOR$" font-family="Arial" font-size="16" id="id_51" x="525.5" y="261">T{Organizational unit (OU)}</text>
 <text atv:refpx="548.016" atv:refpy="318.256" fill="$FONTCOLOR$" font-family="Arial" font-size="16" id="id_52" x="525.5" y="321">T{Locality (L)}</text>
 <text atv:refpx="540.464" atv:refpy="375" fill="$FONTCOLOR$" font-family="Arial" font-size="16" id="id_53" x="525.5" y="381">T{State/Province (ST)}</text>
 <text atv:refpx="547.885" atv:refpy="435.5" fill="$FONTCOLOR$" font-family="Arial" font-size="16" id="id_54" x="526" y="441.5">T{Country (C)}</text>
 <g atv:refpx="1186.5" atv:refpy="206" id="id_11" transform="matrix(1,0,0,1,1136,-324)">
  <rect atv:refpx="10" atv:refpy="532" fill="#000000" fill-opacity="0.0980392" height="20" id="id_59" stroke="none" stroke-width="0" width="20" x="0" y="520"/>
  <text atv:refpx="63" atv:refpy="530" fill="#000000" font-family="Arial" font-size="16" font-weight="bold" id="id_63" text-anchor="end" x="97" y="535.5">20x20 px</text>
 </g>
 <text atv:refpx="406.259" atv:refpy="193.5" fill="$FONTCOLOR$" font-family="Arial" font-size="13" id="label_store_path" text-anchor="end" x="486.5" y="199.5">$PATH_TO_STORE$</text>
 <text atv:refpx="396.957" atv:refpy="254.5" fill="$FONTCOLOR$" font-family="Arial" font-size="13" id="label_cert_ini_path" text-anchor="end" x="486.5" y="260.5">$PATH_TO_CERT_INI$</text>
 <script atv:desc="" atv:href="SYSTEM.LIBRARY.ATVISE.DISPLAYSCRIPTS.admin.dialogs.certificates_endpoint_editor" atv:name="certificates_endpoint_editor" atv:type="text/ecmascript"/>
 <script atv:desc="" atv:name="" type="text/ecmascript"/>
 <rect atv:refpx="-234.242" atv:refpy="235" fill="#ffffff" fill-opacity="0.498039" height="50" id="id_7" rx="12.333" ry="10" stroke="none" stroke-width="0" width="481" x="20" y="290"/>
 <text atv:refpx="-48.066" atv:refpy="350" fill="$FONTCOLOR$" font-family="Arial" font-size="16" id="id_8" x="34.188" y="321">T{Application URI}</text>
 <svg atv:refpx="386.766" atv:refpy="305" height="30" id="in_out_application_uri" transform="matrix(1.575,0,0,1,0,0)" width="160" x="151.746" xlink:href="SYSTEM.LIBRARY.ATVISE.OBJECTDISPLAYS.Advanced.in_out_value" y="300">
  <atv:argument name="validation" value="String"/>
  <atv:argument name="tabIndex" value="2"/>
  <atv:overwrite id="id_0" transform="matrix(0.7273,0,0,1,0,0)" width="220"/>
  <atv:argument name="editable" value="No"/>
  <atv:argument name="tooltip" value="$COM.ATVISE.SELF_VALUE$"/>
  <atv:overwrite id="input_label" transform="matrix(0.6349,0,0,1,0,0)" x="244.055"/>
  <atv:overwrite id="blinking_frame" transform="matrix(0.6349,0,0,1,0,0)" width="244"/>
  <atv:overwrite id="focus_frame" transform="matrix(0.6349,0,0,1,0,0)" width="248"/>
  <atv:overwrite id="input_bg" transform="matrix(0.6349,0,0,1,0,0)" width="244"/>
  <atv:overwrite id="id_1" transform="matrix(0.6349,0,0,1,0,0)" width="250"/>
  <atv:overwrite id="input_border" transform="matrix(0.6349,0,0,1,0,0)" width="252"/>
 </svg>
 <rect atv:refpx="-234.242" atv:refpy="354" fill="#ffffff" fill-opacity="0.498039" height="50" id="id_2" rx="12.333" ry="10" stroke="none" stroke-width="0" width="481" x="20" y="469"/>
 <rect atv:refpx="257.758" atv:refpy="355" fill="#ffffff" fill-opacity="0.498039" height="50" id="id_3" rx="12.333" ry="10" stroke="none" stroke-width="0" width="481" x="512" y="470"/>
 <svg atv:refpx="422.273" atv:refpy="425" height="30" id="in_out_validity" transform="matrix(1.575,0,0,1,0,0)" width="160" x="151.746" xlink:href="SYSTEM.LIBRARY.ATVISE.OBJECTDISPLAYS.Advanced.in_out_value" y="480">
  <atv:argument name="validation" value="String"/>
  <atv:argument name="tabIndex" value="4"/>
  <atv:overwrite id="id_0" transform="matrix(0.7273,0,0,1,0,0)" width="220"/>
  <atv:argument name="editable" value="No"/>
  <atv:argument name="tooltip" value="$COM.ATVISE.SELF_VALUE$"/>
  <atv:overwrite id="input_label" transform="matrix(0.6349,0,0,1,0,0)" x="244.055"/>
  <atv:overwrite id="blinking_frame" transform="matrix(0.6349,0,0,1,0,0)" width="244"/>
  <atv:overwrite id="focus_frame" transform="matrix(0.6349,0,0,1,0,0)" width="248"/>
  <atv:overwrite id="input_bg" transform="matrix(0.6349,0,0,1,0,0)" width="244"/>
  <atv:overwrite id="id_1" transform="matrix(0.6349,0,0,1,0,0)" width="250"/>
  <atv:overwrite id="input_border" transform="matrix(0.6349,0,0,1,0,0)" width="252"/>
 </svg>
 <svg atv:refpx="914.274" atv:refpy="425" height="30" id="in_out_key_length" transform="matrix(1.575,0,0,1,0,0)" width="160" x="464.127" xlink:href="SYSTEM.LIBRARY.ATVISE.OBJECTDISPLAYS.Advanced.in_out_value" y="480">
  <atv:argument name="validation" value="String"/>
  <atv:argument name="tabIndex" value="14"/>
  <atv:overwrite id="id_0" transform="matrix(0.7273,0,0,1,0,0)" width="220"/>
  <atv:argument name="editable" value="No"/>
  <atv:argument name="tooltip" value="$COM.ATVISE.SELF_VALUE$"/>
  <atv:overwrite id="input_label" transform="matrix(0.6349,0,0,1,0,0)" x="244.055"/>
  <atv:overwrite id="blinking_frame" transform="matrix(0.6349,0,0,1,0,0)" width="244"/>
  <atv:overwrite id="focus_frame" transform="matrix(0.6349,0,0,1,0,0)" width="248"/>
  <atv:overwrite id="input_bg" transform="matrix(0.6349,0,0,1,0,0)" width="244"/>
  <atv:overwrite id="id_1" transform="matrix(0.6349,0,0,1,0,0)" width="250"/>
  <atv:overwrite id="input_border" transform="matrix(0.6349,0,0,1,0,0)" width="252"/>
 </svg>
 <text atv:refpx="60.955" atv:refpy="495" fill="$FONTCOLOR$" font-family="Arial" font-size="16" id="id_9" x="34.5" y="501">T{Validity (years)}</text>
 <text atv:refpx="554.579" atv:refpy="495" fill="$FONTCOLOR$" font-family="Arial" font-size="16" id="id_10" x="526" y="501">T{Key length (bits)}</text>
</svg>
