<?xml version='1.0' encoding='UTF-8' standalone='no'?>
<svg height="200" version="1.2" width="300" xmlns="http://www.w3.org/2000/svg" xmlns:atv="http://webmi.atvise.com/2007/svgext" xmlns:xlink="http://www.w3.org/1999/xlink">
 <defs/>
 <desc>Used by highcharts configuration dialog.</desc>
 <title>Configuration - Bar/Column (Small)</title>
 <metadata>
  <atv:parameter behavior="optional" defaultvalue="SYSTEM.GLOBALS.atvFontColor" desc="font color" name="fontColor" substitute="$FONTCOLOR$" valuetype="global"/>
  <atv:gridconfig enabled="true" gridstyle="lines" height="20" width="20"/>
  <atv:snapconfig enabled="true" height="5" width="5"/>
 </metadata>
 <text atv:refpx="88" atv:refpy="164.5" fill="$FONTCOLOR$" font-family="Arial" font-size="12" id="id_18" text-anchor="end" x="115.5" y="169">T{Labels}:</text>
 <text atv:refpx="73.5" atv:refpy="59.5" fill="$FONTCOLOR$" font-family="Arial" font-size="12" id="id_40" text-anchor="end" x="115.5" y="64">T{Border color}:</text>
 <text atv:refpx="61" atv:refpy="129.5" fill="$FONTCOLOR$" font-family="Arial" font-size="12" id="id_41" text-anchor="end" x="115.5" y="134">T{Border line width}:</text>
 <svg atv:refpx="211.003" atv:refpy="64" height="30" id="series_borderColor" transform="matrix(0.9375,0,0,1,0,0)" width="160" x="145.067" xlink:href="SYSTEM.LIBRARY.ATVISE.OBJECTDISPLAYS.Advanced.picker_color" y="44">
  <atv:argument name="name" value="series_borderColor"/>
  <atv:argument name="tabIndex" value="82"/>
  <atv:overwrite id="button_stroke" transform="matrix(1.0667,0,0,1,0,0)" x="125.5"/>
  <atv:overwrite id="id_1" transform="matrix(1.0667,0,0,1,0,0)" x="125.75"/>
  <atv:overwrite id="button_bg" transform="matrix(1.0667,0,0,1,0,0)" x="125.5"/>
  <atv:overwrite id="input_label" transform="matrix(1.0667,0,0,1,0,0)" x="113.5"/>
  <atv:overwrite id="blinking_frame" transform="matrix(1.0667,0,0,1,0,0)" width="118"/>
  <atv:overwrite id="focus_frame" transform="matrix(1.0667,0,0,1,0,0)" width="146"/>
  <atv:overwrite id="input_bg" transform="matrix(1.0667,0,0,1,0,0)" width="118"/>
  <atv:overwrite id="id_0" transform="matrix(1.0667,0,0,1,0,0)" width="148"/>
  <atv:overwrite id="id_2" transform="matrix(1.0667,0,0,1,0,0)" width="150"/>
 </svg>
 <svg atv:refpx="211" atv:refpy="136" height="30" id="series_borderWidth" transform="matrix(0.9375,0,0,1,0,0)" width="160" x="145.067" xlink:href="SYSTEM.LIBRARY.ATVISE.OBJECTDISPLAYS.Advanced.rocker_switch_horizontal" y="115">
  <atv:argument name="tabIndex" value="84"/>
  <atv:argument name="min" value="0"/>
 </svg>
 <text atv:refpx="84" atv:refpy="94.5" fill="$FONTCOLOR$" font-family="Arial" font-size="12" id="id_0" text-anchor="end" x="115.5" y="99">T{Fill color}:</text>
 <svg atv:refpx="211.003" atv:refpy="99" height="30" id="series_color" transform="matrix(0.9375,0,0,1,0,0)" width="160" x="145.067" xlink:href="SYSTEM.LIBRARY.ATVISE.OBJECTDISPLAYS.Advanced.picker_color" y="79">
  <atv:argument name="name" value="series_color"/>
  <atv:argument name="tabIndex" value="83"/>
  <atv:overwrite id="button_stroke" transform="matrix(1.0667,0,0,1,0,0)" x="125.5"/>
  <atv:overwrite id="id_1" transform="matrix(1.0667,0,0,1,0,0)" x="125.75"/>
  <atv:overwrite id="button_bg" transform="matrix(1.0667,0,0,1,0,0)" x="125.5"/>
  <atv:overwrite id="input_label" transform="matrix(1.0667,0,0,1,0,0)" x="113.5"/>
  <atv:overwrite id="blinking_frame" transform="matrix(1.0667,0,0,1,0,0)" width="118"/>
  <atv:overwrite id="focus_frame" transform="matrix(1.0667,0,0,1,0,0)" width="146"/>
  <atv:overwrite id="input_bg" transform="matrix(1.0667,0,0,1,0,0)" width="118"/>
  <atv:overwrite id="id_0" transform="matrix(1.0667,0,0,1,0,0)" width="148"/>
  <atv:overwrite id="id_2" transform="matrix(1.0667,0,0,1,0,0)" width="150"/>
 </svg>
 <svg atv:refpx="186" atv:refpy="167" height="30" id="series_dataLabels_enabled" width="160" x="136" xlink:href="SYSTEM.LIBRARY.ATVISE.OBJECTDISPLAYS.Advanced.checkbox" y="150">
  <atv:argument name="valueOn" value="true"/>
  <atv:argument name="outputValueOn" value="true"/>
  <atv:argument name="outputValueOff" value="false"/>
  <atv:argument name="label" value="T{visible}"/>
  <atv:argument name="tabIndex" value="85"/>
  <atv:overwrite id="checkbox_bg2" transform="matrix(1.6,0,0,1,0,0)"/>
  <atv:overwrite id="id_5" transform="matrix(1.6,0,0,1,0,0)"/>
  <atv:overwrite id="id_2" transform="matrix(1.6,0,0,1,0,0)" width="68"/>
  <atv:overwrite id="id_0" transform="matrix(1.6,0,0,1,0,0)" width="99.5"/>
 </svg>
 <text atv:refpx="68.5" atv:refpy="24.5" fill="$FONTCOLOR$" font-family="Arial" font-size="12" id="id_4" text-anchor="end" x="115.5" y="29">T{Related x/y-axis}:</text>
 <svg atv:refpx="211" atv:refpy="25" height="30" id="series_yAxis" transform="matrix(0.9375,0,0,1,0,0)" width="160" x="145.067" xlink:href="SYSTEM.LIBRARY.ATVISE.OBJECTDISPLAYS.Advanced.combobox" y="9">
  <atv:overwrite id="id_3" transform="matrix(1.0526,0,0,1,0,0)" x="126.75"/>
  <atv:overwrite id="id_5" transform="matrix(1.0526,0,0,1,0,0)" x="124.5"/>
  <atv:overwrite id="id_2" transform="matrix(1.0526,0,0,1,0,0)" width="120"/>
  <atv:overwrite id="combobox_stroke" transform="matrix(1.0526,0,0,1,0,0)" width="151.5"/>
  <atv:argument name="tabIndex" value="81"/>
  <atv:overwrite id="focus_frame" transform="matrix(1.0667,0,0,1,0,0)" width="146"/>
  <atv:overwrite id="button_stroke" transform="matrix(1.0667,0,0,1,0,0)" x="125"/>
  <atv:overwrite id="id_7" transform="matrix(1.0667,0,0,1,0,0)" x="125"/>
  <atv:overwrite id="button_bg" transform="matrix(1.0667,0,0,1,0,0)" x="125"/>
  <atv:overwrite id="combobox_label" transform="matrix(1.0667,0,0,1,0,0)" x="115.5"/>
  <atv:overwrite id="blinking_frame" transform="matrix(1.0667,0,0,1,0,0)" width="118"/>
  <atv:overwrite id="combobox_bg" transform="matrix(1.0667,0,0,1,0,0)" width="118"/>
  <atv:overwrite id="id_1" transform="matrix(1.0667,0,0,1,0,0)" width="148"/>
  <atv:overwrite id="id_0" transform="matrix(1.0667,0,0,1,0,0)" width="150"/>
 </svg>
 <script atv:desc="" atv:href="SYSTEM.LIBRARY.ATVISE.DISPLAYSCRIPTS.highcharts.opt_series_bar_column" atv:name="opt_series_bar_column" atv:type="text/ecmascript"/>
 <script atv:desc="" atv:name="" type="text/ecmascript"/>
</svg>
