<?xml version='1.0' encoding='UTF-8' standalone='no'?>
<svg enable-background="new 0 0 16 16" height="20" id="Ebene_1" version="1.1" width="20" x="0px" xml:space="preserve" y="0px" xmlns="http://www.w3.org/2000/svg" xmlns:atv="http://webmi.atvise.com/2007/svgext" xmlns:xlink="http://www.w3.org/1999/xlink">
 <defs>
  <linearGradient gradientUnits="objectBoundingBox" id="SVGID_1_" x1="-0.290145" x2="0.792871" y1="0.136603" y2="0.639639">
   <stop offset="0" stop-color="#9d9d9c"/>
   <stop offset="1" stop-color="#c3c3b"/>
  </linearGradient>
  <linearGradient gradientUnits="objectBoundingBox" id="SVGID_2_" x1="0.0373956" x2="0.933879" y1="0.0373166" y2="1.06773">
   <stop offset="0" stop-color="#9d9d9c"/>
   <stop offset="1" stop-color="#c3c3b"/>
  </linearGradient>
 </defs>
 <metadata>
  <atv:parameter behavior="optional" defaultvalue="#000000" desc="symbol color" name="symbolColor" substitute="$SYMBOLCOLOR$" valuetype="color"/>
  <atv:gridconfig enabled="true" gridstyle="lines" height="2" width="2"/>
  <atv:snapconfig enabled="true" height="1" width="1"/>
 </metadata>
 <g atv:refpx="9.993" atv:refpy="9.992" id="id_2" transform="matrix(0.037,0,0,0.0385,0.8148,0.1539)">
  <path atv:refpx="234.535" atv:refpy="256" d="M400,147.999L378.879,123.429C342.69,85.419 292.482,63.934 240,63.999C134,63.999 48,149.999 48,255.999C48,361.999 134,447.999 240,447.999C321.376,447.994 393.919,396.713 421.069,319.999" fill="none" id="id_0" stroke="$SYMBOLCOLOR$" stroke-linecap="square" stroke-width="32px" style="stroke-miterlimit:10"/>
  <path atv:refpx="384.223" atv:refpy="144.223" d="M464,68.45L464,220C464,222.209 462.209,224 460,224L308.45,224C306.831,224.001 305.371,223.026 304.751,221.531C304.131,220.035 304.474,218.314 305.62,217.17L457.17,65.62C458.314,64.474 460.035,64.131 461.531,64.751C463.026,65.37 464.001,66.831 464,68.45" fill="$SYMBOLCOLOR$" id="id_1"/>
 </g>
 <script atv:desc="" atv:name="" type="text/ecmascript"/>
</svg>
