<?xml version='1.0' encoding='UTF-8' standalone='no'?>
<svg enable-background="new 0 0 16 16" height="40" id="Ebene_1" version="1.1" width="40" x="0px" xml:space="preserve" y="0px" xmlns="http://www.w3.org/2000/svg" xmlns:atv="http://webmi.atvise.com/2007/svgext" xmlns:xlink="http://www.w3.org/1999/xlink">
 <defs>
  <linearGradient gradientUnits="objectBoundingBox" id="SVGID_1_" x1="-0.290145" x2="0.792871" y1="0.136603" y2="0.639639">
   <stop offset="0" stop-color="#9d9d9c"/>
   <stop offset="1" stop-color="#c3c3b"/>
  </linearGradient>
  <linearGradient gradientUnits="objectBoundingBox" id="SVGID_2_" x1="0.0373956" x2="0.933879" y1="0.0373166" y2="1.06773">
   <stop offset="0" stop-color="#9d9d9c"/>
   <stop offset="1" stop-color="#c3c3b"/>
  </linearGradient>
 </defs>
 <metadata>
  <atv:parameter behavior="optional" defaultvalue="#000000" desc="symbol color" name="symbolColor" substitute="$SYMBOLCOLOR$" valuetype="color"/>
  <atv:gridconfig enabled="false" gridstyle="lines" height="20" width="20"/>
  <atv:snapconfig enabled="false" height="10" width="10"/>
 </metadata>
 <path atv:refpx="36.122" atv:refpy="25.163" d="M32.531,17.38L32.506,32.941L32.627,32.941L39.714,17.646C39.781,17.499 39.673,17.384 39.476,17.384" fill="$SYMBOLCOLOR$" id="id_0" stroke-width="1.117"/>
 <path atv:refpx="16.065" atv:refpy="20.003" d="M30.771,10.496L14.651,10.496L14.651,7.249C14.651,7.041 14.482,6.874 14.271,6.874L3.237,6.874C3.029,6.874 2.859,7.041 2.859,7.249L2.859,10.496L1.351,10.496C1.142,10.496 0.976,10.665 0.976,10.874L0.976,32.747C0.976,32.958 1.142,33.125 1.351,33.125L30.771,33.125C30.984,33.125 31.151,32.958 31.151,32.747L31.151,10.874C31.151,10.665 30.984,10.496 30.771,10.496" fill="$SYMBOLCOLOR$" id="id_1" stroke-width="1.117"/>
 <script atv:desc="" atv:name="" type="text/ecmascript"/>
</svg>
