<?xml version='1.0' encoding='UTF-8' standalone='no'?>
<svg height="890" version="1.2" width="960" xmlns="http://www.w3.org/2000/svg" xmlns:atv="http://webmi.atvise.com/2007/svgext" xmlns:xlink="http://www.w3.org/1999/xlink">
 <defs/>
 <metadata>
  <atv:gridconfig enabled="false" gridstyle="lines" height="20" width="20"/>
  <atv:snapconfig enabled="true" height="1" width="1"/>
 </metadata>
 <g atv:insensitive="true" atv:refpx="0" atv:refpy="0" id="id_44" transform="matrix(0.5,0,0,1,0,0)">
  <rect atv:refpx="960" atv:refpy="445" fill="#ffffff" fill-opacity="0" height="890.00" id="id_45" width="1920.00" x="0" y="0"/>
 </g>
 <line atv:refpx="484" atv:refpy="785.501" id="id_15" stroke="#000000" stroke-linecap="round" stroke-linejoin="round" stroke-width="5" x1="702" x2="266" y1="808.001" y2="808.001"/>
 <line atv:refpx="703.5" atv:refpy="746.5" id="id_39" stroke="#000000" stroke-linecap="round" stroke-linejoin="round" stroke-width="5" x1="703" x2="703" y1="686" y2="807"/>
 <polygon atv:refpx="703" atv:refpy="678.5" fill="#000018" id="id_40" points="688,693 718,693 703,668 703,668" stroke="#000000" stroke-linecap="round" stroke-linejoin="round" stroke-opacity="0" stroke-width="2"/>
 <line atv:refpx="612.25" atv:refpy="692.501" id="id_35" stroke="#000000" stroke-linecap="round" stroke-linejoin="round" stroke-width="5" x1="676" x2="548.5" y1="721.001" y2="721.001"/>
 <polygon atv:refpx="689" atv:refpy="693.001" fill="#000018" id="id_38" points="676.5,706 676.5,736 701.5,721 701.5,721" stroke="#000000" stroke-linecap="round" stroke-linejoin="round" stroke-opacity="0" stroke-width="2"/>
 <svg atv:refpx="170.96" atv:refpy="819.984" height="63.11" id="id_9" transform="matrix(1.5038,0,0,1.4578,0,0)" width="133" x="45.884" xlink:href="ObjectTypes.PROJECT.ElementoLineaAR.Principal" y="507.614">
  <atv:argument name="base" value="AGENT.OBJECTS.SCADA.Solidaridad.Cuencas.Cuenca_PTAR_PTOA.Carcamo_Puerto_Aventuras"/>
 </svg>
 <svg atv:refpx="452.995" atv:refpy="709.995" height="63.11" id="id_10" transform="matrix(1.5038,0,0,1.4578,0,0)" width="133" x="234.739" xlink:href="ObjectTypes.PROJECT.ElementoLineaAR.Principal" y="463.026">
  <atv:argument name="base" value="AGENT.OBJECTS.SCADA.Solidaridad.Cuencas.Cuenca_PTAR_PTOA.Cárcamo_Puerto_Maya_3"/>
 </svg>
 <rect atv:refpx="791" atv:refpy="-511.375" fill="#000088" fill-opacity="0" height="75.512" id="id_25" rx="0" ry="0" stroke="#000072" stroke-width="1.953" width="200" x="603.501" y="243"/>
 <text atv:refpx="753.524" atv:refpy="-526.932" fill="#000018" font-family="Arial" font-size="40" font-weight="bold" id="id_106" transform="matrix(0.7328,0,0,0.6844,177.0106,77.3204)" x="666.965" y="286.495">PTAR</text>
 <text atv:refpx="723.714" atv:refpy="-491.163" fill="#000018" font-family="Arial" font-size="40" id="id_37" transform="matrix(0.7328,0,0,0.6844,162.3253,88.825)" x="612.005" y="321.948">Pto. Aventuras</text>
 <rect atv:refpx="623.502" atv:refpy="-856.488" fill="#00008c" height="35.769" id="id_28" rx="0" ry="0" stroke="#000072" stroke-width="1.953" width="200" x="436.003" y="-76.487"/>
 <rect atv:refpx="623.502" atv:refpy="-914.375" fill="#000088" fill-opacity="0" height="75.512" id="id_29" rx="0" ry="0" stroke="#000072" stroke-width="1.953" width="200" x="436.003" y="-152"/>
 <text atv:refpx="585.297" atv:refpy="-921.933" fill="#000018" font-family="Arial" font-size="40" font-weight="bold" id="id_30" transform="matrix(0.7328,0,0,0.6844,132.0556,-47.3441)" x="498.72" y="-108.513">PTAR</text>
 <text atv:refpx="554.389" atv:refpy="-886.163" fill="#000018" font-family="Arial" font-size="40" id="id_31" transform="matrix(0.7328,0,0,0.6844,117.0769,-35.8392)" x="442.662" y="-73.059">Pto. Aventuras</text>
 <text atv:refpx="508.693" atv:refpy="-847.103" fill="#ffffff" font-family="Arial" font-size="40" id="id_32" transform="matrix(0.7328,0,0,0.6844,116.232,-23.5119)" x="440.5" y="-33.999">Clorada:</text>
 <script atv:desc="" atv:name="" type="text/ecmascript"><![CDATA[
]]><![CDATA[
webMI.addEvent("id_8", "click", function(e) {
var id = "id_8";
var value = true;
webMI.display.openWindow({display:"AGENT.OBJECTS.SCADA.Solidaridad.Circuitos.Circuito_PA.Carcamo_014.Desaladora",extern:false,height:885,menubar:false,modal:true,movable:true,resizable:true,scrollbars:false,status:false,title:"T{Desaladora 6}",toolbar:false,width:1060,query:webMI.query});
});]]></script>
 <line atv:refpx="137.503" atv:refpy="176.501" id="id_46" stroke="#000000" stroke-linecap="round" stroke-linejoin="round" stroke-width="5" x1="169.003" x2="169.003" y1="205.001" y2="148.001"/>
 <polygon atv:refpx="169.003" atv:refpy="148.501" fill="#000018" id="id_47" points="154.002,161 184.002,161 169.002,136 169.002,136" stroke="#000000" stroke-linecap="round" stroke-linejoin="round" stroke-opacity="0" stroke-width="2"/>
 <line atv:refpx="594.5" atv:refpy="115.754" id="id_20" stroke="#000000" stroke-linecap="round" stroke-linejoin="round" stroke-width="5" x1="566" x2="623" y1="47.255" y2="47.255"/>
 <svg atv:refpx="450.056" atv:refpy="176.996" height="63.11" id="id_1" transform="matrix(1.5038,0,0,1.4578,0,0)" width="133" x="232.744" xlink:href="ObjectTypes.PROJECT.ElementoLinea.Principal" y="0.001">
  <atv:argument name="base" value="AGENT.OBJECTS.SCADA.Solidaridad.Circuitos.Circuito_PA.Carcamo_014"/>
 </svg>
 <svg atv:refpx="700.056" atv:refpy="178.995" height="63.11" id="id_2" transform="matrix(1.5038,0,0,1.4578,0,0)" width="133" x="398.989" xlink:href="ObjectTypes.PROJECT.ElementoLinea.Principal" y="1.372">
  <atv:argument name="base" value="AGENT.OBJECTS.SCADA.Solidaridad.Circuitos.Circuito_PA.Desaladora_Puerto_Maya"/>
 </svg>
 <svg atv:refpx="169.005" atv:refpy="82.997" height="63.11" id="id_0" transform="matrix(1.5038,0,0,1.4578,0,0)" width="133" x="45.884" xlink:href="ObjectTypes.PROJECT.ElementoLinea.Principal" y="0">
  <atv:argument name="base" value="AGENT.OBJECTS.SCADA.Solidaridad.Circuitos.Circuito_PA.Carcamo_013"/>
 </svg>
 <svg atv:refpx="169.004" atv:refpy="203.474" height="23" id="id_6" transform="matrix(2,0,0,2,0,0)" width="100" x="34.501" xlink:href="ObjectTypes.PROJECT.Caudalimetro.line_mini" y="45.882">
  <atv:argument name="base" value="AGENT.OBJECTS.SCADA.Solidaridad.Circuitos.Circuito_PA.Carcamo_013.Equipos.Caudalimetro.L1"/>
 </svg>
 <svg atv:refpx="450.001" atv:refpy="252.277" height="23" id="id_7" transform="matrix(2,0,0,2,0,0)" width="100" x="175.002" xlink:href="ObjectTypes.PROJECT.Caudalimetro.line_mini" y="45.882">
  <atv:argument name="base" value="AGENT.OBJECTS.SCADA.Solidaridad.Circuitos.Circuito_PA.Carcamo_014.Equipos.Caudalimetro.L1"/>
 </svg>
 <svg atv:refpx="218.999" atv:refpy="34.538" height="23" id="id_16" transform="matrix(2,0,0,2,0,0)" width="100" x="59.5" xlink:href="ObjectTypes.PROJECT.Caudalimetro.line_mini" y="-62.5">
  <atv:argument name="base" value="AGENT.OBJECTS.SCADA.Solidaridad.Circuitos.Circuito_PA.Carcamo_014.Equipos.Caudalimetro.LE_1"/>
 </svg>
 <polygon atv:refpx="562.5" atv:refpy="147" fill="#000018" id="id_81" points="575,62 575,32 550,47 550,47" stroke="#000000" stroke-linecap="round" stroke-linejoin="round" stroke-opacity="0" stroke-width="2"/>
 <svg atv:refpx="168.999" atv:refpy="185.002" height="63.11" id="id_11" transform="matrix(1.5038,0,0,1.4578,0,0)" width="133" x="45.884" xlink:href="ObjectTypes.PROJECT.ElementoLinea.Principal" y="95.35">
  <atv:argument name="base" value="AGENT.OBJECTS.SCADA.Solidaridad.Circuitos.Circuito_PA.Llegada_Akumal"/>
 </svg>
 <svg atv:refpx="168.974" atv:refpy="185.501" height="600" id="id_13" transform="matrix(0.2538,0,0,0.155,0,0)" width="800" x="265.889" xlink:href="SYSTEM.LIBRARY.ATVISE.OBJECTDISPLAYS.Advanced.hmi.iframe" y="896.779"/>
 <svg atv:refpx="700" atv:refpy="214.764" height="23" id="id_4" transform="matrix(2,0,0,2,0,0)" width="100" x="300" xlink:href="ObjectTypes.PROJECT.Caudalimetro.line_mini" y="45.882">
  <atv:argument name="base" value="AGENT.OBJECTS.SCADA.Solidaridad.Circuitos.Circuito_PA.Desaladora_Puerto_Maya.Equipos.Caudalimetro.L_1"/>
 </svg>
 <svg atv:refpx="859" atv:refpy="-42" height="30" id="id_8" width="80" x="819" xlink:href="SYSTEM.LIBRARY.ATVISE.OBJECTDISPLAYS.Advanced.button" y="-57"/>
 <svg atv:refpx="701.952" atv:refpy="456.726" height="63.11" id="id_3" transform="matrix(1.5113,0,0,1.4501,0,0)" width="133" x="397.986" xlink:href="ObjectTypes.PROJECT.ElementoLineaAR.Principal" y="277.206">
  <atv:argument name="base" value="AGENT.OBJECTS.SCADA.Solidaridad.Cuencas.Cuenca_PTAR_PTOA.Carcamo_Final_LLegada"/>
 </svg>
 <svg atv:refpx="701.952" atv:refpy="631.325" height="63.11" id="id_5" transform="matrix(1.5038,0,0,1.4362,0,0)" width="133" x="400.309" xlink:href="ObjectTypes.PROJECT.ElementoLineaAR.Principal" y="401.755">
  <atv:argument name="base" value="AGENT.OBJECTS.SCADA.Solidaridad.Cuencas.Cuenca_PTAR_PTOA.Carcamo_Final_Salida"/>
 </svg>
 <svg atv:refpx="391.937" atv:refpy="323.869" height="23" id="id_36" transform="matrix(2.0046,0,0,1.9918,0,0)" width="100" x="300.178" xlink:href="ObjectTypes.PROJECT.Caudalimetro.line_mini_AR" y="178.724">
  <atv:argument name="base" value="AGENT.OBJECTS.SCADA.Solidaridad.Cuencas.Cuenca_PTAR_PTOA.Carcamo_Final_LLegada.Equipos.Caudalimetros.Afluente"/>
 </svg>
 <rect atv:refpx="479.487" atv:refpy="-515" fill="#00008c" height="35.769" id="id_43" rx="0" ry="0" stroke="#000072" stroke-width="1.953" width="200" x="601.976" y="319.976"/>
 <text atv:refpx="718.744" atv:refpy="-450.64" fill="#ffffff" font-family="Arial" font-size="40" id="id_42" transform="matrix(0.7328,0,0,0.6844,171.6101,101.6142)" x="647.753" y="362.471">Afluente:</text>
 <svg atv:refpx="391.988" atv:refpy="499.191" height="23" id="id_27" transform="matrix(2,0,0,2.0145,0,0)" width="100" x="300.988" xlink:href="ObjectTypes.PROJECT.Caudalimetro.line_mini_AR" y="263.584">
  <atv:argument name="base" value="AGENT.OBJECTS.SCADA.Solidaridad.Cuencas.Cuenca_PTAR_PTOA.Carcamo_Final_LLegada.Equipos.Caudalimetros.Clorada"/>
 </svg>
 <rect atv:refpx="479.488" atv:refpy="-323.231" fill="#00008c" height="35" id="id_12" rx="0" ry="0" stroke="#000072" stroke-width="1.953" width="200" x="601.976" y="494.976"/>
 <text atv:refpx="727.179" atv:refpy="-275.639" fill="#ffffff" font-family="Arial" font-size="40" id="id_14" transform="matrix(0.7328,0,0,0.6844,163.5821,156.8442)" x="617.208" y="537.471">Agua Tratada</text>
</svg>
