<?xml version="1.0" encoding="iso-8859-1"?>
<!-- Uploaded to: SVG Repo, www.svgrepo.com, Generator: SVG Repo Mixer Tools -->
<svg height="800px" width="800px" version="1.1" id="Layer_1" xmlns="http://www.w3.org/2000/svg" xmlns:xlink="http://www.w3.org/1999/xlink" 
	 viewBox="0 0 494.942 494.942" xml:space="preserve">
<g>
	<path style="fill:#5AAAE7;" d="M288.872,256.495c8.539-30.192,13.979-72.033,13.979-110.083c0-40.96-4.92-72.34-14.63-93.27
		c-7.34-15.81-23.33-26.03-40.75-26.03v214.304C263.217,241.417,277.657,247.093,288.872,256.495z"/>
	<path style="fill:#96C8EF;" d="M247.471,27.113c-17.42,0-33.41,10.22-40.75,26.03c-9.71,20.92-14.63,52.3-14.63,93.27
		c0,38.049,5.441,79.891,13.979,110.083c11.215-9.403,25.655-15.079,41.401-15.079V27.113z"/>
	<path style="fill:#96C8EF;" d="M182.933,305.955c0-3.792,0.348-7.503,0.978-11.118c-30.412,7.704-69.356,23.909-102.298,42.928
		c-35.472,20.48-60.188,40.431-73.459,59.305c-10.022,14.261-10.878,33.219-2.168,48.305l185.62-107.168
		C186.102,328.712,182.933,317.7,182.933,305.955z"/>
	<path style="fill:#5AAAE7;" d="M191.607,338.209L5.986,445.377c8.71,15.086,25.556,23.824,42.918,22.276
		c22.972-2.051,52.608-13.48,88.089-33.965c32.936-19.016,66.435-44.633,88.313-67.115
		C211.04,361.339,199.133,351.194,191.607,338.209z"/>
	<path style="fill:#5AAAE7;" d="M269.635,366.572c21.878,22.483,55.377,48.1,88.313,67.115
		c35.472,20.48,65.108,31.909,88.089,33.965c17.362,1.548,34.208-7.189,42.918-22.276l-185.62-107.168
		C295.809,351.194,283.903,361.339,269.635,366.572z"/>
	<path style="fill:#96C8EF;" d="M486.788,397.071c-13.262-18.869-37.978-38.82-73.459-59.305
		c-32.942-19.019-71.886-35.224-102.298-42.928c0.63,3.615,0.978,7.325,0.978,11.118c0,11.745-3.169,22.756-8.674,32.253
		l185.62,107.168C497.666,430.29,496.81,411.333,486.788,397.071z"/>
	<path style="fill:#1E81CE;" d="M247.471,241.417c-15.746,0-30.186,5.676-41.401,15.079c-11.43,9.583-19.49,23.046-22.158,38.342
		c-0.631,3.615-0.978,7.325-0.978,11.118c0,11.745,3.169,22.756,8.673,32.253c7.526,12.985,19.433,23.13,33.7,28.363
		c6.915,2.536,14.381,3.921,22.165,3.921V241.417z"/>
	<path style="fill:#165C92;" d="M303.335,338.209c5.505-9.497,8.674-20.509,8.674-32.253c0-3.792-0.348-7.503-0.978-11.118
		c-2.668-15.296-10.729-28.759-22.159-38.342c-11.215-9.403-25.655-15.078-41.401-15.078v129.076c7.783,0,15.249-1.385,22.165-3.921
		C283.903,361.339,295.809,351.194,303.335,338.209z"/>
</g>
</svg>