<?xml version='1.0' encoding='UTF-8' standalone='no'?>
<svg enable-background="new 0 0 40 40" height="60" id="Ebene_1" version="1.1" width="60" x="0px" xml:space="preserve" y="0px" xmlns="http://www.w3.org/2000/svg" xmlns:atv="http://webmi.atvise.com/2007/svgext" xmlns:xlink="http://www.w3.org/1999/xlink">
 <defs/>
 <metadata>
  <atv:parameter behavior="optional" defaultvalue="#000000" desc="symbol color" name="symbolColor" substitute="$SYMBOLCOLOR$" valuetype="color"/>
  <atv:gridconfig enabled="false" gridstyle="lines" height="20" width="20"/>
  <atv:snapconfig enabled="false" height="10" width="10"/>
 </metadata>
 <g atv:refpx="30" atv:refpy="30" id="id_8">
  <path atv:refpx="29.999" atv:refpy="57.648" d="M42.934,46.581L42.934,33.61C42.934,25.846 37.145,19.553 30,19.553C22.856,19.553 17.064,25.846 17.064,33.61L17.064,46.581L12.825,46.581L12.825,56.636L47.172,56.636L47.172,46.581ZM22.627,38.33C22.627,44.495 18.773,47.737 18.773,47.737C18.773,47.737 18.773,42.315 18.773,36.151C18.773,29.986 21.6,24.989 23.16,24.989C24.723,24.991 22.627,32.168 22.627,38.33" fill="$SYMBOLCOLOR$" id="id_0" stroke-width="1.332"/>
  <rect atv:refpx="58.935" atv:refpy="8.506" fill="$SYMBOLCOLOR$" height="10.284" id="id_1" stroke-width="1.332" width="2.131" x="28.935" y="3.364"/>
  <rect atv:refpx="99.079" atv:refpy="34.06" fill="$SYMBOLCOLOR$" height="2.316" id="id_2" stroke-width="1.332" width="9.462" x="47.174" y="32.902"/>
  <rect atv:refpx="8.095" atv:refpy="64.644" fill="$SYMBOLCOLOR$" height="2.316" id="id_3" stroke-width="1.332" width="9.461" x="3.364" y="31.744"/>
  <polygon atv:refpx="33.163" atv:refpy="11.276" fill="$SYMBOLCOLOR$" id="id_4" points="14.937,7.403 16.784,6.244 21.515,15.15 19.669,16.307" stroke-width="1.332"/>
  <polygon atv:refpx="79.735" atv:refpy="11.276" fill="$SYMBOLCOLOR$" id="id_5" points="44.797,7.403 42.953,6.244 38.224,15.15 40.068,16.307" stroke-width="1.332"/>
  <polygon atv:refpx="11.158" atv:refpy="38.34" fill="$SYMBOLCOLOR$" id="id_6" points="15.788,22.526 14.723,24.531 6.527,19.389 7.593,17.382" stroke-width="1.332"/>
  <polygon atv:refpx="93.684" atv:refpy="20.957" fill="$SYMBOLCOLOR$" id="id_7" points="44.527,22.526 45.591,24.531 53.786,19.389 52.719,17.382" stroke-width="1.332"/>
 </g>
 <script atv:desc="" atv:name="" type="text/ecmascript"/>
</svg>
