<?xml version='1.0' encoding='UTF-8' standalone='no'?>
<svg height="102.31999999999999" version="1.2" width="223.18000000000001" xmlns="http://www.w3.org/2000/svg" xmlns:atv="http://webmi.atvise.com/2007/svgext" xmlns:xlink="http://www.w3.org/1999/xlink">
 <defs>
  <linearGradient gradientUnits="objectBoundingBox" id="linear_0" x1="0" x2="1" y1="0" y2="1">
   <stop offset="0" stop-color="#000000"/>
   <stop offset="1" stop-color="#000000" stop-opacity="0"/>
  </linearGradient>
 </defs>
 <metadata>
  <atv:gridconfig enabled="true" gridstyle="lines" height="20" width="20"/>
  <atv:snapconfig enabled="false" height="10" width="10"/>
 </metadata>
 <script atv:desc="" atv:name="" type="text/ecmascript"><![CDATA[
webMI.data.subscribe(webMI.query["base"] + ".Caudal", function(e) {
var id = "id_0";
var value = e.value;
if (value == 0)
	webMI.gfx.setFill(id, "#aeaeae");
if (value == 1)
	webMI.gfx.setFill(id, "#55aaff");

});

]]></script>
 <g atv:refpx="53.575" atv:refpy="51.16" id="id_0">
  <rect atv:refpx="52.744" atv:refpy="82.261" fill="#b4b9be" height="40.486" id="id_14" stroke="none" stroke-width="2" transform="matrix(-1,0,0,-1,0,0)" width="44.608" x="-106.149" y="-71.403"/>
  <polygon atv:refpx="71.628" atv:refpy="49.161" fill="#b4b9be" id="id_16" points="62.122,102.32 62.122,0 0,48.724" stroke="none" stroke-width="2"/>
 </g>
 <svg atv:refpx="62.603" atv:refpy="51.16" height="30" id="id_1" transform="matrix(0.5299,0,0,1,0,0)" width="160" x="38.146" xlink:href="SYSTEM.LIBRARY.ATVISE.OBJECTDISPLAYS.Default.Number.in_out_value" y="36.16">
  <atv:argument name="base" value="ObjectTypes.PROJECT.CarcamoAlimentador.Caudal"/>
  <atv:argument name="postDecimal" value="2"/>
  <atv:argument name="unit" value="T{L/s}"/>
  <atv:argument name="fill" value="#ffffff"/>
  <atv:overwrite id="input_label" transform="matrix(1.8872,0,0,1,0,0)" x="76.281"/>
  <atv:overwrite id="blinking_frame" transform="matrix(1.8872,0,0,1,0,0)" width="77.781"/>
  <atv:overwrite id="focus_frame" transform="matrix(1.8872,0,0,1,0,0)" width="76.781"/>
  <atv:overwrite id="id_2" transform="matrix(1.8872,0,0,1,0,0)" width="79.281"/>
  <atv:overwrite id="input_bg" transform="matrix(1.8872,0,0,1,0,0)" width="84.281"/>
 </svg>
 <text atv:refpx="128.927" atv:refpy="51.237" fill="#000088" font-family="Arial" font-size="12" id="id_2" x="111.927" y="55.737">C Alim</text>
 <svg atv:refpx="189.187" atv:refpy="52.655" height="30" id="id_3" transform="matrix(0.4249,0,0,1,0,0)" width="160" x="365.28" xlink:href="SYSTEM.LIBRARY.ATVISE.OBJECTDISPLAYS.Default.Number.in_out_value" y="37.655">
  <atv:argument name="base" value="ObjectTypes.PROJECT.CarcamoAlimentador.NivelPorcentaje"/>
  <atv:argument name="postDecimal" value="2"/>
  <atv:argument name="fill" value="#ffffff"/>
  <atv:argument name="unit" value="T{%}"/>
  <atv:overwrite id="input_label" transform="matrix(2.3536,0,0,1,0,0)" x="59.48"/>
  <atv:overwrite id="blinking_frame" transform="matrix(2.3536,0,0,1,0,0)" width="60.98"/>
  <atv:overwrite id="focus_frame" transform="matrix(2.3536,0,0,1,0,0)" width="59.98"/>
  <atv:overwrite id="id_2" transform="matrix(2.3536,0,0,1,0,0)" width="62.48"/>
  <atv:overwrite id="input_bg" transform="matrix(2.3536,0,0,1,0,0)" width="67.48"/>
 </svg>
</svg>
