<?xml version='1.0' encoding='UTF-8' standalone='no'?>
<svg height="280" version="1.2" width="430" xmlns="http://www.w3.org/2000/svg" xmlns:atv="http://webmi.atvise.com/2007/svgext" xmlns:xlink="http://www.w3.org/1999/xlink">
 <defs/>
 <desc>Display for changing user information and password.</desc>
 <title>User Editor</title>
 <rect atv:refpx="107.5" atv:refpy="140" fill="$FILLCOLOR$" height="280" id="background" stroke="none" stroke-width="0" width="430" x="0" y="0"/>
 <metadata>
  <atv:parameter behavior="optional" defaultvalue="T{Add user}" desc="headline" name="headline" substitute="$HEADLINE$" valuetype="trstring"/>
  <atv:parameter behavior="optional" defaultvalue="SYSTEM.LIBRARY.ATVISE.OBJECTDISPLAYS.Symbols.20x20.user" desc="symbol" name="symbol" substitute="$SYMBOL$" valuetype="display"/>
  <atv:parameter behavior="optional" defaultvalue="SYSTEM.LIBRARY.ATVISE.OBJECTDISPLAYS.Advanced.keyboard.keyboard" desc="keyboard display" name="keyboard" valuetype="display"/>
  <atv:parameter behavior="optional" defaultvalue="SYSTEM.GLOBALS.atvFontColor" desc="font color" name="fontColor" substitute="$FONTCOLOR$" valuetype="global"/>
  <atv:parameter behavior="optional" defaultvalue="SYSTEM.GLOBALS.atvFillColor" desc="fill color" name="fillColor" substitute="$FILLCOLOR$" valuetype="global"/>
  <atv:parameter behavior="optional" defaultvalue="SYSTEM.GLOBALS.atvSymbolColor" desc="symbol color" name="symbolColor" substitute="$SYMBOLCOLOR$" valuetype="global"/>
  <atv:gridconfig enabled="true" gridstyle="lines" height="20" width="20"/>
  <atv:snapconfig enabled="true" height="10" width="10"/>
 </metadata>
 <svg atv:dynamic="true" atv:refpx="92.499" atv:refpy="170" height="30" id="save_button" transform="matrix(2.0625,0,0,1.5,0,0)" width="80" x="4.848" xlink:href="SYSTEM.LIBRARY.ATVISE.OBJECTDISPLAYS.Advanced.button" y="138.334">
  <atv:argument name="label" value="T{Save}"/>
  <atv:argument name="tabIndex" value="11"/>
  <atv:argument name="borderVisible" value="true"/>
  <atv:argument name="extraBorderColor" value="#ffffff"/>
  <atv:overwrite height="43" id="id_6" transform="matrix(0.4848,0,0,0.6667,0,0)" width="163"/>
  <atv:overwrite id="button_label_2" transform="matrix(0.4848,0,0,0.6667,0,0)" x="82.5" y="34"/>
  <atv:overwrite id="button_label_1" transform="matrix(0.4848,0,0,0.6667,0,0)" x="82.5" y="19"/>
  <atv:overwrite id="button_label" transform="matrix(0.4848,0,0,0.6667,0,0)" x="82.5" y="27"/>
  <atv:overwrite id="button_symbol_bottom" transform="matrix(0.2909,0,0,0.4,0,0)" x="127.333" y="38.792"/>
  <atv:overwrite id="button_symbol_top" transform="matrix(0.2909,0,0,0.4,0,0)" x="127.333" y="17.459"/>
  <atv:overwrite id="button_symbol" transform="matrix(0.4848,0,0,0.6667,0,0)" x="72.5" y="12.5"/>
  <atv:overwrite height="41" id="button_stroke" transform="matrix(0.4848,0,0,0.6667,0,0)" width="161"/>
  <atv:overwrite height="43" id="button_bg" transform="matrix(0.4848,0,0,0.6667,0,0)" width="163"/>
  <atv:overwrite height="45" id="outer_frame" transform="matrix(0.4848,0,0,0.6667,0,0)" width="165"/>
 </svg>
 <svg atv:dynamic="true" atv:refpx="313.498" atv:refpy="170" height="30" id="cancel_button" transform="matrix(2.0625,0,0,1.5,0,0)" width="80" x="111.999" xlink:href="SYSTEM.LIBRARY.ATVISE.OBJECTDISPLAYS.Advanced.button" y="138.334">
  <atv:argument name="label" value="T{Cancel}"/>
  <atv:argument name="tabIndex" value="12"/>
  <atv:argument name="borderVisible" value="true"/>
  <atv:argument name="extraBorderColor" value="#ffffff"/>
  <atv:overwrite height="43" id="id_6" transform="matrix(0.4848,0,0,0.6667,0,0)" width="163"/>
  <atv:overwrite id="button_label_2" transform="matrix(0.4848,0,0,0.6667,0,0)" x="82.5" y="34"/>
  <atv:overwrite id="button_label_1" transform="matrix(0.4848,0,0,0.6667,0,0)" x="82.5" y="19"/>
  <atv:overwrite id="button_label" transform="matrix(0.4848,0,0,0.6667,0,0)" x="82.5" y="27"/>
  <atv:overwrite id="button_symbol_bottom" transform="matrix(0.2909,0,0,0.4,0,0)" x="127.333" y="38.792"/>
  <atv:overwrite id="button_symbol_top" transform="matrix(0.2909,0,0,0.4,0,0)" x="127.333" y="17.459"/>
  <atv:overwrite id="button_symbol" transform="matrix(0.4848,0,0,0.6667,0,0)" x="72.5" y="12.5"/>
  <atv:overwrite height="41" id="button_stroke" transform="matrix(0.4848,0,0,0.6667,0,0)" width="161"/>
  <atv:overwrite height="43" id="button_bg" transform="matrix(0.4848,0,0,0.6667,0,0)" width="163"/>
  <atv:overwrite height="45" id="outer_frame" transform="matrix(0.4848,0,0,0.6667,0,0)" width="165"/>
 </svg>
 <text atv:refpx="216" atv:refpy="51" fill="$FONTCOLOR$" font-family="Arial" font-size="12" id="status_message2" text-anchor="middle" x="216" y="55.5"/>
 <svg atv:refpx="62.317" atv:refpy="45.934" height="20" id="symbol" transform="matrix(3.1935,0,0,3.1935,0,0)" width="20" x="11.859" xlink:href="$SYMBOL$" y="4.384">
  <atv:argument name="symbolColor" prefix="symbolColor"/>
 </svg>
 <text atv:refpx="224" atv:refpy="49" fill="$FONTCOLOR$" font-family="Arial" font-size="20" id="headline" text-anchor="middle" x="236.5" y="53.5">$HEADLINE$</text>
 <text atv:refpx="207.327" atv:refpy="192" fill="#ff0004" font-family="Arial" font-size="14" id="error_message" text-anchor="middle" x="207.327" y="197">&lt;errormessage></text>
 <rect atv:refpx="215" atv:refpy="115" fill="#ffffff" height="50" id="id_3" rx="10" ry="10" stroke="none" stroke-width="0" width="390" x="20" y="90"/>
 <rect atv:refpx="4.286" atv:refpy="45" fill="none" height="50" id="id_5" rx="5.961" ry="5.961" stroke="none" stroke-width="0" width="200" x="110" y="90"/>
 <svg atv:refpx="260" atv:refpy="115" height="30" id="username_input" transform="matrix(1.125,0,0,1,0,0)" width="160" x="151.111" xlink:href="SYSTEM.LIBRARY.ATVISE.OBJECTDISPLAYS.Advanced.in_out_value" y="100">
  <atv:argument name="validation" value="String"/>
  <atv:argument name="allowDirectInput" value="Yes"/>
  <atv:argument name="tabIndex" value="3"/>
  <atv:overwrite id="id_2" transform="matrix(0.8889,0,0,1,0,0)" width="174.5"/>
  <atv:overwrite id="input_label" transform="matrix(0.8889,0,0,1,0,0)" x="172.055"/>
  <atv:overwrite id="blinking_frame" transform="matrix(0.8889,0,0,1,0,0)" width="172"/>
  <atv:overwrite id="focus_frame" transform="matrix(0.8889,0,0,1,0,0)" width="176"/>
  <atv:overwrite id="input_bg" transform="matrix(0.8889,0,0,1,0,0)" width="172"/>
  <atv:overwrite id="id_1" transform="matrix(0.8889,0,0,1,0,0)" width="178"/>
  <atv:overwrite id="id_0" transform="matrix(0.8889,0,0,1,0,0)" width="180"/>
 </svg>
 <text atv:refpx="80.304" atv:refpy="113.5" fill="$FONTCOLOR$" font-family="Arial" font-size="16" id="username_label" x="34" y="119.5">T{Username}</text>
 <svg atv:dynamic="true" atv:refpx="375" atv:refpy="115" height="30" id="username_keyboard" transform="matrix(0.375,0,0,1,0,0)" width="80" x="960" xlink:href="SYSTEM.LIBRARY.ATVISE.OBJECTDISPLAYS.Advanced.button" y="100">
  <atv:argument name="symbol" value="SYSTEM.LIBRARY.ATVISE.OBJECTDISPLAYS.Symbols.20x20.keyboard"/>
  <atv:argument name="visibilitySymbol" value="inherit"/>
  <atv:argument name="visibilityLabel" value="hidden"/>
  <atv:argument name="tabIndex" value="4"/>
  <atv:overwrite id="id_2" transform="matrix(2.6667,0,0,1,0,0)" width="24.5"/>
  <atv:overwrite id="id_0" transform="matrix(2.6667,0,0,1,0,0)" width="29.5"/>
  <atv:overwrite id="id_1" transform="matrix(2.6667,0,0,1,0,0)" width="30"/>
  <atv:overwrite id="id_6" transform="matrix(2.6667,0,0,1,0,0)" width="28"/>
  <atv:overwrite id="button_label_2" transform="matrix(2.6667,0,0,1,0,0)" x="15"/>
  <atv:overwrite id="button_label_1" transform="matrix(2.6667,0,0,1,0,0)" x="15"/>
  <atv:overwrite id="button_label" transform="matrix(2.6667,0,0,1,0,0)" x="15"/>
  <atv:overwrite id="button_symbol_bottom" transform="matrix(1.6,0,0,0.6,0,0)" x="14.833"/>
  <atv:overwrite id="button_symbol_top" transform="matrix(1.6,0,0,0.6,0,0)" x="14.833"/>
  <atv:overwrite id="button_symbol" transform="matrix(2.6667,0,0,1,0,0)" x="5"/>
  <atv:overwrite id="button_stroke" transform="matrix(2.6667,0,0,1,0,0)" width="26"/>
  <atv:overwrite id="button_bg" transform="matrix(2.6667,0,0,1,0,0)" width="28"/>
  <atv:overwrite id="outer_frame" transform="matrix(2.6667,0,0,1,0,0)" width="30"/>
 </svg>
 <script atv:desc="" atv:href="SYSTEM.LIBRARY.PROJECT.DISPLAYSCRIPTS.usermanagement.user_new" atv:name="user_new" atv:type="text/ecmascript"/>
 <script atv:desc="" atv:name="" type="text/ecmascript"><![CDATA[

]]></script>
</svg>
