<?xml version='1.0' encoding='iso-8859-1'?>
<!-- Uploaded to: SVG Repo, www.svgrepo.com, Generator: SVG Repo Mixer Tools -->
<svg fill="#000000" height="271" id="Capa_1" version="1.1" width="463" xml:space="preserve" xmlns="http://www.w3.org/2000/svg" xmlns:atv="http://webmi.atvise.com/2007/svgext" xmlns:xlink="http://www.w3.org/1999/xlink">
 <defs/>
 <metadata>
  <atv:gridconfig enabled="false" gridstyle="lines" height="20" width="20"/>
  <atv:snapconfig enabled="false" height="10" width="10"/>
 </metadata>
 <path atv:refpx="231.5" atv:refpy="135.5" d="M455.5,256L447,256L447,151.5C447,120.896 422.103,96 391.5,96L383,96L383,55.5C383,42.542 372.458,32 359.5,32L359,32L359,23.5C359,10.542 348.458,0 335.5,0L127.5,0C114.542,0 104,10.542 104,23.5L104,32L103.5,32C90.542,32 80,42.542 80,55.5L80,120L79.5,120C62.131,120 48,134.131 48,151.5L48,152L47.5,152C30.131,152 16,166.13 16,183.5L16,256L7.5,256C3.357,256 0,259.358 0,263.5C0,267.642 3.358,271 7.5,271L455.5,271C459.642,271 463,267.642 463,263.5C463,259.358 459.642,256 455.5,256M391.5,111C413.832,111 432,129.168 432,151.5L432,256L415,256L415,151.5C415,138.542 404.458,128 391.5,128L383,128L383,111ZM383,143L391.5,143C396.187,143 400,146.813 400,151.5L400,256L383,256ZM368,55.5L368,256L175,256L175,47L359.5,47C364.187,47 368,50.812 368,55.5M160,47L160,64L127,64L127,47ZM160,143L160,160L127,160L127,143ZM127,128L127,111L160,111L160,128ZM160,175L160,192L127,192L127,175ZM160,96L127,96L127,79L160,79ZM127,207L160,207L160,224L127,224ZM127,239L160,239L160,256L127,256ZM119,23.5C119,18.813 122.813,15 127.5,15L335.5,15C340.187,15 344,18.813 344,23.5L344,32L119,32ZM95,55.5C95,50.812 98.813,47 103.5,47L112,47L112,256L95,256ZM80,256L63,256L63,167L80,167ZM63,151.5C63,142.402 70.402,135 79.5,135L80,135L80,152L63,152ZM31,183.5C31,174.402 38.402,167 47.5,167L48,167L48,256L31,256Z" id="id_0"/>
</svg>
