<?xml version='1.0' encoding='UTF-8' standalone='no'?>
<svg height="20" version="1.2" width="20" xmlns="http://www.w3.org/2000/svg" xmlns:atv="http://webmi.atvise.com/2007/svgext" xmlns:xlink="http://www.w3.org/1999/xlink">
 <defs/>
 <metadata>
  <atv:parameter behavior="optional" defaultvalue="#000000" desc="symbol color" name="symbolColor" substitute="$SYMBOLCOLOR$" valuetype="color"/>
  <atv:gridconfig enabled="false" gridstyle="lines" height="20" width="20"/>
  <atv:snapconfig enabled="false" height="10" width="10"/>
 </metadata>
 <rect atv:refpx="5.493" atv:refpy="14.094" fill="$SYMBOLCOLOR$" height="1.638" id="id_20" stroke-width="0.819" width="1.638" x="3.036" y="8.361"/>
 <rect atv:refpx="10.408" atv:refpy="14.094" fill="$SYMBOLCOLOR$" height="1.638" id="id_21" stroke-width="0.819" width="1.638" x="5.494" y="8.361"/>
 <rect atv:refpx="15.323" atv:refpy="14.094" fill="$SYMBOLCOLOR$" height="1.638" id="id_22" stroke-width="0.819" width="1.638" x="7.952" y="8.361"/>
 <rect atv:refpx="20.237" atv:refpy="14.094" fill="$SYMBOLCOLOR$" height="1.638" id="id_23" stroke-width="0.819" width="1.638" x="10.409" y="8.361"/>
 <rect atv:refpx="5.493" atv:refpy="19.009" fill="$SYMBOLCOLOR$" height="1.638" id="id_24" stroke-width="0.819" width="1.638" x="3.036" y="10.819"/>
 <rect atv:refpx="10.408" atv:refpy="19.009" fill="$SYMBOLCOLOR$" height="1.638" id="id_25" stroke-width="0.819" width="1.638" x="5.494" y="10.819"/>
 <rect atv:refpx="15.323" atv:refpy="19.009" fill="$SYMBOLCOLOR$" height="1.638" id="id_26" stroke-width="0.819" width="1.638" x="7.952" y="10.819"/>
 <rect atv:refpx="30.066" atv:refpy="14.094" fill="$SYMBOLCOLOR$" height="1.638" id="id_27" stroke-width="0.819" width="1.638" x="15.324" y="8.361"/>
 <rect atv:refpx="25.152" atv:refpy="14.094" fill="$SYMBOLCOLOR$" height="1.638" id="id_28" stroke-width="0.819" width="1.638" x="12.867" y="8.361"/>
 <rect atv:refpx="5.493" atv:refpy="23.923" fill="$SYMBOLCOLOR$" height="1.638" id="id_29" stroke-width="0.819" width="1.638" x="3.036" y="13.277"/>
 <rect atv:refpx="14.095" atv:refpy="23.923" fill="$SYMBOLCOLOR$" height="1.638" id="id_30" stroke-width="0.819" width="9.011" x="5.494" y="13.277"/>
 <rect atv:refpx="30.066" atv:refpy="23.923" fill="$SYMBOLCOLOR$" height="1.638" id="id_31" stroke-width="0.819" width="1.638" x="15.324" y="13.277"/>
 <rect atv:refpx="20.237" atv:refpy="19.009" fill="$SYMBOLCOLOR$" height="1.638" id="id_32" stroke-width="0.819" width="1.638" x="10.409" y="10.819"/>
 <rect atv:refpx="30.066" atv:refpy="19.009" fill="$SYMBOLCOLOR$" height="1.638" id="id_33" stroke-width="0.819" width="1.638" x="15.324" y="10.819"/>
 <rect atv:refpx="25.152" atv:refpy="19.009" fill="$SYMBOLCOLOR$" height="1.638" id="id_34" stroke-width="0.819" width="1.638" x="12.867" y="10.819"/>
 <polyline atv:refpx="10.046" atv:refpy="9.769" fill="none" id="id_3" points="17.375,3.485 17.375,4.703 13.248,4.703 13.248,6.326 12.4,6.326 12.4,7.208 1.86,7.208 1.86,16.052 18.231,16.052 18.231,7.208 12.4,7.208" stroke="$SYMBOLCOLOR$" stroke-linejoin="miter" stroke-width="1"/>
 <script atv:desc="" atv:name="" type="text/ecmascript"/>
</svg>
