<?xml version='1.0' encoding='UTF-8' standalone='no'?>
<svg height="890" version="1.2" width="1920" xmlns="http://www.w3.org/2000/svg" xmlns:atv="http://webmi.atvise.com/2007/svgext" xmlns:xlink="http://www.w3.org/1999/xlink">
 <defs/>
 <metadata>
  <atv:gridconfig enabled="false" gridstyle="lines" height="20" width="20"/>
  <atv:snapconfig enabled="true" height="5" width="5"/>
 </metadata>
 <svg atv:refpx="2190" atv:refpy="1447.453" height="600" id="id_4" transform="matrix(0.8,0,0,0.4917,0,0)" width="800" x="2337.5" xlink:href="SYSTEM.LIBRARY.ATVISE.OBJECTDISPLAYS.Advanced.hmi.iframe" y="2643.889">
  <atv:argument name="display" value="SYSTEM.LIBRARY.PROJECT.OBJECTDISPLAYS.Layouts_SCADA.Cuencas.Cuenca_CBE"/>
  <atv:argument name="isNavigationFrame" value="true"/>
  <atv:argument name="frameName" value="Cuenca_CBE"/>
 </svg>
 <script atv:desc="" atv:href="SYSTEM.LIBRARY.PROJECT.DISPLAYSCRIPTS.script_circuitos.circuitArray" atv:name="circuitArray" atv:type="text/ecmascript"/>
 <script atv:desc="" atv:name="" type="text/ecmascript"><![CDATA[



]]></script>
 <svg atv:refpx="355" atv:refpy="141.803" height="288" id="id_3" transform="matrix(0.9847,0,0,0.9847,0,0)" width="721" x="0" xlink:href="SYSTEM.LIBRARY.PROJECT.OBJECTDISPLAYS.Layouts_SCADA.Cuencas.Cuenca_4FINAL" y="0"/>
 <svg atv:refpx="1649.991" atv:refpy="573.748" height="242.01" id="id_5" transform="matrix(0.9906,0,0,0.9906,0,0)" width="535.02" x="1397.111" xlink:href="SYSTEM.LIBRARY.PROJECT.OBJECTDISPLAYS.Layouts_SCADA.Cuencas.Cuenca_CBE" y="445.178"/>
 <svg atv:refpx="316" atv:refpy="568.75" height="447.5" id="id_2" width="632" x="0" xlink:href="SYSTEM.LIBRARY.PROJECT.OBJECTDISPLAYS.Layouts_SCADA.Cuencas.Cuenca_LOX" y="292"/>
 <svg atv:refpx="984.564" atv:refpy="165" height="344" id="id_6" transform="matrix(0.9593,0,0,0.9593,0,0)" width="562" x="745.333" xlink:href="SYSTEM.LIBRARY.PROJECT.OBJECTDISPLAYS.Layouts_SCADA.Cuencas.Cuenca_NTE" y="0"/>
 <svg atv:refpx="1010" atv:refpy="563.288" height="472" id="id_7" transform="matrix(0.9673,0,0,0.9673,0,0)" width="765" x="661.622" xlink:href="SYSTEM.LIBRARY.PROJECT.OBJECTDISPLAYS.Layouts_SCADA.Cuencas.Cuenca_NPE" y="346.318"/>
 <svg atv:refpx="1594.5" atv:refpy="117.5" height="235" id="id_8" width="659" x="1258" xlink:href="SYSTEM.LIBRARY.PROJECT.OBJECTDISPLAYS.Layouts_SCADA.Cuencas.Cuenca_PTP" y="0"/>
 <svg atv:refpx="1652" atv:refpy="340.308" height="206" id="id_10" transform="matrix(0.9447,0,0,0.9447,0,0)" width="561" x="1467.068" xlink:href="SYSTEM.LIBRARY.PROJECT.OBJECTDISPLAYS.Layouts_SCADA.Cuencas.Cuenca_SUR" y="252.979"/>
 <svg atv:refpx="1489.863" atv:refpy="1049.971" height="239" id="id_11" transform="matrix(0.8991,0,0,0.8787,0,0)" width="954" x="1173.396" xlink:href="SYSTEM.LIBRARY.PROJECT.OBJECTDISPLAYS.Layouts_SCADA.Cuencas.Cuenca_PPS" y="1075.452"/>
 <svg atv:refpx="1652.223" atv:refpy="784.794" height="239" id="id_0" transform="matrix(0.8804,0,0,0.8804,0,0)" width="618.58" x="1562.247" xlink:href="SYSTEM.LIBRARY.PROJECT.OBJECTDISPLAYS.Layouts_SCADA.Cuencas.Cuenca_PPS_V2" y="771.922"/>
</svg>
