<?xml version='1.0' encoding='UTF-8' standalone='no'?>
<svg height="203" version="1.2" width="569.5" xmlns="http://www.w3.org/2000/svg" xmlns:atv="http://webmi.atvise.com/2007/svgext" xmlns:xlink="http://www.w3.org/1999/xlink">
 <defs/>
 <metadata>
  <atv:gridconfig enabled="false" gridstyle="lines" height="20" width="20"/>
  <atv:snapconfig enabled="true" height="1" width="1"/>
 </metadata>
 <g atv:insensitive="true" atv:refpx="0" atv:refpy="0" id="id_19">
  <rect atv:refpx="284.75" atv:refpy="101.5" fill="#ffffff" fill-opacity="0" height="203.00" id="id_20" width="569.50" x="0" y="0"/>
 </g>
 <line atv:refpx="428.501" atv:refpy="111.5" id="id_7" stroke="#000000" stroke-linecap="round" stroke-linejoin="round" stroke-width="2" x1="403.501" x2="447.501" y1="111" y2="111"/>
 <polygon atv:refpx="852.692" atv:refpy="-134.404" fill="#000018" id="id_8" points="442.501,101 442.501,121 455.691,111 455.691,111" stroke="#000000" stroke-linecap="round" stroke-linejoin="round" stroke-opacity="0" stroke-width="2"/>
 <line atv:refpx="426.501" atv:refpy="21.5" id="id_9" stroke="#000000" stroke-linecap="round" stroke-linejoin="round" stroke-width="2" x1="401.501" x2="445.501" y1="21" y2="21"/>
 <polygon atv:refpx="850.692" atv:refpy="-224.404" fill="#000018" id="id_10" points="440.501,11 440.501,31 453.691,21 453.691,21" stroke="#000000" stroke-linecap="round" stroke-linejoin="round" stroke-opacity="0" stroke-width="2"/>
 <line atv:refpx="120.501" atv:refpy="23.5" id="id_3" stroke="#000000" stroke-linecap="round" stroke-linejoin="round" stroke-width="2" x1="98.501" x2="142.501" y1="23" y2="23"/>
 <polygon atv:refpx="544.692" atv:refpy="-222.404" fill="#000018" id="id_13" points="137.501,13 137.501,33 150.692,23 150.692,23" stroke="#000000" stroke-linecap="round" stroke-linejoin="round" stroke-opacity="0" stroke-width="2"/>
 <svg atv:refpx="49.999" atv:refpy="22.994" height="63.11" id="id_1" transform="matrix(0.7519,0,0,0.7289,0,0)" width="133" x="0" xlink:href="ObjectTypes.PROJECT.ElementoLinea.Principal" y="0">
  <atv:argument name="base" value="AGENT.OBJECTS.SCADA.Benito_Juarez.Circuitos.Circuito_CAP_004.Carcamo_004"/>
 </svg>
 <svg atv:refpx="200.866" atv:refpy="22.994" height="63.11" id="id_5" transform="matrix(0.7519,0,0,0.7289,0,0)" width="133" x="200.656" xlink:href="ObjectTypes.PROJECT.ElementoLinea.Principal" y="0">
  <atv:argument name="base" value="AGENT.OBJECTS.SCADA.Benito_Juarez.Circuitos.Circuito_CAP_004.Carcamo_009"/>
 </svg>
 <svg atv:refpx="351.738" atv:refpy="111" height="63.11" id="id_35" transform="matrix(0.7519,0,0,0.7289,0,0)" width="133" x="402.648" xlink:href="ObjectTypes.PROJECT.ElementoLinea.Principal" y="120.73">
  <atv:argument name="base" value="AGENT.OBJECTS.SCADA.Benito_Juarez.Circuitos.Circuito_CAP_011.Carcamo_0+000"/>
 </svg>
 <svg atv:refpx="351.738" atv:refpy="23.994" height="63.11" id="id_46" transform="matrix(0.7519,0,0,0.7289,0,0)" width="133" x="402.648" xlink:href="ObjectTypes.PROJECT.ElementoLinea.Principal" y="1.372">
  <atv:argument name="base" value="AGENT.OBJECTS.SCADA.Benito_Juarez.Circuitos.Circuito_CAP_004.Carcamo_Aeropuerto_ZT"/>
 </svg>
 <script atv:desc="" atv:name="" type="text/ecmascript"><![CDATA[
webMI.addEvent("id_304", "click", function(e) {
var id = "id_304";
var value = true;
webMI.display.openWindow({display:"AGENT.OBJECTS.SCADA.Benito_Juarez.Circuitos.Circuito_CAP_004.Carcamo_009.Equipos.Scrubber.Scrubber_1.Scrubber",extern:false,height:349,menubar:false,modal:true,movable:true,resizable:true,scrollbars:false,status:false,title:"T{Scrubber}",toolbar:false,width:475,query:webMI.query});
});]]></script>
 <g atv:refpx="514.501" atv:refpy="64" id="id_63" transform="matrix(1.5521,0,0,1.5258,-383.4027,-29.0923)">
  <circle atv:refpx="574.014" atv:refpy="61.014" cx="574.014" cy="61.014" fill="#000088" fill-opacity="0" id="id_0" r="37.014" stroke="#000000" stroke-width="2"/>
  <text atv:refpx="575" atv:refpy="67" fill="#000000" font-family="Arial" font-size="28" id="id_2" text-anchor="middle" x="574.5" y="71.5">ZH</text>
 </g>
 <svg atv:refpx="50.001" atv:refpy="59" height="23" id="id_29" width="100" x="0.001" xlink:href="ObjectTypes.PROJECT.Caudalimetro.line_mini" y="45.5">
  <atv:argument name="base" value="AGENT.OBJECTS.SCADA.Benito_Juarez.Circuitos.Circuito_CAP_004.Carcamo_004.Equipos.Caudalimetro.L1"/>
 </svg>
 <line atv:refpx="273.501" atv:refpy="22.5" id="id_4" stroke="#000000" stroke-linecap="round" stroke-linejoin="round" stroke-width="2" x1="251.501" x2="295.501" y1="22" y2="22"/>
 <polygon atv:refpx="697.692" atv:refpy="-223.404" fill="#000018" id="id_6" points="290.501,12 290.501,32 303.691,22 303.691,22" stroke="#000000" stroke-linecap="round" stroke-linejoin="round" stroke-opacity="0" stroke-width="2"/>
 <svg atv:refpx="200.875" atv:refpy="59" height="23" id="id_14" width="100" x="150.875" xlink:href="ObjectTypes.PROJECT.Caudalimetro.line_mini" y="45.5">
  <atv:argument name="base" value="AGENT.OBJECTS.SCADA.Benito_Juarez.Circuitos.Circuito_CAP_004.Carcamo_009.Equipos.Caudalimetro.L1"/>
 </svg>
 <svg atv:refpx="351.752" atv:refpy="59.5" height="23" id="id_15" width="100" x="302.752" xlink:href="ObjectTypes.PROJECT.Caudalimetro.line_mini" y="47">
  <atv:argument name="base" value="AGENT.OBJECTS.SCADA.Benito_Juarez.Circuitos.Circuito_CAP_004.Carcamo_Aeropuerto_ZT.Equipos.Caudalimetro.L1"/>
 </svg>
 <svg atv:refpx="351.752" atv:refpy="146.5" height="23" id="id_16" width="100" x="302.752" xlink:href="ObjectTypes.PROJECT.Caudalimetro.line_mini" y="134">
  <atv:argument name="base" value="AGENT.OBJECTS.SCADA.Benito_Juarez.Circuitos.Circuito_CAP_011.Carcamo_0+000.Equipos.Caudalimetros.L24"/>
 </svg>
 <svg atv:refpx="351.752" atv:refpy="169.5" height="23" id="id_17" width="100" x="302.752" xlink:href="ObjectTypes.PROJECT.Caudalimetro.line_mini" y="157">
  <atv:argument name="base" value="AGENT.OBJECTS.SCADA.Benito_Juarez.Circuitos.Circuito_CAP_011.Carcamo_0+000.Equipos.Caudalimetros.L16"/>
 </svg>
 <svg atv:refpx="351.752" atv:refpy="192.5" height="23" id="id_18" width="100" x="302.752" xlink:href="ObjectTypes.PROJECT.Caudalimetro.line_mini" y="180">
  <atv:argument name="base" value="AGENT.OBJECTS.SCADA.Benito_Juarez.Circuitos.Circuito_CAP_011.Carcamo_0+000.Equipos.Caudalimetros.L6"/>
 </svg>
 <svg atv:refpx="200.875" atv:refpy="79.501" height="30" id="id_304" transform="matrix(1.25,0,0,0.7667,0,0)" width="80" x="120.7" xlink:href="SYSTEM.LIBRARY.ATVISE.OBJECTDISPLAYS.Advanced.button_open_display" y="88.692">
  <atv:argument name="label" value="T{SCRUBBER}"/>
  <atv:argument name="fontSize" value="14"/>
  <atv:argument name="fillColor" value="SYSTEM.GLOBALS.Colors.Azul_PTAR"/>
  <atv:argument name="fontColor" value="SYSTEM.GLOBALS.Colors.Blanco"/>
  <atv:overwrite height="21.001" id="id_6" transform="matrix(0.8,0,0,1.3043,0,0)" width="98"/>
  <atv:overwrite id="button_label" transform="matrix(0.651,0,0,1.3043,1.2666,0)" x="59.5" y="16.001"/>
  <atv:overwrite id="button_symbol" transform="matrix(0.8,0,0,1.3043,0,0)" x="40" y="1.501"/>
  <atv:overwrite height="19.001" id="button_stroke" transform="matrix(0.8,0,0,1.3043,0,0)" width="96"/>
  <atv:overwrite height="21.001" id="button_bg" transform="matrix(0.8,0,0,1.3043,0,0)" width="98"/>
  <atv:overwrite height="23.001" id="outer_frame" transform="matrix(0.8,0,0,1.3043,0,0)" width="100"/>
 </svg>
</svg>
