<?xml version='1.0' encoding='UTF-8' standalone='no'?>
<svg enable-background="new 0 0 40 40" height="40" id="Ebene_1" version="1.1" width="40" x="0px" xml:space="preserve" y="0px" xmlns="http://www.w3.org/2000/svg" xmlns:atv="http://webmi.atvise.com/2007/svgext" xmlns:xlink="http://www.w3.org/1999/xlink">
 <defs/>
 <metadata>
  <atv:parameter behavior="optional" defaultvalue="#000000" desc="symbol color" name="symbolColor" substitute="$SYMBOLCOLOR$" valuetype="color"/>
  <atv:parameter behavior="optional" defaultvalue="#ffffff" desc="number color" name="numberColor" substitute="$NUMBERCOLOR$" valuetype="color"/>
  <atv:gridconfig enabled="false" gridstyle="lines" height="20" width="20"/>
  <atv:snapconfig enabled="false" height="10" width="10"/>
 </metadata>
 <path atv:refpx="9.311" atv:refpy="5.95" d="M11.626,5.951C11.626,3.607 10.589,1.708 9.312,1.708C8.032,1.708 6.997,3.607 6.997,5.951C6.997,8.294 8.032,10.192 9.312,10.192C9.609,10.192 9.893,10.09 10.153,9.903L9.823,9.167C9.661,9.254 9.488,9.301 9.312,9.301C8.302,9.301 7.483,7.8 7.483,5.95C7.483,4.099 8.301,2.598 9.312,2.598C10.321,2.598 11.139,4.099 11.139,5.95L11.626,5.95Z" fill="$SYMBOLCOLOR$" id="id_0" stroke-width="1"/>
 <path atv:refpx="14.86" atv:refpy="5.95" d="M17.174,5.951C17.174,3.607 16.138,1.708 14.86,1.708C13.582,1.708 12.546,3.607 12.546,5.951C12.546,8.293 13.582,10.193 14.86,10.193C15.158,10.193 15.441,10.09 15.702,9.903L15.372,9.168C15.21,9.254 15.037,9.301 14.86,9.301C13.851,9.301 13.032,7.8 13.032,5.95C13.032,4.099 13.851,2.599 14.86,2.599C15.869,2.599 16.688,4.099 16.688,5.95Z" fill="$SYMBOLCOLOR$" id="id_1" stroke-width="1"/>
 <path atv:refpx="20.3" atv:refpy="5.95" d="M22.614,5.951C22.614,3.607 21.579,1.708 20.301,1.708C19.023,1.708 17.987,3.607 17.987,5.951C17.987,8.293 19.023,10.193 20.301,10.193C20.598,10.193 20.882,10.09 21.143,9.903L20.813,9.168C20.651,9.255 20.478,9.302 20.301,9.302C19.292,9.302 18.473,7.801 18.473,5.952C18.473,4.1 19.292,2.601 20.301,2.601C21.31,2.601 22.129,4.1 22.129,5.952L22.614,5.952Z" fill="$SYMBOLCOLOR$" id="id_2" stroke-width="1"/>
 <path atv:refpx="25.89" atv:refpy="5.95" d="M28.204,5.951C28.204,3.607 27.168,1.708 25.89,1.708C24.612,1.708 23.575,3.607 23.575,5.951C23.575,8.293 24.612,10.193 25.89,10.193C26.187,10.193 26.471,10.09 26.732,9.903L26.402,9.168C26.239,9.254 26.068,9.301 25.89,9.301C24.881,9.301 24.062,7.8 24.062,5.95C24.062,4.099 24.882,2.599 25.89,2.599C26.899,2.599 27.718,4.099 27.718,5.95Z" fill="$SYMBOLCOLOR$" id="id_3" stroke-width="1"/>
 <path atv:refpx="31.452" atv:refpy="5.95" d="M33.766,5.95C33.766,3.607 32.729,1.707 31.452,1.707C30.174,1.707 29.137,3.606 29.137,5.95C29.137,8.292 30.173,10.192 31.452,10.192C31.749,10.192 32.034,10.089 32.293,9.902L31.964,9.168C31.802,9.254 31.629,9.301 31.452,9.301C30.442,9.301 29.624,7.8 29.624,5.951C29.624,4.1 30.442,2.6 31.452,2.6C32.461,2.6 33.278,4.1 33.278,5.951L33.766,5.951Z" fill="$SYMBOLCOLOR$" id="id_4" stroke-width="1"/>
 <path atv:refpx="19.999" atv:refpy="9.541" d="M38.291,12.802L38.291,10.854C38.291,8.329 36.244,6.281 33.718,6.281L30.074,6.281C30.116,7.314 30.301,8.066 30.666,8.475C30.817,8.418 30.977,8.383 31.147,8.383C31.906,8.383 32.52,8.997 32.52,9.755C32.52,10.513 31.906,11.127 31.147,11.127C30.391,11.127 29.776,10.512 29.776,9.755C29.776,9.665 29.786,9.58 29.802,9.495C29.229,8.798 28.836,7.633 28.757,6.281L24.525,6.281C24.569,7.328 24.757,8.083 25.133,8.49C25.296,8.423 25.474,8.384 25.662,8.384C26.419,8.384 27.034,8.998 27.034,9.756C27.034,10.514 26.419,11.128 25.662,11.128C24.904,11.128 24.29,10.513 24.29,9.756C24.29,9.686 24.301,9.619 24.309,9.552C23.708,8.863 23.291,7.674 23.209,6.281L18.964,6.281C19.008,7.35 19.204,8.117 19.596,8.516C19.773,8.434 19.967,8.383 20.175,8.383C20.934,8.383 21.547,8.997 21.547,9.755C21.547,10.513 20.934,11.127 20.175,11.127C19.418,11.127 18.803,10.512 18.803,9.755C18.803,9.709 18.812,9.665 18.817,9.621C18.179,8.946 17.732,7.725 17.647,6.281L13.543,6.281C13.586,7.329 13.775,8.087 14.153,8.492C14.317,8.423 14.497,8.384 14.687,8.384C15.445,8.384 16.059,8.998 16.059,9.756C16.059,10.514 15.445,11.128 14.687,11.128C13.929,11.128 13.315,10.513 13.315,9.756C13.315,9.689 13.325,9.624 13.335,9.559C12.73,8.871 12.31,7.679 12.227,6.281L7.983,6.281C8.025,7.352 8.223,8.119 8.618,8.519C8.795,8.435 8.991,8.384 9.2,8.384C9.958,8.384 10.572,8.998 10.572,9.756C10.572,10.514 9.958,11.128 9.2,11.128C8.443,11.128 7.828,10.514 7.828,9.756C7.828,9.712 7.837,9.67 7.841,9.627C7.2,8.953 6.751,7.729 6.666,6.281L6.281,6.281C3.756,6.281 1.708,8.329 1.708,10.854L1.708,12.801L38.291,12.801Z" fill="$SYMBOLCOLOR$" id="id_5"/>
 <path atv:refpx="19.999" atv:refpy="26.339" d="M1.707,14.386L1.707,33.718L2.066,35.498L3.046,36.951L4.5,37.931L6.281,38.291L33.718,38.291L35.498,37.931L36.951,36.951L37.931,35.498L38.291,33.718L38.291,14.386ZM13.398,16.568C15.15,16.568 16.555,17.126 17.613,18.244C18.485,19.158 18.919,20.19 18.919,21.341C18.919,22.975 18.027,24.278 16.242,25.251C17.308,25.48 18.158,25.993 18.792,26.789C19.436,27.584 19.757,28.544 19.757,29.669C19.757,31.303 19.162,32.695 17.968,33.847C16.775,34.998 15.289,35.574 13.511,35.574C11.827,35.574 10.43,35.091 9.322,34.126C8.213,33.153 7.57,31.884 7.392,30.318L10.845,29.898C10.955,30.778 11.251,31.452 11.734,31.917C12.216,32.383 12.8,32.615 13.486,32.615C14.222,32.615 14.84,32.335 15.339,31.777C15.847,31.218 16.101,30.465 16.101,29.517C16.101,28.62 15.861,27.909 15.378,27.384C14.896,26.86 14.307,26.597 13.613,26.597C13.156,26.597 12.611,26.687 11.976,26.865L12.369,23.957C13.333,23.982 14.07,23.776 14.578,23.335C15.085,22.887 15.339,22.294 15.339,21.558C15.339,20.932 15.153,20.432 14.781,20.06C14.408,19.688 13.914,19.501 13.296,19.501C12.687,19.501 12.166,19.713 11.734,20.136C11.302,20.559 11.04,21.177 10.947,21.99L7.66,21.431C7.888,20.305 8.23,19.408 8.687,18.74C9.152,18.063 9.796,17.533 10.617,17.152C11.446,16.763 12.374,16.568 13.398,16.568M28.212,16.568L31.107,16.568L31.107,35.255L27.541,35.255L27.541,21.812C26.237,23.031 24.7,23.931 22.931,24.515L22.931,21.279C23.862,20.974 24.875,20.399 25.966,19.552C27.058,18.697 27.806,17.702 28.212,16.568" fill="$SYMBOLCOLOR$" id="id_9"/>
 <script atv:desc="" atv:name="" type="text/ecmascript"/>
</svg>
