<?xml version="1.0" encoding="utf-8"?><!-- Uploaded to: SVG Repo, www.svgrepo.com, Generator: SVG Repo Mixer Tools -->
<svg width="800px" height="800px" viewBox="0 0 48 48" xmlns="http://www.w3.org/2000/svg"><title>70 Basic icons by Xicons.co</title><path d="M24,1A23,23,0,1,0,47,24,23,23,0,0,0,24,1Z" fill="#f9da97"/><path d="M20,32.5a2,2,0,0,1-2-2v-13a2,2,0,0,1,4,0v13A2,2,0,0,1,20,32.5Z" fill="#f6c253"/><path d="M28,32.5a2,2,0,0,1-2-2v-13a2,2,0,0,1,4,0v13A2,2,0,0,1,28,32.5Z" fill="#f6c253"/></svg>