<?xml version='1.0' encoding='UTF-8' standalone='no'?>
<svg height="680" version="1.2" width="1280" xmlns="http://www.w3.org/2000/svg" xmlns:atv="http://webmi.atvise.com/2007/svgext" xmlns:xlink="http://www.w3.org/1999/xlink">
 <defs/>
 <desc>Overview and management of connection certificates.</desc>
 <title>Certificate Manager</title>
 <metadata>
  <atv:parameter behavior="mandatory" defaultvalue="certificate_tables_table" desc="table ID" group="Table" name="tableID" substitute="$TABLEID$" valuetype="string"/>
  <atv:parameter behavior="optional" defaultvalue="SYSTEM.GLOBALS.atvFontColor" desc="font color" group="Font" name="globalFontColor" substitute="$FONTCOLOR$" valuetype="global"/>
  <atv:parameter behavior="optional" defaultvalue="SYSTEM.GLOBALS.atvFillColor" desc="fill color" group="Appearance" name="globalFillColor" substitute="$FILLCOLOR$" valuetype="global"/>
  <atv:gridconfig enabled="true" gridstyle="lines" height="10" width="10"/>
  <atv:snapconfig enabled="true" height="5" width="5"/>
 </metadata>
 <rect atv:refpx="1002.02" atv:refpy="59.817" fill="$FILLCOLOR$" height="80" id="filters_bg" rx="0" ry="0" stroke="#000000" stroke-width="1" width="1280" x="0" y="0"/>
 <svg atv:refpx="639.949" atv:refpy="380.999" height="640" id="id_1" transform="matrix(2,0,0,0.9344,0,0)" width="640" x="0" xlink:href="SYSTEM.LIBRARY.ATVISE.OBJECTDISPLAYS.Advanced.slickgrid.table" y="87.758">
  <atv:argument name="tableID" prefix="tableID" value=""/>
  <atv:argument name="row_text_size" value="10"/>
  <atv:argument name="detail_text_size" value="10"/>
  <atv:argument name="footer_text_size" value="10"/>
  <atv:argument name="header_text_size" value="12"/>
 </svg>
 <script atv:desc="" atv:href="SYSTEM.LIBRARY.ATVISE.DISPLAYSCRIPTS.admin.certificate_manager" atv:name="certificate_manager" atv:type="text/ecmascript"/>
 <script atv:desc="" atv:name="" type="text/ecmascript"/>
 <svg atv:refpx="40" atv:refpy="40" height="60" id="id_5" width="60" x="10" xlink:href="SYSTEM.LIBRARY.ATVISE.OBJECTDISPLAYS.Symbols.60x60.certificate" y="10">
  <atv:argument name="symbolColor" prefix="globalFontColor"/>
 </svg>
 <text atv:refpx="142" atv:refpy="40" fill="$FONTCOLOR$" font-family="Arial" font-size="22" id="title" text-anchor="start" x="84" y="47.5">T{Certificate Manager}</text>
 <g atv:refpx="1037.5" atv:refpy="40" id="action_group">
  <svg atv:refpx="1060" atv:refpy="59" height="30" id="btn_create" transform="matrix(1.375,0,0,1,0,0)" width="80" x="730.909" xlink:href="SYSTEM.LIBRARY.ATVISE.OBJECTDISPLAYS.Advanced.button" y="42">
   <atv:argument name="label" value="T{Create}"/>
   <atv:argument name="extraBorderColor" value="#ffffff"/>
   <atv:argument name="tabIndex" value="6"/>
   <atv:overwrite id="id_6" transform="matrix(0.7273,0,0,1,0,0)" width="108"/>
   <atv:overwrite id="button_label_2" transform="matrix(0.7273,0,0,1,0,0)" x="55"/>
   <atv:overwrite id="button_label_1" transform="matrix(0.7273,0,0,1,0,0)" x="55"/>
   <atv:overwrite id="button_label" transform="matrix(0.7273,0,0,1,0,0)" x="55"/>
   <atv:overwrite id="button_symbol_bottom" transform="matrix(0.4364,0,0,0.6,0,0)" x="81.5"/>
   <atv:overwrite id="button_symbol_top" transform="matrix(0.4364,0,0,0.6,0,0)" x="81.5"/>
   <atv:overwrite id="button_symbol" transform="matrix(0.7273,0,0,1,0,0)" x="45"/>
   <atv:overwrite id="button_stroke" transform="matrix(0.7273,0,0,1,0,0)" width="106"/>
   <atv:overwrite id="button_bg" transform="matrix(0.7273,0,0,1,0,0)" width="108"/>
   <atv:overwrite id="outer_frame" transform="matrix(0.7273,0,0,1,0,0)" width="110"/>
  </svg>
  <svg atv:refpx="1059.999" atv:refpy="40" height="30" id="btn_trust" transform="matrix(1.375,0,0,1,0,0)" width="80" x="730.909" xlink:href="SYSTEM.LIBRARY.ATVISE.OBJECTDISPLAYS.Advanced.button" y="42">
   <atv:argument name="label" value="T{Trust}"/>
   <atv:argument name="extraBorderColor" value="#ffffff"/>
   <atv:argument name="tabIndex" value="5"/>
   <atv:overwrite id="id_6" transform="matrix(0.7273,0,0,1,0,0)" width="108"/>
   <atv:overwrite id="button_label_2" transform="matrix(0.7273,0,0,1,0,0)" x="55"/>
   <atv:overwrite id="button_label_1" transform="matrix(0.7273,0,0,1,0,0)" x="55"/>
   <atv:overwrite id="button_label" transform="matrix(0.7273,0,0,1,0,0)" x="55"/>
   <atv:overwrite id="button_symbol_bottom" transform="matrix(0.4364,0,0,0.6,0,0)" x="81.5"/>
   <atv:overwrite id="button_symbol_top" transform="matrix(0.4364,0,0,0.6,0,0)" x="81.5"/>
   <atv:overwrite id="button_symbol" transform="matrix(0.7273,0,0,1,0,0)" x="45"/>
   <atv:overwrite id="button_stroke" transform="matrix(0.7273,0,0,1,0,0)" width="106"/>
   <atv:overwrite id="button_bg" transform="matrix(0.7273,0,0,1,0,0)" width="108"/>
   <atv:overwrite id="outer_frame" transform="matrix(0.7273,0,0,1,0,0)" width="110"/>
  </svg>
  <svg atv:refpx="1180" atv:refpy="25" height="30" id="btn_delete" transform="matrix(1.375,0,0,1,0,0)" width="80" x="815.273" xlink:href="SYSTEM.LIBRARY.ATVISE.OBJECTDISPLAYS.Advanced.button" y="7">
   <atv:argument name="label" value="T{Delete}"/>
   <atv:argument name="extraBorderColor" value="#ffffff"/>
   <atv:argument name="tabIndex" value="4"/>
   <atv:overwrite id="id_6" transform="matrix(0.7273,0,0,1,0,0)" width="108"/>
   <atv:overwrite id="button_label_2" transform="matrix(0.7273,0,0,1,0,0)" x="55"/>
   <atv:overwrite id="button_label_1" transform="matrix(0.7273,0,0,1,0,0)" x="55"/>
   <atv:overwrite id="button_label" transform="matrix(0.7273,0,0,1,0,0)" x="55"/>
   <atv:overwrite id="button_symbol_bottom" transform="matrix(0.4364,0,0,0.6,0,0)" x="81.5"/>
   <atv:overwrite id="button_symbol_top" transform="matrix(0.4364,0,0,0.6,0,0)" x="81.5"/>
   <atv:overwrite id="button_symbol" transform="matrix(0.7273,0,0,1,0,0)" x="45"/>
   <atv:overwrite id="button_stroke" transform="matrix(0.7273,0,0,1,0,0)" width="106"/>
   <atv:overwrite id="button_bg" transform="matrix(0.7273,0,0,1,0,0)" width="108"/>
   <atv:overwrite id="outer_frame" transform="matrix(0.7273,0,0,1,0,0)" width="110"/>
  </svg>
  <svg atv:refpx="1175" atv:refpy="60" height="30" id="btn_reject" transform="matrix(1.375,0,0,1,0,0)" width="80" x="814.545" xlink:href="SYSTEM.LIBRARY.ATVISE.OBJECTDISPLAYS.Advanced.button" y="42">
   <atv:argument name="label" value="T{Reject}"/>
   <atv:argument name="extraBorderColor" value="#ffffff"/>
   <atv:argument name="tabIndex" value="7"/>
   <atv:overwrite id="id_6" transform="matrix(0.7273,0,0,1,0,0)" width="108"/>
   <atv:overwrite id="button_label_2" transform="matrix(0.7273,0,0,1,0,0)" x="55"/>
   <atv:overwrite id="button_label_1" transform="matrix(0.7273,0,0,1,0,0)" x="55"/>
   <atv:overwrite id="button_label" transform="matrix(0.7273,0,0,1,0,0)" x="55"/>
   <atv:overwrite id="button_symbol_bottom" transform="matrix(0.4364,0,0,0.6,0,0)" x="81.5"/>
   <atv:overwrite id="button_symbol_top" transform="matrix(0.4364,0,0,0.6,0,0)" x="81.5"/>
   <atv:overwrite id="button_symbol" transform="matrix(0.7273,0,0,1,0,0)" x="45"/>
   <atv:overwrite id="button_stroke" transform="matrix(0.7273,0,0,1,0,0)" width="106"/>
   <atv:overwrite id="button_bg" transform="matrix(0.7273,0,0,1,0,0)" width="108"/>
   <atv:overwrite id="outer_frame" transform="matrix(0.7273,0,0,1,0,0)" width="110"/>
  </svg>
  <svg atv:refpx="1060" atv:refpy="25" height="30" id="btn_upload" transform="matrix(1.375,0,0,1,0,0)" width="80" x="730.909" xlink:href="SYSTEM.LIBRARY.ATVISE.OBJECTDISPLAYS.Advanced.button" y="7">
   <atv:argument name="label" value="T{Upload}"/>
   <atv:argument name="extraBorderColor" value="#ffffff"/>
   <atv:argument name="tabIndex" value="3"/>
   <atv:overwrite id="id_6" transform="matrix(0.7273,0,0,1,0,0)" width="108"/>
   <atv:overwrite id="button_label_2" transform="matrix(0.7273,0,0,1,0,0)" x="55"/>
   <atv:overwrite id="button_label_1" transform="matrix(0.7273,0,0,1,0,0)" x="55"/>
   <atv:overwrite id="button_label" transform="matrix(0.7273,0,0,1,0,0)" x="55"/>
   <atv:overwrite id="button_symbol_bottom" transform="matrix(0.4364,0,0,0.6,0,0)" x="81.5"/>
   <atv:overwrite id="button_symbol_top" transform="matrix(0.4364,0,0,0.6,0,0)" x="81.5"/>
   <atv:overwrite id="button_symbol" transform="matrix(0.7273,0,0,1,0,0)" x="45"/>
   <atv:overwrite id="button_stroke" transform="matrix(0.7273,0,0,1,0,0)" width="106"/>
   <atv:overwrite id="button_bg" transform="matrix(0.7273,0,0,1,0,0)" width="108"/>
   <atv:overwrite id="outer_frame" transform="matrix(0.7273,0,0,1,0,0)" width="110"/>
  </svg>
  <svg atv:refpx="711.356" atv:refpy="78" height="30" id="type_picker" transform="matrix(1.0938,0,0,1,0,0)" width="160" x="690.286" xlink:href="SYSTEM.LIBRARY.ATVISE.OBJECTDISPLAYS.Advanced.combobox" y="43">
   <atv:argument name="text1" value="T{OPC UA Server}"/>
   <atv:argument name="text2" value="T{OPC UA Datasources}"/>
   <atv:argument name="text3" value="T{HTTPS}"/>
   <atv:argument name="text1value" value="opcua"/>
   <atv:argument name="text2value" value="mirror"/>
   <atv:argument name="text3value" value="https"/>
   <atv:argument name="tabIndex" value="2"/>
   <atv:overwrite id="focus_frame" transform="matrix(0.9142,0,0,1,0,0)" width="171.008"/>
   <atv:overwrite id="button_stroke" transform="matrix(0.9142,0,0,1,0,0)" x="150.008"/>
   <atv:overwrite id="id_7" transform="matrix(0.9142,0,0,1,0,0)" x="150.008"/>
   <atv:overwrite id="button_bg" transform="matrix(0.9142,0,0,1,0,0)" x="150.008"/>
   <atv:overwrite id="combobox_label" transform="matrix(0.9142,0,0,1,0,0)" x="140.508"/>
   <atv:overwrite id="blinking_frame" transform="matrix(0.9142,0,0,1,0,0)" width="143.008"/>
   <atv:overwrite id="combobox_bg" transform="matrix(0.9142,0,0,1,0,0)" width="143.008"/>
   <atv:overwrite id="id_1" transform="matrix(0.9142,0,0,1,0,0)" width="173.008"/>
   <atv:overwrite id="id_0" transform="matrix(0.9142,0,0,1,0,0)" width="175.008"/>
  </svg>
  <svg atv:refpx="370.312" atv:refpy="43" height="30" id="store_picker" transform="matrix(1.0938,0,0,1,0,0)" width="160" x="690.286" xlink:href="SYSTEM.LIBRARY.ATVISE.OBJECTDISPLAYS.Advanced.combobox" y="8">
   <atv:argument name="tabIndex" value="1"/>
   <atv:overwrite id="focus_frame" transform="matrix(0.9142,0,0,1,0,0)" width="171.008"/>
   <atv:overwrite id="button_stroke" transform="matrix(0.9142,0,0,1,0,0)" x="150.008"/>
   <atv:overwrite id="id_7" transform="matrix(0.9142,0,0,1,0,0)" x="150.008"/>
   <atv:overwrite id="button_bg" transform="matrix(0.9142,0,0,1,0,0)" x="150.008"/>
   <atv:overwrite id="combobox_label" transform="matrix(0.9142,0,0,1,0,0)" x="140.508"/>
   <atv:overwrite id="blinking_frame" transform="matrix(0.9142,0,0,1,0,0)" width="143.008"/>
   <atv:overwrite id="combobox_bg" transform="matrix(0.9142,0,0,1,0,0)" width="143.008"/>
   <atv:overwrite id="id_1" transform="matrix(0.9142,0,0,1,0,0)" width="173.008"/>
   <atv:overwrite id="id_0" transform="matrix(0.9142,0,0,1,0,0)" width="175.008"/>
  </svg>
  <text atv:refpx="1627.871" atv:refpy="-242.53" fill="$FONTCOLOR$" font-family="Arial" font-size="14" id="id_23" text-anchor="end" x="746" y="28">T{Store}:</text>
  <text atv:refpx="1298.441" atv:refpy="-107" fill="$FONTCOLOR$" font-family="Arial" font-size="14" id="label_eventtext" text-anchor="end" x="746" y="63">T{Type}:</text>
  <line atv:refpx="980.5" atv:refpy="47.5" id="id_11" stroke="#ffffff" stroke-linejoin="round" stroke-width="2" x1="977" x2="977" y1="7" y2="72"/>
  <svg atv:refpx="1334" atv:refpy="60" height="30" id="btn_sync_stores" transform="matrix(1.375,0,0,1,0,0)" visibility="hidden" width="80" x="930.182" xlink:href="SYSTEM.LIBRARY.ATVISE.OBJECTDISPLAYS.Advanced.button" y="42">
   <atv:argument name="label" value="T{Sync stores}"/>
   <atv:argument name="extraBorderColor" value="#ffffff"/>
   <atv:argument name="tabIndex" value="8"/>
   <atv:overwrite id="id_6" transform="matrix(0.7273,0,0,1,0,0)" width="108"/>
   <atv:overwrite id="button_label_2" transform="matrix(0.7273,0,0,1,0,0)" x="55"/>
   <atv:overwrite id="button_label_1" transform="matrix(0.7273,0,0,1,0,0)" x="55"/>
   <atv:overwrite id="button_label" transform="matrix(0.7273,0,0,1,0,0)" x="55"/>
   <atv:overwrite id="button_symbol_bottom" transform="matrix(0.4364,0,0,0.6,0,0)" x="81.5"/>
   <atv:overwrite id="button_symbol_top" transform="matrix(0.4364,0,0,0.6,0,0)" x="81.5"/>
   <atv:overwrite id="button_symbol" transform="matrix(0.7273,0,0,1,0,0)" x="45"/>
   <atv:overwrite id="button_stroke" transform="matrix(0.7273,0,0,1,0,0)" width="106"/>
   <atv:overwrite id="button_bg" transform="matrix(0.7273,0,0,1,0,0)" width="108"/>
   <atv:overwrite id="outer_frame" transform="matrix(0.7273,0,0,1,0,0)" width="110"/>
  </svg>
  <text atv:refpx="2609.11" atv:refpy="-242.53" fill="$FONTCOLOR$" font-family="Arial" font-size="14" id="header_sync_stores" text-anchor="middle" visibility="hidden" x="1322" y="28">T{Redundancy}:</text>
  <line atv:refpx="1258.5" atv:refpy="48.5" id="seperator_sync_stores" stroke="#ffffff" stroke-linejoin="round" stroke-width="2" visibility="hidden" x1="1255" x2="1255" y1="8" y2="73"/>
  <svg atv:refpx="954.832" atv:refpy="3.499" height="30" id="btn_reload" transform="matrix(0.375,0,0,2.1667,0,0)" width="80" x="2500.885" xlink:href="SYSTEM.LIBRARY.ATVISE.OBJECTDISPLAYS.Advanced.button" y="3.615">
   <atv:argument name="label" value=""/>
   <atv:argument name="extraBorderColor" value="#ffffff"/>
   <atv:argument name="tabIndex" value="5"/>
   <atv:argument name="visibilitySymbol" value="inherit"/>
   <atv:argument name="visibilityLabel" value="hidden"/>
   <atv:argument name="symbol" value="SYSTEM.LIBRARY.ATVISE.OBJECTDISPLAYS.Symbols.20x20.file_reload"/>
   <atv:overwrite height="63" id="id_6" transform="matrix(2.6667,0,0,0.4615,0,0)" width="28"/>
   <atv:overwrite id="button_label_2" transform="matrix(2.6667,0,0,0.4615,0,0)" x="15" y="44"/>
   <atv:overwrite id="button_label_1" transform="matrix(2.6667,0,0,0.4615,0,0)" x="15" y="29"/>
   <atv:overwrite id="button_label" transform="matrix(2.6667,0,0,0.4615,0,0)" x="15" y="37"/>
   <atv:overwrite id="button_symbol_bottom" transform="matrix(1.6,0,0,0.2769,0,0)" x="14.833" y="55.459"/>
   <atv:overwrite id="button_symbol_top" transform="matrix(1.6,0,0,0.2769,0,0)" x="14.833" y="34.126"/>
   <atv:overwrite id="button_symbol" transform="matrix(2.6667,0,0,0.4615,0,0)" x="5" y="22.5"/>
   <atv:overwrite height="61" id="button_stroke" transform="matrix(2.6667,0,0,0.4615,0,0)" width="26"/>
   <atv:overwrite height="63" id="button_bg" transform="matrix(2.6667,0,0,0.4615,0,0)" width="28"/>
   <atv:overwrite height="65" id="outer_frame" transform="matrix(2.6667,0,0,0.4615,0,0)" width="30"/>
  </svg>
 </g>
</svg>
