<?xml version="1.0" encoding="utf-8"?>
<!-- Uploaded to: SVG Repo, www.svgrepo.com, Generator: SVG Repo Mixer Tools -->
<!DOCTYPE svg PUBLIC "-//W3C//DTD SVG 1.1//EN" "http://www.w3.org/Graphics/SVG/1.1/DTD/svg11.dtd">
<svg version="1.1" id="Layer_1" xmlns="http://www.w3.org/2000/svg" xmlns:xlink="http://www.w3.org/1999/xlink" 
	 viewBox="0 0 345.8 345.8" enable-background="new 0 0 345.8 345.8" xml:space="preserve">
<g>
	<circle fill="none" stroke="#FFFFFF" stroke-width="0.75" stroke-miterlimit="10" cx="172.9" cy="172.9" r="172.5"/>
	<circle fill="#E1473F" cx="172.9" cy="172.9" r="172.5"/>
	<circle fill="#FF5F57" cx="172.9" cy="172.9" r="157.5"/>
	<g>
		<path fill="#752521" d="M160.4,80.4c5.7-5.3,12.4-8,20.1-8c7.8,0,14.5,2.7,20.1,8c5.6,5.3,8.3,11.7,8.3,19.3
			c0,3.7-0.8,9.3-2.3,16.6c-1.6,7.4-3.3,14.9-5.1,22.6c-2.1,8.4-4.4,18.8-7,31.2c-2.6,12.4-5.4,27.9-8.3,46.6h-11.3
			c-2.9-18.5-5.7-34-8.3-46.5c-2.6-12.5-5-23-7-31.4c-2.1-8.9-3.9-16.6-5.3-23.2c-1.4-6.6-2.1-11.9-2.1-15.9
			C151.9,92.1,154.7,85.7,160.4,80.4z M160.6,242.2c5.6-5.4,12.2-8.1,19.7-8.1c7.6,0,14.2,2.7,19.8,8.1c5.6,5.4,8.4,11.8,8.4,19.3
			c0,7.4-2.8,13.8-8.4,19.1c-5.6,5.3-12.2,8-19.8,8c-7.5,0-14.1-2.7-19.7-8c-5.6-5.3-8.4-11.7-8.4-19.1
			C152.2,254.1,155,247.6,160.6,242.2z"/>
	</g>
	<g>
		<path fill="#FFFFFF" d="M152.9,72.8c5.7-5.3,12.4-8,20.1-8c7.8,0,14.5,2.7,20.1,8c5.6,5.3,8.3,11.7,8.3,19.3
			c0,3.7-0.8,9.3-2.3,16.6c-1.6,7.4-3.3,14.9-5.1,22.6c-2.1,8.4-4.4,18.8-7,31.2c-2.6,12.4-5.4,27.9-8.3,46.6h-11.3
			c-2.9-18.5-5.7-34-8.3-46.5c-2.6-12.5-5-23-7-31.4c-2.1-8.9-3.9-16.6-5.3-23.2c-1.4-6.6-2.1-11.9-2.1-15.9
			C144.4,84.5,147.2,78.1,152.9,72.8z M153.1,234.6c5.6-5.4,12.2-8.1,19.7-8.1c7.6,0,14.2,2.7,19.8,8.1c5.6,5.4,8.4,11.8,8.4,19.3
			c0,7.4-2.8,13.8-8.4,19.1c-5.6,5.3-12.2,8-19.8,8c-7.5,0-14.1-2.7-19.7-8c-5.6-5.3-8.4-11.7-8.4-19.1
			C144.7,246.5,147.5,240,153.1,234.6z"/>
	</g>
</g>
</svg>