<svg width="24" height="24" stroke-width="1.5" stroke="#000000" class="icon icon-tabler icon-tabler-file-export" xmlns:xlink="http://www.w3.org/1999/xlink" fill="none" stroke-linecap="round" xmlns:atv="http://webmi.atvise.com/2007/svgext" stroke-linejoin="round" xmlns="http://www.w3.org/2000/svg">
 <defs/>
 <metadata>
  <atv:gridconfig enabled="false" gridstyle="lines" height="20" width="20"/>
  <atv:snapconfig enabled="false" height="10" width="10"/>
 </metadata>
 <path atv:refpx="12" atv:refpy="12" d="M0,0L24,0L24,24L0,24Z" fill="none" id="id_0" stroke="none"/>
 <path atv:refpx="16.5" atv:refpy="5.5" d="M14,3L14,7C14,7.552 14.447,8 15,8L19,8" fill="#000000" fill-opacity="0" id="id_1" stroke="#000000" stroke-linecap="round" stroke-linejoin="round"/>
 <path atv:refpx="13" atv:refpy="12.5" d="M11.5,21L7,21C5.895,21 5,20.104 5,19L5,5C5,3.895 5.895,3 7,3L14,3L19,8L19,13M14,19L21,19M18,16L21,19L18,22" fill="#000000" fill-opacity="0" id="id_2" stroke="#000000" stroke-linecap="round" stroke-linejoin="round"/>
</svg>
