<?xml version='1.0' encoding='UTF-8' standalone='no'?>
<svg enable-background="new 0 0 72 72" height="60" id="Ebene_1" version="1.1" width="60" x="0px" xml:space="preserve" y="0px" xmlns="http://www.w3.org/2000/svg" xmlns:atv="http://webmi.atvise.com/2007/svgext" xmlns:xlink="http://www.w3.org/1999/xlink">
 <defs/>
 <metadata>
  <atv:parameter behavior="optional" defaultvalue="#000000" desc="symbol color" name="symbolColor" substitute="$SYMBOLCOLOR$" valuetype="color"/>
  <atv:gridconfig enabled="false" gridstyle="lines" height="20" width="20"/>
  <atv:snapconfig enabled="false" height="10" width="10"/>
 </metadata>
 <g atv:refpx="30" atv:refpy="30" id="id_2" transform="matrix(1,0,0,1,1.0375,0.0096)">
  <path atv:refpx="28.966" atv:refpy="43.435" d="M41.089,10.075L41.089,17.611C45.081,21.036 47.623,26.108 47.623,31.768C47.623,42.061 39.253,50.432 28.96,50.432C18.668,50.432 10.298,42.06 10.298,31.768C10.298,26.682 12.344,22.072 15.655,18.703L15.655,10.782C8.716,15.196 4.1,22.953 4.1,31.768C4.1,45.478 15.252,56.633 28.962,56.633C42.669,56.633 53.824,45.478 53.824,31.768C53.824,22.46 48.68,14.336 41.089,10.075" fill="$SYMBOLCOLOR$" id="id_0"/>
  <polygon atv:refpx="54.537" atv:refpy="14.579" fill="$SYMBOLCOLOR$" id="id_1" points="32.348,25.805 25.573,25.805 25.573,3.347 32.348,3.347 32.348,25.805"/>
 </g>
 <script atv:desc="" atv:name="" type="text/ecmascript"/>
</svg>
