<?xml version='1.0' encoding='UTF-8' standalone='no'?>
<svg height="340" version="1.2" width="720" xmlns="http://www.w3.org/2000/svg" xmlns:atv="http://webmi.atvise.com/2007/svgext" xmlns:xlink="http://www.w3.org/1999/xlink">
 <defs/>
 <metadata>
  <atv:gridconfig enabled="false" gridstyle="lines" height="20" width="20"/>
  <atv:snapconfig enabled="true" height="1" width="1"/>
 </metadata>
 <g atv:insensitive="true" atv:refpx="0" atv:refpy="0" id="id_0" transform="matrix(0.75,0,0,0.382,0,0)">
  <rect atv:refpx="480" atv:refpy="445" fill="#ffffff" fill-opacity="0" height="890.00" id="id_3" width="960.00" x="0" y="0"/>
 </g>
 <script atv:desc="" atv:name="" type="text/ecmascript"/>
 <line atv:refpx="289.007" atv:refpy="96.935" id="id_45" stroke="#000000" stroke-linecap="round" stroke-linejoin="round" stroke-width="2.015" x1="341.007" x2="237.007" y1="62.435" y2="62.435"/>
 <line atv:refpx="484" atv:refpy="164.935" id="id_47" stroke="#000000" stroke-linecap="round" stroke-linejoin="round" stroke-width="2.015" x1="484" x2="484" y1="128.435" y2="201.435"/>
 <svg atv:refpx="468.48" atv:refpy="222.963" height="63.11" id="id_5" transform="matrix(1,0,0,0.9983,0,0)" width="133" x="413" xlink:href="ObjectTypes.PROJECT.ElementoLinea.Principal" y="206.486">
  <atv:argument name="base" value="AGENT.OBJECTS.SCADA.Puerto_Morelos.Circuitos.Circuito_PM.Carcamo_Villas_Morelos_Tanque_01"/>
 </svg>
 <svg atv:refpx="478.482" atv:refpy="64.298" height="63.11" id="id_6" transform="matrix(1,0,0,0.9983,0,0)" width="133" x="412" xlink:href="ObjectTypes.PROJECT.ElementoLinea.Principal" y="29.511">
  <atv:argument name="base" value="AGENT.OBJECTS.SCADA.Puerto_Morelos.Circuitos.Circuito_PM.Carcamo_Villas_Morelos_Tanque_02"/>
 </svg>
 <svg atv:refpx="468.5" atv:refpy="278.968" height="23" id="id_4" transform="matrix(1.33,0,0,1.3478,0,0)" width="100" x="310.526" xlink:href="ObjectTypes.PROJECT.Caudalimetro.line_mini" y="199.34">
  <atv:argument name="base" value="AGENT.OBJECTS.SCADA.Puerto_Morelos.Circuitos.Circuito_PM.Carcamo_Villas_Morelos_Tanque_01.Equipos.Caudalimetro.L_14"/>
 </svg>
 <svg atv:refpx="468.5" atv:refpy="310.816" height="23" id="id_15" transform="matrix(1.33,0,0,1.3478,0,0)" width="100" x="310.526" xlink:href="ObjectTypes.PROJECT.Caudalimetro.line_mini" y="221.969">
  <atv:argument name="base" value="AGENT.OBJECTS.SCADA.Puerto_Morelos.Circuitos.Circuito_PM.Carcamo_Villas_Morelos_Tanque_01.Equipos.Caudalimetro.L_10"/>
 </svg>
 <svg atv:refpx="468.5" atv:refpy="111.533" height="23" id="id_16" transform="matrix(1.33,0,0,1.3478,0,0)" width="100" x="309.774" xlink:href="ObjectTypes.PROJECT.Caudalimetro.line_mini" y="68.759">
  <atv:argument name="base" value="AGENT.OBJECTS.SCADA.Puerto_Morelos.Circuitos.Circuito_PM.Carcamo_Villas_Morelos_Tanque_02.Equipos.Caudalimetro.L1"/>
 </svg>
 <svg atv:refpx="188.5" atv:refpy="62.99" height="63.11" id="id_35" width="133" x="122" xlink:href="ObjectTypes.PROJECT.ElementoPozo.Principal" y="29.435">
  <atv:argument name="base" value="AGENT.OBJECTS.SCADA.Puerto_Morelos.Circuitos.Circuito_PM.Pozo_001_PM"/>
 </svg>
 <svg atv:refpx="188.5" atv:refpy="74.323" height="63.11" id="id_36" width="133" x="122" xlink:href="ObjectTypes.PROJECT.ElementoPozo.Principal" y="105.768">
  <atv:argument name="base" value="AGENT.OBJECTS.SCADA.Puerto_Morelos.Circuitos.Circuito_PM.Pozo_002_PM"/>
 </svg>
 <svg atv:refpx="188.5" atv:refpy="219.657" height="63.11" id="id_37" width="133" x="122" xlink:href="ObjectTypes.PROJECT.ElementoPozo.Principal" y="182.102">
  <atv:argument name="base" value="AGENT.OBJECTS.SCADA.Puerto_Morelos.Circuitos.Circuito_PM.Pozo_003_PM"/>
 </svg>
 <svg atv:refpx="188.5" atv:refpy="232.99" height="63.11" id="id_39" width="133" x="122" xlink:href="ObjectTypes.PROJECT.ElementoPozo.Principal" y="258.435">
  <atv:argument name="base" value="AGENT.OBJECTS.SCADA.Puerto_Morelos.Circuitos.Circuito_PM.Pozo_004_PM"/>
 </svg>
 <polygon atv:refpx="405.593" atv:refpy="234.436" fill="#000018" id="id_46" points="399,224.435 399,244.435 412.188,234.435 412.188,234.435" stroke="#000000" stroke-linecap="round" stroke-linejoin="round" stroke-opacity="0" stroke-width="2.015"/>
 <line atv:refpx="353.14" atv:refpy="148.935" id="id_48" stroke="#000000" stroke-linecap="round" stroke-linejoin="round" stroke-width="2.015" x1="341" x2="341" y1="62.435" y2="235.435"/>
 <polygon atv:refpx="484.593" atv:refpy="131.436" fill="#000018" id="id_52" points="474.592,138.024 494.592,138.024 484.592,124.837 484.592,124.837" stroke="#000000" stroke-linecap="round" stroke-linejoin="round" stroke-opacity="0" stroke-width="2.015"/>
 <polygon atv:refpx="475.593" atv:refpy="192.436" fill="#000018" id="id_53" points="494.589,192.843 474.589,192.843 484.589,206.03 484.589,206.03" stroke="#000000" stroke-linecap="round" stroke-linejoin="round" stroke-opacity="0" stroke-width="2.015"/>
 <line atv:refpx="374.495" atv:refpy="234.435" id="id_54" stroke="#000000" stroke-linecap="round" stroke-linejoin="round" stroke-width="2.015" x1="408" x2="341" y1="234.435" y2="234.435"/>
 <polygon atv:refpx="188.001" atv:refpy="99.033" fill="#000018" id="id_55" points="178,105.622 198,105.622 188,92.435 188,92.435" stroke="#000000" stroke-linecap="round" stroke-linejoin="round" stroke-opacity="0" stroke-width="2.015"/>
 <polygon atv:refpx="188.001" atv:refpy="175.033" fill="#000018" id="id_56" points="178,181.622 198,181.622 188,168.435 188,168.435" stroke="#000000" stroke-linecap="round" stroke-linejoin="round" stroke-opacity="0" stroke-width="2.015"/>
 <polygon atv:refpx="188.001" atv:refpy="261.033" fill="#000018" id="id_57" points="178,258.622 198,258.622 188,245.435 188,245.435" stroke="#000000" stroke-linecap="round" stroke-linejoin="round" stroke-opacity="0" stroke-width="2.015"/>
</svg>
