<?xml version='1.0' encoding='UTF-8' standalone='no'?>
<svg height="570" version="1.2" width="615" xmlns="http://www.w3.org/2000/svg" xmlns:atv="http://webmi.atvise.com/2007/svgext" xmlns:xlink="http://www.w3.org/1999/xlink">
 <defs/>
 <metadata>
  <atv:gridconfig enabled="false" gridstyle="lines" height="20" width="20"/>
  <atv:snapconfig enabled="true" height="1" width="1"/>
 </metadata>
 <g atv:insensitive="true" atv:refpx="0" atv:refpy="0" id="id_31" transform="matrix(0.9754,0,0,1.9655,0,0)">
  <rect atv:refpx="315.25" atv:refpy="145" fill="#ffffff" fill-opacity="0" height="290.00" id="id_32" width="630.50" x="0" y="0"/>
 </g>
 <script atv:desc="" atv:name="" type="text/ecmascript"><![CDATA[
webMI.addEvent("id_304", "click", function(e) {
var id = "id_304";
var value = true;
webMI.display.openWindow({display:"AGENT.OBJECTS.SCADA.Benito_Juarez.Circuitos.Circuito_CAP_006A.Carcamo_006A.Equipos.Scrubber.Scrubber",extern:false,height:349,menubar:false,modal:true,movable:true,resizable:true,scrollbars:false,status:false,title:"T{Scrubber}",toolbar:false,width:475,query:webMI.query});
});]]></script>
 <svg atv:refpx="78" atv:refpy="352.999" height="63.11" id="id_0" transform="matrix(0.7519,0,0,0.7289,0,0)" width="133" x="34.577" xlink:href="ObjectTypes.PROJECT.ElementoLinea.Principal" y="452.735">
  <atv:argument name="base" value="AGENT.OBJECTS.SCADA.Benito_Juarez.Circuitos.Circuito_CAP_006A.Carcamo_006A"/>
 </svg>
 <svg atv:refpx="524.987" atv:refpy="89.998" height="63.11" id="id_1" transform="matrix(0.7519,0,0,0.7289,0,0)" width="133" x="631.732" xlink:href="ObjectTypes.PROJECT.ElementoLinea.Principal" y="91.919">
  <atv:argument name="base" value="AGENT.OBJECTS.SCADA.Benito_Juarez.Circuitos.Circuito_CAP_006A.Carcamo_La_Joya"/>
 </svg>
 <svg atv:refpx="217.996" atv:refpy="442.993" height="63.11" id="id_5" transform="matrix(0.7519,0,0,0.7289,0,0)" width="133" x="223.434" xlink:href="ObjectTypes.PROJECT.ElementoLinea.Principal" y="576.209">
  <atv:argument name="base" value="AGENT.OBJECTS.SCADA.Benito_Juarez.Circuitos.Circuito_CAP_006A.Carcamo_Otoch_Paraiso"/>
 </svg>
 <svg atv:refpx="369.994" atv:refpy="216.996" height="63.11" id="id_35" transform="matrix(0.7519,0,0,0.7289,0,0)" width="133" x="425.589" xlink:href="ObjectTypes.PROJECT.ElementoLinea.Principal" y="266.153">
  <atv:argument name="base" value="AGENT.OBJECTS.SCADA.Benito_Juarez.Circuitos.Circuito_CAP_006A.Carcamo_Paseos_del_Mar_1"/>
 </svg>
 <svg atv:refpx="365.494" atv:refpy="442.995" height="63.11" id="id_47" transform="matrix(0.7519,0,0,0.7289,0,0)" width="133" x="419.604" xlink:href="ObjectTypes.PROJECT.ElementoLinea.Principal" y="576.209">
  <atv:argument name="base" value="AGENT.OBJECTS.SCADA.Benito_Juarez.Circuitos.Circuito_CAP_006A.Carcamo_Prado_Norte_1"/>
 </svg>
 <svg atv:refpx="218.496" atv:refpy="216.994" height="63.11" id="id_51" transform="matrix(0.7519,0,0,0.7289,0,0)" width="133" x="224.098" xlink:href="ObjectTypes.PROJECT.ElementoLinea.Principal" y="266.153">
  <atv:argument name="base" value="AGENT.OBJECTS.SCADA.Benito_Juarez.Circuitos.Circuito_CAP_006A.Carcamo_Prado_Norte_2"/>
 </svg>
 <svg atv:refpx="524.985" atv:refpy="216.997" height="63.11" id="id_68" transform="matrix(0.7519,0,0,0.7289,0,0)" width="133" x="631.732" xlink:href="ObjectTypes.PROJECT.ElementoLinea.Principal" y="266.153">
  <atv:argument name="base" value="AGENT.OBJECTS.SCADA.Benito_Juarez.Circuitos.Circuito_CAP_006A.Carcamo_Vista_Real"/>
 </svg>
 <svg atv:refpx="524.985" atv:refpy="354.995" height="63.11" id="id_121" transform="matrix(0.7519,0,0,0.7289,0,0)" width="133" x="631.732" xlink:href="ObjectTypes.PROJECT.ElementoLinea.Principal" y="455.479">
  <atv:argument name="base" value="AGENT.OBJECTS.SCADA.Benito_Juarez.Circuitos.Circuito_CAP_001A.Carcamo_Ara"/>
 </svg>
 <polygon atv:refpx="367" atv:refpy="414.594" fill="#000018" id="id_22" points="377,407.997 357,407.997 367,421.186 367,421.186" stroke="#000000" stroke-linecap="round" stroke-linejoin="round" stroke-opacity="0" stroke-width="2"/>
 <polygon atv:refpx="481.596" atv:refpy="354.999" fill="#000018" id="id_23" points="463,344.998 463,364.998 476.188,354.998 476.188,354.998" stroke="#000000" stroke-linecap="round" stroke-linejoin="round" stroke-opacity="0" stroke-width="2"/>
 <polygon atv:refpx="215.502" atv:refpy="414.593" fill="#000018" id="id_26" points="225.502,407.997 205.502,407.997 215.502,421.186 215.502,421.186" stroke="#000000" stroke-linecap="round" stroke-linejoin="round" stroke-opacity="0" stroke-width="2"/>
 <polygon atv:refpx="470.595" atv:refpy="221.25" fill="#000018" id="id_2" points="463.999,211.249 463.999,231.249 477.187,221.249 477.187,221.249" stroke="#000000" stroke-linecap="round" stroke-linejoin="round" stroke-opacity="0" stroke-width="2"/>
 <line atv:refpx="297.87" atv:refpy="353.999" id="id_3" stroke="#000000" stroke-linecap="round" stroke-linejoin="round" stroke-width="2" x1="126.74" x2="469" y1="353.999" y2="353.999"/>
 <line atv:refpx="216.002" atv:refpy="380.999" id="id_4" stroke="#000000" stroke-linecap="round" stroke-linejoin="round" stroke-width="2" x1="215.502" x2="215.502" y1="406.999" y2="354.999"/>
 <polygon atv:refpx="364.999" atv:refpy="268.593" fill="#000018" id="id_6" points="355,275.187 375,275.187 365,261.998 365,261.998" stroke="#000000" stroke-linecap="round" stroke-linejoin="round" stroke-opacity="0" stroke-width="2"/>
 <line atv:refpx="365.25" atv:refpy="313.999" id="id_7" stroke="#000000" stroke-linecap="round" stroke-linejoin="round" stroke-width="2" x1="364.501" x2="364.501" y1="272.999" y2="354.999"/>
 <line atv:refpx="365.495" atv:refpy="383.74" id="id_13" stroke="#000000" stroke-linecap="round" stroke-linejoin="round" stroke-width="2" x1="364.745" x2="366.244" y1="354.481" y2="412.999"/>
 <line atv:refpx="445.5" atv:refpy="219.999" id="id_14" stroke="#000000" stroke-linecap="round" stroke-linejoin="round" stroke-width="2" x1="445" x2="446" y1="353.999" y2="85.999"/>
 <line atv:refpx="459" atv:refpy="221.5" id="id_17" stroke="#000000" stroke-linecap="round" stroke-linejoin="round" stroke-width="2" x1="472" x2="446" y1="221" y2="221"/>
 <svg atv:refpx="78" atv:refpy="388.499" height="23" id="id_29" width="100" x="26" xlink:href="ObjectTypes.PROJECT.Caudalimetro.line_mini" y="374.999">
  <atv:argument name="base" value="AGENT.OBJECTS.SCADA.Benito_Juarez.Circuitos.Circuito_CAP_006A.Carcamo_006A.Equipos.Caudalimetro.L1"/>
 </svg>
 <svg atv:refpx="218.5" atv:refpy="252.499" height="23" id="id_18" width="100" x="168.5" xlink:href="ObjectTypes.PROJECT.Caudalimetro.line_mini" y="238.999">
  <atv:argument name="base" value="AGENT.OBJECTS.SCADA.Benito_Juarez.Circuitos.Circuito_CAP_006A.Carcamo_Prado_Norte_2.Equipos.Caudalimetro.L1"/>
 </svg>
 <svg atv:refpx="218.001" atv:refpy="478.499" height="23" id="id_19" width="100" x="168.001" xlink:href="ObjectTypes.PROJECT.Caudalimetro.line_mini" y="464.999">
  <atv:argument name="base" value="AGENT.OBJECTS.SCADA.Benito_Juarez.Circuitos.Circuito_CAP_006A.Carcamo_Otoch_Paraiso.Equipos.Caudalimetro.L1"/>
 </svg>
 <svg atv:refpx="370.001" atv:refpy="252.499" height="23" id="id_21" width="100" x="320.001" xlink:href="ObjectTypes.PROJECT.Caudalimetro.line_mini" y="238.999">
  <atv:argument name="base" value="AGENT.OBJECTS.SCADA.Benito_Juarez.Circuitos.Circuito_CAP_006A.Carcamo_Paseos_del_Mar_1.Equipos.Caudalimetro.L1"/>
 </svg>
 <svg atv:refpx="365.501" atv:refpy="478.499" height="23" id="id_24" width="100" x="315.501" xlink:href="ObjectTypes.PROJECT.Caudalimetro.line_mini" y="464.999">
  <atv:argument name="base" value="AGENT.OBJECTS.SCADA.Benito_Juarez.Circuitos.Circuito_CAP_006A.Carcamo_Prado_Norte_1.Equipos.Caudalimetro.L1"/>
 </svg>
 <svg atv:refpx="524.999" atv:refpy="252.499" height="23" id="id_25" width="100" x="474.999" xlink:href="ObjectTypes.PROJECT.Caudalimetro.line_mini" y="238.999">
  <atv:argument name="base" value="AGENT.OBJECTS.SCADA.Benito_Juarez.Circuitos.Circuito_CAP_006A.Carcamo_Vista_Real.Equipos.Caudalimetro.L1"/>
 </svg>
 <svg atv:refpx="525.002" atv:refpy="125.5" height="23" id="id_27" width="100" x="475.002" xlink:href="ObjectTypes.PROJECT.Caudalimetro.line_mini" y="112">
  <atv:argument name="base" value="AGENT.OBJECTS.SCADA.Benito_Juarez.Circuitos.Circuito_CAP_006A.Carcamo_La_Joya.Equipos.Caudalimetro.L1"/>
 </svg>
 <svg atv:refpx="524.999" atv:refpy="391.499" height="23" id="id_28" width="100" x="474.999" xlink:href="ObjectTypes.PROJECT.Caudalimetro.line_mini" y="377.999">
  <atv:argument name="base" value="AGENT.OBJECTS.SCADA.Benito_Juarez.Circuitos.Circuito_CAP_001A.Carcamo_Ara.Equipos.Caudalimetro.L1"/>
 </svg>
 <svg atv:refpx="524.999" atv:refpy="414.499" height="23" id="id_30" width="100" x="474.999" xlink:href="ObjectTypes.PROJECT.Caudalimetro.line_mini" y="400.999">
  <atv:argument name="base" value="AGENT.OBJECTS.SCADA.Benito_Juarez.Circuitos.Circuito_CAP_001A.Carcamo_Ara.Equipos.Caudalimetro.L2"/>
 </svg>
 <polygon atv:refpx="215.999" atv:refpy="271.593" fill="#000018" id="id_10" points="206,278.186 226,278.186 216,264.998 216,264.998" stroke="#000000" stroke-linecap="round" stroke-linejoin="round" stroke-opacity="0" stroke-width="2"/>
 <line atv:refpx="216.25" atv:refpy="316.999" id="id_11" stroke="#000000" stroke-linecap="round" stroke-linejoin="round" stroke-width="2" x1="215.501" x2="215.501" y1="275.999" y2="357.999"/>
 <polygon atv:refpx="470.595" atv:refpy="85.999" fill="#000018" id="id_12" points="463.999,75.998 463.999,95.998 477.187,85.998 477.187,85.998" stroke="#000000" stroke-linecap="round" stroke-linejoin="round" stroke-opacity="0" stroke-width="2"/>
 <line atv:refpx="459" atv:refpy="86.249" id="id_15" stroke="#000000" stroke-linecap="round" stroke-linejoin="round" stroke-width="2" x1="472" x2="446" y1="85.749" y2="85.749"/>
 <svg atv:refpx="78" atv:refpy="408.5" height="30" id="id_304" transform="matrix(1.25,0,0,0.7667,0,0)" width="80" x="20.8" xlink:href="SYSTEM.LIBRARY.ATVISE.OBJECTDISPLAYS.Advanced.button_open_display" y="517.804">
  <atv:argument name="label" value="T{SCRUBBER}"/>
  <atv:argument name="fontSize" value="14"/>
  <atv:argument name="fillColor" value="SYSTEM.GLOBALS.Colors.Azul_PTAR"/>
  <atv:argument name="fontColor" value="SYSTEM.GLOBALS.Colors.Blanco"/>
  <atv:overwrite height="21.001" id="id_6" transform="matrix(0.8,0,0,1.3043,0,0)" width="98"/>
  <atv:overwrite id="button_label" transform="matrix(0.8,0,0,1.3043,0,0)" x="50" y="16.001"/>
  <atv:overwrite id="button_symbol" transform="matrix(0.8,0,0,1.3043,0,0)" x="40" y="1.501"/>
  <atv:overwrite height="19.001" id="button_stroke" transform="matrix(0.8,0,0,1.3043,0,0)" width="96"/>
  <atv:overwrite height="21.001" id="button_bg" transform="matrix(0.8,0,0,1.3043,0,0)" width="98"/>
  <atv:overwrite height="23.001" id="outer_frame" transform="matrix(0.8,0,0,1.3043,0,0)" width="100"/>
 </svg>
</svg>
