<?xml version='1.0' encoding='UTF-8' standalone='no'?>
<svg height="30" version="1.2" width="459" xmlns="http://www.w3.org/2000/svg" xmlns:atv="http://webmi.atvise.com/2007/svgext" xmlns:xlink="http://www.w3.org/1999/xlink">
 <defs/>
 <desc>Optional time range selector for the chart.</desc>
 <title>Time Range Selector</title>
 <metadata>
  <atv:parameter behavior="mandatory" defaultvalue="trend1" desc="chart name" name="chartname" valuetype="string"/>
  <atv:parameter behavior="optional" defaultvalue="0" desc="x-axis index" name="xAxisIndex" valuetype="string"/>
  <atv:parameter behavior="optional" defaultvalue="#000000" desc="font color" name="fontColor" substitute="$FONTCOLOR$" valuetype="color"/>
  <atv:parameter behavior="optional" defaultvalue="SYSTEM.LIBRARY.ATVISE.OBJECTDISPLAYS.Advanced.dialogs.message_dialog_small" desc="small message dialog display" name="message_dialog_small" valuetype="display"/>
  <atv:gridconfig enabled="false" gridstyle="lines" height="20" width="20"/>
  <atv:snapconfig enabled="true" height="10" width="10"/>
 </metadata>
 <g atv:refpx="105.5" atv:refpy="15" id="timeStartContainer">
  <text atv:refpx="80.749" atv:refpy="1165.457" fill="$FONTCOLOR$" font-family="Arial" font-size="12" id="id_17" x="5" y="21">T{From}</text>
  <svg atv:refpx="292.971" atv:refpy="1161.926" height="30" id="dp_start" width="160" x="50" xlink:href="SYSTEM.LIBRARY.ATVISE.OBJECTDISPLAYS.Steelblue.picker_date" y="0">
   <atv:argument name="base"/>
   <atv:argument name="name" postfix="chartname" value="starttime"/>
   <atv:argument name="tooltip" value="T{From}"/>
   <atv:argument name="tabIndex" value="21"/>
   <atv:overwrite height="24.5" id="button_stroke" width="24.5" x="132.5" y="2.75"/>
  </svg>
 </g>
 <g atv:refpx="320" atv:refpy="14.787" id="timeEndContainer">
  <text atv:refpx="435.004" atv:refpy="1163.457" fill="$FONTCOLOR$" font-family="Arial" font-size="12" id="labelUntil" x="219" y="20">T{Until}</text>
  <svg atv:refpx="736.971" atv:refpy="1161.713" height="30" id="dp_end" width="160" x="265" xlink:href="SYSTEM.LIBRARY.ATVISE.OBJECTDISPLAYS.Steelblue.picker_date" y="-0.213">
   <atv:argument name="base"/>
   <atv:argument name="name" postfix="chartname" value="endtime"/>
   <atv:argument name="tooltip" value="T{To}"/>
   <atv:argument name="tabIndex" value="26"/>
   <atv:overwrite height="24.5" id="button_stroke" width="24.5" x="132.5" y="2.75"/>
  </svg>
 </g>
 <g atv:refpx="108" atv:refpy="15" id="timeSpanContainer" visibility="hidden">
  <text atv:refpx="7.731" atv:refpy="15.5" fill="$FONTCOLOR$" font-family="Arial" font-size="12" id="id_8" text-anchor="start" transform="matrix(0.9907,0,0,1,0.0093,0)" x="5.5" y="20">T{Period}</text>
  <svg atv:refpx="79.624" atv:refpy="1" height="30" id="xAxis_timeSpan" transform="matrix(0.375,0,0,1,0,0)" width="160" x="133.333" xlink:href="SYSTEM.LIBRARY.ATVISE.OBJECTDISPLAYS.Steelblue.picker_value" y="0">
   <atv:argument name="tabIndex" value="22"/>
   <atv:argument name="min" value="1"/>
   <atv:argument name="tooltip" value="T{Time}"/>
   <atv:overwrite id="id_0" transform="matrix(2.5,0,0,1,0,0)" width="63.5"/>
   <atv:overwrite id="clickarea_dec" transform="matrix(2.6667,0,0,1,-266.6667,0)"/>
   <atv:overwrite id="clickarea_inc" transform="matrix(2.6667,0,0,1,-266.6667,0)"/>
   <atv:overwrite id="input_label" transform="matrix(2.6667,0,0,1,0,0)" x="25.5"/>
   <atv:overwrite id="blinking_frame" transform="matrix(2.6667,0,0,1,0,0)" width="26"/>
   <atv:overwrite id="input_bg" transform="matrix(2.6667,0,0,1,0,0)" width="26"/>
   <atv:overwrite id="id_2" transform="matrix(2.6667,0,0,1,0,0)" width="28"/>
   <atv:overwrite id="bg" transform="matrix(2.6667,0,0,1,0,0)" width="59.5"/>
  </svg>
  <svg atv:refpx="175.54" atv:refpy="24.973" height="30" id="xAxis_timeSpanUnit" transform="matrix(0.6563,0,0,1,0,0)" width="160" x="167.619" xlink:href="SYSTEM.LIBRARY.ATVISE.OBJECTDISPLAYS.Steelblue.combobox" y="0">
   <atv:argument name="fontFamily" value="MS Trebuchet,ITC Avant Garde Gothic,MS Arial,MS Verdana,Univers,Futura,ITC Stone Sans,Gill Sans,Akzidenz Grotesk,Helvetica,sans-serif"/>
   <atv:argument name="tabIndex" value="23"/>
   <atv:argument name="tooltip" value="T{Period}"/>
   <atv:overwrite id="focus_frame" transform="matrix(1.455,0,0,1,0,0)" width="105.964"/>
   <atv:overwrite id="id_7" transform="matrix(1.455,0,0,1,0,0)" x="84.964"/>
   <atv:overwrite id="id_0" transform="matrix(1.455,0,0,1,0,0)" width="109.964"/>
   <atv:overwrite id="id_3" transform="matrix(1.5238,0,0,1,0,0)" x="79.75"/>
   <atv:overwrite id="button_bg" transform="matrix(1.5238,0,0,1,0,0)" x="78.5"/>
   <atv:overwrite id="button_stroke" transform="matrix(1.5238,0,0,1,0,0)" x="78.5"/>
   <atv:overwrite id="id_5" transform="matrix(1.5238,0,0,1,0,0)" x="77.5"/>
   <atv:overwrite id="blinking_frame" transform="matrix(1.5238,0,0,1,0,0)" width="72"/>
   <atv:overwrite id="combobox_label" transform="matrix(1.5238,0,0,1,0,0)" x="70.5"/>
   <atv:overwrite id="combobox_bg" transform="matrix(1.5238,0,0,1,0,0)" width="71"/>
   <atv:overwrite id="id_2" transform="matrix(1.5238,0,0,1,0,0)" width="73"/>
   <atv:overwrite id="combobox_stroke" transform="matrix(1.5238,0,0,1,0,0)" width="104.5"/>
  </svg>
 </g>
 <svg atv:refpx="445" atv:refpy="15" height="30" id="cmd_apply_note" transform="matrix(0.375,0,0,1,0,0)" width="80" x="1146.667" xlink:href="SYSTEM.LIBRARY.ATVISE.OBJECTDISPLAYS.Steelblue.button" y="0">
  <atv:argument name="visibilityLabel" value="hidden"/>
  <atv:argument name="visibilitySymbol" value="inherit"/>
  <atv:argument name="symbolColor" value="#f2d600"/>
  <atv:argument name="tooltip" value="T{Apply}"/>
  <atv:overwrite id="button_stroke" transform="matrix(2.6667,0,0,1,0,0)" width="22"/>
  <atv:overwrite id="button_label" transform="matrix(2.6667,0,0,1,0,0)" x="15"/>
  <atv:overwrite id="button_symbol" transform="matrix(2.6667,0,0,1,0,0)" x="5"/>
  <atv:overwrite id="button_bg" transform="matrix(2.6667,0,0,1,0,0)" width="22"/>
  <atv:overwrite id="id_2" transform="matrix(2.6667,0,0,1,0,0)" width="24.5"/>
  <atv:overwrite id="id_0" transform="matrix(2.6667,0,0,1,0,0)" width="29.5"/>
 </svg>
 <svg atv:refpx="445" atv:refpy="15" height="30" id="cmd_apply" transform="matrix(0.375,0,0,1,0,0)" width="80" x="1146.667" xlink:href="SYSTEM.LIBRARY.ATVISE.OBJECTDISPLAYS.Steelblue.button" y="0">
  <atv:argument name="visibilityLabel" value="hidden"/>
  <atv:argument name="visibilitySymbol" value="inherit"/>
  <atv:argument name="tooltip" value="T{Apply}"/>
  <atv:argument name="tabIndex" value="30"/>
  <atv:overwrite id="button_stroke" transform="matrix(2.6667,0,0,1,0,0)" width="22"/>
  <atv:overwrite id="button_label" transform="matrix(2.6667,0,0,1,0,0)" x="15"/>
  <atv:overwrite id="button_symbol" transform="matrix(2.6667,0,0,1,0,0)" x="5"/>
  <atv:overwrite id="button_bg" transform="matrix(2.6667,0,0,1,0,0)" width="22"/>
  <atv:overwrite id="id_2" transform="matrix(2.6667,0,0,1,0,0)" width="24.5"/>
  <atv:overwrite id="id_0" transform="matrix(2.6667,0,0,1,0,0)" width="29.5"/>
 </svg>
 <script atv:desc="" atv:href="SYSTEM.LIBRARY.ATVISE.DISPLAYSCRIPTS.highcharts.buttons_start_end_time" atv:name="buttons_start_end_time" atv:type="text/ecmascript"/>
 <script atv:desc="" atv:name="" type="text/ecmascript"/>
</svg>
