<?xml version='1.0' encoding='UTF-8' standalone='no'?>
<svg height="290" version="1.2" width="600" xmlns="http://www.w3.org/2000/svg" xmlns:atv="http://webmi.atvise.com/2007/svgext" xmlns:xlink="http://www.w3.org/1999/xlink">
 <defs/>
 <desc>Displays a delete confirmation dialog.</desc>
 <title>Delete Dialog</title>
 <metadata>
  <atv:parameter behavior="mandatory" defaultvalue="T{Title}" desc="title" name="dialogTitle" substitute="$TITLE$" valuetype="trstring"/>
  <atv:parameter behavior="mandatory" defaultvalue="T{Message}" desc="message line 1" name="dialogMessageLine1" substitute="$MESSAGE1$" valuetype="trstring"/>
  <atv:parameter behavior="mandatory" defaultvalue="T{Message}" desc="message line 2" name="dialogMessageLine2" substitute="$MESSAGE2$" valuetype="trstring"/>
  <atv:parameter behavior="mandatory" defaultvalue="" desc="trigger name" name="triggerName" valuetype="string"/>
  <atv:gridconfig enabled="false" gridstyle="lines" height="20" width="20"/>
  <atv:snapconfig enabled="false" height="10" width="10"/>
 </metadata>
 <text atv:refpx="300" atv:refpy="26" fill="#575757" font-family="Arial" font-size="20" id="id_1" text-anchor="middle" x="300" y="33.5">$TITLE$</text>
 <svg atv:refpx="382.5" atv:refpy="267.492" height="30" id="btn_delete" transform="matrix(1.5625,0,0,1.1667,0,0)" width="80" x="204.8" xlink:href="SYSTEM.LIBRARY.ATVISE.OBJECTDISPLAYS.Advanced.button" y="210">
  <atv:argument name="label" value="T{Delete}"/>
  <atv:overwrite height="33" id="id_6" transform="matrix(0.64,0,0,0.8571,0,0)" width="123"/>
  <atv:overwrite id="button_label_2" transform="matrix(0.64,0,0,0.8571,0,0)" x="62.5" y="29"/>
  <atv:overwrite id="button_label_1" transform="matrix(0.64,0,0,0.8571,0,0)" x="62.5" y="14"/>
  <atv:overwrite id="button_label" transform="matrix(0.64,0,0,0.8571,0,0)" x="62.5" y="22"/>
  <atv:overwrite id="button_symbol_bottom" transform="matrix(0.384,0,0,0.5143,0,0)" x="94" y="30.459"/>
  <atv:overwrite id="button_symbol_top" transform="matrix(0.384,0,0,0.5143,0,0)" x="94" y="9.126"/>
  <atv:overwrite id="button_symbol" transform="matrix(0.64,0,0,0.8571,0,0)" x="52.5" y="7.5"/>
  <atv:overwrite height="31" id="button_stroke" transform="matrix(0.64,0,0,0.8571,0,0)" width="121"/>
  <atv:overwrite height="33" id="button_bg" transform="matrix(0.64,0,0,0.8571,0,0)" width="123"/>
  <atv:overwrite height="35" id="outer_frame" transform="matrix(0.64,0,0,0.8571,0,0)" width="125"/>
 </svg>
 <svg atv:refpx="527.501" atv:refpy="266.492" height="30" id="btn_cancel" transform="matrix(1.5625,0,0,1.1667,0,0)" width="80" x="297.6" xlink:href="SYSTEM.LIBRARY.ATVISE.OBJECTDISPLAYS.Advanced.button" y="210">
  <atv:argument name="label" value="T{Cancel}"/>
  <atv:overwrite height="33" id="id_6" transform="matrix(0.64,0,0,0.8571,0,0)" width="123"/>
  <atv:overwrite id="button_label_2" transform="matrix(0.64,0,0,0.8571,0,0)" x="62.5" y="29"/>
  <atv:overwrite id="button_label_1" transform="matrix(0.64,0,0,0.8571,0,0)" x="62.5" y="14"/>
  <atv:overwrite id="button_label" transform="matrix(0.64,0,0,0.8571,0,0)" x="62.5" y="22"/>
  <atv:overwrite id="button_symbol_bottom" transform="matrix(0.384,0,0,0.5143,0,0)" x="94" y="30.459"/>
  <atv:overwrite id="button_symbol_top" transform="matrix(0.384,0,0,0.5143,0,0)" x="94" y="9.126"/>
  <atv:overwrite id="button_symbol" transform="matrix(0.64,0,0,0.8571,0,0)" x="52.5" y="7.5"/>
  <atv:overwrite height="31" id="button_stroke" transform="matrix(0.64,0,0,0.8571,0,0)" width="121"/>
  <atv:overwrite height="33" id="button_bg" transform="matrix(0.64,0,0,0.8571,0,0)" width="123"/>
  <atv:overwrite height="35" id="outer_frame" transform="matrix(0.64,0,0,0.8571,0,0)" width="125"/>
 </svg>
 <text atv:refpx="299.5" atv:refpy="112.194" fill="#575757" font-family="Arial" font-size="20" id="id_3" text-anchor="middle" x="300" y="119.694">$MESSAGE1$</text>
 <script atv:desc="" atv:name="" type="text/ecmascript"><![CDATA[webMI.trigger.connect("clicked", function(e){
	webMI.trigger.fire(webMI.query.triggerName);
	webMI.display.closeWindow()
}, "btn_delete");

webMI.trigger.connect("clicked", function(e){
	webMI.display.closeWindow()
}, "btn_cancel");]]></script>
 <text atv:refpx="300" atv:refpy="152.194" fill="#575757" font-family="Arial" font-size="20" id="id_0" text-anchor="middle" x="300" y="159.694">$MESSAGE2$</text>
</svg>
