<?xml version="1.0" encoding="utf-8"?>
<!-- Uploaded to: SVG Repo, www.svgrepo.com, Generator: SVG Repo Mixer Tools -->
<!DOCTYPE svg PUBLIC "-//W3C//DTD SVG 1.1//EN" "http://www.w3.org/Graphics/SVG/1.1/DTD/svg11.dtd">
<svg height="800px" width="800px" version="1.1" id="Layer_1" xmlns="http://www.w3.org/2000/svg" xmlns:xlink="http://www.w3.org/1999/xlink" 
	 viewBox="0 0 353.6 315.5" enable-background="new 0 0 353.6 315.5" xml:space="preserve">
<g>
	<path fill="#757575" d="M286.1,251.2l-127-120.4c10.7-29,4.3-62.8-18.9-86.1c-4.9-4.9-10.2-9-15.9-12.4
		c-21.9-13.9-49.5-15.8-73.5-5.6l0.5,0.5l-1.7,1.3l47.2,47.3c-1.7,4.5-6.2,13.1-17.2,24.1c-11,11-19.5,15.4-24.1,17.2L8.3,69.8
		L7,71.5L6.5,71c-10.2,24.1-8.3,51.7,5.6,73.6c3.4,5.6,7.5,11,12.3,15.8c23.3,23.3,57.1,29.6,86.1,18.9l120.4,127
		c11.2,11.9,29.8,12.2,41.3,0.6l14.5-14.5C298.3,281,298,262.4,286.1,251.2z M261.9,282.1c-6.7,6.7-17.7,6.7-24.4,0
		c-6.7-6.7-6.7-17.7,0-24.4c6.7-6.7,17.7-6.7,24.4,0C268.7,264.5,268.7,275.4,261.9,282.1z"/>
	<path fill="#757575" d="M350.5,46.4L296.8,1.9c-3.7-3.1-9.3-2.4-12.4,1.4l-86.2,104.1c-3.2,3.9-2.8,9.4,0.9,12.5l19.3,16
		L112.2,264.1l-10.9,9.1L83.8,301l2.8,2.3l-0.2,0.3l11.8,9.8l0.3-0.3l2.8,2.3l24-22.4l6.9-12.4l106.1-128.1l14.4,11.9
		c3.7,3.1,9.3,2.4,12.4-1.4l86.2-104.1C354.6,55.1,354.2,49.5,350.5,46.4z"/>
</g>
</svg>