<svg xmlns:xlink="http://www.w3.org/1999/xlink" version="1.1" class="highcharts-root" style="font-family: Arial; font-size: 12px;" xmlns="http://www.w3.org/2000/svg" width="600" height="400" viewBox="0 0 600 400" role="img" aria-label="Gr치fico de sectorizaci칩n Benito Ju치rez"><desc>Created with Highcharts 10.2.0</desc><defs><clipPath id="highcharts-xzqnfh3-11027-"><rect x="0" y="0" width="526" height="165" fill="none"></rect></clipPath><clipPath id="highcharts-xzqnfh3-11028-"><rect x="0" y="0" width="526" height="165" fill="none"></rect></clipPath></defs><rect fill="#ffffff" class="highcharts-background" x="0" y="0" width="600" height="400" rx="0" ry="0"></rect><rect fill="none" class="highcharts-plot-background" x="64" y="45" width="526" height="165"></rect><g class="highcharts-pane-group" data-z-index="0"></g><g class="highcharts-grid highcharts-xaxis-grid" data-z-index="1"><path fill="none" stroke="#e6e6e6" stroke-width="1" stroke-dasharray="none" data-z-index="1" class="highcharts-grid-line" d="M 71.5 45 L 71.5 210" opacity="1"></path><path fill="none" stroke="#e6e6e6" stroke-width="1" stroke-dasharray="none" data-z-index="1" class="highcharts-grid-line" d="M 104.5 45 L 104.5 210" opacity="1"></path><path fill="none" stroke="#e6e6e6" stroke-width="1" stroke-dasharray="none" data-z-index="1" class="highcharts-grid-line" d="M 137.5 45 L 137.5 210" opacity="1"></path><path fill="none" stroke="#e6e6e6" stroke-width="1" stroke-dasharray="none" data-z-index="1" class="highcharts-grid-line" d="M 170.5 45 L 170.5 210" opacity="1"></path><path fill="none" stroke="#e6e6e6" stroke-width="1" stroke-dasharray="none" data-z-index="1" class="highcharts-grid-line" d="M 203.5 45 L 203.5 210" opacity="1"></path><path fill="none" stroke="#e6e6e6" stroke-width="1" stroke-dasharray="none" data-z-index="1" class="highcharts-grid-line" d="M 236.5 45 L 236.5 210" opacity="1"></path><path fill="none" stroke="#e6e6e6" stroke-width="1" stroke-dasharray="none" data-z-index="1" class="highcharts-grid-line" d="M 268.5 45 L 268.5 210" opacity="1"></path><path fill="none" stroke="#e6e6e6" stroke-width="1" stroke-dasharray="none" data-z-index="1" class="highcharts-grid-line" d="M 301.5 45 L 301.5 210" opacity="1"></path><path fill="none" stroke="#e6e6e6" stroke-width="1" stroke-dasharray="none" data-z-index="1" class="highcharts-grid-line" d="M 334.5 45 L 334.5 210" opacity="1"></path><path fill="none" stroke="#e6e6e6" stroke-width="1" stroke-dasharray="none" data-z-index="1" class="highcharts-grid-line" d="M 367.5 45 L 367.5 210" opacity="1"></path><path fill="none" stroke="#e6e6e6" stroke-width="1" stroke-dasharray="none" data-z-index="1" class="highcharts-grid-line" d="M 400.5 45 L 400.5 210" opacity="1"></path><path fill="none" stroke="#e6e6e6" stroke-width="1" stroke-dasharray="none" data-z-index="1" class="highcharts-grid-line" d="M 433.5 45 L 433.5 210" opacity="1"></path><path fill="none" stroke="#e6e6e6" stroke-width="1" stroke-dasharray="none" data-z-index="1" class="highcharts-grid-line" d="M 466.5 45 L 466.5 210" opacity="1"></path><path fill="none" stroke="#e6e6e6" stroke-width="1" stroke-dasharray="none" data-z-index="1" class="highcharts-grid-line" d="M 499.5 45 L 499.5 210" opacity="1"></path><path fill="none" stroke="#e6e6e6" stroke-width="1" stroke-dasharray="none" data-z-index="1" class="highcharts-grid-line" d="M 531.5 45 L 531.5 210" opacity="1"></path><path fill="none" stroke="#e6e6e6" stroke-width="1" stroke-dasharray="none" data-z-index="1" class="highcharts-grid-line" d="M 564.5 45 L 564.5 210" opacity="1"></path></g><g class="highcharts-grid highcharts-yaxis-grid" data-z-index="1"><path fill="none" stroke="#888888" stroke-width="1" stroke-dasharray="none" data-z-index="1" class="highcharts-grid-line" d="M 64 210.5 L 590 210.5" opacity="1"></path><path fill="none" stroke="#888888" stroke-width="1" stroke-dasharray="none" data-z-index="1" class="highcharts-grid-line" d="M 64 155.5 L 590 155.5" opacity="1"></path><path fill="none" stroke="#888888" stroke-width="1" stroke-dasharray="none" data-z-index="1" class="highcharts-grid-line" d="M 64 100.5 L 590 100.5" opacity="1"></path><path fill="none" stroke="#888888" stroke-width="1" stroke-dasharray="none" data-z-index="1" class="highcharts-grid-line" d="M 64 44.5 L 590 44.5" opacity="1"></path></g><rect fill="none" class="highcharts-plot-border" data-z-index="1" x="64" y="45" width="526" height="165"></rect><g class="highcharts-axis highcharts-xaxis" data-z-index="2"><path fill="none" class="highcharts-tick" stroke="#ccd6eb" stroke-width="1" d="M 71.5 210 L 71.5 220" opacity="1"></path><path fill="none" class="highcharts-tick" stroke="#ccd6eb" stroke-width="1" d="M 104.5 210 L 104.5 220" opacity="1"></path><path fill="none" class="highcharts-tick" stroke="#ccd6eb" stroke-width="1" d="M 137.5 210 L 137.5 220" opacity="1"></path><path fill="none" class="highcharts-tick" stroke="#ccd6eb" stroke-width="1" d="M 170.5 210 L 170.5 220" opacity="1"></path><path fill="none" class="highcharts-tick" stroke="#ccd6eb" stroke-width="1" d="M 203.5 210 L 203.5 220" opacity="1"></path><path fill="none" class="highcharts-tick" stroke="#ccd6eb" stroke-width="1" d="M 236.5 210 L 236.5 220" opacity="1"></path><path fill="none" class="highcharts-tick" stroke="#ccd6eb" stroke-width="1" d="M 268.5 210 L 268.5 220" opacity="1"></path><path fill="none" class="highcharts-tick" stroke="#ccd6eb" stroke-width="1" d="M 301.5 210 L 301.5 220" opacity="1"></path><path fill="none" class="highcharts-tick" stroke="#ccd6eb" stroke-width="1" d="M 334.5 210 L 334.5 220" opacity="1"></path><path fill="none" class="highcharts-tick" stroke="#ccd6eb" stroke-width="1" d="M 367.5 210 L 367.5 220" opacity="1"></path><path fill="none" class="highcharts-tick" stroke="#ccd6eb" stroke-width="1" d="M 400.5 210 L 400.5 220" opacity="1"></path><path fill="none" class="highcharts-tick" stroke="#ccd6eb" stroke-width="1" d="M 433.5 210 L 433.5 220" opacity="1"></path><path fill="none" class="highcharts-tick" stroke="#ccd6eb" stroke-width="1" d="M 466.5 210 L 466.5 220" opacity="1"></path><path fill="none" class="highcharts-tick" stroke="#ccd6eb" stroke-width="1" d="M 499.5 210 L 499.5 220" opacity="1"></path><path fill="none" class="highcharts-tick" stroke="#ccd6eb" stroke-width="1" d="M 531.5 210 L 531.5 220" opacity="1"></path><path fill="none" class="highcharts-tick" stroke="#ccd6eb" stroke-width="1" d="M 564.5 210 L 564.5 220" opacity="1"></path><path fill="none" class="highcharts-axis-line" stroke="#ccd6eb" stroke-width="1" data-z-index="7" d="M 64 210.5 L 590 210.5"></path></g><g class="highcharts-axis highcharts-yaxis" data-z-index="2"><text x="23.703125" data-z-index="7" text-anchor="middle" transform="translate(0,0) rotate(270 23.703125 127.5)" class="highcharts-axis-title" style="color: rgb(102, 102, 102); fill: rgb(102, 102, 102);" y="127.5">Presi칩n (kg/cm2)</text><path fill="none" class="highcharts-axis-line" stroke="#ccd6eb" stroke-width="1" data-z-index="7" d="M 63.5 45 L 63.5 210"></path></g><g class="highcharts-series-group" data-z-index="3"><g class="highcharts-series highcharts-series-0 highcharts-line-series highcharts-color-0" data-z-index="0.1" opacity="1" transform="translate(64,45) scale(1 1)" clip-path="url(#highcharts-xzqnfh3-11028-)"><path fill="none" d="M 0.020559050925926 131.430152654648 L 0.93375349537037 130.020217597485 L 1.8469479398148 130.020217597485 L 2.7601423842593 130.020217597485 L 3.6733368287037 130.020217597485 L 4.5865312731481 130.020217597485 L 5.4997257175926 128.62707048654602 L 6.412920162037 128.62707048654602 L 7.3261146064815 128.62707048654602 L 8.2393090509259 127.217135429382 L 9.1525034953704 127.217135429382 L 10.065697939815 125.823988318443 L 10.978892384259 125.823988318443 L 11.892086828704 123.020906150341 L 12.805281273148 123.020906150341 L 13.718475717593 121.627755761147 L 14.631670162037 121.627755761147 L 15.544864606481 121.627755761147 L 16.458059050926 121.627755761147 L 17.37125349537 121.627755761147 L 18.284447939815 121.627755761147 L 19.197642384259 121.627755761147 L 20.110836828704 118.824673593044 L 21.024031273148 118.824673593044 L 21.937225717593 118.824673593044 L 22.850420162037 118.824673593044 L 23.763614606481 120.217823982239 L 24.676809050926 118.824673593044 L 25.59000349537 120.217823982239 L 26.503197939815 124.41405326128 L 27.416392384259 159.4106203317642 L 28.329586828704 165 L 29.242781273148 165 L 30.155975717593 165 L 31.069170162037 165 L 31.982364606481 165 L 32.895559050926 165 L 33.80875349537 165 L 34.721947939815 165 L 35.635142384259 165 L 36.548336828704 165 L 37.461531273148 165 L 38.374725717593 165 L 39.287920162037 165 L 40.201114606481 165 L 41.114309050926 165 L 42.02750349537 165 L 42.940697939815 165 L 43.853892384259 165 L 44.767086828704 165 L 45.680281273148 165 L 46.593475717593 165 L 47.506670162037 165 L 48.419864606481 165 L 49.333059050926 165 L 50.24625349537 165 L 51.159447939815 165 L 52.072642384259 165 L 52.985836828704 165 L 53.899031273148 165 L 54.812225717593 165 L 55.725420162037 165 L 56.638614606481 165 L 57.551809050926 165 L 58.46500349537 165 L 59.378197939815 165 L 60.291392384259 165 L 61.204586828704 165 L 62.117781273148 165 L 63.030975717593 165 L 63.944170162037 165 L 64.857364606481 165 L 65.770559050926 165 L 66.68375349537 165 L 67.596947939815 165 L 68.510142384259 165 L 69.423336828704 165 L 70.336531273148 165 L 71.249725717593 165 L 72.162920162037 165 L 73.076114606481 165 L 73.989309050926 165 L 74.90250349537 165 L 75.815697939815 165 L 76.728892384259 165 L 77.642086828704 165 L 78.555281273148 165 L 79.468475717593 165 L 80.381670162037 165 L 81.294864606481 165 L 82.208059050926 165 L 83.12125349537 165 L 84.034447939815 165 L 84.947642384259 165 L 85.860836828704 165 L 86.774031273148 165 L 87.687225717593 165 L 88.600420162037 165 L 89.513614606481 165 L 90.426809050926 165 L 91.34000349537 165 L 92.253197939815 165 L 93.166392384259 165 L 94.079586828704 165 L 94.992781273148 165 L 95.905975717593 165 L 96.819170162037 165 L 97.732364606481 165 L 98.645559050926 165 L 99.55875349537 165 L 100.47194793981 165 L 101.38514238426 165 L 102.2983368287 165 L 103.21153127315 165 L 104.12472571759 165 L 105.03792016204 165 L 105.95111460648 165 L 106.86430905093 165 L 107.77750349537 165 L 108.69069793981 165 L 109.60389238426 165 L 110.5170868287 165 L 111.43028127315 165 L 112.34347571759 165 L 113.25667016204 165 L 114.16986460648 165 L 115.08305905093 165 L 115.99625349537 165 L 116.90944793981 165 L 117.82264238426 165 L 118.7358368287 165 L 119.64903127315 165 L 120.56222571759 165 L 121.47542016204 165 L 122.38861460648 165 L 123.30180905093 165 L 124.21500349537 165 L 125.12819793981 165 L 126.04139238426 165 L 126.9545868287 165 L 127.86778127315 165 L 128.78097571759 165 L 129.69417016204 165 L 130.60736460648 165 L 131.52055905093 165 L 132.43375349537 165 L 133.34694793981 165 L 134.26014238426 165 L 135.1733368287 165 L 136.08653127315 165 L 136.99972571759 165 L 137.91292016204 165 L 138.82611460648 165 L 139.73930905093 165 L 140.65250349537 165 L 141.56569793981 165 L 142.47889238426 165 L 143.3920868287 165 L 144.30528127315 165 L 145.21847571759 165 L 146.13167016204 165 L 147.04486460648 165 L 147.95805905093 165 L 148.87125349537 165 L 149.78444793981 165 L 150.69764238426 165 L 151.6108368287 165 L 152.52403127315 165 L 153.43722571759 165 L 154.35042016204 165 L 155.26361460648 165 L 156.17680905093 165 L 157.09000349537 165 L 158.00319793981 165 L 158.91639238426 165 L 159.8295868287 165 L 160.74278127315 165 L 161.65597571759 165 L 162.56917016204 165 L 163.48236460648 165 L 164.39555905093 165 L 165.30875349537 165 L 166.22194793981 165 L 167.13514238426 165 L 168.0483368287 165 L 168.96153127315 165 L 169.87472571759 165 L 170.78792016204 165 L 171.70111460648 165 L 172.61430905093 165 L 173.52750349537 165 L 174.44069793981 165 L 175.35389238426 165 L 176.2670868287 165 L 177.18028127315 165 L 178.09347571759 165 L 179.00667016204 165 L 179.91986460648 165 L 180.83305905093 165 L 181.74625349537 165 L 182.65944793981 165 L 183.57264238426 165 L 184.4858368287 165 L 185.39903127315 165 L 186.31222571759 165 L 187.22542016204 165 L 188.13861460648 165 L 189.05180905093 165 L 189.96500349537 165 L 190.87819793981 165 L 191.79139238426 165 L 192.7045868287 165 L 193.61778127315 165 L 194.53097571759 165 L 195.44417016204 165 L 196.35736460648 165 L 197.27055905093 165 L 198.18375349537 165 L 199.09694793981 165 L 200.01014238426 165 L 200.9233368287 165 L 201.83653127315 165 L 202.74972571759 165 L 203.66292016204 165 L 204.57611460648 165 L 205.48930905093 165 L 205.48930905167 165 L 206.40250349537 165 L 207.31569793981 165 L 208.22889238426 165 L 209.1420868287 165 L 210.05528127315 165 L 210.96847571759 165 L 211.88167016204 165 L 212.79486460648 165 L 213.70805905093 165 L 214.62125349537 165 L 215.53444793981 165 L 216.44764238426 165 L 217.3608368287 163.6068512499332 L 218.27403127315 158.0174715816975 L 219.18722571759 151.018158495426 L 220.10042016204 152.411307245493 L 221.01361460648 141.215763241053 L 221.92680905093 141.215763241053 L 222.84000349537 141.215763241053 L 223.75319793981 139.82261449098598 L 224.66639238426 139.82261449098598 L 225.5795868287 139.82261449098598 L 226.49278127315 139.82261449098598 L 227.40597571759 138.412679433823 L 228.31917016204 138.412679433823 L 229.23236460648 139.82261449098598 L 230.14555905093 139.82261449098598 L 231.05875349537 138.412679433823 L 231.97194793981 137.019532322884 L 232.88514238426 137.019532322884 L 233.7983368287 137.019532322884 L 234.71153127315 135.626381933689 L 235.62472571759 135.626381933689 L 236.53792016204 135.626381933689 L 237.45111460648 135.626381933689 L 238.36430905093 134.216450154781 L 239.27750349537 134.216450154781 L 240.19069793981 134.216450154781 L 241.10389238426 134.216450154781 L 242.0170868287 135.626381933689 L 242.93028127315 134.216450154781 L 243.84347571759 134.216450154781 L 244.75667016204 132.823299765587 L 245.66986460648 132.823299765587 L 246.58305905093 132.823299765587 L 247.49625349537 131.430152654648 L 248.40944793981 130.020217597485 L 249.32264238426 130.020217597485 L 250.2358368287 128.62707048654602 L 251.14903127315 127.217135429382 L 252.06222571759 127.217135429382 L 252.97542016204 127.217135429382 L 253.88861460648 125.823988318443 L 254.80180905093 125.823988318443 L 255.71500349537 125.823988318443 L 256.62819793981 127.217135429382 L 257.54139238426 127.217135429382 L 258.4545868287 128.62707048654602 L 259.36778127315 128.62707048654602 L 260.28097571759 128.62707048654602 L 261.19417016204 128.62707048654602 L 262.10736460648 127.217135429382 L 263.02055905093 125.823988318443 L 263.93375349537 127.217135429382 L 264.84694793981 128.62707048654602 L 265.76014238426 128.62707048654602 L 266.6733368287 125.823988318443 L 267.58653127315 127.217135429382 L 268.49972571759 125.823988318443 L 269.41292016204 124.41405326128 L 270.32611460648 125.823988318443 L 271.23930905093 125.823988318443 L 272.15250349537 127.217135429382 L 273.06569793981 125.823988318443 L 273.97889238426 125.823988318443 L 274.8920868287 125.823988318443 L 275.80528127315 127.217135429382 L 276.71847571759 127.217135429382 L 277.63167016204 127.217135429382 L 278.54486460648 125.823988318443 L 279.45805905093 125.823988318443 L 280.37125349537 124.41405326128 L 281.28444793981 123.020906150341 L 282.19764238426 121.627755761147 L 283.1108368287 120.217823982239 L 284.02403127315 120.217823982239 L 284.93722571759 120.217823982239 L 285.85042016204 118.824673593044 L 286.76361460648 117.431526482105 L 287.67680905093 118.824673593044 L 288.59000349537 118.824673593044 L 289.50319793981 123.020906150341 L 290.41639238426 159.4106203317642 L 291.3295868287 165 L 292.24278127315 165 L 293.15597571759 165 L 294.06917016204 165 L 294.98236460648 165 L 295.89555905093 165 L 296.80875349537 165 L 297.72194793981 165 L 298.63514238426 165 L 299.5483368287 165 L 300.46153127315 165 L 301.37472571759 165 L 302.28792016204 165 L 303.20111460648 165 L 304.11430905093 165 L 305.02750349537 165 L 305.94069793981 165 L 306.85389238426 165 L 307.7670868287 165 L 308.68028127315 165 L 309.59347571759 165 L 310.50667016204 165 L 311.41986460648 165 L 312.33305905093 165 L 313.24625349537 165 L 314.15944793981 165 L 315.07264238426 165 L 315.9858368287 165 L 316.89903127315 165 L 317.81222571759 165 L 318.72542016204 165 L 319.63861460648 165 L 320.55180905093 165 L 321.46500349537 165 L 322.37819793981 165 L 323.29139238426 165 L 324.2045868287 165 L 325.11778127315 165 L 326.03097571759 165 L 326.94417016204 165 L 327.85736460648 165 L 328.77055905093 165 L 329.68375349537 165 L 330.59694793981 165 L 331.51014238426 165 L 332.4233368287 165 L 333.33653127315 165 L 334.24972571759 165 L 335.16292016204 165 L 336.07611460648 165 L 336.98930905093 165 L 337.90250349537 165 L 338.81569793981 165 L 339.72889238426 165 L 340.6420868287 165 L 341.55528127315 165 L 342.46847571759 165 L 343.38167016204 165 L 344.29486460648 165 L 345.20805905093 165 L 346.12125349537 165 L 347.03444793981 165 L 347.94764238426 165 L 348.8608368287 165 L 349.77403127315 165 L 350.68722571759 165 L 351.60042016204 165 L 352.51361460648 165 L 353.42680905093 165 L 354.34000349537 165 L 355.25319793981 165 L 356.16639238426 165 L 357.0795868287 165 L 357.99278127315 165 L 358.90597571759 165 L 359.81917016204 165 L 360.73236460648 165 L 361.64555905093 165 L 362.55875349537 165 L 363.47194793981 165 L 364.38514238426 165 L 365.2983368287 165 L 366.21153127315 165 L 367.12472571759 165 L 368.03792016204 165 L 368.95111460648 165 L 369.86430905093 165 L 370.77750349537 165 L 371.69069793981 165 L 372.60389238426 165 L 373.5170868287 165 L 374.43028127315 165 L 375.34347571759 165 L 376.25667016204 165 L 377.16986460648 165 L 378.08305905093 165 L 378.99625349537 165 L 379.90944793981 165 L 380.82264238426 165 L 381.7358368287 165 L 382.64903127315 165 L 383.56222571759 165 L 384.47542016204 165 L 385.38861460648 165 L 386.30180905093 165 L 387.21500349537 165 L 388.12819793981 165 L 389.04139238426 165 L 389.9545868287 165 L 390.86778127315 165 L 391.78097571759 165 L 392.69417016204 165 L 393.60736460648 165 L 394.52055905093 165 L 395.43375349537 165 L 396.34694793981 165 L 397.26014238426 165 L 398.1733368287 165 L 399.08653127315 165 L 399.99972571759 165 L 400.91292016204 165 L 401.82611460648 165 L 402.73930905093 165 L 403.65250349537 165 L 404.56569793981 165 L 405.47889238426 165 L 406.3920868287 165 L 407.30528127315 165 L 408.21847571759 165 L 409.13167016204 165 L 410.04486460648 165 L 410.95805905093 165 L 411.87125349537 165 L 412.78444793981 165 L 413.69764238426 165 L 414.6108368287 165 L 415.52403127315 165 L 416.43722571759 165 L 417.35042016204 165 L 418.26361460648 165 L 419.17680905093 165 L 420.09000349537 165 L 421.00319793981 165 L 421.91639238426 165 L 422.8295868287 165 L 423.74278127315 165 L 424.65597571759 165 L 425.56917016204 165 L 426.48236460648 165 L 427.39555905093 165 L 428.30875349537 165 L 429.22194793981 165 L 430.13514238426 165 L 431.0483368287 165 L 431.96153127315 165 L 432.87472571759 165 L 433.78792016204 165 L 434.70111460648 165 L 435.61430905093 165 L 436.52750349537 165 L 437.44069793981 165 L 438.35389238426 165 L 439.2670868287 165 L 440.18028127315 165 L 441.09347571759 165 L 442.00667016204 165 L 442.91986460648 165 L 443.83305905093 165 L 444.74625349537 165 L 445.65944793981 165 L 446.57264238426 165 L 447.4858368287 165 L 448.39903127315 165 L 449.31222571759 165 L 450.22542016204 165 L 451.13861460648 165 L 452.05180905093 165 L 452.96500349537 165 L 453.87819793981 165 L 454.79139238426 165 L 455.7045868287 165 L 456.61778127315 165 L 457.53097571759 165 L 458.44417016204 165 L 459.35736460648 165 L 460.27055905093 165 L 461.18375349537 165 L 462.09694793981 165 L 463.01014238426 165 L 463.9233368287 165 L 464.83653127315 165 L 465.74972571759 165 L 466.66292016204 165 L 467.57611460648 165 L 468.48930905093 165" class="highcharts-graph" data-z-index="1" stroke="#7cb5ec" stroke-width="2" stroke-linejoin="round" stroke-linecap="round"></path></g><g class="highcharts-markers highcharts-series-0 highcharts-line-series highcharts-color-0" data-z-index="0.1" opacity="1" transform="translate(64,45) scale(1 1)" clip-path="none"></g><g class="highcharts-series highcharts-series-1 highcharts-line-series highcharts-color-1" data-z-index="0.1" opacity="1" transform="translate(64,45) scale(1 1)" clip-path="url(#highcharts-xzqnfh3-11028-)"><path fill="none" d="M 0.020559050925926 120.217823982239 L 0.93375349537037 120.217823982239 L 1.8469479398148 118.824673593044 L 2.7601423842593 118.824673593044 L 3.6733368287037 117.431526482105 L 4.5865312731481 117.431526482105 L 5.4997257175926 117.431526482105 L 6.412920162037 117.431526482105 L 7.3261146064815 117.431526482105 L 8.2393090509259 113.21850925684001 L 9.1525034953704 113.21850925684001 L 10.065697939815 111.82535886764501 L 10.978892384259 111.82535886764501 L 11.892086828704 111.82535886764501 L 12.805281273148 111.82535886764501 L 13.718475717593 111.82535886764501 L 14.631670162037 111.82535886764501 L 15.544864606481 110.43221175670601 L 16.458059050926 110.43221175670601 L 17.37125349537 110.43221175670601 L 18.284447939815 110.43221175670601 L 19.197642384259 110.43221175670601 L 20.110836828704 109.02227997779801 L 21.024031273148 109.02227997779801 L 21.937225717593 110.43221175670601 L 22.850420162037 110.43221175670601 L 23.763614606481 109.02227997779801 L 24.676809050926 109.02227997779801 L 25.59000349537 109.02227997779801 L 26.503197939815 110.43221175670601 L 27.416392384259 109.02227997779801 L 28.329586828704 109.02227997779801 L 29.242781273148 107.629126310349 L 30.155975717593 107.629126310349 L 31.069170162037 107.629126310349 L 31.982364606481 106.235979199409 L 32.895559050926 106.235979199409 L 33.80875349537 106.235979199409 L 34.721947939815 104.826047420502 L 35.635142384259 104.826047420502 L 36.548336828704 104.826047420502 L 37.461531273148 104.826047420502 L 38.374725717593 103.432900309563 L 39.287920162037 135.626381933689 L 40.201114606481 137.019532322884 L 41.114309050926 135.626381933689 L 42.02750349537 137.019532322884 L 42.940697939815 137.019532322884 L 43.853892384259 137.019532322884 L 44.767086828704 137.019532322884 L 45.680281273148 138.412679433823 L 46.593475717593 138.412679433823 L 47.506670162037 137.019532322884 L 48.419864606481 137.019532322884 L 49.333059050926 137.019532322884 L 50.24625349537 137.019532322884 L 51.159447939815 137.019532322884 L 52.072642384259 137.019532322884 L 52.985836828704 153.80445599556 L 53.899031273148 165 L 54.812225717593 165 L 55.725420162037 165 L 56.638614606481 165 L 57.551809050926 165 L 58.46500349537 165 L 59.378197939815 165 L 60.291392384259 165 L 61.204586828704 165 L 62.117781273148 165 L 63.030975717593 165 L 63.944170162037 165 L 64.857364606481 165 L 65.770559050926 165 L 66.68375349537 165 L 67.596947939815 165 L 68.510142384259 165 L 69.423336828704 165 L 70.336531273148 165 L 71.249725717593 165 L 72.162920162037 165 L 73.076114606481 165 L 73.989309050926 165 L 74.90250349537 165 L 75.815697939815 165 L 76.728892384259 165 L 77.642086828704 165 L 78.555281273148 165 L 79.468475717593 165 L 80.381670162037 165 L 81.294864606481 165 L 82.208059050926 165 L 83.12125349537 165 L 84.034447939815 165 L 84.947642384259 165 L 85.860836828704 165 L 86.774031273148 165 L 87.687225717593 165 L 88.600420162037 165 L 89.513614606481 165 L 90.426809050926 165 L 91.34000349537 165 L 92.253197939815 165 L 93.166392384259 165 L 94.079586828704 165 L 94.992781273148 165 L 95.905975717593 165 L 96.819170162037 165 L 97.732364606481 165 L 98.645559050926 165 L 99.55875349537 165 L 100.47194793981 165 L 101.38514238426 165 L 102.2983368287 165 L 103.21153127315 165 L 104.12472571759 165 L 105.03792016204 165 L 105.95111460648 165 L 106.86430905093 165 L 107.77750349537 165 L 108.69069793981 165 L 109.60389238426 165 L 110.5170868287 165 L 111.43028127315 165 L 112.34347571759 165 L 113.25667016204 165 L 114.16986460648 165 L 115.08305905093 165 L 115.99625349537 165 L 116.90944793981 165 L 117.82264238426 165 L 118.7358368287 165 L 119.64903127315 165 L 120.56222571759 165 L 121.47542016204 165 L 122.38861460648 165 L 123.30180905093 165 L 124.21500349537 165 L 125.12819793981 165 L 126.04139238426 165 L 126.9545868287 165 L 127.86778127315 165 L 128.78097571759 165 L 129.69417016204 165 L 130.60736460648 163.6068512499332 L 131.52055905093 165 L 132.43375349537 165 L 133.34694793981 165 L 134.26014238426 165 L 135.1733368287 165 L 136.08653127315 165 L 136.99972571759 165 L 137.91292016204 165 L 138.82611460648 165 L 139.73930905093 165 L 140.65250349537 163.6068512499332 L 141.56569793981 165 L 142.47889238426 165 L 143.3920868287 163.6068512499332 L 144.30528127315 165 L 145.21847571759 165 L 146.13167016204 163.6068512499332 L 147.04486460648 163.6068512499332 L 147.95805905093 165 L 148.87125349537 165 L 149.78444793981 165 L 150.69764238426 165 L 151.6108368287 165 L 152.52403127315 165 L 153.43722571759 165 L 154.35042016204 165 L 155.26361460648 165 L 156.17680905093 165 L 157.09000349537 165 L 158.00319793981 163.6068512499332 L 158.91639238426 165 L 159.8295868287 165 L 160.74278127315 165 L 161.65597571759 165 L 162.56917016204 163.6068512499332 L 163.48236460648 165 L 164.39555905093 165 L 165.30875349537 165 L 166.22194793981 165 L 167.13514238426 165 L 168.0483368287 165 L 168.96153127315 165 L 169.87472571759 165 L 170.78792016204 165 L 171.70111460648 165 L 172.61430905093 163.6068512499332 L 173.52750349537 163.6068512499332 L 174.44069793981 163.6068512499332 L 175.35389238426 163.6068512499332 L 176.2670868287 163.6068512499332 L 177.18028127315 163.6068512499332 L 178.09347571759 163.6068512499332 L 179.00667016204 163.6068512499332 L 179.91986460648 163.6068512499332 L 180.83305905093 163.6068512499332 L 181.74625349537 163.6068512499332 L 182.65944793981 163.6068512499332 L 183.57264238426 163.6068512499332 L 184.4858368287 163.6068512499332 L 185.39903127315 163.6068512499332 L 186.31222571759 163.6068512499332 L 187.22542016204 163.6068512499332 L 188.13861460648 165 L 189.05180905093 165 L 189.96500349537 163.6068512499332 L 190.87819793981 165 L 191.79139238426 163.6068512499332 L 192.7045868287 165 L 193.61778127315 163.6068512499332 L 194.53097571759 165 L 195.44417016204 163.6068512499332 L 196.35736460648 163.6068512499332 L 197.27055905093 165 L 198.18375349537 165 L 199.09694793981 165 L 200.01014238426 165 L 200.9233368287 163.6068512499332 L 201.83653127315 165 L 202.74972571759 165 L 203.66292016204 163.6068512499332 L 204.57611460648 165 L 205.48930905093 165 L 206.40250349537 163.6068512499332 L 207.31569793981 165 L 208.22889238426 165 L 208.228892385 165 L 209.1420868287 163.6068512499332 L 210.05528127315 162.21370249986649 L 210.96847571759 160.803769081831 L 211.88167016204 148.215076327324 L 212.79486460648 142.608911991119 L 213.70805905093 138.412679433823 L 214.62125349537 138.412679433823 L 215.53444793981 135.626381933689 L 216.44764238426 135.626381933689 L 217.3608368287 134.216450154781 L 218.27403127315 132.823299765587 L 219.18722571759 132.823299765587 L 220.10042016204 132.823299765587 L 221.01361460648 131.430152654648 L 221.92680905093 132.823299765587 L 222.84000349537 131.430152654648 L 223.75319793981 130.020217597485 L 224.66639238426 124.41405326128 L 225.5795868287 124.41405326128 L 226.49278127315 124.41405326128 L 227.40597571759 123.020906150341 L 228.31917016204 123.020906150341 L 229.23236460648 123.020906150341 L 230.14555905093 121.627755761147 L 231.05875349537 121.627755761147 L 231.97194793981 121.627755761147 L 232.88514238426 118.824673593044 L 233.7983368287 117.431526482105 L 234.71153127315 117.431526482105 L 235.62472571759 116.021591424942 L 236.53792016204 116.021591424942 L 237.45111460648 116.021591424942 L 238.36430905093 116.021591424942 L 239.27750349537 114.62844431400299 L 240.19069793981 113.21850925684001 L 241.10389238426 114.62844431400299 L 242.0170868287 113.21850925684001 L 242.93028127315 113.21850925684001 L 243.84347571759 113.21850925684001 L 244.75667016204 111.82535886764501 L 245.66986460648 111.82535886764501 L 246.58305905093 111.82535886764501 L 247.49625349537 110.43221175670601 L 248.40944793981 110.43221175670601 L 249.32264238426 110.43221175670601 L 250.2358368287 110.43221175670601 L 251.14903127315 110.43221175670601 L 252.06222571759 109.02227997779801 L 252.97542016204 109.02227997779801 L 253.88861460648 109.02227997779801 L 254.80180905093 107.629126310349 L 255.71500349537 107.629126310349 L 256.62819793981 107.629126310349 L 257.54139238426 107.629126310349 L 258.4545868287 106.235979199409 L 259.36778127315 106.235979199409 L 260.28097571759 106.235979199409 L 261.19417016204 106.235979199409 L 262.10736460648 106.235979199409 L 263.02055905093 106.235979199409 L 263.93375349537 104.826047420502 L 264.84694793981 104.826047420502 L 265.76014238426 104.826047420502 L 266.6733368287 106.235979199409 L 267.58653127315 106.235979199409 L 268.49972571759 104.826047420502 L 269.41292016204 106.235979199409 L 270.32611460648 104.826047420502 L 271.23930905093 104.826047420502 L 272.15250349537 104.826047420502 L 273.06569793981 103.432900309563 L 273.97889238426 103.432900309563 L 274.8920868287 103.432900309563 L 275.80528127315 103.432900309563 L 276.71847571759 103.432900309563 L 277.63167016204 103.432900309563 L 278.54486460648 103.432900309563 L 279.45805905093 102.02296197414401 L 280.37125349537 102.02296197414401 L 281.28444793981 102.02296197414401 L 282.19764238426 102.02296197414401 L 283.1108368287 100.629814863205 L 284.02403127315 102.02296197414401 L 284.93722571759 102.02296197414401 L 285.85042016204 102.02296197414401 L 286.76361460648 100.629814863205 L 287.67680905093 100.629814863205 L 288.59000349537 100.629814863205 L 289.50319793981 100.629814863205 L 290.41639238426 103.432900309563 L 291.3295868287 103.432900309563 L 292.24278127315 103.432900309563 L 293.15597571759 103.432900309563 L 294.06917016204 102.02296197414401 L 294.98236460648 102.02296197414401 L 295.89555905093 102.02296197414401 L 296.80875349537 102.02296197414401 L 297.72194793981 102.02296197414401 L 298.63514238426 102.02296197414401 L 299.5483368287 103.432900309563 L 300.46153127315 110.43221175670601 L 301.37472571759 110.43221175670601 L 302.28792016204 110.43221175670601 L 303.20111460648 110.43221175670601 L 304.11430905093 128.62707048654602 L 305.02750349537 139.82261449098598 L 305.94069793981 139.82261449098598 L 306.85389238426 139.82261449098598 L 307.7670868287 141.215763241053 L 308.68028127315 141.215763241053 L 309.59347571759 160.803769081831 L 310.50667016204 163.6068512499332 L 311.41986460648 163.6068512499332 L 312.33305905093 163.6068512499332 L 313.24625349537 163.6068512499332 L 314.15944793981 163.6068512499332 L 315.07264238426 160.803769081831 L 315.9858368287 165 L 316.89903127315 165 L 317.81222571759 165 L 318.72542016204 165 L 319.63861460648 165 L 320.55180905093 165 L 321.46500349537 165 L 322.37819793981 165 L 323.29139238426 165 L 324.2045868287 165 L 325.11778127315 165 L 326.03097571759 165 L 326.94417016204 165 L 327.85736460648 165 L 328.77055905093 165 L 329.68375349537 165 L 330.59694793981 165 L 331.51014238426 165 L 332.4233368287 165 L 333.33653127315 165 L 334.24972571759 165 L 335.16292016204 165 L 336.07611460648 165 L 336.98930905093 165 L 337.90250349537 165 L 338.81569793981 165 L 339.72889238426 165 L 340.6420868287 165 L 341.55528127315 165 L 342.46847571759 165 L 343.38167016204 165 L 344.29486460648 165 L 345.20805905093 165 L 346.12125349537 165 L 347.03444793981 165 L 347.94764238426 165 L 348.8608368287 165 L 349.77403127315 165 L 350.68722571759 165 L 351.60042016204 165 L 352.51361460648 165 L 353.42680905093 165 L 354.34000349537 165 L 355.25319793981 165 L 356.16639238426 165 L 357.0795868287 165 L 357.99278127315 165 L 358.90597571759 165 L 359.81917016204 165 L 360.73236460648 165 L 361.64555905093 165 L 362.55875349537 165 L 363.47194793981 165 L 364.38514238426 165 L 365.2983368287 165 L 366.21153127315 165 L 367.12472571759 165 L 368.03792016204 165 L 368.95111460648 165 L 369.86430905093 165 L 370.77750349537 165 L 371.69069793981 165 L 372.60389238426 165 L 373.5170868287 165 L 374.43028127315 165 L 375.34347571759 165 L 376.25667016204 165 L 377.16986460648 165 L 378.08305905093 165 L 378.99625349537 165 L 379.90944793981 165 L 380.82264238426 165 L 381.7358368287 165 L 382.64903127315 165 L 383.56222571759 165 L 384.47542016204 165 L 385.38861460648 165 L 386.30180905093 165 L 387.21500349537 165 L 388.12819793981 165 L 389.04139238426 163.6068512499332 L 389.9545868287 165 L 390.86778127315 165 L 391.78097571759 165 L 392.69417016204 165 L 393.60736460648 165 L 394.52055905093 165 L 395.43375349537 165 L 396.34694793981 163.6068512499332 L 397.26014238426 163.6068512499332 L 398.1733368287 165 L 399.08653127315 165 L 399.99972571759 165 L 400.91292016204 165 L 401.82611460648 165 L 402.73930905093 165 L 403.65250349537 163.6068512499332 L 404.56569793981 163.6068512499332 L 405.47889238426 165 L 406.3920868287 163.6068512499332 L 407.30528127315 165 L 408.21847571759 165 L 409.13167016204 165 L 410.04486460648 165 L 410.95805905093 165 L 411.87125349537 165 L 412.78444793981 165 L 413.69764238426 165 L 414.6108368287 165 L 415.52403127315 165 L 416.43722571759 163.6068512499332 L 417.35042016204 165 L 418.26361460648 165 L 419.17680905093 165 L 420.09000349537 165 L 421.00319793981 165 L 421.91639238426 165 L 422.8295868287 165 L 423.74278127315 165 L 424.65597571759 165 L 425.56917016204 165 L 426.48236460648 165 L 427.39555905093 165 L 428.30875349537 165 L 429.22194793981 165 L 430.13514238426 165 L 431.0483368287 165 L 431.96153127315 165 L 432.87472571759 165 L 433.78792016204 165 L 434.70111460648 163.6068512499332 L 435.61430905093 163.6068512499332 L 436.52750349537 163.6068512499332 L 437.44069793981 163.6068512499332 L 438.35389238426 163.6068512499332 L 439.2670868287 163.6068512499332 L 440.18028127315 163.6068512499332 L 441.09347571759 163.6068512499332 L 442.00667016204 163.6068512499332 L 442.91986460648 163.6068512499332 L 443.83305905093 163.6068512499332 L 444.74625349537 165 L 445.65944793981 163.6068512499332 L 446.57264238426 163.6068512499332 L 447.4858368287 163.6068512499332 L 448.39903127315 163.6068512499332 L 449.31222571759 163.6068512499332 L 450.22542016204 165 L 451.13861460648 165 L 452.05180905093 165 L 452.96500349537 165 L 453.87819793981 163.6068512499332 L 454.79139238426 165 L 455.7045868287 165 L 456.61778127315 165 L 457.53097571759 165 L 458.44417016204 165 L 459.35736460648 163.6068512499332 L 460.27055905093 165 L 461.18375349537 165 L 462.09694793981 165 L 463.01014238426 165 L 463.9233368287 165 L 464.83653127315 163.6068512499332 L 465.74972571759 165 L 466.66292016204 165 L 467.57611460648 165 L 468.48930905093 165 L 469.40250349537 165 L 470.31569793981 165 L 471.22889238426 165" class="highcharts-graph" data-z-index="1" stroke="#434348" stroke-width="2" stroke-linejoin="round" stroke-linecap="round"></path></g><g class="highcharts-markers highcharts-series-1 highcharts-line-series highcharts-color-1" data-z-index="0.1" opacity="1" transform="translate(64,45) scale(1 1)" clip-path="none"></g><g class="highcharts-series highcharts-series-2 highcharts-line-series highcharts-color-2" data-z-index="0.1" opacity="1" transform="translate(64,45) scale(1 1)" clip-path="url(#highcharts-xzqnfh3-11028-)"><path fill="none" d="M 0.020559050925926 159.4106203317642 L 0.93375349537037 159.4106203317642 L 1.8469479398148 159.4106203317642 L 2.7601423842593 159.4106203317642 L 3.6733368287037 159.4106203317642 L 4.5865312731481 159.4106203317642 L 5.4997257175926 159.4106203317642 L 6.412920162037 159.4106203317642 L 7.3261146064815 159.4106203317642 L 8.2393090509259 159.4106203317642 L 9.1525034953704 159.4106203317642 L 10.065697939815 159.4106203317642 L 10.978892384259 159.4106203317642 L 11.892086828704 159.4106203317642 L 12.805281273148 159.4106203317642 L 13.718475717593 159.4106203317642 L 14.631670162037 159.4106203317642 L 15.544864606481 159.4106203317642 L 16.458059050926 159.4106203317642 L 17.37125349537 159.4106203317642 L 18.284447939815 159.4106203317642 L 19.197642384259 159.4106203317642 L 20.110836828704 159.4106203317642 L 21.024031273148 159.4106203317642 L 21.937225717593 159.4106203317642 L 22.850420162037 159.4106203317642 L 23.763614606481 159.4106203317642 L 24.676809050926 159.4106203317642 L 25.59000349537 159.4106203317642 L 26.503197939815 159.4106203317642 L 27.416392384259 160.803769081831 L 28.329586828704 160.803769081831 L 29.242781273148 160.803769081831 L 30.155975717593 160.803769081831 L 31.069170162037 160.803769081831 L 31.982364606481 160.803769081831 L 32.895559050926 160.803769081831 L 33.80875349537 160.803769081831 L 34.721947939815 158.0174715816975 L 35.635142384259 148.215076327324 L 36.548336828704 131.430152654648 L 37.461531273148 125.823988318443 L 38.374725717593 125.823988318443 L 39.287920162037 128.62707048654602 L 40.201114606481 130.020217597485 L 41.114309050926 131.430152654648 L 42.02750349537 132.823299765587 L 42.940697939815 132.823299765587 L 43.853892384259 131.430152654648 L 44.767086828704 132.823299765587 L 45.680281273148 132.823299765587 L 46.593475717593 132.823299765587 L 47.506670162037 132.823299765587 L 48.419864606481 131.430152654648 L 49.333059050926 131.430152654648 L 50.24625349537 130.020217597485 L 51.159447939815 130.020217597485 L 52.072642384259 127.217135429382 L 52.985836828704 127.217135429382 L 53.899031273148 125.823988318443 L 54.812225717593 124.41405326128 L 55.725420162037 123.020906150341 L 56.638614606481 121.627755761147 L 57.551809050926 121.627755761147 L 58.46500349537 118.824673593044 L 59.378197939815 137.019532322884 L 60.291392384259 146.821927577257 L 61.204586828704 151.018158495426 L 62.117781273148 152.411307245493 L 63.030975717593 152.411307245493 L 63.944170162037 153.80445599556 L 64.857364606481 153.80445599556 L 65.770559050926 153.80445599556 L 66.68375349537 155.2143894135952 L 67.596947939815 155.2143894135952 L 68.510142384259 155.2143894135952 L 69.423336828704 155.2143894135952 L 70.336531273148 155.2143894135952 L 71.249725717593 155.2143894135952 L 72.162920162037 155.2143894135952 L 73.076114606481 155.2143894135952 L 73.989309050926 156.607538163662 L 74.90250349537 156.607538163662 L 75.815697939815 156.607538163662 L 76.728892384259 156.607538163662 L 77.642086828704 156.607538163662 L 78.555281273148 156.607538163662 L 79.468475717593 156.607538163662 L 80.381670162037 156.607538163662 L 81.294864606481 156.607538163662 L 82.208059050926 158.0174715816975 L 83.12125349537 158.0174715816975 L 84.034447939815 158.0174715816975 L 84.947642384259 158.0174715816975 L 85.860836828704 158.0174715816975 L 86.774031273148 158.0174715816975 L 87.687225717593 158.0174715816975 L 88.600420162037 158.0174715816975 L 89.513614606481 158.0174715816975 L 90.426809050926 158.0174715816975 L 91.34000349537 158.0174715816975 L 92.253197939815 159.4106203317642 L 93.166392384259 158.0174715816975 L 94.079586828704 158.0174715816975 L 94.992781273148 158.0174715816975 L 95.905975717593 159.4106203317642 L 96.819170162037 158.0174715816975 L 97.732364606481 158.0174715816975 L 98.645559050926 159.4106203317642 L 99.55875349537 158.0174715816975 L 100.47194793981 159.4106203317642 L 101.38514238426 159.4106203317642 L 102.2983368287 158.0174715816975 L 103.21153127315 158.0174715816975 L 104.12472571759 158.0174715816975 L 105.03792016204 158.0174715816975 L 105.95111460648 158.0174715816975 L 106.86430905093 158.0174715816975 L 107.77750349537 158.0174715816975 L 108.69069793981 158.0174715816975 L 109.60389238426 158.0174715816975 L 110.5170868287 158.0174715816975 L 111.43028127315 158.0174715816975 L 112.34347571759 158.0174715816975 L 113.25667016204 158.0174715816975 L 114.16986460648 158.0174715816975 L 115.08305905093 158.0174715816975 L 115.99625349537 158.0174715816975 L 116.90944793981 158.0174715816975 L 117.82264238426 158.0174715816975 L 118.7358368287 158.0174715816975 L 119.64903127315 158.0174715816975 L 120.56222571759 158.0174715816975 L 121.47542016204 158.0174715816975 L 122.38861460648 158.0174715816975 L 123.30180905093 158.0174715816975 L 124.21500349537 158.0174715816975 L 125.12819793981 158.0174715816975 L 126.04139238426 158.0174715816975 L 126.9545868287 158.0174715816975 L 127.86778127315 158.0174715816975 L 128.78097571759 158.0174715816975 L 129.69417016204 158.0174715816975 L 130.60736460648 158.0174715816975 L 131.52055905093 158.0174715816975 L 132.43375349537 158.0174715816975 L 133.34694793981 158.0174715816975 L 134.26014238426 158.0174715816975 L 135.1733368287 158.0174715816975 L 136.08653127315 159.4106203317642 L 136.99972571759 158.0174715816975 L 137.91292016204 158.0174715816975 L 138.82611460648 159.4106203317642 L 139.73930905093 158.0174715816975 L 140.65250349537 158.0174715816975 L 141.56569793981 158.0174715816975 L 142.47889238426 158.0174715816975 L 143.3920868287 153.80445599556 L 144.30528127315 146.821927577257 L 145.21847571759 135.626381933689 L 146.13167016204 128.62707048654602 L 147.04486460648 116.021591424942 L 147.95805905093 113.21850925684001 L 148.87125349537 110.43221175670601 L 149.78444793981 110.43221175670601 L 150.69764238426 110.43221175670601 L 151.6108368287 109.02227997779801 L 152.52403127315 109.02227997779801 L 153.43722571759 107.629126310349 L 154.35042016204 106.235979199409 L 155.26361460648 104.826047420502 L 156.17680905093 104.826047420502 L 157.09000349537 103.432900309563 L 158.00319793981 103.432900309563 L 158.91639238426 102.02296197414401 L 159.8295868287 102.02296197414401 L 160.74278127315 102.02296197414401 L 161.65597571759 100.629814863205 L 162.56917016204 100.629814863205 L 163.48236460648 100.629814863205 L 164.39555905093 99.236667752266 L 165.30875349537 99.236667752266 L 166.22194793981 99.236667752266 L 167.13514238426 99.236667752266 L 168.0483368287 97.843520641327 L 168.96153127315 97.843520641327 L 169.87472571759 97.843520641327 L 170.78792016204 96.433582305908 L 171.70111460648 96.433582305908 L 172.61430905093 104.826047420502 L 173.52750349537 137.019532322884 L 174.44069793981 145.411994159222 L 175.35389238426 149.608225077391 L 176.2670868287 151.018158495426 L 177.18028127315 152.411307245493 L 178.09347571759 152.411307245493 L 179.00667016204 152.411307245493 L 179.91986460648 152.411307245493 L 180.83305905093 153.80445599556 L 181.74625349537 153.80445599556 L 182.65944793981 153.80445599556 L 183.57264238426 153.80445599556 L 184.4858368287 153.80445599556 L 185.39903127315 153.80445599556 L 186.31222571759 155.2143894135952 L 187.22542016204 155.2143894135952 L 188.13861460648 155.2143894135952 L 189.05180905093 155.2143894135952 L 189.96500349537 155.2143894135952 L 190.87819793981 155.2143894135952 L 191.79139238426 155.2143894135952 L 192.7045868287 155.2143894135952 L 193.61778127315 155.2143894135952 L 194.53097571759 155.2143894135952 L 195.44417016204 155.2143894135952 L 196.35736460648 156.607538163662 L 197.27055905093 156.607538163662 L 198.18375349537 156.607538163662 L 199.09694793981 156.607538163662 L 200.01014238426 156.607538163662 L 200.9233368287 156.607538163662 L 201.83653127315 156.607538163662 L 202.74972571759 156.607538163662 L 203.66292016204 156.607538163662 L 204.57611460648 156.607538163662 L 205.48930905093 156.607538163662 L 205.48930905167 156.607538163662 L 206.40250349537 156.607538163662 L 207.31569793981 156.607538163662 L 208.22889238426 156.607538163662 L 209.1420868287 156.607538163662 L 210.05528127315 158.0174715816975 L 210.96847571759 158.0174715816975 L 211.88167016204 158.0174715816975 L 212.79486460648 158.0174715816975 L 213.70805905093 158.0174715816975 L 214.62125349537 158.0174715816975 L 215.53444793981 158.0174715816975 L 216.44764238426 158.0174715816975 L 217.3608368287 158.0174715816975 L 218.27403127315 158.0174715816975 L 219.18722571759 158.0174715816975 L 220.10042016204 158.0174715816975 L 221.01361460648 158.0174715816975 L 221.92680905093 158.0174715816975 L 222.84000349537 158.0174715816975 L 223.75319793981 158.0174715816975 L 224.66639238426 158.0174715816975 L 225.5795868287 158.0174715816975 L 226.49278127315 158.0174715816975 L 227.40597571759 158.0174715816975 L 228.31917016204 158.0174715816975 L 229.23236460648 158.0174715816975 L 230.14555905093 158.0174715816975 L 231.05875349537 158.0174715816975 L 231.97194793981 158.0174715816975 L 232.88514238426 158.0174715816975 L 233.7983368287 158.0174715816975 L 234.71153127315 158.0174715816975 L 235.62472571759 158.0174715816975 L 236.53792016204 158.0174715816975 L 237.45111460648 158.0174715816975 L 238.36430905093 158.0174715816975 L 239.27750349537 158.0174715816975 L 240.19069793981 158.0174715816975 L 241.10389238426 158.0174715816975 L 242.0170868287 158.0174715816975 L 242.93028127315 158.0174715816975 L 243.84347571759 158.0174715816975 L 244.75667016204 158.0174715816975 L 245.66986460648 158.0174715816975 L 246.58305905093 158.0174715816975 L 247.49625349537 158.0174715816975 L 248.40944793981 158.0174715816975 L 249.32264238426 158.0174715816975 L 250.2358368287 158.0174715816975 L 251.14903127315 158.0174715816975 L 252.06222571759 158.0174715816975 L 252.97542016204 158.0174715816975 L 253.88861460648 158.0174715816975 L 254.80180905093 158.0174715816975 L 255.71500349537 158.0174715816975 L 256.62819793981 158.0174715816975 L 257.54139238426 158.0174715816975 L 258.4545868287 158.0174715816975 L 259.36778127315 158.0174715816975 L 260.28097571759 158.0174715816975 L 261.19417016204 158.0174715816975 L 262.10736460648 158.0174715816975 L 263.02055905093 158.0174715816975 L 263.93375349537 158.0174715816975 L 264.84694793981 158.0174715816975 L 265.76014238426 158.0174715816975 L 266.6733368287 158.0174715816975 L 267.58653127315 159.4106203317642 L 268.49972571759 159.4106203317642 L 269.41292016204 158.0174715816975 L 270.32611460648 159.4106203317642 L 271.23930905093 158.0174715816975 L 272.15250349537 159.4106203317642 L 273.06569793981 159.4106203317642 L 273.97889238426 159.4106203317642 L 274.8920868287 159.4106203317642 L 275.80528127315 159.4106203317642 L 276.71847571759 159.4106203317642 L 277.63167016204 158.0174715816975 L 278.54486460648 159.4106203317642 L 279.45805905093 159.4106203317642 L 280.37125349537 159.4106203317642 L 281.28444793981 159.4106203317642 L 282.19764238426 159.4106203317642 L 283.1108368287 159.4106203317642 L 284.02403127315 159.4106203317642 L 284.93722571759 159.4106203317642 L 285.85042016204 159.4106203317642 L 286.76361460648 159.4106203317642 L 287.67680905093 159.4106203317642 L 288.59000349537 159.4106203317642 L 289.50319793981 159.4106203317642 L 290.41639238426 159.4106203317642 L 291.3295868287 159.4106203317642 L 292.24278127315 159.4106203317642 L 293.15597571759 159.4106203317642 L 294.06917016204 159.4106203317642 L 294.98236460648 160.803769081831 L 295.89555905093 159.4106203317642 L 296.80875349537 160.803769081831 L 297.72194793981 160.803769081831 L 298.63514238426 160.803769081831 L 299.5483368287 160.803769081831 L 300.46153127315 159.4106203317642 L 301.37472571759 160.803769081831 L 302.28792016204 160.803769081831 L 303.20111460648 160.803769081831 L 304.11430905093 160.803769081831 L 305.02750349537 156.607538163662 L 305.94069793981 139.82261449098598 L 306.85389238426 128.62707048654602 L 307.7670868287 128.62707048654602 L 308.68028127315 131.430152654648 L 309.59347571759 132.823299765587 L 310.50667016204 132.823299765587 L 311.41986460648 132.823299765587 L 312.33305905093 134.216450154781 L 313.24625349537 132.823299765587 L 314.15944793981 132.823299765587 L 315.07264238426 131.430152654648 L 315.9858368287 131.430152654648 L 316.89903127315 130.020217597485 L 317.81222571759 127.217135429382 L 318.72542016204 127.217135429382 L 319.63861460648 125.823988318443 L 320.55180905093 124.41405326128 L 321.46500349537 124.41405326128 L 322.37819793981 123.020906150341 L 323.29139238426 120.217823982239 L 324.2045868287 117.431526482105 L 325.11778127315 123.020906150341 L 326.03097571759 144.018845409155 L 326.94417016204 149.608225077391 L 327.85736460648 152.411307245493 L 328.77055905093 152.411307245493 L 329.68375349537 153.80445599556 L 330.59694793981 153.80445599556 L 331.51014238426 153.80445599556 L 332.4233368287 153.80445599556 L 333.33653127315 155.2143894135952 L 334.24972571759 155.2143894135952 L 335.16292016204 155.2143894135952 L 336.07611460648 155.2143894135952 L 336.98930905093 155.2143894135952 L 337.90250349537 155.2143894135952 L 338.81569793981 156.607538163662 L 339.72889238426 156.607538163662 L 340.6420868287 156.607538163662 L 341.55528127315 156.607538163662 L 342.46847571759 156.607538163662 L 343.38167016204 156.607538163662 L 344.29486460648 156.607538163662 L 345.20805905093 158.0174715816975 L 346.12125349537 158.0174715816975 L 347.03444793981 158.0174715816975 L 347.94764238426 158.0174715816975 L 348.8608368287 158.0174715816975 L 349.77403127315 158.0174715816975 L 350.68722571759 158.0174715816975 L 351.60042016204 158.0174715816975 L 352.51361460648 158.0174715816975 L 353.42680905093 158.0174715816975 L 354.34000349537 158.0174715816975 L 355.25319793981 159.4106203317642 L 356.16639238426 158.0174715816975 L 357.0795868287 158.0174715816975 L 357.99278127315 158.0174715816975 L 358.90597571759 159.4106203317642 L 359.81917016204 159.4106203317642 L 360.73236460648 159.4106203317642 L 361.64555905093 159.4106203317642 L 362.55875349537 159.4106203317642 L 363.47194793981 158.0174715816975 L 364.38514238426 159.4106203317642 L 365.2983368287 159.4106203317642 L 366.21153127315 159.4106203317642 L 367.12472571759 159.4106203317642 L 368.03792016204 159.4106203317642 L 368.95111460648 159.4106203317642 L 369.86430905093 159.4106203317642 L 370.77750349537 159.4106203317642 L 371.69069793981 159.4106203317642 L 372.60389238426 159.4106203317642 L 373.5170868287 159.4106203317642 L 374.43028127315 158.0174715816975 L 375.34347571759 159.4106203317642 L 376.25667016204 158.0174715816975 L 377.16986460648 159.4106203317642 L 378.08305905093 158.0174715816975 L 378.99625349537 158.0174715816975 L 379.90944793981 158.0174715816975 L 380.82264238426 159.4106203317642 L 381.7358368287 158.0174715816975 L 382.64903127315 159.4106203317642 L 383.56222571759 158.0174715816975 L 384.47542016204 158.0174715816975 L 385.38861460648 159.4106203317642 L 386.30180905093 159.4106203317642 L 387.21500349537 159.4106203317642 L 388.12819793981 158.0174715816975 L 389.04139238426 159.4106203317642 L 389.9545868287 159.4106203317642 L 390.86778127315 159.4106203317642 L 391.78097571759 159.4106203317642 L 392.69417016204 159.4106203317642 L 393.60736460648 159.4106203317642 L 394.52055905093 159.4106203317642 L 395.43375349537 159.4106203317642 L 396.34694793981 159.4106203317642 L 397.26014238426 159.4106203317642 L 398.1733368287 159.4106203317642 L 399.08653127315 159.4106203317642 L 399.99972571759 159.4106203317642 L 400.91292016204 159.4106203317642 L 401.82611460648 159.4106203317642 L 402.73930905093 159.4106203317642 L 403.65250349537 159.4106203317642 L 404.56569793981 159.4106203317642 L 405.47889238426 159.4106203317642 L 406.3920868287 159.4106203317642 L 407.30528127315 159.4106203317642 L 408.21847571759 159.4106203317642 L 409.13167016204 159.4106203317642 L 410.04486460648 159.4106203317642 L 410.95805905093 159.4106203317642 L 411.87125349537 159.4106203317642 L 412.78444793981 156.607538163662 L 413.69764238426 149.608225077391 L 414.6108368287 139.82261449098598 L 415.52403127315 130.020217597485 L 416.43722571759 128.62707048654602 L 417.35042016204 116.021591424942 L 418.26361460648 113.21850925684001 L 419.17680905093 111.82535886764501 L 420.09000349537 110.43221175670601 L 421.00319793981 109.02227997779801 L 421.91639238426 107.629126310349 L 422.8295868287 106.235979199409 L 423.74278127315 104.826047420502 L 424.65597571759 103.432900309563 L 425.56917016204 102.02296197414401 L 426.48236460648 102.02296197414401 L 427.39555905093 100.629814863205 L 428.30875349537 100.629814863205 L 429.22194793981 100.629814863205 L 430.13514238426 99.236667752266 L 431.0483368287 99.236667752266 L 431.96153127315 99.236667752266 L 432.87472571759 97.843520641327 L 433.78792016204 97.843520641327 L 434.70111460648 97.843520641327 L 435.61430905093 138.412679433823 L 436.52750349537 146.821927577257 L 437.44069793981 149.608225077391 L 438.35389238426 152.411307245493 L 439.2670868287 152.411307245493 L 440.18028127315 152.411307245493 L 441.09347571759 152.411307245493 L 442.00667016204 152.411307245493 L 442.91986460648 153.80445599556 L 443.83305905093 153.80445599556 L 444.74625349537 153.80445599556 L 445.65944793981 153.80445599556 L 446.57264238426 153.80445599556 L 447.4858368287 153.80445599556 L 448.39903127315 155.2143894135952 L 449.31222571759 155.2143894135952 L 450.22542016204 155.2143894135952 L 451.13861460648 155.2143894135952 L 452.05180905093 155.2143894135952 L 452.96500349537 155.2143894135952 L 453.87819793981 155.2143894135952 L 454.79139238426 155.2143894135952 L 455.7045868287 156.607538163662 L 456.61778127315 156.607538163662 L 457.53097571759 155.2143894135952 L 458.44417016204 156.607538163662 L 459.35736460648 156.607538163662 L 460.27055905093 156.607538163662 L 461.18375349537 156.607538163662 L 462.09694793981 156.607538163662 L 463.01014238426 156.607538163662 L 463.9233368287 156.607538163662 L 464.83653127315 156.607538163662 L 465.74972571759 156.607538163662 L 466.66292016204 158.0174715816975 L 467.57611460648 156.607538163662 L 468.48930905093 156.607538163662" class="highcharts-graph" data-z-index="1" stroke="#90ed7d" stroke-width="2" stroke-linejoin="round" stroke-linecap="round"></path></g><g class="highcharts-markers highcharts-series-2 highcharts-line-series highcharts-color-2" data-z-index="0.1" opacity="1" transform="translate(64,45) scale(1 1)" clip-path="none"></g><g class="highcharts-series highcharts-series-3 highcharts-line-series highcharts-color-3" data-z-index="0.1" opacity="1" transform="translate(64,45) scale(1 1)" clip-path="url(#highcharts-xzqnfh3-11028-)"><path fill="none" d="M 0.020559050925926 145.411994159222 L 0.93375349537037 145.411994159222 L 1.8469479398148 145.411994159222 L 2.7601423842593 145.411994159222 L 3.6733368287037 145.411994159222 L 4.5865312731481 145.411994159222 L 5.4997257175926 145.411994159222 L 6.412920162037 145.411994159222 L 7.3261146064815 145.411994159222 L 8.2393090509259 145.411994159222 L 9.1525034953704 145.411994159222 L 10.065697939815 145.411994159222 L 10.978892384259 145.411994159222 L 11.892086828704 145.411994159222 L 12.805281273148 145.411994159222 L 13.718475717593 145.411994159222 L 14.631670162037 145.411994159222 L 15.544864606481 145.411994159222 L 16.458059050926 145.411994159222 L 17.37125349537 145.411994159222 L 18.284447939815 145.411994159222 L 19.197642384259 145.411994159222 L 20.110836828704 145.411994159222 L 21.024031273148 145.411994159222 L 21.937225717593 145.411994159222 L 22.850420162037 145.411994159222 L 23.763614606481 145.411994159222 L 24.676809050926 144.018845409155 L 25.59000349537 144.018845409155 L 26.503197939815 144.018845409155 L 27.416392384259 145.411994159222 L 28.329586828704 148.215076327324 L 29.242781273148 149.608225077391 L 30.155975717593 151.018158495426 L 31.069170162037 151.018158495426 L 31.982364606481 152.411307245493 L 32.895559050926 152.411307245493 L 33.80875349537 153.80445599556 L 34.721947939815 153.80445599556 L 35.635142384259 153.80445599556 L 36.548336828704 153.80445599556 L 37.461531273148 155.2143894135952 L 38.374725717593 155.2143894135952 L 39.287920162037 155.2143894135952 L 40.201114606481 155.2143894135952 L 41.114309050926 155.2143894135952 L 42.02750349537 155.2143894135952 L 42.940697939815 155.2143894135952 L 43.853892384259 155.2143894135952 L 44.767086828704 156.607538163662 L 45.680281273148 156.607538163662 L 46.593475717593 155.2143894135952 L 47.506670162037 156.607538163662 L 48.419864606481 156.607538163662 L 49.333059050926 156.607538163662 L 50.24625349537 156.607538163662 L 51.159447939815 156.607538163662 L 52.072642384259 156.607538163662 L 52.985836828704 156.607538163662 L 53.899031273148 156.607538163662 L 54.812225717593 156.607538163662 L 55.725420162037 156.607538163662 L 56.638614606481 156.607538163662 L 57.551809050926 156.607538163662 L 58.46500349537 156.607538163662 L 59.378197939815 158.0174715816975 L 60.291392384259 158.0174715816975 L 61.204586828704 158.0174715816975 L 62.117781273148 156.607538163662 L 63.030975717593 156.607538163662 L 63.944170162037 158.0174715816975 L 64.857364606481 156.607538163662 L 65.770559050926 156.607538163662 L 66.68375349537 158.0174715816975 L 67.596947939815 156.607538163662 L 68.510142384259 156.607538163662 L 69.423336828704 156.607538163662 L 70.336531273148 156.607538163662 L 71.249725717593 158.0174715816975 L 72.162920162037 158.0174715816975 L 73.076114606481 158.0174715816975 L 73.989309050926 156.607538163662 L 74.90250349537 158.0174715816975 L 75.815697939815 158.0174715816975 L 76.728892384259 158.0174715816975 L 77.642086828704 156.607538163662 L 78.555281273148 158.0174715816975 L 79.468475717593 156.607538163662 L 80.381670162037 158.0174715816975 L 81.294864606481 158.0174715816975 L 82.208059050926 158.0174715816975 L 83.12125349537 148.215076327324 L 84.034447939815 141.215763241053 L 84.947642384259 135.626381933689 L 85.860836828704 131.430152654648 L 86.774031273148 130.020217597485 L 87.687225717593 130.020217597485 L 88.600420162037 130.020217597485 L 89.513614606481 130.020217597485 L 90.426809050926 130.020217597485 L 91.34000349537 121.627755761147 L 92.253197939815 117.431526482105 L 93.166392384259 132.823299765587 L 94.079586828704 132.823299765587 L 94.992781273148 132.823299765587 L 95.905975717593 134.216450154781 L 96.819170162037 134.216450154781 L 97.732364606481 134.216450154781 L 98.645559050926 123.020906150341 L 99.55875349537 120.217823982239 L 100.47194793981 120.217823982239 L 101.38514238426 120.217823982239 L 102.2983368287 120.217823982239 L 103.21153127315 120.217823982239 L 104.12472571759 120.217823982239 L 105.03792016204 121.627755761147 L 105.95111460648 120.217823982239 L 106.86430905093 120.217823982239 L 107.77750349537 120.217823982239 L 108.69069793981 120.217823982239 L 109.60389238426 120.217823982239 L 110.5170868287 120.217823982239 L 111.43028127315 118.824673593044 L 112.34347571759 118.824673593044 L 113.25667016204 118.824673593044 L 114.16986460648 117.431526482105 L 115.08305905093 117.431526482105 L 115.99625349537 117.431526482105 L 116.90944793981 116.021591424942 L 117.82264238426 116.021591424942 L 118.7358368287 114.62844431400299 L 119.64903127315 114.62844431400299 L 120.56222571759 114.62844431400299 L 121.47542016204 113.21850925684001 L 122.38861460648 113.21850925684001 L 123.30180905093 111.82535886764501 L 124.21500349537 110.43221175670601 L 125.12819793981 110.43221175670601 L 126.04139238426 110.43221175670601 L 126.9545868287 109.02227997779801 L 127.86778127315 107.629126310349 L 128.78097571759 106.235979199409 L 129.69417016204 106.235979199409 L 130.60736460648 104.826047420502 L 131.52055905093 104.826047420502 L 132.43375349537 103.432900309563 L 133.34694793981 102.02296197414401 L 134.26014238426 102.02296197414401 L 135.1733368287 138.412679433823 L 136.08653127315 145.411994159222 L 136.99972571759 148.215076327324 L 137.91292016204 149.608225077391 L 138.82611460648 151.018158495426 L 139.73930905093 151.018158495426 L 140.65250349537 152.411307245493 L 141.56569793981 152.411307245493 L 142.47889238426 153.80445599556 L 143.3920868287 153.80445599556 L 144.30528127315 153.80445599556 L 145.21847571759 153.80445599556 L 146.13167016204 155.2143894135952 L 147.04486460648 155.2143894135952 L 147.95805905093 155.2143894135952 L 148.87125349537 155.2143894135952 L 149.78444793981 155.2143894135952 L 150.69764238426 155.2143894135952 L 151.6108368287 155.2143894135952 L 152.52403127315 155.2143894135952 L 153.43722571759 155.2143894135952 L 154.35042016204 156.607538163662 L 155.26361460648 155.2143894135952 L 156.17680905093 155.2143894135952 L 157.09000349537 155.2143894135952 L 158.00319793981 155.2143894135952 L 158.91639238426 155.2143894135952 L 159.8295868287 155.2143894135952 L 160.74278127315 156.607538163662 L 161.65597571759 156.607538163662 L 162.56917016204 156.607538163662 L 163.48236460648 156.607538163662 L 164.39555905093 156.607538163662 L 165.30875349537 156.607538163662 L 166.22194793981 156.607538163662 L 167.13514238426 156.607538163662 L 168.0483368287 156.607538163662 L 168.96153127315 156.607538163662 L 169.87472571759 156.607538163662 L 170.78792016204 156.607538163662 L 171.70111460648 156.607538163662 L 172.61430905093 156.607538163662 L 173.52750349537 156.607538163662 L 174.44069793981 156.607538163662 L 175.35389238426 156.607538163662 L 176.2670868287 156.607538163662 L 177.18028127315 156.607538163662 L 178.09347571759 156.607538163662 L 179.00667016204 156.607538163662 L 179.91986460648 156.607538163662 L 180.83305905093 156.607538163662 L 181.74625349537 156.607538163662 L 182.65944793981 156.607538163662 L 183.57264238426 156.607538163662 L 184.4858368287 156.607538163662 L 185.39903127315 158.0174715816975 L 186.31222571759 156.607538163662 L 187.22542016204 156.607538163662 L 188.13861460648 156.607538163662 L 189.05180905093 156.607538163662 L 189.96500349537 156.607538163662 L 190.87819793981 156.607538163662 L 191.79139238426 158.0174715816975 L 192.7045868287 156.607538163662 L 193.61778127315 156.607538163662 L 194.53097571759 155.2143894135952 L 195.44417016204 153.80445599556 L 196.35736460648 152.411307245493 L 197.27055905093 151.018158495426 L 198.18375349537 149.608225077391 L 199.09694793981 149.608225077391 L 200.01014238426 149.608225077391 L 200.9233368287 148.215076327324 L 201.83653127315 146.821927577257 L 202.74972571759 146.821927577257 L 203.66292016204 146.821927577257 L 204.57611460648 146.821927577257 L 205.48930905093 145.411994159222 L 205.48930905167 145.411994159222 L 206.40250349537 145.411994159222 L 207.31569793981 145.411994159222 L 208.22889238426 145.411994159222 L 209.1420868287 145.411994159222 L 210.05528127315 144.018845409155 L 210.96847571759 144.018845409155 L 211.88167016204 144.018845409155 L 212.79486460648 142.608911991119 L 213.70805905093 142.608911991119 L 214.62125349537 142.608911991119 L 215.53444793981 144.018845409155 L 216.44764238426 144.018845409155 L 217.3608368287 144.018845409155 L 218.27403127315 144.018845409155 L 219.18722571759 144.018845409155 L 220.10042016204 142.608911991119 L 221.01361460648 144.018845409155 L 221.92680905093 144.018845409155 L 222.84000349537 144.018845409155 L 223.75319793981 144.018845409155 L 224.66639238426 144.018845409155 L 225.5795868287 142.608911991119 L 226.49278127315 142.608911991119 L 227.40597571759 142.608911991119 L 228.31917016204 142.608911991119 L 229.23236460648 142.608911991119 L 230.14555905093 142.608911991119 L 231.05875349537 142.608911991119 L 231.97194793981 142.608911991119 L 232.88514238426 144.018845409155 L 233.7983368287 144.018845409155 L 234.71153127315 142.608911991119 L 235.62472571759 144.018845409155 L 236.53792016204 142.608911991119 L 237.45111460648 142.608911991119 L 238.36430905093 142.608911991119 L 239.27750349537 144.018845409155 L 240.19069793981 144.018845409155 L 241.10389238426 144.018845409155 L 242.0170868287 144.018845409155 L 242.93028127315 144.018845409155 L 243.84347571759 144.018845409155 L 244.75667016204 144.018845409155 L 245.66986460648 144.018845409155 L 246.58305905093 144.018845409155 L 247.49625349537 144.018845409155 L 248.40944793981 144.018845409155 L 249.32264238426 144.018845409155 L 250.2358368287 144.018845409155 L 251.14903127315 144.018845409155 L 252.06222571759 144.018845409155 L 252.97542016204 144.018845409155 L 253.88861460648 144.018845409155 L 254.80180905093 144.018845409155 L 255.71500349537 144.018845409155 L 256.62819793981 144.018845409155 L 257.54139238426 144.018845409155 L 258.4545868287 144.018845409155 L 259.36778127315 144.018845409155 L 260.28097571759 144.018845409155 L 261.19417016204 144.018845409155 L 262.10736460648 144.018845409155 L 263.02055905093 144.018845409155 L 263.93375349537 144.018845409155 L 264.84694793981 144.018845409155 L 265.76014238426 144.018845409155 L 266.6733368287 144.018845409155 L 267.58653127315 144.018845409155 L 268.49972571759 144.018845409155 L 269.41292016204 144.018845409155 L 270.32611460648 144.018845409155 L 271.23930905093 144.018845409155 L 272.15250349537 144.018845409155 L 273.06569793981 144.018845409155 L 273.97889238426 145.411994159222 L 274.8920868287 144.018845409155 L 275.80528127315 144.018845409155 L 276.71847571759 144.018845409155 L 277.63167016204 144.018845409155 L 278.54486460648 144.018845409155 L 279.45805905093 144.018845409155 L 280.37125349537 144.018845409155 L 281.28444793981 144.018845409155 L 282.19764238426 144.018845409155 L 283.1108368287 144.018845409155 L 284.02403127315 144.018845409155 L 284.93722571759 144.018845409155 L 285.85042016204 144.018845409155 L 286.76361460648 144.018845409155 L 287.67680905093 142.608911991119 L 288.59000349537 142.608911991119 L 289.50319793981 146.821927577257 L 290.41639238426 148.215076327324 L 291.3295868287 149.608225077391 L 292.24278127315 151.018158495426 L 293.15597571759 152.411307245493 L 294.06917016204 152.411307245493 L 294.98236460648 152.411307245493 L 295.89555905093 153.80445599556 L 296.80875349537 153.80445599556 L 297.72194793981 153.80445599556 L 298.63514238426 153.80445599556 L 299.5483368287 155.2143894135952 L 300.46153127315 155.2143894135952 L 301.37472571759 155.2143894135952 L 302.28792016204 155.2143894135952 L 303.20111460648 155.2143894135952 L 304.11430905093 155.2143894135952 L 305.02750349537 155.2143894135952 L 305.94069793981 155.2143894135952 L 306.85389238426 156.607538163662 L 307.7670868287 156.607538163662 L 308.68028127315 155.2143894135952 L 309.59347571759 156.607538163662 L 310.50667016204 156.607538163662 L 311.41986460648 156.607538163662 L 312.33305905093 156.607538163662 L 313.24625349537 156.607538163662 L 314.15944793981 156.607538163662 L 315.07264238426 156.607538163662 L 315.9858368287 156.607538163662 L 316.89903127315 156.607538163662 L 317.81222571759 156.607538163662 L 318.72542016204 156.607538163662 L 319.63861460648 156.607538163662 L 320.55180905093 156.607538163662 L 321.46500349537 156.607538163662 L 322.37819793981 156.607538163662 L 323.29139238426 156.607538163662 L 324.2045868287 158.0174715816975 L 325.11778127315 156.607538163662 L 326.03097571759 156.607538163662 L 326.94417016204 158.0174715816975 L 327.85736460648 158.0174715816975 L 328.77055905093 158.0174715816975 L 329.68375349537 158.0174715816975 L 330.59694793981 158.0174715816975 L 331.51014238426 158.0174715816975 L 332.4233368287 158.0174715816975 L 333.33653127315 158.0174715816975 L 334.24972571759 158.0174715816975 L 335.16292016204 158.0174715816975 L 336.07611460648 158.0174715816975 L 336.98930905093 158.0174715816975 L 337.90250349537 158.0174715816975 L 338.81569793981 158.0174715816975 L 339.72889238426 158.0174715816975 L 340.6420868287 158.0174715816975 L 341.55528127315 158.0174715816975 L 342.46847571759 158.0174715816975 L 343.38167016204 158.0174715816975 L 344.29486460648 158.0174715816975 L 345.20805905093 158.0174715816975 L 346.12125349537 158.0174715816975 L 347.03444793981 152.411307245493 L 347.94764238426 144.018845409155 L 348.8608368287 141.215763241053 L 349.77403127315 137.019532322884 L 350.68722571759 132.823299765587 L 351.60042016204 132.823299765587 L 352.51361460648 132.823299765587 L 353.42680905093 131.430152654648 L 354.34000349537 132.823299765587 L 355.25319793981 120.217823982239 L 356.16639238426 118.824673593044 L 357.0795868287 120.217823982239 L 357.99278127315 120.217823982239 L 358.90597571759 120.217823982239 L 359.81917016204 120.217823982239 L 360.73236460648 121.627755761147 L 361.64555905093 121.627755761147 L 362.55875349537 121.627755761147 L 363.47194793981 123.020906150341 L 364.38514238426 123.020906150341 L 365.2983368287 121.627755761147 L 366.21153127315 123.020906150341 L 367.12472571759 123.020906150341 L 368.03792016204 134.216450154781 L 368.95111460648 127.217135429382 L 369.86430905093 120.217823982239 L 370.77750349537 120.217823982239 L 371.69069793981 120.217823982239 L 372.60389238426 120.217823982239 L 373.5170868287 118.824673593044 L 374.43028127315 118.824673593044 L 375.34347571759 118.824673593044 L 376.25667016204 118.824673593044 L 377.16986460648 118.824673593044 L 378.08305905093 118.824673593044 L 378.99625349537 118.824673593044 L 379.90944793981 117.431526482105 L 380.82264238426 117.431526482105 L 381.7358368287 116.021591424942 L 382.64903127315 116.021591424942 L 383.56222571759 114.62844431400299 L 384.47542016204 114.62844431400299 L 385.38861460648 114.62844431400299 L 386.30180905093 113.21850925684001 L 387.21500349537 113.21850925684001 L 388.12819793981 113.21850925684001 L 389.04139238426 111.82535886764501 L 389.9545868287 110.43221175670601 L 390.86778127315 110.43221175670601 L 391.78097571759 109.02227997779801 L 392.69417016204 107.629126310349 L 393.60736460648 106.235979199409 L 394.52055905093 106.235979199409 L 395.43375349537 104.826047420502 L 396.34694793981 104.826047420502 L 397.26014238426 103.432900309563 L 398.1733368287 102.02296197414401 L 399.08653127315 100.629814863205 L 399.99972571759 100.629814863205 L 400.91292016204 99.236667752266 L 401.82611460648 97.843520641327 L 402.73930905093 96.433582305908 L 403.65250349537 95.040435194969 L 404.56569793981 141.215763241053 L 405.47889238426 145.411994159222 L 406.3920868287 146.821927577257 L 407.30528127315 146.821927577257 L 408.21847571759 148.215076327324 L 409.13167016204 148.215076327324 L 410.04486460648 148.215076327324 L 410.95805905093 149.608225077391 L 411.87125349537 149.608225077391 L 412.78444793981 149.608225077391 L 413.69764238426 149.608225077391 L 414.6108368287 149.608225077391 L 415.52403127315 149.608225077391 L 416.43722571759 149.608225077391 L 417.35042016204 151.018158495426 L 418.26361460648 151.018158495426 L 419.17680905093 151.018158495426 L 420.09000349537 151.018158495426 L 421.00319793981 151.018158495426 L 421.91639238426 151.018158495426 L 422.8295868287 151.018158495426 L 423.74278127315 151.018158495426 L 424.65597571759 151.018158495426 L 425.56917016204 151.018158495426 L 426.48236460648 151.018158495426 L 427.39555905093 151.018158495426 L 428.30875349537 151.018158495426 L 429.22194793981 151.018158495426 L 430.13514238426 151.018158495426 L 431.0483368287 151.018158495426 L 431.96153127315 151.018158495426 L 432.87472571759 151.018158495426 L 433.78792016204 151.018158495426 L 434.70111460648 151.018158495426 L 435.61430905093 149.608225077391 L 436.52750349537 151.018158495426 L 437.44069793981 149.608225077391 L 438.35389238426 149.608225077391 L 439.2670868287 149.608225077391 L 440.18028127315 149.608225077391 L 441.09347571759 149.608225077391 L 442.00667016204 149.608225077391 L 442.91986460648 149.608225077391 L 443.83305905093 149.608225077391 L 444.74625349537 149.608225077391 L 445.65944793981 149.608225077391 L 446.57264238426 149.608225077391 L 447.4858368287 149.608225077391 L 448.39903127315 149.608225077391 L 449.31222571759 149.608225077391 L 450.22542016204 149.608225077391 L 451.13861460648 149.608225077391 L 452.05180905093 148.215076327324 L 452.96500349537 149.608225077391 L 453.87819793981 148.215076327324 L 454.79139238426 148.215076327324 L 455.7045868287 148.215076327324 L 456.61778127315 148.215076327324 L 457.53097571759 148.215076327324 L 458.44417016204 148.215076327324 L 459.35736460648 148.215076327324 L 460.27055905093 148.215076327324 L 461.18375349537 148.215076327324 L 462.09694793981 148.215076327324 L 463.01014238426 148.215076327324 L 463.9233368287 148.215076327324 L 464.83653127315 148.215076327324 L 465.74972571759 148.215076327324 L 466.66292016204 148.215076327324 L 467.57611460648 148.215076327324 L 468.48930905093 148.215076327324" class="highcharts-graph" data-z-index="1" stroke="#f7a35c" stroke-width="2" stroke-linejoin="round" stroke-linecap="round"></path></g><g class="highcharts-markers highcharts-series-3 highcharts-line-series highcharts-color-3" data-z-index="0.1" opacity="1" transform="translate(64,45) scale(1 1)" clip-path="none"></g><g class="highcharts-series highcharts-series-4 highcharts-line-series highcharts-color-4" data-z-index="0.1" opacity="1" transform="translate(64,45) scale(1 1)" clip-path="url(#highcharts-xzqnfh3-11028-)"><path fill="none" d="M 2.7601423842593 95.040435194969 L 8.2393090509259 92.237356305122 L 13.718475717593 88.041123747826 L 19.197642384259 83.844891190529 L 24.676809050926 79.631873965263 L 30.155975717593 79.631873965263 L 35.635142384259 76.845579743385 L 41.114309050926 72.63256251812 L 46.593475717593 71.239415407181 L 52.072642384259 71.239415407181 L 57.551809050926 69.846268296242 L 63.030975717593 68.436329960823 L 68.510142384259 64.24010396004 L 73.989309050926 67.043182849884 L 79.468475717593 64.24010396004 L 84.947642384259 62.846950292589995 L 90.426809050926 65.650035738945 L 95.905975717593 67.043182849884 L 101.38514238426 67.043182849884 L 106.86430905093 67.043182849884 L 112.34347571759 62.846950292589995 L 117.82264238426 62.846950292589995 L 123.30180905093 58.65071773529 L 128.78097571759 163.6068512499332 L 134.26014238426 165 L 139.73930905093 165 L 145.21847571759 165 L 150.69764238426 165 L 156.17680905093 165 L 161.65597571759 165 L 167.13514238426 165 L 172.61430905093 165 L 178.09347571759 165 L 183.57264238426 165 L 189.05180905093 165 L 194.53097571759 165 L 200.01014238426 165 L 205.48930905093 145.411994159222 L 210.96847571759 138.412679433823 L 216.44764238426 127.217135429382 L 221.92680905093 130.020217597485 L 227.40597571759 120.217823982239 L 232.88514238426 120.217823982239 L 238.36430905093 121.627755761147 L 243.84347571759 121.627755761147 L 249.32264238426 123.020906150341 L 254.80180905093 130.020217597485 L 260.28097571759 125.823988318443 L 265.76014238426 114.62844431400299 L 271.23930905093 114.62844431400299 L 276.71847571759 116.021591424942 L 282.19764238426 106.235979199409 L 287.67680905093 103.432900309563 L 293.15597571759 162.21370249986649 L 298.63514238426 165 L 304.11430905093 162.21370249986649 L 309.59347571759 139.82261449098598 L 315.07264238426 123.020906150341 L 320.55180905093 114.62844431400299 L 326.03097571759 104.826047420502 L 331.51014238426 97.843520641327 L 336.98930905093 95.040435194969 L 342.46847571759 90.827417969704 L 347.94764238426 90.827417969704 L 353.42680905093 88.041123747826 L 358.90597571759 90.827417969704 L 364.38514238426 89.434270858765 L 369.86430905093 85.238038301468 L 375.34347571759 86.631191968918 L 380.82264238426 81.041812300682 L 386.30180905093 137.019532322884 L 391.78097571759 165 L 397.26014238426 165 L 402.73930905093 165 L 408.21847571759 165 L 413.69764238426 165 L 419.17680905093 165 L 424.65597571759 165 L 430.13514238426 165 L 435.61430905093 165 L 441.09347571759 165 L 446.57264238426 165 L 452.05180905093 165 L 457.53097571759 165 L 463.01014238426 165 L 468.48930905093 137.019532322884" class="highcharts-graph" data-z-index="1" stroke="#8085e9" stroke-width="2" stroke-linejoin="round" stroke-linecap="round"></path></g><g class="highcharts-markers highcharts-series-4 highcharts-line-series highcharts-color-4" data-z-index="0.1" opacity="1" transform="translate(64,45) scale(1 1)" clip-path="none"></g><g class="highcharts-series highcharts-series-5 highcharts-line-series highcharts-color-5" data-z-index="0.1" opacity="1" transform="translate(64,45) scale(1 1)" clip-path="url(#highcharts-xzqnfh3-11028-)"><path fill="none" d="M 0.93375349537037 165 L 2.7601423842593 165 L 4.5865312731481 165 L 6.412920162037 165 L 8.2393090509259 165 L 10.065697939815 165 L 11.892086828704 165 L 13.718475717593 165 L 15.544864606481 165 L 17.37125349537 165 L 19.197642384259 165 L 21.024031273148 165 L 22.850420162037 165 L 24.676809050926 165 L 26.503197939815 165 L 28.329586828704 165 L 30.155975717593 165 L 31.982364606481 165 L 33.80875349537 165 L 35.635142384259 165 L 37.461531273148 165 L 39.287920162037 165 L 41.114309050926 165 L 42.940697939815 165 L 44.767086828704 165 L 46.593475717593 165 L 48.419864606481 165 L 50.24625349537 165 L 52.072642384259 165 L 53.899031273148 165 L 55.725420162037 162.21370249986649 L 57.551809050926 156.607538163662 L 59.378197939815 156.607538163662 L 61.204586828704 155.2143894135952 L 63.030975717593 153.80445599556 L 64.857364606481 155.2143894135952 L 66.68375349537 153.80445599556 L 68.510142384259 152.411307245493 L 70.336531273148 151.018158495426 L 72.162920162037 152.411307245493 L 73.989309050926 149.608225077391 L 75.815697939815 148.215076327324 L 77.642086828704 146.821927577257 L 79.468475717593 145.411994159222 L 81.294864606481 144.018845409155 L 83.12125349537 142.608911991119 L 84.947642384259 141.215763241053 L 86.774031273148 139.82261449098598 L 88.600420162037 137.019532322884 L 90.426809050926 135.626381933689 L 92.253197939815 134.216450154781 L 94.079586828704 132.823299765587 L 95.905975717593 165 L 97.732364606481 165 L 99.55875349537 165 L 101.38514238426 165 L 103.21153127315 165 L 105.03792016204 165 L 106.86430905093 165 L 108.69069793981 165 L 110.5170868287 165 L 112.34347571759 165 L 114.16986460648 165 L 115.99625349537 165 L 117.82264238426 165 L 119.64903127315 165 L 121.47542016204 165 L 123.30180905093 165 L 125.12819793981 165 L 126.9545868287 165 L 128.78097571759 165 L 130.60736460648 165 L 132.43375349537 165 L 134.26014238426 165 L 136.08653127315 165 L 137.91292016204 165 L 139.73930905093 165 L 141.56569793981 165 L 143.3920868287 165 L 145.21847571759 165 L 147.04486460648 165 L 148.87125349537 165 L 150.69764238426 165 L 152.52403127315 165 L 154.35042016204 165 L 156.17680905093 165 L 158.00319793981 165 L 159.8295868287 165 L 161.65597571759 165 L 163.48236460648 165 L 165.30875349537 165 L 167.13514238426 165 L 168.96153127315 165 L 170.78792016204 165 L 172.61430905093 165 L 174.44069793981 165 L 176.2670868287 165 L 178.09347571759 165 L 179.91986460648 165 L 181.74625349537 165 L 183.57264238426 165 L 185.39903127315 165 L 187.22542016204 165 L 189.05180905093 165 L 190.87819793981 165 L 192.7045868287 165 L 194.53097571759 165 L 196.35736460648 165 L 198.18375349537 165 L 200.01014238426 165 L 201.83653127315 165 L 203.66292016204 165 L 205.48930905093 165 L 205.48930905167 165 L 207.31569793981 165 L 209.1420868287 165 L 210.96847571759 165 L 212.79486460648 165 L 214.62125349537 165 L 216.44764238426 165 L 218.27403127315 165 L 220.10042016204 165 L 221.92680905093 165 L 223.75319793981 165 L 225.5795868287 165 L 227.40597571759 165 L 229.23236460648 165 L 231.05875349537 165 L 232.88514238426 165 L 234.71153127315 165 L 236.53792016204 165 L 238.36430905093 165 L 240.19069793981 165 L 242.0170868287 165 L 243.84347571759 165 L 245.66986460648 165 L 247.49625349537 165 L 249.32264238426 165 L 251.14903127315 165 L 252.97542016204 165 L 254.80180905093 165 L 256.62819793981 165 L 258.4545868287 165 L 260.28097571759 165 L 262.10736460648 165 L 263.93375349537 165 L 265.76014238426 165 L 267.58653127315 165 L 269.41292016204 165 L 271.23930905093 165 L 273.06569793981 165 L 274.8920868287 165 L 276.71847571759 165 L 278.54486460648 165 L 280.37125349537 165 L 282.19764238426 165 L 284.02403127315 165 L 285.85042016204 165 L 287.67680905093 165 L 289.50319793981 165 L 291.3295868287 165 L 293.15597571759 165 L 294.98236460648 165 L 296.80875349537 165 L 298.63514238426 165 L 300.46153127315 165 L 302.28792016204 165 L 304.11430905093 165 L 305.94069793981 165 L 307.7670868287 165 L 309.59347571759 165 L 311.41986460648 165 L 313.24625349537 165 L 315.07264238426 165 L 316.89903127315 165 L 318.72542016204 165 L 320.55180905093 165 L 322.37819793981 165 L 324.2045868287 165 L 326.03097571759 165 L 327.85736460648 165 L 329.68375349537 165 L 331.51014238426 163.6068512499332 L 333.33653127315 162.21370249986649 L 335.16292016204 162.21370249986649 L 336.98930905093 160.803769081831 L 338.81569793981 159.4106203317642 L 340.6420868287 158.0174715816975 L 342.46847571759 158.0174715816975 L 344.29486460648 156.607538163662 L 346.12125349537 153.80445599556 L 347.94764238426 153.80445599556 L 349.77403127315 151.018158495426 L 351.60042016204 148.215076327324 L 353.42680905093 145.411994159222 L 355.25319793981 144.018845409155 L 357.0795868287 142.608911991119 L 358.90597571759 165 L 360.73236460648 165 L 362.55875349537 165 L 364.38514238426 165 L 366.21153127315 165 L 368.03792016204 165 L 369.86430905093 165 L 371.69069793981 165 L 373.5170868287 165 L 375.34347571759 165 L 377.16986460648 165 L 378.99625349537 165 L 380.82264238426 165 L 382.64903127315 165 L 384.47542016204 165 L 386.30180905093 165 L 388.12819793981 165 L 389.9545868287 165 L 391.78097571759 165 L 393.60736460648 165 L 395.43375349537 165 L 397.26014238426 165 L 399.08653127315 165 L 400.91292016204 165 L 402.73930905093 165 L 404.56569793981 165 L 406.3920868287 165 L 408.21847571759 165 L 410.04486460648 165 L 411.87125349537 165 L 413.69764238426 165 L 415.52403127315 165 L 417.35042016204 165 L 419.17680905093 165 L 421.00319793981 165 L 422.8295868287 165 L 424.65597571759 165 L 426.48236460648 165 L 428.30875349537 165 L 430.13514238426 165 L 431.96153127315 165 L 433.78792016204 165 L 435.61430905093 165 L 437.44069793981 165 L 439.2670868287 165 L 441.09347571759 165 L 442.91986460648 165 L 444.74625349537 165 L 446.57264238426 165 L 448.39903127315 165 L 450.22542016204 165 L 452.05180905093 165 L 453.87819793981 165 L 455.7045868287 165 L 457.53097571759 165 L 459.35736460648 165 L 461.18375349537 165 L 463.01014238426 165 L 464.83653127315 165 L 466.66292016204 165 L 468.48930905093 165" class="highcharts-graph" data-z-index="1" stroke="#f15c80" stroke-width="2" stroke-linejoin="round" stroke-linecap="round"></path></g><g class="highcharts-markers highcharts-series-5 highcharts-line-series highcharts-color-5" data-z-index="0.1" opacity="1" transform="translate(64,45) scale(1 1)" clip-path="none"></g><g class="highcharts-series highcharts-series-6 highcharts-line-series highcharts-color-6" data-z-index="0.1" opacity="1" transform="translate(64,45) scale(1 1)" clip-path="url(#highcharts-xzqnfh3-11028-)"><path fill="none" d="M 0.020559050925926 68.436329960823 L 2.7601423842593 68.436329960823 L 5.4997257175926 65.650035738945 L 8.2393090509259 64.24010396004 L 10.978892384259 65.650035738945 L 13.718475717593 103.432900309563 L 16.458059050926 111.82535886764501 L 19.197642384259 111.82535886764501 L 21.937225717593 111.82535886764501 L 24.676809050926 113.21850925684001 L 27.416392384259 111.82535886764501 L 30.155975717593 109.02227997779801 L 32.895559050926 109.02227997779801 L 35.635142384259 107.629126310349 L 38.374725717593 107.629126310349 L 41.114309050926 106.235979199409 L 43.853892384259 104.826047420502 L 46.593475717593 104.826047420502 L 49.333059050926 99.236667752266 L 52.072642384259 159.4106203317642 L 54.812225717593 163.6068512499332 L 57.551809050926 165 L 60.291392384259 165 L 63.030975717593 165 L 65.770559050926 165 L 68.510142384259 165 L 71.249725717593 165 L 73.989309050926 165 L 76.728892384259 165 L 79.468475717593 165 L 82.208059050926 165 L 84.947642384259 165 L 87.687225717593 165 L 90.426809050926 165 L 93.166392384259 165 L 95.905975717593 165 L 98.645559050926 165 L 101.38514238426 165 L 104.12472571759 165 L 106.86430905093 165 L 109.60389238426 165 L 112.34347571759 165 L 115.08305905093 165 L 117.82264238426 163.6068512499332 L 120.56222571759 163.6068512499332 L 123.30180905093 165 L 126.04139238426 165 L 128.78097571759 165 L 131.52055905093 165 L 134.26014238426 163.6068512499332 L 136.99972571759 165 L 139.73930905093 163.6068512499332 L 142.47889238426 165 L 145.21847571759 165 L 147.95805905093 165 L 150.69764238426 163.6068512499332 L 153.43722571759 163.6068512499332 L 156.17680905093 165 L 158.91639238426 165 L 161.65597571759 165 L 164.39555905093 165 L 167.13514238426 165 L 169.87472571759 163.6068512499332 L 172.61430905093 165 L 175.35389238426 165 L 178.09347571759 165 L 180.83305905093 163.6068512499332 L 183.57264238426 165 L 186.31222571759 165 L 189.05180905093 165 L 191.79139238426 163.6068512499332 L 194.53097571759 165 L 197.27055905093 165 L 200.01014238426 163.6068512499332 L 202.74972571759 165 L 205.48930905093 165 L 205.48930905167 165 L 208.22889238426 165 L 210.96847571759 165 L 213.70805905093 163.6068512499332 L 216.44764238426 163.6068512499332 L 219.18722571759 165 L 221.92680905093 165 L 224.66639238426 165 L 227.40597571759 153.80445599556 L 230.14555905093 118.824673593044 L 232.88514238426 89.434270858765 L 235.62472571759 86.631191968918 L 238.36430905093 82.434959411621 L 241.10389238426 76.845579743385 L 243.84347571759 74.042494297028 L 246.58305905093 69.846268296242 L 249.32264238426 65.650035738945 L 252.06222571759 62.846950292589995 L 254.80180905093 58.65071773529 L 257.54139238426 55.84763884544 L 260.28097571759 54.454485177989994 L 263.02055905093 53.04455995559999 L 265.76014238426 53.04455995559999 L 268.49972571759 51.65140628815 L 271.23930905093 48.8483273983 L 273.97889238426 50.241467952730005 L 276.71847571759 48.8483273983 L 279.45805905093 46.06203317642 L 282.19764238426 85.238038301468 L 284.93722571759 95.040435194969 L 287.67680905093 95.040435194969 L 290.41639238426 93.630503416061 L 293.15597571759 95.040435194969 L 295.89555905093 93.630503416061 L 298.63514238426 158.0174715816975 L 301.37472571759 163.6068512499332 L 304.11430905093 165 L 306.85389238426 165 L 309.59347571759 165 L 312.33305905093 165 L 315.07264238426 165 L 317.81222571759 165 L 320.55180905093 165 L 323.29139238426 165 L 326.03097571759 165 L 328.77055905093 165 L 331.51014238426 165 L 334.24972571759 165 L 336.98930905093 165 L 339.72889238426 165 L 342.46847571759 165 L 345.20805905093 165 L 347.94764238426 165 L 350.68722571759 165 L 353.42680905093 165 L 356.16639238426 165 L 358.90597571759 165 L 361.64555905093 165 L 364.38514238426 165 L 367.12472571759 165 L 369.86430905093 165 L 372.60389238426 165 L 375.34347571759 165 L 378.08305905093 165 L 380.82264238426 165 L 383.56222571759 165 L 386.30180905093 165 L 389.04139238426 165 L 391.78097571759 165 L 394.52055905093 165 L 397.26014238426 165 L 399.99972571759 165 L 402.73930905093 165 L 405.47889238426 165 L 408.21847571759 163.6068512499332 L 410.95805905093 163.6068512499332 L 413.69764238426 165 L 416.43722571759 165 L 419.17680905093 165 L 421.91639238426 163.6068512499332 L 424.65597571759 165 L 427.39555905093 165 L 430.13514238426 165 L 432.87472571759 165 L 435.61430905093 165 L 438.35389238426 165 L 441.09347571759 165 L 443.83305905093 165 L 446.57264238426 165 L 449.31222571759 163.6068512499332 L 452.05180905093 165 L 454.79139238426 165 L 457.53097571759 165 L 460.27055905093 165 L 463.01014238426 165 L 465.74972571759 165 L 468.48930905093 165" class="highcharts-graph" data-z-index="1" stroke="#e4d354" stroke-width="2" stroke-linejoin="round" stroke-linecap="round"></path></g><g class="highcharts-markers highcharts-series-6 highcharts-line-series highcharts-color-6" data-z-index="0.1" opacity="1" transform="translate(64,45) scale(1 1)" clip-path="none"></g></g><text x="300" text-anchor="middle" class="highcharts-title" data-z-index="4" style="color: rgb(51, 51, 51); font-size: 18px; fill: rgb(51, 51, 51);" y="24">Gr치fico de sectorizaci칩n Benito Ju치rez</text><text x="300" text-anchor="middle" class="highcharts-subtitle" data-z-index="4" style="color: rgb(102, 102, 102); fill: rgb(102, 102, 102);" y="44"></text><text x="10" text-anchor="start" class="highcharts-caption" data-z-index="4" style="color: rgb(102, 102, 102); fill: rgb(102, 102, 102);" y="397"></text><g class="highcharts-legend highcharts-no-tooltip" data-z-index="7" transform="translate(108,269)"><rect fill="none" class="highcharts-legend-box" rx="0" ry="0" x="0" y="0" width="384" height="116"></rect><g data-z-index="1"><g><g class="highcharts-legend-item highcharts-line-series highcharts-color-0 highcharts-series-0" data-z-index="1" transform="translate(8,3)"><path fill="none" d="M 0 11 L 16 11" class="highcharts-graph" stroke="#7cb5ec" stroke-width="2"></path><text x="21" text-anchor="start" data-z-index="2" y="15" style="color: rgb(51, 51, 51); cursor: pointer; font-size: 12px; font-weight: bold; fill: rgb(51, 51, 51);">002. SM 65, Av Jos칠 L칩pez Portillo con Calle 55 Nte</text></g><g class="highcharts-legend-item highcharts-line-series highcharts-color-1 highcharts-series-1" data-z-index="1" transform="translate(8,18)"><path fill="none" d="M 0 11 L 16 11" class="highcharts-graph" stroke="#434348" stroke-width="2"></path><text x="21" y="15" text-anchor="start" data-z-index="2" style="color: rgb(51, 51, 51); cursor: pointer; font-size: 12px; font-weight: bold; fill: rgb(51, 51, 51);">009. Condominios Canc칰n, Calle 60 con Calle 43</text></g><g class="highcharts-legend-item highcharts-line-series highcharts-color-2 highcharts-series-2" data-z-index="1" transform="translate(8,33)"><path fill="none" d="M 0 11 L 16 11" class="highcharts-graph" stroke="#90ed7d" stroke-width="2"></path><text x="21" y="15" text-anchor="start" data-z-index="2" style="color: rgb(51, 51, 51); cursor: pointer; font-size: 12px; font-weight: bold; fill: rgb(51, 51, 51);">011. Azul Bonampak, Av Muyil con Calle Pet칠n</text></g><g class="highcharts-legend-item highcharts-line-series highcharts-color-3 highcharts-series-3" data-z-index="1" transform="translate(8,48)"><path fill="none" d="M 0 11 L 16 11" class="highcharts-graph" stroke="#f7a35c" stroke-width="2"></path><text x="21" y="15" text-anchor="start" data-z-index="2" style="color: rgb(51, 51, 51); cursor: pointer; font-size: 12px; font-weight: bold; fill: rgb(51, 51, 51);">013. Izamal Residencial, Calle Flamingo con Cerrada Yucat치n</text></g><g class="highcharts-legend-item highcharts-line-series highcharts-color-4 highcharts-series-4" data-z-index="1" transform="translate(8,63)"><path fill="none" d="M 0 11 L 16 11" class="highcharts-graph" stroke="#8085e9" stroke-width="2"></path><text x="21" y="15" text-anchor="start" data-z-index="2" style="color: rgb(51, 51, 51); cursor: pointer; font-size: 12px; font-weight: bold; fill: rgb(51, 51, 51);">014. SM 307, Av de los Colegios con Avenida Huayac치n</text></g><g class="highcharts-legend-item highcharts-line-series highcharts-color-5 highcharts-series-5" data-z-index="1" transform="translate(8,78)"><path fill="none" d="M 0 11 L 16 11" class="highcharts-graph" stroke="#f15c80" stroke-width="2"></path><text x="21" y="15" text-anchor="start" data-z-index="2" style="color: rgb(51, 51, 51); cursor: pointer; font-size: 12px; font-weight: bold; fill: rgb(51, 51, 51);">015. SM 237, Calle 41 con Calle 150</text></g><g class="highcharts-legend-item highcharts-line-series highcharts-color-6 highcharts-series-6" data-z-index="1" transform="translate(8,93)"><path fill="none" d="M 0 11 L 16 11" class="highcharts-graph" stroke="#e4d354" stroke-width="2"></path><text x="21" y="15" text-anchor="start" data-z-index="2" style="color: rgb(51, 51, 51); cursor: pointer; font-size: 12px; font-weight: bold; fill: rgb(51, 51, 51);">016. SM 233, Calle 84 con Calle 19 Nte</text></g></g></g></g><g class="highcharts-axis-labels highcharts-xaxis-labels" data-z-index="7"><text x="74.83203391527667" text-anchor="middle" transform="translate(0,0) rotate(-45 74.83203391527667 226)" y="226" opacity="1" style="color: rgb(102, 102, 102); cursor: default; font-size: 11px; fill: rgb(102, 102, 102);">12:00:00</text><text x="107.70703391528068" text-anchor="middle" transform="translate(0,0) rotate(-45 107.70703391528068 226)" y="226" opacity="1" style="color: rgb(102, 102, 102); cursor: default; font-size: 11px; fill: rgb(102, 102, 102);">15:00:00</text><text x="140.58203391528068" text-anchor="middle" transform="translate(0,0) rotate(-45 140.58203391528068 226)" y="226" opacity="1" style="color: rgb(102, 102, 102); cursor: default; font-size: 11px; fill: rgb(102, 102, 102);">18:00:00</text><text x="173.45703391528068" text-anchor="middle" transform="translate(0,0) rotate(-45 173.45703391528068 226)" y="226" opacity="1" style="color: rgb(102, 102, 102); cursor: default; font-size: 11px; fill: rgb(102, 102, 102);">21:00:00</text><text x="206.33203391528068" text-anchor="middle" transform="translate(0,0) rotate(-45 206.33203391528068 226)" y="226" opacity="1" style="color: rgb(102, 102, 102); cursor: default; font-size: 11px; fill: rgb(102, 102, 102);">00:00:00</text><text x="239.20703391528068" text-anchor="middle" transform="translate(0,0) rotate(-45 239.20703391528068 226)" y="226" opacity="1" style="color: rgb(102, 102, 102); cursor: default; font-size: 11px; fill: rgb(102, 102, 102);">03:00:00</text><text x="272.08203391528065" text-anchor="middle" transform="translate(0,0) rotate(-45 272.08203391528065 226)" y="226" opacity="1" style="color: rgb(102, 102, 102); cursor: default; font-size: 11px; fill: rgb(102, 102, 102);">06:00:00</text><text x="304.95703391528065" text-anchor="middle" transform="translate(0,0) rotate(-45 304.95703391528065 226)" y="226" opacity="1" style="color: rgb(102, 102, 102); cursor: default; font-size: 11px; fill: rgb(102, 102, 102);">09:00:00</text><text x="337.83203391528065" text-anchor="middle" transform="translate(0,0) rotate(-45 337.83203391528065 226)" y="226" opacity="1" style="color: rgb(102, 102, 102); cursor: default; font-size: 11px; fill: rgb(102, 102, 102);">12:00:00</text><text x="370.70703391528065" text-anchor="middle" transform="translate(0,0) rotate(-45 370.70703391528065 226)" y="226" opacity="1" style="color: rgb(102, 102, 102); cursor: default; font-size: 11px; fill: rgb(102, 102, 102);">15:00:00</text><text x="403.58203391528065" text-anchor="middle" transform="translate(0,0) rotate(-45 403.58203391528065 226)" y="226" opacity="1" style="color: rgb(102, 102, 102); cursor: default; font-size: 11px; fill: rgb(102, 102, 102);">18:00:00</text><text x="436.45703391528065" text-anchor="middle" transform="translate(0,0) rotate(-45 436.45703391528065 226)" y="226" opacity="1" style="color: rgb(102, 102, 102); cursor: default; font-size: 11px; fill: rgb(102, 102, 102);">21:00:00</text><text x="469.33203391528065" text-anchor="middle" transform="translate(0,0) rotate(-45 469.33203391528065 226)" y="226" opacity="1" style="color: rgb(102, 102, 102); cursor: default; font-size: 11px; fill: rgb(102, 102, 102);">00:00:00</text><text x="502.20703391528065" text-anchor="middle" transform="translate(0,0) rotate(-45 502.20703391528065 226)" y="226" opacity="1" style="color: rgb(102, 102, 102); cursor: default; font-size: 11px; fill: rgb(102, 102, 102);">03:00:00</text><text x="535.0820339152807" text-anchor="middle" transform="translate(0,0) rotate(-45 535.0820339152807 226)" y="226" opacity="1" style="color: rgb(102, 102, 102); cursor: default; font-size: 11px; fill: rgb(102, 102, 102);">06:00:00</text><text x="567.9570339152807" text-anchor="middle" transform="translate(0,0) rotate(-45 567.9570339152807 226)" y="226" opacity="1" style="color: rgb(102, 102, 102); cursor: default; font-size: 11px; fill: rgb(102, 102, 102);">09:00:00</text></g><g class="highcharts-axis-labels highcharts-yaxis-labels" data-z-index="7"><text x="41.3515625" text-anchor="middle" transform="translate(0,0)" style="color: rgb(102, 102, 102); cursor: default; font-size: 11px; fill: rgb(102, 102, 102);" y="215" opacity="1">0</text><text x="41.3515625" text-anchor="middle" transform="translate(0,0)" style="color: rgb(102, 102, 102); cursor: default; font-size: 11px; fill: rgb(102, 102, 102);" y="160" opacity="1">0.5</text><text x="41.3515625" text-anchor="middle" transform="translate(0,0)" style="color: rgb(102, 102, 102); cursor: default; font-size: 11px; fill: rgb(102, 102, 102);" y="105" opacity="1">1</text><text x="41.3515625" text-anchor="middle" transform="translate(0,0)" style="color: rgb(102, 102, 102); cursor: default; font-size: 11px; fill: rgb(102, 102, 102);" y="50" opacity="1">1.5</text></g><g class="highcharts-plot-lines-1000" data-z-index="1000"><path fill="none" class="highcharts-plot-line " stroke="#004a80" stroke-width="2" stroke-dasharray="6,2,2,2" d="M 169 45 L 169 210"></path><path fill="none" class="highcharts-plot-line " stroke="#004a80" stroke-width="2" stroke-dasharray="6,2,2,2,2,2" d="M 485 45 L 485 210"></path></g></svg>