<?xml version='1.0' encoding='UTF-8' standalone='no'?>
<svg height="120" version="1.2" width="1280" xmlns="http://www.w3.org/2000/svg" xmlns:atv="http://webmi.atvise.com/2007/svgext" xmlns:xlink="http://www.w3.org/1999/xlink">
 <defs>
  <linearGradient gradientUnits="objectBoundingBox" id="linear_30" x1="1" x2="1" y1="0.0149254" y2="1">
   <stop offset="0" stop-color="#ffffff" stop-opacity="0.392156862745098"/>
   <stop offset="1" stop-color="#ffffff" stop-opacity="0"/>
  </linearGradient>
  <linearGradient gradientUnits="objectBoundingBox" id="linear_37" x1="1" x2="1" y1="0.0149254" y2="1">
   <stop offset="0" stop-color="#ffffff" stop-opacity="0.392156862745098"/>
   <stop offset="1" stop-color="#ffffff" stop-opacity="0"/>
  </linearGradient>
  <linearGradient gradientUnits="objectBoundingBox" id="linear_38" x1="1" x2="1" y1="0.0149254" y2="1">
   <stop offset="0" stop-color="#ffffff" stop-opacity="0.392156862745098"/>
   <stop offset="1" stop-color="#ffffff" stop-opacity="0"/>
  </linearGradient>
 </defs>
 <rect atv:refpx="640" atv:refpy="59" fill="$FILLCOLOR$" height="122" id="id_4" stroke="#575757" stroke-width="2" width="1280" x="0" y="-2"/>
 <desc>Is used as the top frame by default.</desc>
 <title>Topframe Large (1280x120)</title>
 <metadata>
  <atv:parameter behavior="optional" defaultvalue="SYSTEM.LIBRARY.ATVISE.OBJECTDISPLAYS.Advanced.dialogs.message_dialog" desc="message dialog" name="message_dialog" valuetype="display"/>
  <atv:parameter behavior="optional" defaultvalue="SYSTEM.LIBRARY.ATVISE.OBJECTDISPLAYS.Advanced.dialogs.message_dialog_small" desc="small message dialog" name="message_dialog_small" valuetype="display"/>
  <atv:parameter behavior="optional" defaultvalue="SYSTEM.LIBRARY.ATVISE.OBJECTDISPLAYS.Advanced.dialogs.user_editor" desc="user editor dialog" name="user_dialog" valuetype="display"/>
  <atv:parameter behavior="optional" defaultvalue="SYSTEM.LIBRARY.ATVISE.OBJECTDISPLAYS.Advanced.dialogs.pw_editor" desc="password editor dialog" name="password_dialog" valuetype="display"/>
  <atv:parameter behavior="optional" defaultvalue="SYSTEM.GLOBALS.atvFontColor" desc="font color" group="Appearance" name="fontColor" substitute="$FONTCOLOR$" valuetype="global"/>
  <atv:parameter behavior="optional" defaultvalue="SYSTEM.GLOBALS.atvFillColor" desc="background color" group="Appearance" name="fillColor" substitute="$FILLCOLOR$" valuetype="global"/>
  <atv:parameter behavior="optional" defaultvalue="0" desc="min alarm priority" group="Alarm" name="minAlarmPriority" valuetype="number"/>
  <atv:parameter behavior="optional" defaultvalue="0" desc="max alarm priority" group="Alarm" name="maxAlarmPriority" valuetype="number"/>
  <atv:parameter behavior="optional" defaultvalue="SYSTEM.LIBRARY.ATVISE.OBJECTDISPLAYS.Advanced.redundancy.warning_dialog" group="Notifications" desc="redundancy warning dialog" name="redundancy_warning_dialog" valuetype="display"/>
  <atv:parameter behavior="optional" defaultvalue="SYSTEM.LIBRARY.ATVISE.OBJECTDISPLAYS.Advanced.dialogs.message_dialog" group="Notifications" desc="redundancy connection dialog" name="redundancy_connection_dialog" valuetype="display"/>
  <atv:parameter behavior="optional" defaultvalue="true" group="Notifications" desc="show SOP notification" name="show_sop_change" valuetype="bool"/>
  <atv:parameter behavior="optional" defaultvalue="true" group="Notifications" desc="show connection notification" name="show_con_change" valuetype="bool"/>
  <atv:gridconfig enabled="false" gridstyle="lines" height="10" width="10"/>
  <atv:snapconfig enabled="true" height="2" width="2"/>
 </metadata>
 <path atv:refpx="355.987" atv:refpy="59.436" d="M0,0" fill="#000088" id="id_33" stroke="#0000ff" stroke-width="2"/>
 <svg atv:refpx="771.998" atv:refpy="95.935" height="30" id="id_29" transform="matrix(0.525,0,0,1.4,0,0)" width="80" x="1430.476" xlink:href="SYSTEM.LIBRARY.ATVISE.OBJECTDISPLAYS.Advanced.button_open_display" y="52.857">
  <atv:argument name="display" value="SYSTEM.LIBRARY.ATVISE.OBJECTDISPLAYS.Advanced.hmi.historylist"/>
  <atv:argument name="symbol" value="SYSTEM.LIBRARY.ATVISE.OBJECTDISPLAYS.Symbols.20x20.history"/>
  <atv:argument name="symbolPressed" value="SYSTEM.LIBRARY.ATVISE.OBJECTDISPLAYS.Symbols.20x20.history"/>
  <atv:argument name="visibilityLabel" value="hidden"/>
  <atv:argument name="visibilitySymbol" value="inherit"/>
  <atv:argument name="tabIndex" value="-999999"/>
  <atv:overwrite id="button_symbol_pressed" transform="matrix(1.7778,0,0,0.6667,0,0)" x="12.5" y="12.5"/>
  <atv:overwrite height="39.5" id="id_2" transform="matrix(1.7778,0,0,0.6667,0,0)" width="39.5"/>
  <atv:overwrite height="44.5" id="id_0" transform="matrix(1.7778,0,0,0.6667,0,0)" width="44.5"/>
  <atv:argument name="borderVisible" value="true"/>
  <atv:overwrite height="42" id="id_1" transform="matrix(1.9048,0,0,0.7143,0,0)" width="42"/>
  <atv:argument name="extraBorderColor" value="#ffffff"/>
  <atv:argument name="smallDisplay" value="SYSTEM.LIBRARY.ATVISE.OBJECTDISPLAYS.Advanced.hmi.historylist_small"/>
  <atv:overwrite height="40" id="id_6" transform="matrix(1.9048,0,0,0.7143,0,0)" width="40"/>
  <atv:overwrite id="button_label" transform="matrix(1.9048,0,0,0.7143,0,0)" x="21" y="25.5"/>
  <atv:overwrite id="button_symbol" transform="matrix(1.9048,0,0,0.7143,0,0)" x="11" y="11"/>
  <atv:overwrite height="38" id="button_stroke" transform="matrix(1.9048,0,0,0.7143,0,0)" width="38"/>
  <atv:overwrite height="40" id="button_bg" transform="matrix(1.9048,0,0,0.7143,0,0)" width="40"/>
 </svg>
 <svg atv:refpx="122" atv:refpy="95.5" height="45" id="id_22" width="168" x="38" xlink:href="SYSTEM.LIBRARY.ATVISE.OBJECTDISPLAYS.Advanced.hmi.button_group_display" y="72">
  <atv:argument name="symbolColor2" value="#ffffff"/>
 </svg>
 <svg atv:refpx="308.613" atv:refpy="88" height="45" id="id_13" width="168" x="255" xlink:href="SYSTEM.LIBRARY.ATVISE.OBJECTDISPLAYS.Advanced.hmi.button_group_zoom" y="72"/>
 <svg atv:refpx="661" atv:refpy="95.5" height="45" id="id_15" width="168" x="579" xlink:href="SYSTEM.LIBRARY.ATVISE.OBJECTDISPLAYS.Advanced.hmi.button_group_alarm" y="72"/>
 <rect atv:refpx="1491.5" atv:refpy="36.5" fill="#ffffff" height="65" id="id_14" rx="6" ry="4" stroke="none" stroke-width="2" width="655" x="582" y="4"/>
 <rect atv:refpx="-659.448" atv:refpy="3.983" fill="url(#linear_30)" height="20.408" id="id_16" rx="6.008" ry="4.082" stroke="none" stroke-width="2" width="653.098" x="582.939" y="4.911"/>
 <svg atv:refpx="905" atv:refpy="44" fill="#ffffff" height="75" id="id_8" width="650" x="580" xlink:href="SYSTEM.LIBRARY.ATVISE.OBJECTDISPLAYS.Advanced.hmi.alarmlog" y="-1">
  <atv:argument name="fill" value="#ff0000"/>
  <atv:argument name="symbolColor" value="SYSTEM.GLOBALS.atvSymbolColor"/>
  <atv:argument name="minAlarmPriority" prefix="minAlarmPriority"/>
  <atv:argument name="maxAlarmPriority" prefix="maxAlarmPriority"/>
 </svg>
 <rect atv:refpx="2098.487" atv:refpy="126.5" fill="#ffffff" height="65" id="id_27" rx="6" ry="6" stroke="none" stroke-width="1.542" width="269" x="258" y="4"/>
 <rect atv:refpx="1479.536" atv:refpy="136.635" fill="url(#linear_37)" height="20.408" id="id_28" rx="6.009" ry="6.123" stroke="none" stroke-width="1.542" width="266.465" x="259.21" y="4.911"/>
 <text atv:refpx="171.561" atv:refpy="-33.5" fill="$FONTCOLOR$" font-family="Arial" font-size="12" font-weight="normal" id="username_label" text-anchor="end" x="507.5" y="48"/>
 <text atv:refpx="-564.436" atv:refpy="-3.5" fill="$FONTCOLOR$" font-family="Arial" font-size="12" font-weight="bold" id="id_20" x="279.5" y="48">T{User}:</text>
 <text atv:refpx="-1122.968" atv:refpy="-9.5" fill="$FONTCOLOR$" font-family="Arial" font-size="12" font-weight="normal" id="time_label" text-anchor="end" x="507.5" y="34">10:56</text>
 <text atv:refpx="293.5" atv:refpy="30.5" fill="$FONTCOLOR$" font-family="Arial" font-size="12" font-weight="bold" id="id_19" x="279.5" y="34">T{Time}:</text>
 <text atv:refpx="-714.182" atv:refpy="-22.5" fill="$FONTCOLOR$" font-family="Arial" font-size="12" font-weight="normal" id="language_label" text-anchor="end" x="507.5" y="62">T{}</text>
 <text atv:refpx="-2056.368" atv:refpy="-51.5" fill="$FONTCOLOR$" font-family="Arial" font-size="12" font-weight="bold" id="id_25" x="279.5" y="62">T{Language}:</text>
 <text atv:refpx="-1413.757" atv:refpy="-8.5" fill="$FONTCOLOR$" font-family="Arial" font-size="12" font-weight="normal" id="date_label" text-anchor="end" x="507.5" y="20">25.02.2011</text>
 <text atv:refpx="292.5" atv:refpy="16.5" fill="$FONTCOLOR$" font-family="Arial" font-size="12" font-weight="bold" id="id_18" x="279.5" y="20">T{Date}:</text>
 <svg atv:refpx="456.5" atv:refpy="95.499" height="30" id="id_11" transform="matrix(1.5,0,0,1.5,0,0)" width="30" x="292.001" xlink:href="SYSTEM.LIBRARY.ATVISE.OBJECTDISPLAYS.Advanced.hmi.button_login" y="48">
  <atv:overwrite id="button_symbol" transform="matrix(0.6667,0,0,0.6667,0,0)" x="12.5" y="12.5"/>
  <atv:overwrite height="37.5" id="button_stroke" transform="matrix(0.6667,0,0,0.6667,0,0)" width="37.5"/>
  <atv:overwrite id="button_symbol_pressed" transform="matrix(0.6667,0,0,0.6667,0,0)" x="12.5" y="12.5"/>
  <atv:overwrite height="37.5" id="button_bg" transform="matrix(0.6667,0,0,0.6667,0,0)" width="37.5"/>
  <atv:overwrite height="39.5" id="id_3" transform="matrix(0.6667,0,0,0.6667,0,0)" width="39.5"/>
  <atv:overwrite height="44.5" id="id_0" transform="matrix(0.6667,0,0,0.6667,0,0)" width="44.5"/>
 </svg>
 <svg atv:refpx="504.5" atv:refpy="95.5" height="45" id="id_12" width="45" x="485" xlink:href="SYSTEM.LIBRARY.ATVISE.OBJECTDISPLAYS.Advanced.hmi.button_switch_language" y="72"/>
 <rect atv:refpx="1136.713" atv:refpy="126.5" fill="#ffffff" height="65" id="id_1" rx="6" ry="6" stroke="none" stroke-width="1.542" width="160" x="42" y="4"/>
 <rect atv:refpx="768.334" atv:refpy="136.635" fill="url(#linear_38)" height="20.408" id="id_5" rx="6.009" ry="6.123" stroke="none" stroke-width="1.542" width="158.436" x="42.747" y="4.911"/>
 <g atv:refpx="123.31" atv:refpy="35.969" id="atvise_logo" transform="matrix(0.6198,0,0,0.6198,77.6812,-2.4818)">
  <svg atv:dynamic="true" atv:refpx="159.452" atv:refpy="49.236" height="80" id="id_17" transform="matrix(0.6904,0,0,0.6904,0,0)" width="80" x="-20.434" xlink:href="SYSTEM.LIBRARY.ATVISE.OBJECTDISPLAYS.Symbols.atvise_logo" y="52.536"/>
  <rect atv:refpx="438.506" atv:refpy="54.003" fill="#000000" fill-opacity="0.0001" height="55.2" id="logo_click" stroke="none" stroke-width="0" width="196.914" x="-23.764" y="36.315"/>
  <svg atv:refpx="144.672" atv:refpy="19.737" height="12.99" id="title" transform="matrix(2.3352,0,0,2.3352,0,0)" width="48.94" x="15.283" xlink:href="SYSTEM.LIBRARY.ATVISE.OBJECTDISPLAYS.Symbols.atvise_R" y="19.158"/>
 </g>
 <g atv:refpx="1168.293" atv:refpy="93.664" id="redu_info" visibility="hidden">
  <g atv:refpx="1141.471" atv:refpy="97.989" id="id_36" transform="matrix(1,0,0,1,-0.9122,-0.4065)">
   <text atv:refpx="1152.563" atv:refpy="85.922" fill="$FONTCOLOR$" font-family="Arial" font-size="8" id="id_31" text-anchor="start" x="1133.387" y="89.235">T{STATUS}:</text>
   <text atv:refpx="1150.063" atv:refpy="100.922" fill="$FONTCOLOR$" font-family="Arial" font-size="14" font-weight="bold" id="redu_status" text-anchor="start" x="1133.387" y="105.235"/>
  </g>
  <text atv:refpx="1101.888" atv:refpy="99.328" fill="$FONTCOLOR$" font-family="Arial" font-size="30" font-weight="bold" id="redu_role" x="1103.16" y="103.828"/>
  <svg atv:refpx="1216.279" atv:refpy="95.934" height="30" id="id_43" transform="matrix(0.525,0,0,1.4,0,0)" width="80" x="2277" xlink:href="SYSTEM.LIBRARY.ATVISE.OBJECTDISPLAYS.Advanced.button_open_display" y="52.857">
   <atv:argument name="display" value="SYSTEM.LIBRARY.ATVISE.OBJECTDISPLAYS.Advanced.redundancy.status"/>
   <atv:argument name="symbol" value="SYSTEM.LIBRARY.ATVISE.OBJECTDISPLAYS.Symbols.20x20.info"/>
   <atv:argument name="symbolPressed" value="SYSTEM.LIBRARY.ATVISE.OBJECTDISPLAYS.Symbols.20x20.info"/>
   <atv:argument name="visibilityLabel" value="hidden"/>
   <atv:argument name="visibilitySymbol" value="inherit"/>
   <atv:argument name="tabIndex" value="-999999"/>
   <atv:overwrite id="button_symbol_pressed" transform="matrix(1.7778,0,0,0.6667,0,0)" x="12.5" y="12.5"/>
   <atv:overwrite height="39.5" id="id_2" transform="matrix(1.7778,0,0,0.6667,0,0)" width="39.5"/>
   <atv:overwrite height="44.5" id="id_0" transform="matrix(1.7778,0,0,0.6667,0,0)" width="44.5"/>
   <atv:argument name="borderVisible" value="true"/>
   <atv:overwrite height="42" id="id_1" transform="matrix(1.9048,0,0,0.7143,0,0)" width="42"/>
   <atv:argument name="extraBorderColor" value="#ffffff"/>
   <atv:overwrite height="40" id="id_6" transform="matrix(1.9048,0,0,0.7143,0,0)" width="40"/>
   <atv:overwrite id="button_label" transform="matrix(1.9048,0,0,0.7143,0,0)" x="21" y="25.5"/>
   <atv:overwrite id="button_symbol" transform="matrix(1.9048,0,0,0.7143,0,0)" x="11" y="11"/>
   <atv:overwrite height="38" id="button_stroke" transform="matrix(1.9048,0,0,0.7143,0,0)" width="38"/>
   <atv:overwrite height="40" id="button_bg" transform="matrix(1.9048,0,0,0.7143,0,0)" width="40"/>
   <atv:overwrite height="42" id="outer_frame" transform="matrix(1.9048,0,0,0.7143,0,0)" width="42"/>
  </svg>
 </g>
 <line atv:refpx="228.5" atv:refpy="62" id="id_9" stroke="#d7d7d7" stroke-width="0.5" x1="228" x2="228" y1="8" y2="116"/>
 <line atv:refpx="552.5" atv:refpy="60" id="id_10" stroke="#d7d7d7" stroke-width="0.5" x1="553" x2="553" y1="7" y2="115"/>
 <script atv:desc="" atv:href="SYSTEM.LIBRARY.ATVISE.DISPLAYSCRIPTS.hmi.top" atv:name="top" atv:type="text/ecmascript"/>
 <script atv:desc="" atv:name="" type="text/ecmascript"/>
</svg>
