<?xml version='1.0' encoding='UTF-8' standalone='no'?>
<svg enable-background="new 0 0 50 50" height="60" id="Ebene_1" version="1.1" width="60" x="0px" xml:space="preserve" y="0px" xmlns="http://www.w3.org/2000/svg" xmlns:atv="http://webmi.atvise.com/2007/svgext" xmlns:xlink="http://www.w3.org/1999/xlink">
 <defs/>
 <metadata>
  <atv:parameter behavior="optional" defaultvalue="#000000" desc="symbol color" name="symbolColor" substitute="$SYMBOLCOLOR$" valuetype="color"/>
  <atv:gridconfig enabled="false" gridstyle="lines" height="20" width="20"/>
  <atv:snapconfig enabled="false" height="10" width="10"/>
 </metadata>
 <polygon atv:refpx="77.955" atv:refpy="33.19" fill="none" id="id_2" points="11.875,2.986 11.875,57.341 48.113,57.341 48.113,15.066 36.034,2.986" stroke="$SYMBOLCOLOR$" stroke-width="2.415"/>
 <polyline atv:refpx="121.526" atv:refpy="10.099" fill="$SYMBOLCOLOR$" id="id_3" points="35.43,4.053 35.43,16.133 47.509,16.133" stroke="none" stroke-width="2.415"/>
 <rect atv:refpx="65.596" atv:refpy="14.683" fill="$SYMBOLCOLOR$" height="1.755" id="id_4" stroke="none" stroke-width="2.422" width="16.429" x="16.063" y="13.806"/>
 <rect atv:refpx="65.6" atv:refpy="9.126" fill="$SYMBOLCOLOR$" height="1.755" id="id_6" stroke="none" stroke-width="2.422" width="16.429" x="16.063" y="8.249"/>
 <rect atv:refpx="29.996" atv:refpy="68.956" fill="$SYMBOLCOLOR$" height="1.755" id="id_7" stroke="none" stroke-width="2.422" width="27.869" x="16.063" y="19.359"/>
 <rect atv:refpx="30" atv:refpy="164.228" fill="$SYMBOLCOLOR$" height="1.755" id="id_8" stroke="none" stroke-width="2.422" width="27.869" x="16.063" y="51.118"/>
 <rect atv:refpx="30" atv:refpy="149.373" fill="$SYMBOLCOLOR$" height="1.755" id="id_9" stroke="none" stroke-width="2.422" width="27.869" x="16.063" y="46.168"/>
 <path atv:refpx="30.002" atv:refpy="33.573" d="M22.435,24.072L26.235,24.072L26.235,31.672L33.764,31.672L33.764,24.072L37.564,24.072L37.564,43.069L33.764,43.069L33.764,35.472L26.235,35.472L26.235,43.069L22.435,43.069Z" fill="$SYMBOLCOLOR$" fill-rule="evenodd" id="id_0" stroke="none" stroke-width="2"/>
 <script atv:desc="" atv:name="" type="text/ecmascript"/>
</svg>
