<?xml version='1.0' encoding='UTF-8' standalone='no'?>
<svg enable-background="new 0 0 50 50" height="20" id="Ebene_1" version="1.1" width="20" x="0px" xml:space="preserve" y="0px" xmlns="http://www.w3.org/2000/svg" xmlns:atv="http://webmi.atvise.com/2007/svgext" xmlns:xlink="http://www.w3.org/1999/xlink">
 <defs/>
 <metadata>
  <atv:parameter behavior="optional" defaultvalue="#000000" desc="symbol color" name="symbolColor" substitute="$SYMBOLCOLOR$" valuetype="color"/>
  <atv:gridconfig enabled="false" gridstyle="lines" height="20" width="20"/>
  <atv:snapconfig enabled="false" height="10" width="10"/>
 </metadata>
 <polygon atv:refpx="23.661" atv:refpy="10.861" fill="none" id="id_22" points="4.837,2.258 4.837,17.741 15.16,17.741 15.16,5.699 11.719,2.258" stroke="$SYMBOLCOLOR$" stroke-width="0.688"/>
 <polyline atv:refpx="36.073" atv:refpy="4.283" fill="$SYMBOLCOLOR$" id="id_25" points="11.547,2.562 11.547,6.003 14.988,6.003" stroke="none" stroke-width="0.688"/>
 <rect atv:refpx="20.14" atv:refpy="5.589" fill="$SYMBOLCOLOR$" height="0.5" id="id_1" stroke="none" stroke-width="0.69" width="4.68" x="6.03" y="5.339"/>
 <rect atv:refpx="20.141" atv:refpy="4.006" fill="$SYMBOLCOLOR$" height="0.5" id="id_0" stroke="none" stroke-width="0.69" width="4.68" x="6.03" y="3.756"/>
 <rect atv:refpx="10" atv:refpy="21.258" fill="$SYMBOLCOLOR$" height="0.5" id="id_2" stroke="none" stroke-width="0.69" width="7.939" x="6.03" y="6.921"/>
 <rect atv:refpx="10" atv:refpy="48.4" fill="$SYMBOLCOLOR$" height="0.5" id="id_3" stroke="none" stroke-width="0.69" width="7.939" x="6.03" y="15.968"/>
 <rect atv:refpx="10" atv:refpy="44.168" fill="$SYMBOLCOLOR$" height="0.5" id="id_4" stroke="none" stroke-width="0.69" width="7.939" x="6.03" y="14.558"/>
 <path atv:refpx="10.004" atv:refpy="10.977" d="M8.013,8.477L9.013,8.477L9.013,10.477L10.995,10.477L10.995,8.477L11.995,8.477L11.995,13.476L10.995,13.476L10.995,11.477L9.013,11.477L9.013,13.476L8.013,13.476Z" fill="$SYMBOLCOLOR$" fill-rule="evenodd" id="id_9" stroke="none" stroke-width="2"/>
 <script atv:desc="" atv:name="" type="text/ecmascript"/>
</svg>
