<?xml version='1.0' encoding='UTF-8' standalone='no'?>
<svg height="300" version="1.2" width="800" xmlns="http://www.w3.org/2000/svg" xmlns:atv="http://webmi.atvise.com/2007/svgext" xmlns:xlink="http://www.w3.org/1999/xlink">
 <defs>
  <linearGradient gradientUnits="objectBoundingBox" id="linear_2" x1="0" x2="0" y1="0" y2="1.07843">
   <stop offset="0" stop-color="#818181"/>
   <stop offset="0.8475336322869955" stop-color="#464646"/>
   <stop offset="0.9372197309417041" stop-color="#000000"/>
  </linearGradient>
 </defs>
 <desc>Used by highcharts configuration dialog.</desc>
 <title>Configuration - Save/Load (Small)</title>
 <metadata>
  <atv:parameter behavior="optional" defaultvalue="SYSTEM.GLOBALS.atvFontColor" desc="font color" group="Appearance" name="fontColor" substitute="$FONTCOLOR$" valuetype="global"/>
  <atv:parameter behavior="optional" defaultvalue="SYSTEM.GLOBALS.atvFillColor" desc="fill color" group="Appearance" name="fillColor" substitute="$FILLCOLOR$" valuetype="global"/>
  <atv:parameter behavior="optional" defaultvalue="SYSTEM.LIBRARY.ATVISE.OBJECTDISPLAYS.Advanced.dialogs.message_dialog" desc="display for message" group="Subdisplay" name="display_message" valuetype="display"/>
  <atv:parameter behavior="optional" config="SYSTEM.SECURITY.RIGHTS" defaultvalue="" desc="necessary right" group="Security: load configuration" name="load_right" valuetype="address"/>
  <atv:parameter behavior="optional" desc="activation address" group="Security: load configuration" name="load_activeNode" valuetype="address"/>
  <atv:parameter behavior="optional" desc="activation value" group="Security: load configuration" name="load_activeValue" valuetype="string"/>
  <atv:parameter behavior="optional" config="SYSTEM.SECURITY.RIGHTS" defaultvalue="" desc="necessary right" group="Security: save configuration" name="save_right" valuetype="address"/>
  <atv:parameter behavior="optional" desc="activation address" group="Security: save configuration" name="save_activeNode" valuetype="address"/>
  <atv:parameter behavior="optional" desc="activation value" group="Security: save configuration" name="save_activeValue" valuetype="string"/>
  <atv:parameter behavior="optional" defaultvalue="false" desc="change compression" group="Security: save configuration" name="save_changecompression" valuetype="bool"/>
  <atv:gridconfig enabled="true" gridstyle="lines" height="20" width="20"/>
  <atv:snapconfig enabled="true" height="5" width="5"/>
 </metadata>
 <svg atv:refpx="670.001" atv:refpy="70" height="30" id="btn_save" width="80" x="651.001" xlink:href="SYSTEM.LIBRARY.ATVISE.OBJECTDISPLAYS.Advanced.button" y="79">
  <atv:argument name="label" value="T{Save}"/>
  <atv:argument name="tabIndex" value="22"/>
  <atv:argument name="right" prefix="save_right"/>
  <atv:argument name="activeNode" prefix="save_activeNode"/>
  <atv:argument name="activeValue" prefix="save_activeValue"/>
 </svg>
 <svg atv:refpx="669" atv:refpy="292" height="30" id="btn_delete" width="80" x="650" xlink:href="SYSTEM.LIBRARY.ATVISE.OBJECTDISPLAYS.Advanced.button" y="175">
  <atv:argument name="label" value="T{Delete}"/>
  <atv:argument name="tabIndex" value="26"/>
  <atv:argument name="right" prefix="save_right"/>
  <atv:argument name="activeNode" prefix="save_activeNode"/>
  <atv:argument name="activeValue" prefix="save_activeValue"/>
 </svg>
 <svg atv:refpx="669" atv:refpy="140" height="30" id="btn_load" width="80" x="650" xlink:href="SYSTEM.LIBRARY.ATVISE.OBJECTDISPLAYS.Advanced.button" y="140">
  <atv:argument name="label" value="T{Load}"/>
  <atv:argument name="tabIndex" value="25"/>
  <atv:argument name="right" prefix="load_right"/>
  <atv:argument name="activeNode" prefix="load_activeNode"/>
  <atv:argument name="activeValue" prefix="load_activeValue"/>
 </svg>
 <text atv:refpx="284" atv:refpy="94.5" fill="$FONTCOLOR$" font-family="Arial" font-size="12" id="id_8" text-anchor="start" x="204.5" y="99">T{Save current configuration?}:
  </text>
 <svg atv:refpx="507.497" atv:refpy="70" height="30" id="save_name" transform="matrix(1.4687,0,0,1,0,0)" width="160" x="279.839" xlink:href="SYSTEM.LIBRARY.ATVISE.OBJECTDISPLAYS.Advanced.in_out_value" y="79">
  <atv:argument name="validation" value="String"/>
  <atv:argument name="tabIndex" value="21"/>
  <atv:argument name="right" prefix="save_right"/>
  <atv:argument name="activeNode" prefix="load_activeNode"/>
  <atv:argument name="activeValue" prefix="load_activeValue" value=""/>
  <atv:overwrite id="id_2" transform="matrix(0.6809,0,0,1,0,0)" width="229.492"/>
  <atv:overwrite id="input_label" transform="matrix(0.6809,0,0,1,0,0)" x="227.047"/>
  <atv:overwrite id="blinking_frame" transform="matrix(0.6809,0,0,1,0,0)" width="226.992"/>
  <atv:overwrite id="focus_frame" transform="matrix(0.6809,0,0,1,0,0)" width="230.992"/>
  <atv:overwrite id="input_bg" transform="matrix(0.6809,0,0,1,0,0)" width="226.992"/>
  <atv:overwrite id="id_1" transform="matrix(0.6809,0,0,1,0,0)" width="232.992"/>
  <atv:overwrite id="id_0" transform="matrix(0.6809,0,0,1,0,0)" width="234.992"/>
 </svg>
 <text atv:refpx="341.5" atv:refpy="127.5" fill="$FONTCOLOR$" font-family="Arial" font-size="12" id="id_11" text-anchor="start" x="204.5" y="132">T{Load or delete existing configuration from node}:
  </text>
 <text atv:refpx="530" atv:refpy="216.5" fill="$FONTCOLOR$" font-family="Arial" font-size="12" id="id_15" text-anchor="middle" x="530" y="221">T{Attention: Unsaved changes will be lost!}
  </text>
 <svg atv:refpx="438.5" atv:refpy="253" height="30" id="btn_refresh" transform="matrix(1.5,0,0,0.6667,0,0)" width="80" x="273.333" xlink:href="SYSTEM.LIBRARY.ATVISE.OBJECTDISPLAYS.Advanced.button" y="262.5">
  <atv:argument name="label" value="T{Refresh list}"/>
  <atv:argument name="tabIndex" value="24"/>
  <atv:argument name="right" prefix="load_right"/>
  <atv:argument name="activeNode" prefix="load_activeNode"/>
  <atv:argument name="activeValue" prefix="load_activeValue"/>
  <atv:overwrite height="18.001" id="id_6" transform="matrix(0.6667,0,0,1.4999,0,0)" width="118"/>
  <atv:overwrite id="button_label_2" transform="matrix(0.6667,0,0,1.4999,0,0)" x="60" y="21.5"/>
  <atv:overwrite id="button_label_1" transform="matrix(0.6667,0,0,1.4999,0,0)" x="60" y="6.5"/>
  <atv:overwrite id="button_label" transform="matrix(0.6667,0,0,1.4999,0,0)" x="60" y="14.5"/>
  <atv:overwrite id="button_symbol_bottom" transform="matrix(0.4,0,0,0.9,0,0)" x="89.833" y="17.96"/>
  <atv:overwrite id="button_symbol_top" transform="matrix(0.4,0,0,0.9,0,0)" x="89.833" y="-3.374"/>
  <atv:overwrite id="button_symbol" transform="matrix(0.6667,0,0,1.4999,0,0)" x="50" y="0"/>
  <atv:overwrite height="16.001" id="button_stroke" transform="matrix(0.6667,0,0,1.4999,0,0)" width="116"/>
  <atv:overwrite height="18.001" id="button_bg" transform="matrix(0.6667,0,0,1.4999,0,0)" width="118"/>
  <atv:overwrite height="20.001" id="outer_frame" transform="matrix(0.6667,0,0,1.4999,0,0)" width="120"/>
 </svg>
 <rect atv:refpx="86.25" atv:refpy="19.811" fill="$FILLCOLOR$" height="300" id="filters_bg" rx="0" ry="0" stroke="#000000" stroke-width="0" width="180" x="0" y="0"/>
 <svg atv:refpx="512.056" atv:refpy="129" height="30" id="cbb_configs" transform="matrix(1.4688,0,0,1,0,0)" width="160" x="279.139" xlink:href="SYSTEM.LIBRARY.ATVISE.OBJECTDISPLAYS.Advanced.combobox" y="140">
  <atv:overwrite id="id_3" transform="matrix(0.5,0,0,1,0,0)" x="294.766"/>
  <atv:overwrite id="id_5" transform="matrix(0.5,0,0,1,0,0)" x="292.516"/>
  <atv:overwrite id="id_2" transform="matrix(0.5,0,0,1,0,0)" width="288.016"/>
  <atv:overwrite id="combobox_stroke" transform="matrix(0.5,0,0,1,0,0)" width="319.516"/>
  <atv:argument name="itemsCount" value="5"/>
  <atv:argument name="tabIndex" value="23"/>
  <atv:overwrite id="focus_frame" transform="matrix(0.6808,0,0,1,0,0)" width="231.008"/>
  <atv:overwrite id="button_stroke" transform="matrix(0.6808,0,0,1,0,0)" x="210.008"/>
  <atv:overwrite id="id_7" transform="matrix(0.6808,0,0,1,0,0)" x="210.008"/>
  <atv:overwrite id="button_bg" transform="matrix(0.6808,0,0,1,0,0)" x="210.008"/>
  <atv:overwrite id="combobox_label" transform="matrix(0.6808,0,0,1,0,0)" x="200.508"/>
  <atv:overwrite id="blinking_frame" transform="matrix(0.6808,0,0,1,0,0)" width="203.008"/>
  <atv:overwrite id="combobox_bg" transform="matrix(0.6808,0,0,1,0,0)" width="203.008"/>
  <atv:overwrite id="id_1" transform="matrix(0.6808,0,0,1,0,0)" width="233.008"/>
  <atv:overwrite id="id_0" transform="matrix(0.6808,0,0,1,0,0)" width="235.008"/>
 </svg>
 <text atv:refpx="265.5" atv:refpy="20.5" fill="$FONTCOLOR$" font-family="Arial" font-size="12" id="text_nodeOrFile" text-anchor="start" x="204.5" y="25">T{Configuration node}:
  </text>
 <text atv:refpx="281.5" atv:refpy="266.5" fill="$FONTCOLOR$" font-family="Arial" font-size="12" id="id_4" text-anchor="start" x="204.5" y="271">T{Create new configuration}:
  </text>
 <svg atv:refpx="670" atv:refpy="240" height="30" id="btn_create" width="80" x="651" xlink:href="SYSTEM.LIBRARY.ATVISE.OBJECTDISPLAYS.Advanced.button" y="250">
  <atv:argument name="label" value="T{Create}"/>
  <atv:argument name="tabIndex" value="31"/>
  <atv:argument name="right" prefix="save_right"/>
  <atv:argument name="activeNode" prefix="save_activeNode"/>
  <atv:argument name="activeValue" prefix="save_activeValue"/>
 </svg>
 <svg atv:refpx="507.499" atv:refpy="240" height="30" id="new_name" transform="matrix(1.4687,0,0,1,0,0)" width="160" x="279.839" xlink:href="SYSTEM.LIBRARY.ATVISE.OBJECTDISPLAYS.Advanced.in_out_value" y="250">
  <atv:argument name="validation" value="String"/>
  <atv:argument name="tabIndex" value="30"/>
  <atv:argument name="right" prefix="save_right"/>
  <atv:argument name="activeNode" prefix="load_activeNode"/>
  <atv:argument name="activeValue" prefix="load_activeValue" value=""/>
  <atv:overwrite id="id_2" transform="matrix(0.6809,0,0,1,0,0)" width="229.492"/>
  <atv:overwrite id="input_label" transform="matrix(0.6809,0,0,1,0,0)" x="227.047"/>
  <atv:overwrite id="blinking_frame" transform="matrix(0.6809,0,0,1,0,0)" width="226.992"/>
  <atv:overwrite id="focus_frame" transform="matrix(0.6809,0,0,1,0,0)" width="230.992"/>
  <atv:overwrite id="input_bg" transform="matrix(0.6809,0,0,1,0,0)" width="226.992"/>
  <atv:overwrite id="id_1" transform="matrix(0.6809,0,0,1,0,0)" width="232.992"/>
  <atv:overwrite id="id_0" transform="matrix(0.6809,0,0,1,0,0)" width="234.992"/>
 </svg>
 <text atv:refpx="48.5" atv:refpy="55.5" fill="#575757" font-family="Arial" font-size="12" id="text_method" text-anchor="start" x="14.5" y="60">T{Save in}: -</text>
 <text atv:refpx="45.5" atv:refpy="30.5" fill="#575757" font-family="Arial" font-size="12" font-weight="bold" id="id_19" text-anchor="start" x="14.5" y="35">T{Settings}:
  </text>
 <svg atv:refpx="90" atv:refpy="90" height="30" id="check_compression" width="160" x="14" xlink:href="SYSTEM.LIBRARY.ATVISE.OBJECTDISPLAYS.Advanced.checkbox" y="70">
  <atv:argument name="label" value="T{Compression}"/>
  <atv:argument name="outputValueOn" value="true"/>
  <atv:argument name="outputValueOff" value="false"/>
  <atv:argument name="valueOn" value="true"/>
  <atv:argument name="tabIndex" value="1"/>
 </svg>
 <svg atv:refpx="550" atv:refpy="49" height="30" id="picker_config_file" transform="matrix(2,0,0,1,0,0)" width="160" x="205.5" xlink:href="SYSTEM.LIBRARY.ATVISE.OBJECTDISPLAYS.Advanced.in_out_value" y="33">
  <atv:argument name="tabIndex" value="12"/>
  <atv:argument name="validation" value="String"/>
  <atv:overwrite id="input_label" transform="matrix(0.5,0,0,1,0,0)" x="312.055"/>
  <atv:overwrite id="blinking_frame" transform="matrix(0.5,0,0,1,0,0)" width="312"/>
  <atv:overwrite id="focus_frame" transform="matrix(0.5,0,0,1,0,0)" width="316"/>
  <atv:overwrite id="input_bg" transform="matrix(0.5,0,0,1,0,0)" width="312"/>
  <atv:overwrite id="id_1" transform="matrix(0.5,0,0,1,0,0)" width="318"/>
  <atv:overwrite id="id_0" transform="matrix(0.5,0,0,1,0,0)" width="320"/>
 </svg>
 <svg atv:refpx="549.981" atv:refpy="35" height="30" id="picker_config_address" transform="matrix(1.9999,0,0,1,0,0)" width="160" x="205.51" xlink:href="SYSTEM.LIBRARY.ATVISE.OBJECTDISPLAYS.Advanced.picker_address" y="33">
  <atv:overwrite id="id_5" transform="matrix(0.5,0,0,1,0,0)" x="292.49"/>
  <atv:argument name="tabIndex" value="10"/>
  <atv:overwrite id="id_2" transform="matrix(0.5,0,0,1,0,0)" width="319.984"/>
  <atv:overwrite id="id_1" transform="matrix(0.5,0,0,1,0,0)" x="294.734"/>
  <atv:argument name="itemsCount" value="8"/>
  <atv:overwrite id="addresspicker_clickarea" transform="matrix(0.5,0,0,1,0,0)" x="291.984"/>
  <atv:overwrite id="focus_frame" transform="matrix(0.5,0,0,1,0,0)" width="315.984"/>
  <atv:overwrite id="button_stroke" transform="matrix(0.5,0,0,1,0,0)" x="294.984"/>
  <atv:overwrite id="button_symbol" transform="matrix(0.5,0,0,1,0,0)" x="294.734"/>
  <atv:overwrite id="button_bg" transform="matrix(0.5,0,0,1,0,0)" x="294.984"/>
  <atv:overwrite id="input_label" transform="matrix(0.5,0,0,1,0,0)" x="285.984"/>
  <atv:overwrite id="blinking_frame" transform="matrix(0.5,0,0,1,0,0)" width="287.984"/>
  <atv:overwrite id="addresspicker_bg" transform="matrix(0.5,0,0,1,0,0)" width="287.984"/>
  <atv:overwrite id="id_0" transform="matrix(0.5,0,0,1,0,0)" width="317.984"/>
  <atv:overwrite id="addresspicker_stroke" transform="matrix(0.5,0,0,1,0,0)" width="319.984"/>
 </svg>
 <line atv:refpx="482.714" atv:refpy="67" id="id_6" stroke="#d7d7d7" stroke-width="0.5" x1="201" x2="781" y1="71" y2="71"/>
 <script atv:desc="" atv:href="SYSTEM.LIBRARY.ATVISE.DISPLAYSCRIPTS.highcharts.opt_save_load" atv:name="opt_save_load" atv:type="text/ecmascript"/>
 <script atv:desc="" atv:name="" type="text/ecmascript"/>
</svg>
