<?xml version='1.0' encoding='UTF-8' standalone='no'?>
<svg height="530" version="1.2" width="1200" xmlns="http://www.w3.org/2000/svg" xmlns:atv="http://webmi.atvise.com/2007/svgext" xmlns:xlink="http://www.w3.org/1999/xlink">
 <defs>
  <linearGradient gradientUnits="objectBoundingBox" id="linear_2" x1="0" x2="0" y1="0" y2="1.07843">
   <stop offset="0" stop-color="#818181"/>
   <stop offset="0.8475336322869955" stop-color="#464646"/>
   <stop offset="0.9372197309417041" stop-color="#000000"/>
  </linearGradient>
 </defs>
 <desc>Used by highcharts configuration dialog.</desc>
 <title>Configuration - X-Axis</title>
 <metadata>
  <atv:parameter behavior="optional" defaultvalue="6" desc="number of series" group="Appearance" name="num_series" substitute="" valuetype="number"/>
  <atv:gridconfig enabled="true" gridstyle="lines" height="20" width="20"/>
  <atv:snapconfig enabled="true" height="5" width="5"/>
 </metadata>
 <rect atv:refpx="90" atv:refpy="0" fill="url(#linear_2)" height="530" id="filters_bg" rx="0" ry="0" stroke="#000000" stroke-width="0" width="180" x="0" y="0"/>
 <line atv:refpx="661" atv:refpy="265" id="id_0" stroke="#000000" stroke-width="0.5" x1="661" x2="661" y1="20" y2="510"/>
 <text atv:refpx="83.548" atv:refpy="31.5" fill="#ffffff" font-family="Arial" font-size="12" font-weight="bold" id="id_2" x="24.5" y="36">T{X-Axis to configure}:</text>
 <text atv:refpx="257.212" atv:refpy="31.5" fill="#000000" font-family="Arial" font-size="12" font-weight="bold" id="id_1" x="200.5" y="36">T{Axis configuration}:</text>
 <text atv:refpx="706.84" atv:refpy="31.5" fill="#000000" font-family="Arial" font-size="12" font-weight="bold" id="id_3" x="680.5" y="36">T{Styling}:</text>
 <text atv:refpx="325" atv:refpy="105.5" fill="#000000" font-family="Arial" font-size="12" id="id_7" text-anchor="end" x="337.5" y="110">T{Title}:</text>
 <text atv:refpx="265.281" atv:refpy="189.5" fill="#000000" font-family="Arial" font-size="12" id="id_8" text-anchor="end" x="335.281" y="194">T{Time span}:</text>
 <text atv:refpx="280.281" atv:refpy="223.5" fill="#000000" font-family="Arial" font-size="12" id="id_9" text-anchor="end" x="336.281" y="228">T{Date/Time format}:</text>
 <text atv:refpx="280.39" atv:refpy="272.5" fill="#000000" font-family="Arial" font-size="12" id="id_10" text-anchor="end" x="335.39" y="277">T{Major tick interval}:</text>
 <text atv:refpx="280.39" atv:refpy="306.5" fill="#000000" font-family="Arial" font-size="12" id="id_11" text-anchor="end" x="335.39" y="311">T{Minor tick interval}:</text>
 <text atv:refpx="290.39" atv:refpy="356.5" fill="#000000" font-family="Arial" font-size="12" id="id_5" text-anchor="end" x="336.39" y="361">T{Mouse cursor}:</text>
 <svg atv:refpx="450.5" atv:refpy="106" height="30" id="xAxis_title_text" transform="matrix(1.1187,0,0,1,0,0)" width="160" x="322.682" xlink:href="SYSTEM.LIBRARY.ATVISE.OBJECTDISPLAYS.Standard.in_out_value" y="91">
  <atv:argument name="validation" value="String"/>
  <atv:argument name="tabIndex" value="21"/>
  <atv:overwrite id="id_0" transform="matrix(0.8939,0,0,1,0,0)" width="178.492"/>
  <atv:overwrite id="input_label" transform="matrix(0.8939,0,0,1,0,0)" x="170.492"/>
  <atv:overwrite id="blinking_frame" transform="matrix(0.8939,0,0,1,0,0)" width="171.992"/>
  <atv:overwrite id="focus_frame" transform="matrix(0.8939,0,0,1,0,0)" width="170.992"/>
  <atv:overwrite id="id_2" transform="matrix(0.8939,0,0,1,0,0)" width="173.492"/>
  <atv:overwrite id="input_bg" transform="matrix(0.8939,0,0,1,0,0)" width="178.492"/>
 </svg>
 <svg atv:refpx="450.445" atv:refpy="210" height="30" id="xAxis_labels_format" transform="matrix(1.1194,0,0,1,0,0)" width="160" x="322.385" xlink:href="SYSTEM.LIBRARY.ATVISE.OBJECTDISPLAYS.Standard.in_out_value" y="209">
  <atv:argument name="validation" value="String"/>
  <atv:argument name="tabIndex" value="24"/>
  <atv:overwrite id="id_0" transform="matrix(0.8933,0,0,1,0,0)" width="178.61"/>
  <atv:overwrite id="input_label" transform="matrix(0.8933,0,0,1,0,0)" x="170.604"/>
  <atv:overwrite id="blinking_frame" transform="matrix(0.8933,0,0,1,0,0)" width="172.104"/>
  <atv:overwrite id="focus_frame" transform="matrix(0.8933,0,0,1,0,0)" width="171.104"/>
  <atv:overwrite id="id_2" transform="matrix(0.8933,0,0,1,0,0)" width="173.604"/>
  <atv:overwrite id="input_bg" transform="matrix(0.8933,0,0,1,0,0)" width="178.604"/>
 </svg>
 <svg atv:refpx="392.6" atv:refpy="175" height="30" id="xAxis_timeSpan" transform="matrix(0.4,0,0,1,0,0)" width="160" x="902.5" xlink:href="SYSTEM.LIBRARY.ATVISE.OBJECTDISPLAYS.Standard.picker_value" y="174">
  <atv:argument name="tabIndex" value="22"/>
  <atv:argument name="min" value="1"/>
  <atv:overwrite id="id_0" transform="matrix(2.5,0,0,1,0,0)" width="63.5"/>
  <atv:overwrite id="clickarea_dec" transform="matrix(2.5,0,0,1,-240,0)"/>
  <atv:overwrite id="clickarea_inc" transform="matrix(2.5,0,0,1,-240,0)"/>
  <atv:overwrite id="input_label" transform="matrix(2.5,0,0,1,0,0)" x="29.5"/>
  <atv:overwrite id="input_bg" transform="matrix(2.5,0,0,1,0,0)" width="30"/>
  <atv:overwrite id="id_2" transform="matrix(2.5,0,0,1,0,0)" width="32"/>
 </svg>
 <svg atv:refpx="450.445" atv:refpy="258" height="30" id="xAxis_tickInterval" transform="matrix(1.1194,0,0,1,0,0)" width="160" x="322.385" xlink:href="SYSTEM.LIBRARY.ATVISE.OBJECTDISPLAYS.Standard.picker_value" y="257">
  <atv:argument name="tabIndex" value="25"/>
  <atv:argument name="min" value="0"/>
  <atv:overwrite id="id_0" transform="matrix(0.8933,0,0,1,0,0)" width="178.61"/>
  <atv:overwrite id="clickarea_dec" transform="matrix(0.8933,0,0,1,17.0711,0)"/>
  <atv:overwrite id="clickarea_inc" transform="matrix(0.8933,0,0,1,17.0711,0)"/>
  <atv:overwrite id="input_label" transform="matrix(0.8933,0,0,1,0,0)" x="144.61"/>
  <atv:overwrite id="input_bg" transform="matrix(0.8933,0,0,1,0,0)" width="145.11"/>
  <atv:overwrite id="id_2" transform="matrix(0.8933,0,0,1,0,0)" width="147.11"/>
 </svg>
 <svg atv:refpx="450.445" atv:refpy="293" height="30" id="xAxis_minorTickInterval" transform="matrix(1.1194,0,0,1,0,0)" width="160" x="322.385" xlink:href="SYSTEM.LIBRARY.ATVISE.OBJECTDISPLAYS.Standard.picker_value" y="292">
  <atv:argument name="tabIndex" value="27"/>
  <atv:argument name="min" value="0"/>
  <atv:overwrite id="id_0" transform="matrix(0.8933,0,0,1,0,0)" width="178.61"/>
  <atv:overwrite id="clickarea_dec" transform="matrix(0.8933,0,0,1,17.0711,0)"/>
  <atv:overwrite id="clickarea_inc" transform="matrix(0.8933,0,0,1,17.0711,0)"/>
  <atv:overwrite id="input_label" transform="matrix(0.8933,0,0,1,0,0)" x="144.61"/>
  <atv:overwrite id="input_bg" transform="matrix(0.8933,0,0,1,0,0)" width="145.11"/>
  <atv:overwrite id="id_2" transform="matrix(0.8933,0,0,1,0,0)" width="147.11"/>
 </svg>
 <text atv:refpx="573.39" atv:refpy="272.5" fill="#000000" font-family="Arial" font-size="12" id="id_21" text-anchor="start" x="554.39" y="277">[T{ms}]</text>
 <text atv:refpx="574.39" atv:refpy="307.5" fill="#000000" font-family="Arial" font-size="12" id="id_22" text-anchor="start" x="555.39" y="312">[T{ms}]</text>
 <text atv:refpx="762" atv:refpy="69.5" fill="#000000" font-family="Arial" font-size="12" id="id_23" text-anchor="end" x="816.5" y="74">T{Position of x-axis}:</text>
 <svg atv:refpx="891" atv:refpy="70" height="30" id="xAxis_opposite-false" transform="matrix(0.625,0,0,1,0,0)" width="160" x="1345.6" xlink:href="SYSTEM.LIBRARY.ATVISE.OBJECTDISPLAYS.Standard.radiobutton" y="55">
  <atv:argument name="radiogroupId" value="xAxis_opposite"/>
  <atv:argument name="label" value="T{bottom}"/>
  <atv:argument name="value" value="bottom"/>
  <atv:argument name="tabIndex" value="49"/>
  <atv:overwrite id="radiobutton_symbol" transform="matrix(1.6,0,0,1,0,0)"/>
  <atv:overwrite id="radiobutton_bg2" transform="matrix(1.6,0,0,1,0,0)"/>
  <atv:overwrite id="id_1" transform="matrix(1.6,0,0,1,0,0)"/>
  <atv:overwrite id="radiobutton_label" transform="matrix(1.6,0,0,1,0,0)" x="93"/>
  <atv:overwrite id="radiobutton_bg" transform="matrix(1.6,0,0,1,0,0)" width="66"/>
  <atv:overwrite id="id_2" transform="matrix(1.6,0,0,1,0,0)" width="68"/>
  <atv:overwrite id="id_0" transform="matrix(1.6,0,0,1,0,0)" width="99.5"/>
 </svg>
 <svg atv:refpx="996" atv:refpy="70" height="30" id="xAxis_opposite-true" transform="matrix(0.625,0,0,1,0,0)" width="160" x="1513.6" xlink:href="SYSTEM.LIBRARY.ATVISE.OBJECTDISPLAYS.Standard.radiobutton" y="55">
  <atv:argument name="radiogroupId" value="xAxis_opposite"/>
  <atv:argument name="label" value="T{top}"/>
  <atv:argument name="value" value="top"/>
  <atv:argument name="tabIndex" value="50"/>
  <atv:overwrite id="radiobutton_symbol" transform="matrix(1.6,0,0,1,0,0)"/>
  <atv:overwrite id="radiobutton_bg2" transform="matrix(1.6,0,0,1,0,0)"/>
  <atv:overwrite id="id_1" transform="matrix(1.6,0,0,1,0,0)"/>
  <atv:overwrite id="radiobutton_label" transform="matrix(1.6,0,0,1,0,0)" x="93"/>
  <atv:overwrite id="radiobutton_bg" transform="matrix(1.6,0,0,1,0,0)" width="66"/>
  <atv:overwrite id="id_2" transform="matrix(1.6,0,0,1,0,0)" width="68"/>
  <atv:overwrite id="id_0" transform="matrix(1.6,0,0,1,0,0)" width="99.5"/>
 </svg>
 <text atv:refpx="763.5" atv:refpy="105.5" fill="#000000" font-family="Arial" font-size="12" id="id_26" text-anchor="end" x="816.5" y="110">T{Label alignment}:</text>
 <text atv:refpx="786.5" atv:refpy="221.5" fill="#000000" font-family="Arial" font-size="12" id="id_27" text-anchor="end" x="814.5" y="226">T{Line color}:</text>
 <text atv:refpx="771" atv:refpy="256.5" fill="#000000" font-family="Arial" font-size="12" id="id_28" text-anchor="end" x="814.5" y="261">T{Crosshair color}:</text>
 <text atv:refpx="771.5" atv:refpy="290.5" fill="#000000" font-family="Arial" font-size="12" id="id_29" text-anchor="end" x="814.5" y="295">T{Major grid color}:</text>
 <text atv:refpx="771.5" atv:refpy="324.5" fill="#000000" font-family="Arial" font-size="12" id="id_30" text-anchor="end" x="814.5" y="329">T{Minor grid color}:</text>
 <text atv:refpx="770.5" atv:refpy="374.5" fill="#000000" font-family="Arial" font-size="12" id="id_31" text-anchor="end" x="814.5" y="379">T{Major grid width}:</text>
 <text atv:refpx="770.5" atv:refpy="409.5" fill="#000000" font-family="Arial" font-size="12" id="id_32" text-anchor="end" x="814.5" y="414">T{Minor grid width}:</text>
 <text atv:refpx="752" atv:refpy="495.5" fill="#000000" font-family="Arial" font-size="12" id="id_33" text-anchor="end" x="814.5" y="500">T{Mouse cursor line type}:</text>
 <svg atv:refpx="891" atv:refpy="105" height="30" id="xAxis_labels_align-left" transform="matrix(0.625,0,0,1,0,0)" width="160" x="1345.6" xlink:href="SYSTEM.LIBRARY.ATVISE.OBJECTDISPLAYS.Standard.radiobutton" y="90">
  <atv:argument name="radiogroupId" value="xAxis_labels_align"/>
  <atv:argument name="label" value="T{left}"/>
  <atv:argument name="value" value="left"/>
  <atv:argument name="tabIndex" value="51"/>
  <atv:overwrite id="radiobutton_symbol" transform="matrix(1.6,0,0,1,0,0)"/>
  <atv:overwrite id="radiobutton_bg2" transform="matrix(1.6,0,0,1,0,0)"/>
  <atv:overwrite id="id_1" transform="matrix(1.6,0,0,1,0,0)"/>
  <atv:overwrite id="radiobutton_label" transform="matrix(1.6,0,0,1,0,0)" x="93"/>
  <atv:overwrite id="radiobutton_bg" transform="matrix(1.6,0,0,1,0,0)" width="66"/>
  <atv:overwrite id="id_2" transform="matrix(1.6,0,0,1,0,0)" width="68"/>
  <atv:overwrite id="id_0" transform="matrix(1.6,0,0,1,0,0)" width="99.5"/>
 </svg>
 <svg atv:refpx="996" atv:refpy="105" height="30" id="xAxis_labels_align-center" transform="matrix(0.625,0,0,1,0,0)" width="160" x="1513.6" xlink:href="SYSTEM.LIBRARY.ATVISE.OBJECTDISPLAYS.Standard.radiobutton" y="90">
  <atv:argument name="radiogroupId" value="xAxis_labels_align"/>
  <atv:argument name="label" value="T{center}"/>
  <atv:argument name="value" value="center"/>
  <atv:argument name="tabIndex" value="52"/>
  <atv:overwrite id="radiobutton_symbol" transform="matrix(1.6,0,0,1,0,0)"/>
  <atv:overwrite id="radiobutton_bg2" transform="matrix(1.6,0,0,1,0,0)"/>
  <atv:overwrite id="id_1" transform="matrix(1.6,0,0,1,0,0)"/>
  <atv:overwrite id="radiobutton_label" transform="matrix(1.6,0,0,1,0,0)" x="93"/>
  <atv:overwrite id="radiobutton_bg" transform="matrix(1.6,0,0,1,0,0)" width="66"/>
  <atv:overwrite id="id_2" transform="matrix(1.6,0,0,1,0,0)" width="68"/>
  <atv:overwrite id="id_0" transform="matrix(1.6,0,0,1,0,0)" width="99.5"/>
 </svg>
 <svg atv:refpx="1101" atv:refpy="105" height="30" id="xAxis_labels_align-right" transform="matrix(0.625,0,0,1,0,0)" width="160" x="1681.6" xlink:href="SYSTEM.LIBRARY.ATVISE.OBJECTDISPLAYS.Standard.radiobutton" y="90">
  <atv:argument name="radiogroupId" value="xAxis_labels_align"/>
  <atv:argument name="label" value="T{right}"/>
  <atv:argument name="value" value="right"/>
  <atv:argument name="tabIndex" value="53"/>
  <atv:overwrite id="radiobutton_symbol" transform="matrix(1.6,0,0,1,0,0)"/>
  <atv:overwrite id="radiobutton_bg2" transform="matrix(1.6,0,0,1,0,0)"/>
  <atv:overwrite id="id_1" transform="matrix(1.6,0,0,1,0,0)"/>
  <atv:overwrite id="radiobutton_label" transform="matrix(1.6,0,0,1,0,0)" x="93"/>
  <atv:overwrite id="radiobutton_bg" transform="matrix(1.6,0,0,1,0,0)" width="66"/>
  <atv:overwrite id="id_2" transform="matrix(1.6,0,0,1,0,0)" width="68"/>
  <atv:overwrite id="id_0" transform="matrix(1.6,0,0,1,0,0)" width="99.5"/>
 </svg>
 <svg atv:refpx="889" atv:refpy="220" height="30" id="xAxis_lineColor" transform="matrix(0.625,0,0,1,0,0)" width="160" x="1342.4" xlink:href="SYSTEM.LIBRARY.ATVISE.OBJECTDISPLAYS.Standard.picker_color" y="205">
  <atv:argument name="name" value="xAxis_lineColor"/>
  <atv:argument name="tabIndex" value="56"/>
  <atv:overwrite id="id_1" transform="matrix(1.6,0,0,1,0,0)" x="74.75"/>
  <atv:overwrite id="button_bg" transform="matrix(1.6,0,0,1,0,0)" x="73.5"/>
  <atv:overwrite height="24.5" id="button_stroke" transform="matrix(1.6,0,0,1,0,0)" width="24.5" x="72.5" y="2.75"/>
  <atv:overwrite id="blinking_frame" transform="matrix(1.6,0,0,1,0,0)" width="66"/>
  <atv:overwrite id="input_label" transform="matrix(1.6,0,0,1,0,0)" x="63.5"/>
  <atv:overwrite id="input_bg" transform="matrix(1.6,0,0,1,0,0)" width="66"/>
  <atv:overwrite id="id_2" transform="matrix(1.6,0,0,1,0,0)" width="68"/>
  <atv:overwrite id="id_0" transform="matrix(1.6,0,0,1,0,0)" width="99.5"/>
 </svg>
 <svg atv:refpx="889.002" atv:refpy="255" height="30" id="xAxis_crosshair_color" transform="matrix(0.625,0,0,1,0,0)" width="160" x="1342.4" xlink:href="SYSTEM.LIBRARY.ATVISE.OBJECTDISPLAYS.Standard.picker_color" y="240">
  <atv:argument name="name" value="xAxis_crosshair_color"/>
  <atv:argument name="tabIndex" value="57"/>
  <atv:overwrite id="id_1" transform="matrix(1.6,0,0,1,0,0)" x="74.75"/>
  <atv:overwrite id="button_bg" transform="matrix(1.6,0,0,1,0,0)" x="73.5"/>
  <atv:overwrite height="24.5" id="button_stroke" transform="matrix(1.6,0,0,1,0,0)" width="24.5" x="72.5" y="2.75"/>
  <atv:overwrite id="blinking_frame" transform="matrix(1.6,0,0,1,0,0)" width="66"/>
  <atv:overwrite id="input_label" transform="matrix(1.6,0,0,1,0,0)" x="63.5"/>
  <atv:overwrite id="input_bg" transform="matrix(1.6,0,0,1,0,0)" width="66"/>
  <atv:overwrite id="id_2" transform="matrix(1.6,0,0,1,0,0)" width="68"/>
  <atv:overwrite id="id_0" transform="matrix(1.6,0,0,1,0,0)" width="99.5"/>
 </svg>
 <svg atv:refpx="888.002" atv:refpy="290" height="30" id="xAxis_gridLineColor" transform="matrix(0.625,0,0,1,0,0)" width="160" x="1340.8" xlink:href="SYSTEM.LIBRARY.ATVISE.OBJECTDISPLAYS.Standard.picker_color" y="275">
  <atv:argument name="name" value="xAxis_gridLineColor"/>
  <atv:argument name="tabIndex" value="58"/>
  <atv:overwrite id="id_1" transform="matrix(1.6,0,0,1,0,0)" x="74.75"/>
  <atv:overwrite id="button_bg" transform="matrix(1.6,0,0,1,0,0)" x="73.5"/>
  <atv:overwrite height="24.5" id="button_stroke" transform="matrix(1.6,0,0,1,0,0)" width="24.5" x="72.5" y="2.75"/>
  <atv:overwrite id="blinking_frame" transform="matrix(1.6,0,0,1,0,0)" width="66"/>
  <atv:overwrite id="input_label" transform="matrix(1.6,0,0,1,0,0)" x="63.5"/>
  <atv:overwrite id="input_bg" transform="matrix(1.6,0,0,1,0,0)" width="66"/>
  <atv:overwrite id="id_2" transform="matrix(1.6,0,0,1,0,0)" width="68"/>
  <atv:overwrite id="id_0" transform="matrix(1.6,0,0,1,0,0)" width="99.5"/>
 </svg>
 <svg atv:refpx="889.002" atv:refpy="325" height="30" id="xAxis_minorGridLineColor" transform="matrix(0.625,0,0,1,0,0)" width="160" x="1342.4" xlink:href="SYSTEM.LIBRARY.ATVISE.OBJECTDISPLAYS.Standard.picker_color" y="310">
  <atv:argument name="name" value="xAxis_minorGridLineColor"/>
  <atv:argument name="tabIndex" value="59"/>
  <atv:overwrite id="id_1" transform="matrix(1.6,0,0,1,0,0)" x="74.75"/>
  <atv:overwrite id="button_bg" transform="matrix(1.6,0,0,1,0,0)" x="73.5"/>
  <atv:overwrite height="24.5" id="button_stroke" transform="matrix(1.6,0,0,1,0,0)" width="24.5" x="72.5" y="2.75"/>
  <atv:overwrite id="blinking_frame" transform="matrix(1.6,0,0,1,0,0)" width="66"/>
  <atv:overwrite id="input_label" transform="matrix(1.6,0,0,1,0,0)" x="63.5"/>
  <atv:overwrite id="input_bg" transform="matrix(1.6,0,0,1,0,0)" width="66"/>
  <atv:overwrite id="id_2" transform="matrix(1.6,0,0,1,0,0)" width="68"/>
  <atv:overwrite id="id_0" transform="matrix(1.6,0,0,1,0,0)" width="99.5"/>
 </svg>
 <svg atv:refpx="889" atv:refpy="375" height="30" id="xAxis_gridLineWidth" transform="matrix(0.625,0,0,1,0,0)" width="160" x="1342.4" xlink:href="SYSTEM.LIBRARY.ATVISE.OBJECTDISPLAYS.Standard.picker_value" y="360">
  <atv:argument name="tabIndex" value="60"/>
  <atv:argument name="min" value="0"/>
  <atv:overwrite id="id_0" transform="matrix(1.6,0,0,1,0,0)" width="99.5"/>
  <atv:overwrite id="clickarea_dec" transform="matrix(1.6,0,0,1,-96,0)"/>
  <atv:overwrite id="clickarea_inc" transform="matrix(1.6,0,0,1,-96,0)"/>
  <atv:overwrite id="input_label" transform="matrix(1.92,0,0,1,6.56,0)" x="50"/>
  <atv:overwrite id="blinking_frame" transform="matrix(1.6,0,0,1,0,0)" width="66"/>
  <atv:overwrite id="input_bg" transform="matrix(1.6,0,0,1,0,0)" width="66"/>
  <atv:overwrite id="id_2" transform="matrix(1.6,0,0,1,0,0)" width="68"/>
  <atv:overwrite id="bg" transform="matrix(1.6,0,0,1,0,0)" width="99.5"/>
 </svg>
 <svg atv:refpx="889" atv:refpy="410" height="30" id="xAxis_minorGridLineWidth" transform="matrix(0.625,0,0,1,0,0)" width="160" x="1342.4" xlink:href="SYSTEM.LIBRARY.ATVISE.OBJECTDISPLAYS.Standard.picker_value" y="395">
  <atv:argument name="tabIndex" value="61"/>
  <atv:argument name="min" value="0"/>
  <atv:overwrite id="id_0" transform="matrix(1.6,0,0,1,0,0)" width="99.5"/>
  <atv:overwrite id="clickarea_dec" transform="matrix(1.6,0,0,1,-96,0)"/>
  <atv:overwrite id="clickarea_inc" transform="matrix(1.6,0,0,1,-96,0)"/>
  <atv:overwrite id="input_label" transform="matrix(1.92,0,0,1,6.56,0)" x="50"/>
  <atv:overwrite id="blinking_frame" transform="matrix(1.6,0,0,1,0,0)" width="66"/>
  <atv:overwrite id="input_bg" transform="matrix(1.6,0,0,1,0,0)" width="66"/>
  <atv:overwrite id="id_2" transform="matrix(1.6,0,0,1,0,0)" width="68"/>
  <atv:overwrite id="bg" transform="matrix(1.6,0,0,1,0,0)" width="99.5"/>
 </svg>
 <svg atv:refpx="889" atv:refpy="495" height="30" id="xAxis_crosshair_dashStyle-Solid" transform="matrix(0.625,0,0,1,0,0)" width="160" x="1342.4" xlink:href="SYSTEM.LIBRARY.ATVISE.OBJECTDISPLAYS.Standard.radiobutton" y="480">
  <atv:argument name="radiogroupId" value="xAxis_crosshair_dashStyle"/>
  <atv:argument name="label" value="T{solid}"/>
  <atv:argument name="value" value="solid"/>
  <atv:argument name="tabIndex" value="63"/>
  <atv:overwrite id="radiobutton_symbol" transform="matrix(1.6,0,0,1,0,0)"/>
  <atv:overwrite id="blinking_frame" transform="matrix(1.6,0,0,1,0,0)"/>
  <atv:overwrite id="radiobutton_bg2" transform="matrix(1.6,0,0,1,0,0)"/>
  <atv:overwrite id="id_1" transform="matrix(1.6,0,0,1,0,0)"/>
  <atv:overwrite id="radiobutton_label" transform="matrix(2.2858,0,0,1,-32.2286,0)" x="77.5"/>
  <atv:overwrite id="radiobutton_bg" transform="matrix(1.6,0,0,1,0,0)" width="66"/>
  <atv:overwrite id="id_2" transform="matrix(1.6,0,0,1,0,0)" width="68"/>
  <atv:overwrite id="id_0" transform="matrix(1.6,0,0,1,0,0)" width="99.5"/>
 </svg>
 <svg atv:refpx="994" atv:refpy="495" height="30" id="xAxis_crosshair_dashStyle-Dot" transform="matrix(0.625,0,0,1,0,0)" width="160" x="1510.4" xlink:href="SYSTEM.LIBRARY.ATVISE.OBJECTDISPLAYS.Standard.radiobutton" y="480">
  <atv:argument name="radiogroupId" value="xAxis_crosshair_dashStyle"/>
  <atv:argument name="label" value="T{dotted}"/>
  <atv:argument name="value" value="dotted"/>
  <atv:argument name="tabIndex" value="64"/>
  <atv:overwrite id="radiobutton_symbol" transform="matrix(1.6,0,0,1,0,0)"/>
  <atv:overwrite id="blinking_frame" transform="matrix(1.6,0,0,1,0,0)"/>
  <atv:overwrite id="radiobutton_bg2" transform="matrix(1.6,0,0,1,0,0)"/>
  <atv:overwrite id="id_1" transform="matrix(1.6,0,0,1,0,0)"/>
  <atv:overwrite id="radiobutton_label" transform="matrix(2.1714,0,0,1,-22.8571,0)" x="77.5"/>
  <atv:overwrite id="radiobutton_bg" transform="matrix(1.6,0,0,1,0,0)" width="66"/>
  <atv:overwrite id="id_2" transform="matrix(1.6,0,0,1,0,0)" width="68"/>
  <atv:overwrite id="id_0" transform="matrix(1.6,0,0,1,0,0)" width="99.5"/>
 </svg>
 <svg atv:refpx="1099" atv:refpy="495" height="30" id="xAxis_crosshair_dashStyle-Dash" transform="matrix(0.625,0,0,1,0,0)" width="160" x="1678.4" xlink:href="SYSTEM.LIBRARY.ATVISE.OBJECTDISPLAYS.Standard.radiobutton" y="480">
  <atv:argument name="radiogroupId" value="xAxis_crosshair_dashStyle"/>
  <atv:argument name="label" value="T{dashed}"/>
  <atv:argument name="value" value="dashed"/>
  <atv:argument name="tabIndex" value="65"/>
  <atv:overwrite id="radiobutton_symbol" transform="matrix(1.6,0,0,1,0,0)"/>
  <atv:overwrite id="blinking_frame" transform="matrix(1.6,0,0,1,0,0)"/>
  <atv:overwrite id="radiobutton_bg2" transform="matrix(1.6,0,0,1,0,0)"/>
  <atv:overwrite id="id_1" transform="matrix(1.6,0,0,1,0,0)"/>
  <atv:overwrite id="radiobutton_label" transform="matrix(2.08,0,0,1,-15.36,0)" x="77.5"/>
  <atv:overwrite id="radiobutton_bg" transform="matrix(1.6,0,0,1,0,0)" width="66"/>
  <atv:overwrite id="id_2" transform="matrix(1.6,0,0,1,0,0)" width="68"/>
  <atv:overwrite id="id_0" transform="matrix(1.6,0,0,1,0,0)" width="99.5"/>
 </svg>
 <text atv:refpx="965" atv:refpy="374.5" fill="#000000" font-family="Arial" font-size="12" id="id_48" text-anchor="start" x="956.5" y="379">[T{px}]</text>
 <text atv:refpx="965" atv:refpy="409.5" fill="#000000" font-family="Arial" font-size="12" id="id_49" text-anchor="start" x="956.5" y="414">[T{px}]</text>
 <svg atv:refpx="90.5" atv:refpy="105" height="30" id="axisSelector0" transform="matrix(0.8688,0,0,1,0,0)" width="160" x="24.173" xlink:href="SYSTEM.LIBRARY.ATVISE.OBJECTDISPLAYS.Standard.radiobutton" y="90">
  <atv:argument name="label" value="T{X-Axis}"/>
  <atv:argument name="value" value="0"/>
  <atv:argument name="tabIndex" value="10"/>
  <atv:argument name="radiogroupId" value="g0"/>
  <atv:argument name="preselected" value="true"/>
  <atv:overwrite id="radiobutton_symbol" transform="matrix(1.151,0,0,1,0,0)"/>
  <atv:overwrite id="radiobutton_bg2" transform="matrix(1.151,0,0,1,0,0)"/>
  <atv:overwrite id="id_1" transform="matrix(1.151,0,0,1,0,0)"/>
  <atv:overwrite id="radiobutton_label" transform="matrix(1.151,0,0,1,0,0)" x="132.008"/>
  <atv:overwrite id="radiobutton_bg" transform="matrix(1.151,0,0,1,0,0)" width="105.008"/>
  <atv:overwrite id="id_2" transform="matrix(1.151,0,0,1,0,0)" width="107.008"/>
  <atv:overwrite id="id_0" transform="matrix(1.151,0,0,1,0,0)" width="138.508"/>
 </svg>
 <svg atv:refpx="90" atv:refpy="175" height="30" id="axisSelector2" transform="matrix(0.875,0,0,1,0,0)" visibility="hidden" width="160" x="22.857" xlink:href="SYSTEM.LIBRARY.ATVISE.OBJECTDISPLAYS.Standard.radiobutton" y="160">
  <atv:argument name="label" value="T{X-Axis}"/>
  <atv:argument name="radiogroupId" value="g0"/>
  <atv:argument name="value" value="2"/>
  <atv:argument name="tabIndex" value="12"/>
  <atv:overwrite id="radiobutton_symbol" transform="matrix(1.1429,0,0,1,0,0)"/>
  <atv:overwrite id="radiobutton_bg2" transform="matrix(1.1429,0,0,1,0,0)"/>
  <atv:overwrite id="id_1" transform="matrix(1.1429,0,0,1,0,0)"/>
  <atv:overwrite id="radiobutton_label" transform="matrix(1.1429,0,0,1,0,0)" x="133"/>
  <atv:overwrite id="radiobutton_bg" transform="matrix(1.1429,0,0,1,0,0)" width="106"/>
  <atv:overwrite id="id_2" transform="matrix(1.1429,0,0,1,0,0)" width="108"/>
  <atv:overwrite id="id_0" transform="matrix(1.1429,0,0,1,0,0)" width="139.5"/>
 </svg>
 <svg atv:refpx="90" atv:refpy="210" height="30" id="axisSelector3" transform="matrix(0.875,0,0,1,0,0)" visibility="hidden" width="160" x="22.857" xlink:href="SYSTEM.LIBRARY.ATVISE.OBJECTDISPLAYS.Standard.radiobutton" y="195">
  <atv:argument name="label" value="T{X-Axis}"/>
  <atv:argument name="radiogroupId" value="g0"/>
  <atv:argument name="value" value="3"/>
  <atv:argument name="tabIndex" value="13"/>
  <atv:overwrite id="radiobutton_symbol" transform="matrix(1.1429,0,0,1,0,0)"/>
  <atv:overwrite id="radiobutton_bg2" transform="matrix(1.1429,0,0,1,0,0)"/>
  <atv:overwrite id="id_1" transform="matrix(1.1429,0,0,1,0,0)"/>
  <atv:overwrite id="radiobutton_label" transform="matrix(1.1429,0,0,1,0,0)" x="133"/>
  <atv:overwrite id="radiobutton_bg" transform="matrix(1.1429,0,0,1,0,0)" width="106"/>
  <atv:overwrite id="id_2" transform="matrix(1.1429,0,0,1,0,0)" width="108"/>
  <atv:overwrite id="id_0" transform="matrix(1.1429,0,0,1,0,0)" width="139.5"/>
 </svg>
 <svg atv:refpx="90" atv:refpy="245" height="30" id="axisSelector4" transform="matrix(0.875,0,0,1,0,0)" visibility="hidden" width="160" x="22.857" xlink:href="SYSTEM.LIBRARY.ATVISE.OBJECTDISPLAYS.Standard.radiobutton" y="230">
  <atv:argument name="label" value="T{X-Axis}"/>
  <atv:argument name="radiogroupId" value="g0"/>
  <atv:argument name="value" value="4"/>
  <atv:argument name="tabIndex" value="14"/>
  <atv:overwrite id="radiobutton_symbol" transform="matrix(1.1429,0,0,1,0,0)"/>
  <atv:overwrite id="radiobutton_bg2" transform="matrix(1.1429,0,0,1,0,0)"/>
  <atv:overwrite id="id_1" transform="matrix(1.1429,0,0,1,0,0)"/>
  <atv:overwrite id="radiobutton_label" transform="matrix(1.1429,0,0,1,0,0)" x="133"/>
  <atv:overwrite id="radiobutton_bg" transform="matrix(1.1429,0,0,1,0,0)" width="106"/>
  <atv:overwrite id="id_2" transform="matrix(1.1429,0,0,1,0,0)" width="108"/>
  <atv:overwrite id="id_0" transform="matrix(1.1429,0,0,1,0,0)" width="139.5"/>
 </svg>
 <svg atv:refpx="90" atv:refpy="280" height="30" id="axisSelector5" transform="matrix(0.875,0,0,1,0,0)" visibility="hidden" width="160" x="22.857" xlink:href="SYSTEM.LIBRARY.ATVISE.OBJECTDISPLAYS.Standard.radiobutton" y="265">
  <atv:argument name="label" value="T{X-Axis}"/>
  <atv:argument name="radiogroupId" value="g0"/>
  <atv:argument name="value" value="5"/>
  <atv:argument name="tabIndex" value="15"/>
  <atv:overwrite id="radiobutton_symbol" transform="matrix(1.1429,0,0,1,0,0)"/>
  <atv:overwrite id="radiobutton_bg2" transform="matrix(1.1429,0,0,1,0,0)"/>
  <atv:overwrite id="id_1" transform="matrix(1.1429,0,0,1,0,0)"/>
  <atv:overwrite id="radiobutton_label" transform="matrix(1.1429,0,0,1,0,0)" x="133"/>
  <atv:overwrite id="radiobutton_bg" transform="matrix(1.1429,0,0,1,0,0)" width="106"/>
  <atv:overwrite id="id_2" transform="matrix(1.1429,0,0,1,0,0)" width="108"/>
  <atv:overwrite id="id_0" transform="matrix(1.1429,0,0,1,0,0)" width="139.5"/>
 </svg>
 <svg atv:refpx="90" atv:refpy="140" height="30" id="axisSelector1" transform="matrix(0.875,0,0,1,0,0)" visibility="hidden" width="160" x="22.857" xlink:href="SYSTEM.LIBRARY.ATVISE.OBJECTDISPLAYS.Standard.radiobutton" y="125">
  <atv:argument name="label" value="T{X-Axis}"/>
  <atv:argument name="radiogroupId" value="g0"/>
  <atv:argument name="value" value="1"/>
  <atv:argument name="tabIndex" value="11"/>
  <atv:overwrite id="radiobutton_symbol" transform="matrix(1.1429,0,0,1,0,0)"/>
  <atv:overwrite id="radiobutton_bg2" transform="matrix(1.1429,0,0,1,0,0)"/>
  <atv:overwrite id="id_1" transform="matrix(1.1429,0,0,1,0,0)"/>
  <atv:overwrite id="radiobutton_label" transform="matrix(1.1429,0,0,1,0,0)" x="133"/>
  <atv:overwrite id="radiobutton_bg" transform="matrix(1.1429,0,0,1,0,0)" width="106"/>
  <atv:overwrite id="id_2" transform="matrix(1.1429,0,0,1,0,0)" width="108"/>
  <atv:overwrite id="id_0" transform="matrix(1.1429,0,0,1,0,0)" width="139.5"/>
 </svg>
 <svg atv:refpx="90.001" atv:refpy="70" height="30" id="btn_add" transform="matrix(1.75,0,0,1,0,0)" width="80" x="11.429" xlink:href="SYSTEM.LIBRARY.ATVISE.OBJECTDISPLAYS.Standard.button" y="55">
  <atv:argument name="symbol" value="SYSTEM.LIBRARY.ATVISE.OBJECTDISPLAYS.Symbols.20x20.plus"/>
  <atv:argument name="label" value="T{Add}"/>
  <atv:argument name="tabIndex" value="1"/>
  <atv:overwrite id="button_stroke" transform="matrix(0.5714,0,0,1,0,0)" width="132"/>
  <atv:overwrite id="button_label" transform="matrix(0.5714,0,0,1,0,0)" x="70"/>
  <atv:overwrite id="button_symbol" transform="matrix(0.5714,0,0,1,0,0)" x="60"/>
  <atv:overwrite id="button_bg" transform="matrix(0.5714,0,0,1,0,0)" width="132"/>
  <atv:overwrite id="id_2" transform="matrix(0.5714,0,0,1,0,0)" width="134.5"/>
  <atv:overwrite id="id_0" transform="matrix(0.5714,0,0,1,0,0)" width="139.5"/>
 </svg>
 <svg atv:refpx="407.947" atv:refpy="343" height="30" id="xAxis_crosshair_width" transform="matrix(0.5883,0,0,1,0,0)" width="160" x="613.462" xlink:href="SYSTEM.LIBRARY.ATVISE.OBJECTDISPLAYS.Standard.checkbox" y="341">
  <atv:argument name="valueOn" value="true"/>
  <atv:argument name="outputValueOn" value="true"/>
  <atv:argument name="outputValueOff" value="false"/>
  <atv:argument name="label" value="T{visible}"/>
  <atv:argument name="tabIndex" value="27"/>
  <atv:overwrite id="checkbox_symbol" transform="matrix(1.6999,0,0,1,0,0)"/>
  <atv:overwrite id="blinking_frame" transform="matrix(1.6999,0,0,1,0,0)"/>
  <atv:overwrite id="checkbox_bg2" transform="matrix(1.6999,0,0,1,0,0)"/>
  <atv:overwrite id="id_5" transform="matrix(1.6999,0,0,1,0,0)"/>
  <atv:overwrite id="checkbox_item" transform="matrix(1.6999,0,0,1,0,0)" x="86.622"/>
  <atv:overwrite id="checkbox_bg" transform="matrix(1.6999,0,0,1,0,0)" width="60.122"/>
  <atv:overwrite id="id_2" transform="matrix(1.6999,0,0,1,0,0)" width="62.122"/>
  <atv:overwrite id="id_0" transform="matrix(1.6999,0,0,1,0,0)" width="93.622"/>
 </svg>
 <svg atv:refpx="509.384" atv:refpy="344" height="30" id="xAxis_crosshair_snap" transform="matrix(0.625,0,0,1,0,0)" width="160" x="736" xlink:href="SYSTEM.LIBRARY.ATVISE.OBJECTDISPLAYS.Standard.checkbox" y="341">
  <atv:argument name="valueOn" value="true"/>
  <atv:argument name="outputValueOn" value="true"/>
  <atv:argument name="outputValueOff" value="false"/>
  <atv:argument name="label" value="T{snapping}"/>
  <atv:argument name="tabIndex" value="28"/>
  <atv:overwrite id="checkbox_symbol" transform="matrix(1.6,0,0,1,0,0)"/>
  <atv:overwrite id="blinking_frame" transform="matrix(1.6,0,0,1,0,0)"/>
  <atv:overwrite id="checkbox_bg2" transform="matrix(1.6,0,0,1,0,0)"/>
  <atv:overwrite id="id_5" transform="matrix(1.6,0,0,1,0,0)"/>
  <atv:overwrite id="checkbox_item" transform="matrix(1.6,0,0,1,0,0)" x="92.5"/>
  <atv:overwrite id="checkbox_bg" transform="matrix(1.6,0,0,1,0,0)" width="66"/>
  <atv:overwrite id="id_2" transform="matrix(1.6,0,0,1,0,0)" width="68"/>
  <atv:overwrite id="id_0" transform="matrix(1.6,0,0,1,0,0)" width="99.5"/>
 </svg>
 <svg atv:refpx="90.001" atv:refpy="495" height="30" id="btn_delete" transform="matrix(1.75,0,0,1,0,0)" width="80" x="11.429" xlink:href="SYSTEM.LIBRARY.ATVISE.OBJECTDISPLAYS.Standard.button" y="480">
  <atv:argument name="symbol" value="SYSTEM.LIBRARY.ATVISE.OBJECTDISPLAYS.Symbols.20x20.plus"/>
  <atv:argument name="label" value="T{Delete selected}"/>
  <atv:argument name="tabIndex" value="20"/>
  <atv:overwrite id="button_stroke" transform="matrix(0.5714,0,0,1,0,0)" width="132"/>
  <atv:overwrite id="button_label" transform="matrix(0.5714,0,0,1,0,0)" x="70"/>
  <atv:overwrite id="button_symbol" transform="matrix(0.5714,0,0,1,0,0)" x="60"/>
  <atv:overwrite id="button_bg" transform="matrix(0.5714,0,0,1,0,0)" width="132"/>
  <atv:overwrite id="id_2" transform="matrix(0.5714,0,0,1,0,0)" width="134.5"/>
  <atv:overwrite id="id_0" transform="matrix(0.5714,0,0,1,0,0)" width="139.5"/>
 </svg>
 <!--
 <svg id="xAxis_max" width="160" transform="matrix(1.1187,0,0,1,0,0)" atv:refpy="140" height="30" atv:refpx="449.381" y="139" x="322.682" xlink:href="SYSTEM.LIBRARY.ATVISE.OBJECTDISPLAYS.Standard.picker_date">
  <atv:argument value="xAxis_max" name="name"/>
  <atv:overwrite id="id_1" transform="matrix(0.8939,0,0,1,0,0)" x="154"/>
  <atv:overwrite id="button_bg" transform="matrix(0.8939,0,0,1,0,0)" x="152.5"/>
  <atv:overwrite id="button_stroke" width="25" transform="matrix(0.8939,0,0,1,0,0)" height="24.5" x="151.5" y="2.75"/>
  <atv:overwrite id="datepicker_label" transform="matrix(0.8939,0,0,1,0,0)" x="144.5"/>
  <atv:overwrite id="input_bg" width="145" transform="matrix(0.8939,0,0,1,0,0)"/>
  <atv:overwrite id="id_2" width="147" transform="matrix(0.8939,0,0,1,0,0)"/>
  <atv:overwrite id="id_0" width="178.5" transform="matrix(0.8939,0,0,1,0,0)"/>
 </svg>
 <svg id="xAxis_min" width="160" transform="matrix(1.1187,0,0,1,0,0)" atv:refpy="105" height="30" atv:refpx="449.381" y="104" x="322.682" xlink:href="SYSTEM.LIBRARY.ATVISE.OBJECTDISPLAYS.Standard.picker_date">
  <atv:argument value="xAxis_min" name="name"/>
  <atv:overwrite id="id_1" transform="matrix(0.8939,0,0,1,0,0)" x="154"/>
  <atv:overwrite id="button_bg" transform="matrix(0.8939,0,0,1,0,0)" x="152.5"/>
  <atv:overwrite id="button_stroke" width="25" transform="matrix(0.8939,0,0,1,0,0)" height="24.5" x="151.5" y="2.75"/>
  <atv:overwrite id="datepicker_label" transform="matrix(0.8939,0,0,1,0,0)" x="144.5"/>
  <atv:overwrite id="input_bg" width="145" transform="matrix(0.8939,0,0,1,0,0)"/>
  <atv:overwrite id="id_2" width="147" transform="matrix(0.8939,0,0,1,0,0)"/>
  <atv:overwrite id="id_0" width="178.5" transform="matrix(0.8939,0,0,1,0,0)"/>
 </svg>
 <text id="id_14" font-size="12" fill="$FONTCOLOR$" atv:refpy="153.5" atv:refpx="302.172" font-family="Arial" x="335.172" y="158" text-anchor="end">T{End time}:</text>
 <text id="id_15" font-size="12" fill="$FONTCOLOR$" atv:refpy="119.5" atv:refpx="300.672" font-family="Arial" x="335.172" y="124" text-anchor="end">T{Start time}:</text>
 -->
 <svg atv:refpx="498.709" atv:refpy="198.973" height="30" id="xAxis_timeSpanUnit" transform="matrix(0.6872,0,0,1,0,0)" width="160" x="625.84" xlink:href="SYSTEM.LIBRARY.ATVISE.OBJECTDISPLAYS.Standard.combobox" y="174">
  <atv:argument name="fontFamily" value="MS Trebuchet,ITC Avant Garde Gothic,MS Arial,MS Verdana,Univers,Futura,ITC Stone Sans,Gill Sans,Akzidenz Grotesk,Helvetica,sans-serif"/>
  <atv:argument name="tabIndex" value="23"/>
  <atv:overwrite id="focus_frame" transform="matrix(1.455,0,0,1,0,0)" width="105.964"/>
  <atv:overwrite id="id_7" transform="matrix(1.455,0,0,1,0,0)" x="84.964"/>
  <atv:overwrite id="id_0" transform="matrix(1.455,0,0,1,0,0)" width="109.964"/>
  <atv:overwrite id="id_3" transform="matrix(1.4553,0,0,1,0,0)" x="84.696"/>
  <atv:overwrite id="button_bg" transform="matrix(1.4553,0,0,1,0,0)" x="83.446"/>
  <atv:overwrite id="button_stroke" transform="matrix(1.4553,0,0,1,0,0)" x="83.446"/>
  <atv:overwrite id="id_5" transform="matrix(1.4553,0,0,1,0,0)" x="82.446"/>
  <atv:overwrite id="blinking_frame" transform="matrix(1.455,0,0,1,0,0)" width="77.964"/>
  <atv:overwrite id="combobox_label" transform="matrix(1.4553,0,0,1,0,0)" x="75.446"/>
  <atv:overwrite id="combobox_bg" transform="matrix(1.4553,0,0,1,0,0)" width="75.946"/>
  <atv:overwrite id="id_2" transform="matrix(1.4553,0,0,1,0,0)" width="77.946"/>
  <atv:overwrite id="combobox_stroke" transform="matrix(1.4553,0,0,1,0,0)" width="109.446"/>
 </svg>
 <text atv:refpx="786.5" atv:refpy="444.5" fill="#000000" font-family="Arial" font-size="12" id="id_4" text-anchor="end" x="814.5" y="449">T{Axis width}:</text>
 <svg atv:refpx="889" atv:refpy="445" height="30" id="xAxis_lineWidth" transform="matrix(0.625,0,0,1,0,0)" width="160" x="1342.4" xlink:href="SYSTEM.LIBRARY.ATVISE.OBJECTDISPLAYS.Standard.picker_value" y="430">
  <atv:argument name="tabIndex" value="62"/>
  <atv:argument name="min" value="0"/>
  <atv:overwrite id="id_0" transform="matrix(1.6,0,0,1,0,0)" width="99.5"/>
  <atv:overwrite id="clickarea_dec" transform="matrix(1.6,0,0,1,-96,0)"/>
  <atv:overwrite id="clickarea_inc" transform="matrix(1.6,0,0,1,-96,0)"/>
  <atv:overwrite id="input_label" transform="matrix(1.92,0,0,1,6.56,0)" x="50"/>
  <atv:overwrite id="blinking_frame" transform="matrix(1.6,0,0,1,0,0)" width="66"/>
  <atv:overwrite id="input_bg" transform="matrix(1.6,0,0,1,0,0)" width="66"/>
  <atv:overwrite id="id_2" transform="matrix(1.6,0,0,1,0,0)" width="68"/>
  <atv:overwrite id="bg" transform="matrix(1.6,0,0,1,0,0)" width="99.5"/>
 </svg>
 <text atv:refpx="965" atv:refpy="444.5" fill="#000000" font-family="Arial" font-size="12" id="id_12" text-anchor="start" x="956.5" y="449">[T{px}]</text>
 <script atv:desc="" atv:href="SYSTEM.LIBRARY.ATVISE.DISPLAYSCRIPTS.highcharts.opt_xaxis" atv:name="opt_xaxis" atv:type="text/ecmascript"/>
 <script atv:desc="" atv:name="" type="text/ecmascript"/>
 <text atv:refpx="785" atv:refpy="151.5" fill="$FONTCOLOR$" font-family="Arial" font-size="12" id="id_6" text-anchor="end" x="812.5" y="156">T{Title color}:</text>
 <text atv:refpx="781" atv:refpy="186.5" fill="$FONTCOLOR$" font-family="Arial" font-size="12" id="id_14" text-anchor="end" x="812.5" y="191">T{Label color}:</text>
 <svg atv:refpx="890" atv:refpy="150" height="30" id="xAxis_title_style_color" transform="matrix(0.625,0,0,1,0,0)" width="160" x="1344" xlink:href="SYSTEM.LIBRARY.ATVISE.OBJECTDISPLAYS.Standard.picker_color" y="135">
  <atv:argument name="name" value="xAxis_title_style_color"/>
  <atv:argument name="tabIndex" value="54"/>
  <atv:overwrite id="focus_frame" transform="matrix(1.6,0,0,1,0,0)" width="96"/>
  <atv:overwrite id="id_1" transform="matrix(1.6,0,0,1,0,0)" x="74.75"/>
  <atv:overwrite id="button_bg" transform="matrix(1.6,0,0,1,0,0)" x="73.5"/>
  <atv:overwrite height="24.5" id="button_stroke" transform="matrix(1.6,0,0,1,0,0)" width="24.5" x="72.5" y="2.75"/>
  <atv:overwrite id="blinking_frame" transform="matrix(1.6,0,0,1,0,0)" width="66"/>
  <atv:overwrite id="input_label" transform="matrix(1.6,0,0,1,0,0)" x="63.5"/>
  <atv:overwrite id="input_bg" transform="matrix(1.6,0,0,1,0,0)" width="66"/>
  <atv:overwrite id="id_2" transform="matrix(1.6,0,0,1,0,0)" width="68"/>
  <atv:overwrite id="id_0" transform="matrix(1.6,0,0,1,0,0)" width="99.5"/>
 </svg>
 <svg atv:refpx="890.002" atv:refpy="185" height="30" id="xAxis_labels_style_color" transform="matrix(0.625,0,0,1,0,0)" width="160" x="1344" xlink:href="SYSTEM.LIBRARY.ATVISE.OBJECTDISPLAYS.Standard.picker_color" y="170">
  <atv:argument name="name" value="xAxis_labels_style_color"/>
  <atv:argument name="tabIndex" value="55"/>
  <atv:overwrite id="focus_frame" transform="matrix(1.6,0,0,1,0,0)" width="96"/>
  <atv:overwrite id="id_1" transform="matrix(1.6,0,0,1,0,0)" x="74.75"/>
  <atv:overwrite id="button_bg" transform="matrix(1.6,0,0,1,0,0)" x="73.5"/>
  <atv:overwrite height="24.5" id="button_stroke" transform="matrix(1.6,0,0,1,0,0)" width="24.5" x="72.5" y="2.75"/>
  <atv:overwrite id="blinking_frame" transform="matrix(1.6,0,0,1,0,0)" width="66"/>
  <atv:overwrite id="input_label" transform="matrix(1.6,0,0,1,0,0)" x="63.5"/>
  <atv:overwrite id="input_bg" transform="matrix(1.6,0,0,1,0,0)" width="66"/>
  <atv:overwrite id="id_2" transform="matrix(1.6,0,0,1,0,0)" width="68"/>
  <atv:overwrite id="id_0" transform="matrix(1.6,0,0,1,0,0)" width="99.5"/>
 </svg>
</svg>
